<?xml version="1.0" encoding="utf-8"?>
<!-- Generator: Adobe Illustrator 18.1.0, SVG Export Plug-In . SVG Version: 6.00 Build 0)  -->
<!DOCTYPE svg PUBLIC "-//W3C//DTD SVG 1.1//EN" "http://www.w3.org/Graphics/SVG/1.1/DTD/svg11.dtd">
<svg version="1.1" id="Layer_1" xmlns="http://www.w3.org/2000/svg" xmlns:xlink="http://www.w3.org/1999/xlink" x="0px" y="0px"
	 viewBox="0 0 540 540" enable-background="new 0 0 540 540" xml:space="preserve">
<g>
	<rect fill="none" width="540" height="540"/>
	<g>
		<g>
			<path fill="#81B5C9" d="M154.1,341.3h4.3l3.8,12.3l4.1-12.4h3.4l4.1,12.4l3.8-12.3h4.2l-6.2,18.3H172l-4.1-11.9l-4.1,11.9h-3.5
				L154.1,341.3z"/>
			<path fill="#81B5C9" d="M191.6,350.4L191.6,350.4c0-5.2,4.1-9.5,9.7-9.5s9.6,4.2,9.6,9.4v0.1c0,5.2-4.1,9.4-9.7,9.4
				S191.6,355.6,191.6,350.4z M206.8,350.4L206.8,350.4c0-3.2-2.3-5.8-5.5-5.8c-3.2,0-5.5,2.5-5.5,5.7v0.1c0,3.1,2.3,5.7,5.5,5.7
				C204.6,356.1,206.8,353.6,206.8,350.4z"/>
			<path fill="#81B5C9" d="M222.3,341.3h8.3c2.3,0,4.1,0.7,5.3,1.8c1,1,1.6,2.4,1.6,4.2v0.1c0,2.9-1.6,4.8-3.9,5.6l4.4,6.5h-4.7
				l-3.9-5.8h-0.1h-3.1v5.8h-4V341.3z M230.4,350.1c2,0,3.1-1,3.1-2.6v-0.1c0-1.7-1.2-2.6-3.1-2.6h-4v5.2H230.4z"/>
			<path fill="#81B5C9" d="M248.9,341.3h4v8l7.4-8h4.8l-7.4,7.7l7.7,10.5h-4.8l-5.6-7.7l-2.1,2.2v5.6h-4V341.3z"/>
			<path fill="#81B5C9" d="M274.5,356.8l2.4-2.8c1.6,1.4,3.4,2.2,5.4,2.2c1.6,0,2.6-0.7,2.6-1.7v-0.1c0-1-0.6-1.5-3.7-2.3
				c-3.7-0.9-6-2-6-5.6v-0.1c0-3.3,2.7-5.5,6.4-5.5c2.7,0,4.9,0.8,6.8,2.3l-2.1,3c-1.6-1.1-3.2-1.8-4.7-1.8s-2.3,0.7-2.3,1.6v0.1
				c0,1.2,0.8,1.6,3.9,2.4c3.7,1,5.8,2.3,5.8,5.5v0.1c0,3.6-2.8,5.6-6.7,5.6C279.4,359.7,276.6,358.8,274.5,356.8z"/>
			<path fill="#81B5C9" d="M300.1,341.3h4v7.2h7.4v-7.2h4v18.2h-4v-7.3h-7.4v7.3h-4V341.3z"/>
			<path fill="#81B5C9" d="M326.9,350.4L326.9,350.4c0-5.2,4.1-9.5,9.7-9.5s9.6,4.2,9.6,9.4v0.1c0,5.2-4.1,9.4-9.7,9.4
				S326.9,355.6,326.9,350.4z M342.1,350.4L342.1,350.4c0-3.2-2.3-5.8-5.5-5.8c-3.2,0-5.5,2.5-5.5,5.7v0.1c0,3.1,2.3,5.7,5.5,5.7
				C339.8,356.1,342.1,353.6,342.1,350.4z"/>
			<path fill="#81B5C9" d="M357.6,341.3h7.4c4.3,0,7,2.6,7,6.3v0.1c0,4.2-3.3,6.4-7.4,6.4h-3v5.5h-4V341.3z M364.8,350.5
				c2,0,3.2-1.2,3.2-2.8v-0.1c0-1.8-1.2-2.8-3.3-2.8h-3.1v5.6H364.8z"/>
		</g>
		<g>
			<path fill="#FFFFFF" d="M56,225.2h13.2L97,290.7H82.1l-5.9-14.6H48.7l-5.9,14.6H28.1L56,225.2z M71,263.5l-8.6-21.1l-8.6,21.1H71
				z"/>
			<path fill="#FFFFFF" d="M122.5,257.6l-21.7-31.9h16.7l13.6,21.1l13.7-21.1h16.2l-21.7,31.8l22.7,33.2h-16.7l-14.6-22.3
				l-14.7,22.3H99.8L122.5,257.6z"/>
			<path fill="#FFFFFF" d="M169.4,262.8v-37.1h14.3v36.8c0,10.6,5.3,16.1,14,16.1c8.7,0,14-5.3,14-15.6v-37.2H226v36.7
				c0,19.7-11,29.3-28.5,29.3S169.4,282,169.4,262.8z"/>
			<path fill="#FFFFFF" d="M238.2,225.7H268c8.3,0,14.7,2.3,18.9,6.6c3.6,3.6,5.6,8.7,5.6,14.9v0.2c0,10.5-5.7,17.1-13.9,20.1
				l15.9,23.2h-16.7l-13.9-20.8h-0.2h-11v20.8h-14.3V225.7z M267,257.3c7,0,11-3.7,11-9.2v-0.2c0-6.1-4.3-9.3-11.2-9.3h-14.2v18.7
				H267z"/>
			<path fill="#FFFFFF" d="M303.1,225.7h49v12.7h-34.8v13.2h30.6v12.7h-30.6V278h35.3v12.7h-49.5V225.7z"/>
			<path fill="#FFFFFF" d="M388.5,225.7h29.7c8.3,0,14.7,2.3,18.9,6.6c3.6,3.6,5.6,8.7,5.6,14.9v0.2c0,10.5-5.7,17.1-13.9,20.1
				l15.9,23.2h-16.7L414,269.9h-0.2h-11v20.8h-14.3V225.7z M417.3,257.3c7,0,11-3.7,11-9.2v-0.2c0-6.1-4.3-9.3-11.2-9.3h-14.2v18.7
				H417.3z"/>
			<path fill="#FFFFFF" d="M453.3,225.7h26.6c15.5,0,24.9,9.2,24.9,22.5v0.2c0,15-11.7,22.8-26.3,22.8h-10.9v19.5h-14.3V225.7z
				 M478.9,258.5c7.1,0,11.3-4.3,11.3-9.8v-0.2c0-6.4-4.5-9.8-11.6-9.8h-11v19.9H478.9z"/>
		</g>
		<g>
			<g>
				<path fill="#81B5C9" d="M174.3,178.2c-5.1,0-8.9-3.9-8.9-8.9v0c0-4.9,3.7-8.9,9-8.9c3.3,0,5.2,1.1,6.8,2.7l-2.4,2.8
					c-1.3-1.2-2.7-2-4.4-2c-2.9,0-5,2.4-5,5.4v0.1c0,3,2,5.4,5,5.4c2,0,3.2-0.8,4.5-2l2.4,2.4C179.6,177.1,177.6,178.2,174.3,178.2z
					"/>
				<path fill="#81B5C9" d="M193.3,178V171h-7v6.9h-3.8v-17.3h3.8v6.8h7v-6.8h3.8V178H193.3z"/>
				<path fill="#81B5C9" d="M199.8,178v-17.3h3.8V178H199.8z"/>
				<path fill="#81B5C9" d="M214.2,178.2c-5.1,0-8.9-3.9-8.9-8.9v0c0-4.9,3.7-8.9,9-8.9c3.3,0,5.2,1.1,6.8,2.7l-2.4,2.8
					c-1.3-1.2-2.7-2-4.4-2c-2.9,0-5,2.4-5,5.4v0.1c0,3,2,5.4,5,5.4c2,0,3.2-0.8,4.5-2l2.4,2.4C219.5,177.1,217.5,178.2,214.2,178.2z
					"/>
				<path fill="#81B5C9" d="M235.3,178l-1.6-3.9h-7.3l-1.6,3.9H221l7.4-17.4h3.5l7.4,17.4H235.3z M230.1,165.1l-2.3,5.6h4.6
					L230.1,165.1z"/>
				<path fill="#81B5C9" d="M247.5,178.2c-5.4,0-9.1-3.8-9.1-8.9v0c0-4.9,3.8-8.9,9.1-8.9c3.1,0,5,0.8,6.8,2.4l-2.4,2.9
					c-1.3-1.1-2.5-1.8-4.5-1.8c-2.8,0-5,2.4-5,5.4v0.1c0,3.2,2.2,5.5,5.2,5.5c1.4,0,2.6-0.3,3.6-1v-2.5h-3.8V168h7.5v7.5
					C253.1,177,250.6,178.2,247.5,178.2z"/>
				<path fill="#81B5C9" d="M265.2,178.2c-5.3,0-9.2-4-9.2-8.9v0c0-4.9,3.9-8.9,9.2-8.9c5.3,0,9.2,4,9.2,8.9v0.1
					C274.4,174.2,270.5,178.2,265.2,178.2z M270.4,169.3c0-3-2.2-5.4-5.2-5.4c-3.1,0-5.2,2.4-5.2,5.4v0.1c0,3,2.2,5.4,5.2,5.4
					C268.3,174.7,270.4,172.3,270.4,169.3L270.4,169.3z"/>
				<path fill="#81B5C9" d="M296.2,178.2c-5.1,0-8.9-3.9-8.9-8.9v0c0-4.9,3.7-8.9,9-8.9c3.3,0,5.2,1.1,6.8,2.7l-2.4,2.8
					c-1.3-1.2-2.7-2-4.4-2c-2.9,0-5,2.4-5,5.4v0.1c0,3,2,5.4,5,5.4c2,0,3.2-0.8,4.5-2l2.4,2.4C301.6,177.1,299.6,178.2,296.2,178.2z
					"/>
				<path fill="#81B5C9" d="M317.4,178l-1.6-3.9h-7.3L307,178h-3.9l7.4-17.4h3.5l7.4,17.4H317.4z M312.2,165.1l-2.3,5.6h4.6
					L312.2,165.1z"/>
				<path fill="#81B5C9" d="M335.7,178v-11.3l-4.9,7.4h-0.1l-4.8-7.3V178h-3.7v-17.3h4.1l4.5,7.3l4.5-7.3h4.1V178H335.7z"/>
				<path fill="#81B5C9" d="M348.8,172.8h-2.9v5.2h-3.8v-17.3h7.1c4.1,0,6.6,2.4,6.6,6v0.1C355.8,170.7,352.7,172.8,348.8,172.8z
					 M351.9,166.7c0-1.7-1.2-2.6-3.1-2.6h-2.9v5.3h3C350.8,169.4,351.9,168.3,351.9,166.7L351.9,166.7z"/>
				<path fill="#81B5C9" d="M363.1,178.2c-2.6,0-5.3-0.9-7.3-2.8l2.2-2.7c1.6,1.3,3.2,2.1,5.2,2.1c1.6,0,2.5-0.6,2.5-1.6v0
					c0-1-0.6-1.5-3.5-2.2c-3.5-0.9-5.7-1.9-5.7-5.3v0c0-3.1,2.5-5.2,6-5.2c2.5,0,4.7,0.8,6.4,2.2l-2,2.9c-1.5-1.1-3-1.7-4.5-1.7
					c-1.5,0-2.2,0.7-2.2,1.5v0c0,1.1,0.7,1.5,3.7,2.3c3.5,0.9,5.5,2.2,5.5,5.2v0C369.4,176.3,366.8,178.2,363.1,178.2z"/>
			</g>
			<polygon fill="#FF0000" points="280.9,166 281.5,168.7 284.2,167.9 282.2,169.8 284.2,171.8 281.5,171 280.9,173.7 280.2,171 
				277.6,171.8 279.6,169.8 277.6,167.9 280.2,168.7 			"/>
		</g>
		<g>
			<polygon fill="#FF0000" points="104.2,202.6 104.2,165.2 267.4,71 430.6,165.2 430.6,202.6 440.6,202.6 440.6,159.4 267.4,59.4 
				94.2,159.4 94.2,202.6 			"/>
			<polygon fill="#FF0000" points="430.6,316.3 430.6,353.7 267.4,447.9 104.2,353.7 104.2,316.3 94.2,316.3 94.2,359.4 
				267.4,459.4 440.6,359.4 440.6,316.3 			"/>
		</g>
	</g>
</g>
</svg>
