<?xml version="1.0" encoding="utf-8"?>
<!-- Generator: Adobe Illustrator 18.1.0, SVG Export Plug-In . SVG Version: 6.00 Build 0)  -->
<!DOCTYPE svg PUBLIC "-//W3C//DTD SVG 1.1//EN" "http://www.w3.org/Graphics/SVG/1.1/DTD/svg11.dtd">
<svg version="1.1" id="Layer_1" xmlns="http://www.w3.org/2000/svg" xmlns:xlink="http://www.w3.org/1999/xlink" x="0px" y="0px"
	 viewBox="0 0 270 270" enable-background="new 0 0 270 270" xml:space="preserve">
<path fill="#B3DDF2" d="M232.3,136.4c-0.5-15.3-4.7-30.4-12.5-44.1c-1.2-2.2-2.6-4.3-4-6.4c-2.6-8.2-6.2-15.8-12.5-21.5
	c-6.1-5.5-14-8.3-22.4-10.1c-14-7.5-29.8-11.7-46.2-11.7c-2.3,0-4.5,0.1-6.7,0.2c-4.5-1-9-1.6-13.3-1.6c-4,0-7.7,0.5-11.1,1.7
	c-8.1,2.6-14.4,8.1-20.2,14.4c-15.5,9.6-27.8,23.2-35.7,39.3c-5.8,6.3-10.7,13.3-12.5,21.9c-1.8,8.6-0.3,16.9,2.4,25.1
	c0.5,15.3,4.7,30.4,12.5,44.1c1.2,2.2,2.6,4.3,4,6.4c2.6,8.2,6.2,15.8,12.5,21.5c6.1,5.5,14,8.3,22.4,10.1
	c14,7.5,29.8,11.7,46.2,11.7c0,0,0,0,0,0c2.3,0,4.5-0.1,6.7-0.2c4.5,1,8.9,1.6,13.3,1.6c0,0,0,0,0,0c4,0,7.7-0.5,11.1-1.7
	c8-2.6,14.4-8.1,20.2-14.4c15.5-9.6,27.8-23.2,35.8-39.3c5.8-6.3,10.6-13.3,12.5-21.9C236.5,152.9,235,144.5,232.3,136.4z"/>
<path fill="#FFFFFF" d="M234,136.3c-0.6-15.6-4.8-30.9-12.7-44.9c-1.3-2.2-2.6-4.4-4-6.5c-2.7-8.3-6.3-16.1-12.7-21.9
	c-6.2-5.6-14.2-8.4-22.7-10.3c-14.2-7.6-30.3-11.8-47-11.8c-2.3,0-4.6,0.1-6.9,0.2c-4.6-1-9.1-1.6-13.5-1.6c-4.1,0-7.8,0.5-11.3,1.7
	c-8.2,2.6-14.7,8.2-20.5,14.7c-15.8,9.8-28.2,23.5-36.3,39.9c-5.9,6.4-10.8,13.5-12.7,22.3c-1.9,8.7-0.3,17.2,2.4,25.5
	c0.6,15.6,4.8,30.9,12.7,44.8c1.3,2.2,2.6,4.4,4,6.5c2.7,8.3,6.3,16.1,12.7,21.9c6.2,5.6,14.2,8.4,22.7,10.3
	c14.2,7.6,30.3,11.8,47,11.9c0,0,0,0,0,0c2.3,0,4.6-0.1,6.9-0.2c4.6,1,9.1,1.6,13.5,1.6c0,0,0,0,0,0c4.1,0,7.8-0.5,11.3-1.7
	c8.2-2.6,14.7-8.2,20.5-14.7c15.8-9.8,28.2-23.6,36.4-39.9c5.9-6.4,10.8-13.5,12.7-22.3C238.2,153.1,236.7,144.6,234,136.3z
	 M229.5,124.4c-0.1-0.3-0.3-0.6-0.4-0.9c-1.7-4.2-3.3-8.3-4.6-12.3c-1.3-4.1-2.5-8.6-3.5-13c-0.1-0.3-0.1-0.6-0.2-0.9
	C225,106,227.9,115.1,229.5,124.4z M220.3,183.3c-2.7,2.9-5.6,5.6-8.4,8.3c-3.2,3.1-6.5,6.2-9.4,9.4c-0.8,0.8-1.5,1.7-2.3,2.6
	c1.5-3,2.9-6.1,4.3-9.1c1.9-4.2,3.7-8.2,5.8-11.9c2.2-3.8,4.8-7.7,7.4-11.4c5.3-7.6,10.6-15.5,12.8-24c-0.5,6.2-1.6,12.4-3.3,18.5
	C225.4,171.9,223.1,177.8,220.3,183.3z M129.3,232.4c-4.4-1.2-9-2.5-13.5-3.5c-1.3-0.3-2.6-0.5-3.9-0.8c3.4-0.2,6.8-0.5,10.2-0.8
	c4.5-0.4,9.2-0.9,13.6-0.9l0.4,0c4.1,0,8.3,0.4,12.8,0.8c4.5,0.4,9.2,0.8,13.8,0.8c0,0,0,0,0,0c5.1,0,9.5-0.5,13.4-1.6
	c-11,5.2-23,8.3-35.1,9C137.1,234.6,133.2,233.5,129.3,232.4z M51.9,181c-1.1-4.4-2.2-8.9-3.6-13.1c-0.5-1.4-1-2.9-1.5-4.4
	c1.9,2.9,3.9,5.8,5.9,8.6c2.7,3.8,5.4,7.7,7.7,11.6c2.3,3.9,4.4,8.2,6.4,12.4c4,8.2,8,16.6,14.1,22.7C70.7,211.9,61.9,203,55,192.4
	C53.9,188.7,52.9,184.8,51.9,181z M49.7,96.6c2.7-2.9,5.6-5.6,8.4-8.3c3.2-3.1,6.5-6.2,9.4-9.4c0.8-0.8,1.5-1.7,2.3-2.6
	c-1.5,3-2.9,6.1-4.3,9.1c-1.9,4.2-3.7,8.2-5.8,11.9c-2.2,3.8-4.8,7.7-7.4,11.4c-5.2,7.6-10.6,15.4-12.8,24
	c0.5-6.2,1.6-12.4,3.3-18.5C44.6,108,46.9,102.1,49.7,96.6z M140.7,47.5c4.4,1.2,9,2.5,13.5,3.5c1.3,0.3,2.6,0.5,4,0.8
	c-3.4,0.2-6.8,0.5-10.2,0.8c-4.5,0.4-9.2,0.9-13.6,0.9l-0.4,0c-4.1,0-8.3-0.4-12.8-0.8c-4.5-0.4-9.2-0.8-13.8-0.8
	c-5.1,0-9.5,0.5-13.4,1.6c11-5.2,23-8.3,35.1-9C132.9,45.3,136.8,46.4,140.7,47.5z M218.1,98.9c1.1,4.4,2.2,8.9,3.6,13.2
	c0.5,1.4,1,2.9,1.5,4.4c-1.9-2.9-3.9-5.8-5.9-8.6c-2.7-3.8-5.4-7.7-7.7-11.6c-2.3-3.9-4.4-8.2-6.4-12.4c-3.9-8.2-8-16.6-14.1-22.7
	c10.1,6.9,18.9,15.8,25.8,26.3C216.1,91.2,217.1,95.1,218.1,98.9z M182.3,220.6c-5.2,3.1-11.5,4.5-19.7,4.5c0,0,0,0,0,0
	c-4.5,0-9.1-0.4-13.6-0.8c-4.3-0.4-8.8-0.8-13-0.8l-0.4,0c-4.5,0-9.2,0.5-13.8,0.9c-4.8,0.4-9.7,0.9-14.4,0.9
	c-7.8,0-13.7-1.3-18.6-4.1c-9.2-5.2-14.1-15.5-19.4-26.4c-2-4.2-4.1-8.6-6.5-12.6c-2.4-4-5.2-8-7.8-11.8c-7-9.9-13.5-19.3-13.6-29.8
	c-0.1-10.9,6.7-20.8,13.3-30.3c2.6-3.8,5.3-7.7,7.5-11.6c2.1-3.8,4-8,5.9-12.1C73,76,77.9,65,87.7,59.3c5.2-3.1,11.5-4.5,19.7-4.5
	c4.5,0,9.1,0.4,13.6,0.8c4.3,0.4,8.8,0.8,13,0.8l0.4,0c4.5,0,9.2-0.5,13.8-0.9c4.8-0.4,9.7-0.9,14.4-0.9c7.8,0,13.7,1.3,18.6,4.1
	c9.2,5.2,14.1,15.5,19.4,26.4c2,4.2,4.1,8.6,6.5,12.6c2.4,4,5.2,8,7.8,11.8c7,9.9,13.5,19.3,13.6,29.8c0.1,10.9-6.7,20.8-13.3,30.3
	c-2.6,3.8-5.3,7.7-7.5,11.6c-2.1,3.8-4,8-5.9,12.1C197,203.9,192.1,214.9,182.3,220.6z M202.6,65.2c3.4,3.1,5.9,6.8,8,10.9
	c-5.7-6.8-12.3-12.7-19.5-17.7C195.4,60.1,199.3,62.2,202.6,65.2z M169.1,50.6c-0.3,0-0.5-0.1-0.8-0.1c-4.5-0.7-9.1-1.4-13.5-2.3
	c-4.4-0.9-8.9-2.2-13.3-3.4c-0.3-0.1-0.6-0.2-0.9-0.2C150.5,45,160.1,47.1,169.1,50.6z M104.1,44c3.2-1,6.6-1.5,10.4-1.5
	c0.9,0,1.8,0,2.7,0.1c-8.6,1.6-16.9,4.3-24.8,8C96,47.7,99.8,45.4,104.1,44z M74.5,65.8c-0.2,0.3-0.4,0.5-0.6,0.8
	c-2.8,3.5-5.6,7.1-8.6,10.4c-2.8,3.1-6,6.1-9.3,9.3c-0.2,0.2-0.5,0.5-0.7,0.7C60.6,78.9,67.1,71.8,74.5,65.8z M36.5,118.7
	c1-4.6,2.9-8.8,5.5-12.6c-0.8,2.3-1.6,4.7-2.3,7.1c-1.8,6.3-2.9,12.8-3.4,19.2C35.6,127.9,35.5,123.3,36.5,118.7z M40.5,155.5
	c0.1,0.3,0.3,0.6,0.4,0.9c1.7,4.2,3.3,8.3,4.6,12.3c1.3,4.1,2.5,8.6,3.5,13c0.1,0.3,0.1,0.6,0.2,0.9C45,173.9,42.1,164.8,40.5,155.5
	z M67.4,214.6c-3.4-3.1-5.9-6.8-8-10.9c5.7,6.8,12.3,12.7,19.5,17.7C74.6,219.8,70.7,217.7,67.4,214.6z M100.9,229.3
	c0.3,0,0.5,0.1,0.8,0.1c4.5,0.7,9.1,1.4,13.5,2.3c4.4,0.9,8.9,2.2,13.3,3.4c0.3,0.1,0.6,0.2,0.9,0.2
	C119.5,234.9,109.9,232.8,100.9,229.3z M165.9,235.9c-3.2,1-6.6,1.5-10.4,1.5h0c-0.9,0-1.8,0-2.7-0.1c8.6-1.6,16.9-4.3,24.8-8
	C174,232.2,170.2,234.5,165.9,235.9z M195.5,214.1c0.2-0.3,0.4-0.5,0.6-0.8c2.8-3.5,5.6-7.1,8.6-10.4c2.8-3.1,6-6.1,9.3-9.3
	c0.2-0.2,0.5-0.5,0.7-0.7C209.4,201,202.9,208.1,195.5,214.1z M233.5,161.2c-1,4.6-2.9,8.8-5.5,12.6c0.8-2.3,1.6-4.7,2.3-7.1
	c1.8-6.3,2.9-12.8,3.4-19.2C234.4,152,234.5,156.6,233.5,161.2z"/>
<path fill="#FFFFFF" d="M0,139.3l1.1-19.4l5.9,0.3l-0.7,12.6l4.1,0.2l0.7-11.4l5.6,0.3l-0.7,11.4l8.6,0.5l-0.4,6.7L0,139.3z"/>
<path fill="#FFFFFF" d="M3.1,108.9l3.3-11c1.1-3.5,2.7-5.7,4.8-6.8c1.7-1,3.7-1.1,6-0.4l0.1,0c3.5,1.1,5.3,3.7,5.7,6.9l9.8-3.1
	l-2.2,7.4l-8.4,2.5l0,0.1l-0.8,2.8l7,2.1l-1.9,6.4L3.1,108.9z M17.4,101.6c0.7-2.2,0-3.8-1.7-4.3l-0.1,0c-1.8-0.6-3.2,0.5-3.8,2.6
	l-1.3,4.2l5.6,1.7L17.4,101.6z"/>
<path fill="#FFFFFF" d="M23.8,85L23.8,85c-6-3.7-7.8-11.4-3.9-17.8c3.9-6.4,11.6-8.2,17.5-4.5l0.1,0c5.9,3.7,7.8,11.4,3.9,17.8
	C37.4,86.9,29.7,88.7,23.8,85z M33.9,68.6L33.9,68.6c-3-1.9-7-1.3-8.9,1.8c-1.9,3.1-0.7,6.8,2.3,8.6l0.1,0c3,1.8,6.9,1.3,8.8-1.8
	C38.1,74.1,36.9,70.5,33.9,68.6z"/>
<path fill="#FFFFFF" d="M35,47.2l4.6-4.3l16,2.6l-8.7-9.4l4.9-4.5l16.5,17.8l-4.3,4l-16.6-2.7l9,9.7l-4.9,4.5L35,47.2z"/>
<path fill="#FFFFFF" d="M69.5,27.1l-6.3,3.5l-2.9-5.1l18.6-10.4l2.9,5.1l-6.3,3.5l8.9,16l-5.9,3.3L69.5,27.1z"/>
<path fill="#FFFFFF" d="M88.1,22.9l10.7-3.8l1.9,5.4l-10.7,3.8L88.1,22.9z"/>
<path fill="#FFFFFF" d="M106.2,6.1l19.3-2.8l0.8,5.7l-12.7,1.9l0.5,3.6l11.5-1.7l0.8,5.2l-11.5,1.7l0.6,3.8l12.9-1.9l0.8,5.7
	l-19.5,2.9L106.2,6.1z"/>
<path fill="#FFFFFF" d="M137.8,2.9l6.2,0.6l8.6,13.8l1.3-12.7l6.6,0.7l-2.5,24.1l-5.9-0.6l-8.9-14.3l-1.4,13.2l-6.6-0.7L137.8,2.9z"
	/>
<path fill="#FFFFFF" d="M173.4,8.3l8.7,3.4c8.1,3.1,11,9.6,8.4,16.1l0,0.1c-2.5,6.5-9.1,9.5-17.3,6.4l-8.6-3.3L173.4,8.3z
	 M175.6,28.8c3.7,1.4,7,0.3,8.4-3.3l0-0.1c1.4-3.6-0.3-6.7-4-8.1l-2.6-1l-4.4,11.5L175.6,28.8z"/>
<path fill="#FFFFFF" d="M208.9,39.5L208.9,39.5c4.8-5.3,12.5-5.8,18-0.9c3.7,3.3,4.6,7,4.2,10.6l-6.4-0.5c0.1-2.2-0.3-4.1-2-5.7
	c-2.5-2.3-6.2-1.7-8.6,0.9l0,0.1c-2.4,2.7-2.6,6.4,0,8.7c1.9,1.7,3.8,1.8,6,1.5l1.3,6.1c-3.8,0.8-7.6,0.5-11.6-3.1
	C204.7,52.5,204.1,44.9,208.9,39.5z"/>
<path fill="#FFFFFF" d="M246.1,61.1l3.6,5.4L235,88.5l-4-6l2.6-3.9l-5.2-7.8l-4.6,0.9l-3.9-5.9L246.1,61.1z M237,74.2l4.3-6.1
	l-7.3,1.5L237,74.2z"/>
<path fill="#FFFFFF" d="M259.9,85.1l2.1,6.8l-7.2,8.3l10.7,2.7l2.1,6.8l-23.1,7.3l-2-6.4l13.3-4.2l-10.9-3l0-0.1l7.1-8.7l-13.2,4.2
	l-2-6.3L259.9,85.1z"/>
<path fill="#FFFFFF" d="M269.5,122.7l0.5,10.4c0.3,6.1-2.7,10.2-8.1,10.4l-0.1,0c-5.7,0.3-8.9-4-9.2-10l-0.1-3.3l-6.9,0.3l-0.3-6.7
	L269.5,122.7z M257.9,133.1c0.1,2.4,1.4,3.8,3.3,3.7l0.1,0c2.1-0.1,3.1-1.6,3-4l-0.1-3.1l-6.4,0.3L257.9,133.1z"/>
<g>
	<polygon fill="#FF0000" points="153.1,258.5 150,259.8 151.5,262.9 148.8,260.8 146.9,263.7 147.3,260.3 143.9,260.1 147.1,258.7 
		145.5,255.7 148.3,257.7 150.2,254.9 149.7,258.3 	"/>
</g>
<path fill="#FFFFFF" d="M43.4,218.6L43.4,218.6c2.9-2.8,7.2-2.9,10.2,0.2c1.8,1.9,2.3,3.6,2.3,5.4l-3,0.2c0-1.4-0.4-2.6-1.3-3.6
	c-1.6-1.7-4.2-1.5-5.9,0.1l0,0c-1.7,1.7-2,4.2-0.3,5.9c1.1,1.1,2.2,1.4,3.7,1.5l-0.1,2.8c-2.1,0-3.9-0.4-5.7-2.4
	C40.3,225.8,40.5,221.4,43.4,218.6z"/>
<path fill="#FFFFFF" d="M59.7,225.1l2.4,1.9l-3.4,4.3l4.4,3.5l3.4-4.3l2.4,1.9l-8.5,10.9l-2.4-1.9l3.4-4.4l-4.4-3.5l-3.4,4.4
	l-2.4-1.9L59.7,225.1z"/>
<path fill="#FFFFFF" d="M72.3,234.4l2.6,1.6l-7.4,11.7l-2.6-1.6L72.3,234.4z"/>
<path fill="#FFFFFF" d="M74.3,244L74.3,244c1.8-3.5,5.9-5.1,9.7-3.1c2.3,1.2,3.3,2.7,3.9,4.4l-2.7,1.1c-0.5-1.3-1.2-2.4-2.4-3
	c-2.1-1.1-4.5-0.1-5.5,2l0,0c-1.1,2.1-0.5,4.6,1.6,5.7c1.4,0.7,2.6,0.6,4,0.2l0.8,2.6c-2,0.7-3.8,0.8-6.2-0.4
	C73.8,251.7,72.5,247.6,74.3,244z"/>
<path fill="#FFFFFF" d="M96.5,246.4l2.7,0.9l1.1,15.1l-3-1l-0.2-3.3l-5.5-1.9l-2.2,2.5l-2.9-1L96.5,246.4z M96.9,255.1l-0.3-4.8
	l-3.2,3.6L96.9,255.1z"/>
<path fill="#FFFFFF" d="M105.1,256.6L105.1,256.6c0.8-3.9,4.4-6.5,8.5-5.7c2.4,0.5,3.8,1.4,5,2.9l-2.3,1.9c-0.9-1.1-1.7-1.8-3.3-2.1
	c-2.2-0.4-4.3,1.2-4.7,3.5l0,0c-0.5,2.5,0.9,4.6,3.3,5.1c1.1,0.2,2.1,0.1,3-0.3l0.4-1.9l-3-0.6l0.5-2.6l5.9,1.2l-1.2,5.9
	c-1.6,0.9-3.7,1.5-6.2,1C106.6,264.1,104.3,260.6,105.1,256.6z"/>
<path fill="#FFFFFF" d="M122.6,259.7L122.6,259.7c0.2-4,3.4-7.1,7.7-6.9c4.3,0.2,7.2,3.5,7,7.4l0,0c-0.2,3.9-3.4,7-7.7,6.8
	C125.4,266.9,122.5,263.6,122.6,259.7z M134.1,260.2L134.1,260.2c0.1-2.4-1.6-4.5-4-4.6c-2.5-0.1-4.2,1.8-4.3,4.1l0,0
	c-0.1,2.4,1.6,4.4,4,4.5C132.3,264.4,134,262.6,134.1,260.2z"/>
<path fill="#FFFFFF" d="M159.7,257.8L159.7,257.8c-1-3.9,1.1-7.7,5.2-8.8c2.5-0.7,4.3-0.2,5.8,0.7l-1.3,2.6c-1.3-0.7-2.5-1-3.8-0.6
	c-2.3,0.6-3.4,2.9-2.8,5.2l0,0c0.6,2.3,2.7,3.8,5,3.2c1.5-0.4,2.3-1.3,3.1-2.5l2.4,1.4c-1,1.8-2.3,3.1-4.9,3.8
	C164.4,264,160.6,261.7,159.7,257.8z"/>
<path fill="#FFFFFF" d="M177.9,244.9l2.6-1.1l10.8,10.6l-2.9,1.2l-2.4-2.4l-5.4,2.2l0,3.4l-2.9,1.2L177.9,244.9z M184,251.2
	l-3.4-3.4l0,4.9L184,251.2z"/>
<path fill="#FFFFFF" d="M188.9,240.1l2.8-1.7l6.2,3.1l0.1-6.9l2.8-1.7l7.2,11.8l-2.6,1.6l-4.7-7.7l-0.3,7.1l-0.1,0l-6.3-3l4.7,7.7
	l-2.6,1.6L188.9,240.1z"/>
<path fill="#FFFFFF" d="M204.4,230.1l4.4-3.6c2.6-2.1,5.3-1.9,7.1,0.3l0,0c2,2.5,1.2,5.3-1.2,7.3l-1.8,1.5l2.6,3.2l-2.4,1.9
	L204.4,230.1z M213.1,232c1.2-1,1.3-2.2,0.5-3.2l0,0c-0.9-1.1-2.1-1-3.2,0l-1.8,1.5l2.7,3.3L213.1,232z"/>
<path fill="#FFFFFF" d="M222.9,229.9l-0.3-2.8c1.6-0.2,3-0.7,4.1-1.8c0.9-0.9,1-1.8,0.4-2.3l0,0c-0.6-0.5-1.2-0.5-3.2,0.8
	c-2.4,1.5-4.2,2.3-6.2,0.4l0,0c-1.8-1.7-1.6-4.3,0.3-6.4c1.4-1.5,3-2.3,4.8-2.5l0.6,2.7c-1.5,0.3-2.7,0.8-3.5,1.7
	c-0.8,0.8-0.8,1.7-0.4,2.1l0,0c0.7,0.6,1.3,0.4,3.4-0.9c2.5-1.5,4.3-2,6-0.3l0,0c2,1.9,1.7,4.5-0.4,6.6
	C227.1,228.7,225.1,229.7,222.9,229.9z"/>
<g>
	<path fill="#FFFFFF" d="M74.7,125.7v-11l38.5-16.9v11.2l-26.9,11.1l26.9,11.1v11.4L74.7,125.7z"/>
	<path fill="#515254" d="M113.2,97.8v11.2l-26.9,11.1l26.9,11.1v11.4l-38.5-16.9v-11L113.2,97.8 M113.2,95.4c-0.3,0-0.7,0.1-1,0.2
		l-38.5,16.9c-0.9,0.4-1.5,1.3-1.5,2.2v11c0,1,0.6,1.8,1.5,2.2l38.5,16.9c0.3,0.1,0.6,0.2,1,0.2c0.5,0,0.9-0.1,1.3-0.4
		c0.7-0.4,1.1-1.2,1.1-2v-11.4c0-1-0.6-1.9-1.5-2.2l-21.4-8.8l21.4-8.8c0.9-0.4,1.5-1.3,1.5-2.2V97.8c0-0.8-0.4-1.6-1.1-2
		C114.2,95.6,113.7,95.4,113.2,95.4L113.2,95.4z"/>
</g>
<g>
	<path fill="#FFFFFF" d="M148.2,84.7h10.3l-35.2,73.7h-10.3L148.2,84.7z"/>
	<path fill="#515254" d="M158.4,84.7l-35.2,73.7h-10.3l35.2-73.7H158.4 M158.4,82.3h-10.3c-0.9,0-1.8,0.5-2.2,1.4l-35.2,73.7
		c-0.4,0.8-0.3,1.6,0.1,2.3c0.4,0.7,1.2,1.1,2.1,1.1h10.3c0.9,0,1.8-0.5,2.2-1.4l35.2-73.7c0.4-0.8,0.3-1.6-0.1-2.3
		C160,82.7,159.3,82.3,158.4,82.3L158.4,82.3z"/>
</g>
<g>
	<path fill="#FFFFFF" d="M159.2,131.3l26.9-11.1l-26.9-11.1V97.8l38.5,16.9v11l-38.5,16.9V131.3z"/>
	<path fill="#515254" d="M159.2,97.8l38.5,16.9v11l-38.5,16.9v-11.2l26.9-11.1l-26.9-11.1V97.8 M159.2,95.4c-0.5,0-0.9,0.1-1.3,0.4
		c-0.7,0.4-1.1,1.2-1.1,2v11.4c0,1,0.6,1.9,1.5,2.2l21.4,8.8l-21.4,8.8c-0.9,0.4-1.5,1.3-1.5,2.2v11.2c0,0.8,0.4,1.6,1.1,2
		c0.4,0.3,0.9,0.4,1.3,0.4c0.3,0,0.7-0.1,1-0.2l38.5-16.9c0.9-0.4,1.5-1.3,1.5-2.2v-11c0-1-0.6-1.8-1.5-2.2l-38.5-16.9
		C159.9,95.5,159.5,95.4,159.2,95.4L159.2,95.4z"/>
</g>
<polygon fill="#515254" points="151.5,212.5 140.5,216.7 111.4,205.6 122.4,201.4 "/>
<path fill="#FFFFFF" d="M140.5,217.7c-0.1,0-0.2,0-0.4-0.1L111,206.5c-0.4-0.1-0.6-0.5-0.6-0.9c0-0.4,0.3-0.8,0.6-0.9l11-4.2
	c0.2-0.1,0.5-0.1,0.7,0l29.1,11.1c0.4,0.1,0.6,0.5,0.6,0.9s-0.3,0.8-0.6,0.9l-11.1,4.2C140.7,217.7,140.6,217.7,140.5,217.7z
	 M114.1,205.6l26.3,10l8.3-3.1l-26.3-10L114.1,205.6z"/>
<polygon fill="#FFCD03" points="122.3,201.4 111.3,205.6 104.6,203.1 115.6,198.9 "/>
<path fill="#FFFFFF" d="M111.3,206.6c-0.1,0-0.2,0-0.4-0.1l-6.7-2.5c-0.4-0.1-0.6-0.5-0.6-0.9c0-0.4,0.3-0.8,0.6-0.9l11.1-4.2
	c0.2-0.1,0.5-0.1,0.7,0l6.7,2.5c0.4,0.1,0.6,0.5,0.6,0.9c0,0.4-0.3,0.8-0.6,0.9l-11,4.2C111.5,206.6,111.4,206.6,111.3,206.6z
	 M107.4,203.1l3.9,1.5l8.2-3.1l-3.9-1.5L107.4,203.1z"/>
<polygon fill="#515254" points="155.7,218.2 140.7,216.6 151.4,212.5 "/>
<path fill="#FFFFFF" d="M155.7,219.2c0,0-0.1,0-0.1,0l-15-1.6c-0.5,0-0.8-0.4-0.9-0.9c-0.1-0.5,0.2-0.9,0.6-1.1l10.7-4.1
	c0.4-0.2,0.9,0,1.1,0.3l4.3,5.7c0.2,0.3,0.3,0.7,0.1,1.1C156.4,219,156,219.2,155.7,219.2z M144.9,216.1l8.6,0.9l-2.5-3.3
	L144.9,216.1z"/>
<polygon fill="#515254" points="127.4,216.7 116.4,212.5 145.5,201.4 156.6,205.6 "/>
<path fill="#FFFFFF" d="M127.4,217.7c-0.1,0-0.2,0-0.4-0.1l-11-4.2c-0.4-0.1-0.6-0.5-0.6-0.9c0-0.4,0.3-0.8,0.6-0.9l29.1-11.1
	c0.2-0.1,0.5-0.1,0.7,0l11.1,4.2c0.4,0.1,0.6,0.5,0.6,0.9s-0.3,0.8-0.6,0.9l-29.1,11.1C127.7,217.7,127.6,217.7,127.4,217.7z
	 M119.2,212.5l8.3,3.1l26.3-10l-8.3-3.1L119.2,212.5z"/>
<polygon fill="#FFCD03" points="156.5,205.6 145.5,201.4 152.2,198.9 163.2,203.1 "/>
<path fill="#FFFFFF" d="M156.5,206.6c-0.1,0-0.2,0-0.4-0.1l-11-4.2c-0.4-0.1-0.6-0.5-0.6-0.9c0-0.4,0.3-0.8,0.6-0.9l6.7-2.5
	c0.2-0.1,0.5-0.1,0.7,0l11,4.2c0.4,0.1,0.6,0.5,0.6,0.9s-0.3,0.8-0.6,0.9l-6.7,2.5C156.7,206.6,156.6,206.6,156.5,206.6z
	 M148.3,201.4l8.2,3.1l3.9-1.5l-8.3-3.1L148.3,201.4z"/>
<polygon fill="#515254" points="112.3,218.3 116.5,212.6 127.3,216.6 "/>
<path fill="#FFFFFF" d="M112.3,219.3c-0.4,0-0.7-0.2-0.9-0.5c-0.2-0.3-0.2-0.8,0.1-1.1l4.2-5.7c0.3-0.4,0.7-0.5,1.1-0.3l10.8,4.1
	c0.4,0.2,0.7,0.6,0.6,1.1c-0.1,0.5-0.4,0.8-0.9,0.9l-15,1.6C112.4,219.3,112.3,219.3,112.3,219.3z M116.9,213.8l-2.4,3.3l8.6-0.9
	L116.9,213.8z"/>
<g>
	<path fill="#FFCD03" d="M121.8,175.1L121.8,175.1c-3.4-2.5-2-5.5-1.1-6.8c-1.3,1.8-4.6,6.5-3.6,9.7h0c0.2,1.4,1.5,2.6,3,2.6
		c1.7,0,3-1.3,3-3C123,176.6,122.5,175.7,121.8,175.1z"/>
	<path fill="#FFFFFF" d="M120,181.6c-1.9,0-3.6-1.4-3.9-3.3c-1-3.4,1.9-8.1,3.8-10.5c0.3-0.4,0.9-0.5,1.4-0.2
		c0.4,0.3,0.5,0.9,0.2,1.4c-1.4,2.1-1.1,3.9,0.9,5.5c1,0.7,1.6,2,1.6,3.2C124,179.8,122.2,181.6,120,181.6z M118,177.7
		c0,0.1,0,0.1,0.1,0.2c0.1,1,1,1.7,2,1.7c1.1,0,2-0.9,2-2c0-0.6-0.3-1.2-0.8-1.6c-1.1-0.9-1.9-1.8-2.3-2.9
		C118.1,174.6,117.6,176.4,118,177.7z"/>
</g>
<g>
	<path fill="#FFCD03" d="M150.9,165.6L150.9,165.6c3.4-2.5,2-5.5,1.1-6.8c1.3,1.8,4.6,6.5,3.6,9.7h0c-0.2,1.4-1.5,2.5-3,2.5
		c-1.7,0-3-1.3-3-3C149.7,167.1,150.1,166.2,150.9,165.6z"/>
	<path fill="#FFFFFF" d="M152.7,172c-2.2,0-4-1.8-4-4c0-1.3,0.6-2.5,1.6-3.2c2-1.5,2.3-3.4,0.9-5.4c-0.3-0.4-0.2-1.1,0.2-1.4
		c0.4-0.3,1-0.2,1.4,0.2c1.8,2.5,4.8,7.1,3.8,10.5C156.3,170.7,154.6,172,152.7,172z M153.8,163.5c-0.4,1.1-1.2,2.1-2.3,2.9
		c-0.5,0.4-0.8,1-0.8,1.6c0,1.1,0.9,2,2,2c1,0,1.8-0.7,2-1.7c0-0.1,0-0.1,0.1-0.2C155.1,166.8,154.5,165.1,153.8,163.5z"/>
</g>
<path fill="#FFCD03" d="M149.5,178c-2-3.2-4.5-6-7.1-8.5c1.7-3.2,2.9-5.9,2.9-5.9c4.6-10.8-0.5-23.3-11.3-27.9
	c7,2.9,10.5,11.5,7.3,17.9c-1.2,2.4-3.8,5.6-6.7,9c-2-1.7-3.8-3.2-4.9-4.6c-3.6-4.4-0.5-10.8-0.5-10.8s-4.7,1.8-5.7,8.8
	c-0.4,2.8,1.9,7.8,5.1,13.1c-3.3,3.4-6.1,6.3-7.1,7.6c-2.5,3.2-5.1,7.7-5.1,12.6c0,10.1,8.2,18.3,18.3,18.3
	c10.1,0,18.3-8.2,18.3-18.3C152.7,185.6,151.4,181.7,149.5,178z M134.5,195.3c-5.2-5.2-2.4-11.3,0.9-15.8
	C138.8,185,139.8,190,134.5,195.3z"/>
<path fill="#FFFFFF" d="M134.5,208.7c-10.6,0-19.3-8.6-19.3-19.3c0-4.2,1.8-8.7,5.3-13.2c0.8-1.1,2.7-3.1,5.2-5.6
	c0.5-0.5,1-1,1.5-1.6c-3.6-6-5.2-10.4-4.8-13.1c1.1-7.4,6.1-9.5,6.3-9.6c0.4-0.1,0.8,0,1.1,0.2c0.3,0.3,0.3,0.7,0.2,1.1
	c0,0.1-2.7,5.8,0.4,9.7c0.9,1.1,2.2,2.3,4,3.8c3.1-3.5,5-6.2,5.9-8c1.4-2.8,1.5-6,0.3-9.1c-1.3-3.4-3.8-6.1-7-7.5c0,0,0,0,0,0
	c-0.5-0.2-0.7-0.8-0.5-1.3c0.2-0.5,0.8-0.7,1.3-0.5l0,0c5.5,2.3,9.7,6.6,12,12.2c2.2,5.5,2.2,11.6-0.1,17.1c0,0.1-1,2.4-2.5,5.3
	c2.8,2.8,5,5.4,6.8,8.1c0,0,0,0,0,0.1c2.2,4.2,3.4,8.2,3.4,11.9C153.7,200,145.1,208.7,134.5,208.7z M127.1,149.9
	c-1.1,1.2-2.4,3.2-2.8,6.3c-0.3,2.2,1.4,6.7,5,12.4c0.2,0.4,0.2,0.9-0.1,1.2c-0.7,0.7-1.4,1.4-2,2.1c-2.3,2.4-4.3,4.5-5,5.4
	c-3.2,4.2-4.9,8.3-4.9,12c0,9.5,7.7,17.3,17.3,17.3c9.5,0,17.3-7.7,17.3-17.3c0-3.3-1-7-3.1-10.9c-1.7-2.7-4-5.4-7-8.2
	c-0.3-0.3-0.4-0.8-0.2-1.2c1.7-3.1,2.8-5.8,2.8-5.8c2.1-5,2.2-10.5,0.1-15.5c-0.5-1.1-1-2.2-1.6-3.2c1,3.3,0.7,6.7-0.7,9.6
	c-1,2.1-3.3,5.1-6.9,9.2c-0.4,0.4-1,0.4-1.4,0.1c-2.3-1.9-3.9-3.4-5-4.7C126.5,155.8,126.6,152.3,127.1,149.9z M134.5,196.3
	L134.5,196.3c-0.3,0-0.5-0.1-0.7-0.3c-4.5-4.5-4.2-10.3,0.8-17.1c0.2-0.3,0.5-0.4,0.8-0.4c0.3,0,0.6,0.2,0.8,0.5
	c3,4.9,5.3,10.7-1,17.1C135,196.2,134.7,196.3,134.5,196.3z M135.3,181.3c-3.3,5.1-3.6,9.2-0.8,12.5
	C138.3,189.6,137.7,185.7,135.3,181.3z"/>
<g>
	<path fill="#FFCD03" d="M129.9,138.3L129.9,138.3c-3.4-2.5-2-5.5-1.1-6.8c-1.3,1.8-4.6,6.5-3.6,9.7h0c0.2,1.4,1.5,2.6,3,2.6
		c1.7,0,3-1.3,3-3C131.2,139.7,130.7,138.8,129.9,138.3z"/>
	<path fill="#FFFFFF" d="M128.2,144.7c-2,0-3.6-1.4-3.9-3.3c-1-3.4,1.9-8.1,3.8-10.5c0.3-0.4,0.9-0.5,1.4-0.2
		c0.4,0.3,0.5,0.9,0.2,1.4c-1.4,2.1-1.1,3.9,0.9,5.5c1,0.7,1.6,2,1.6,3.2C132.2,142.9,130.4,144.7,128.2,144.7z M126.1,140.8
		c0,0.1,0,0.1,0.1,0.2c0.1,1,1,1.7,2,1.7c1.1,0,2-0.9,2-2c0-0.6-0.3-1.2-0.8-1.6c-1.1-0.9-1.9-1.8-2.3-2.9
		C126.2,137.9,125.8,139.6,126.1,140.8z"/>
</g>
</svg>
