<svg id="Layer_1" data-name="Layer 1" xmlns="http://www.w3.org/2000/svg" viewBox="0 0 806 853.55"><defs><style>.cls-1{fill:red;}.cls-2{fill:#fff;}.cls-3{fill:none;stroke:#fff;stroke-linecap:round;stroke-linejoin:round;stroke-width:6px;}</style></defs><polygon class="cls-1" points="582.59 25.82 587.46 45.59 607.88 39.28 592.33 54.22 607.88 69.17 587.46 62.85 582.59 82.63 577.72 62.85 557.29 69.17 572.85 54.22 557.29 39.28 577.72 45.59 582.59 25.82"/><rect class="cls-2" x="559.93" width="45.32" height="20.29"/><rect class="cls-2" x="560.1" y="87.42" width="45.32" height="20.29"/><path class="cls-3" d="M900,552.34l-8.34,16.74-88,8.95V925.28H195V578.66c-34.72-4.22-63.18-7.66-91.64-11.11q-1.7-9.52-3.4-19L498,202.2l115,97.31c2.17-30.4,3.95-55.27,6-84.17H737.2V407.06C793.28,457.09,846.64,504.71,900,552.34Z" transform="translate(-97 -74.72)"/><path class="cls-2" d="M350.17,499.92H369v51.52h33V568H350.17Z" transform="translate(-97 -74.72)"/><path class="cls-2" d="M422.8,499.92h54.73v16H441.46v10.3h32.67v14.87H441.46v10.79H478v16H422.8Z" transform="translate(-97 -74.72)"/><path class="cls-2" d="M526.05,499.43h18.18l29,68.53H553l-5-12.15H521.77L516.91,568H497.08Zm16.53,41.7L535,521.79l-7.68,19.34Z" transform="translate(-97 -74.72)"/><path class="cls-2" d="M593.41,499.92h26.25c24.3,0,38.4,14,38.4,33.63v.2c0,19.63-14.29,34.21-38.79,34.21H593.41ZM620,551.24c11.27,0,18.76-6.22,18.76-17.2v-.2c0-10.88-7.49-17.2-18.76-17.2h-7.68v34.6Z" transform="translate(-97 -74.72)"/><path class="cls-2" d="M346.29,594.36H401v16H365v10.31h32.66v14.87H365v10.79h36.55v16H346.29Z" transform="translate(-97 -74.72)"/><path class="cls-2" d="M426.75,594.36h32.17c10.41,0,17.6,2.73,22.17,7.39,4,3.89,6,9.14,6,15.85v.19c0,10.4-5.55,17.3-14,20.9l16.23,23.72H467.58L453.87,641.8h-8.26v20.61H426.75ZM458.05,627c6.42,0,10.11-3.11,10.11-8.07v-.2c0-5.34-3.89-8.06-10.21-8.06H445.61V627Z" transform="translate(-97 -74.72)"/><path class="cls-2" d="M338.06,746.75l10.49-12.54c6.71,5.35,14.2,8.16,22.07,8.16,5.06,0,7.78-1.75,7.78-4.66v-.2c0-2.81-2.24-4.37-11.47-6.51-14.49-3.3-25.67-7.39-25.67-21.39v-.19c0-12.64,10-21.78,26.35-21.78,11.56,0,20.61,3.12,28,9.05L386.17,710c-6.22-4.37-13-6.7-19.05-6.7-4.57,0-6.8,1.94-6.8,4.37v.19c0,3.11,2.33,4.48,11.76,6.61,15.65,3.41,25.37,8.46,25.37,21.2v.19c0,13.9-11,22.17-27.51,22.17C357.89,758,346.41,754.23,338.06,746.75Z" transform="translate(-97 -74.72)"/><path class="cls-2" d="M421.11,688.81H440v25.47h24.21V688.81H483v68.05H464.18V731H440v25.86H421.11Z" transform="translate(-97 -74.72)"/><path class="cls-2" d="M510.29,688.81h18.95v68.05H510.29Z" transform="translate(-97 -74.72)"/><path class="cls-2" d="M556.34,688.81H585.5c17.21,0,28.29,8.85,28.29,23.91v.2c0,16-12.35,24.5-29.26,24.5H575.2v19.44H556.34Zm27.8,33.83c6.71,0,10.79-3.5,10.79-8.85v-.19c0-5.83-4.08-8.94-10.89-8.94H575.2v18Z" transform="translate(-97 -74.72)"/><path class="cls-2" d="M411.85,813.4h12.68v2.66h-9.44v31.46h9.44v2.66H411.85Z" transform="translate(-97 -74.72)"/><path class="cls-2" d="M428.83,823.28h8.94a6.44,6.44,0,0,1,4.76,1.57,3.82,3.82,0,0,1,1.12,2.82v.05a4,4,0,0,1-2.69,3.89c2.12.69,3.47,1.89,3.47,4.26v0c0,3-2.45,4.81-6.61,4.81h-9Zm7.75,7c1.47,0,2.29-.49,2.29-1.52v-.05c0-.94-.75-1.49-2.19-1.49h-3.14v3.06Zm.69,6.61c1.47,0,2.32-.58,2.32-1.6v0c0-.94-.75-1.57-2.37-1.57h-3.68v3.22Z" transform="translate(-97 -74.72)"/><path class="cls-2" d="M450.9,834.2l-6.63-10.92h5.51l3.58,6.36,3.62-6.36h5.4l-6.62,10.84v6.61H450.9Z" transform="translate(-97 -74.72)"/><path class="cls-2" d="M470.79,823.28h6.72c6.23,0,9.85,3.59,9.85,8.62V832c0,5-3.67,8.78-9.95,8.78h-6.62Zm6.8,13.16c2.89,0,4.81-1.6,4.81-4.41v0c0-2.79-1.92-4.41-4.81-4.41h-2v8.87Z" transform="translate(-97 -74.72)"/><path class="cls-2" d="M489.89,823.28h14v4.11h-9.25V830H503v3.81h-8.37v2.76H504v4.12H489.89Z" transform="translate(-97 -74.72)"/><path class="cls-2" d="M505.47,838.13l2.69-3.21a9,9,0,0,0,5.66,2.09c1.29,0,2-.45,2-1.19v-.05c0-.73-.57-1.13-2.94-1.67-3.71-.85-6.58-1.9-6.58-5.49v0c0-3.24,2.57-5.59,6.75-5.59a11,11,0,0,1,7.18,2.32l-2.42,3.41a8.73,8.73,0,0,0-4.88-1.71c-1.17,0-1.74.49-1.74,1.12v0c0,.79.59,1.14,3,1.69,4,.87,6.5,2.17,6.5,5.43v.05c0,3.57-2.81,5.68-7.05,5.68A12.16,12.16,0,0,1,505.47,838.13Z" transform="translate(-97 -74.72)"/><path class="cls-2" d="M523.28,823.28h4.86v17.45h-4.86Z" transform="translate(-97 -74.72)"/><path class="cls-2" d="M530.7,832.05v0a9.06,9.06,0,0,1,9.4-9.07,10.14,10.14,0,0,1,7.07,2.55l-2.84,3.41a6.13,6.13,0,0,0-4.21-1.65,4.58,4.58,0,0,0-4.46,4.79v.05a4.61,4.61,0,0,0,4.74,4.83,5,5,0,0,0,2.79-.72v-2.12h-3.44v-3.54h8v7.85a11.78,11.78,0,0,1-7.57,2.69C534.76,841.07,530.7,837.34,530.7,832.05Z" transform="translate(-97 -74.72)"/><path class="cls-2" d="M550.81,823.28h4.51l7.18,9.22v-9.22h4.78v17.45h-4.23l-7.45-9.57v9.57h-4.79Z" transform="translate(-97 -74.72)"/><path class="cls-2" d="M571.58,847.52h9.48V816.06h-9.48V813.4h12.68v36.78H571.58Z" transform="translate(-97 -74.72)"/><path class="cls-2" d="M398.06,431.23v0a7.24,7.24,0,0,1,7.42-7.37,7.36,7.36,0,0,1,5.62,2.2l-2,2.3a5.26,5.26,0,0,0-3.65-1.61,4.22,4.22,0,0,0-4.13,4.44v0a4.24,4.24,0,0,0,4.13,4.48,5.14,5.14,0,0,0,3.75-1.67l2,2a7.26,7.26,0,0,1-5.84,2.55A7.19,7.19,0,0,1,398.06,431.23Z" transform="translate(-97 -74.72)"/><path class="cls-2" d="M414.07,424.07h3.14v5.63H423v-5.63h3.13v14.24H423v-5.72h-5.78v5.72h-3.14Z" transform="translate(-97 -74.72)"/><path class="cls-2" d="M430.27,424.07h3.13v14.24h-3.13Z" transform="translate(-97 -74.72)"/><path class="cls-2" d="M436.78,431.23v0a7.25,7.25,0,0,1,7.43-7.37,7.36,7.36,0,0,1,5.62,2.2l-2,2.3a5.22,5.22,0,0,0-3.64-1.61,4.22,4.22,0,0,0-4.13,4.44v0a4.24,4.24,0,0,0,4.13,4.48,5.14,5.14,0,0,0,3.75-1.67l2,2a7.28,7.28,0,0,1-5.84,2.55A7.2,7.2,0,0,1,436.78,431.23Z" transform="translate(-97 -74.72)"/><path class="cls-2" d="M457.77,424h2.89l6.11,14.35h-3.28l-1.3-3.19h-6l-1.3,3.19h-3.19Zm3.3,8.39-1.9-4.62-1.89,4.62Z" transform="translate(-97 -74.72)"/><path class="cls-2" d="M468,431.23v0a7.31,7.31,0,0,1,7.47-7.37,7.77,7.77,0,0,1,5.59,2l-2,2.38a5.24,5.24,0,0,0-3.72-1.45,4.28,4.28,0,0,0-4.09,4.44v0a4.27,4.27,0,0,0,4.31,4.52,5,5,0,0,0,2.95-.86v-2h-3.15v-2.71h6.18v6.19a9.24,9.24,0,0,1-6.08,2.26A7.13,7.13,0,0,1,468,431.23Z" transform="translate(-97 -74.72)"/><path class="cls-2" d="M484.46,431.23v0a7.57,7.57,0,0,1,15.14,0v0a7.57,7.57,0,0,1-15.14,0Zm11.86,0v0a4.33,4.33,0,0,0-4.31-4.48,4.27,4.27,0,0,0-4.28,4.44v0a4.33,4.33,0,0,0,4.32,4.48A4.26,4.26,0,0,0,496.32,431.23Z" transform="translate(-97 -74.72)"/><path class="cls-2" d="M522.67,431.23v0a7.24,7.24,0,0,1,7.43-7.37,7.39,7.39,0,0,1,5.62,2.2l-2,2.3a5.25,5.25,0,0,0-3.64-1.61,4.22,4.22,0,0,0-4.13,4.44v0a4.24,4.24,0,0,0,4.13,4.48,5.12,5.12,0,0,0,3.74-1.67l2,2a7.29,7.29,0,0,1-5.84,2.55A7.19,7.19,0,0,1,522.67,431.23Z" transform="translate(-97 -74.72)"/><path class="cls-2" d="M543.66,424h2.89l6.1,14.35h-3.28l-1.3-3.19h-6l-1.3,3.19h-3.2Zm3.29,8.39-1.89-4.62-1.89,4.62Z" transform="translate(-97 -74.72)"/><path class="cls-2" d="M555.27,424.07h3.37l3.75,6,3.74-6h3.38v14.24H566.4V429l-4,6.09h-.08l-4-6v9.24h-3.07Z" transform="translate(-97 -74.72)"/><path class="cls-2" d="M573.61,424.07h5.82c3.4,0,5.45,2,5.45,4.92v0c0,3.3-2.56,5-5.76,5h-2.38v4.27h-3.13Zm5.61,7.18a2.21,2.21,0,0,0,2.49-2.16v0c0-1.4-1-2.15-2.55-2.15h-2.42v4.35Z" transform="translate(-97 -74.72)"/><path class="cls-2" d="M586.78,436.24l1.85-2.22a6.56,6.56,0,0,0,4.26,1.73c1.28,0,2.05-.51,2.05-1.35v0c0-.79-.49-1.2-2.87-1.81-2.87-.73-4.72-1.52-4.72-4.35v0c0-2.59,2.08-4.3,5-4.3a8.26,8.26,0,0,1,5.29,1.81L596,428a6.64,6.64,0,0,0-3.7-1.41c-1.2,0-1.84.55-1.84,1.24v0c0,.94.61,1.24,3.08,1.88,2.89.75,4.52,1.79,4.52,4.27v0c0,2.83-2.16,4.42-5.23,4.42A9.11,9.11,0,0,1,586.78,436.24Z" transform="translate(-97 -74.72)"/><polygon class="cls-2" points="414.15 349.95 415.19 354.39 419.56 353.08 416.23 356.2 419.56 359.32 415.19 358 414.15 362.44 413.11 358 408.75 359.32 412.07 356.2 408.75 353.08 413.11 354.39 414.15 349.95"/><path d="M546.4,618.77c-.93,2.79-1.77,5.76-3.3,11,1.17.18,2.58.54,4,.66,1-3.75,2.07-8.19,3.51-11.4.42-.51,2.88-.21,3.15.6a89.66,89.66,0,0,0-3.3,11,7.38,7.38,0,0,0,4.23-1.74c.6-.45,1.26.63.63,1.26a9.26,9.26,0,0,1-5.34,2.22c-.57,2-1.26,4.35-1.71,6-.51.72-3.21.75-3.39-.18.45-1.5,1.14-3.75,1.74-5.91-1.47-.12-2.88-.42-4.17-.6-1.41,4.77-2.73,7.47-7,7.44-3.93,0-4.62-2.58-4.17-4.74.63-2.91,3.87-5.31,8.46-5,1.08-3.57,1.77-6.06,2.64-8.55-2,2-4.71.45-6.93,1-1.17.18-2.13.6-2.19,1.8s1.5,2,2.94.93c.51-.18,1.26.78.93,1.38a4.24,4.24,0,0,1-6.21,0,3.81,3.81,0,0,1-.75-3.24c.45-1.86,2.07-2.73,4-3,3.78-.9,6.12,1.5,8.91-1.32C543.82,617.63,546.25,618,546.4,618.77Zm-11.79,15.78c-.36,1.17-.12,2.4,1.14,2.43,1.71,0,2.64-2.16,3.48-5.4C536.56,631.49,535.06,632.9,534.61,634.55Z" transform="translate(-97 -74.72)"/><path d="M565.49,635.81c1.47.15,3.21-.57,4.5-3.6.18-.36,1.23.21,1,.6-1.95,4.26-4.5,4.71-6.69,4.26a7,7,0,0,1-5,2.07c-2.91,0-5.28-1.62-4.38-6.18.84-4.14,4-6.84,7.59-6.9C567.89,626,568,631.61,565.49,635.81ZM558.41,633c-.36,1.86-.45,4,1.41,4a2.79,2.79,0,0,0,2-1,1.15,1.15,0,0,1,1-1.8c1.17-2.76,1.5-6.09-.75-6C560.39,628.28,558.86,630.74,558.41,633Z" transform="translate(-97 -74.72)"/><path d="M583.53,635.78c.21-1.2.93-3.81,1.32-5.4.21-.87.39-1.92-.57-1.92s-2.82,1.83-3.48,3.45c-.54,2-1.17,4.86-1.62,6.57-.33.66-3.18.75-3.3-.12.6-2.52,1.2-5,2-8.1.21-.78.27-1.77-.6-1.74s-2.4,1.53-3.42,3.3c-.69,2.31-1.17,4.35-1.71,6.69-.27.69-3.45.72-3.33-.33,1.05-4,2-7.32,3.15-11.73.48-.66,3-.42,3.12.45l-.66,2.37c1.05-1.47,2.94-3.24,4.74-3.21,1.59,0,2.43,1.2,2.1,3,1.14-1.47,2.79-3,4.74-3,2.28,0,2.91,1.47,2.34,3.93-.51,2.16-2.52,7-1,7,1.14,0,3-2.25,4.08-4.8.15-.36,1.23.24,1,.6-1.23,2.64-3.42,6.21-6.33,6.3C583.83,639.2,583.14,637.82,583.53,635.78Z" transform="translate(-97 -74.72)"/><path d="M602.15,631.16c-1.11,2.25-4,3.3-7.44,2.49-.18,1.92.93,3.15,3,3.36s5.22-.84,7-4.8c.18-.36,1.23.24,1.08.6-2.43,5.43-6,6.42-8.88,6.33-4.56-.15-6.18-3.39-5.43-6.75a7.45,7.45,0,0,1,7.47-6.27C602.3,626.24,603.29,629,602.15,631.16Zm-7.23,1c2.22.33,3.72-.45,4.32-1.77.48-1,.45-2.07-.69-2.1C597.14,628.16,595.46,630,594.92,632.12Z" transform="translate(-97 -74.72)"/><path d="M619.88,619.34c3-2.49,9.33-1.65,9.15,2.22-.09,2-1.71,3.39-4.41,3.27a5.77,5.77,0,0,1-3.81-1.71c-.36,1.86,1.11,3.9,3.81,4.23.54.33.21,1.89-.45,2-2.4-.27-6,.72-6.39,4-.36,2.52,1.74,3.57,3.69,3.63a7.48,7.48,0,0,0,7.08-4.74c.18-.39,1.2.24,1.05.6-2,4.56-5.28,6.3-8.94,6.3-3.33,0-6.78-1.89-6.27-5.79a6.47,6.47,0,0,1,6.12-5.73c-2.85-1.05-3.36-4.86-1.83-7.11a7.64,7.64,0,0,1-.54-3.3c0-.51,1.32-.72,1.38,0A5.79,5.79,0,0,0,619.88,619.34Zm4.56,3.42c1,.06,1.62-.48,1.65-1.23,0-1.71-3.3-1.92-4.59-.15A4.06,4.06,0,0,0,624.44,622.76Z" transform="translate(-97 -74.72)"/><path d="M645.1,619.07c-1.53,4.44-6.21,17.88-3.81,17.82,1.17,0,2.94-2.31,3.93-4.68.18-.36,1.23.24,1,.6-1.47,3.18-3.72,6.12-6.42,6.15-1.59,0-2.58-1.38-2.28-3.63-.9,1.83-2.43,3.75-4.8,3.78-4.47.12-4.14-6-1.08-9.78a7.91,7.91,0,0,1,7.65-2.94c.63-2.28,1.89-6,2.61-7.95C642.34,617.9,645.13,618.23,645.1,619.07Zm-11.16,12c-1,1.68-1.86,4.92-.72,5.67,1,.75,2.76-.75,4-3.72a32.16,32.16,0,0,0,1.47-4.59C637.27,628.16,635.29,628.85,633.94,631.1Z" transform="translate(-97 -74.72)"/><path d="M644.86,635.36c.66-2.82,1.38-5.25,2.43-8.88.48-.69,2.94-.33,3.15.39-1.17,4.17-1.8,6.12-2.25,8.16-.24,1.2-.27,2,.36,2,1.38,0,3.36-2.34,4.38-4.8.18-.39,1.23.24,1.05.63-1.26,2.7-3.51,6.21-6.63,6.27C644.86,639.17,644.32,637.67,644.86,635.36Zm3.21-12.87a2.06,2.06,0,0,1,2.13-1.8,1.49,1.49,0,0,1,1.59,1.8,2,2,0,0,1-2.16,1.83A1.53,1.53,0,0,1,648.07,622.49Z" transform="translate(-97 -74.72)"/><path d="M654.24,627.77h-.9c-.6-.33-.24-1.8.24-2h1.2c.78-2.52,1.71-5.31,2.31-6.84.42-.6,3.15-.27,3.18.6-.66,1.83-1.35,4-2,6.24h2.52c.57.42.21,1.83-.24,2h-2.82c-.45,1.56-.9,3.15-1.17,4.41-.63,2.76-.63,4.8.84,4.83,1.74,0,3.87-2,5.13-4.8.18-.36,1.2.24,1,.63-1.62,3.75-3.81,6.24-6.81,6.27C651.48,639.17,652.86,633,654.24,627.77Z" transform="translate(-97 -74.72)"/><path d="M662.18,635.36c.66-2.82,1.38-5.25,2.43-8.88.48-.69,2.94-.33,3.15.39C666.59,631,666,633,665.51,635c-.24,1.2-.27,2,.36,2,1.38,0,3.36-2.34,4.38-4.8.18-.39,1.23.24,1,.63-1.26,2.7-3.51,6.21-6.63,6.27C662.18,639.17,661.64,637.67,662.18,635.36Zm3.21-12.87a2.06,2.06,0,0,1,2.13-1.8,1.49,1.49,0,0,1,1.59,1.8,2,2,0,0,1-2.16,1.83A1.53,1.53,0,0,1,665.39,622.49Z" transform="translate(-97 -74.72)"/><path d="M680.65,635.81c1.47.15,3.21-.57,4.5-3.6.18-.36,1.23.21,1.05.6-2,4.26-4.5,4.71-6.69,4.26a7,7,0,0,1-5,2.07c-2.91,0-5.28-1.62-4.38-6.18.84-4.14,4-6.84,7.59-6.9C683.05,626,683.2,631.61,680.65,635.81ZM673.57,633c-.36,1.86-.45,4,1.41,4a2.79,2.79,0,0,0,2-1,1.15,1.15,0,0,1,1.05-1.8c1.17-2.76,1.5-6.09-.75-6C675.55,628.28,674,630.74,673.57,633Z" transform="translate(-97 -74.72)"/><path d="M697,630.26c-.33,1.38-1,3.06-1.29,4.5-.24,1.11-.39,2.25.36,2.25,1.23,0,3-2.22,4.11-4.8.15-.36,1.2.24,1,.6-1.2,2.61-3.45,6.27-6.36,6.3-2.28.06-3-1.26-2.61-3.21.18-1,1-4.29,1.29-5.52.21-.9.36-1.89-.66-1.86s-2.64,1.44-3.75,2.94c-.84,2.82-1.17,4.35-1.8,7-.33.66-3.3.75-3.36-.24,1-4,2-7.41,3.18-11.79.48-.66,2.82-.51,3.12.42-.27,1-.39,1.47-.66,2.34,1.08-1.26,3.12-3.21,5.1-3.18C697,626.09,697.6,627.83,697,630.26Z" transform="translate(-97 -74.72)"/></svg>