<svg xmlns="http://www.w3.org/2000/svg" width="540" height="540" viewBox="0 0 540 540">
  <g fill="none" fill-rule="evenodd">
    <g fill="#FFF" transform="translate(110 140)">
      <polygon points="12.12 1.19 30.98 1.19 30.98 52.71 63.93 52.71 63.93 69.24 12.12 69.24"/>
      <polygon points="84.75 1.19 139.48 1.19 139.48 17.23 103.41 17.23 103.41 27.53 136.07 27.53 136.07 42.4 103.41 42.4 103.41 53.19 139.96 53.19 139.96 69.23 84.74 69.23 84.74 1.19"/>
      <path fill-rule="nonzero" d="M187.99.7L206.17.7 235.14 69.23 214.92 69.23 209.96 57.08 183.71 57.08 178.85 69.23 159.02 69.23 187.99.7zM204.52 42.41L196.94 23.06 189.26 42.41 204.52 42.41zM255.36 1.19L281.61 1.19C305.91 1.19 320.01 15.19 320.01 34.82L320.01 35.01C320.01 54.65 305.72 69.23 281.22 69.23L255.36 69.23 255.36 1.19zM281.89 52.52C293.17 52.52 300.65 46.3 300.65 35.31L300.65 35.12C300.65 24.23 293.16 17.91 281.89 17.91L274.21 17.91 274.21 52.52 281.89 52.52z"/>
      <polygon points="8.24 95.64 62.97 95.64 62.97 111.68 26.9 111.68 26.9 121.98 59.56 121.98 59.56 136.85 26.9 136.85 26.9 147.64 63.45 147.64 63.45 163.68 8.23 163.68 8.23 95.64"/>
      <path fill-rule="nonzero" d="M88.69,95.64 L120.87,95.64 C131.27,95.64 138.46,98.36 143.03,103.03 C147.02,106.92 149.06,112.17 149.06,118.88 L149.06,119.07 C149.06,129.47 143.52,136.37 135.06,139.97 L151.29,163.69 L129.51,163.69 L115.8,143.08 L115.61,143.08 L107.54,143.08 L107.54,163.69 L88.68,163.69 L88.68,95.64 L88.69,95.64 Z M119.99,128.3 C126.41,128.3 130.1,125.19 130.1,120.23 L130.1,120.04 C130.1,114.69 126.21,111.97 119.89,111.97 L107.54,111.97 L107.54,128.3 L119.99,128.3 Z"/>
      <path d="M0,248.02 L10.5,235.48 C17.21,240.83 24.69,243.65 32.57,243.65 C37.63,243.65 40.35,241.9 40.35,238.98 L40.35,238.79 C40.35,235.97 38.11,234.42 28.88,232.28 C14.4,228.98 3.22,224.89 3.22,210.89 L3.22,210.7 C3.22,198.06 13.23,188.92 29.56,188.92 C41.13,188.92 50.17,192.03 57.56,197.96 L48.13,211.28 C41.91,206.91 35.1,204.57 29.08,204.57 C24.51,204.57 22.28,206.51 22.28,208.94 L22.28,209.13 C22.28,212.24 24.61,213.6 34.04,215.74 C49.69,219.14 59.41,224.2 59.41,236.93 L59.41,237.12 C59.41,251.02 48.43,259.28 31.9,259.28 C19.83,259.3 8.36,255.51 0,248.02 Z"/>
      <polygon points="83.06 190.08 101.92 190.08 101.92 215.55 126.13 215.55 126.13 190.08 144.99 190.08 144.99 258.13 126.13 258.13 126.13 232.27 101.92 232.27 101.92 258.13 83.06 258.13"/>
      <polygon points="172.23 190.08 191.19 190.08 191.19 258.13 172.23 258.13"/>
      <path fill-rule="nonzero" d="M218.28,190.08 L247.44,190.08 C264.65,190.08 275.73,198.93 275.73,213.99 L275.73,214.18 C275.73,230.22 263.38,238.68 246.47,238.68 L237.14,238.68 L237.14,258.12 L218.28,258.12 L218.28,190.08 Z M246.08,223.91 C252.79,223.91 256.87,220.41 256.87,215.06 L256.87,214.87 C256.87,209.04 252.79,205.93 245.98,205.93 L237.13,205.93 L237.13,223.91 L246.08,223.91 Z"/>
    </g>
    <g fill="#FFF" transform="translate(183 454)">
      <polygon points=".8 .67 13.47 .67 13.47 3.33 4.03 3.33 4.03 34.79 13.47 34.79 13.47 37.45 .8 37.45"/>
      <g transform="translate(17 10)">
        <path fill-rule="nonzero" d="M0.77,0.55 L9.72,0.55 C11.91,0.55 13.46,1.1 14.48,2.12 C15.18,2.82 15.6,3.74 15.6,4.94 L15.6,4.99 C15.6,7.01 14.45,8.2 12.91,8.88 C15.03,9.58 16.37,10.77 16.37,13.14 L16.37,13.19 C16.37,16.18 13.93,18 9.77,18 L0.77,18 L0.77,0.55 Z M8.52,7.51 C9.99,7.51 10.81,7.01 10.81,5.99 L10.81,5.94 C10.81,4.99 10.06,4.44 8.62,4.44 L5.48,4.44 L5.48,7.51 L8.52,7.51 Z M9.22,14.11 C10.69,14.11 11.54,13.54 11.54,12.52 L11.54,12.47 C11.54,11.52 10.79,10.9 9.17,10.9 L5.48,10.9 L5.48,14.11 L9.22,14.11 Z"/>
        <polygon points="22.84 11.47 16.21 .56 21.72 .56 25.31 6.91 28.92 .56 34.33 .56 27.7 11.4 27.7 18 22.84 18"/>
        <path fill-rule="nonzero" d="M42.73,0.55 L49.46,0.55 C55.69,0.55 59.3,4.14 59.3,9.17 L59.3,9.22 C59.3,14.25 55.64,17.99 49.36,17.99 L42.73,17.99 L42.73,0.55 Z M49.53,13.71 C52.42,13.71 54.34,12.12 54.34,9.3 L54.34,9.25 C54.34,6.46 52.42,4.84 49.53,4.84 L47.56,4.84 L47.56,13.71 L49.53,13.71 Z"/>
        <polygon points="61.83 .55 75.86 .55 75.86 4.66 66.62 4.66 66.62 7.3 74.99 7.3 74.99 11.11 66.62 11.11 66.62 13.88 75.99 13.88 75.99 18 61.84 18 61.84 .55"/>
        <path d="M77.41,15.41 L80.1,12.2 C81.82,13.57 83.74,14.29 85.76,14.29 C87.06,14.29 87.75,13.84 87.75,13.09 L87.75,13.04 C87.75,12.32 87.18,11.92 84.81,11.37 C81.1,10.52 78.23,9.48 78.23,5.89 L78.23,5.84 C78.23,2.6 80.8,0.26 84.98,0.26 C87.95,0.26 90.26,1.06 92.16,2.58 L89.74,5.99 C88.15,4.87 86.4,4.27 84.86,4.27 C83.69,4.27 83.12,4.77 83.12,5.39 L83.12,5.44 C83.12,6.24 83.72,6.59 86.14,7.13 C90.15,8 92.64,9.3 92.64,12.56 L92.64,12.61 C92.64,16.17 89.82,18.29 85.59,18.29 C82.5,18.3 79.56,17.32 77.41,15.41 Z"/>
        <polygon points="95.22 .55 100.08 .55 100.08 18 95.22 18"/>
        <path d="M102.65,9.33 L102.65,9.28 C102.65,4.2 106.64,0.21 112.04,0.21 C115.11,0.21 117.27,1.16 119.12,2.75 L116.28,6.16 C115.03,5.11 113.79,4.52 112.07,4.52 C109.55,4.52 107.61,6.64 107.61,9.3 L107.61,9.35 C107.61,12.17 109.58,14.18 112.34,14.18 C113.51,14.18 114.41,13.93 115.13,13.46 L115.13,11.34 L111.69,11.34 L111.69,7.8 L119.71,7.8 L119.71,15.65 C117.87,17.17 115.3,18.34 112.14,18.34 C106.71,18.35 102.65,14.61 102.65,9.33 Z"/>
        <polygon points="122.76 .55 127.27 .55 134.45 9.77 134.45 .55 139.23 .55 139.23 18 134.99 18 127.54 8.43 127.54 18 122.76 18"/>
      </g>
      <polygon points="160.53 34.79 170.01 34.79 170.01 3.33 160.53 3.33 160.53 .67 173.2 .67 173.2 37.44 160.53 37.44"/>
    </g>
    <g transform="translate(170 65)">
      <g fill="#FFF">
        <path d="M0,7.5 L0,7.46 C0,3.41 3.05,0.09 7.43,0.09 C10.12,0.09 11.72,0.99 13.05,2.29 L11.06,4.59 C9.96,3.59 8.84,2.98 7.42,2.98 C5.02,2.98 3.29,4.97 3.29,7.42 L3.29,7.46 C3.29,9.9 4.98,11.94 7.42,11.94 C9.05,11.94 10.05,11.29 11.16,10.27 L13.15,12.28 C11.68,13.85 10.06,14.82 7.31,14.82 C3.11,14.83 0,11.59 0,7.5 Z"/>
        <polygon points="16.02 .34 19.15 .34 19.15 5.98 24.93 5.98 24.93 .34 28.06 .34 28.06 14.59 24.93 14.59 24.93 8.87 19.15 8.87 19.15 14.59 16.02 14.59"/>
        <polygon points="32.21 .34 35.34 .34 35.34 14.59 32.21 14.59"/>
        <path d="M38.73,7.5 L38.73,7.46 C38.73,3.41 41.78,0.09 46.16,0.09 C48.85,0.09 50.45,0.99 51.78,2.29 L49.79,4.59 C48.69,3.59 47.57,2.98 46.15,2.98 C43.75,2.98 42.02,4.97 42.02,7.42 L42.02,7.46 C42.02,9.9 43.71,11.94 46.15,11.94 C47.78,11.94 48.78,11.29 49.89,10.27 L51.88,12.28 C50.41,13.85 48.79,14.82 46.04,14.82 C41.84,14.83 38.73,11.59 38.73,7.5 Z"/>
        <path fill-rule="nonzero" d="M59.72,0.24 L62.61,0.24 L68.72,14.59 L65.44,14.59 L64.14,11.39 L58.12,11.39 L56.82,14.59 L53.63,14.59 L59.72,0.24 Z M63.01,8.62 L61.12,4 L59.23,8.62 L63.01,8.62 Z"/>
        <path d="M69.89,7.5 L69.89,7.46 C69.89,3.41 73.04,0.09 77.36,0.09 C79.92,0.09 81.47,0.78 82.96,2.04 L80.99,4.42 C79.89,3.5 78.91,2.98 77.27,2.98 C74.99,2.98 73.18,4.99 73.18,7.42 L73.18,7.46 C73.18,10.06 74.97,11.98 77.49,11.98 C78.63,11.98 79.65,11.7 80.44,11.13 L80.44,9.1 L77.29,9.1 L77.29,6.39 L83.48,6.39 L83.48,12.58 C82.01,13.82 80,14.84 77.4,14.84 C72.95,14.83 69.89,11.71 69.89,7.5 Z"/>
        <path fill-rule="nonzero" d="M86.4,7.5 L86.4,7.46 C86.4,3.41 89.6,0.09 93.99,0.09 C98.39,0.09 101.54,3.37 101.54,7.42 L101.54,7.46 C101.54,11.51 98.34,14.83 93.95,14.83 C89.56,14.83 86.4,11.55 86.4,7.5 Z M98.27,7.5 L98.27,7.46 C98.27,5.02 96.48,2.98 93.96,2.98 C91.44,2.98 89.69,4.97 89.69,7.42 L89.69,7.46 C89.69,9.9 91.48,11.94 94,11.94 C96.52,11.94 98.27,9.94 98.27,7.5 Z"/>
        <path d="M124.62,7.5 L124.62,7.46 C124.62,3.41 127.67,0.09 132.05,0.09 C134.74,0.09 136.34,0.99 137.67,2.29 L135.68,4.59 C134.58,3.59 133.46,2.98 132.04,2.98 C129.64,2.98 127.91,4.97 127.91,7.42 L127.91,7.46 C127.91,9.9 129.6,11.94 132.04,11.94 C133.67,11.94 134.67,11.29 135.78,10.27 L137.77,12.28 C136.3,13.85 134.68,14.82 131.93,14.82 C127.73,14.83 124.62,11.59 124.62,7.5 Z"/>
        <path fill-rule="nonzero" d="M145.6,0.24 L148.49,0.24 L154.6,14.59 L151.32,14.59 L150.02,11.39 L144,11.39 L142.7,14.59 L139.51,14.59 L145.6,0.24 Z M148.9,8.62 L147,4 L145.11,8.62 L148.9,8.62 Z"/>
        <polygon points="157.21 .34 160.59 .34 164.33 6.36 168.07 .34 171.45 .34 171.45 14.59 168.34 14.59 168.34 5.29 164.33 11.37 164.25 11.37 160.28 5.35 160.28 14.59 157.21 14.59"/>
        <path fill-rule="nonzero" d="M175.55,0.34 L181.37,0.34 C184.77,0.34 186.82,2.35 186.82,5.27 L186.82,5.31 C186.82,8.61 184.26,10.32 181.06,10.32 L178.68,10.32 L178.68,14.59 L175.55,14.59 L175.55,0.34 Z M181.17,7.52 C182.74,7.52 183.65,6.58 183.65,5.36 L183.65,5.32 C183.65,3.92 182.67,3.16 181.11,3.16 L178.69,3.16 L178.69,7.51 L181.17,7.51 L181.17,7.52 Z"/>
        <path d="M188.73,12.51 L190.58,10.29 C191.86,11.35 193.21,12.02 194.83,12.02 C196.11,12.02 196.89,11.51 196.89,10.68 L196.89,10.64 C196.89,9.85 196.4,9.44 194.02,8.83 C191.15,8.1 189.3,7.3 189.3,4.48 L189.3,4.44 C189.3,1.86 191.38,0.15 194.29,0.15 C196.37,0.15 198.14,0.8 199.58,1.96 L197.95,4.32 C196.69,3.44 195.45,2.92 194.25,2.92 C193.05,2.92 192.42,3.47 192.42,4.16 L192.42,4.2 C192.42,5.14 193.03,5.44 195.49,6.07 C198.38,6.82 200.01,7.86 200.01,10.34 L200.01,10.38 C200.01,13.21 197.85,14.8 194.78,14.8 C192.61,14.79 190.44,14.03 188.73,12.51 Z"/>
      </g>
      <polygon fill="#F00" points="113.1 .95 114.14 5.39 118.5 4.07 115.18 7.19 118.5 10.31 114.14 8.99 113.1 13.43 112.06 8.99 107.69 10.31 111.02 7.19 107.69 4.07 112.06 5.39"/>
    </g>
    <g fill="#FFF" transform="translate(302 215)">
      <path d="M208.81 15.36C208.65 14.45 203.33 17.77 203.33 17.77 199.6 16.6 196.94 17.86 195.35 21.55 188.11 25.43 182.21 26.45 177.63 24.62 171.76 15.53 161.71 8.11 144.38 0 148.11 8.89 145.46 20.51 160.14 30.13 159.65 32.59 160.03 35.28 161.29 38.17L153.61 41.81C153.98 43.76 155.51 45.42 158.2 46.81L163.43 42.3 173.44 47.88C177.1 53.86 193.6 58.32 207.07 72.14 201.43 38.64 187.08 39.9 186.76 34.76 187.99 30.86 191.31 27.04 196.73 23.3 200.46 23.84 203.15 22.26 204.8 18.55 204.81 18.55 209.55 15.92 208.81 15.36zM182.46 112.99C182.34 112.31 178.39 114.78 178.39 114.78 175.62 113.91 173.64 114.85 172.46 117.59 167.08 120.47 162.7 121.23 159.3 119.87 154.94 113.12 147.47 107.6 134.6 101.58 137.37 108.18 135.4 116.82 146.31 123.97 145.94 125.8 146.23 127.79 147.16 129.95L141.46 132.65C141.74 134.1 142.87 135.33 144.87 136.37L148.75 133.02 156.19 137.17C158.91 141.61 171.17 144.93 181.17 155.19 176.98 130.31 166.32 131.24 166.08 127.42 166.99 124.52 169.46 121.68 173.48 118.91 176.25 119.31 178.25 118.13 179.48 115.38 179.49 115.36 183.01 113.41 182.46 112.99zM103.45 42.45C103.33 41.77 99.38 44.24 99.38 44.24 96.61 43.37 94.63 44.31 93.45 47.05 88.07 49.93 83.69 50.69 80.29 49.33 75.93 42.58 68.46 37.06 55.59 31.04 58.36 37.64 56.39 46.28 67.3 53.43 66.93 55.26 67.22 57.25 68.15 59.41L62.45 62.11C62.73 63.56 63.86 64.79 65.86 65.83L69.74 62.48 77.18 66.63C79.9 71.07 92.16 74.39 102.16 84.65 97.97 59.77 87.31 60.7 87.07 56.88 87.98 53.98 90.45 51.14 94.47 48.37 97.24 48.77 99.24 47.59 100.47 44.84 100.48 44.82 104 42.86 103.45 42.45zM157.05 175.59C156.96 175.08 154.01 176.93 154.01 176.93 151.94 176.28 150.46 176.98 149.58 179.03 145.56 181.18 142.29 181.75 139.75 180.73 136.49 175.69 130.92 171.57 121.3 167.07 123.37 172 121.9 178.45 130.05 183.79 129.78 185.16 129.99 186.64 130.69 188.25L126.43 190.27C126.64 191.35 127.49 192.28 128.98 193.05L131.88 190.55 137.44 193.65C139.47 196.97 148.63 199.44 156.1 207.11 152.97 188.52 145.01 189.22 144.83 186.37 145.51 184.2 147.36 182.08 150.36 180.01 152.43 180.31 153.92 179.43 154.84 177.37 154.83 177.36 157.47 175.9 157.05 175.59zM36.25 68.74C36.16 68.23 33.21 70.08 33.21 70.08 31.14 69.43 29.66 70.13 28.78 72.18 24.76 74.33 21.49 74.9 18.95 73.88 15.69 68.84 10.12 64.72.5 60.22 2.57 65.15 1.1 71.6 9.25 76.94 8.98 78.31 9.19 79.79 9.89 81.4L5.63 83.42C5.84 84.5 6.69 85.43 8.18 86.2L11.08 83.7 16.64 86.8C18.67 90.12 27.83 92.59 35.3 100.26 32.17 81.67 24.21 82.37 24.03 79.52 24.71 77.35 26.56 75.23 29.56 73.16 31.63 73.46 33.12 72.58 34.04 70.52 34.03 70.51 36.66 69.05 36.25 68.74z"/>
    </g>
    <g fill="#FFF" transform="translate(450)">
      <rect width="90" height="8"/>
      <rect width="90" height="8" x="41" y="41" transform="rotate(-90 86 45)"/>
    </g>
    <g fill="#FFF">
      <rect width="90" height="8" x="-41" y="41" transform="rotate(-90 4 45)"/>
      <rect width="90" height="8" transform="rotate(-180 45 4)"/>
    </g>
    <g fill="#FFF" transform="translate(450 450)">
      <rect width="90" height="8" y="82"/>
      <rect width="90" height="8" x="41" y="41" transform="rotate(90 86 45)"/>
    </g>
    <g fill="#FFF" transform="translate(0 450)">
      <rect width="90" height="8" x="-41" y="41" transform="rotate(90 4 45)"/>
      <rect width="90" height="8" y="82" transform="rotate(-180 45 86)"/>
    </g>
  </g>
</svg>
