<svg viewBox="0 0 800 850.55" xmlns="http://www.w3.org/2000/svg"><path d="m564.87 142.09c-.16-.91-5.48 2.41-5.48 2.41q-5.61-1.75-8 3.78-10.86 5.82-17.72 3.07c-5.87-9.09-15.92-16.51-33.25-24.62 3.73 8.89 1.07 20.51 15.76 30.13a13.45 13.45 0 0 0 1.15 8l-7.68 3.64c.37 1.94 1.91 3.61 4.59 5l5.23-4.51 10 5.58c3.66 6 20.17 10.44 33.63 24.26-5.63-33.5-20-32.24-20.31-37.38q1.84-5.87 10-11.46 5.6.81 8.08-4.76s4.74-2.58 4-3.14z" fill="#4d4d4d" fill-rule="evenodd" transform="translate(-100 -74.72)"/><path d="m538.51 239.72c-.11-.68-4.07 1.79-4.07 1.79q-4.16-1.31-5.93 2.81-8.06 4.32-13.16 2.28c-4.36-6.75-11.82-12.27-24.7-18.29 2.77 6.6.8 15.23 11.71 22.38a10.06 10.06 0 0 0 .85 6l-5.7 2.7q.42 2.17 3.41 3.72l3.89-3.35 7.43 4.14c2.72 4.44 15 7.76 25 18-4.24-24.9-14.87-23.9-15.1-27.77q1.36-4.35 7.4-8.51 4.15.6 6-3.53s3.53-1.96 2.97-2.37z" fill="#4d4d4d" fill-rule="evenodd" transform="translate(-100 -74.72)"/><path d="m459.51 169.17c-.12-.67-4.08 1.8-4.08 1.8-2.77-.87-4.75.06-5.92 2.81q-8.07 4.31-13.17 2.28c-4.35-6.76-11.82-12.27-24.7-18.3 2.78 6.61.8 15.24 11.71 22.39a10 10 0 0 0 .86 6l-5.71 2.7q.42 2.16 3.42 3.72l3.88-3.36 7.43 4.15c2.72 4.44 15 7.76 25 18-4.19-24.88-14.85-24-15.09-27.77q1.37-4.35 7.41-8.51 4.15.6 6-3.53s3.51-1.96 2.96-2.38z" fill="#4d4d4d" fill-rule="evenodd" transform="translate(-100 -74.72)"/><path d="m513.11 302.32c-.09-.51-3 1.34-3 1.34q-3.1-1-4.43 2.1-6 3.23-9.83 1.7c-3.26-5-8.84-9.16-18.45-13.66 2.07 4.93.59 11.38 8.74 16.72a7.45 7.45 0 0 0 .64 4.46l-4.26 2a4.27 4.27 0 0 0 2.55 2.78l2.9-2.51 5.55 3.1c2 3.32 11.19 5.8 18.67 13.46-3.13-18.59-11.1-17.89-11.27-20.74q1-3.25 5.53-6.36a3.93 3.93 0 0 0 4.48-2.64s2.59-1.44 2.18-1.75z" fill="#4d4d4d" fill-rule="evenodd" transform="translate(-100 -74.72)"/><path d="m392.31 195.47c-.09-.51-3 1.34-3 1.34-2.08-.65-3.55 0-4.43 2.09q-6 3.22-9.83 1.71c-3.26-5.05-8.84-9.16-18.46-13.67 2.08 4.93.6 11.38 8.75 16.73a7.46 7.46 0 0 0 .64 4.46l-4.26 2a4.26 4.26 0 0 0 2.55 2.77l2.9-2.5 5.55 3.1c2 3.32 11.19 5.79 18.67 13.46-3.13-18.59-11.1-17.89-11.27-20.74q1-3.26 5.53-6.36a3.93 3.93 0 0 0 4.48-2.64s2.59-1.44 2.18-1.75z" fill="#4d4d4d" fill-rule="evenodd" transform="translate(-100 -74.72)"/><path d="m579.59 25.82 4.87 19.77 20.42-6.31-15.55 14.94 15.55 14.95-20.42-6.32-4.87 19.78-4.87-19.78-20.43 6.32 15.56-14.95-15.56-14.94 20.43 6.31z" fill="#f00"/><path d="m556.93 0h45.32v20.29h-45.32z" fill="#b3ddf2"/><path d="m557.1 87.42h45.32v20.29h-45.32z" fill="#b3ddf2"/><g transform="translate(-100 -74.72)"><path d="m900 552.34-8.34 16.74-88 8.95v347.25h-608.66v-346.62c-34.72-4.22-63.18-7.66-91.64-11.11q-1.7-9.52-3.4-19l398.04-346.35 115 97.31c2.17-30.4 3.95-55.27 6-84.17h118.2v191.72c56.08 50.03 109.44 97.65 162.8 145.28z" fill="#4d4d4d"/><path d="m350.17 499.92h18.83v51.52h33v16.56h-51.83z" fill="#fff"/><path d="m422.8 499.92h54.73v16h-36.07v10.3h32.67v14.87h-32.67v10.79h36.54v16h-55.2z" fill="#fff"/><path d="m526.05 499.43h18.18l29 68.53h-20.23l-5-12.15h-26.23l-4.86 12.19h-19.83zm16.53 41.7-7.58-19.34-7.68 19.34z" fill="#fff"/><path d="m593.41 499.92h26.25c24.3 0 38.4 14 38.4 33.63v.2c0 19.63-14.29 34.21-38.79 34.21h-25.86zm26.59 51.32c11.27 0 18.76-6.22 18.76-17.2v-.2c0-10.88-7.49-17.2-18.76-17.2h-7.68v34.6z" fill="#fff"/><path d="m346.29 594.36h54.71v16h-36v10.31h32.66v14.87h-32.66v10.79h36.55v16h-55.26z" fill="#fff"/><path d="m426.75 594.36h32.17c10.41 0 17.6 2.73 22.17 7.39 4 3.89 6 9.14 6 15.85v.19c0 10.4-5.55 17.3-14 20.9l16.23 23.72h-21.74l-13.71-20.61h-8.26v20.61h-18.86zm31.3 32.64c6.42 0 10.11-3.11 10.11-8.07v-.2c0-5.34-3.89-8.06-10.21-8.06h-12.34v16.33z" fill="#fff"/><path d="m338.06 746.75 10.49-12.54c6.71 5.35 14.2 8.16 22.07 8.16 5.06 0 7.78-1.75 7.78-4.66v-.2c0-2.81-2.24-4.37-11.47-6.51-14.49-3.3-25.67-7.39-25.67-21.39v-.19c0-12.64 10-21.78 26.35-21.78 11.56 0 20.61 3.12 28 9.05l-9.44 13.31c-6.22-4.37-13-6.7-19.05-6.7-4.57 0-6.8 1.94-6.8 4.37v.19c0 3.11 2.33 4.48 11.76 6.61 15.65 3.41 25.37 8.46 25.37 21.2v.19c0 13.9-11 22.17-27.51 22.17-12.05-.03-23.53-3.8-31.88-11.28z" fill="#fff"/><path d="m421.11 688.81h18.89v25.47h24.21v-25.47h18.79v68.05h-18.82v-25.86h-24.18v25.86h-18.89z" fill="#fff"/><path d="m510.29 688.81h18.95v68.05h-18.95z" fill="#fff"/><path d="m556.34 688.81h29.16c17.21 0 28.29 8.85 28.29 23.91v.2c0 16-12.35 24.5-29.26 24.5h-9.33v19.44h-18.86zm27.8 33.83c6.71 0 10.79-3.5 10.79-8.85v-.19c0-5.83-4.08-8.94-10.89-8.94h-8.84v18z" fill="#fff"/><path d="m411.85 813.4h12.68v2.66h-9.44v31.46h9.44v2.66h-12.68z" fill="#fff"/><path d="m428.83 823.28h8.94a6.44 6.44 0 0 1 4.76 1.57 3.82 3.82 0 0 1 1.12 2.82v.05a4 4 0 0 1 -2.69 3.89c2.12.69 3.47 1.89 3.47 4.26 0 3-2.45 4.81-6.61 4.81h-9zm7.75 7c1.47 0 2.29-.49 2.29-1.52v-.05c0-.94-.75-1.49-2.19-1.49h-3.14v3.06zm.69 6.61c1.47 0 2.32-.58 2.32-1.6 0-.94-.75-1.57-2.37-1.57h-3.68v3.22z" fill="#fff"/><path d="m450.9 834.2-6.63-10.92h5.51l3.58 6.36 3.62-6.36h5.4l-6.62 10.84v6.61h-4.86z" fill="#fff"/><path d="m470.79 823.28h6.72c6.23 0 9.85 3.59 9.85 8.62v.1c0 5-3.67 8.78-9.95 8.78h-6.62zm6.8 13.16c2.89 0 4.81-1.6 4.81-4.41 0-2.79-1.92-4.41-4.81-4.41h-2v8.87z" fill="#fff"/><path d="m489.89 823.28h14v4.11h-9.25v2.61h8.36v3.81h-8.37v2.76h9.37v4.12h-14.11z" fill="#fff"/><path d="m505.47 838.13 2.69-3.21a9 9 0 0 0 5.66 2.09c1.29 0 2-.45 2-1.19v-.05c0-.73-.57-1.13-2.94-1.67-3.71-.85-6.58-1.9-6.58-5.49 0-3.24 2.57-5.59 6.75-5.59a11 11 0 0 1 7.18 2.32l-2.42 3.41a8.73 8.73 0 0 0 -4.88-1.71c-1.17 0-1.74.49-1.74 1.12 0 .79.59 1.14 3 1.69 4 .87 6.5 2.17 6.5 5.43v.05c0 3.57-2.81 5.68-7.05 5.68a12.16 12.16 0 0 1 -8.17-2.88z" fill="#fff"/><path d="m523.28 823.28h4.86v17.45h-4.86z" fill="#fff"/><path d="m530.7 832.05a9.06 9.06 0 0 1 9.4-9.07 10.14 10.14 0 0 1 7.07 2.55l-2.84 3.41a6.13 6.13 0 0 0 -4.21-1.65 4.58 4.58 0 0 0 -4.46 4.79v.05a4.61 4.61 0 0 0 4.74 4.83 5 5 0 0 0 2.79-.72v-2.12h-3.44v-3.54h8v7.85a11.78 11.78 0 0 1 -7.57 2.69c-5.42-.05-9.48-3.78-9.48-9.07z" fill="#fff"/><path d="m550.81 823.28h4.51l7.18 9.22v-9.22h4.78v17.45h-4.23l-7.45-9.57v9.57h-4.79z" fill="#fff"/><path d="m571.58 847.52h9.48v-31.46h-9.48v-2.66h12.68v36.78h-12.68z" fill="#fff"/><path d="m398.06 431.23a7.24 7.24 0 0 1 7.42-7.37 7.36 7.36 0 0 1 5.62 2.2l-2 2.3a5.26 5.26 0 0 0 -3.65-1.61 4.22 4.22 0 0 0 -4.13 4.44 4.24 4.24 0 0 0 4.13 4.48 5.14 5.14 0 0 0 3.75-1.67l2 2a7.26 7.26 0 0 1 -5.84 2.55 7.19 7.19 0 0 1 -7.3-7.32z" fill="#fff"/><path d="m414.07 424.07h3.14v5.63h5.79v-5.63h3.13v14.24h-3.13v-5.72h-5.78v5.72h-3.14z" fill="#fff"/><path d="m430.27 424.07h3.13v14.24h-3.13z" fill="#fff"/><path d="m436.78 431.23a7.25 7.25 0 0 1 7.43-7.37 7.36 7.36 0 0 1 5.62 2.2l-2 2.3a5.22 5.22 0 0 0 -3.64-1.61 4.22 4.22 0 0 0 -4.13 4.44 4.24 4.24 0 0 0 4.13 4.48 5.14 5.14 0 0 0 3.75-1.67l2 2a7.28 7.28 0 0 1 -5.84 2.55 7.2 7.2 0 0 1 -7.32-7.32z" fill="#fff"/><path d="m457.77 424h2.89l6.11 14.35h-3.28l-1.3-3.19h-6l-1.3 3.19h-3.19zm3.3 8.39-1.9-4.62-1.89 4.62z" fill="#fff"/><path d="m468 431.23a7.31 7.31 0 0 1 7.47-7.37 7.77 7.77 0 0 1 5.59 2l-2 2.38a5.24 5.24 0 0 0 -3.72-1.45 4.28 4.28 0 0 0 -4.09 4.44 4.27 4.27 0 0 0 4.31 4.52 5 5 0 0 0 2.95-.86v-2h-3.15v-2.71h6.18v6.19a9.24 9.24 0 0 1 -6.08 2.26 7.13 7.13 0 0 1 -7.46-7.4z" fill="#fff"/><path d="m484.46 431.23a7.57 7.57 0 0 1 15.14 0 7.57 7.57 0 0 1 -15.14 0zm11.86 0a4.33 4.33 0 0 0 -4.31-4.48 4.27 4.27 0 0 0 -4.28 4.44 4.33 4.33 0 0 0 4.32 4.48 4.26 4.26 0 0 0 4.27-4.44z" fill="#fff"/><path d="m522.67 431.23a7.24 7.24 0 0 1 7.43-7.37 7.39 7.39 0 0 1 5.62 2.2l-2 2.3a5.25 5.25 0 0 0 -3.64-1.61 4.22 4.22 0 0 0 -4.13 4.44 4.24 4.24 0 0 0 4.13 4.48 5.12 5.12 0 0 0 3.74-1.67l2 2a7.29 7.29 0 0 1 -5.84 2.55 7.19 7.19 0 0 1 -7.31-7.32z" fill="#fff"/><path d="m543.66 424h2.89l6.1 14.35h-3.28l-1.3-3.19h-6l-1.3 3.19h-3.2zm3.29 8.39-1.89-4.62-1.89 4.62z" fill="#fff"/><path d="m555.27 424.07h3.37l3.75 6 3.74-6h3.38v14.24h-3.11v-9.31l-4 6.09h-.08l-4-6v9.24h-3.07z" fill="#fff"/><path d="m573.61 424.07h5.82c3.4 0 5.45 2 5.45 4.92 0 3.3-2.56 5-5.76 5h-2.38v4.27h-3.13zm5.61 7.18a2.21 2.21 0 0 0 2.49-2.16c0-1.4-1-2.15-2.55-2.15h-2.42v4.35z" fill="#fff"/><path d="m586.78 436.24 1.85-2.22a6.56 6.56 0 0 0 4.26 1.73c1.28 0 2.05-.51 2.05-1.35 0-.79-.49-1.2-2.87-1.81-2.87-.73-4.72-1.52-4.72-4.35 0-2.59 2.08-4.3 5-4.3a8.26 8.26 0 0 1 5.29 1.81l-1.64 2.25a6.64 6.64 0 0 0 -3.7-1.41c-1.2 0-1.84.55-1.84 1.24 0 .94.61 1.24 3.08 1.88 2.89.75 4.52 1.79 4.52 4.27 0 2.83-2.16 4.42-5.23 4.42a9.11 9.11 0 0 1 -6.05-2.16z" fill="#fff"/></g><path d="m411.15 349.95 1.04 4.44 4.37-1.31-3.33 3.12 3.33 3.12-4.37-1.32-1.04 4.44-1.04-4.44-4.36 1.32 3.32-3.12-3.32-3.12 4.36 1.31z" fill="#fff"/><path d="m546.4 618.77c-.93 2.79-1.77 5.76-3.3 11 1.17.18 2.58.54 4 .66 1-3.75 2.07-8.19 3.51-11.4.42-.51 2.88-.21 3.15.6a89.66 89.66 0 0 0 -3.3 11 7.38 7.38 0 0 0 4.23-1.74c.6-.45 1.26.63.63 1.26a9.26 9.26 0 0 1 -5.34 2.22c-.57 2-1.26 4.35-1.71 6-.51.72-3.21.75-3.39-.18.45-1.5 1.14-3.75 1.74-5.91-1.47-.12-2.88-.42-4.17-.6-1.41 4.77-2.73 7.47-7 7.44-3.93 0-4.62-2.58-4.17-4.74.63-2.91 3.87-5.31 8.46-5 1.08-3.57 1.77-6.06 2.64-8.55-2 2-4.71.45-6.93 1-1.17.18-2.13.6-2.19 1.8s1.5 2 2.94.93c.51-.18 1.26.78.93 1.38a4.24 4.24 0 0 1 -6.21 0 3.81 3.81 0 0 1 -.75-3.24c.45-1.86 2.07-2.73 4-3 3.78-.9 6.12 1.5 8.91-1.32.74-.75 3.17-.38 3.32.39zm-11.79 15.78c-.36 1.17-.12 2.4 1.14 2.43 1.71 0 2.64-2.16 3.48-5.4-2.67-.09-4.17 1.32-4.62 2.97z" fill="#b3ddf2" transform="translate(-100 -74.72)"/><path d="m565.49 635.81c1.47.15 3.21-.57 4.5-3.6.18-.36 1.23.21 1 .6-1.95 4.26-4.5 4.71-6.69 4.26a7 7 0 0 1 -5 2.07c-2.91 0-5.28-1.62-4.38-6.18.84-4.14 4-6.84 7.59-6.9 5.38-.06 5.49 5.55 2.98 9.75zm-7.08-2.81c-.36 1.86-.45 4 1.41 4a2.79 2.79 0 0 0 2-1 1.15 1.15 0 0 1 1-1.8c1.17-2.76 1.5-6.09-.75-6-1.68.08-3.21 2.54-3.66 4.8z" fill="#b3ddf2" transform="translate(-100 -74.72)"/><path d="m583.53 635.78c.21-1.2.93-3.81 1.32-5.4.21-.87.39-1.92-.57-1.92s-2.82 1.83-3.48 3.45c-.54 2-1.17 4.86-1.62 6.57-.33.66-3.18.75-3.3-.12.6-2.52 1.2-5 2-8.1.21-.78.27-1.77-.6-1.74s-2.4 1.53-3.42 3.3c-.69 2.31-1.17 4.35-1.71 6.69-.27.69-3.45.72-3.33-.33 1.05-4 2-7.32 3.15-11.73.48-.66 3-.42 3.12.45l-.66 2.37c1.05-1.47 2.94-3.24 4.74-3.21 1.59 0 2.43 1.2 2.1 3 1.14-1.47 2.79-3 4.74-3 2.28 0 2.91 1.47 2.34 3.93-.51 2.16-2.52 7-1 7 1.14 0 3-2.25 4.08-4.8.15-.36 1.23.24 1 .6-1.23 2.64-3.42 6.21-6.33 6.3-2.27.11-2.96-1.27-2.57-3.31z" fill="#b3ddf2" transform="translate(-100 -74.72)"/><path d="m602.15 631.16c-1.11 2.25-4 3.3-7.44 2.49-.18 1.92.93 3.15 3 3.36s5.22-.84 7-4.8c.18-.36 1.23.24 1.08.6-2.43 5.43-6 6.42-8.88 6.33-4.56-.15-6.18-3.39-5.43-6.75a7.45 7.45 0 0 1 7.47-6.27c3.35.12 4.34 2.88 3.2 5.04zm-7.23 1c2.22.33 3.72-.45 4.32-1.77.48-1 .45-2.07-.69-2.1-1.41-.13-3.09 1.71-3.63 3.83z" fill="#b3ddf2" transform="translate(-100 -74.72)"/><path d="m619.88 619.34c3-2.49 9.33-1.65 9.15 2.22-.09 2-1.71 3.39-4.41 3.27a5.77 5.77 0 0 1 -3.81-1.71c-.36 1.86 1.11 3.9 3.81 4.23.54.33.21 1.89-.45 2-2.4-.27-6 .72-6.39 4-.36 2.52 1.74 3.57 3.69 3.63a7.48 7.48 0 0 0 7.08-4.74c.18-.39 1.2.24 1.05.6-2 4.56-5.28 6.3-8.94 6.3-3.33 0-6.78-1.89-6.27-5.79a6.47 6.47 0 0 1 6.12-5.73c-2.85-1.05-3.36-4.86-1.83-7.11a7.64 7.64 0 0 1 -.54-3.3c0-.51 1.32-.72 1.38 0a5.79 5.79 0 0 0 .36 2.13zm4.56 3.42c1 .06 1.62-.48 1.65-1.23 0-1.71-3.3-1.92-4.59-.15a4.06 4.06 0 0 0 2.94 1.38z" fill="#b3ddf2" transform="translate(-100 -74.72)"/><path d="m645.1 619.07c-1.53 4.44-6.21 17.88-3.81 17.82 1.17 0 2.94-2.31 3.93-4.68.18-.36 1.23.24 1 .6-1.47 3.18-3.72 6.12-6.42 6.15-1.59 0-2.58-1.38-2.28-3.63-.9 1.83-2.43 3.75-4.8 3.78-4.47.12-4.14-6-1.08-9.78a7.91 7.91 0 0 1 7.65-2.94c.63-2.28 1.89-6 2.61-7.95.44-.54 3.23-.21 3.2.63zm-11.16 12c-1 1.68-1.86 4.92-.72 5.67 1 .75 2.76-.75 4-3.72a32.16 32.16 0 0 0 1.47-4.59c-1.42-.27-3.4.42-4.75 2.67z" fill="#b3ddf2" transform="translate(-100 -74.72)"/><path d="m644.86 635.36c.66-2.82 1.38-5.25 2.43-8.88.48-.69 2.94-.33 3.15.39-1.17 4.17-1.8 6.12-2.25 8.16-.24 1.2-.27 2 .36 2 1.38 0 3.36-2.34 4.38-4.8.18-.39 1.23.24 1.05.63-1.26 2.7-3.51 6.21-6.63 6.27-2.49.04-3.03-1.46-2.49-3.77zm3.21-12.87a2.06 2.06 0 0 1 2.13-1.8 1.49 1.49 0 0 1 1.59 1.8 2 2 0 0 1 -2.16 1.83 1.53 1.53 0 0 1 -1.56-1.83z" fill="#b3ddf2" transform="translate(-100 -74.72)"/><path d="m654.24 627.77h-.9c-.6-.33-.24-1.8.24-2h1.2c.78-2.52 1.71-5.31 2.31-6.84.42-.6 3.15-.27 3.18.6-.66 1.83-1.35 4-2 6.24h2.52c.57.42.21 1.83-.24 2h-2.82c-.45 1.56-.9 3.15-1.17 4.41-.63 2.76-.63 4.8.84 4.83 1.74 0 3.87-2 5.13-4.8.18-.36 1.2.24 1 .63-1.62 3.75-3.81 6.24-6.81 6.27-5.24.06-3.86-6.11-2.48-11.34z" fill="#b3ddf2" transform="translate(-100 -74.72)"/><path d="m662.18 635.36c.66-2.82 1.38-5.25 2.43-8.88.48-.69 2.94-.33 3.15.39-1.17 4.13-1.76 6.13-2.25 8.13-.24 1.2-.27 2 .36 2 1.38 0 3.36-2.34 4.38-4.8.18-.39 1.23.24 1 .63-1.26 2.7-3.51 6.21-6.63 6.27-2.44.07-2.98-1.43-2.44-3.74zm3.21-12.87a2.06 2.06 0 0 1 2.13-1.8 1.49 1.49 0 0 1 1.59 1.8 2 2 0 0 1 -2.16 1.83 1.53 1.53 0 0 1 -1.56-1.83z" fill="#b3ddf2" transform="translate(-100 -74.72)"/><path d="m680.65 635.81c1.47.15 3.21-.57 4.5-3.6.18-.36 1.23.21 1.05.6-2 4.26-4.5 4.71-6.69 4.26a7 7 0 0 1 -5 2.07c-2.91 0-5.28-1.62-4.38-6.18.84-4.14 4-6.84 7.59-6.9 5.33-.06 5.48 5.55 2.93 9.75zm-7.08-2.81c-.36 1.86-.45 4 1.41 4a2.79 2.79 0 0 0 2-1 1.15 1.15 0 0 1 1.05-1.8c1.17-2.76 1.5-6.09-.75-6-1.73.08-3.28 2.54-3.71 4.8z" fill="#b3ddf2" transform="translate(-100 -74.72)"/><path d="m697 630.26c-.33 1.38-1 3.06-1.29 4.5-.24 1.11-.39 2.25.36 2.25 1.23 0 3-2.22 4.11-4.8.15-.36 1.2.24 1 .6-1.2 2.61-3.45 6.27-6.36 6.3-2.28.06-3-1.26-2.61-3.21.18-1 1-4.29 1.29-5.52.21-.9.36-1.89-.66-1.86s-2.64 1.44-3.75 2.94c-.84 2.82-1.17 4.35-1.8 7-.33.66-3.3.75-3.36-.24 1-4 2-7.41 3.18-11.79.48-.66 2.82-.51 3.12.42-.27 1-.39 1.47-.66 2.34 1.08-1.26 3.12-3.21 5.1-3.18 2.33.08 2.93 1.82 2.33 4.25z" fill="#b3ddf2" transform="translate(-100 -74.72)"/></svg>