<?xml version="1.0" encoding="utf-8"?>
<!-- Generator: Adobe Illustrator 18.1.0, SVG Export Plug-In . SVG Version: 6.00 Build 0)  -->
<!DOCTYPE svg PUBLIC "-//W3C//DTD SVG 1.1//EN" "http://www.w3.org/Graphics/SVG/1.1/DTD/svg11.dtd">
<svg version="1.1" id="Layer_1" xmlns="http://www.w3.org/2000/svg" xmlns:xlink="http://www.w3.org/1999/xlink" x="0px" y="0px"
	 viewBox="0 0 192 192" enable-background="new 0 0 192 192" xml:space="preserve">
<path fill="#B3DDF2" d="M166.8,97c-0.4-11.1-3.4-22.1-9.1-32.1c-0.9-1.6-1.9-3.2-2.9-4.7c-1.9-5.9-4.5-11.5-9.1-15.6
	c-4.4-4-10.2-6-16.3-7.4c-10.2-5.5-21.7-8.5-33.6-8.5c-1.6,0-3.3,0.1-4.9,0.2c-3.3-0.7-6.5-1.2-9.7-1.2c-2.9,0-5.6,0.4-8.1,1.2
	c-5.9,1.9-10.5,5.9-14.7,10.5c-11.3,7-20.2,16.8-26,28.6c-4.2,4.6-7.8,9.7-9.1,15.9c-1.3,6.2-0.2,12.3,1.7,18.2
	c0.4,11.1,3.4,22.1,9.1,32.1c0.9,1.6,1.9,3.2,2.9,4.7c1.9,5.9,4.5,11.5,9.1,15.6c4.4,4,10.2,6,16.3,7.4c10.2,5.5,21.7,8.5,33.6,8.5
	c0,0,0,0,0,0c1.6,0,3.3-0.1,4.9-0.2c3.3,0.7,6.5,1.2,9.7,1.2c0,0,0,0,0,0c2.9,0,5.6-0.4,8.1-1.2c5.9-1.9,10.5-5.9,14.7-10.5
	c11.3-7,20.2-16.9,26-28.6c4.2-4.6,7.7-9.7,9.1-15.9C169.9,109,168.7,102.9,166.8,97z"/>
<path fill="#FFFFFF" d="M168,97c-0.4-11.3-3.5-22.5-9.2-32.6c-0.9-1.6-1.9-3.2-2.9-4.8c-1.9-6-4.6-11.7-9.2-15.9
	c-4.5-4.1-10.3-6.1-16.5-7.5c-10.3-5.6-22-8.6-34.2-8.6c-1.7,0-3.3,0.1-5,0.2c-3.3-0.7-6.6-1.2-9.8-1.2c-3,0-5.7,0.4-8.2,1.2
	c-6,1.9-10.7,6-14.9,10.7c-11.5,7.1-20.5,17.1-26.4,29c-4.3,4.7-7.9,9.8-9.3,16.2c-1.4,6.3-0.2,12.5,1.7,18.5
	c0.4,11.3,3.5,22.5,9.2,32.6c0.9,1.6,1.9,3.2,2.9,4.8c1.9,6,4.6,11.7,9.2,15.9c4.5,4.1,10.3,6.1,16.5,7.5c10.3,5.6,22,8.6,34.2,8.6
	c0,0,0,0,0,0c1.7,0,3.3-0.1,5-0.2c3.3,0.7,6.6,1.2,9.8,1.2c0,0,0,0,0,0c3,0,5.7-0.4,8.2-1.2c6-1.9,10.7-6,14.9-10.7
	c11.5-7.1,20.5-17.1,26.4-29.1c4.3-4.7,7.9-9.8,9.2-16.2C171.1,109.1,170,103,168,97z M164.7,88.3c-0.1-0.2-0.2-0.5-0.3-0.7
	c-1.2-3.1-2.4-6-3.4-8.9c-1-3-1.8-6.3-2.6-9.4c-0.1-0.2-0.1-0.4-0.2-0.6C161.5,74.9,163.6,81.5,164.7,88.3z M158.1,131.2
	c-2,2.1-4.1,4.1-6.1,6c-2.3,2.2-4.7,4.5-6.9,6.8c-0.6,0.6-1.1,1.3-1.7,1.9c1.1-2.2,2.1-4.4,3.1-6.6c1.4-3.1,2.7-6,4.2-8.6
	c1.6-2.8,3.5-5.6,5.4-8.3c3.8-5.5,7.7-11.2,9.3-17.5c-0.4,4.5-1.2,9-2.4,13.5C161.8,122.9,160.1,127.1,158.1,131.2z M91.8,166.9
	c-3.2-0.9-6.5-1.8-9.8-2.5c-0.9-0.2-1.9-0.4-2.9-0.6c2.5-0.1,5-0.4,7.4-0.6c3.3-0.3,6.7-0.6,9.9-0.6l0.3,0c3,0,6,0.3,9.3,0.6
	c3.3,0.3,6.7,0.6,10,0.6c0,0,0,0,0,0c3.7,0,6.9-0.4,9.7-1.2c-8,3.8-16.7,6-25.5,6.6C97.5,168.5,94.7,167.7,91.8,166.9z M35.6,129.4
	c-0.8-3.2-1.6-6.5-2.6-9.6c-0.3-1-0.7-2.1-1.1-3.2c1.4,2.1,2.8,4.2,4.3,6.3c1.9,2.8,3.9,5.6,5.6,8.5c1.7,2.9,3.2,6,4.6,9
	c2.9,6,5.8,12.1,10.2,16.5c-7.4-5.1-13.8-11.5-18.8-19.2C37,135.1,36.3,132.2,35.6,129.4z M33.9,68c2-2.1,4.1-4.1,6.1-6
	c2.3-2.2,4.7-4.5,6.9-6.8c0.6-0.6,1.1-1.3,1.7-1.9c-1.1,2.2-2.1,4.4-3.1,6.6c-1.4,3.1-2.7,6-4.2,8.6c-1.6,2.8-3.5,5.6-5.4,8.3
	c-3.8,5.5-7.7,11.2-9.3,17.5c0.4-4.5,1.2-9,2.4-13.5C30.2,76.3,31.9,72.1,33.9,68z M100.2,32.3c3.2,0.9,6.5,1.8,9.8,2.5
	c0.9,0.2,1.9,0.4,2.9,0.6c-2.5,0.1-5,0.4-7.4,0.6c-3.3,0.3-6.7,0.6-9.9,0.6l-0.3,0c-3,0-6-0.3-9.3-0.6c-3.3-0.3-6.7-0.6-10-0.6
	c-3.7,0-6.9,0.4-9.7,1.2c8-3.8,16.7-6,25.5-6.6C94.5,30.7,97.3,31.5,100.2,32.3z M156.4,69.8c0.8,3.2,1.6,6.5,2.6,9.6
	c0.3,1,0.7,2.1,1.1,3.2c-1.4-2.1-2.8-4.2-4.3-6.3c-1.9-2.8-3.9-5.6-5.6-8.5c-1.7-2.9-3.2-6-4.6-9c-2.9-6-5.8-12.1-10.2-16.5
	c7.4,5.1,13.8,11.5,18.8,19.2C155,64.1,155.7,67,156.4,69.8z M130.4,158.3c-3.8,2.2-8.4,3.3-14.4,3.3c0,0,0,0,0,0
	c-3.3,0-6.6-0.3-9.9-0.6c-3.2-0.3-6.4-0.6-9.5-0.6l-0.3,0c-3.3,0-6.7,0.3-10,0.7c-3.5,0.3-7,0.7-10.5,0.7c-5.7,0-10-0.9-13.5-3
	c-6.7-3.8-10.3-11.3-14.1-19.2c-1.5-3.1-3-6.2-4.7-9.2c-1.7-2.9-3.7-5.8-5.7-8.6c-5.1-7.2-9.8-14-9.9-21.7c0-7.9,4.9-15.1,9.7-22.1
	c1.9-2.8,3.9-5.6,5.5-8.5c1.6-2.7,2.9-5.8,4.3-8.8c3.5-7.7,7-15.7,14.2-19.8c3.8-2.2,8.4-3.3,14.4-3.3c3.3,0,6.6,0.3,9.9,0.6
	c3.2,0.3,6.4,0.6,9.5,0.6l0.3,0c3.3,0,6.7-0.3,10-0.7c3.5-0.3,7-0.7,10.5-0.7c5.7,0,10,0.9,13.5,3c6.7,3.8,10.3,11.3,14.1,19.2
	c1.5,3.1,3,6.2,4.7,9.2c1.7,2.9,3.7,5.8,5.7,8.6c5.1,7.2,9.8,14,9.9,21.7c0,7.9-4.9,15.1-9.7,22.1c-1.9,2.8-3.9,5.6-5.5,8.5
	c-1.6,2.7-2.9,5.8-4.3,8.8C141.1,146.1,137.5,154.1,130.4,158.3z M145.2,45.3c2.4,2.2,4.3,4.9,5.8,7.9c-4.2-4.9-8.9-9.2-14.2-12.9
	C139.9,41.5,142.8,43.1,145.2,45.3z M120.8,34.6c-0.2,0-0.4-0.1-0.6-0.1c-3.3-0.5-6.6-1-9.8-1.7c-3.2-0.7-6.5-1.6-9.7-2.5
	c-0.2-0.1-0.4-0.1-0.6-0.2C107.3,30.5,114.3,32.1,120.8,34.6z M73.5,29.8c2.3-0.8,4.8-1.1,7.6-1.1c0.7,0,1.3,0,2,0.1
	c-6.2,1.1-12.3,3.1-18.1,5.8C67.6,32.5,70.4,30.8,73.5,29.8z M52,45.6c-0.1,0.2-0.3,0.4-0.4,0.6c-2,2.5-4.1,5.2-6.2,7.5
	c-2.1,2.3-4.3,4.4-6.7,6.7c-0.2,0.2-0.3,0.3-0.5,0.5C41.9,55.2,46.6,50,52,45.6z M24.3,84.2c0.7-3.4,2.1-6.4,4-9.2
	c-0.6,1.7-1.2,3.4-1.7,5.2c-1.3,4.6-2.1,9.3-2.5,14C23.7,90.8,23.6,87.5,24.3,84.2z M27.3,110.9c0.1,0.2,0.2,0.5,0.3,0.7
	c1.2,3.1,2.4,6,3.4,8.9c1,3,1.8,6.3,2.6,9.4c0.1,0.2,0.1,0.4,0.2,0.6C30.5,124.3,28.4,117.7,27.3,110.9z M46.8,153.9
	c-2.4-2.2-4.3-4.9-5.8-7.9c4.2,4.9,8.9,9.2,14.2,12.8C52.1,157.7,49.2,156.1,46.8,153.9z M71.2,164.6c0.2,0,0.4,0.1,0.6,0.1
	c3.3,0.5,6.6,1,9.8,1.7c3.2,0.7,6.5,1.6,9.7,2.5c0.2,0.1,0.4,0.1,0.6,0.2C84.7,168.7,77.7,167.1,71.2,164.6z M118.5,169.4
	c-2.3,0.8-4.8,1.1-7.6,1.1h0c-0.7,0-1.3,0-2-0.1c6.2-1.1,12.3-3.1,18-5.8C124.4,166.7,121.6,168.4,118.5,169.4z M140,153.6
	c0.1-0.2,0.3-0.4,0.4-0.6c2-2.5,4.1-5.2,6.2-7.5c2.1-2.3,4.3-4.4,6.7-6.7c0.2-0.2,0.4-0.3,0.5-0.5C150.1,144,145.4,149.2,140,153.6z
	 M167.6,115c-0.7,3.4-2.1,6.4-4,9.2c0.6-1.7,1.2-3.4,1.7-5.2c1.3-4.6,2.1-9.3,2.5-14C168.3,108.4,168.4,111.7,167.6,115z"/>
<path fill="#67A8C8" d="M29.7,156.7L29.7,156.7c2.1-2,5.3-2.1,7.4,0.1c1.3,1.4,1.7,2.6,1.7,3.9l-2.1,0.1c0-1-0.3-1.9-1-2.6
	c-1.2-1.2-3-1.1-4.3,0.1l0,0c-1.2,1.2-1.4,3.1-0.2,4.3c0.8,0.8,1.6,1,2.7,1.1l0,2c-1.5,0-2.8-0.3-4.2-1.7
	C27.5,161.9,27.6,158.7,29.7,156.7z"/>
<path fill="#67A8C8" d="M41.6,161.4l1.7,1.4l-2.5,3.1l3.2,2.5l2.5-3.1l1.7,1.4l-6.2,7.9l-1.7-1.4l2.5-3.2l-3.2-2.5l-2.5,3.2
	l-1.7-1.4L41.6,161.4z"/>
<path fill="#67A8C8" d="M50.7,168.2l1.9,1.2l-5.4,8.5l-1.9-1.2L50.7,168.2z"/>
<path fill="#67A8C8" d="M52.2,175.2L52.2,175.2c1.3-2.6,4.3-3.7,7.1-2.3c1.7,0.9,2.4,1.9,2.8,3.2l-2,0.8c-0.4-1-0.9-1.7-1.8-2.2
	c-1.5-0.8-3.2-0.1-4,1.5l0,0c-0.8,1.5-0.4,3.4,1.2,4.1c1,0.5,1.9,0.4,2.9,0.2l0.6,1.9c-1.4,0.5-2.8,0.6-4.5-0.3
	C51.8,180.8,50.9,177.8,52.2,175.2z"/>
<path fill="#67A8C8" d="M68.4,176.9l1.9,0.7l0.8,11l-2.2-0.8l-0.1-2.4l-4-1.4l-1.6,1.8l-2.1-0.7L68.4,176.9z M68.7,183.3l-0.2-3.5
	l-2.3,2.7L68.7,183.3z"/>
<path fill="#67A8C8" d="M74.6,184.3L74.6,184.3c0.6-2.8,3.2-4.7,6.2-4.1c1.8,0.3,2.8,1,3.6,2.1l-1.7,1.4c-0.6-0.8-1.2-1.3-2.4-1.5
	c-1.6-0.3-3.1,0.8-3.4,2.5l0,0c-0.4,1.8,0.6,3.4,2.4,3.7c0.8,0.2,1.5,0.1,2.2-0.2l0.3-1.4l-2.2-0.4l0.4-1.9l4.3,0.8l-0.8,4.3
	c-1.2,0.7-2.7,1.1-4.5,0.7C75.7,189.8,74,187.2,74.6,184.3z"/>
<path fill="#67A8C8" d="M87.4,186.6L87.4,186.6c0.1-2.9,2.5-5.1,5.6-5c3.1,0.1,5.2,2.5,5.1,5.4l0,0c-0.1,2.9-2.5,5.1-5.6,5
	C89.4,191.9,87.2,189.5,87.4,186.6z M95.7,186.9L95.7,186.9c0.1-1.8-1.1-3.2-2.9-3.3c-1.8-0.1-3.1,1.3-3.2,3l0,0
	c-0.1,1.7,1.1,3.2,2.9,3.3C94.4,190,95.7,188.7,95.7,186.9z"/>
<path fill="#67A8C8" d="M114.3,185.2L114.3,185.2c-0.7-2.8,0.8-5.6,3.8-6.4c1.8-0.5,3.1-0.1,4.2,0.5l-1,1.9
	c-0.9-0.5-1.8-0.7-2.8-0.5c-1.6,0.4-2.5,2.1-2,3.8l0,0c0.4,1.7,1.9,2.8,3.6,2.3c1.1-0.3,1.7-0.9,2.3-1.8l1.7,1
	c-0.7,1.3-1.7,2.3-3.6,2.8C117.7,189.7,115,188,114.3,185.2z"/>
<path fill="#67A8C8" d="M127.6,175.8l1.9-0.8l7.9,7.7l-2.1,0.9l-1.7-1.7l-3.9,1.6l0,2.4l-2.1,0.9L127.6,175.8z M132,180.4l-2.5-2.5
	l0,3.5L132,180.4z"/>
<path fill="#67A8C8" d="M135.6,172.3l2-1.2l4.5,2.3l0-5l2-1.2l5.2,8.6l-1.9,1.1l-3.4-5.6l-0.2,5.1l0,0l-4.6-2.2l3.4,5.6l-1.9,1.1
	L135.6,172.3z"/>
<path fill="#67A8C8" d="M146.9,165.1l3.2-2.6c1.9-1.5,3.9-1.4,5.2,0.2l0,0c1.5,1.8,0.9,3.9-0.9,5.3l-1.3,1.1l1.9,2.3l-1.7,1.4
	L146.9,165.1z M153.2,166.5c0.9-0.7,0.9-1.6,0.4-2.3l0,0c-0.6-0.8-1.5-0.7-2.4,0l-1.3,1.1l2,2.4L153.2,166.5z"/>
<path fill="#67A8C8" d="M160.3,164.9l-0.2-2c1.2-0.1,2.2-0.5,3-1.3c0.6-0.7,0.7-1.3,0.3-1.7l0,0c-0.4-0.4-0.9-0.3-2.3,0.6
	c-1.8,1.1-3.1,1.7-4.5,0.3l0,0c-1.3-1.3-1.2-3.2,0.2-4.6c1-1.1,2.2-1.6,3.5-1.8l0.4,2c-1.1,0.2-1.9,0.6-2.5,1.2
	c-0.6,0.6-0.6,1.2-0.3,1.5l0,0c0.5,0.5,0.9,0.3,2.5-0.7c1.8-1.1,3.1-1.4,4.4-0.2l0,0c1.4,1.4,1.2,3.3-0.3,4.8
	C163.4,164,161.9,164.8,160.3,164.9z"/>
<path fill="#515254" d="M4.6,62.6L6.9,58l8-0.7l-4.2-6.8l2.3-4.6l15.8,7.9l-2.2,4.3l-9-4.5l4.1,7.1l0,0.1l-8.1,0.9l9,4.5l-2.1,4.3
	L4.6,62.6z"/>
<path fill="#515254" d="M24.6,44.5L24.6,44.5c-3.7-3.5-4-9.3-0.3-13.2c3.7-4,9.4-4.2,13.1-0.7l0,0c3.7,3.4,3.9,9.2,0.2,13.2
	C34,47.7,28.3,47.9,24.6,44.5z M34.1,34.2L34.1,34.2c-1.9-1.8-4.8-1.9-6.6,0c-1.8,2-1.4,4.7,0.4,6.5l0,0c1.9,1.7,4.7,1.9,6.6-0.1
	C36.4,38.7,36,35.9,34.1,34.2z"/>
<path fill="#515254" d="M37.9,19.2l7.6-4.8c1.9-1.2,3.5-1.6,4.9-1.2c1,0.2,1.8,0.8,2.5,1.8l0,0c1.1,1.7,0.8,3.4-0.2,4.8
	c2.2-0.5,4-0.3,5.3,1.8l0,0c1.6,2.6,0.5,5.4-3,7.7l-7.7,4.9L37.9,19.2z M48.2,21c1.3-0.8,1.7-1.7,1.1-2.5l0,0
	c-0.5-0.8-1.4-0.9-2.7-0.1L44,20l1.7,2.6L48.2,21z M52.4,26.2c1.3-0.8,1.7-1.7,1.1-2.6l0,0c-0.5-0.8-1.5-0.9-2.9-0.1l-3.2,2l1.7,2.7
	L52.4,26.2z"/>
<path fill="#515254" d="M58.2,7.9L62.7,6l6.5,16.4l-4.6,1.8L58.2,7.9z"/>
<path fill="#515254" d="M70.4,3.4l4.8-1l2.7,13.1l8.4-1.7l0.9,4.2L74,20.7L70.4,3.4z"/>
<path fill="#515254" d="M90.8,0L105,0.2L105,4.4l-9.3-0.2l0,2.7L104,7l-0.1,3.9l-8.5-0.1l0,2.8l9.5,0.2l-0.1,4.2l-14.3-0.2L90.8,0z"
	/>
<path fill="#515254" d="M120.4,11.8L120.4,11.8c1.8-4.9,7-7.2,12-5.3c3.4,1.3,5,3.5,5.7,6.1l-4.4,1.4c-0.5-1.5-1.3-2.7-2.9-3.3
	c-2.3-0.9-4.7,0.5-5.6,2.9l0,0c-0.9,2.5,0,5,2.3,5.9c1.7,0.7,3,0.2,4.5-0.6l2.5,3.8c-2.4,1.6-5.1,2.3-8.7,1
	C121,21.8,118.5,16.7,120.4,11.8z"/>
<path fill="#515254" d="M151.3,16.6l3.8,2.7L151,38.2l-4.3-3l0.8-3.3l-5.5-3.9l-2.8,1.8l-4.2-3L151.3,16.6z M148.5,27.9l1.3-5.2
	l-4.5,2.9L148.5,27.9z"/>
<path fill="#515254" d="M167,29.3l3.2,4l-2.7,7.6l8-1l3.2,4L165,54.9l-3.1-3.8l7.9-6.4l-8.2,0.8l-0.1-0.1l2.5-7.8l-7.8,6.3l-3-3.7
	L167,29.3z"/>
<path fill="#515254" d="M183.5,52.2l3.1,6.9c1.8,4.1,0.9,7.6-2.7,9.2l0,0c-3.8,1.7-7.1-0.4-8.9-4.4l-1-2.2l-4.6,2l-2-4.5L183.5,52.2
	z M178.4,62.3c0.7,1.6,2,2.2,3.2,1.6l0,0c1.4-0.6,1.7-1.9,1-3.5l-0.9-2.1l-4.3,1.9L178.4,62.3z"/>
<g>
	<polygon fill="#FF0000" points="109.6,185.7 107.3,186.7 108.4,188.9 106.4,187.4 105,189.5 105.3,187 102.8,186.9 105.1,185.9 
		104,183.7 106,185.2 107.4,183.1 107.1,185.6 	"/>
</g>
<g>
	<path fill="#515254" d="M74.3,80c-3.9,0-7.6-1.7-10.2-4.7c-2.3-2.7-3.5-6.2-3.2-9.8c0.3-3.6,1.9-6.8,4.6-9.2
		c2.4-2.1,5.6-3.3,8.8-3.3c3.9,0,7.6,1.7,10.2,4.7c4.8,5.6,4.2,14.1-1.4,19C80.6,78.9,77.5,80,74.3,80z M74.3,56.4
		c-2.4,0-4.8,0.9-6.7,2.5c-2.1,1.8-3.3,4.3-3.5,7c-0.2,2.7,0.7,5.4,2.5,7.4c1.9,2.3,4.8,3.6,7.8,3.6c2.4,0,4.8-0.9,6.7-2.5
		c4.3-3.7,4.8-10.2,1.1-14.4C80.1,57.7,77.3,56.4,74.3,56.4z"/>
	<path fill="#FFFFFF" d="M118.6,65.5c-2.5,0.4-4,2.6-3.7,5.1l0.3,2.1c-0.4,0-0.8,0.1-1.2,0.1l-1.1-3.7c-0.8-2.7-3.5-4.3-6.2-3.4
		c-2.7,0.8-4,3.6-3.2,6.3l1.1,3.4c-0.2,0.1-0.5,0.2-0.7,0.3l-3.3-4.3c-1.7-2.2-4.8-2.7-7-1c-2.2,1.7-2.5,4.8-0.7,7l2.3,2.9
		c-0.3,0.2-0.6,0.5-0.8,0.7L78.2,63.4c-1.9-2.1-5-2.3-7.1-0.4c-2,1.9-2.1,5-0.2,7l19.4,21.1c0.3,2.2,1.1,4.4,2.2,6.6l-11.2,0.5
		c-2.8,0.1-5,2.3-4.9,5.1c0.1,2.8,2.4,4.8,5.2,4.7l18.1-0.7c1.5,1.5,3,2.9,4.6,4.2c10.1,8.2,17.1,5.1,24.6-1.4
		c6.3-5.4,13.9-9.2,4.4-23.7c-3.2-5-5.9-8.7-9-11.1l-0.9-5.9C123.2,66.9,121,65.1,118.6,65.5z"/>
	<path fill="#515254" d="M115.9,117.4C115.9,117.4,115.9,117.4,115.9,117.4c-3.9,0-7.9-1.7-12.2-5.2c-1.5-1.2-3-2.6-4.3-3.9
		L81.7,109c-3.5,0.1-6.2-2.4-6.3-5.7c-0.1-1.6,0.5-3.2,1.7-4.3c1.1-1.1,2.6-1.8,4.3-1.9l9.6-0.4c-0.8-1.8-1.3-3.5-1.5-5.1L70.2,70.7
		c-2.3-2.5-2.2-6.2,0.2-8.5c1.1-1,2.5-1.6,4-1.6c1.7,0,3.4,0.7,4.6,2l11.8,12.9c-0.2-0.7-0.2-1.4-0.2-2.1c0.2-1.6,1-3,2.3-4
		c1-0.8,2.3-1.3,3.6-1.3c1.9,0,3.7,0.9,4.9,2.5l1,1.3c-0.4-1.5-0.2-3,0.4-4.3c0.7-1.4,2-2.5,3.5-3c0.6-0.2,1.2-0.3,1.8-0.3
		c2.6,0,4.9,1.8,5.8,4.4c0.4-2.2,2.2-4,4.5-4.4c0.3,0,0.5-0.1,0.8-0.1c2.7,0,5,2,5.4,4.8l0.8,5.5c3.2,2.5,5.9,6.5,8.9,11.1
		c9.1,13.8,3,18.7-2.8,23.5c-0.6,0.5-1.2,1-1.8,1.5C126,114.1,121.4,117.4,115.9,117.4z M100.3,106.1l0.3,0.3
		c1.4,1.4,2.9,2.8,4.5,4.1c3.9,3.2,7.4,4.7,10.8,4.7c3.8,0,7.5-1.8,12.4-6.1c0.6-0.5,1.3-1.1,1.9-1.6c5.8-4.7,10.3-8.5,2.3-20.7
		c-3-4.5-5.7-8.5-8.7-10.8l-0.3-0.3l-1-6.4c-0.3-1.8-1.7-3-3.3-3c-0.2,0-0.3,0-0.5,0c-1.9,0.3-3.1,2-2.8,3.9l0.5,3.2l-1.2,0.1
		c-0.4,0-0.7,0.1-1.1,0.1l-0.9,0.1l-1.4-4.5c-0.5-1.7-2-2.9-3.7-2.9c-0.4,0-0.8,0.1-1.1,0.2c-1,0.3-1.8,1-2.3,1.9
		c-0.5,0.9-0.5,2-0.2,3l1.4,4.4l-0.9,0.4c-0.2,0.1-0.4,0.2-0.7,0.3l-0.7,0.3L99.7,72c-0.8-1-2-1.6-3.2-1.6c-0.8,0-1.6,0.3-2.3,0.8
		c-0.8,0.6-1.3,1.6-1.4,2.6c-0.1,1,0.2,2,0.9,2.9l2.9,3.8L95.8,81c-0.2,0.2-0.5,0.4-0.8,0.7l-0.8,0.7L77.4,64.1
		c-0.8-0.9-1.9-1.4-3-1.4c-0.9,0-1.8,0.3-2.5,1c-1.6,1.5-1.6,3.8-0.1,5.5l19.6,21.4l0,0.3c0.2,1.9,0.9,4,2.1,6.2l0.8,1.5l-12.9,0.5
		c-1.1,0-2.1,0.5-2.8,1.2c-0.7,0.7-1.1,1.7-1.1,2.8c0.1,2.1,1.9,3.7,4.1,3.7L100.3,106.1z"/>
</g>
<polygon fill="#515254" points="108.4,152.2 100.4,155.3 79.2,147.2 87.2,144.2 "/>
<path fill="#FFFFFF" d="M100.4,156c-0.1,0-0.2,0-0.3,0l-21.2-8.1c-0.3-0.1-0.5-0.4-0.5-0.7c0-0.3,0.2-0.6,0.5-0.7l8-3
	c0.2-0.1,0.3-0.1,0.5,0l21.2,8c0.3,0.1,0.5,0.4,0.5,0.7c0,0.3-0.2,0.6-0.5,0.7l-8,3.1C100.5,156,100.5,156,100.4,156z M81.2,147.3
	l19.2,7.3l6-2.3L87.2,145L81.2,147.3z"/>
<polygon fill="#FFCD03" points="87.1,144.2 79.1,147.3 74.3,145.4 82.3,142.4 "/>
<path fill="#FFFFFF" d="M79.1,148c-0.1,0-0.2,0-0.3,0l-4.9-1.8c-0.3-0.1-0.5-0.4-0.5-0.7c0-0.3,0.2-0.6,0.5-0.7l8-3.1
	c0.2-0.1,0.3-0.1,0.5,0l4.9,1.9c0.3,0.1,0.5,0.4,0.5,0.7c0,0.3-0.2,0.6-0.5,0.7l-8,3.1C79.3,148,79.2,148,79.1,148z M76.3,145.4
	l2.8,1.1l6-2.3l-2.8-1.1L76.3,145.4z"/>
<polygon fill="#515254" points="111.4,156.4 100.5,155.3 108.3,152.3 "/>
<path fill="#FFFFFF" d="M111.4,157.2C111.4,157.2,111.4,157.2,111.4,157.2l-11-1.2c-0.3,0-0.6-0.3-0.6-0.6s0.1-0.6,0.5-0.8l7.8-3
	c0.3-0.1,0.6,0,0.8,0.2l3.1,4.1c0.2,0.2,0.2,0.5,0.1,0.8C111.9,157,111.7,157.2,111.4,157.2z M103.6,154.9l6.3,0.7l-1.8-2.4
	L103.6,154.9z"/>
<polygon fill="#515254" points="90.9,155.3 82.8,152.3 104,144.2 112.1,147.3 "/>
<path fill="#FFFFFF" d="M90.9,156c-0.1,0-0.2,0-0.3,0l-8-3.1c-0.3-0.1-0.5-0.4-0.5-0.7c0-0.3,0.2-0.6,0.5-0.7l21.2-8
	c0.2-0.1,0.3-0.1,0.5,0l8,3c0.3,0.1,0.5,0.4,0.5,0.7c0,0.3-0.2,0.6-0.5,0.7L91.1,156C91.1,156,91,156,90.9,156z M84.9,152.3l6,2.3
	l19.2-7.3l-6-2.3L84.9,152.3z"/>
<polygon fill="#FFCD03" points="112,147.2 104,144.2 108.9,142.3 116.9,145.4 "/>
<path fill="#FFFFFF" d="M112,148c-0.1,0-0.2,0-0.3,0l-8-3c-0.3-0.1-0.5-0.4-0.5-0.7s0.2-0.6,0.5-0.7l4.9-1.9c0.2-0.1,0.3-0.1,0.5,0
	l8,3c0.3,0.1,0.5,0.4,0.5,0.7c0,0.3-0.2,0.6-0.5,0.7l-4.9,1.8C112.2,147.9,112.1,148,112,148z M106,144.2l6,2.3l2.8-1.1l-6-2.3
	L106,144.2z"/>
<polygon fill="#515254" points="79.9,156.5 83,152.3 90.8,155.3 "/>
<path fill="#FFFFFF" d="M79.9,157.2c-0.3,0-0.5-0.1-0.6-0.4c-0.1-0.2-0.1-0.6,0-0.8l3.1-4.2c0.2-0.3,0.5-0.4,0.8-0.2l7.8,3
	c0.3,0.1,0.5,0.4,0.5,0.8c0,0.3-0.3,0.6-0.6,0.6L79.9,157.2C79.9,157.2,79.9,157.2,79.9,157.2z M83.2,153.2l-1.8,2.4l6.3-0.7
	L83.2,153.2z"/>
<path fill="#FFCD03" d="M86.8,125.1L86.8,125.1c-2.5-1.8-1.5-4-0.8-5c-1,1.3-3.3,4.7-2.6,7.1h0c0.2,1,1.1,1.9,2.2,1.9
	c1.2,0,2.2-1,2.2-2.2C87.6,126.1,87.3,125.5,86.8,125.1z"/>
<path fill="#FFFFFF" d="M85.5,129.8c-1.4,0-2.6-1-2.9-2.4c-0.7-2.5,1.4-5.9,2.7-7.7c0.2-0.3,0.7-0.4,1-0.2c0.3,0.2,0.4,0.7,0.2,1
	c-0.7,1-1.2,2.6,0.7,4c0.7,0.5,1.2,1.4,1.2,2.3C88.4,128.5,87.1,129.8,85.5,129.8z M84,126.9c0,0,0,0.1,0,0.1
	c0.1,0.7,0.7,1.2,1.4,1.2c0.8,0,1.5-0.7,1.5-1.5c0-0.5-0.2-0.9-0.6-1.2c-0.8-0.6-1.4-1.4-1.7-2.1C84.1,124.7,83.7,126,84,126.9z"/>
<path fill="#FFCD03" d="M107.9,118.2L107.9,118.2c2.5-1.8,1.5-4,0.8-5c1,1.3,3.3,4.7,2.6,7l0,0c-0.2,1.1-1.1,1.9-2.2,1.9
	c-1.2,0-2.2-1-2.2-2.2C107,119.2,107.4,118.6,107.9,118.2z"/>
<path fill="#FFFFFF" d="M109.2,122.8c-1.6,0-2.9-1.3-2.9-2.9c0-0.9,0.4-1.8,1.2-2.3c1.5-1.1,1.7-2.4,0.7-4c-0.2-0.3-0.1-0.8,0.2-1
	c0.3-0.2,0.8-0.2,1,0.2c1.3,1.8,3.5,5.2,2.7,7.6C111.8,121.8,110.6,122.8,109.2,122.8z M110,116.6c-0.3,0.8-0.8,1.5-1.7,2.1
	c-0.4,0.3-0.6,0.7-0.6,1.2c0,0.8,0.7,1.5,1.5,1.5c0.7,0,1.3-0.5,1.4-1.3c0,0,0-0.1,0-0.1C110.9,119.2,110.7,118,110,116.6z"/>
<path fill="#FFCD03" d="M106.9,127.2c-1.5-2.3-3.3-4.3-5.2-6.1c1.3-2.3,2.1-4.3,2.1-4.3c3.3-7.9-0.3-17-8.2-20.3
	c5.1,2.2,7.6,8.3,5.3,13.1c-0.8,1.7-2.7,4.1-4.9,6.5c-1.5-1.3-2.7-2.4-3.5-3.3c-2.6-3.2-0.4-7.8-0.4-7.8s-3.4,1.3-4.1,6.4
	c-0.3,2,1.4,5.7,3.7,9.5c-2.4,2.5-4.5,4.6-5.2,5.5c-1.8,2.3-3.7,5.6-3.7,9.2c0,7.3,6,13.3,13.3,13.3c7.3,0,13.3-5.9,13.3-13.3
	C109.3,132.7,108.3,129.8,106.9,127.2z M96,139.8c-3.8-3.8-1.8-8.2,0.7-11.5C99.1,132.2,99.9,135.9,96,139.8z"/>
<path fill="#FFFFFF" d="M96,149.5c-7.7,0-14-6.3-14-14c0-3,1.3-6.3,3.8-9.6c0.6-0.8,2-2.2,3.8-4.1c0.3-0.4,0.7-0.7,1.1-1.1
	c-2.6-4.4-3.8-7.6-3.5-9.5c0.8-5.4,4.4-6.9,4.6-7c0.3-0.1,0.6,0,0.8,0.2c0.2,0.2,0.3,0.5,0.1,0.8c0,0-2,4.2,0.3,7.1
	c0.7,0.8,1.7,1.7,2.9,2.8c2.3-2.6,3.7-4.5,4.3-5.8c1-2,1.1-4.4,0.2-6.6c-0.9-2.5-2.8-4.4-5.1-5.4c-0.4-0.2-0.5-0.6-0.4-0.9
	c0.2-0.4,0.6-0.5,0.9-0.4l0,0c0,0,0,0,0,0c8.2,3.5,12.1,13,8.6,21.3c0,0.1-0.7,1.7-1.9,3.9c2,2,3.7,3.9,4.9,5.9c0,0,0,0,0,0.1
	c1.6,3.1,2.4,6,2.4,8.6C110,143.2,103.7,149.5,96,149.5z M90.7,106.7c-0.8,0.9-1.7,2.3-2.1,4.6c-0.2,1.6,1,4.8,3.6,9
	c0.2,0.3,0.1,0.6-0.1,0.9c-0.5,0.5-1,1-1.4,1.5c-1.7,1.8-3.1,3.3-3.7,4c-2.4,3.1-3.6,6-3.6,8.7c0,6.9,5.6,12.6,12.6,12.6
	c6.9,0,12.6-5.6,12.6-12.6c0-2.4-0.8-5.1-2.3-7.9c-1.3-2-2.9-4-5.1-6c-0.2-0.2-0.3-0.6-0.1-0.9c1.2-2.3,2-4.2,2.1-4.2
	c1.9-4.6,1.4-9.6-1.1-13.6c0.7,2.4,0.5,4.8-0.5,6.9c-0.8,1.6-2.3,3.7-5,6.7c-0.3,0.3-0.7,0.3-1,0.1c-1.5-1.3-2.8-2.4-3.6-3.4
	C90.2,111,90.3,108.5,90.7,106.7z M96,140.5C96,140.5,96,140.5,96,140.5c-0.2,0-0.4-0.1-0.5-0.2c-3.3-3.3-3.1-7.5,0.6-12.5
	c0.1-0.2,0.4-0.3,0.6-0.3c0.2,0,0.5,0.1,0.6,0.3c2.2,3.6,3.8,7.8-0.8,12.4C96.4,140.4,96.2,140.5,96,140.5z M96.6,129.6
	c-2.5,3.7-2.6,6.7-0.6,9.1C98.8,135.6,98.4,132.7,96.6,129.6z"/>
<path fill="#FFCD03" d="M92.7,98.3L92.7,98.3c-2.5-1.9-1.5-4-0.8-5c-1,1.3-3.3,4.7-2.6,7l0,0c0.2,1.1,1.1,1.9,2.2,1.9
	c1.2,0,2.2-1,2.2-2.2C93.6,99.3,93.2,98.6,92.7,98.3z"/>
<path fill="#FFFFFF" d="M91.4,102.9c-1.4,0-2.6-1-2.9-2.4c-0.7-2.5,1.4-5.9,2.7-7.6c0.2-0.3,0.7-0.4,1-0.2c0.3,0.2,0.4,0.7,0.2,1
	c-1,1.5-0.8,2.9,0.7,4c0.7,0.5,1.2,1.4,1.2,2.3C94.3,101.6,93,102.9,91.4,102.9z M90.6,96.7c-0.6,1.2-1,2.5-0.7,3.4c0,0,0,0.1,0,0.1
	c0.1,0.7,0.7,1.2,1.4,1.2c0.8,0,1.5-0.7,1.5-1.5c0-0.5-0.2-0.9-0.6-1.2C91.4,98.2,90.9,97.5,90.6,96.7z"/>
</svg>
