<?xml version="1.0" encoding="UTF-8" standalone="no"?>
<svg width="270px" height="270px" viewBox="0 0 270 270" version="1.1" xmlns="http://www.w3.org/2000/svg" xmlns:xlink="http://www.w3.org/1999/xlink">
    <!-- Generator: Sketch 43.2 (39069) - http://www.bohemiancoding.com/sketch -->
    <title>prototypes-process-play-alt-2017</title>
    <desc>Created with Sketch.</desc>
    <defs></defs>
    <g id="Page-1" stroke="none" stroke-width="1" fill="none" fill-rule="evenodd">
        <g id="prototypes-process-play-alt-2017" fill-rule="nonzero">
            <g id="2017-Prototypes-Process-Play_Chicago-Camps_K" transform="translate(37.000000, 0.000000)">
                <path d="M1.90227273,102.170455 C1.61208307,102.172099 1.33330291,102.057548 1.12810454,101.85235 C0.922906175,101.647152 0.808355826,101.368371 0.81,101.078182 L0.81,98.11125 C0.81,95.7395455 2.21522727,94.3067045 4.24636364,94.3067045 L4.27397727,94.3067045 C6.57511364,94.3067045 7.76556818,96.0954545 7.76556818,98.3260227 L7.76556818,99.9859091 L9.73840909,99.9859091 C10.3425019,99.9859091 10.8322159,100.475623 10.8322159,101.079716 C10.8322159,101.683809 10.3425019,102.173523 9.73840909,102.173523 L1.90227273,102.170455 Z M5.82954545,98.2646591 C5.82954545,97.1723864 5.17602273,96.5311364 4.32306818,96.5311364 L4.29545455,96.5311364 C3.31670455,96.5311364 2.78897727,97.2122727 2.78897727,98.3076136 L2.78897727,99.9981818 L5.82954545,99.9981818 L5.82954545,98.2646591 Z" id="Shape" fill="#FFFFFF"></path>
                <path d="M1.90227273,93.0211364 C1.61208307,93.0227805 1.33330291,92.9082302 1.12810454,92.7030318 C0.922906175,92.4978335 0.808355826,92.2190533 0.81,91.9288636 L0.81,88.4771591 C0.81,87.2130682 1.16590909,86.2343182 1.81943182,85.5807955 C2.43026732,85.0019451 3.24901369,84.694362 4.08988636,84.7278409 L4.1175,84.7278409 C5.67920455,84.7278409 6.64568182,85.5102273 7.14272727,86.7160227 L8.98363636,85.1819318 C9.20946116,84.9641581 9.50773391,84.8374195 9.82125,84.8260227 C10.0930297,84.8284341 10.3525754,84.9393577 10.5421498,85.134118 C10.7317241,85.3288783 10.8356044,85.5913224 10.8306818,85.8630682 C10.8308814,86.2945771 10.6185857,86.6985128 10.2630682,86.9430682 L7.56613636,89.0723864 L7.56613636,90.8181818 L9.73840909,90.8181818 C10.3425019,90.8181818 10.8322159,91.3078958 10.8322159,91.9119886 C10.8322159,92.5160815 10.3425019,93.0057955 9.73840909,93.0057955 L1.90227273,93.0211364 Z M5.63625,88.6182955 C5.63625,87.5536364 5.06863636,86.9430682 4.23102273,86.9430682 L4.20340909,86.9430682 C3.26761364,86.9430682 2.78284091,87.5965909 2.78284091,88.66125 L2.78284091,90.8181818 L5.63625,90.8181818 L5.63625,88.6182955 Z" id="Shape" fill="#FFFFFF"></path>
                <path d="M5.80806818,83.5926136 L5.78045455,83.5926136 C2.95465909,83.5926136 0.64125,81.3620455 0.64125,78.2969318 C0.64125,75.2318182 2.92397727,73.0227273 5.74977273,73.0227273 L5.77738636,73.0227273 C8.60318182,73.0227273 10.9165909,75.2532955 10.9165909,78.3184091 C10.9165909,81.3835227 8.63386364,83.5926136 5.80806818,83.5926136 Z M5.80806818,75.3085227 L5.78045455,75.3085227 C4.07761364,75.3085227 2.65704545,76.5572727 2.65704545,78.3184091 C2.65704545,80.0795455 4.05,81.3006818 5.75284091,81.3006818 L5.78045455,81.3006818 C7.48329545,81.3006818 8.90386364,80.0519318 8.90386364,78.2907955 C8.90386364,76.5296591 7.51090909,75.3146591 5.80806818,75.3146591 L5.80806818,75.3085227 Z" id="Shape" fill="#FFFFFF"></path>
                <path d="M2.82579545,69.6477273 L2.82579545,71.7494318 C2.79626268,72.2844971 2.35377745,72.703233 1.81789773,72.703233 C1.28201801,72.703233 0.839532778,72.2844971 0.81,71.7494318 L0.81,65.3522727 C0.839532778,64.8172074 1.28201801,64.3984715 1.81789773,64.3984715 C2.35377745,64.3984715 2.79626268,64.8172074 2.82579545,65.3522727 L2.82579545,67.4539773 L9.74147727,67.4539773 C10.3455701,67.4539773 10.8352841,67.9436913 10.8352841,68.5477841 C10.8352841,69.1518769 10.3455701,69.6415909 9.74147727,69.6415909 L2.82579545,69.6477273 Z" id="Shape" fill="#FFFFFF"></path>
                <path d="M5.84795455,64.125 L5.82954545,64.125 C3.00375,64.1556818 0.665795455,61.9496591 0.632045455,58.8814773 C0.598295455,55.8132955 2.86261364,53.5888636 5.68840909,53.5581818 L5.71602273,53.5581818 C8.54181818,53.5275 10.8797727,55.7335227 10.9135227,58.8017045 C10.9472727,61.8698864 8.67375,64.09125 5.84795455,64.125 Z M5.76204545,55.8409091 L5.73443182,55.8409091 C4.03159091,55.8593182 2.62329545,57.1234091 2.64170455,58.8845455 C2.66011364,60.6456818 4.06534091,61.8514773 5.76818182,61.8330682 L5.79579545,61.8330682 C7.49863636,61.8146591 8.90693182,60.5505682 8.88852273,58.7894318 C8.87011364,57.0282955 7.46488636,55.8255682 5.76204545,55.8409091 L5.76204545,55.8409091 Z" id="Shape" fill="#FFFFFF"></path>
                <path d="M2.70613636,50.1310227 L2.70613636,52.2327273 C2.72674368,52.606084 2.53927348,52.9602455 2.21893571,53.1531279 C1.89859795,53.3460103 1.49787932,53.3460103 1.17754156,53.1531279 C0.857203797,52.9602455 0.66973359,52.606084 0.690340909,52.2327273 L0.733295455,45.8417045 C0.712688135,45.4683478 0.900158343,45.1141863 1.2204961,44.9213039 C1.54083387,44.7284215 1.9415525,44.7284215 2.26189026,44.9213039 C2.58222802,45.1141863 2.76969823,45.4683478 2.74909091,45.8417045 L2.74909091,47.9434091 L9.66477273,47.9894318 C10.2688656,47.9894318 10.7585795,48.4791458 10.7585795,49.0832386 C10.7585795,49.6873315 10.2688656,50.1770455 9.66477273,50.1770455 L2.70613636,50.1310227 Z" id="Shape" fill="#FFFFFF"></path>
                <path d="M7.20102273,40.5398864 L2.49136364,43.2061364 C2.24867921,43.3509301 1.96528691,43.4123497 1.68443182,43.3810227 C1.40067565,43.3445113 1.14344204,43.1956511 0.970403553,42.9678171 C0.79736507,42.7399831 0.722998577,42.4522364 0.763977273,42.1690909 C0.829808126,41.720166 1.13228974,41.3414777 1.55556818,41.1780682 L5.29568182,39.1960227 L2.10477273,36.3395455 C1.74482997,36.0847287 1.54552481,35.6593112 1.58011364,35.2196591 C1.60179747,34.9348098 1.74280473,34.6723757 1.96836462,34.4970701 C2.19392451,34.3217644 2.48304485,34.2499025 2.76443182,34.2992045 C3.03949885,34.3463658 3.29338132,34.4770564 3.49159091,34.6735227 L7.41886364,38.3522727 L10.2661364,38.6928409 C10.8659929,38.7648576 11.2938917,39.3095185 11.221875,39.909375 C11.1498583,40.5092315 10.6051975,40.9371303 10.0053409,40.8651136 L7.20102273,40.5398864 Z" id="Shape" fill="#FFFFFF"></path>
                <path d="M3.47011364,31.9428409 C3.19427726,31.8513431 2.96661368,31.6531198 2.83803201,31.3924969 C2.70945034,31.1318739 2.69067667,30.8305921 2.78590909,30.5560227 L3.73704545,27.7455682 C4.49795455,25.4996591 6.28977273,24.5945455 8.21045455,25.245 L8.23806818,25.245 C10.4164773,25.9844318 10.9718182,28.0585227 10.2569318,30.1694318 L9.72306818,31.7434091 L11.5915909,32.3754545 C11.9615435,32.5009644 12.2364351,32.8143076 12.3127166,33.1974509 C12.3889982,33.5805941 12.2550808,33.9753288 11.9614098,34.2329622 C11.6677388,34.4905956 11.2589299,34.5719871 10.8889773,34.4464773 L3.47011364,31.9428409 Z M8.4375,29.4882955 C8.78727273,28.4543182 8.37613636,27.6473864 7.56920455,27.3651136 L7.54159091,27.3651136 C6.62113636,27.0582955 5.89704545,27.5277273 5.54727273,28.5617045 L5.00420455,30.1632955 L7.88215909,31.1389773 L8.4375,29.4882955 Z" id="Shape" fill="#FFFFFF"></path>
                <path d="M13.8252273,26.1715909 L7.45568182,21.7503409 C7.21253863,21.5858827 7.04631393,21.3300128 6.99487258,21.0410164 C6.94343123,20.7520201 7.01115383,20.4545075 7.18261364,20.21625 L10.3244318,15.6906818 C10.6338064,15.2482387 11.2423604,15.1385893 11.6867045,15.4452273 C11.8982246,15.5935487 12.0418035,15.8201531 12.0855816,16.0747576 C12.1293598,16.3293621 12.0697165,16.5909096 11.9198864,16.8013636 L9.39170455,20.4402273 L11.0485227,21.5907955 L13.19625,18.4765909 C13.5056246,18.0341478 14.1141786,17.9244984 14.5585227,18.2311364 C14.7700427,18.3794578 14.9136217,18.6060622 14.9573998,18.8606667 C15.0011779,19.1152711 14.9415346,19.3768187 14.7917045,19.5872727 L12.6439773,22.7014773 L14.3590909,23.8919318 L16.9271591,20.2101136 C17.2365336,19.7676705 17.8450877,19.6580211 18.2894318,19.9646591 C18.5009518,20.1129806 18.6445307,20.3395849 18.6883089,20.5941894 C18.732087,20.8487939 18.6724437,21.1103414 18.5226136,21.3207955 L15.3409091,25.8985227 C15.1766225,26.1363535 14.9243103,26.2988871 14.639834,26.3501389 C14.3553577,26.4013907 14.0621862,26.3371325 13.8252273,26.1715909 L13.8252273,26.1715909 Z" id="Shape" fill="#FFFFFF"></path>
                <path d="M18.9582955,19.2467045 C18.6340292,19.2615992 18.3219796,19.1215186 18.1176136,18.8693182 C17.9466027,18.6606538 17.8665347,18.3920635 17.8953779,18.1238218 C17.9242211,17.85558 18.0595599,17.6101518 18.2710227,17.4426136 C18.444299,17.2981314 18.6594202,17.2131586 18.8846591,17.2002273 C19.8077578,17.1809379 20.6986532,16.8573681 21.4189773,16.2797727 C22.1123864,15.7121591 22.3056818,15.0985227 21.9375,14.6475 L21.9190909,14.6260227 C21.5693182,14.1964773 21.1244318,14.1934091 19.5688636,14.9144318 C17.6942045,15.7857955 16.3442045,16.1754545 15.0954545,14.6475 L15.0770455,14.6260227 C13.9356818,13.23 14.3007955,11.3890909 15.8747727,10.1035227 C16.7263377,9.3857268 17.7674049,8.92966052 18.8723864,8.79034091 C19.323047,8.73109801 19.7579567,8.97943965 19.935972,9.39766843 C20.1139874,9.81589721 19.9914748,10.3015006 19.6363636,10.5852273 C19.4853486,10.7096323 19.3025589,10.7893371 19.1086364,10.8153409 C18.3696481,10.8953573 17.6658811,11.1730485 17.0713636,11.6192045 C16.4239773,12.15 16.3257955,12.72375 16.6295455,13.0980682 L16.6479545,13.1195455 C17.0621591,13.6257955 17.5254545,13.5214773 19.13625,12.7728409 C21.0293182,11.9045455 22.3670455,11.745 23.4654545,13.0796591 L23.4838636,13.1011364 C24.7326136,14.6352273 24.2693182,16.4393182 22.6094318,17.7954545 C21.574109,18.6491389 20.297164,19.1566977 18.9582955,19.2467045 L18.9582955,19.2467045 Z" id="Shape" fill="#FFFFFF"></path>
                <path d="M26.7606818,16.3626136 C27.3044701,15.9734554 27.455724,15.230571 27.1073864,14.6597727 C26.558578,14.8121803 25.9758436,14.5768211 25.6868182,14.0860227 L25.6868182,14.0614773 C25.5306744,13.787948 25.4965777,13.4614182 25.5928447,13.1615319 C25.6891118,12.8616456 25.9068925,12.6159714 26.1930682,12.4844318 C26.89875,12.11625 27.5952273,12.4414773 28.0339773,13.3097727 L28.0615909,13.3588636 C28.5014231,14.0978761 28.6210798,14.9842224 28.3929545,15.8134091 C28.2070358,16.3800898 27.8164778,16.8570738 27.2976136,17.1511364 C27.1842399,17.2331179 27.0403635,17.2606397 26.9047368,17.2262888 C26.7691101,17.191938 26.6556807,17.099247 26.595,16.9731818 C26.4928884,16.7565796 26.5630861,16.4978883 26.7606818,16.3626136 Z" id="Shape" fill="#FFFFFF"></path>
                <path d="M31.4335227,3.39954545 C31.3769222,3.11496964 31.436537,2.81957752 31.5990759,2.5792275 C31.7616148,2.33887748 32.0135637,2.17355303 32.29875,2.12011364 L35.2135227,1.55863636 C37.5422727,1.10761364 39.2021591,2.21829545 39.6010227,4.21261364 L39.6010227,4.24022727 C40.0367045,6.49840909 38.5056818,8.00795455 36.3180682,8.43136364 L34.6857955,8.73818182 L35.0601136,10.6772727 C35.1341042,11.0609273 34.997797,11.4549121 34.7025376,11.7108171 C34.4072783,11.966722 33.9979238,12.0456689 33.628674,11.9179193 C33.2594242,11.7901697 32.9863769,11.4751318 32.9123864,11.0914773 L31.4335227,3.39954545 Z M36.0357955,6.50454545 C37.1096591,6.29590909 37.6128409,5.535 37.4502273,4.69738636 L37.4502273,4.66977273 C37.2630682,3.70636364 36.4960227,3.31977273 35.4221591,3.52840909 L33.7622727,3.83522727 L34.3390909,6.8175 L36.0357955,6.50454545 Z" id="Shape" fill="#FFFFFF"></path>
                <path d="M41.4603409,1.76420455 C41.4479017,1.47402277 41.5522047,1.19094771 41.7499511,0.978211806 C41.9476975,0.765475902 42.2224111,0.640804189 42.5127273,0.632045455 L45.9613636,0.50625 C47.2254545,0.460227273 48.2164773,0.779318182 48.8914773,1.40829545 C49.4872922,2.00053913 49.81913,2.8080109 49.8119318,3.64806818 L49.8119318,3.68181818 C49.8671591,5.24352273 49.1215909,6.23454545 47.9342045,6.77761364 L49.5204545,8.56636364 C49.7464973,8.78452682 49.8841433,9.07839002 49.9070455,9.39170455 C49.9144574,9.66345153 49.8129398,9.92688734 49.6250846,10.1233862 C49.4372294,10.319885 49.1786236,10.4331427 48.9068182,10.4379545 C48.4760616,10.4539305 48.0651256,10.2564975 47.8084091,9.91022727 L45.5809091,7.29 L43.8351136,7.35443182 L43.9148864,9.52670455 C43.9291364,9.91693601 43.7341179,10.285127 43.4032926,10.4925837 C43.0724673,10.7000403 42.6560952,10.7152449 42.3110199,10.53247 C41.9659445,10.3496952 41.7445909,9.99670873 41.7303409,9.60647727 L41.4603409,1.76420455 Z M45.9951136,5.33556818 C47.0597727,5.29568182 47.6488636,4.72193182 47.6181818,3.86897727 L47.6181818,3.84136364 C47.5844318,2.90556818 46.9125,2.44534091 45.8509091,2.48522727 L43.6786364,2.565 L43.7829545,5.41840909 L45.9951136,5.33556818 Z" id="Shape" fill="#FFFFFF"></path>
                <path d="M51.1435227,5.44295455 L51.1435227,5.41534091 C51.1772727,2.58954545 53.4354545,0.30375 56.5036364,0.340568182 C59.5718182,0.377386364 61.7440909,2.69079545 61.7195455,5.51659091 L61.7195455,5.54420455 C61.6857955,8.37 59.4276136,10.6557955 56.3594318,10.6189773 C53.29125,10.5821591 51.1067045,8.26875 51.1435227,5.44295455 Z M59.4276136,5.54420455 L59.4276136,5.52272727 C59.4490909,3.81988636 58.2156818,2.38397727 56.4545455,2.3625 C54.6934091,2.34102273 53.4569318,3.71863636 53.4354545,5.43068182 L53.4354545,5.45829545 C53.4139773,7.16113636 54.6473864,8.59704545 56.4085227,8.61852273 C58.1696591,8.64 59.4,7.24704545 59.4214773,5.54420455 L59.4276136,5.54420455 Z" id="Shape" fill="#FFFFFF"></path>
                <path d="M62.6798864,5.52272727 L62.6798864,5.52272727 C62.6354356,4.14492371 63.1557938,2.80876647 64.1203641,1.82391994 C65.0849344,0.839073406 66.409979,0.291035536 67.7884091,0.306818182 C68.9777624,0.239841305 70.1546472,0.578412025 71.1265909,1.26715909 C71.3982199,1.46993077 71.5603152,1.78732021 71.5653409,2.12625 C71.5686154,2.41101819 71.4579918,2.68529431 71.2580625,2.8881044 C71.0581332,3.0909145 70.7854677,3.20545047 70.5006818,3.20625 C70.2662722,3.20739897 70.0371336,3.13673005 69.8440909,3.00375 C69.2602257,2.55315637 68.5412072,2.31312315 67.80375,2.32261364 C66.1285227,2.34715909 64.9411364,3.75545455 64.9656818,5.45829545 L64.9656818,5.48590909 C64.9902273,7.18875 66.1929545,8.59397727 67.8927273,8.55409091 C68.684733,8.55900602 69.4502619,8.26919866 70.0404545,7.74102273 C70.3144935,7.503705 70.6943234,7.43061241 71.0368661,7.54927824 C71.3794087,7.66794406 71.6326237,7.96034014 71.7011274,8.31632369 C71.7696311,8.67230725 71.6430162,9.03779591 71.3689773,9.27511364 C69.848396,10.6097776 67.6950651,10.9492401 65.8376275,10.1471052 C63.9801898,9.34497019 62.7508947,7.54471961 62.6798864,5.52272727 Z" id="Shape" fill="#FFFFFF"></path>
                <path d="M73.3019318,9.20454545 L73.1669318,1.45431818 C73.1603548,1.1641443 73.2701928,0.883409424 73.4719417,0.674743396 C73.6736907,0.466077368 73.9505647,0.34684148 74.2407955,0.343636364 L79.7635227,0.248522727 C80.3046147,0.239973238 80.7506026,0.670866161 80.7606818,1.21193182 C80.7639555,1.4701307 80.6640963,1.71896859 80.4832435,1.90327717 C80.3023907,2.08758574 80.0554873,2.19213645 79.7972727,2.19375 L75.3698864,2.27045455 L75.4036364,4.28625 L79.1928409,4.21875 C79.7339329,4.21020051 80.1799208,4.64109343 80.19,5.18215909 C80.1932736,5.44035798 80.0934145,5.68919587 79.9125617,5.87350444 C79.7317089,6.05781301 79.4848055,6.16236372 79.2265909,6.16397727 L75.4373864,6.23147727 L75.4742045,8.31784091 L79.9752273,8.23806818 C80.5163193,8.22951869 80.9623072,8.66041162 80.9723864,9.20147727 C80.97566,9.45967616 80.8758009,9.70851405 80.6949481,9.89282262 C80.5140953,10.0771312 80.2671919,10.1816819 80.0089773,10.1832955 L74.4310227,10.2814773 C74.1371846,10.2931158 73.851185,10.1851102 73.6383901,9.98214552 C73.4255952,9.77918084 73.3041935,9.49860533 73.3019318,9.20454545 Z" id="Shape" fill="#FFFFFF"></path>
                <path d="M82.2548864,9.10636364 C81.9929878,8.91419137 81.8380794,8.60893056 81.8376136,8.28409091 C81.8351317,8.01399227 81.9413316,7.75423397 82.1323282,7.56323733 C82.3233249,7.37224068 82.5830832,7.26604081 82.8531818,7.26852273 C83.073226,7.26821472 83.2878318,7.33688858 83.4668182,7.46488636 C84.1961177,8.02941619 85.0911559,8.33782692 86.0134091,8.34238636 C86.9093182,8.34238636 87.44625,7.97727273 87.4401136,7.39738636 L87.4401136,7.36363636 C87.4401136,6.81136364 87.0934091,6.52909091 85.4304545,6.11181818 C83.4238636,5.61477273 82.1290909,5.06863636 82.1168182,3.09272727 L82.1168182,3.06818182 C82.1168182,1.26409091 83.5465909,0.0644318182 85.5777273,0.0490909091 C86.6909531,0.0248916826 87.7874111,0.323247615 88.7348864,0.908181818 C89.1231709,1.1441721 89.3066934,1.60992879 89.1837563,2.0473562 C89.0608192,2.48478361 88.6615329,2.78674436 88.2071591,2.78590909 C88.0113578,2.78758916 87.8189925,2.73444957 87.6518182,2.6325 C87.0257979,2.23040975 86.3029038,2.00463782 85.5593182,1.97897727 C84.7217045,1.97897727 84.2829545,2.37170455 84.2860227,2.85340909 L84.2860227,2.88102273 C84.2860227,3.53454545 84.7186364,3.74318182 86.43375,4.17272727 C88.4526136,4.68511364 89.5939773,5.4 89.6031818,7.13352273 L89.6031818,7.16113636 C89.6031818,9.13397727 88.1181818,10.2507955 85.9735227,10.2661364 C84.6437359,10.2742858 83.3442768,9.869009 82.2548864,9.10636364 L82.2548864,9.10636364 Z" id="Shape" fill="#FFFFFF"></path>
                <path d="M90.9869318,9.06034091 C90.7293423,8.8623608 90.581264,8.55367467 90.5880682,8.22886364 C90.5920343,7.95867886 90.7044876,7.70143971 90.9001185,7.51504208 C91.0957495,7.32864445 91.3581209,7.22874975 91.6281818,7.23784091 C91.8495826,7.24109926 92.064315,7.31410828 92.2418182,7.44647727 C92.957664,8.02768947 93.8452029,8.3566073 94.7669318,8.38227273 C95.6628409,8.38227273 96.2059091,8.05090909 96.2181818,7.46181818 L96.2181818,7.43420455 C96.2181818,6.87886364 95.8898864,6.59045455 94.2361364,6.13636364 C92.2418182,5.59022727 90.9593182,5.01647727 90.9930682,3.04363636 L90.9930682,3.01602273 C91.02375,1.21193182 92.4903409,0.0429545455 94.5214773,0.0797727273 C95.6346002,0.0774786962 96.7246363,0.397137378 97.6602273,1.00022727 C97.9609466,1.18760266 98.1396499,1.52048143 98.1296591,1.87465909 C98.125693,2.14484387 98.0132397,2.40208301 97.8176087,2.58848064 C97.6219778,2.77487827 97.3596064,2.87477298 97.0895455,2.86568182 C96.8935951,2.86310837 96.7022809,2.8057141 96.5372727,2.7 C95.9207135,2.2831737 95.2031049,2.04043759 94.4601136,1.99738636 C93.6225,1.99738636 93.1745455,2.35943182 93.1684091,2.84113636 L93.1684091,2.86875 C93.1684091,3.52227273 93.5795455,3.74318182 95.2915909,4.21261364 C97.2981818,4.77102273 98.4242045,5.51659091 98.3935227,7.24704545 L98.3935227,7.27465909 C98.3597727,9.2475 96.8348864,10.3428409 94.6932955,10.29375 C93.359669,10.277863 92.064147,9.84673728 90.9869318,9.06034091 Z" id="Shape" fill="#FFFFFF"></path>
                <path d="M110.273523,10.7723864 L109.500341,9.87340909 C108.638139,10.5438784 107.558407,10.871732 106.468977,10.7938636 C104.572841,10.6496591 103.225909,9.43772727 103.357841,7.68272727 L103.357841,7.67045455 C103.452955,6.40943182 104.198523,5.56875 105.487159,5.09625 C105.084074,4.49784298 104.892895,3.78173094 104.944091,3.06204545 L104.944091,3.03443182 C105.045341,1.67522727 106.229659,0.512386364 108.141136,0.656590909 C109.825568,0.782386364 110.847273,1.96977273 110.742955,3.35965909 L110.742955,3.375 C110.641705,4.70659091 109.733523,5.42147727 108.481705,5.81113636 L109.6875,7.19795455 C109.939091,6.87579545 110.178409,6.53829545 110.420795,6.17011364 C110.599642,5.87982077 110.924309,5.71217471 111.264545,5.73443182 C111.762302,5.77838372 112.134077,6.21144132 112.102159,6.71011364 C112.089606,6.87047804 112.033367,7.02434052 111.939545,7.155 C111.632727,7.63056818 111.255341,8.11534091 110.877955,8.56943182 L111.715568,9.52977273 C111.906897,9.72414319 112.006232,9.99089708 111.988636,10.2630682 C111.978222,10.5176506 111.862747,10.7565272 111.669703,10.9228241 C111.476659,11.0891211 111.223319,11.1679593 110.97,11.1405682 C110.694397,11.1284131 110.438777,10.9932836 110.273523,10.7723864 L110.273523,10.7723864 Z M108.349773,8.54795455 L106.597841,6.49227273 C105.904432,6.79909091 105.600682,7.24397727 105.563864,7.73795455 L105.563864,7.76556818 C105.511705,8.45897727 106.057841,8.97136364 106.864773,9.02965909 C107.400227,9.04662874 107.925011,8.8774835 108.349773,8.55102273 L108.349773,8.54795455 Z M108.840682,3.35965909 L108.840682,3.33204545 C108.874282,3.08229481 108.798502,2.83019009 108.632766,2.64035829 C108.46703,2.45052648 108.227455,2.34142527 107.975455,2.34102273 C107.712898,2.31243241 107.450485,2.39612071 107.252958,2.57143994 C107.055432,2.74675917 106.941187,2.99738303 106.938409,3.26147727 L106.938409,3.28909091 C106.904659,3.72784091 107.051932,4.06534091 107.42625,4.56545455 C108.306818,4.31693182 108.791591,3.98863636 108.840682,3.375 L108.840682,3.35965909 Z" id="Shape" fill="#FFFFFF"></path>
                <path d="M118.689545,2.98534091 C118.736076,2.69898354 118.895234,2.44314259 119.131542,2.27484502 C119.36785,2.10654745 119.661667,2.0397824 119.9475,2.08943182 L122.874545,2.58034091 C125.2125,2.97306818 126.39375,4.59920455 126.05625,6.59965909 L126.05625,6.62727273 C125.675795,8.89465909 123.712159,9.77522727 121.515341,9.40704545 L119.876932,9.13090909 L119.548636,11.0761364 C119.511856,11.4848866 119.249055,11.8385239 118.868289,11.9916458 C118.487522,12.1447678 118.053057,12.0715294 117.74353,11.8020437 C117.434003,11.532558 117.301658,11.1123103 117.400909,10.7140909 L118.689545,2.98534091 Z M121.905,7.49863636 C122.981932,7.67965909 123.721364,7.14272727 123.8625,6.30204545 L123.8625,6.27443182 C124.025114,5.30795455 123.439091,4.67590909 122.362159,4.49488636 L120.696136,4.21568182 L120.192955,7.21329545 L121.905,7.49863636 Z" id="Shape" fill="#FFFFFF"></path>
                <path d="M128.231591,4.60227273 C128.379013,4.01681957 128.973126,3.66172548 129.55858,3.80914784 C130.144033,3.9565702 130.499127,4.55068318 130.351705,5.13613636 L128.658068,11.8677273 L132.582273,12.8556818 C132.938061,12.9315453 133.223994,13.1956915 133.32776,13.5443649 C133.431525,13.8930382 133.336548,14.2705439 133.080134,14.528599 C132.82372,14.786654 132.446828,14.8840385 132.0975,14.7825 L127.111705,13.5276136 C126.829602,13.458821 126.58679,13.2799349 126.437481,13.0308944 C126.288172,12.7818538 126.244799,12.4833971 126.317045,12.2021591 L128.231591,4.60227273 Z" id="Shape" fill="#FFFFFF"></path>
                <path d="M134.193068,13.8528409 L140.16375,7.71647727 C140.537283,7.29145126 141.136238,7.14446838 141.664091,7.34829545 L141.78375,7.39431818 C142.312919,7.58335023 142.666473,8.0842177 142.667386,8.64613636 L143.195114,17.1818182 C143.212332,17.3337197 143.196635,17.4875478 143.149091,17.6328409 C143.053879,17.8922244 142.859092,18.1028875 142.607948,18.2180912 C142.356804,18.3332948 142.070071,18.3435125 141.811364,18.2464773 C141.366371,18.080451 141.075627,17.6504947 141.087273,17.1756818 L141.004432,15.4789773 L136.902273,13.9448864 L135.675,15.2335227 C135.378843,15.5647942 134.909247,15.6794487 134.49375,15.5219318 C134.240286,15.4284086 134.03507,15.2369008 133.924275,14.9904968 C133.81348,14.7440927 133.806411,14.4634883 133.904659,14.2118182 C133.975765,14.0740391 134.073845,13.9519614 134.193068,13.8528409 L134.193068,13.8528409 Z M140.915455,13.4079545 L140.765114,9.85193182 L138.332045,12.4476136 L140.915455,13.4079545 Z" id="Shape" fill="#FFFFFF"></path>
                <path d="M146.867727,16.3840909 L145.996364,11.0454545 C145.944805,10.7669795 145.985751,10.4792832 146.112955,10.22625 C146.246367,9.97476224 146.474686,9.78696571 146.747188,9.70458119 C147.019691,9.62219667 147.31381,9.65204676 147.564205,9.7875 C147.963051,10.0045131 148.213994,10.4196247 148.220795,10.8736364 L148.785341,15.0709091 L152.568409,13.0673864 C152.931124,12.820431 153.396489,12.780875 153.795682,12.9630682 C154.057986,13.0800679 154.258257,13.3029645 154.346621,13.5762487 C154.434985,13.8495329 154.403126,14.1474868 154.258977,14.3959091 C154.116798,14.639299 153.902311,14.8323372 153.645341,14.9481818 L148.816023,17.3413636 L147.508977,19.8940909 C147.330852,20.2415723 146.980878,20.4676296 146.590888,20.4871093 C146.200898,20.5065889 145.830139,20.3165314 145.618274,19.9885297 C145.406409,19.660528 145.385625,19.2444132 145.56375,18.8969318 L146.867727,16.3840909 Z" id="Shape" fill="#FFFFFF"></path>
                <path d="M166.295455,34.0905682 L174.702273,32.4859091 C175.251535,32.3524398 175.825794,32.5752868 176.14125,33.0443182 L176.214886,33.1486364 C176.539042,33.608629 176.539042,34.2227346 176.214886,34.6827273 L171.75375,41.9880682 C171.677701,42.1235749 171.572991,42.2408497 171.446932,42.3317045 C171.220915,42.492645 170.939832,42.5563034 170.666528,42.5084464 C170.393224,42.4605894 170.150496,42.3052087 169.992614,42.0770455 C169.723817,41.6858829 169.732438,41.1673511 170.014091,40.7853409 L170.919205,39.3463636 L168.443182,35.7473864 L166.703523,36.1063636 C166.270108,36.2087319 165.818484,36.0329648 165.568295,35.6645455 C165.41403,35.442775 165.355404,35.1682943 165.405607,34.9028519 C165.455811,34.6374095 165.610627,34.4032971 165.835227,34.2531818 C165.975364,34.166943 166.132247,34.111511 166.295455,34.0905682 L166.295455,34.0905682 Z M172.060568,37.5790909 L173.975114,34.5784091 L170.492727,35.3147727 L172.060568,37.5790909 Z" id="Shape" fill="#FFFFFF"></path>
                <path d="M174.886364,41.1136364 L178.875,38.6590909 C179.207683,38.4546578 179.624159,38.4432383 179.967545,38.629134 C180.310931,38.8150296 180.529058,39.1699984 180.539761,39.5603272 C180.550463,39.9506559 180.352115,40.3170442 180.019432,40.5214773 L176.079886,42.9545455 C174.699205,43.8013636 174.410795,44.9304545 175.110341,46.06875 C175.809886,47.2070455 176.923636,47.4709091 178.2675,46.6455682 L182.256136,44.1910227 C182.58882,43.9865897 183.005295,43.9751701 183.348681,44.1610658 C183.692067,44.3469614 183.910195,44.7019303 183.920897,45.092259 C183.9316,45.4825877 183.733251,45.848976 183.400568,46.0534091 L179.488636,48.4527273 C176.923636,50.0297727 174.782045,49.3731818 173.382955,47.0904545 C171.983864,44.8077273 172.395,42.6477273 174.886364,41.1136364 Z" id="Shape" fill="#FFFFFF"></path>
                <path d="M180.884659,49.7290909 L180.909205,49.7290909 C182.163107,49.1560423 183.595537,49.1147888 184.88034,49.6147236 C186.165144,50.1146584 187.192964,51.1132292 187.729773,52.3830682 C188.343409,53.7576136 188.441591,54.8038636 188.236023,55.8746591 C188.16624,56.2153837 187.938363,56.502508 187.622386,56.6478409 C187.078439,56.8915198 186.439918,56.6484699 186.195682,56.1047727 C186.095207,55.8846359 186.072489,55.6368983 186.13125,55.4021591 C186.298408,54.6398044 186.204394,53.8433868 185.864318,53.1409091 C185.213864,51.6896591 183.409773,51.1097727 181.875682,51.8031818 L181.851136,51.8031818 C180.19125,52.5456818 179.485568,54.2331818 180.203523,55.8378409 C180.482653,56.5150268 180.967851,57.0871752 181.590341,57.4731818 L182.885114,56.8932955 L182.271477,55.5463636 C182.165725,55.3187322 182.155523,55.058234 182.243149,54.823029 C182.330774,54.5878241 182.50893,54.3974986 182.737841,54.2945455 C182.968107,54.1910406 183.230076,54.1833279 183.466033,54.2731065 C183.70199,54.3628851 183.892573,54.5427888 183.995795,54.7731818 L185.011364,57.0681818 C185.131933,57.3327787 185.141373,57.6346713 185.037572,57.9062845 C184.933771,58.1778977 184.725396,58.3965488 184.459091,58.5132955 L182.256136,59.50125 C181.747582,59.7685245 181.130256,59.7170806 180.672955,59.3693182 C179.655446,58.6828567 178.849102,57.7267174 178.344205,56.6079545 C177.089318,53.76375 178.203068,50.9318182 180.884659,49.7290909 Z" id="Shape" fill="#FFFFFF"></path>
                <path d="M184.78125,60.4615909 L189.257727,59.1238636 C189.829151,58.9749697 190.415449,59.3071811 190.581396,59.8738878 C190.747342,60.4405945 190.432844,61.0365821 189.871364,61.2194318 L185.450114,62.53875 C183.900682,63.0020455 183.326932,64.0176136 183.710455,65.3001136 C184.093977,66.5826136 185.100341,67.1226136 186.609886,66.6715909 L191.098636,65.3307955 C191.47711,65.2075431 191.892667,65.2999294 192.183269,65.5719299 C192.47387,65.8439304 192.593503,66.2524777 192.49552,66.638266 C192.397536,67.0240544 192.097449,67.3259997 191.712273,67.4263636 L187.327841,68.7272727 C184.44375,69.5894318 182.544545,68.3928409 181.780568,65.8339773 C181.016591,63.2751136 181.976932,61.2992045 184.78125,60.4615909 Z" id="Shape" fill="#FFFFFF"></path>
                <path d="M184.508182,71.2431818 C184.653479,70.9530947 184.927917,70.7492589 185.247614,70.6939773 C185.513177,70.6469911 185.786488,70.7085597 186.006254,70.864876 C186.226019,71.0211922 186.373849,71.2591749 186.416591,71.5254545 C186.45705,71.7462136 186.425873,71.9741257 186.327614,72.1759091 C185.891998,72.988852 185.736702,73.9227853 185.885795,74.8329545 C186.039205,75.7135227 186.484091,76.1829545 187.057841,76.0847727 L187.085455,76.0847727 C187.631591,75.9896591 187.8525,75.6030682 187.984432,73.8940909 C188.140909,71.8353409 188.463068,70.4669318 190.408295,70.1232955 L190.435909,70.1232955 C192.212386,69.8164773 193.636023,71.04375 193.988864,73.0319318 C194.197868,74.1253979 194.085982,75.2559835 193.666705,76.2872727 C193.498353,76.7091651 193.06963,76.9673028 192.617996,76.9187092 C192.166361,76.8701156 191.802364,76.5266852 191.727614,76.0786364 C191.693077,75.8856954 191.713272,75.686938 191.785909,75.5048864 C192.082008,74.8216579 192.188016,74.0711228 192.092727,73.3326136 C191.948523,72.5072727 191.479091,72.1390909 191.018864,72.225 L190.99125,72.225 C190.346932,72.3385227 190.211932,72.7926136 190.070795,74.5629545 C189.902045,76.6401136 189.383523,77.8827273 187.677614,78.1834091 L187.65,78.1834091 C185.704773,78.5239773 184.354773,77.2322727 183.983523,75.1152273 C183.751339,73.8013934 183.934743,72.4478545 184.508182,71.2431818 Z" id="Shape" fill="#FFFFFF"></path>
                <path d="M192.939545,81.6780682 L192.792273,79.5825 C192.767061,79.2235089 192.935284,78.8783373 193.233574,78.6770079 C193.531863,78.4756784 193.914902,78.448778 194.238403,78.6064397 C194.561904,78.7641013 194.77672,79.0823726 194.801932,79.4413636 L195.249886,85.8139773 C195.30055,86.186844 195.139609,86.5569387 194.83234,86.7741539 C194.525072,86.9913692 194.12249,87.0196421 193.787877,86.8475055 C193.453265,86.6753689 193.242176,86.3314015 193.240227,85.9551136 L193.092955,83.8595455 L186.195682,84.3443182 C185.593284,84.3866809 185.070601,83.9326824 185.028239,83.3302841 C184.985876,82.7278858 185.439874,82.2052037 186.042273,82.1628409 L192.939545,81.6780682 Z" id="Shape" fill="#FFFFFF"></path>
                <path d="M193.037727,94.365 L192.887386,93.58875 C192.862077,93.461502 192.85076,93.3318677 192.853636,93.2021591 C192.888143,92.6842561 193.329106,92.2882064 193.847727,92.3093182 C194.286777,92.3371395 194.652065,92.6570818 194.7375,93.0886364 L195.062727,94.5184091 C195.148403,94.8551727 195.188646,95.2018836 195.182386,95.5493182 L195.182386,95.5769318 C195.144595,96.1714541 194.632543,96.6231038 194.037955,96.5863636 L186.060682,96.0923864 C185.652429,96.1029792 185.273117,95.8823844 185.080434,95.5223067 C184.88775,95.162229 184.914654,94.7242617 185.14996,94.3904748 C185.385267,94.0566879 185.788726,93.8841776 186.192614,93.9446591 L193.037727,94.365 Z" id="Shape" fill="#FFFFFF"></path>
                <path d="M189.902045,98.2984091 L189.920455,98.2984091 C192.770795,98.7310227 194.734432,100.838864 194.335568,103.449886 C193.936705,106.060909 191.469886,107.466136 188.619545,107.033523 L188.591932,107.033523 C185.741591,106.600909 183.774886,104.505341 184.176818,101.882045 C184.57875,99.25875 187.051705,97.875 189.902045,98.2984091 Z M188.911023,104.812159 L188.938636,104.812159 C190.72125,105.082159 192.203182,104.419432 192.399545,103.127727 C192.595909,101.836023 191.417727,100.795909 189.619773,100.522841 L189.592159,100.522841 C187.794205,100.249773 186.330682,100.903295 186.13125,102.207273 C185.931818,103.51125 187.128409,104.542159 188.911023,104.812159 Z" id="Shape" fill="#FFFFFF"></path>
                <path d="M187.631591,108.613636 C188.168696,108.754905 188.491756,109.302465 188.355682,109.840909 L187.297159,113.936932 C187.225542,114.305203 186.955589,114.603375 186.596227,114.711135 C186.236866,114.818895 185.847386,114.718463 185.584944,114.450364 C185.322502,114.182265 185.230398,113.790732 185.345795,113.43375 L186.404318,109.337727 C186.545587,108.800623 187.093147,108.477563 187.631591,108.613636 Z" id="Shape" fill="#FFFFFF"></path>
                <path d="M188.585795,118.066705 L188.637955,117.275114 C188.642861,117.147709 188.661376,117.021195 188.693182,116.897727 C188.857037,116.404992 189.38385,116.132737 189.880568,116.284091 C190.299653,116.421772 190.572334,116.825745 190.543295,117.265909 L190.494205,118.729432 C190.492039,119.076932 190.443543,119.422592 190.35,119.757273 L190.35,119.784886 C190.163115,120.350432 189.553645,120.657912 188.987727,120.472159 L181.381705,117.962386 C180.835139,117.761106 180.546639,117.162675 180.729584,116.609702 C180.912528,116.056728 181.501007,115.748436 182.059773,115.912841 L188.585795,118.066705 Z" id="Shape" fill="#FFFFFF"></path>
                <path d="M186.640568,123.488182 L186.741818,122.702727 C186.757716,122.574079 186.78755,122.447541 186.830795,122.325341 C187.025663,121.842262 187.571028,121.603665 188.058068,121.788409 C188.4725,121.94821 188.725341,122.369191 188.671705,122.810114 L188.533636,124.2675 C188.509836,124.614831 188.439668,124.957417 188.325,125.286136 L188.325,125.31375 C188.22093,125.581453 188.014512,125.796674 187.751386,125.911828 C187.488261,126.026981 187.190104,126.03258 186.922841,125.927386 L179.457955,122.942045 C179.08195,122.811818 178.808014,122.485382 178.745025,122.092481 C178.682036,121.699581 178.840198,121.303871 179.15665,121.062631 C179.473101,120.82139 179.896572,120.773703 180.25875,120.938523 L186.640568,123.488182 Z" id="Shape" fill="#FFFFFF"></path>
                <path d="M176.641364,123.531136 C176.449172,124.170532 176.782222,124.850008 177.405341,125.089773 C177.747478,124.634441 178.352855,124.465791 178.881136,124.678636 L178.905682,124.678636 C179.196422,124.800005 179.422805,125.037926 179.529582,125.334335 C179.63636,125.630745 179.613709,125.958377 179.467159,126.237273 C179.132727,126.958295 178.381023,127.127045 177.49125,126.712841 L177.439091,126.688295 C176.641062,126.371334 176.006366,125.743285 175.681023,124.948636 C175.482151,124.385474 175.500752,123.768344 175.733182,123.218182 C175.773489,123.084328 175.870999,122.975194 175.999487,122.920128 C176.127974,122.865062 176.274251,122.869717 176.398977,122.932841 C176.619033,123.042664 176.72293,123.299118 176.641364,123.531136 L176.641364,123.531136 Z" id="Shape" fill="#FFFFFF"></path>
                <path d="M176.113636,132.40125 L176.604545,136.021705 C176.81625,137.601818 177.037159,138.304432 177.736705,138.733977 C178.43625,139.163523 179.126591,138.939545 179.537727,138.27375 C179.866023,137.739886 179.866023,137.224432 179.648182,136.432841 C179.575743,136.163847 179.619132,135.876815 179.767841,135.64125 C179.904948,135.41527 180.126891,135.253653 180.384048,135.192535 C180.641206,135.131417 180.912131,135.175894 181.13625,135.316023 C181.346777,135.45043 181.504879,135.652931 181.584205,135.889773 C182.007538,137.068873 181.841019,138.379358 181.13625,139.415114 C180.059318,141.170114 178.316591,141.697841 176.730341,140.725227 L176.705795,140.725227 C175.291364,139.856932 175.033636,138.697159 174.794318,136.485 L174.576477,134.450795 L172.763182,137.402386 C172.630195,137.616872 172.417419,137.769712 172.171699,137.827258 C171.92598,137.884803 171.667464,137.842335 171.453068,137.709205 C171.238552,137.578539 171.085339,137.367366 171.027681,137.122896 C170.970023,136.878425 171.012728,136.621045 171.14625,136.408295 L173.972045,131.806023 C174.327955,131.226136 174.917045,131.002159 175.472386,131.345795 C175.840339,131.57708 176.077915,131.968115 176.113636,132.40125 L176.113636,132.40125 Z" id="Shape" fill="#FFFFFF"></path>
                <path d="M174.146932,140.927727 L174.168409,140.946136 C176.448068,142.710341 177.138409,145.505455 175.521477,147.594886 C173.904545,149.684318 171.066477,149.711932 168.771477,147.947727 L168.75,147.929318 C166.470341,146.165114 165.770795,143.379205 167.396932,141.280568 C169.023068,139.181932 171.867273,139.163523 174.146932,140.927727 Z M170.115341,146.143636 L170.136818,146.162045 C171.563523,147.266591 173.180455,147.389318 173.978182,146.370682 C174.775909,145.352045 174.254318,143.854773 172.818409,142.744091 L172.796932,142.725682 C171.361023,141.615 169.7625,141.473864 168.955568,142.517045 C168.148636,143.560227 168.688636,145.032955 170.115341,146.1375 L170.115341,146.143636 Z" id="Shape" fill="#FFFFFF"></path>
                <path d="M168.912614,151.954773 L169.29,151.258295 C169.351625,151.148648 169.424642,151.045807 169.507841,150.951477 C169.863392,150.573513 170.455348,150.547658 170.8425,150.893182 C171.165227,151.193567 171.244648,151.673875 171.035795,152.062159 L170.382273,153.372273 C170.234833,153.687422 170.046008,153.981494 169.820795,154.246705 L169.802386,154.268182 C169.607044,154.480262 169.335009,154.605426 169.046861,154.6158 C168.758714,154.626173 168.478382,154.520894 168.268295,154.323409 L162.401932,148.874318 C161.996284,148.462462 161.986868,147.804219 162.380569,147.380929 C162.77427,146.957639 163.43147,146.919413 163.871591,147.294205 L168.912614,151.954773 Z" id="Shape" fill="#FFFFFF"></path>
                <path d="M161.134773,150.988295 L162.779318,158.256818 L165.586705,155.68875 C165.769524,155.516882 166.013534,155.425347 166.264286,155.43457 C166.515038,155.443793 166.751664,155.553007 166.921364,155.737841 C167.091461,155.924173 167.180558,156.170451 167.16905,156.422484 C167.157542,156.674516 167.046371,156.91165 166.86,157.081705 L162.871364,160.723636 C162.689011,160.920727 162.429689,161.028366 162.161367,161.018341 C161.893045,161.008315 161.642478,160.881625 161.475341,160.671477 C161.237013,160.381797 161.069928,160.04027 160.9875,159.674318 L159.045341,151.63875 C158.901136,151.058864 159.008523,150.672273 159.321477,150.383864 C159.751023,149.991136 160.389205,149.889886 160.809545,150.350114 C160.964301,150.535852 161.075437,150.75393 161.134773,150.988295 L161.134773,150.988295 Z" id="Shape" fill="#FFFFFF"></path>
                <path d="M140.111591,169.39125 L140.111591,169.418864 C140.623405,170.698772 140.590147,172.132213 140.019522,173.387007 C139.448898,174.641801 138.390441,175.609028 137.089432,176.064545 C135.994701,176.532704 134.773611,176.615985 133.625455,176.300795 C133.300494,176.202526 133.039702,175.958742 132.919773,175.641136 C132.819783,175.374705 132.830289,175.079382 132.948958,174.820729 C133.067627,174.562076 133.28464,174.361498 133.551818,174.263523 C133.772063,174.182233 134.011941,174.170453 134.239091,174.229773 C134.94076,174.453971 135.697599,174.434509 136.386818,174.174545 C137.954659,173.579318 138.589773,171.851932 137.985341,170.256477 L137.985341,170.228864 C137.371705,168.636477 135.77625,167.725227 134.180795,168.329659 C133.435267,168.595694 132.815234,169.129338 132.441136,169.826932 C132.169168,170.315798 131.552389,170.491628 131.063523,170.219659 C130.574657,169.94769 130.398827,169.330912 130.670795,168.842045 C131.643239,167.070176 133.54845,166.015997 135.566221,166.133339 C137.583991,166.250682 139.354161,167.518602 140.114659,169.39125 L140.111591,169.39125 Z" id="Shape" fill="#FFFFFF"></path>
                <path d="M130.526591,172.990227 L130.526591,173.017841 C131.140227,175.779205 129.495682,178.540568 126.507273,179.209432 C123.518864,179.878295 120.861818,178.153977 120.232841,175.39875 L120.232841,175.371136 C119.619205,172.609773 121.260682,169.848409 124.252159,169.179545 C127.243636,168.510682 129.897614,170.235 130.526591,172.990227 Z M122.454205,174.831136 L122.454205,174.85875 C122.834659,176.518636 124.36875,177.620114 126.083864,177.233523 C127.798977,176.846932 128.682614,175.214659 128.302159,173.551705 L128.302159,173.524091 C127.921705,171.864205 126.387614,170.762727 124.6725,171.149318 C122.957386,171.535909 122.076818,173.17125 122.454205,174.834205 L122.454205,174.831136 Z" id="Shape" fill="#FFFFFF"></path>
                <path d="M118.652727,179.488636 C118.711188,180.08934 118.271613,180.623698 117.670909,180.682159 C117.070205,180.74062 116.535847,180.301045 116.477386,179.700341 L115.802386,172.787727 L111.773864,173.180455 C111.227384,173.233832 110.741104,172.834093 110.687727,172.287614 C110.63435,171.741134 111.034089,171.254854 111.580568,171.201477 L116.698295,170.701364 C116.987133,170.671456 117.275918,170.758453 117.500172,170.942929 C117.724426,171.127405 117.865473,171.393998 117.891818,171.683182 L118.652727,179.488636 Z" id="Shape" fill="#FFFFFF"></path>
                <path d="M110.021932,175.306705 L110.411591,179.961136 C110.443928,180.350272 110.266207,180.727099 109.945374,180.949671 C109.624541,181.172243 109.209339,181.206746 108.856169,181.040182 C108.503,180.873619 108.265518,180.531294 108.233182,180.142159 L107.849659,175.539886 C107.714659,173.926023 106.837159,173.158977 105.508636,173.2725 C104.180114,173.386023 103.440682,174.257386 103.572614,175.828295 L103.962273,180.498068 C104.012261,181.099619 103.565131,181.627796 102.96358,181.677784 C102.362029,181.727772 101.833852,181.280642 101.783864,180.679091 L101.397273,176.113636 C101.145682,173.112955 102.707386,171.511364 105.3675,171.278182 C108.027614,171.045 109.776477,172.391932 110.021932,175.306705 Z" id="Shape" fill="#FFFFFF"></path>
                <path d="M100.354091,180.755795 C100.446752,181.031601 100.424881,181.333052 100.293379,181.592594 C100.161878,181.852136 99.9317425,182.048066 99.6545455,182.136477 L99.4244318,182.213182 C99.0362032,182.347688 98.6055114,182.259431 98.3014773,181.983068 L94.4539773,178.715455 L93.2727273,183.639886 C93.1977883,184.038112 92.9044771,184.359924 92.5148864,184.471364 L92.2847727,184.545 C92.0089673,184.637661 91.7075162,184.61579 91.4479741,184.484289 C91.1884321,184.352787 90.9925018,184.122652 90.9040909,183.845455 L88.4495455,176.340682 C88.3289683,175.971825 88.414333,175.566661 88.6734835,175.27781 C88.9326339,174.988959 89.3261991,174.860304 89.7059267,174.94031 C90.0856543,175.020315 90.3938547,175.296825 90.5144318,175.665682 L92.0485227,180.375341 L92.9659091,176.972727 C93.0265296,176.594695 93.2934128,176.282281 93.6573318,176.163344 C94.0212509,176.044408 94.4211238,176.138913 94.6932955,176.408182 L97.3932955,178.586591 L95.8592045,173.889205 C95.7715667,173.618652 95.7954848,173.324316 95.9256554,173.071462 C96.055826,172.818609 96.2814917,172.628134 96.5526136,172.542273 C96.8210848,172.451602 97.1147388,172.472695 97.3674953,172.600805 C97.6202518,172.728914 97.8108778,172.953278 97.8964773,173.223409 L100.354091,180.755795 Z" id="Shape" fill="#FFFFFF"></path>
                <path d="M89.9161364,184.24125 C90.3390087,184.66519 90.3390087,185.351401 89.9161364,185.775341 L87.4431818,188.282045 C86.6393182,189.085909 85.7863636,189.509318 84.9886364,189.509318 C84.354552,189.515792 83.7464236,189.257866 83.3103409,188.7975 L83.2888636,188.776023 C82.6219278,188.147883 82.3885114,187.185341 82.6936364,186.321477 C81.5706818,186.824659 80.595,186.855341 79.65,185.913409 L79.6285227,185.891932 C78.3429545,184.606364 78.7418182,182.918864 80.3280682,181.332614 L82.8961364,178.758409 C83.3200764,178.335537 84.0062872,178.335537 84.4302273,178.758409 L89.9161364,184.24125 Z M81.6688636,182.707159 C80.9877273,183.391364 80.8159091,184.044886 81.3405682,184.566477 L81.3620455,184.587955 C81.8345455,185.060455 82.4757955,184.999091 83.2704545,184.204432 L85.0561364,182.415682 L83.5220455,180.881591 L81.6688636,182.707159 Z M84.915,185.124886 C84.2338636,185.809091 84.0221591,186.462614 84.54375,186.984205 L84.5652273,187.005682 C85.0285227,187.465909 85.6513636,187.364659 86.3018182,186.698864 L87.8359091,185.164773 L86.3478409,183.679773 L84.915,185.124886 Z" id="Shape" fill="#FFFFFF"></path>
                <path d="M84.5345455,191.043409 C85.1140679,191.21286 85.4464965,191.820023 85.2770455,192.399545 C85.1075945,192.979068 84.5004315,193.311496 83.9209091,193.142045 L76.3148864,190.917614 C75.9400011,190.807998 75.652072,190.50671 75.5595592,190.127242 C75.4670464,189.747774 75.5840048,189.347776 75.8663774,189.077924 C76.1487499,188.808072 76.5536374,188.709362 76.9285227,188.818977 L84.5345455,191.043409 Z" id="Shape" fill="#FFFFFF"></path>
                <path d="M76.0909091,193.660568 L83.9147727,197.124545 C84.4427573,197.327622 84.7881374,197.838344 84.78,198.403977 L84.78,198.532841 C84.7870864,199.094523 84.4409383,199.600243 83.9147727,199.796932 L76.0909091,203.260909 C75.9545013,203.3298 75.8048615,203.368518 75.6521591,203.374432 C75.3749973,203.377712 75.1080569,203.269902 74.9109106,203.075062 C74.7137644,202.880221 74.6028215,202.614568 74.6028409,202.337386 C74.6045211,201.863268 74.9061728,201.442187 75.3545455,201.288068 L76.91625,200.622273 L76.91625,196.243977 L75.2839773,195.5475 C74.8696573,195.384722 74.5987206,194.983198 74.6028409,194.538068 C74.601986,194.267953 74.7097538,194.008833 74.9019056,193.81899 C75.0940574,193.629146 75.3544603,193.524517 75.6245455,193.528636 C75.7875567,193.539278 75.9464809,193.584237 76.0909091,193.660568 L76.0909091,193.660568 Z M78.8522727,199.796932 L82.1321591,198.419318 L78.8522727,197.053977 L78.8522727,199.796932 Z" id="Shape" fill="#FFFFFF"></path>
                <path d="M79.6346591,208.403182 L79.6622727,208.403182 C81.0402189,208.378424 82.3684272,208.917877 83.3388755,209.896437 C84.3093238,210.874996 84.8377028,212.207649 84.8014773,213.585341 C84.8541812,214.779032 84.4992901,215.95515 83.7951136,216.920455 C83.588197,217.188793 83.2687366,217.346257 82.9298864,217.346932 C82.6451005,217.346132 82.3724349,217.231596 82.1725057,217.028786 C81.9725764,216.825976 81.8619527,216.5517 81.8652273,216.266932 C81.867404,216.032583 81.9412836,215.80452 82.0769318,215.613409 C82.5354512,215.03565 82.7852183,214.319867 82.7856818,213.582273 C82.7856818,211.907045 81.3927273,210.70125 79.6898864,210.70125 L79.6622727,210.70125 C77.9594318,210.70125 76.5388636,211.879432 76.5388636,213.582273 C76.5254938,214.370233 76.8041853,215.135269 77.32125,215.73 C77.5985077,215.997607 77.6998291,216.399396 77.5826239,216.766477 C77.4654188,217.133557 77.1500074,217.402288 76.7689718,217.459708 C76.3879361,217.517129 76.0073375,217.353284 75.7871591,217.037045 C74.4761892,215.499367 74.1667374,213.344688 74.9919669,211.500211 C75.8171965,209.655735 77.6298868,208.450515 79.65,208.403182 L79.6346591,208.403182 Z" id="Shape" fill="#FFFFFF"></path>
                <path d="M79.6346591,218.282727 L79.6622727,218.282727 C82.4880682,218.282727 84.8014773,220.513295 84.8014773,223.578409 C84.8014773,226.643523 82.5156818,228.846477 79.6898864,228.846477 L79.6622727,228.846477 C76.8364773,228.846477 74.5230682,226.615909 74.5230682,223.550795 C74.5230682,220.485682 76.8088636,218.282727 79.6346591,218.282727 Z M79.6346591,226.566818 L79.6622727,226.566818 C81.3651136,226.566818 82.7856818,225.318068 82.7856818,223.556932 C82.7856818,221.795795 81.3927273,220.574659 79.6898864,220.574659 L79.6622727,220.574659 C77.9594318,220.574659 76.5388636,221.823409 76.5388636,223.584545 C76.5388636,225.345682 77.9318182,226.560682 79.6346591,226.560682 L79.6346591,226.566818 Z" id="Shape" fill="#FFFFFF"></path>
                <path d="M83.3011364,231.368523 C83.6880794,231.42333 84.0163899,231.680407 84.1623965,232.042913 C84.3084031,232.405419 84.2499239,232.818283 84.0089874,233.125981 C83.7680509,233.43368 83.3812612,233.589467 82.9943182,233.534659 L76.1215909,232.568182 L75.5631818,236.575227 C75.4877761,237.119165 74.9856991,237.498985 74.4417614,237.42358 C73.8978236,237.348174 73.5180034,236.846097 73.5934091,236.302159 L74.3021591,231.212045 C74.3875877,230.619384 74.9365564,230.207657 75.5294318,230.291591 L83.3011364,231.368523 Z" id="Shape" fill="#FFFFFF"></path>
                <path d="M81.5860227,241.266477 C82.141822,241.502861 82.4007591,242.145053 82.164375,242.700852 C81.9279908,243.256652 81.2857993,243.515589 80.73,243.279205 L74.3389773,240.560795 L72.7557955,244.285568 C72.6165837,244.614415 72.312509,244.844013 71.9581135,244.887876 C71.603718,244.931738 71.2528426,244.783201 71.0376589,244.498217 C70.8224752,244.213232 70.7756745,243.835097 70.9148864,243.50625 L72.9276136,238.775114 C73.0398312,238.507526 73.2544537,238.295966 73.523626,238.187606 C73.7927983,238.079245 74.0941381,238.083094 74.3604545,238.198295 L81.5860227,241.266477 Z" id="Shape" fill="#FFFFFF"></path>
                <path d="M71.0928409,245.509773 L77.1923864,250.296136 C77.421705,250.474129 77.5702295,250.736513 77.6048163,251.024736 C77.639403,251.312958 77.5571734,251.603032 77.3764773,251.830227 L73.9738636,256.165568 C73.63922,256.589422 73.0250928,256.663446 72.5993182,256.33125 C72.3965612,256.170783 72.266303,255.935973 72.2374954,255.679009 C72.2086879,255.422046 72.283718,255.164221 72.4459091,254.962841 L75.1704545,251.480455 L73.5842045,250.234773 L71.2431818,253.217045 C70.9085382,253.640899 70.294411,253.714923 69.8686364,253.382727 C69.6658794,253.22226 69.5356212,252.98745 69.5068136,252.730487 C69.4780061,252.473523 69.5530362,252.215699 69.7152273,252.014318 L72.05625,249.032045 L70.4147727,247.743409 L67.6411364,251.284091 C67.3064927,251.707944 66.6923655,251.781969 66.2665909,251.449773 C66.063834,251.289306 65.9335757,251.054495 65.9047682,250.797532 C65.8759606,250.540569 65.9509907,250.282744 66.1131818,250.081364 L69.55875,245.690795 C69.7371943,245.461941 69.9998012,245.314014 70.2880027,245.280007 C70.5762043,245.245999 70.8660298,245.328739 71.0928409,245.509773 L71.0928409,245.509773 Z" id="Shape" fill="#FFFFFF"></path>
                <path d="M68.2271591,255.140795 L68.2425,255.165341 C69.0437542,256.287221 69.3569297,257.685593 69.1107195,259.042061 C68.8645093,260.398529 68.0798695,261.597638 66.9354545,262.366364 C65.7081818,263.231591 64.6956818,263.526136 63.6034091,263.529205 C63.2541482,263.524923 62.9279985,263.353866 62.7259091,263.068977 C62.3833839,262.581668 62.5000639,261.909042 62.9867045,261.565568 C63.1838185,261.424905 63.4229958,261.355641 63.6647727,261.369205 C64.4447934,261.388832 65.2087716,261.145699 65.8339773,260.678864 C67.1348864,259.758409 67.3680682,257.886818 66.3893182,256.506136 L66.3739773,256.481591 C65.3277273,254.993523 63.5389773,254.622273 62.1,255.634773 C61.4886717,256.037652 61.0195935,256.622658 60.7592045,257.306932 L61.5753409,258.469773 L62.7842045,257.619886 C62.9876104,257.473339 63.241178,257.414229 63.4884191,257.455724 C63.7356602,257.497219 63.9560367,257.635872 64.1004545,257.840795 C64.2457378,258.047066 64.3031142,258.302609 64.2599578,258.551189 C64.2168015,258.79977 64.0766487,259.021019 63.8703409,259.16625 L61.8269318,260.602159 C61.5894347,260.77422 61.2924506,260.842925 61.0035177,260.792651 C60.7145849,260.742376 60.4582622,260.577396 60.2928409,260.335227 L58.9060227,258.359318 C58.5457878,257.911073 58.478732,257.2944 58.7342045,256.779205 C59.2157853,255.648264 60.0030924,254.673958 61.0077273,253.965682 C63.5451136,252.186136 66.5365909,252.738409 68.2271591,255.140795 Z" id="Shape" fill="#FFFFFF"></path>
                <path d="M56.8135227,257.988068 L59.3018182,265.333295 C59.3970506,265.607865 59.3782769,265.909147 59.2496953,266.16977 C59.1211136,266.430393 58.89345,266.628616 58.6176136,266.720114 L53.4017045,268.487386 C52.8938514,268.650083 52.3489865,268.37765 52.1744318,267.87375 C52.0928645,267.629635 52.1117097,267.363105 52.2268143,267.132896 C52.3419189,266.902687 52.5438358,266.727692 52.7880682,266.646477 L56.9853409,265.225909 L56.3379545,263.314432 L52.7451136,264.541705 C52.2372605,264.704401 51.6923956,264.431969 51.5178409,263.928068 C51.4362736,263.683953 51.4551188,263.417423 51.5702234,263.187214 C51.685328,262.957005 51.8872449,262.782011 52.1314773,262.700795 L55.72125,261.473523 L55.0523864,259.497614 L50.7876136,260.942727 C50.2797605,261.105424 49.7348956,260.832991 49.5603409,260.329091 C49.4787736,260.084976 49.4976188,259.818446 49.6127234,259.588237 C49.727828,259.358027 49.9297449,259.183033 50.1739773,259.101818 L55.4604545,257.313068 C56.0197637,257.135636 56.6188781,257.434514 56.8135227,257.988068 L56.8135227,257.988068 Z" id="Shape" fill="#FFFFFF"></path>
                <path d="M44.0989773,268.827955 C44.0894342,269.118287 43.9639884,269.392697 43.7506689,269.589874 C43.5373494,269.78705 43.2539348,269.890559 42.96375,269.877273 L37.4011364,269.656364 C37.0368738,269.655723 36.702134,269.455906 36.5287013,269.13558 C36.3552687,268.815254 36.3709221,268.425726 36.5694989,268.120349 C36.7680757,267.814972 37.1177697,267.64266 37.4809091,267.67125 L41.95125,267.849205 L42.0371591,265.735227 L38.205,265.581818 C37.8407374,265.581177 37.5059976,265.381361 37.332565,265.061035 C37.1591323,264.740709 37.1747857,264.35118 37.3733625,264.045804 C37.5719393,263.740427 37.9216333,263.568115 38.2847727,263.596705 L42.1169318,263.750114 L42.2304545,260.912045 C42.2541777,260.3088 42.7624362,259.839004 43.3656818,259.862727 C43.9689274,259.88645 44.4387231,260.394709 44.415,260.997955 L44.0989773,268.827955 Z" id="Shape" fill="#FFFFFF"></path>
                <path d="M34.0875,268.002614 C33.9998075,268.383528 33.7155611,268.688724 33.3418335,268.803237 C32.968106,268.91775 32.5616754,268.824183 32.2756404,268.557782 C31.9896053,268.291381 31.8674212,267.892619 31.9551136,267.511705 L33.7315909,259.789091 C33.8192834,259.408177 34.1035298,259.102981 34.4772574,258.988468 C34.8509849,258.873955 35.2574155,258.967521 35.5434506,259.233922 C35.8294856,259.500323 35.9516697,259.899086 35.8639773,260.28 L34.0875,268.002614 Z" id="Shape" fill="#FFFFFF"></path>
                <path d="M28.6138636,266.625 C28.4549211,266.981799 28.1177022,267.226699 27.7292341,267.267451 C27.3407661,267.308202 26.9600664,267.138612 26.7305409,266.822564 C26.5010155,266.506516 26.4575347,266.092026 26.6164773,265.735227 L29.4422727,259.393295 L25.7604545,257.745682 C25.2588796,257.522006 25.0335974,256.934075 25.2572727,256.4325 C25.4809481,255.930925 26.0688796,255.705643 26.5704545,255.929318 L31.2647727,258.021818 C31.5310783,258.138565 31.7394528,258.357216 31.843254,258.628829 C31.9470552,258.900442 31.9376147,259.202335 31.8170455,259.466932 L28.6138636,266.625 Z" id="Shape" fill="#FFFFFF"></path>
                <path d="M19.2927273,262.050341 C19.1015841,262.266118 18.8325045,262.39706 18.5447595,262.414325 C18.2570144,262.431589 17.9742085,262.33376 17.7586364,262.142386 L17.5776136,261.982841 C17.2664186,261.716069 17.1252962,261.300934 17.2094318,260.899773 L18.0869318,255.929318 L13.2361364,257.395909 C12.8538744,257.532264 12.4273775,257.440787 12.1346591,257.159659 L11.9536364,257.000114 C11.7378597,256.80897 11.6069175,256.539891 11.5896527,256.252146 C11.572388,255.964401 11.6702172,255.681595 11.8615909,255.466023 L17.0989773,249.559773 C17.3565739,249.269291 17.7495729,249.138302 18.1299354,249.216146 C18.5102979,249.293991 18.8202378,249.568843 18.9430037,249.937169 C19.0657695,250.305495 18.9827103,250.711337 18.7251136,251.001818 L15.4329545,254.698977 L18.8263636,253.760114 C19.1832089,253.621747 19.5874604,253.694423 19.8737675,253.948416 C20.1600745,254.202408 20.2804158,254.595116 20.1855682,254.965909 L19.6670455,258.396136 L22.9438636,254.714318 C23.1333902,254.502357 23.3996326,254.374746 23.6835758,254.359771 C23.9675189,254.344796 24.2457071,254.443695 24.4564773,254.634545 C24.6699169,254.820716 24.7995782,255.084857 24.8163111,255.367587 C24.8330441,255.650316 24.7354446,255.927908 24.5454545,256.137955 L19.2927273,262.050341 Z" id="Shape" fill="#FFFFFF"></path>
                <path d="M6.76534091,247.780227 C6.4954191,247.890465 6.19251004,247.887551 5.92475884,247.772141 C5.65700765,247.656731 5.44690035,247.438517 5.34170455,247.166591 L4.05306818,243.966477 C3.58056818,242.794432 3.54375,241.75125 3.90579545,240.898295 C4.25667807,240.133268 4.90173108,239.54243 5.69454545,239.259886 L5.72215909,239.259886 C7.17034091,238.676932 8.35772727,239.042045 9.26897727,239.974773 L10.4318182,237.876136 C10.5603755,237.59039 10.7897797,237.362078 11.0761364,237.234886 C11.329124,237.136086 11.6110919,237.142407 11.8593978,237.252445 C12.1077038,237.362483 12.3017845,237.567126 12.3985227,237.820909 C12.5653408,238.224795 12.5192876,238.685327 12.2757955,239.048182 L10.5668182,242.030455 L11.2172727,243.650455 L13.2330682,242.840455 C13.7931037,242.615085 14.4298005,242.886385 14.6551703,243.446421 C14.8805402,244.006456 14.60924,244.643153 14.0492045,244.868523 L6.76534091,247.780227 Z M8.59090909,242.303523 C8.19204545,241.315568 7.43727273,240.959659 6.66102273,241.272614 L6.63340909,241.272614 C5.76511364,241.622386 5.55954545,242.407841 5.95840909,243.395795 L6.76840909,245.411591 L9.41625,244.346932 L8.59090909,242.303523 Z" id="Shape" fill="#FFFFFF"></path>
                <path d="M6.82670455,236.888182 L6.79909091,236.888182 C3.99784091,237.2625 1.40829545,235.354091 1.00022727,232.322727 C0.592159091,229.291364 2.565,226.8 5.36625,226.422614 L5.39386364,226.422614 C8.19511364,226.048295 10.7846591,227.956705 11.1927273,230.988068 C11.6007955,234.019432 9.62795455,236.510795 6.82670455,236.888182 Z M5.72829545,228.683864 L5.70068182,228.683864 C4.01318182,228.910909 2.77056818,230.337614 3.00375,232.083409 C3.23693182,233.829205 4.78022727,234.844773 6.46772727,234.626932 L6.49534091,234.626932 C8.18284091,234.399886 9.42545455,232.973182 9.19227273,231.227386 C8.95909091,229.481591 7.41579545,228.456818 5.72829545,228.683864 Z" id="Shape" fill="#FFFFFF"></path>
                <path d="M1.78261364,225.339545 C1.64932105,225.386735 1.50969381,225.413626 1.36840909,225.419318 C1.07591971,225.413009 0.798343721,225.288972 0.598520775,225.075289 C0.39869783,224.861605 0.293527204,224.576346 0.306818182,224.284091 C0.308913181,223.795171 0.632188117,223.365802 1.10147727,223.228636 L7.21943182,221.338636 L1.22727273,219.267614 C0.722337156,219.130925 0.373161787,218.67082 0.377386364,218.147727 L0.377386364,217.978977 C0.382455963,217.454221 0.746542791,217.001333 1.25795455,216.883636 L7.32068182,214.978295 L1.26102273,212.931818 C0.798641051,212.786616 0.486647263,212.354817 0.493977273,211.870227 C0.491497263,211.587109 0.602869825,211.314866 0.803072261,211.114663 C1.0032747,210.914461 1.27551822,210.803088 1.55863636,210.805568 C1.70345261,210.815814 1.8460457,210.846812 1.98204545,210.897614 L9.75375,213.787841 C10.2642245,213.939459 10.6186771,214.402974 10.63125,214.935341 L10.63125,215.162386 C10.6134226,215.699124 10.2348891,216.155888 9.71079545,216.273068 L3.98863636,218.147727 L9.65556818,220.185 C10.1713304,220.321132 10.5312834,220.786805 10.5330682,221.320227 L10.5330682,221.547273 C10.504335,222.082408 10.1317011,222.537022 9.61261364,222.670227 L1.78261364,225.339545 Z" id="Shape" fill="#FFFFFF"></path>
                <path d="M6.34806818,206.000795 C5.79127371,205.999111 5.34032108,205.548158 5.33863636,204.991364 L5.33863636,200.760341 C5.31802904,200.386984 5.50549925,200.032823 5.82583701,199.83994 C6.14617477,199.647058 6.54689341,199.647058 6.86723117,199.83994 C7.18756893,200.032823 7.37503914,200.386984 7.35443182,200.760341 L7.35443182,204.991364 C7.35275835,205.546967 6.90366409,205.997431 6.34806818,206.000795 Z" id="Shape" fill="#FFFFFF"></path>
                <path d="M5.80806818,194.620909 L5.78045455,194.620909 C4.40250838,194.645666 3.07430003,194.106214 2.10385175,193.127654 C1.13340346,192.149095 0.605024423,190.816442 0.64125,189.43875 C0.592240906,188.248849 0.948085475,187.077483 1.65068182,186.115909 C1.85759848,185.847571 2.17705889,185.690106 2.51590909,185.689432 C2.80069499,185.690231 3.07336052,185.804767 3.27328979,186.007577 C3.47321906,186.210388 3.58384272,186.484664 3.58056818,186.769432 C3.5783915,187.00378 3.50451187,187.231843 3.36886364,187.422955 C2.91034422,188.000714 2.66057714,188.716496 2.66011364,189.454091 C2.66011364,191.129318 4.05306818,192.335114 5.75590909,192.335114 L5.78352273,192.335114 C7.48636364,192.335114 8.90693182,191.156932 8.90693182,189.454091 C8.92030166,188.66613 8.64161012,187.901095 8.12454545,187.306364 C7.84728773,187.038757 7.7459664,186.636968 7.86317153,186.269887 C7.98037666,185.902806 8.29578804,185.634076 8.67682368,185.576655 C9.05785931,185.519235 9.43845795,185.68308 9.65863636,185.999318 C10.9696062,187.536997 11.2790581,189.691676 10.4538285,191.536152 C9.62859893,193.380629 7.81590865,194.585849 5.79579545,194.633182 L5.80806818,194.620909 Z" id="Shape" fill="#FFFFFF"></path>
                <path d="M1.81636364,184.035682 C1.21227081,184.035682 0.722556818,183.545968 0.722556818,182.941875 C0.722556818,182.337782 1.21227081,181.848068 1.81636364,181.848068 L4.74034091,181.848068 L4.74034091,177.816477 L1.81636364,177.816477 C1.21227081,177.816477 0.722556818,177.326763 0.722556818,176.72267 C0.722556818,176.118578 1.21227081,175.628864 1.81636364,175.628864 L9.73840909,175.628864 C10.3425019,175.628864 10.8322159,176.118578 10.8322159,176.72267 C10.8322159,177.326763 10.3425019,177.816477 9.73840909,177.816477 L6.75,177.816477 L6.75,181.848068 L9.73227273,181.848068 C10.3363656,181.848068 10.8260795,182.337782 10.8260795,182.941875 C10.8260795,183.545968 10.3363656,184.035682 9.73227273,184.035682 L1.81636364,184.035682 Z" id="Shape" fill="#FFFFFF"></path>
                <path d="M1.81636364,173.422841 C1.21227081,173.422841 0.722556818,172.933127 0.722556818,172.329034 C0.722556818,171.724941 1.21227081,171.235227 1.81636364,171.235227 L9.73840909,171.235227 C10.3425019,171.235227 10.8322159,171.724941 10.8322159,172.329034 C10.8322159,172.933127 10.3425019,173.422841 9.73840909,173.422841 L1.81636364,173.422841 Z" id="Shape" fill="#FFFFFF"></path>
                <path d="M5.80806818,169.590682 L5.78045455,169.590682 C4.40250838,169.615439 3.07430003,169.075986 2.10385175,168.097427 C1.13340346,167.118867 0.605024423,165.786215 0.64125,164.408523 C0.589951946,163.216907 0.944773664,162.043182 1.64761364,161.079545 C1.8545303,160.811207 2.17399071,160.653743 2.51284091,160.653068 C2.79762681,160.653868 3.07029234,160.768404 3.27022161,160.971214 C3.47015087,161.174024 3.58077454,161.4483 3.5775,161.733068 C3.57532332,161.967417 3.50144369,162.19548 3.36579545,162.386591 C2.90727604,162.96435 2.65750895,163.680133 2.65704545,164.417727 C2.65704545,166.092955 4.05,167.29875 5.75284091,167.29875 L5.78045455,167.29875 C7.48329545,167.29875 8.90386364,166.120568 8.90386364,164.417727 C8.91723347,163.629767 8.63854194,162.864731 8.12147727,162.27 C7.84421954,162.002393 7.74289822,161.600604 7.86010335,161.233523 C7.97730848,160.866443 8.29271986,160.597712 8.6737555,160.540292 C9.05479113,160.482871 9.43538977,160.646716 9.65556818,160.962955 C10.966538,162.500633 11.2759899,164.655312 10.4507603,166.499789 C9.62553075,168.344265 7.81284047,169.549485 5.79272727,169.596818 L5.80806818,169.590682 Z" id="Shape" fill="#FFFFFF"></path>
                <path d="M9.34261364,159.57 L1.51875,156.106023 C0.990765468,155.902946 0.645385311,155.392225 0.653522727,154.826591 L0.653522727,154.697727 C0.646436306,154.136045 0.992584465,153.630325 1.51875,153.433636 L9.34261364,149.969659 C9.47902145,149.900769 9.62866122,149.862051 9.78136364,149.856136 C10.0585254,149.852856 10.3254659,149.960666 10.5226121,150.155507 C10.7197583,150.350347 10.8307012,150.616001 10.8306818,150.893182 C10.8290017,151.3673 10.5273499,151.788381 10.0789773,151.9425 L8.51727273,152.608295 L8.51727273,156.980455 L10.1495455,157.676932 C10.5638654,157.83971 10.8348021,158.241234 10.8306818,158.686364 C10.8323273,158.955396 10.726182,159.213887 10.5359436,159.404125 C10.3457051,159.594364 10.0872146,159.700509 9.81818182,159.698864 C9.65225911,159.690467 9.49007689,159.646521 9.34261364,159.57 L9.34261364,159.57 Z M6.58125,153.433636 L3.30136364,154.81125 L6.58738636,156.170455 L6.58125,153.433636 Z" id="Shape" fill="#FFFFFF"></path>
                <path d="M5.80806818,149.420455 L5.78045455,149.420455 C4.40094247,149.430752 3.07604956,148.882007 2.10781245,147.899319 C1.13957535,146.91663 0.610518024,145.583754 0.64125,144.204545 C0.64125,142.698068 0.981818182,141.703977 1.60772727,140.811136 C1.81177484,140.5277 2.13905659,140.358928 2.48829545,140.357045 C3.08476298,140.357045 3.56829545,140.840578 3.56829545,141.437045 C3.5702349,141.678292 3.49018117,141.913044 3.34125,142.102841 C2.87725063,142.730173 2.6373814,143.495162 2.66011364,144.275114 C2.66011364,145.864432 4.06534091,147.128523 5.75590909,147.128523 L5.78352273,147.128523 C7.59988636,147.128523 8.93454545,145.879773 8.93454545,144.118636 C8.95706067,143.386932 8.74882249,142.666685 8.33931818,142.059886 L6.91875,142.059886 L6.91875,143.535682 C6.92202724,143.786272 6.82498172,144.027773 6.64921874,144.206417 C6.47345577,144.385061 6.23356537,144.486021 5.98295455,144.486818 C5.45765644,144.486818 5.03181818,144.06098 5.03181818,143.535682 L5.03181818,141.035114 C5.03017401,140.744924 5.14472436,140.466144 5.34992272,140.260945 C5.55512109,140.055747 5.83390125,139.941197 6.12409091,139.942841 L8.53875,139.942841 C9.1127223,139.905894 9.65605185,140.205085 9.93170455,140.709886 C10.5807471,141.759727 10.9229754,142.97028 10.9196591,144.204545 C10.9196591,147.303409 8.74738636,149.420455 5.80806818,149.420455 Z" id="Shape" fill="#FFFFFF"></path>
                <path d="M5.80806818,138.681818 L5.78045455,138.681818 C2.95465909,138.681818 0.64125,136.45125 0.64125,133.386136 C0.64125,130.321023 2.92704545,128.118068 5.75284091,128.118068 L5.78045455,128.118068 C8.60625,128.118068 10.9196591,130.348636 10.9196591,133.41375 C10.9196591,136.478864 8.63386364,138.681818 5.80806818,138.681818 Z M5.80806818,130.397727 L5.78045455,130.397727 C4.07761364,130.397727 2.65704545,131.646477 2.65704545,133.407614 C2.65704545,135.16875 4.05,136.389886 5.75284091,136.389886 L5.78045455,136.389886 C7.48329545,136.389886 8.90386364,135.141136 8.90386364,133.38 C8.90386364,131.618864 7.51090909,130.397727 5.80806818,130.397727 Z" id="Shape" fill="#FFFFFF"></path>
                <polygon id="Shape" fill="#FF0000" points="0 111.335114 4.28318182 112.629886 5.30488636 108.27 6.32659091 112.629886 10.6128409 111.335114 7.34522727 114.397159 10.6128409 117.462273 6.32659091 116.1675 5.30795455 120.527386 4.28318182 116.1675 0 117.462273 3.26454545 114.400227"></polygon>
                <polygon id="Shape" fill="#FF0000" points="155.986364 20.5690909 160.272614 21.8638636 161.294318 17.5070455 162.316023 21.8638636 166.602273 20.5690909 163.334659 23.6311364 166.602273 26.69625 162.316023 25.4014773 161.297386 29.7613636 160.272614 25.4014773 155.989432 26.69625 159.253977 23.6372727"></polygon>
                <path d="M61.5692045,101.25 L61.2317045,101.25 C59.8006947,101.252451 58.4276345,100.68486 57.4160441,99.6726937 C56.4044537,98.6605275 55.8376436,97.2871446 55.8409091,95.8561364 L55.8409091,89.4129545 C55.8401857,86.4868935 58.1775032,84.0964242 61.1028409,84.0313636 C62.6053538,83.8516639 64.111442,84.3368843 65.2264773,85.3598864 C66.3509827,86.3927576 66.9778356,87.8587667 66.9477273,89.3853409 L66.9477273,95.8592045 C66.9493557,97.2873052 66.3836061,98.6575614 65.3749372,99.6685318 C64.3662684,100.679502 62.9973052,101.248373 61.5692045,101.25 L61.5692045,101.25 Z" id="Shape" fill="#FFFFFF"></path>
                <path d="M105.993409,126.243409 L61.2317045,126.243409 C59.8025413,126.245038 58.4313552,125.678446 57.4202081,124.66845 C56.4090611,123.658454 55.8409082,122.287914 55.8409091,120.85875 L55.8409091,113.314091 C55.8398926,111.839301 56.4441598,110.428715 57.5124838,109.412009 C58.5808078,108.395303 60.0195669,107.861576 61.4925,107.935568 C61.5753409,107.935568 61.6919318,107.935568 61.7993182,107.960114 C64.6745402,108.091314 66.9382346,110.460422 66.9385227,113.338636 L66.9385227,115.136591 L105.993409,115.136591 C113.498182,115.136591 119.008636,112.988864 122.840795,108.561477 C126.464318,104.376477 128.556818,98.1296591 128.556818,91.4318182 C128.556818,88.8975 127.924773,66.6807955 106.00875,66.6807955 L66.9538636,66.6807955 L66.9538636,73.40625 C66.9523351,76.2207012 64.7836309,78.5592115 61.9772727,78.7725 C61.8207955,78.7939773 61.6704545,78.80625 61.5078409,78.8154545 C60.0328552,78.893771 58.5905152,78.3623983 57.5188775,77.3458801 C56.4472399,76.3293619 55.8405156,74.9170634 55.8409091,73.44 L55.8409091,60.9586364 C55.8409091,59.530536 56.4082198,58.1609269 57.4180392,57.1511074 C58.4278587,56.1412879 59.7974678,55.5739773 61.2255682,55.5739773 L105.993409,55.5739773 C129.115227,55.5739773 139.648295,74.1640909 139.648295,91.4318182 C139.648295,100.762159 136.580114,109.659886 131.235341,115.836136 C125.255455,122.727273 116.762727,126.243409 105.993409,126.243409 Z" id="Shape" fill="#FFFFFF"></path>
                <path d="M42.7213636,252.446932 C29.3389419,252.43678 18.4928796,241.590717 18.4827273,228.208295 L18.4827273,136.776477 C18.4471426,133.709414 20.9046414,131.194221 23.9717045,131.158636 C27.0387677,131.123052 29.5539607,133.580551 29.5895455,136.647614 L29.5895455,228.214432 C29.5895455,235.463546 35.4661134,241.340114 42.7152273,241.340114 C49.9643412,241.340114 55.8409091,235.463546 55.8409091,228.214432 L55.8409091,157.873295 C55.8409082,156.444131 56.4090611,155.073591 57.4202081,154.063595 C58.4313552,153.053599 59.8025413,152.487008 61.2317045,152.488636 L105.993409,152.488636 C122.868409,152.488636 137.472955,146.794091 148.214659,136.021705 C149.341979,134.891312 150.912773,134.319424 152.502979,134.460434 C154.093184,134.601443 155.538838,135.44081 156.449659,136.751932 L156.385227,136.681364 C158.139149,138.819704 157.987957,141.939035 156.035455,143.897727 C143.173636,156.784091 125.869091,163.583182 105.990341,163.583182 L66.9538636,163.583182 L66.9538636,228.214432 C66.9403338,241.592064 56.0989956,252.433402 42.7213636,252.446932 Z" id="Shape" fill="#FFFFFF"></path>
                <path d="M24.2110227,122.966591 C23.6913599,122.965631 23.1745952,122.88915 22.6769318,122.739545 L22.4192045,122.656705 C22.2964773,122.619886 22.17375,122.576932 22.0571591,122.533977 C21.9405682,122.491023 21.7503409,122.398977 21.6276136,122.349886 C19.7212445,121.470064 18.5006261,119.561875 18.5011364,117.462273 L18.5011364,42.4482955 C18.5112887,29.0658737 29.357351,18.2198114 42.7397727,18.2096591 L105.993409,18.2096591 C118.539205,18.2096591 130.075568,21.0354545 140.286477,26.6072727 C141.743389,27.3978982 142.754963,28.8154822 143.028833,30.4503141 C143.302703,32.085146 142.808344,33.7550068 141.688636,34.9772727 C141.621136,35.0539773 141.461591,35.2135227 141.363409,35.3117045 C139.685624,37.0810607 137.027453,37.5003743 134.886477,36.3334091 C126.344659,31.69125 116.624659,29.3348864 105.993409,29.3348864 L42.7213636,29.3348864 C35.4750541,29.3416523 29.6024478,35.2142587 29.5956818,42.4605682 L29.5956818,117.581932 C29.5956818,120.555797 27.1848878,122.966591 24.2110227,122.966591 Z" id="Shape" fill="#FFFFFF"></path>
                <path d="M162.883636,130.68 C162.394864,130.654249 161.911834,130.56239 161.447727,130.406932 L161.407841,130.406932 C159.806584,130.027515 158.479601,128.912212 157.830341,127.400114 C157.1748,125.868676 157.271243,124.119084 158.091136,122.668977 C162.667535,114.057064 165.299479,104.546247 165.801477,94.8068182 C166.777159,76.37625 159.895227,58.05 147.392386,45.7895455 C146.104866,44.5244983 145.535917,42.6990223 145.876705,40.9264773 C145.876705,40.8497727 145.90125,40.7454545 145.90125,40.7331818 C146.200091,38.7353029 147.591432,37.0724657 149.50527,36.4258987 C151.419108,35.7793317 153.533826,36.2576898 154.983068,37.665 C169.845341,52.1284091 178.034318,73.7069318 176.886818,95.3836364 C176.29771,106.726434 173.233536,117.802909 167.909318,127.835795 C166.927086,129.677939 164.968574,130.786328 162.883636,130.68 L162.883636,130.68 Z" id="Shape" fill="#FFFFFF"></path>
                <path d="M42.7213636,233.737159 C39.6925625,233.686299 37.2494961,231.243233 37.1986364,228.214432 L37.1986364,226.714091 C37.1927056,223.663973 39.6605069,221.186556 42.710625,221.180625 C45.7607431,221.174694 48.2381601,223.642496 48.2440909,226.692614 L48.2440909,228.226705 C48.1851205,231.250039 45.7448217,233.684915 42.7213636,233.737159 L42.7213636,233.737159 Z" id="Shape" fill="#FFFFFF"></path>
                <path d="M42.8563636,214.938409 C42.7090909,214.938409 42.5495455,214.938409 42.4084091,214.92 L42.2028409,214.904659 C39.3609386,214.753086 37.1497371,212.37774 37.2017045,209.532273 L37.2017045,187.407614 C37.2012292,185.46554 38.2471575,183.67386 39.9385227,182.719432 L40.1256818,182.602841 C41.7904727,181.621048 43.8538943,181.60738 45.5315446,182.567034 C47.2091949,183.526688 48.2434046,185.312271 48.2410227,187.245 L48.2410227,209.556818 C48.2410227,212.530683 45.8302287,214.941477 42.8563636,214.941477 L42.8563636,214.938409 Z" id="Shape" fill="#FFFFFF"></path>
                <path d="M146.588523,71.9519318 C146.383456,71.9509546 146.178599,71.9386632 145.974886,71.9151136 C144.209003,71.7098472 142.658624,70.6452541 141.832841,69.0709091 C137.693864,61.18875 127.535114,47.9648864 106.005682,47.9648864 L56.4545455,47.9648864 C54.9994479,47.9646718 53.6063793,47.3755675 52.5926071,46.3317405 C51.5788349,45.2879135 51.0306696,43.878233 51.0729545,42.42375 C51.0312706,40.9734273 51.5810112,39.5684799 52.595915,38.5315884 C53.6108188,37.494697 55.0036625,36.9149744 56.4545455,36.9255682 L105.993409,36.9255682 C122.018523,36.9255682 135.57375,42.9023864 145.195568,54.2117045 C147.689875,57.1782746 149.839108,60.4185943 151.601932,63.8703409 C152.698737,65.9843166 152.275646,68.5677936 150.561818,70.2214773 C150.525,70.2552273 150.4575,70.3227273 150.393068,70.3779545 C149.383655,71.3861726 148.015204,71.9523139 146.588523,71.9519318 Z" id="Shape" fill="#FFFFFF"></path>
                <path d="M42.8563636,171.268977 L42.5495455,171.268977 L42.49125,171.268977 C39.6225,171.130909 37.2109091,168.759205 37.2109091,165.887386 L37.2109091,50.7722727 C37.209733,48.9470256 38.1337974,47.245592 39.6654545,46.2528409 L39.6286364,46.2927273 C41.2585149,45.0703101 43.4387436,44.8724623 45.2620453,45.7815159 C47.085347,46.6905694 48.2394513,48.550834 48.2440909,50.5881818 L48.2440909,165.884318 C48.2440909,168.858183 45.8332969,171.268977 42.8594318,171.268977 L42.8563636,171.268977 Z" id="Shape" fill="#FFFFFF"></path>
                <path d="M105.993409,144.885682 L61.12125,144.885682 C58.0711319,144.885682 55.5985227,142.413073 55.5985227,139.362955 C55.5985227,136.312836 58.0711319,133.840227 61.12125,133.840227 L105.993409,133.840227 C118.879773,133.840227 129.618409,129.33 136.982045,120.803523 C143.603182,113.133068 147.25125,102.70125 147.25125,91.4226136 C147.25125,90.0081818 147.171477,88.4710227 147.005795,86.7282955 C146.717729,83.6891918 148.947885,80.9919874 151.986989,80.7039207 C155.026092,80.415854 157.723297,82.64601 158.011364,85.6851136 C158.201591,87.7223864 158.293636,89.6001136 158.293636,91.42875 C158.293636,105.373636 153.691364,118.370455 145.333636,128.029091 C135.794659,139.059205 122.190341,144.885682 105.993409,144.885682 Z" id="Shape" fill="#FFFFFF"></path>
                <polygon id="Shape" fill="#FF0000" points="146.343068 161.711591 150.62625 163.006364 151.647955 158.649545 152.669659 163.006364 156.955909 161.711591 153.691364 164.773636 156.955909 167.83875 152.669659 166.543977 151.651023 170.903864 150.62625 166.547045 146.343068 167.83875 149.607614 164.779773"></polygon>
                <path d="M86.4859091,96.2918182 L85.7986364,96.2918182 L85.7986364,85.5255682 L85.7311364,85.5255682 C85.7754216,85.2485483 85.7979903,84.9684911 85.7986364,84.6879545 L85.7986364,79.8371591 C85.7986364,77.0543182 83.5220455,74.7255682 80.7606818,74.4647727 C80.5339461,74.4336889 80.3053333,74.4183113 80.0764773,74.41875 C79.7219788,74.4196554 79.3684393,74.455626 79.0210227,74.5261364 L79.0210227,74.5261364 L78.8246591,74.5752273 L78.6375,74.62125 C78.5423864,74.6457955 78.4534091,74.6764773 78.3613636,74.7071591 L78.1956818,74.7623864 C78.1067045,74.7961364 78.0177273,74.8329545 77.92875,74.8728409 L77.7630682,74.9464773 C77.6832955,74.9832955 77.6065909,75.02625 77.5268182,75.0692045 L77.3457955,75.1673864 L77.1525,75.2901136 C77.0819318,75.3361364 77.0144318,75.3790909 76.9469318,75.4251136 L76.8088636,75.5325 C76.7413636,75.5815909 76.6738636,75.6306818 76.6094318,75.6859091 C76.363422,75.8932616 76.1364915,76.1222458 75.9313636,76.3701136 L75.9313636,76.3701136 C75.8372727,76.4826136 75.7482955,76.5992045 75.6644318,76.7198864 L75.6644318,76.7198864 C75.5846591,76.8344318 75.51,76.9520455 75.4404545,77.0727273 L75.4036364,77.1402273 C75.3422727,77.2506818 75.2809091,77.3611364 75.22875,77.4777273 L75.2103409,77.5145455 C75.1551136,77.6311364 75.1060227,77.7507955 75.0630682,77.8704545 L75.0201136,77.9870455 C74.9771591,78.1036364 74.9403409,78.2232955 74.9065909,78.3460227 C74.9065909,78.3797727 74.89125,78.4135227 74.8820455,78.4472727 C74.8554545,78.5515909 74.8319318,78.6538636 74.8114773,78.7540909 C74.8114773,78.7909091 74.8114773,78.8246591 74.79,78.8614773 C74.7685227,78.9934091 74.7501136,79.1253409 74.7378409,79.2572727 L74.7378409,79.3523864 C74.7378409,79.4935227 74.7194318,79.6377273 74.7194318,79.7819318 L74.7194318,84.8106818 L74.7194318,84.8106818 L74.7194318,101.9925 C74.7143277,104.960396 77.1116755,107.372839 80.0795455,107.386364 L86.4582955,107.386364 C89.1311801,107.388632 91.4006627,105.428802 91.7877273,102.784091 C91.8153409,102.584659 91.83375,102.382159 91.83375,102.320795 C92.0151863,100.792387 91.5342796,99.2593532 90.5123498,98.1084362 C89.4904199,96.9575193 88.0250485,96.2986177 86.4859091,96.2979545 L86.4859091,96.2918182 Z" id="Shape" fill="#FFFFFF"></path>
                <path d="M105.993409,74.41875 L96.9392045,74.41875 C94.1563636,74.41875 91.8276136,76.6953409 91.5668182,79.4567045 C91.5357246,79.6834393 91.520347,79.9120527 91.5207955,80.1409091 C91.5199809,81.569259 92.08703,82.9393415 93.0970261,83.9493376 C94.1070222,84.9593337 95.4771046,85.5263828 96.9054545,85.5255682 L105.990341,85.5255682 C108.058295,85.5255682 109.693636,85.5255682 109.693636,91.4318182 C109.693636,96.2918182 109.199659,96.2918182 105.990341,96.2918182 L104.167841,96.2918182 C101.19877,96.2985853 98.7954468,98.7073984 98.7954545,101.676477 L98.7954545,102.013977 C98.8022092,104.979459 101.205424,107.381302 104.170909,107.386364 L105.993409,107.386364 C115.811591,107.386364 120.800455,102.013977 120.800455,91.4318182 C120.800455,80.6195455 115.403523,74.41875 105.993409,74.41875 Z" id="Shape" fill="#FFFFFF"></path>
            </g>
        </g>
    </g>
</svg>