<?xml version="1.0" encoding="utf-8"?>
<!-- Generator: Adobe Illustrator 18.1.0, SVG Export Plug-In . SVG Version: 6.00 Build 0)  -->
<!DOCTYPE svg PUBLIC "-//W3C//DTD SVG 1.1//EN" "http://www.w3.org/Graphics/SVG/1.1/DTD/svg11.dtd">
<svg version="1.1" id="Layer_1" xmlns="http://www.w3.org/2000/svg" xmlns:xlink="http://www.w3.org/1999/xlink" x="0px" y="0px"
	 viewBox="0 0 192 192" enable-background="new 0 0 192 192" xml:space="preserve">
<path fill="#B3DDF2" d="M165.2,97c-0.4-10.9-3.4-21.6-8.9-31.4c-0.9-1.6-1.8-3.1-2.8-4.6c-1.9-5.8-4.4-11.2-8.9-15.3
	c-4.3-3.9-9.9-5.9-15.9-7.2c-9.9-5.3-21.2-8.3-32.8-8.3c-1.6,0-3.2,0.1-4.8,0.2c-3.2-0.7-6.4-1.1-9.5-1.1c-2.9,0-5.5,0.4-7.9,1.2
	c-5.7,1.8-10.3,5.7-14.4,10.3c-11,6.8-19.7,16.5-25.4,27.9c-4.1,4.5-7.6,9.5-8.9,15.6c-1.3,6.1-0.2,12,1.7,17.8
	c0.4,10.9,3.4,21.6,8.9,31.4c0.9,1.6,1.8,3.1,2.8,4.6c1.9,5.8,4.4,11.2,8.9,15.3c4.3,3.9,9.9,5.9,15.9,7.2
	c9.9,5.3,21.2,8.3,32.8,8.3c0,0,0,0,0,0c1.6,0,3.2-0.1,4.8-0.2c3.2,0.7,6.4,1.1,9.5,1.1c0,0,0,0,0,0c2.9,0,5.5-0.4,7.9-1.2
	c5.7-1.8,10.3-5.7,14.4-10.3c11-6.8,19.8-16.5,25.4-27.9c4.1-4.5,7.6-9.5,8.9-15.6C168.2,108.7,167.1,102.8,165.2,97z"/>
<path fill="#FFFFFF" d="M166.4,97c-0.4-11.1-3.4-22-9-31.9c-0.9-1.6-1.9-3.1-2.9-4.6c-1.9-5.9-4.5-11.4-9-15.5
	c-4.4-4-10.1-6-16.2-7.3c-10.1-5.4-21.5-8.4-33.4-8.4c-1.6,0-3.3,0.1-4.9,0.2c-3.2-0.7-6.5-1.2-9.6-1.2c-2.9,0-5.6,0.4-8,1.2
	c-5.8,1.9-10.4,5.8-14.6,10.4c-11.2,7-20.1,16.7-25.8,28.4c-4.2,4.6-7.7,9.6-9,15.8c-1.3,6.2-0.2,12.2,1.7,18.1
	c0.4,11.1,3.4,22,9,31.9c0.9,1.6,1.9,3.1,2.9,4.6c1.9,5.9,4.5,11.4,9,15.5c4.4,4,10.1,6,16.2,7.3c10.1,5.4,21.5,8.4,33.4,8.4
	c0,0,0,0,0,0c1.6,0,3.3-0.1,4.9-0.2c3.2,0.7,6.5,1.2,9.6,1.2c0,0,0,0,0,0c2.9,0,5.6-0.4,8-1.2c5.8-1.9,10.4-5.8,14.6-10.4
	c11.2-7,20.1-16.7,25.8-28.4c4.2-4.6,7.7-9.6,9-15.8C169.4,108.9,168.3,102.8,166.4,97z M163.2,88.4c-0.1-0.2-0.2-0.5-0.3-0.7
	c-1.2-3-2.4-5.9-3.3-8.7c-1-2.9-1.7-6.1-2.5-9.2c-0.1-0.2-0.1-0.4-0.2-0.6C160,75.4,162.1,81.8,163.2,88.4z M156.7,130.4
	c-1.9,2-4,4-6,5.9c-2.3,2.2-4.6,4.4-6.7,6.7c-0.5,0.6-1.1,1.2-1.6,1.9c1.1-2.1,2.1-4.3,3-6.5c1.3-3,2.6-5.8,4.1-8.4
	c1.5-2.7,3.4-5.5,5.3-8.1c3.7-5.4,7.6-11,9.1-17.1c-0.3,4.4-1.1,8.8-2.4,13.2C160.3,122.3,158.7,126.4,156.7,130.4z M91.9,165.3
	c-3.1-0.9-6.4-1.8-9.6-2.5c-0.9-0.2-1.9-0.4-2.8-0.6c2.4-0.1,4.8-0.3,7.2-0.6c3.2-0.3,6.5-0.6,9.6-0.6l0.3,0c2.9,0,5.9,0.3,9.1,0.5
	c3.2,0.3,6.5,0.6,9.8,0.6c0,0,0,0,0,0c3.6,0,6.7-0.4,9.5-1.1c-7.8,3.7-16.3,5.9-25,6.4C97.5,166.8,94.7,166.1,91.9,165.3z
	 M36.9,128.7c-0.8-3.1-1.6-6.3-2.6-9.3c-0.3-1-0.7-2.1-1.1-3.1c1.3,2.1,2.8,4.1,4.2,6.1c1.9,2.7,3.8,5.5,5.5,8.3
	c1.6,2.8,3.1,5.9,4.5,8.8c2.8,5.8,5.7,11.8,10,16.1c-7.2-4.9-13.5-11.3-18.4-18.7C38.3,134.2,37.6,131.4,36.9,128.7z M35.3,68.7
	c1.9-2,4-4,6-5.9c2.3-2.2,4.6-4.4,6.7-6.7c0.5-0.6,1.1-1.2,1.6-1.9c-1.1,2.1-2.1,4.3-3,6.5c-1.3,3-2.6,5.8-4.1,8.4
	c-1.5,2.7-3.4,5.5-5.3,8.1c-3.7,5.4-7.6,11-9.1,17.1c0.3-4.4,1.1-8.8,2.4-13.2C31.7,76.8,33.3,72.6,35.3,68.7z M100.1,33.8
	c3.1,0.9,6.4,1.8,9.6,2.5c0.9,0.2,1.9,0.4,2.8,0.6c-2.4,0.1-4.9,0.3-7.2,0.6c-3.2,0.3-6.5,0.6-9.6,0.6l-0.3,0
	c-2.9,0-5.9-0.3-9.1-0.5c-3.2-0.3-6.5-0.6-9.8-0.6c-3.6,0-6.7,0.4-9.5,1.1c7.8-3.7,16.3-5.9,24.9-6.4C94.5,32.2,97.3,33,100.1,33.8z
	 M155.1,70.3c0.8,3.1,1.6,6.3,2.6,9.4c0.3,1,0.7,2.1,1.1,3.1c-1.3-2.1-2.8-4.1-4.2-6.1c-1.9-2.7-3.8-5.5-5.5-8.3
	c-1.6-2.8-3.1-5.9-4.5-8.8c-2.8-5.8-5.7-11.8-10-16.1c7.2,4.9,13.5,11.3,18.4,18.7C153.7,64.9,154.4,67.6,155.1,70.3z M129.6,156.9
	c-3.7,2.2-8.2,3.2-14,3.2c0,0,0,0,0,0c-3.2,0-6.5-0.3-9.6-0.6c-3.1-0.3-6.3-0.5-9.3-0.5l-0.3,0c-3.2,0-6.6,0.3-9.8,0.6
	c-3.4,0.3-6.9,0.6-10.2,0.6c-5.5,0-9.7-0.9-13.2-2.9c-6.5-3.7-10-11-13.8-18.8c-1.4-3-2.9-6.1-4.6-9c-1.7-2.9-3.7-5.7-5.6-8.4
	c-4.9-7-9.6-13.7-9.7-21.2c0-7.7,4.8-14.8,9.5-21.6c1.9-2.7,3.8-5.5,5.4-8.3c1.5-2.7,2.9-5.7,4.2-8.6c3.4-7.5,6.9-15.3,13.8-19.4
	c3.7-2.2,8.2-3.2,14-3.2c3.2,0,6.5,0.3,9.6,0.6c3.1,0.3,6.3,0.5,9.3,0.5l0.3,0c3.2,0,6.6-0.3,9.8-0.6c3.4-0.3,6.9-0.6,10.2-0.6
	c5.5,0,9.7,0.9,13.2,2.9c6.5,3.7,10,11,13.8,18.8c1.4,3,2.9,6.1,4.6,9c1.7,2.9,3.7,5.7,5.6,8.4c4.9,7,9.6,13.7,9.7,21.2
	c0,7.7-4.8,14.8-9.5,21.6c-1.9,2.7-3.8,5.5-5.4,8.3c-1.5,2.7-2.9,5.7-4.2,8.6C140.1,145,136.6,152.8,129.6,156.9z M144.1,46.4
	c2.4,2.2,4.2,4.8,5.7,7.7c-4.1-4.8-8.7-9-13.9-12.6C138.9,42.7,141.7,44.2,144.1,46.4z M120.3,36c-0.2,0-0.4-0.1-0.6-0.1
	c-3.2-0.5-6.5-1-9.6-1.7c-3.1-0.7-6.3-1.6-9.5-2.4c-0.2-0.1-0.4-0.1-0.6-0.2C107,32,113.8,33.5,120.3,36z M74.1,31.3
	c2.3-0.7,4.7-1.1,7.4-1.1c0.6,0,1.3,0,1.9,0.1c-6.1,1.1-12,3-17.7,5.7C68.2,33.9,71,32.3,74.1,31.3z M53,46.8
	c-0.1,0.2-0.3,0.4-0.4,0.5c-2,2.5-4,5.1-6.1,7.4c-2,2.2-4.2,4.3-6.6,6.6c-0.2,0.2-0.3,0.3-0.5,0.5C43.1,56.1,47.7,51.1,53,46.8z
	 M26,84.4c0.7-3.3,2.1-6.2,3.9-9c-0.6,1.7-1.1,3.3-1.6,5.1c-1.3,4.5-2.1,9.1-2.4,13.7C25.3,90.9,25.3,87.7,26,84.4z M28.8,110.6
	c0.1,0.2,0.2,0.4,0.3,0.7c1.2,3,2.4,5.9,3.3,8.7c1,2.9,1.7,6.1,2.5,9.2c0.1,0.2,0.1,0.4,0.2,0.6C32,123.7,29.9,117.2,28.8,110.6z
	 M47.9,152.6c-2.4-2.2-4.2-4.8-5.7-7.7c4.1,4.8,8.7,9,13.9,12.6C53.1,156.3,50.3,154.8,47.9,152.6z M71.7,163.1
	c0.2,0,0.4,0.1,0.6,0.1c3.2,0.5,6.5,1,9.6,1.7c3.1,0.7,6.3,1.6,9.5,2.4c0.2,0.1,0.4,0.1,0.6,0.2C85,167,78.1,165.5,71.7,163.1z
	 M117.9,167.7c-2.3,0.7-4.7,1.1-7.4,1.1h0c-0.6,0-1.3,0-1.9-0.1c6.1-1.1,12-3,17.6-5.7C123.7,165.1,121,166.7,117.9,167.7z
	 M139,152.3c0.1-0.2,0.3-0.4,0.4-0.5c2-2.5,4-5.1,6.1-7.4c2-2.2,4.2-4.3,6.6-6.6c0.2-0.2,0.3-0.3,0.5-0.5
	C148.9,142.9,144.3,148,139,152.3z M166,114.6c-0.7,3.3-2.1,6.2-3.9,9c0.6-1.7,1.1-3.3,1.6-5.1c1.3-4.5,2.1-9.1,2.4-13.6
	C166.7,108.1,166.7,111.4,166,114.6z"/>
<rect x="62.7" y="60.5" fill="#FFFFFF" width="65" height="23"/>
<rect x="107.7" y="88.5" fill="#FFFFFF" width="21" height="21"/>
<g>
	<path fill="#515254" d="M62,84.3h66.8v-25H62V84.3z M126.9,61.2V82L97.7,71.6l28.8-10.3H126.9z M125,82.3H67.7l28.6-10.3L125,82.3z
		 M96.4,71.1l-27.5-9.8h54.9L96.4,71.1z M64,61.2h2.2L95,71.6L65,82.3h-1V61.2z"/>
	<path fill="#515254" d="M107.3,88.2v21.9h22.3V88.2H107.3z M128.8,109.3h-20.7V89h20.7V109.3z"/>
	<rect x="61.2" y="87.8" fill="#515254" width="44.1" height="2"/>
	<rect x="61.2" y="54.6" fill="#515254" width="30.5" height="2"/>
	<rect x="61.2" y="93.7" fill="#515254" width="44.1" height="0.8"/>
	<rect x="61.2" y="99.1" fill="#515254" width="44.1" height="0.8"/>
	<rect x="61.2" y="105.4" fill="#515254" width="44.1" height="0.8"/>
	<rect x="61.2" y="109.3" fill="#515254" width="44.1" height="0.8"/>
</g>
<polygon fill="#515254" points="107.7,151.1 99.9,154.1 79.2,146.2 87,143.2 "/>
<path fill="#FFFFFF" d="M99.9,154.8c-0.1,0-0.2,0-0.3,0l-20.7-7.9c-0.3-0.1-0.5-0.4-0.5-0.7c0-0.3,0.2-0.6,0.5-0.7l7.9-3
	c0.2-0.1,0.3-0.1,0.5,0l20.7,7.9c0.3,0.1,0.5,0.4,0.5,0.7c0,0.3-0.2,0.6-0.5,0.7l-7.9,3C100,154.8,100,154.8,99.9,154.8z
	 M81.1,146.2l18.7,7.1l5.9-2.2L87,144L81.1,146.2z"/>
<polygon fill="#FFCD03" points="87,143.3 79.1,146.2 74.3,144.4 82.2,141.5 "/>
<path fill="#FFFFFF" d="M79.1,147c-0.1,0-0.2,0-0.3,0l-4.8-1.8c-0.3-0.1-0.5-0.4-0.5-0.7c0-0.3,0.2-0.6,0.5-0.7l7.9-3
	c0.2-0.1,0.3-0.1,0.5,0l4.8,1.8c0.3,0.1,0.5,0.4,0.5,0.7c0,0.3-0.2,0.6-0.5,0.7l-7.9,3C79.3,146.9,79.2,147,79.1,147z M76.3,144.4
	l2.8,1.1l5.9-2.2l-2.8-1.1L76.3,144.4z"/>
<polygon fill="#515254" points="110.7,155.2 100,154.1 107.6,151.2 "/>
<path fill="#FFFFFF" d="M110.7,155.9C110.6,155.9,110.6,155.9,110.7,155.9l-10.8-1.1c-0.3,0-0.6-0.3-0.6-0.6c0-0.3,0.1-0.6,0.4-0.8
	l7.6-2.9c0.3-0.1,0.6,0,0.8,0.2l3,4.1c0.2,0.2,0.2,0.5,0,0.8C111.2,155.8,110.9,155.9,110.7,155.9z M103,153.7l6.1,0.7l-1.8-2.3
	L103,153.7z"/>
<g>
	<polygon fill="#515254" points="90.6,154.1 82.7,151.1 103.5,143.3 111.3,146.2 	"/>
	<path fill="#FFFFFF" d="M90.6,154.8c-0.1,0-0.2,0-0.3,0l-7.9-3c-0.3-0.1-0.5-0.4-0.5-0.7c0-0.3,0.2-0.6,0.5-0.7l20.7-7.9
		c0.2-0.1,0.3-0.1,0.5,0l7.9,3c0.3,0.1,0.5,0.4,0.5,0.7c0,0.3-0.2,0.6-0.5,0.7l-20.7,7.9C90.8,154.8,90.7,154.8,90.6,154.8z
		 M84.7,151.1l5.9,2.2l18.7-7.1l-5.9-2.2L84.7,151.1z"/>
</g>
<polygon fill="#FFCD03" points="111.3,146.2 103.4,143.2 108.2,141.4 116,144.4 "/>
<path fill="#FFFFFF" d="M111.3,146.9c-0.1,0-0.2,0-0.3,0l-7.9-3c-0.3-0.1-0.5-0.4-0.5-0.7c0-0.3,0.2-0.6,0.5-0.7l4.8-1.8
	c0.2-0.1,0.3-0.1,0.5,0l7.9,3c0.3,0.1,0.5,0.4,0.5,0.7c0,0.3-0.2,0.6-0.5,0.7l-4.8,1.8C111.4,146.9,111.3,146.9,111.3,146.9z
	 M105.4,143.2l5.9,2.2l2.8-1.1l-5.9-2.2L105.4,143.2z"/>
<polygon fill="#515254" points="79.8,155.2 82.8,151.2 90.5,154.1 "/>
<path fill="#FFFFFF" d="M79.8,155.9c-0.3,0-0.5-0.1-0.6-0.4c-0.1-0.2-0.1-0.5,0-0.8l3-4.1c0.2-0.3,0.5-0.4,0.8-0.2l7.7,2.9
	c0.3,0.1,0.5,0.4,0.5,0.7c0,0.3-0.3,0.6-0.6,0.6L79.8,155.9C79.9,155.9,79.9,155.9,79.8,155.9z M83.1,152l-1.7,2.3l6.1-0.7L83.1,152
	z"/>
<path fill="#FFCD03" d="M86.6,124.6L86.6,124.6c-2.4-1.8-1.5-3.9-0.8-4.8c-0.9,1.3-3.2,4.6-2.6,6.9h0c0.2,1,1,1.8,2.1,1.8
	c1.2,0,2.1-1,2.1-2.1C87.4,125.6,87.1,124.9,86.6,124.6z"/>
<path fill="#FFFFFF" d="M85.3,129.1c-1.4,0-2.6-1-2.8-2.3c-0.7-2.4,1.4-5.7,2.7-7.5c0.2-0.3,0.7-0.4,1-0.2c0.3,0.2,0.4,0.7,0.2,1
	c-1,1.5-0.8,2.8,0.7,3.9c0.7,0.5,1.2,1.4,1.2,2.3C88.1,127.9,86.9,129.1,85.3,129.1z M83.9,126.4c0,0,0,0.1,0,0.1
	c0.1,0.7,0.7,1.2,1.4,1.2c0.8,0,1.4-0.6,1.4-1.4c0-0.5-0.2-0.9-0.6-1.2c-0.8-0.6-1.4-1.3-1.6-2.1C84,124.2,83.6,125.4,83.9,126.4z"
	/>
<path fill="#FFCD03" d="M107.3,117.8L107.3,117.8c2.4-1.8,1.5-3.9,0.8-4.8c0.9,1.3,3.2,4.6,2.6,6.9h0c-0.2,1-1,1.8-2.1,1.8
	c-1.2,0-2.1-1-2.1-2.1C106.4,118.8,106.7,118.2,107.3,117.8z"/>
<path fill="#FFFFFF" d="M108.5,122.4c-1.6,0-2.8-1.3-2.8-2.8c0-0.9,0.4-1.8,1.2-2.3c1.4-1.1,1.7-2.4,0.7-3.9c-0.2-0.3-0.1-0.7,0.2-1
	c0.3-0.2,0.7-0.2,1,0.2c1.3,1.7,3.4,5,2.7,7.5C111.1,121.4,109.9,122.4,108.5,122.4z M109.3,116.3c-0.3,0.8-0.8,1.5-1.6,2.1
	c-0.4,0.3-0.6,0.7-0.6,1.2c0,0.8,0.6,1.4,1.4,1.4c0.7,0,1.3-0.5,1.4-1.2c0,0,0-0.1,0-0.1C110.2,118.7,109.9,117.4,109.3,116.3z"/>
<path fill="#FFCD03" d="M106.3,126.6c-1.4-2.2-3.2-4.2-5.1-6c1.2-2.3,2-4.2,2-4.2c3.3-7.7-0.3-16.6-8-19.9c5,2.1,7.4,8.1,5.2,12.8
	c-0.8,1.7-2.7,4-4.8,6.4c-1.5-1.2-2.7-2.3-3.5-3.3c-2.6-3.1-0.4-7.7-0.4-7.7s-3.3,1.3-4.1,6.2c-0.3,2,1.3,5.5,3.6,9.3
	c-2.3,2.4-4.4,4.5-5.1,5.4c-1.8,2.3-3.6,5.5-3.6,9c0,7.2,5.8,13,13,13c7.2,0,13-5.8,13-13C108.6,132,107.6,129.2,106.3,126.6z
	 M95.6,138.9c-3.7-3.7-1.7-8,0.6-11.3C98.7,131.5,99.4,135.1,95.6,138.9z"/>
<path fill="#FFFFFF" d="M95.6,148.4c-7.5,0-13.7-6.1-13.7-13.7c0-3,1.3-6.2,3.8-9.4c0.6-0.8,1.9-2.2,3.7-4c0.3-0.4,0.7-0.7,1.1-1.1
	c-2.6-4.3-3.7-7.4-3.4-9.3c0.8-5.3,4.4-6.7,4.5-6.8c0.3-0.1,0.6,0,0.8,0.2c0.2,0.2,0.2,0.5,0.1,0.8c0,0-1.9,4.1,0.3,6.9
	c0.6,0.8,1.6,1.6,2.8,2.7c2.2-2.5,3.6-4.4,4.2-5.7c1-2,1-4.3,0.2-6.5c-0.9-2.4-2.7-4.3-5-5.3c0,0,0,0,0,0l0,0
	c-0.4-0.2-0.5-0.6-0.4-0.9c0.2-0.4,0.6-0.5,0.9-0.4c3.9,1.7,6.9,4.7,8.5,8.6c1.6,3.9,1.6,8.2-0.1,12.1c0,0.1-0.7,1.7-1.8,3.8
	c2,2,3.6,3.9,4.8,5.8c0,0,0,0,0,0.1c1.6,3,2.4,5.9,2.4,8.4C109.3,142.3,103.1,148.4,95.6,148.4z M90.4,106.6c-0.8,0.9-1.7,2.3-2,4.5
	c-0.2,1.6,1,4.7,3.5,8.8c0.2,0.3,0.1,0.6-0.1,0.9c-0.5,0.5-1,1-1.4,1.5c-1.6,1.7-3.1,3.2-3.6,3.9c-2.3,3-3.5,5.9-3.5,8.6
	c0,6.8,5.5,12.3,12.3,12.3c6.8,0,12.3-5.5,12.3-12.3c0-2.4-0.7-5-2.2-7.8c-1.2-1.9-2.8-3.8-5-5.9c-0.2-0.2-0.3-0.6-0.1-0.8
	c1.2-2.2,2-4.1,2-4.1c1.5-3.6,1.5-7.5,0.1-11.1c-0.3-0.8-0.7-1.6-1.2-2.3c0.7,2.3,0.5,4.7-0.5,6.8c-0.7,1.5-2.3,3.7-4.9,6.5
	c-0.3,0.3-0.7,0.3-1,0.1c-1.6-1.4-2.8-2.4-3.6-3.4C89.9,110.8,90,108.3,90.4,106.6z M95.6,139.6L95.6,139.6c-0.2,0-0.4-0.1-0.5-0.2
	c-3.2-3.2-3-7.3,0.6-12.2c0.1-0.2,0.4-0.3,0.6-0.3c0.2,0,0.4,0.1,0.6,0.3c2.2,3.5,3.8,7.6-0.7,12.1C96,139.5,95.8,139.6,95.6,139.6z
	 M96.2,129c-2.4,3.6-2.6,6.5-0.6,8.9C98.3,134.8,97.9,132,96.2,129z"/>
<path fill="#FFCD03" d="M92.4,98.3L92.4,98.3c-2.4-1.8-1.5-3.9-0.8-4.8c-0.9,1.3-3.3,4.6-2.6,6.9h0c0.2,1,1,1.8,2.1,1.8
	c1.2,0,2.1-1,2.1-2.1C93.2,99.4,92.9,98.7,92.4,98.3z"/>
<path fill="#FFFFFF" d="M91.1,102.9c-1.4,0-2.6-1-2.8-2.3c-0.7-2.5,1.4-5.7,2.7-7.5c0.2-0.3,0.7-0.4,1-0.1c0.3,0.2,0.4,0.7,0.2,1
	c-1,1.5-0.8,2.8,0.7,3.9c0.7,0.5,1.2,1.4,1.2,2.3C94,101.6,92.7,102.9,91.1,102.9z M89.7,100.1c0,0,0,0.1,0,0.1
	c0.1,0.7,0.7,1.2,1.4,1.2c0.8,0,1.4-0.6,1.4-1.4c0-0.5-0.2-0.9-0.6-1.2c-0.8-0.6-1.4-1.3-1.6-2.1C89.7,98.1,89.4,99.3,89.7,100.1z"
	/>
<path fill="#515254" d="M0,101.1l0.3-7.4c0.2-4.4,2.5-7.1,6.3-6.9l0,0c4.1,0.2,6.1,3.4,5.9,7.7l-0.1,2.4l4.9,0.2l-0.2,4.8L0,101.1z
	 M8.8,94.4c0.1-1.7-0.8-2.8-2.1-2.8l0,0c-1.5-0.1-2.3,0.9-2.4,2.7l-0.1,2.2l4.5,0.2L8.8,94.4z"/>
<path fill="#515254" d="M1.8,79.2L4,71.3c0.7-2.5,1.9-4.1,3.3-4.9c1.2-0.7,2.6-0.8,4.3-0.4l0,0c2.5,0.7,3.8,2.5,4.1,4.9l6.9-2.3
	l-1.5,5.3l-6,1.9l0,0l-0.6,2l5,1.4l-1.3,4.6L1.8,79.2z M11.9,73.8c0.4-1.6-0.1-2.7-1.3-3l0,0c-1.3-0.4-2.2,0.4-2.7,1.9l-0.9,3l4,1.1
	L11.9,73.8z"/>
<path fill="#515254" d="M16.3,61.9L16.3,61.9c-4.3-2.5-5.7-8-3-12.6s8.1-5.9,12.4-3.4l0,0c4.3,2.5,5.7,8,3,12.6
	C25.9,63,20.5,64.4,16.3,61.9z M23.2,50.1L23.2,50.1c-2.2-1.3-5-0.9-6.3,1.4c-1.3,2.2-0.4,4.8,1.7,6.1l0,0c2.1,1.3,4.9,0.8,6.2-1.4
	C26.3,54,25.4,51.4,23.2,50.1z"/>
<path fill="#515254" d="M29.2,35.6l-3.6,3.7l-3-2.9l10.6-10.8l3,2.9l-3.6,3.7l9.3,9.2l-3.4,3.4L29.2,35.6z"/>
<path fill="#515254" d="M42.8,28.6L42.8,28.6c-2.6-4.3-1.3-9.8,3.3-12.5c4.5-2.8,10-1.4,12.5,2.8l0,0c2.6,4.2,1.3,9.7-3.3,12.5
	C50.8,34.2,45.4,32.8,42.8,28.6z M54.5,21.5L54.5,21.5c-1.3-2.2-4-3.1-6.2-1.7c-2.2,1.4-2.6,4.1-1.3,6.2l0,0c1.3,2.1,4,3,6.2,1.7
	C55.4,26.3,55.8,23.6,54.5,21.5z"/>
<path fill="#515254" d="M66.5,11.4L61.6,13l-1.2-4l14.4-4.5l1.2,4L71.1,10L75,22.5l-4.6,1.4L66.5,11.4z"/>
<path fill="#515254" d="M88.6,13.5L81.4,3.1l5.4-0.3l3.9,6.1L94,2.4L99.3,2l-5.9,11.1l0.4,6.5L89,19.9L88.6,13.5z"/>
<path fill="#515254" d="M106.3,2.7l7.3,1.3c4.3,0.8,6.7,3.5,6,7.2l0,0c-0.7,4-4.2,5.6-8.4,4.8l-2.3-0.4l-0.9,4.8l-4.7-0.8L106.3,2.7
	z M111.8,12.4c1.7,0.3,2.8-0.4,3.1-1.7l0,0c0.3-1.5-0.6-2.4-2.3-2.7l-2.2-0.4l-0.8,4.5L111.8,12.4z"/>
<path fill="#515254" d="M127.8,7.5l12.7,5.5l-1.6,3.7l-8.4-3.6l-1,2.4l7.6,3.3l-1.5,3.5L128,19l-1.1,2.5l8.5,3.7l-1.6,3.7L121,23.3
	L127.8,7.5z"/>
<path fill="#515254" d="M150.1,29.3L150.1,29.3c3.5-3.7,9-3.9,12.8-0.3c2.6,2.4,3.2,5,2.9,7.6l-4.5-0.4c0.1-1.6-0.2-2.9-1.4-4.1
	c-1.8-1.7-4.4-1.3-6.1,0.5l0,0c-1.8,1.9-1.9,4.5-0.2,6.2c1.3,1.2,2.7,1.4,4.3,1.1l0.9,4.3c-2.7,0.5-5.4,0.2-8.2-2.4
	C146.9,38.5,146.6,33,150.1,29.3z"/>
<path fill="#515254" d="M176.2,45.2l2.5,3.9l-10.8,15.5l-2.7-4.3l1.9-2.7l-3.5-5.6l-3.3,0.6l-2.7-4.2L176.2,45.2z M169.5,54.4
	l3.1-4.2l-5.2,1L169.5,54.4z"/>
<path fill="#515254" d="M185.6,62.6l1.4,4.8l-5.2,5.8l7.6,2.1l1.4,4.8L174.2,85l-1.3-4.6l9.5-2.8l-7.7-2.3l0-0.1l5.2-6.1l-9.4,2.8
	l-1.3-4.5L185.6,62.6z"/>
<path fill="#515254" d="M191.8,89.4l0.2,7.4c0.1,4.4-2.1,7.2-5.9,7.3l0,0c-4.1,0.1-6.3-3-6.4-7.3l-0.1-2.4l-4.9,0.1l-0.1-4.8
	L191.8,89.4z M183.4,96.7c0,1.7,0.9,2.7,2.3,2.7l0,0c1.5,0,2.2-1.1,2.2-2.8l0-2.2l-4.6,0.1L183.4,96.7z"/>
<g>
	<polygon fill="#FF0000" points="108.9,183.8 106.6,184.8 107.7,187 105.8,185.5 104.4,187.5 104.7,185.1 102.3,184.9 104.5,184 
		103.5,181.8 105.4,183.3 106.7,181.3 106.4,183.7 	"/>
</g>
<path fill="#67A8C8" d="M30.8,155.5L30.8,155.5c2-2,5.1-2.1,7.2,0.1c1.3,1.3,1.6,2.6,1.6,3.8l-2.1,0.1c0-1-0.3-1.9-1-2.6
	c-1.2-1.2-3-1.1-4.2,0.1l0,0c-1.2,1.2-1.4,3-0.2,4.2c0.8,0.8,1.6,1,2.6,1.1l0,2c-1.5,0-2.8-0.3-4.1-1.7
	C28.7,160.5,28.8,157.4,30.8,155.5z"/>
<path fill="#67A8C8" d="M42.4,160.1l1.7,1.3l-2.4,3.1l3.1,2.5l2.4-3.1l1.7,1.3l-6.1,7.7l-1.7-1.3l2.4-3.1l-3.1-2.5l-2.4,3.1
	l-1.7-1.3L42.4,160.1z"/>
<path fill="#67A8C8" d="M51.4,166.7l1.8,1.2l-5.3,8.3l-1.8-1.2L51.4,166.7z"/>
<path fill="#67A8C8" d="M52.8,173.5L52.8,173.5c1.3-2.5,4.2-3.6,6.9-2.2c1.7,0.8,2.4,1.9,2.8,3.1l-2,0.8c-0.4-1-0.9-1.7-1.7-2.1
	c-1.5-0.8-3.2-0.1-3.9,1.4l0,0c-0.8,1.5-0.4,3.3,1.1,4.1c1,0.5,1.8,0.4,2.8,0.1l0.6,1.9c-1.4,0.5-2.7,0.6-4.4-0.3
	C52.4,179,51.5,176.1,52.8,173.5z"/>
<path fill="#67A8C8" d="M68.6,175.2l1.9,0.6l0.8,10.7l-2.1-0.7l-0.1-2.4l-3.9-1.4l-1.6,1.8l-2.1-0.7L68.6,175.2z M68.9,181.4
	l-0.2-3.4l-2.3,2.6L68.9,181.4z"/>
<path fill="#67A8C8" d="M74.7,182.4L74.7,182.4c0.5-2.8,3.1-4.6,6-4c1.7,0.3,2.7,1,3.5,2.1l-1.7,1.4c-0.6-0.8-1.2-1.3-2.3-1.5
	c-1.5-0.3-3,0.8-3.4,2.5l0,0c-0.3,1.8,0.6,3.3,2.3,3.6c0.8,0.2,1.5,0.1,2.1-0.2l0.3-1.4l-2.1-0.4l0.4-1.8l4.2,0.8l-0.8,4.2
	c-1.2,0.6-2.7,1.1-4.4,0.7C75.8,187.8,74.1,185.3,74.7,182.4z"/>
<path fill="#67A8C8" d="M87.2,184.7L87.2,184.7c0.1-2.8,2.4-5,5.5-4.9c3,0.1,5.1,2.5,5,5.3l0,0c-0.1,2.8-2.4,5-5.5,4.9
	C89.1,189.8,87,187.5,87.2,184.7z M95.4,185L95.4,185c0.1-1.7-1.1-3.2-2.8-3.2c-1.7-0.1-3,1.3-3.1,2.9l0,0c-0.1,1.7,1.1,3.1,2.8,3.2
	C94,188,95.3,186.7,95.4,185z"/>
<path fill="#67A8C8" d="M113.5,183.3L113.5,183.3c-0.7-2.7,0.8-5.5,3.7-6.2c1.8-0.5,3-0.1,4.1,0.5l-0.9,1.9
	c-0.9-0.5-1.8-0.7-2.7-0.4c-1.6,0.4-2.4,2-2,3.7l0,0c0.4,1.6,1.9,2.7,3.5,2.3c1.1-0.3,1.6-0.9,2.2-1.8l1.7,1
	c-0.7,1.3-1.6,2.2-3.5,2.7C116.8,187.7,114.2,186.1,113.5,183.3z"/>
<path fill="#67A8C8" d="M126.5,174.1l1.8-0.8l7.7,7.5l-2.1,0.9l-1.7-1.7l-3.8,1.6l0,2.4l-2,0.8L126.5,174.1z M130.8,178.6l-2.4-2.4
	l0,3.5L130.8,178.6z"/>
<path fill="#67A8C8" d="M134.3,170.7l2-1.2l4.4,2.2l0-4.9l2-1.2l5.1,8.4l-1.8,1.1l-3.3-5.5l-0.2,5l0,0l-4.5-2.1l3.3,5.5l-1.8,1.1
	L134.3,170.7z"/>
<path fill="#67A8C8" d="M145.3,163.6l3.1-2.6c1.8-1.5,3.8-1.3,5.1,0.2l0,0c1.4,1.8,0.8,3.8-0.9,5.2l-1.3,1l1.9,2.3l-1.7,1.4
	L145.3,163.6z M151.5,165c0.8-0.7,0.9-1.6,0.4-2.2l0,0c-0.6-0.7-1.5-0.7-2.3,0l-1.3,1.1l1.9,2.3L151.5,165z"/>
<path fill="#67A8C8" d="M158.5,163.5l-0.2-2c1.1-0.1,2.1-0.5,2.9-1.3c0.6-0.6,0.7-1.3,0.3-1.7l0,0c-0.4-0.4-0.8-0.3-2.3,0.6
	c-1.7,1.1-3,1.6-4.4,0.3l0,0c-1.3-1.2-1.2-3.1,0.2-4.5c1-1,2.2-1.6,3.4-1.8l0.4,1.9c-1,0.2-1.9,0.6-2.5,1.2
	c-0.6,0.6-0.6,1.2-0.3,1.5l0,0c0.5,0.4,0.9,0.3,2.4-0.6c1.8-1.1,3.1-1.4,4.3-0.2l0,0c1.4,1.4,1.2,3.2-0.3,4.7
	C161.5,162.6,160.1,163.4,158.5,163.5z"/>
</svg>
