<?xml version="1.0" encoding="utf-8"?>
<!-- Generator: Adobe Illustrator 18.1.0, SVG Export Plug-In . SVG Version: 6.00 Build 0)  -->
<!DOCTYPE svg PUBLIC "-//W3C//DTD SVG 1.1//EN" "http://www.w3.org/Graphics/SVG/1.1/DTD/svg11.dtd">
<svg version="1.1" id="Layer_1" xmlns="http://www.w3.org/2000/svg" xmlns:xlink="http://www.w3.org/1999/xlink" x="0px" y="0px"
	 viewBox="0 0 270 270" enable-background="new 0 0 270 270" xml:space="preserve">
<g>
	<g>
		<g>
			<path fill="#FFFFFF" d="M71.3,181.4h2.4l2.1,7l2.3-7h1.9l2.3,7l2.1-7H87l-3.5,10.4h-2l-2.3-6.7l-2.3,6.7h-2L71.3,181.4z"/>
			<path fill="#FFFFFF" d="M92.6,186.6L92.6,186.6c0-3,2.3-5.4,5.5-5.4s5.5,2.4,5.5,5.3v0c0,2.9-2.3,5.3-5.5,5.3
				C94.9,191.9,92.6,189.5,92.6,186.6z M101.2,186.6L101.2,186.6c0-1.8-1.3-3.3-3.1-3.3c-1.8,0-3.1,1.4-3.1,3.2v0
				c0,1.8,1.3,3.2,3.1,3.2C100,189.8,101.2,188.3,101.2,186.6z"/>
			<path fill="#FFFFFF" d="M110,181.4h4.7c1.3,0,2.3,0.4,3,1c0.6,0.6,0.9,1.4,0.9,2.4v0c0,1.7-0.9,2.7-2.2,3.2l2.5,3.7h-2.7
				l-2.2-3.3h0h-1.8v3.3H110V181.4z M114.6,186.4c1.1,0,1.7-0.6,1.7-1.5v0c0-1-0.7-1.5-1.8-1.5h-2.3v3H114.6z"/>
			<path fill="#FFFFFF" d="M125.1,181.4h2.3v4.5l4.2-4.5h2.7l-4.2,4.4l4.4,5.9h-2.7l-3.2-4.4l-1.2,1.2v3.2h-2.3V181.4z"/>
			<path fill="#FFFFFF" d="M139.6,190.2l1.3-1.6c0.9,0.8,1.9,1.3,3.1,1.3c0.9,0,1.5-0.4,1.5-1v0c0-0.6-0.4-0.9-2.1-1.3
				c-2.1-0.5-3.4-1.1-3.4-3.2v0c0-1.9,1.5-3.1,3.6-3.1c1.5,0,2.8,0.5,3.8,1.3l-1.2,1.7c-0.9-0.6-1.8-1-2.7-1s-1.3,0.4-1.3,0.9v0
				c0,0.7,0.4,0.9,2.2,1.4c2.1,0.5,3.3,1.3,3.3,3.1v0c0,2-1.6,3.2-3.8,3.2C142.4,191.8,140.8,191.3,139.6,190.2z"/>
			<path fill="#FFFFFF" d="M154.1,181.4h2.3v4.1h4.2v-4.1h2.3v10.3h-2.3v-4.1h-4.2v4.1h-2.3V181.4z"/>
			<path fill="#FFFFFF" d="M169.3,186.6L169.3,186.6c0-3,2.3-5.4,5.5-5.4s5.5,2.4,5.5,5.3v0c0,2.9-2.3,5.3-5.5,5.3
				S169.3,189.5,169.3,186.6z M177.8,186.6L177.8,186.6c0-1.8-1.3-3.3-3.1-3.3c-1.8,0-3.1,1.4-3.1,3.2v0c0,1.8,1.3,3.2,3.1,3.2
				C176.6,189.8,177.8,188.3,177.8,186.6z"/>
			<path fill="#FFFFFF" d="M186.7,181.4h4.2c2.5,0,3.9,1.5,3.9,3.6v0c0,2.4-1.9,3.6-4.2,3.6h-1.7v3.1h-2.3V181.4z M190.7,186.6
				c1.1,0,1.8-0.7,1.8-1.6v0c0-1-0.7-1.6-1.8-1.6h-1.8v3.2H190.7z"/>
		</g>
		<g>
			<path fill="#FFFFFF" d="M15.8,115.6h7.5L39,152.7h-8.5l-3.4-8.3H11.6l-3.4,8.3H0L15.8,115.6z M24.3,137.3l-4.9-11.9l-4.9,11.9
				H24.3z"/>
			<path fill="#FFFFFF" d="M53.4,134l-12.3-18.1h9.5l7.7,11.9l7.8-11.9h9.2l-12.3,18l12.8,18.8h-9.5l-8.3-12.6l-8.3,12.6h-9.2
				L53.4,134z"/>
			<path fill="#FFFFFF" d="M80,136.9v-21h8.1v20.8c0,6,3,9.1,7.9,9.1c4.9,0,7.9-3,7.9-8.8v-21.1h8.1v20.8c0,11.2-6.3,16.6-16.1,16.6
				S80,147.8,80,136.9z"/>
			<path fill="#FFFFFF" d="M119,115.9h16.8c4.7,0,8.3,1.3,10.7,3.7c2.1,2.1,3.2,4.9,3.2,8.4v0.1c0,5.9-3.2,9.7-7.9,11.4l9,13.2h-9.5
				l-7.9-11.8h-0.1h-6.3v11.8H119V115.9z M135.3,133.8c3.9,0,6.2-2.1,6.2-5.2v-0.1c0-3.5-2.4-5.3-6.4-5.3h-8v10.6H135.3z"/>
			<path fill="#FFFFFF" d="M155.7,115.9h27.8v7.2h-19.7v7.5h17.4v7.2h-17.4v7.7h20v7.2h-28V115.9z"/>
			<path fill="#FFFFFF" d="M204.1,115.9H221c4.7,0,8.3,1.3,10.7,3.7c2.1,2.1,3.2,4.9,3.2,8.4v0.1c0,5.9-3.2,9.7-7.9,11.4l9,13.2
				h-9.5l-7.9-11.8h-0.1h-6.3v11.8h-8.1V115.9z M220.4,133.8c3.9,0,6.2-2.1,6.2-5.2v-0.1c0-3.5-2.4-5.3-6.4-5.3h-8v10.6H220.4z"/>
			<path fill="#FFFFFF" d="M240.9,115.9h15c8.8,0,14.1,5.2,14.1,12.7v0.1c0,8.5-6.6,12.9-14.9,12.9H249v11h-8.1V115.9z M255.4,134.4
				c4.1,0,6.4-2.4,6.4-5.6v-0.1c0-3.6-2.5-5.6-6.6-5.6H249v11.3H255.4z"/>
		</g>
		<g>
			<g>
				<path fill="#FFFFFF" d="M82.8,89c-2.9,0-5-2.2-5-5v0c0-2.8,2.1-5.1,5.1-5.1c1.8,0,2.9,0.6,3.9,1.5L85.4,82
					c-0.8-0.7-1.5-1.1-2.5-1.1c-1.6,0-2.8,1.4-2.8,3v0c0,1.7,1.2,3.1,2.8,3.1c1.1,0,1.8-0.4,2.6-1.1l1.4,1.4
					C85.8,88.3,84.7,89,82.8,89z"/>
				<path fill="#FFFFFF" d="M93.6,88.8v-3.9h-4v3.9h-2.2v-9.8h2.2v3.9h4v-3.9h2.2v9.8H93.6z"/>
				<path fill="#FFFFFF" d="M97.2,88.8v-9.8h2.2v9.8H97.2z"/>
				<path fill="#FFFFFF" d="M105.4,89c-2.9,0-5-2.2-5-5v0c0-2.8,2.1-5.1,5.1-5.1c1.8,0,2.9,0.6,3.9,1.5L108,82
					c-0.8-0.7-1.5-1.1-2.5-1.1c-1.6,0-2.8,1.4-2.8,3v0c0,1.7,1.2,3.1,2.8,3.1c1.1,0,1.8-0.4,2.6-1.1l1.4,1.4
					C108.4,88.3,107.3,89,105.4,89z"/>
				<path fill="#FFFFFF" d="M117.4,88.8l-0.9-2.2h-4.1l-0.9,2.2h-2.2l4.2-9.9h2l4.2,9.9H117.4z M114.4,81.6l-1.3,3.2h2.6L114.4,81.6
					z"/>
				<path fill="#FFFFFF" d="M124.3,89c-3,0-5.1-2.1-5.1-5v0c0-2.8,2.2-5.1,5.1-5.1c1.8,0,2.8,0.5,3.8,1.3l-1.4,1.6
					c-0.8-0.6-1.4-1-2.6-1c-1.6,0-2.8,1.4-2.8,3v0c0,1.8,1.2,3.1,3,3.1c0.8,0,1.5-0.2,2-0.6v-1.4h-2.2v-1.9h4.3v4.3
					C127.4,88.3,126,89,124.3,89z"/>
				<path fill="#FFFFFF" d="M134.3,89c-3,0-5.2-2.3-5.2-5v0c0-2.8,2.2-5.1,5.2-5.1c3,0,5.2,2.3,5.2,5v0
					C139.5,86.7,137.3,89,134.3,89z M137.3,83.9c0-1.7-1.2-3.1-3-3.1c-1.7,0-2.9,1.4-2.9,3v0c0,1.7,1.2,3.1,3,3.1
					C136.1,87,137.3,85.7,137.3,83.9L137.3,83.9z"/>
				<path fill="#FFFFFF" d="M151.9,89c-2.9,0-5-2.2-5-5v0c0-2.8,2.1-5.1,5.1-5.1c1.8,0,3,0.6,3.9,1.5l-1.4,1.6
					c-0.8-0.7-1.5-1.1-2.5-1.1c-1.6,0-2.8,1.4-2.8,3v0c0,1.7,1.2,3.1,2.8,3.1c1.1,0,1.8-0.4,2.6-1.1l1.4,1.4
					C154.9,88.3,153.8,89,151.9,89z"/>
				<path fill="#FFFFFF" d="M163.9,88.8l-0.9-2.2h-4.1l-0.9,2.2h-2.2L160,79h2l4.2,9.9H163.9z M160.9,81.6l-1.3,3.2h2.6L160.9,81.6z
					"/>
				<path fill="#FFFFFF" d="M174.3,88.8v-6.4l-2.8,4.2h-0.1l-2.7-4.1v6.3h-2.1v-9.8h2.3l2.6,4.1l2.6-4.1h2.3v9.8H174.3z"/>
				<path fill="#FFFFFF" d="M181.7,85.9H180v2.9h-2.2v-9.8h4c2.3,0,3.7,1.4,3.7,3.4v0C185.6,84.7,183.9,85.9,181.7,85.9z
					 M183.4,82.5c0-1-0.7-1.5-1.7-1.5H180v3h1.7C182.8,84,183.4,83.3,183.4,82.5L183.4,82.5z"/>
				<path fill="#FFFFFF" d="M189.7,89c-1.5,0-3-0.5-4.2-1.6l1.3-1.5c0.9,0.7,1.8,1.2,2.9,1.2c0.9,0,1.4-0.4,1.4-0.9v0
					c0-0.5-0.3-0.8-2-1.2c-2-0.5-3.2-1-3.2-3v0c0-1.8,1.4-3,3.4-3c1.4,0,2.6,0.4,3.6,1.2l-1.1,1.6c-0.9-0.6-1.7-1-2.5-1
					c-0.8,0-1.3,0.4-1.3,0.9v0c0,0.6,0.4,0.9,2.1,1.3c2,0.5,3.1,1.2,3.1,2.9v0C193.3,87.9,191.9,89,189.7,89z"/>
			</g>
			<polygon fill="#FFFFFF" points="143.2,82.1 143.5,83.6 145.1,83.2 143.9,84.2 145.1,85.3 143.5,84.9 143.2,86.4 142.8,84.9 
				141.3,85.3 142.5,84.2 141.3,83.2 142.8,83.6 			"/>
		</g>
		<g>
			<polygon fill="#FFFFFF" points="43.1,102.8 43.1,81.6 135.5,28.2 228,81.6 228,102.8 233.7,102.8 233.7,78.3 135.5,21.7 
				37.4,78.3 37.4,102.8 			"/>
			<polygon fill="#FFFFFF" points="228,167.2 228,188.4 135.5,241.8 43.1,188.4 43.1,167.2 37.4,167.2 37.4,191.7 135.5,248.3 
				233.7,191.7 233.7,167.2 			"/>
		</g>
	</g>
</g>
</svg>
