<?xml version="1.0" encoding="utf-8"?>
<!-- Generator: Adobe Illustrator 18.1.0, SVG Export Plug-In . SVG Version: 6.00 Build 0)  -->
<!DOCTYPE svg PUBLIC "-//W3C//DTD SVG 1.1//EN" "http://www.w3.org/Graphics/SVG/1.1/DTD/svg11.dtd">
<svg version="1.1" id="Layer_1" xmlns="http://www.w3.org/2000/svg" xmlns:xlink="http://www.w3.org/1999/xlink" x="0px" y="0px"
	 viewBox="0 0 270 270" enable-background="new 0 0 270 270" xml:space="preserve">
<path fill="#FFFFFF" d="M70.3,181.3h2.4l2.1,7l2.3-7h1.9l2.3,7l2.1-7h2.4l-3.5,10.4h-2l-2.3-6.7l-2.3,6.7h-2L70.3,181.3z"/>
<path fill="#FFFFFF" d="M91.6,186.5L91.6,186.5c0-3,2.3-5.4,5.5-5.4c3.2,0,5.5,2.4,5.5,5.3v0c0,2.9-2.3,5.3-5.5,5.3
	C93.8,191.8,91.6,189.4,91.6,186.5z M100.1,186.5L100.1,186.5c0-1.8-1.3-3.3-3.1-3.3c-1.8,0-3.1,1.4-3.1,3.2v0
	c0,1.8,1.3,3.2,3.1,3.2C98.9,189.7,100.1,188.2,100.1,186.5z"/>
<path fill="#FFFFFF" d="M108.9,181.3h4.7c1.3,0,2.3,0.4,3,1c0.6,0.6,0.9,1.4,0.9,2.4v0c0,1.7-0.9,2.7-2.2,3.2l2.5,3.7h-2.6l-2.2-3.3
	h0h-1.7v3.3h-2.3V181.3z M113.5,186.3c1.1,0,1.7-0.6,1.7-1.5v0c0-1-0.7-1.5-1.8-1.5h-2.2v3H113.5z"/>
<path fill="#FFFFFF" d="M124,181.3h2.3v4.5l4.2-4.5h2.7l-4.2,4.4l4.4,5.9h-2.7l-3.2-4.4l-1.2,1.2v3.1H124V181.3z"/>
<path fill="#FFFFFF" d="M138.4,190.1l1.3-1.6c0.9,0.8,1.9,1.2,3.1,1.2c0.9,0,1.5-0.4,1.5-1v0c0-0.6-0.4-0.9-2.1-1.3
	c-2.1-0.5-3.4-1.1-3.4-3.1v0c0-1.9,1.5-3.1,3.6-3.1c1.5,0,2.8,0.5,3.8,1.3l-1.2,1.7c-0.9-0.6-1.8-1-2.7-1s-1.3,0.4-1.3,0.9v0
	c0,0.7,0.4,0.9,2.2,1.4c2.1,0.5,3.3,1.3,3.3,3.1v0c0,2-1.6,3.2-3.8,3.2C141.2,191.7,139.6,191.2,138.4,190.1z"/>
<path fill="#FFFFFF" d="M152.9,181.3h2.3v4.1h4.2v-4.1h2.3v10.3h-2.3v-4.1h-4.2v4.1h-2.3V181.3z"/>
<path fill="#FFFFFF" d="M168.1,186.5L168.1,186.5c0-3,2.3-5.4,5.5-5.4c3.2,0,5.5,2.4,5.5,5.3v0c0,2.9-2.3,5.3-5.5,5.3
	C170.3,191.8,168.1,189.4,168.1,186.5z M176.6,186.5L176.6,186.5c0-1.8-1.3-3.3-3.1-3.3c-1.8,0-3.1,1.4-3.1,3.2v0
	c0,1.8,1.3,3.2,3.1,3.2C175.4,189.7,176.6,188.2,176.6,186.5z"/>
<path fill="#FFFFFF" d="M185.4,181.3h4.2c2.5,0,3.9,1.5,3.9,3.6v0c0,2.4-1.9,3.6-4.2,3.6h-1.7v3.1h-2.3V181.3z M189.5,186.5
	c1.1,0,1.8-0.7,1.8-1.6v0c0-1-0.7-1.6-1.8-1.6h-1.7v3.1H189.5z"/>
<path fill="#FFFFFF" d="M0,108h12.3c3.4,0,6,1,7.8,2.7c1.5,1.5,2.3,3.6,2.3,6.1v0.1c0,4.3-2.3,7-5.7,8.3l6.5,9.6h-6.9l-5.7-8.6h-0.1
	H5.9v8.6H0V108z M11.9,121c2.9,0,4.5-1.5,4.5-3.8v-0.1c0-2.5-1.8-3.8-4.6-3.8H5.9v7.7H11.9z"/>
<path fill="#FFFFFF" d="M27.7,108h20.2v5.2H33.5v5.4h12.6v5.2H33.5v5.6h14.5v5.2H27.7V108z"/>
<path fill="#FFFFFF" d="M62.5,107.8h5.4l11.5,27h-6.2l-2.5-6H59.5l-2.5,6h-6L62.5,107.8z M68.7,123.6l-3.6-8.7l-3.6,8.7H68.7z"/>
<path fill="#FFFFFF" d="M83.5,108h5.9v21.4h13.4v5.4H83.5V108z"/>
<path fill="#FFFFFF" d="M116.5,108h6.3l5.6,18.1l6-18.2h5.1l6,18.2L151,108h6.2l-9.1,27h-5.1l-6-17.5l-6,17.5h-5.1L116.5,108z"/>
<path fill="#FFFFFF" d="M160.3,121.5L160.3,121.5c0-7.7,6-13.9,14.3-13.9c8.3,0,14.2,6.2,14.2,13.8v0.1c0,7.6-6,13.9-14.3,13.9
	C166.3,135.3,160.3,129.1,160.3,121.5z M182.6,121.5L182.6,121.5c0-4.7-3.4-8.5-8.1-8.5c-4.7,0-8,3.8-8,8.3v0.1
	c0,4.6,3.4,8.4,8.1,8.4C179.4,129.8,182.6,126.1,182.6,121.5z"/>
<path fill="#FFFFFF" d="M194,108h12.3c3.4,0,6,1,7.8,2.7c1.5,1.5,2.3,3.6,2.3,6.1v0.1c0,4.3-2.3,7-5.7,8.3l6.5,9.6h-6.9l-5.7-8.6
	h-0.1h-4.6v8.6H194V108z M205.9,121c2.9,0,4.5-1.5,4.5-3.8v-0.1c0-2.5-1.8-3.8-4.6-3.8h-5.9v7.7H205.9z"/>
<path fill="#FFFFFF" d="M221.7,108h5.9v21.4h13.4v5.4h-19.3V108z"/>
<path fill="#FFFFFF" d="M245.3,108h10.5c8.4,0,14.2,5.8,14.2,13.3v0.1c0,7.5-5.8,13.4-14.2,13.4h-10.5V108z M255.8,129.5
	c4.8,0,8.1-3.3,8.1-8v-0.1c0-4.7-3.3-8.1-8.1-8.1h-4.6v16.2H255.8z"/>
<path fill="#FFFFFF" d="M0,142.2h8.2c2.3,0,4,0.6,5.2,1.8c1,1,1.5,2.4,1.5,4.1v0.1c0,2.9-1.6,4.7-3.8,5.5l4.4,6.4h-4.6L7,154.3H7h-3
	v5.7H0V142.2z M7.9,150.8c1.9,0,3-1,3-2.5v-0.1c0-1.7-1.2-2.6-3.1-2.6H3.9v5.1H7.9z"/>
<path fill="#FFFFFF" d="M17.9,142.2h13.5v3.5h-9.6v3.6h8.4v3.5h-8.4v3.8h9.7v3.5H17.9V142.2z"/>
<path fill="#FFFFFF" d="M33.3,157.4l2.3-2.8c1.6,1.3,3.3,2.2,5.3,2.2c1.6,0,2.6-0.6,2.6-1.7v-0.1c0-1-0.6-1.5-3.6-2.3
	c-3.6-0.9-5.9-1.9-5.9-5.5v-0.1c0-3.2,2.6-5.4,6.3-5.4c2.6,0,4.8,0.8,6.6,2.3l-2,3c-1.6-1.1-3.1-1.8-4.6-1.8c-1.5,0-2.3,0.7-2.3,1.6
	v0.1c0,1.2,0.8,1.6,3.9,2.3c3.6,0.9,5.7,2.2,5.7,5.4v0.1c0,3.5-2.7,5.5-6.6,5.5C38.1,160.3,35.4,159.3,33.3,157.4z"/>
<path fill="#FFFFFF" d="M50.3,142.2h7.3c4.3,0,6.8,2.5,6.8,6.2v0.1c0,4.1-3.2,6.3-7.2,6.3h-3v5.4h-3.9V142.2z M57.3,151.2
	c2,0,3.1-1.2,3.1-2.7v-0.1c0-1.8-1.2-2.7-3.2-2.7h-3v5.5H57.3z"/>
<path fill="#FFFFFF" d="M66,151.1L66,151.1c0-5.1,4-9.3,9.5-9.3S85,146,85,151v0.1c0,5.1-4,9.2-9.5,9.2C70,160.3,66,156.2,66,151.1z
	 M80.9,151.1L80.9,151.1c0-3.1-2.2-5.7-5.4-5.7c-3.2,0-5.4,2.5-5.4,5.6v0.1c0,3.1,2.2,5.6,5.4,5.6S80.9,154.2,80.9,151.1z"/>
<path fill="#FFFFFF" d="M87.9,142.2h3.6l8.4,11v-11h3.9V160h-3.3l-8.7-11.4V160h-3.9V142.2z"/>
<path fill="#FFFFFF" d="M106.3,157.4l2.3-2.8c1.6,1.3,3.3,2.2,5.3,2.2c1.6,0,2.6-0.6,2.6-1.7v-0.1c0-1-0.6-1.5-3.6-2.3
	c-3.6-0.9-5.9-1.9-5.9-5.5v-0.1c0-3.2,2.6-5.4,6.3-5.4c2.6,0,4.8,0.8,6.6,2.3l-2,3c-1.6-1.1-3.1-1.8-4.6-1.8c-1.5,0-2.3,0.7-2.3,1.6
	v0.1c0,1.2,0.8,1.6,3.9,2.3c3.6,0.9,5.7,2.2,5.7,5.4v0.1c0,3.5-2.7,5.5-6.6,5.5C111.2,160.3,108.5,159.3,106.3,157.4z"/>
<path fill="#FFFFFF" d="M123.5,142.2h3.9V160h-3.9V142.2z"/>
<path fill="#FFFFFF" d="M129.9,142.2h4.3l4.7,12.6l4.7-12.6h4.2l-7.2,18h-3.5L129.9,142.2z"/>
<path fill="#FFFFFF" d="M150,142.2h13.5v3.5h-9.6v3.6h8.4v3.5h-8.4v3.8h9.7v3.5H150V142.2z"/>
<path fill="#FFFFFF" d="M173.7,142.2h7c5.6,0,9.5,3.9,9.5,8.9v0.1c0,5-3.9,8.9-9.5,8.9h-7V142.2z M180.7,156.5
	c3.2,0,5.4-2.2,5.4-5.3v-0.1c0-3.2-2.2-5.4-5.4-5.4h-3v10.8H180.7z"/>
<path fill="#FFFFFF" d="M193.1,142.2h13.5v3.5H197v3.6h8.4v3.5H197v3.8h9.7v3.5h-13.6V142.2z"/>
<path fill="#FFFFFF" d="M208.5,157.4l2.3-2.8c1.6,1.3,3.3,2.2,5.3,2.2c1.6,0,2.6-0.6,2.6-1.7v-0.1c0-1-0.6-1.5-3.6-2.3
	c-3.6-0.9-5.9-1.9-5.9-5.5v-0.1c0-3.2,2.6-5.4,6.3-5.4c2.6,0,4.8,0.8,6.6,2.3l-2,3c-1.6-1.1-3.1-1.8-4.6-1.8s-2.3,0.7-2.3,1.6v0.1
	c0,1.2,0.8,1.6,3.9,2.3c3.6,0.9,5.7,2.2,5.7,5.4v0.1c0,3.5-2.7,5.5-6.6,5.5C213.3,160.3,210.6,159.3,208.5,157.4z"/>
<path fill="#FFFFFF" d="M225.7,142.2h3.9V160h-3.9V142.2z"/>
<path fill="#FFFFFF" d="M232.7,151.1L232.7,151.1c0-5.1,4-9.3,9.4-9.3c3.2,0,5.2,0.9,7,2.5l-2.5,3c-1.4-1.1-2.6-1.8-4.7-1.8
	c-2.9,0-5.1,2.5-5.1,5.6v0.1c0,3.3,2.2,5.7,5.4,5.7c1.4,0,2.7-0.4,3.7-1.1v-2.6h-4v-3.4h7.8v7.8c-1.8,1.6-4.4,2.8-7.6,2.8
	C236.5,160.3,232.7,156.4,232.7,151.1z"/>
<path fill="#FFFFFF" d="M253,142.2h3.6l8.4,11v-11h3.9V160h-3.3l-8.7-11.4V160H253V142.2z"/>
<g>
	<path fill="#FFFFFF" d="M81.7,89.1c-2.9,0-5-2.2-5-5v0c0-2.8,2.1-5.1,5.1-5.1c1.8,0,2.9,0.6,3.9,1.5l-1.4,1.6
		c-0.8-0.7-1.5-1.1-2.5-1.1c-1.6,0-2.8,1.4-2.8,3v0c0,1.7,1.2,3.1,2.8,3.1c1.1,0,1.8-0.4,2.6-1.1l1.4,1.4
		C84.7,88.4,83.6,89.1,81.7,89.1z"/>
	<path fill="#FFFFFF" d="M92.5,88.9V85h-4v3.9h-2.1v-9.8h2.1V83h4v-3.9h2.1v9.8H92.5z"/>
	<path fill="#FFFFFF" d="M96.2,88.9v-9.8h2.1v9.8H96.2z"/>
	<path fill="#FFFFFF" d="M104.3,89.1c-2.9,0-5-2.2-5-5v0c0-2.8,2.1-5.1,5.1-5.1c1.8,0,2.9,0.6,3.8,1.5l-1.4,1.6
		c-0.8-0.7-1.5-1.1-2.5-1.1c-1.6,0-2.8,1.4-2.8,3v0c0,1.7,1.2,3.1,2.8,3.1c1.1,0,1.8-0.4,2.6-1.1l1.4,1.4
		C107.3,88.4,106.2,89.1,104.3,89.1z"/>
	<path fill="#FFFFFF" d="M116.3,88.9l-0.9-2.2h-4.1l-0.9,2.2h-2.2l4.2-9.8h2l4.2,9.8H116.3z M113.3,81.7l-1.3,3.2h2.6L113.3,81.7z"
		/>
	<path fill="#FFFFFF" d="M123.1,89.1c-3,0-5.1-2.1-5.1-5v0c0-2.8,2.2-5.1,5.1-5.1c1.8,0,2.8,0.5,3.8,1.3l-1.4,1.6
		c-0.8-0.6-1.4-1-2.6-1c-1.6,0-2.8,1.4-2.8,3v0c0,1.8,1.2,3.1,3,3.1c0.8,0,1.5-0.2,2-0.6v-1.4h-2.2v-1.9h4.2v4.2
		C126.3,88.4,124.9,89.1,123.1,89.1z"/>
	<path fill="#FFFFFF" d="M133.2,89.1c-3,0-5.2-2.2-5.2-5v0c0-2.8,2.2-5.1,5.2-5.1c3,0,5.2,2.2,5.2,5v0
		C138.4,86.8,136.2,89.1,133.2,89.1z M136.1,84c0-1.7-1.2-3.1-3-3.1c-1.7,0-2.9,1.4-2.9,3v0c0,1.7,1.2,3.1,3,3.1
		C134.9,87.1,136.1,85.7,136.1,84L136.1,84z"/>
	<path fill="#FFFFFF" d="M150.7,89.1c-2.9,0-5-2.2-5-5v0c0-2.8,2.1-5.1,5.1-5.1c1.8,0,2.9,0.6,3.9,1.5l-1.4,1.6
		c-0.8-0.7-1.5-1.1-2.5-1.1c-1.6,0-2.8,1.4-2.8,3v0c0,1.7,1.2,3.1,2.8,3.1c1.1,0,1.8-0.4,2.6-1.1l1.4,1.4
		C153.7,88.4,152.6,89.1,150.7,89.1z"/>
	<path fill="#FFFFFF" d="M162.7,88.9l-0.9-2.2h-4.1l-0.9,2.2h-2.2l4.2-9.8h2l4.2,9.8H162.7z M159.7,81.7l-1.3,3.2h2.6L159.7,81.7z"
		/>
	<path fill="#FFFFFF" d="M173,88.9v-6.4l-2.8,4.2h-0.1l-2.7-4.1v6.3h-2.1v-9.8h2.3l2.6,4.1l2.6-4.1h2.3v9.8H173z"/>
	<path fill="#FFFFFF" d="M180.4,86h-1.6v2.9h-2.1v-9.8h4c2.3,0,3.7,1.4,3.7,3.4v0C184.4,84.8,182.6,86,180.4,86z M182.2,82.6
		c0-1-0.7-1.5-1.7-1.5h-1.7v3h1.7C181.6,84.1,182.2,83.4,182.2,82.6L182.2,82.6z"/>
	<path fill="#FFFFFF" d="M188.5,89.1c-1.5,0-3-0.5-4.1-1.6l1.3-1.5c0.9,0.7,1.8,1.2,2.9,1.2c0.9,0,1.4-0.3,1.4-0.9v0
		c0-0.5-0.3-0.8-2-1.2c-2-0.5-3.2-1-3.2-3v0c0-1.8,1.4-2.9,3.4-2.9c1.4,0,2.6,0.4,3.6,1.2l-1.1,1.6c-0.9-0.6-1.7-1-2.5-1
		c-0.8,0-1.3,0.4-1.3,0.9v0c0,0.6,0.4,0.9,2.1,1.3c2,0.5,3.1,1.2,3.1,2.9v0C192.1,88,190.6,89.1,188.5,89.1z"/>
</g>
<polygon fill="#FFFFFF" points="142,82.2 142.4,83.7 143.9,83.3 142.8,84.3 143.9,85.4 142.4,85 142,86.5 141.7,85 140.2,85.4 
	141.3,84.3 140.2,83.3 141.7,83.7 "/>
<polygon fill="#FFFFFF" points="42.1,102.9 42.1,81.7 134.4,28.4 226.7,81.7 226.7,102.9 232.4,102.9 232.4,78.4 134.4,21.9 
	36.5,78.4 36.5,102.9 "/>
<polygon fill="#FFFFFF" points="226.7,167.1 226.7,188.3 134.4,241.6 42.1,188.3 42.1,167.1 36.5,167.1 36.5,191.6 134.4,248.1 
	232.4,191.6 232.4,167.1 "/>
</svg>
