<?xml version="1.0" encoding="utf-8"?>
<!-- Generator: Adobe Illustrator 18.1.0, SVG Export Plug-In . SVG Version: 6.00 Build 0)  -->
<!DOCTYPE svg PUBLIC "-//W3C//DTD SVG 1.1//EN" "http://www.w3.org/Graphics/SVG/1.1/DTD/svg11.dtd">
<svg version="1.1" id="Layer_1" xmlns="http://www.w3.org/2000/svg" xmlns:xlink="http://www.w3.org/1999/xlink" x="0px" y="0px"
	 viewBox="0 0 192 192" enable-background="new 0 0 192 192" xml:space="preserve">
<path fill="#67A8C8" d="M50,128.9h1.7l1.5,5l1.6-5h1.4l1.6,5l1.5-5h1.7l-2.5,7.4h-1.4l-1.7-4.8l-1.7,4.8h-1.4L50,128.9z"/>
<path fill="#67A8C8" d="M65.1,132.6L65.1,132.6c0-2.1,1.6-3.8,3.9-3.8s3.9,1.7,3.9,3.8v0c0,2.1-1.6,3.8-3.9,3.8
	S65.1,134.7,65.1,132.6z M71.2,132.6L71.2,132.6c0-1.3-0.9-2.3-2.2-2.3s-2.2,1-2.2,2.3v0c0,1.3,0.9,2.3,2.2,2.3
	C70.3,134.9,71.2,133.9,71.2,132.6z"/>
<path fill="#67A8C8" d="M77.5,128.9h3.3c0.9,0,1.7,0.3,2.1,0.7c0.4,0.4,0.6,1,0.6,1.7v0c0,1.2-0.6,1.9-1.6,2.3l1.8,2.6h-1.9
	l-1.6-2.3h0h-1.2v2.3h-1.6V128.9z M80.7,132.5c0.8,0,1.2-0.4,1.2-1v0c0-0.7-0.5-1-1.3-1h-1.6v2.1H80.7z"/>
<path fill="#67A8C8" d="M88.2,128.9h1.6v3.2l3-3.2h1.9l-3,3.1l3.1,4.2h-1.9l-2.3-3.1l-0.8,0.9v2.2h-1.6V128.9z"/>
<path fill="#67A8C8" d="M98.4,135.2l1-1.1c0.7,0.5,1.3,0.9,2.2,0.9c0.7,0,1.1-0.3,1.1-0.7v0c0-0.4-0.3-0.6-1.5-0.9
	c-1.5-0.4-2.4-0.8-2.4-2.2v0c0-1.3,1.1-2.2,2.6-2.2c1.1,0,2,0.3,2.7,0.9l-0.8,1.2c-0.6-0.4-1.3-0.7-1.9-0.7s-0.9,0.3-0.9,0.6v0
	c0,0.5,0.3,0.6,1.6,1c1.5,0.4,2.3,0.9,2.3,2.2v0c0,1.5-1.1,2.3-2.7,2.3C100.4,136.3,99.3,136,98.4,135.2z"/>
<path fill="#67A8C8" d="M108.8,128.9h1.6v2.9h3v-2.9h1.6v7.3h-1.6v-2.9h-3v2.9h-1.6V128.9z"/>
<path fill="#67A8C8" d="M119.5,132.6L119.5,132.6c0-2.1,1.6-3.8,3.9-3.8s3.9,1.7,3.9,3.8v0c0,2.1-1.6,3.8-3.9,3.8
	S119.5,134.7,119.5,132.6z M125.6,132.6L125.6,132.6c0-1.3-0.9-2.3-2.2-2.3c-1.3,0-2.2,1-2.2,2.3v0c0,1.3,0.9,2.3,2.2,2.3
	C124.7,134.9,125.6,133.9,125.6,132.6z"/>
<path fill="#67A8C8" d="M131.9,128.9h3c1.7,0,2.8,1,2.8,2.5v0c0,1.7-1.3,2.6-3,2.6h-1.2v2.2h-1.6V128.9z M134.7,132.6
	c0.8,0,1.3-0.5,1.3-1.1v0c0-0.7-0.5-1.1-1.3-1.1h-1.2v2.2H134.7z"/>
<path fill="#515254" d="M0,76.8h8.7c2.4,0,4.3,0.7,5.6,1.9c1.1,1.1,1.6,2.6,1.6,4.4v0.1c0,3.1-1.7,5-4.1,5.9l4.7,6.8h-4.9l-4.1-6.1
	H7.5H4.2v6.1H0V76.8z M8.5,86.1c2,0,3.2-1.1,3.2-2.7v-0.1c0-1.8-1.3-2.7-3.3-2.7H4.2v5.5H8.5z"/>
<path fill="#515254" d="M19.7,76.8h14.4v3.7H23.9v3.9h9v3.7h-9v4h10.3v3.7H19.7V76.8z"/>
<path fill="#515254" d="M44.4,76.7h3.9l8.2,19.2h-4.4l-1.7-4.3h-8.1l-1.7,4.3h-4.3L44.4,76.7z M48.8,87.9l-2.5-6.2l-2.5,6.2H48.8z"
	/>
<path fill="#515254" d="M59.4,76.8h4.2v15.2h9.5v3.8H59.4V76.8z"/>
<path fill="#515254" d="M82.9,76.8h4.5l3.9,12.9l4.3-13h3.6l4.3,13l3.9-12.9h4.4L105.3,96h-3.6l-4.3-12.5L93,96h-3.6L82.9,76.8z"/>
<path fill="#515254" d="M114,86.4L114,86.4c0-5.5,4.3-9.9,10.2-9.9c5.9,0,10.1,4.4,10.1,9.8v0.1c0,5.4-4.3,9.9-10.2,9.9
	C118.2,96.2,114,91.8,114,86.4z M129.9,86.4L129.9,86.4c0-3.3-2.4-6-5.8-6s-5.7,2.7-5.7,5.9v0.1c0,3.3,2.4,6,5.8,6
	C127.5,92.3,129.9,89.7,129.9,86.4z"/>
<path fill="#515254" d="M138,76.8h8.7c2.4,0,4.3,0.7,5.6,1.9c1.1,1.1,1.6,2.6,1.6,4.4v0.1c0,3.1-1.7,5-4.1,5.9l4.7,6.8h-4.9
	l-4.1-6.1h-0.1h-3.2v6.1H138V76.8z M146.4,86.1c2,0,3.2-1.1,3.2-2.7v-0.1c0-1.8-1.3-2.7-3.3-2.7h-4.2v5.5H146.4z"/>
<path fill="#515254" d="M157.6,76.8h4.2v15.2h9.5v3.8h-13.7V76.8z"/>
<path fill="#515254" d="M174.4,76.8h7.4c6,0,10.1,4.1,10.1,9.5v0.1c0,5.4-4.1,9.5-10.1,9.5h-7.4V76.8z M181.9,92.1
	c3.4,0,5.7-2.3,5.7-5.7v-0.1c0-3.4-2.3-5.7-5.7-5.7h-3.2v11.5H181.9z"/>
<path fill="#515254" d="M0,101.1h5.8c1.6,0,2.9,0.5,3.7,1.3c0.7,0.7,1.1,1.7,1.1,2.9v0c0,2.1-1.1,3.3-2.7,3.9l3.1,4.5H7.7L5,109.7h0
	H2.8v4.1H0V101.1z M5.6,107.3c1.4,0,2.1-0.7,2.1-1.8v0c0-1.2-0.8-1.8-2.2-1.8H2.8v3.6H5.6z"/>
<path fill="#515254" d="M12.7,101.1h9.6v2.5h-6.8v2.6h6v2.5h-6v2.7h6.9v2.5h-9.7V101.1z"/>
<path fill="#515254" d="M23.6,111.9l1.7-2c1.1,0.9,2.3,1.5,3.8,1.5c1.1,0,1.8-0.5,1.8-1.2v0c0-0.7-0.4-1.1-2.6-1.6
	c-2.6-0.7-4.2-1.4-4.2-3.9v0c0-2.3,1.9-3.8,4.4-3.8c1.9,0,3.4,0.6,4.7,1.6l-1.5,2.1c-1.1-0.8-2.2-1.3-3.3-1.3s-1.6,0.5-1.6,1.1v0
	c0,0.8,0.5,1.1,2.7,1.7c2.6,0.7,4,1.6,4,3.8v0c0,2.5-1.9,3.9-4.7,3.9C27.1,114,25.2,113.3,23.6,111.9z"/>
<path fill="#515254" d="M35.8,101.1h5.2c3,0,4.9,1.8,4.9,4.4v0c0,2.9-2.3,4.5-5.1,4.5h-2.1v3.8h-2.8V101.1z M40.8,107.5
	c1.4,0,2.2-0.8,2.2-1.9v0c0-1.3-0.9-1.9-2.3-1.9h-2.2v3.9H40.8z"/>
<path fill="#515254" d="M46.9,107.5L46.9,107.5c0-3.6,2.8-6.6,6.8-6.6s6.7,2.9,6.7,6.5v0c0,3.6-2.8,6.6-6.8,6.6
	S46.9,111.1,46.9,107.5z M57.5,107.5L57.5,107.5c0-2.2-1.6-4-3.8-4c-2.3,0-3.8,1.8-3.8,4v0c0,2.2,1.6,4,3.8,4S57.5,109.7,57.5,107.5
	z"/>
<path fill="#515254" d="M62.5,101.1h2.6l6,7.8v-7.8h2.8v12.7h-2.4l-6.2-8.1v8.1h-2.8V101.1z"/>
<path fill="#515254" d="M75.6,111.9l1.7-2c1.1,0.9,2.3,1.5,3.8,1.5c1.1,0,1.8-0.5,1.8-1.2v0c0-0.7-0.4-1.1-2.6-1.6
	c-2.6-0.7-4.2-1.4-4.2-3.9v0c0-2.3,1.9-3.8,4.4-3.8c1.9,0,3.4,0.6,4.7,1.6l-1.5,2.1c-1.1-0.8-2.2-1.3-3.3-1.3
	c-1.1,0-1.6,0.5-1.6,1.1v0c0,0.8,0.5,1.1,2.7,1.7c2.6,0.7,4,1.6,4,3.8v0c0,2.5-1.9,3.9-4.7,3.9C79.1,114,77.1,113.3,75.6,111.9z"/>
<path fill="#515254" d="M87.9,101.1h2.8v12.7h-2.8V101.1z"/>
<path fill="#515254" d="M92.4,101.1h3.1l3.3,8.9l3.3-8.9h3l-5.1,12.8h-2.5L92.4,101.1z"/>
<path fill="#515254" d="M106.7,101.1h9.6v2.5h-6.8v2.6h6v2.5h-6v2.7h6.9v2.5h-9.7V101.1z"/>
<path fill="#515254" d="M123.5,101.1h5c4,0,6.8,2.7,6.8,6.3v0c0,3.6-2.8,6.4-6.8,6.4h-5V101.1z M128.5,111.3c2.3,0,3.8-1.5,3.8-3.8
	v0c0-2.3-1.5-3.8-3.8-3.8h-2.2v7.7H128.5z"/>
<path fill="#515254" d="M137.3,101.1h9.6v2.5h-6.8v2.6h6v2.5h-6v2.7h6.9v2.5h-9.7V101.1z"/>
<path fill="#515254" d="M148.2,111.9l1.7-2c1.1,0.9,2.3,1.5,3.8,1.5c1.1,0,1.8-0.5,1.8-1.2v0c0-0.7-0.4-1.1-2.6-1.6
	c-2.6-0.7-4.2-1.4-4.2-3.9v0c0-2.3,1.9-3.8,4.4-3.8c1.9,0,3.4,0.6,4.7,1.6l-1.5,2.1c-1.1-0.8-2.2-1.3-3.3-1.3
	c-1.1,0-1.6,0.5-1.6,1.1v0c0,0.8,0.5,1.1,2.7,1.7c2.6,0.7,4,1.6,4,3.8v0c0,2.5-1.9,3.9-4.7,3.9C151.7,114,149.8,113.3,148.2,111.9z"
	/>
<path fill="#515254" d="M160.5,101.1h2.8v12.7h-2.8V101.1z"/>
<path fill="#515254" d="M165.5,107.5L165.5,107.5c0-3.6,2.8-6.6,6.7-6.6c2.3,0,3.7,0.6,5,1.7l-1.8,2.1c-1-0.8-1.9-1.3-3.3-1.3
	c-2,0-3.6,1.8-3.6,4v0c0,2.3,1.6,4,3.8,4c1,0,1.9-0.3,2.6-0.8v-1.8h-2.8v-2.4h5.5v5.5c-1.3,1.1-3.1,2-5.4,2
	C168.2,114,165.5,111.2,165.5,107.5z"/>
<path fill="#515254" d="M179.9,101.1h2.6l6,7.8v-7.8h2.8v12.7h-2.4l-6.2-8.1v8.1h-2.8V101.1z"/>
<g>
	<path fill="#67A8C8" d="M58.1,63.3c-2,0-3.6-1.6-3.6-3.6v0c0-2,1.5-3.6,3.6-3.6c1.3,0,2.1,0.4,2.7,1.1l-1,1.1
		c-0.5-0.5-1.1-0.8-1.8-0.8c-1.2,0-2,1-2,2.2v0c0,1.2,0.8,2.2,2,2.2c0.8,0,1.3-0.3,1.8-0.8l1,1C60.3,62.9,59.5,63.3,58.1,63.3z"/>
	<path fill="#67A8C8" d="M65.8,63.2v-2.8H63v2.8h-1.5v-6.9H63V59h2.8v-2.7h1.5v6.9H65.8z"/>
	<path fill="#67A8C8" d="M68.4,63.2v-6.9h1.5v6.9H68.4z"/>
	<path fill="#67A8C8" d="M74.2,63.3c-2,0-3.6-1.6-3.6-3.6v0c0-2,1.5-3.6,3.6-3.6c1.3,0,2.1,0.4,2.7,1.1l-1,1.1
		c-0.5-0.5-1.1-0.8-1.8-0.8c-1.2,0-2,1-2,2.2v0c0,1.2,0.8,2.2,2,2.2c0.8,0,1.3-0.3,1.8-0.8l1,1C76.3,62.9,75.5,63.3,74.2,63.3z"/>
	<path fill="#67A8C8" d="M82.7,63.2L82,61.7h-2.9l-0.6,1.6h-1.6l3-7h1.4l3,7H82.7z M80.6,58.1l-0.9,2.3h1.8L80.6,58.1z"/>
	<path fill="#67A8C8" d="M87.6,63.3c-2.2,0-3.7-1.5-3.7-3.6v0c0-2,1.5-3.6,3.6-3.6c1.3,0,2,0.3,2.7,1l-1,1.2c-0.5-0.4-1-0.7-1.8-0.7
		c-1.1,0-2,1-2,2.2v0c0,1.3,0.9,2.2,2.1,2.2c0.6,0,1.1-0.1,1.4-0.4v-1h-1.5v-1.3h3v3C89.8,62.9,88.8,63.3,87.6,63.3z"/>
	<path fill="#67A8C8" d="M94.7,63.3c-2.1,0-3.7-1.6-3.7-3.6v0c0-2,1.6-3.6,3.7-3.6c2.1,0,3.7,1.6,3.7,3.6v0
		C98.4,61.7,96.8,63.3,94.7,63.3z M96.8,59.8c0-1.2-0.9-2.2-2.1-2.2c-1.2,0-2.1,1-2.1,2.2v0c0,1.2,0.9,2.2,2.1,2.2
		C95.9,61.9,96.8,61,96.8,59.8L96.8,59.8z"/>
	<path fill="#67A8C8" d="M107.2,63.3c-2,0-3.6-1.6-3.6-3.6v0c0-2,1.5-3.6,3.6-3.6c1.3,0,2.1,0.4,2.7,1.1l-1,1.1
		c-0.5-0.5-1.1-0.8-1.8-0.8c-1.2,0-2,1-2,2.2v0c0,1.2,0.8,2.2,2,2.2c0.8,0,1.3-0.3,1.8-0.8l1,1C109.3,62.9,108.5,63.3,107.2,63.3z"
		/>
	<path fill="#67A8C8" d="M115.7,63.2l-0.6-1.6h-2.9l-0.6,1.6h-1.6l3-7h1.4l3,7H115.7z M113.6,58.1l-0.9,2.3h1.8L113.6,58.1z"/>
	<path fill="#67A8C8" d="M123.1,63.2v-4.5l-2,3h0l-1.9-2.9v4.5h-1.5v-6.9h1.6l1.8,2.9l1.8-2.9h1.6v6.9H123.1z"/>
	<path fill="#67A8C8" d="M128.3,61.1h-1.2v2.1h-1.5v-6.9h2.8c1.7,0,2.7,1,2.7,2.4v0C131.1,60.3,129.9,61.1,128.3,61.1z M129.6,58.7
		c0-0.7-0.5-1.1-1.2-1.1h-1.2v2.1h1.2C129.1,59.8,129.6,59.3,129.6,58.7L129.6,58.7z"/>
	<path fill="#67A8C8" d="M134.1,63.3c-1.1,0-2.1-0.4-2.9-1.1l0.9-1.1c0.6,0.5,1.3,0.8,2.1,0.8c0.6,0,1-0.2,1-0.7v0
		c0-0.4-0.2-0.6-1.4-0.9c-1.4-0.4-2.3-0.7-2.3-2.1v0c0-1.3,1-2.1,2.4-2.1c1,0,1.9,0.3,2.6,0.9l-0.8,1.2c-0.6-0.4-1.2-0.7-1.8-0.7
		c-0.6,0-0.9,0.3-0.9,0.6v0c0,0.5,0.3,0.6,1.5,0.9c1.4,0.4,2.2,0.9,2.2,2.1v0C136.6,62.6,135.6,63.3,134.1,63.3z"/>
</g>
<polygon fill="#FF0000" points="101,58.4 101.3,59.5 102.3,59.2 101.5,60 102.3,60.7 101.3,60.4 101,61.5 100.7,60.4 99.7,60.7 
	100.5,60 99.7,59.2 100.7,59.5 "/>
<polygon fill="#515254" points="29.9,73.1 29.9,58.1 95.6,20.2 161.2,58.1 161.2,73.1 165.2,73.1 165.2,55.8 95.6,15.6 25.9,55.8 
	25.9,73.1 "/>
<polygon fill="#515254" points="161.2,118.9 161.2,133.9 95.6,171.8 29.9,133.9 29.9,118.9 25.9,118.9 25.9,136.2 95.6,176.4 
	165.2,136.2 165.2,118.9 "/>
</svg>
