<?xml version="1.0" encoding="utf-8"?>
<!-- Generator: Adobe Illustrator 18.1.0, SVG Export Plug-In . SVG Version: 6.00 Build 0)  -->
<!DOCTYPE svg PUBLIC "-//W3C//DTD SVG 1.1//EN" "http://www.w3.org/Graphics/SVG/1.1/DTD/svg11.dtd">
<svg version="1.1" id="Layer_1" xmlns="http://www.w3.org/2000/svg" xmlns:xlink="http://www.w3.org/1999/xlink" x="0px" y="0px"
	 viewBox="0 0 192 192" enable-background="new 0 0 192 192" xml:space="preserve">
<path fill="#B3DDF2" d="M166.8,97c-0.4-11.1-3.4-22.1-9.1-32.1c-0.9-1.6-1.9-3.2-2.9-4.7c-1.9-5.9-4.5-11.5-9.1-15.6
	c-4.4-4-10.2-6-16.3-7.4c-10.2-5.5-21.7-8.5-33.6-8.5c-1.6,0-3.3,0.1-4.9,0.2c-3.3-0.7-6.5-1.2-9.7-1.2c-2.9,0-5.6,0.4-8.1,1.2
	c-5.9,1.9-10.5,5.9-14.7,10.5c-11.3,7-20.2,16.8-26,28.6c-4.2,4.6-7.7,9.7-9.1,15.9c-1.3,6.2-0.2,12.3,1.7,18.2
	c0.4,11.1,3.4,22.1,9.1,32.1c0.9,1.6,1.9,3.2,2.9,4.7c1.9,5.9,4.5,11.5,9.1,15.6c4.4,4,10.2,6,16.3,7.4c10.2,5.5,21.7,8.5,33.6,8.5
	c0,0,0,0,0,0c1.6,0,3.3-0.1,4.9-0.2c3.3,0.7,6.5,1.2,9.7,1.2c0,0,0,0,0,0c2.9,0,5.6-0.4,8.1-1.2c5.9-1.9,10.5-5.9,14.7-10.5
	c11.3-7,20.2-16.9,26-28.6c4.2-4.6,7.7-9.7,9.1-15.9C169.8,109,168.7,102.9,166.8,97z"/>
<path fill="#FFFFFF" d="M168,97c-0.4-11.3-3.5-22.5-9.2-32.6c-0.9-1.6-1.9-3.2-2.9-4.8c-1.9-6-4.6-11.7-9.2-15.9
	c-4.5-4.1-10.3-6.1-16.5-7.5c-10.3-5.6-22-8.6-34.2-8.6c-1.7,0-3.3,0.1-5,0.2c-3.3-0.7-6.6-1.2-9.8-1.2c-3,0-5.7,0.4-8.2,1.2
	c-6,1.9-10.7,6-14.9,10.7c-11.5,7.1-20.5,17.1-26.4,29c-4.3,4.7-7.9,9.8-9.2,16.2c-1.4,6.3-0.2,12.5,1.7,18.5
	c0.4,11.3,3.5,22.5,9.2,32.6c0.9,1.6,1.9,3.2,2.9,4.8c1.9,6,4.6,11.7,9.2,15.9c4.5,4.1,10.3,6.1,16.5,7.5c10.3,5.6,22,8.6,34.2,8.6
	c0,0,0,0,0,0c1.7,0,3.3-0.1,5-0.2c3.3,0.7,6.6,1.2,9.8,1.2c0,0,0,0,0,0c3,0,5.7-0.4,8.2-1.2c6-1.9,10.7-6,14.9-10.7
	c11.5-7.1,20.5-17.1,26.4-29c4.3-4.7,7.9-9.8,9.2-16.2C171.1,109.1,169.9,103,168,97z M164.7,88.3c-0.1-0.2-0.2-0.5-0.3-0.7
	c-1.2-3.1-2.4-6-3.4-8.9c-1-3-1.8-6.3-2.6-9.4c-0.1-0.2-0.1-0.4-0.2-0.6C161.4,74.9,163.6,81.5,164.7,88.3z M158.1,131.1
	c-2,2.1-4.1,4.1-6.1,6c-2.3,2.2-4.7,4.5-6.8,6.8c-0.6,0.6-1.1,1.3-1.7,1.9c1.1-2.2,2.1-4.4,3.1-6.6c1.4-3.1,2.7-6,4.2-8.6
	c1.6-2.8,3.5-5.6,5.4-8.3c3.8-5.5,7.7-11.2,9.3-17.5c-0.4,4.5-1.2,9-2.4,13.5C161.8,122.9,160.1,127.1,158.1,131.1z M91.8,166.9
	c-3.2-0.9-6.5-1.8-9.8-2.5c-0.9-0.2-1.9-0.4-2.9-0.6c2.5-0.1,5-0.4,7.4-0.6c3.3-0.3,6.7-0.6,9.9-0.6l0.3,0c3,0,6,0.3,9.3,0.6
	c3.3,0.3,6.7,0.6,10,0.6c0,0,0,0,0,0c3.7,0,6.9-0.4,9.7-1.2c-8,3.8-16.7,6-25.5,6.6C97.5,168.4,94.7,167.7,91.8,166.9z M35.6,129.4
	c-0.8-3.2-1.6-6.5-2.6-9.6c-0.3-1-0.7-2.1-1.1-3.2c1.4,2.1,2.8,4.2,4.3,6.3c1.9,2.8,3.9,5.6,5.6,8.5c1.7,2.9,3.2,6,4.6,9
	c2.9,6,5.8,12.1,10.2,16.5c-7.4-5.1-13.8-11.5-18.8-19.2C37,135,36.3,132.2,35.6,129.4z M33.9,68c2-2.1,4-4.1,6.1-6
	c2.3-2.2,4.7-4.5,6.9-6.8c0.6-0.6,1.1-1.3,1.7-1.9c-1.1,2.2-2.1,4.4-3.1,6.6c-1.4,3.1-2.7,6-4.2,8.6c-1.6,2.8-3.5,5.6-5.4,8.3
	c-3.8,5.5-7.7,11.2-9.3,17.5c0.4-4.5,1.2-9,2.4-13.5C30.2,76.3,31.9,72.1,33.9,68z M100.2,32.3c3.2,0.9,6.5,1.8,9.8,2.5
	c0.9,0.2,1.9,0.4,2.9,0.6c-2.5,0.1-5,0.4-7.4,0.6c-3.3,0.3-6.7,0.6-9.9,0.6l-0.3,0c-3,0-6-0.3-9.3-0.6c-3.3-0.3-6.7-0.6-10-0.6
	c-3.7,0-6.9,0.4-9.7,1.2c8-3.8,16.7-6,25.5-6.6C94.5,30.8,97.3,31.5,100.2,32.3z M156.4,69.8c0.8,3.2,1.6,6.5,2.6,9.6
	c0.3,1,0.7,2.1,1.1,3.2c-1.4-2.1-2.8-4.2-4.3-6.3c-1.9-2.8-3.9-5.6-5.6-8.5c-1.7-2.9-3.2-6-4.6-9c-2.9-6-5.8-12.1-10.2-16.5
	c7.4,5.1,13.8,11.5,18.8,19.2C155,64.2,155.7,67,156.4,69.8z M130.4,158.3c-3.8,2.2-8.4,3.3-14.4,3.3c0,0,0,0,0,0
	c-3.3,0-6.6-0.3-9.9-0.6c-3.2-0.3-6.4-0.6-9.5-0.6l-0.3,0c-3.3,0-6.7,0.3-10,0.7c-3.5,0.3-7,0.7-10.5,0.7c-5.7,0-10-0.9-13.5-3
	c-6.7-3.8-10.3-11.3-14.1-19.2c-1.5-3.1-3-6.2-4.7-9.2c-1.7-2.9-3.7-5.8-5.7-8.6c-5.1-7.2-9.8-14-9.9-21.7c0-7.9,4.9-15.1,9.7-22.1
	c1.9-2.8,3.9-5.6,5.5-8.4c1.6-2.7,2.9-5.8,4.3-8.8c3.5-7.7,7-15.7,14.2-19.8c3.8-2.2,8.4-3.3,14.4-3.3c3.3,0,6.6,0.3,9.9,0.6
	c3.2,0.3,6.4,0.6,9.5,0.6l0.3,0c3.3,0,6.7-0.3,10-0.7c3.5-0.3,7-0.7,10.5-0.7c5.7,0,10,0.9,13.5,3c6.7,3.8,10.3,11.3,14.1,19.2
	c1.5,3.1,3,6.2,4.7,9.2c1.7,2.9,3.7,5.8,5.7,8.6c5.1,7.2,9.8,14,9.9,21.7c0,7.9-4.9,15.1-9.7,22.1c-1.9,2.8-3.9,5.6-5.5,8.5
	c-1.6,2.7-2.9,5.8-4.3,8.8C141.1,146.1,137.5,154.1,130.4,158.3z M145.2,45.3c2.4,2.2,4.3,4.9,5.8,7.9c-4.2-4.9-8.9-9.2-14.2-12.9
	C139.9,41.5,142.8,43.1,145.2,45.3z M120.8,34.6c-0.2,0-0.4-0.1-0.6-0.1c-3.3-0.5-6.6-1-9.8-1.7c-3.2-0.7-6.5-1.6-9.7-2.5
	c-0.2-0.1-0.4-0.1-0.6-0.2C107.3,30.6,114.3,32.1,120.8,34.6z M73.5,29.8c2.3-0.8,4.8-1.1,7.6-1.1c0.7,0,1.3,0,2,0.1
	c-6.2,1.1-12.3,3.1-18.1,5.8C67.6,32.5,70.4,30.8,73.5,29.8z M52,45.6c-0.1,0.2-0.3,0.4-0.4,0.6c-2,2.5-4.1,5.2-6.2,7.5
	c-2.1,2.3-4.3,4.4-6.7,6.7c-0.2,0.2-0.3,0.3-0.5,0.5C41.9,55.2,46.6,50,52,45.6z M24.4,84.2c0.7-3.4,2.1-6.4,4-9.2
	c-0.6,1.7-1.2,3.4-1.7,5.2c-1.3,4.6-2.1,9.3-2.5,14C23.7,90.8,23.6,87.5,24.4,84.2z M27.3,110.9c0.1,0.2,0.2,0.5,0.3,0.7
	c1.2,3.1,2.4,6,3.4,8.9c1,3,1.8,6.3,2.6,9.4c0.1,0.2,0.1,0.4,0.2,0.6C30.6,124.3,28.4,117.7,27.3,110.9z M46.8,153.9
	c-2.4-2.2-4.3-4.9-5.8-7.9c4.2,4.9,8.9,9.2,14.2,12.8C52.1,157.7,49.2,156.1,46.8,153.9z M71.2,164.6c0.2,0,0.4,0.1,0.6,0.1
	c3.3,0.5,6.6,1,9.8,1.7c3.2,0.7,6.5,1.6,9.7,2.5c0.2,0.1,0.4,0.1,0.6,0.2C84.7,168.6,77.7,167.1,71.2,164.6z M118.5,169.4
	c-2.3,0.8-4.8,1.1-7.6,1.1h0c-0.7,0-1.3,0-2-0.1c6.2-1.1,12.3-3.1,18-5.8C124.4,166.7,121.6,168.4,118.5,169.4z M140,153.6
	c0.1-0.2,0.3-0.4,0.4-0.6c2-2.5,4.1-5.2,6.2-7.5c2.1-2.3,4.3-4.4,6.7-6.7c0.2-0.2,0.4-0.3,0.5-0.5C150.1,144,145.4,149.2,140,153.6z
	 M167.6,115c-0.7,3.4-2.1,6.4-4,9.2c0.6-1.7,1.2-3.4,1.7-5.2c1.3-4.6,2.1-9.3,2.5-14C168.3,108.4,168.4,111.7,167.6,115z"/>
<path fill="#515254" d="M16.3,72.5l-1.9-3.8c2-1,3.4-2.5,4.2-4.4c0.5-1.2,0.4-2-0.3-2.3l0,0C17.6,61.7,17,62,15.6,64
	c-2.3,3.1-4.4,5.3-7.7,3.9l0,0c-3-1.3-4.1-4.6-2.5-8.5c1.2-2.7,2.9-4.6,5-5.7l2.2,3.6c-1.7,1-2.9,2.4-3.6,3.8
	c-0.5,1.1-0.2,1.8,0.3,2.1l0,0c0.7,0.3,1.3-0.1,2.8-2.1c2.4-3.4,4.6-5.2,7.7-3.8l0,0c3.3,1.4,4.1,4.9,2.4,8.8
	C21.1,69,19,71.3,16.3,72.5z"/>
<path fill="#515254" d="M12.8,45.3l2.9-3.9l5.7,4.3l-2-9.2l3.5-4.6l2,9.9l12.2,0.5L33.6,47l-7.9-0.4l0.5,2.6l3.6,2.7l-2.9,3.9
	L12.8,45.3z"/>
<path fill="#515254" d="M28.3,26.7l11-9l2.6,3.2l-7.2,5.9l1.7,2.1l6.5-5.4l2.4,3l-6.5,5.4l1.8,2.2l7.3-6l2.6,3.2l-11.1,9.1
	L28.3,26.7z"/>
<path fill="#515254" d="M51.8,15.3l-4.7,2.4l-1.9-3.8l13.8-6.9l1.9,3.8l-4.7,2.4l5.9,11.9l-4.4,2.2L51.8,15.3z"/>
<path fill="#515254" d="M67.3,13.2L67.3,13.2c-1.2-5.1,1.7-9.9,6.9-11.1c3.5-0.8,6.1,0.1,8.1,1.9l-2.9,3.6c-1.3-1-2.6-1.5-4.2-1.1
	c-2.4,0.6-3.6,3-3,5.5l0,0c0.6,2.6,2.8,4.2,5.2,3.6c1.8-0.4,2.6-1.5,3.4-3l4.2,1.7C83.8,17,82,19.1,78.2,20
	C73.3,21.2,68.5,18.4,67.3,13.2z"/>
<path fill="#515254" d="M89.7,0l4.9,0.1l-0.1,6.6l6.3,0.1l0.1-6.6l4.9,0.1l-0.3,17.6l-4.9-0.1l0.1-6.7L94.3,11l-0.1,6.7l-4.9-0.1
	L89.7,0z"/>
<path fill="#515254" d="M121.6,12.4L121.6,12.4c1.9-4.8,7.1-7.1,12.1-5.1c3.3,1.4,4.9,3.6,5.6,6.2l-4.5,1.3
	c-0.5-1.5-1.2-2.7-2.8-3.4c-2.3-0.9-4.7,0.4-5.6,2.7l0,0c-1,2.5-0.2,5,2.1,5.9c1.7,0.7,3,0.3,4.5-0.5l2.4,3.8
	c-2.4,1.5-5.1,2.2-8.7,0.8C122,22.4,119.7,17.3,121.6,12.4z"/>
<path fill="#515254" d="M152.4,17.9l3.8,2.8l-4.6,18.7l-4.2-3.1l0.8-3.3l-5.5-4.1l-2.9,1.8l-4.1-3.1L152.4,17.9z M149.4,29.2
	l1.4-5.2l-4.6,2.8L149.4,29.2z"/>
<path fill="#515254" d="M167.8,31l3.2,4.1l-2.8,7.5l8-0.8l3.2,4.1l-14,10.8l-3-3.8l8-6.2l-8.2,0.6l-0.1-0.1l2.7-7.7l-8,6.1l-2.9-3.8
	L167.8,31z"/>
<path fill="#515254" d="M183.7,54.2l2.9,7c1.7,4.1,0.7,7.6-2.9,9.1l0,0c-3.8,1.6-7.1-0.5-8.8-4.6l-0.9-2.2l-4.7,1.9l-1.9-4.5
	L183.7,54.2z M178.4,64.2c0.7,1.6,1.9,2.2,3.2,1.7l0,0c1.4-0.6,1.7-1.9,1.1-3.5l-0.9-2.1l-4.3,1.8L178.4,64.2z"/>
<g>
	<polygon fill="#FF0000" points="108.8,185.7 106.5,186.7 107.6,188.9 105.7,187.4 104.3,189.5 104.6,187 102.1,186.9 104.4,185.9 
		103.3,183.7 105.3,185.2 106.7,183.1 106.3,185.6 	"/>
</g>
<path fill="#67A8C8" d="M29,156.7L29,156.7c2.1-2,5.3-2.1,7.4,0.1c1.3,1.4,1.7,2.6,1.7,3.9l-2.1,0.1c0-1-0.3-1.9-1-2.6
	c-1.2-1.2-3-1.1-4.3,0.1l0,0c-1.2,1.2-1.4,3.1-0.2,4.3c0.8,0.8,1.6,1,2.7,1.1l0,2c-1.5,0-2.8-0.3-4.2-1.7
	C26.8,161.9,26.9,158.7,29,156.7z"/>
<path fill="#67A8C8" d="M40.9,161.4l1.7,1.4l-2.5,3.1l3.2,2.5l2.5-3.1l1.7,1.4l-6.2,7.9l-1.7-1.4l2.5-3.2l-3.2-2.5l-2.5,3.2
	l-1.7-1.4L40.9,161.4z"/>
<path fill="#67A8C8" d="M50,168.2l1.9,1.2l-5.4,8.5l-1.9-1.2L50,168.2z"/>
<path fill="#67A8C8" d="M51.5,175.2L51.5,175.2c1.3-2.6,4.3-3.7,7.1-2.3c1.7,0.9,2.4,1.9,2.8,3.2l-2,0.8c-0.4-1-0.9-1.7-1.8-2.2
	c-1.5-0.8-3.2-0.1-4,1.5l0,0c-0.8,1.5-0.4,3.4,1.2,4.1c1,0.5,1.9,0.4,2.9,0.2l0.6,1.9c-1.4,0.5-2.8,0.6-4.5-0.3
	C51.1,180.8,50.2,177.8,51.5,175.2z"/>
<path fill="#67A8C8" d="M67.7,176.9l1.9,0.7l0.8,11l-2.2-0.8l-0.1-2.4l-4-1.4l-1.6,1.8l-2.1-0.7L67.7,176.9z M67.9,183.3l-0.2-3.5
	l-2.3,2.7L67.9,183.3z"/>
<path fill="#67A8C8" d="M73.9,184.3L73.9,184.3c0.6-2.8,3.2-4.7,6.2-4.1c1.8,0.3,2.8,1,3.6,2.1l-1.7,1.4c-0.6-0.8-1.2-1.3-2.4-1.5
	c-1.6-0.3-3.1,0.8-3.4,2.5l0,0c-0.4,1.8,0.6,3.4,2.4,3.7c0.8,0.2,1.5,0.1,2.2-0.2l0.3-1.4l-2.2-0.4l0.4-1.9l4.3,0.8l-0.8,4.3
	c-1.2,0.7-2.7,1.1-4.5,0.7C75,189.8,73.3,187.2,73.9,184.3z"/>
<path fill="#67A8C8" d="M86.6,186.6L86.6,186.6c0.1-2.9,2.5-5.1,5.6-5c3.1,0.1,5.2,2.5,5.1,5.4l0,0c-0.1,2.9-2.5,5.1-5.6,5
	C88.6,191.9,86.5,189.5,86.6,186.6z M95,186.9L95,186.9c0.1-1.8-1.1-3.2-2.9-3.3c-1.8-0.1-3.1,1.3-3.2,3l0,0
	c-0.1,1.7,1.1,3.2,2.9,3.3C93.6,190,94.9,188.7,95,186.9z"/>
<path fill="#67A8C8" d="M113.6,185.2L113.6,185.2c-0.7-2.8,0.8-5.6,3.8-6.4c1.8-0.5,3.1-0.1,4.2,0.5l-1,1.9
	c-0.9-0.5-1.8-0.7-2.8-0.5c-1.6,0.4-2.5,2.1-2,3.8l0,0c0.4,1.7,1.9,2.8,3.6,2.3c1.1-0.3,1.7-0.9,2.3-1.8l1.7,1
	c-0.7,1.3-1.7,2.3-3.6,2.8C117,189.7,114.3,188,113.6,185.2z"/>
<path fill="#67A8C8" d="M126.8,175.8l1.9-0.8l7.9,7.7l-2.1,0.9l-1.7-1.7l-3.9,1.6l0,2.4l-2.1,0.9L126.8,175.8z M131.3,180.4
	l-2.5-2.5l0,3.5L131.3,180.4z"/>
<path fill="#67A8C8" d="M134.9,172.3l2-1.2l4.5,2.3l0-5l2-1.2l5.2,8.6l-1.9,1.1l-3.4-5.6l-0.2,5.1l0,0l-4.6-2.2l3.4,5.6l-1.9,1.1
	L134.9,172.3z"/>
<path fill="#67A8C8" d="M146.1,165.1l3.2-2.6c1.9-1.5,3.9-1.4,5.2,0.2l0,0c1.5,1.8,0.9,3.9-0.9,5.3l-1.3,1.1l1.9,2.3l-1.7,1.4
	L146.1,165.1z M152.4,166.5c0.9-0.7,0.9-1.6,0.4-2.3l0,0c-0.6-0.8-1.5-0.7-2.4,0l-1.3,1.1l2,2.4L152.4,166.5z"/>
<path fill="#67A8C8" d="M159.6,164.9l-0.2-2c1.2-0.1,2.2-0.5,3-1.3c0.6-0.7,0.7-1.3,0.3-1.7l0,0c-0.4-0.4-0.9-0.3-2.3,0.6
	c-1.8,1.1-3.1,1.7-4.5,0.3l0,0c-1.3-1.3-1.2-3.2,0.2-4.6c1-1.1,2.2-1.6,3.5-1.8l0.4,2c-1.1,0.2-1.9,0.6-2.5,1.2
	c-0.6,0.6-0.6,1.2-0.3,1.5l0,0c0.5,0.5,0.9,0.3,2.5-0.7c1.8-1.1,3.1-1.4,4.4-0.2l0,0c1.4,1.4,1.2,3.3-0.3,4.8
	C162.6,164,161.2,164.8,159.6,164.9z"/>
<path fill="#515254" d="M87.5,77.9c1.3,1.3,1.8,2.7,0.8,3.7l-0.1,0.1c-0.9,0.9-2.7,0.7-4-0.5L64.1,61c-1.3-1.3-3.7-5.2-2.7-6.2
	l0.1-0.1c0.9-0.9,4.6,1.8,5.9,3L87.5,77.9z"/>
<path fill="#515254" d="M86.8,83c-1.1,0-2.2-0.5-3-1.3L63.6,61.5c-1.1-1.1-3.2-4.3-3.2-6c0-0.5,0.1-0.9,0.4-1.2l0.1-0.1
	c0.2-0.2,0.5-0.4,1.1-0.4c1.8,0,4.9,2.5,5.8,3.4l20.2,20.2c1.7,1.7,2,3.6,0.8,4.8l-0.1,0.1C88.3,82.7,87.6,83,86.8,83z M62,55.3
	c-0.2,0.6,1.3,3.7,2.7,5.1l20.2,20.2c0.6,0.6,1.3,0.9,1.9,0.9c0.3,0,0.7-0.1,1-0.4l0.1-0.1c0.6-0.6-0.1-1.8-0.9-2.6L66.8,58.3
	C65.6,57.1,63.1,55.3,62,55.3C62,55.3,62,55.3,62,55.3L62,55.3z"/>
<path fill="#FFFFFF" d="M110.9,97c2.4,2.4,2.7,5.9,0.5,8.1l0,0c-2.2,2.2-5.7,1.8-8.1-0.5L66.9,68c-2.4-2.4-2.7-5.9-0.5-8.1l0,0
	c2.2-2.2,5.7-1.8,8.1,0.5L110.9,97z"/>
<path fill="#515254" d="M107.9,107.3c-1.8,0-3.6-0.8-5.1-2.2L66.3,68.6c-2.7-2.7-2.9-6.7-0.5-9.1c1.1-1.1,2.5-1.7,4.1-1.7
	c1.8,0,3.6,0.8,5.1,2.2l36.5,36.5c2.7,2.7,2.9,6.7,0.5,9.1C110.9,106.7,109.5,107.3,107.9,107.3z M69.9,59.3c-1.2,0-2.2,0.4-3,1.2
	c-1.8,1.8-1.6,4.8,0.5,7l36.5,36.5c1.1,1.1,2.6,1.8,4,1.8c1.2,0,2.2-0.4,3-1.2c1.8-1.8,1.6-4.8-0.5-7L73.9,61
	C72.7,59.9,71.3,59.3,69.9,59.3z"/>
<path fill="#FFFFFF" d="M126.5,111.5c2.4,2.4,5.9,9.8,3.6,12.2l0,0c-2.4,2.4-9.9-1.3-12.3-3.7L83.3,85.6l8.6-8.6L126.5,111.5z"/>
<path fill="#515254" d="M127.8,125.2c-3.6,0-8.6-2.8-10.5-4.7L82.8,86.1c-0.1-0.1-0.2-0.3-0.2-0.5s0.1-0.4,0.2-0.5l8.6-8.6
	c0.3-0.3,0.8-0.3,1.1,0L127,111c1.3,1.3,2.9,3.9,3.7,6.4c0.8,2.2,1.5,5.3-0.2,6.9C129.9,124.9,129,125.2,127.8,125.2z M84.4,85.5
	l33.9,33.9c1.7,1.7,6.4,4.2,9.4,4.2c0.8,0,1.4-0.2,1.8-0.5c0.8-0.8,0.7-2.8-0.2-5.3c-0.8-2.2-2.2-4.6-3.4-5.8l-34-34L84.4,85.5z"/>
<polygon fill="#FFFFFF" points="111.3,65.6 132.1,53.5 119.8,74.1 "/>
<path fill="#515254" d="M119.8,74.8c-0.2,0-0.4-0.1-0.5-0.2l-8.5-8.5c-0.2-0.2-0.2-0.4-0.2-0.6s0.2-0.4,0.4-0.6l20.8-12.1
	c0.3-0.2,0.7-0.1,0.9,0.1c0.2,0.2,0.3,0.6,0.1,0.9l-12.3,20.5C120.3,74.6,120.1,74.8,119.8,74.8C119.9,74.8,119.8,74.8,119.8,74.8z
	 M112.5,65.8l7.1,7.1L130,55.7L112.5,65.8z"/>
<g>
	<polygon fill="#515254" points="122.3,59.2 132.1,53.5 127,62 	"/>
	<path fill="#515254" d="M127,62.8c-0.1,0-0.3,0-0.4-0.1l-4.7-2.8c-0.2-0.1-0.4-0.4-0.4-0.7c0-0.3,0.1-0.5,0.4-0.7l9.9-5.7
		c0.3-0.2,0.7-0.1,0.9,0.1c0.2,0.2,0.3,0.6,0.1,0.9l-5.1,8.5C127.5,62.6,127.3,62.8,127,62.8z M123.8,59.2l3,1.7l3.2-5.3L123.8,59.2
		z"/>
</g>
<path fill="#FFFFFF" d="M110.7,66c1.3-1.3,3.5-1.1,4.8,0.1c0.9,0.9,1.2,2.4,0.7,3.6c1.2-0.5,2.4-0.5,3.4,0.5c1.2,1.2,1,3.1-0.3,4.4
	l0,0l-41.9,41.9c-2.4,2.4-10.9-6.3-8.6-8.6L110.7,66L110.7,66z"/>
<path fill="#515254" d="M76.3,117.8c-2.7,0-7-4.1-8.3-7.1c-0.7-1.7-0.3-2.7,0.2-3.2l41.9-41.9c0,0,0,0,0,0c0.7-0.7,1.7-1.1,2.8-1.1
	c1.2,0,2.3,0.4,3,1.2c0.8,0.8,1.2,2,1.2,3.1c1.1-0.1,2.1,0.2,2.9,1c0.7,0.7,1.1,1.7,1,2.8c-0.1,1-0.5,2-1.3,2.7l-41.9,41.9
	C77.5,117.5,77,117.8,76.3,117.8z M113,65.9c-0.7,0-1.3,0.2-1.7,0.7c0,0,0,0,0,0l-41.9,41.9c-0.3,0.3-0.1,1.2,0.1,1.6
	c1.1,2.7,5,6.2,6.9,6.2c0.3,0,0.5-0.1,0.5-0.2l41.9-41.9c0.5-0.5,0.8-1.1,0.9-1.8c0-0.4,0-1.1-0.6-1.6c-0.6-0.6-1.5-0.7-2.5-0.3
	c-0.3,0.1-0.6,0.1-0.8-0.2c-0.2-0.2-0.3-0.6-0.2-0.8c0.4-0.9,0.2-2.1-0.6-2.8C114.5,66.2,113.7,65.9,113,65.9z"/>
<path fill="#FFFFFF" d="M69.5,124.5c-1.3,1.3-3.3,1.3-4.6,0l-4-4c-1.3-1.3-1.3-3.3,0-4.6l7.4-7.4l8.6,8.6L69.5,124.5z"/>
<path fill="#515254" d="M67.2,126.2c-1.1,0-2.1-0.4-2.8-1.2l-4-4c-1.6-1.6-1.6-4.1,0-5.7l7.4-7.4c0.1-0.1,0.3-0.2,0.5-0.2l0,0
	c0.2,0,0.4,0.1,0.5,0.2l8.6,8.6c0.3,0.3,0.3,0.8,0,1.1L70,125C69.2,125.8,68.2,126.2,67.2,126.2z M68.2,109.6l-6.8,6.8
	c-1,1-1,2.5,0,3.5l4,4c0.5,0.5,1.1,0.7,1.8,0.7c0.7,0,1.3-0.3,1.8-0.7l6.8-6.8L68.2,109.6z"/>
<polygon fill="#515254" points="107.7,152.3 99.6,155.3 78.4,147.3 86.5,144.2 "/>
<path fill="#FFFFFF" d="M99.6,156c-0.1,0-0.2,0-0.3,0l-21.2-8c-0.3-0.1-0.5-0.4-0.5-0.7c0-0.3,0.2-0.6,0.5-0.7l8-3.1
	c0.2-0.1,0.3-0.1,0.5,0l21.2,8c0.3,0.1,0.5,0.4,0.5,0.7c0,0.3-0.2,0.6-0.5,0.7l-8,3.1C99.8,156,99.7,156,99.6,156z M80.5,147.3
	l19.2,7.3l6-2.3L86.5,145L80.5,147.3z"/>
<polygon fill="#FFCD03" points="86.4,144.2 78.4,147.3 73.5,145.4 81.5,142.4 "/>
<path fill="#FFFFFF" d="M78.4,148c-0.1,0-0.2,0-0.3,0l-4.9-1.8c-0.3-0.1-0.5-0.4-0.5-0.7c0-0.3,0.2-0.6,0.5-0.7l8-3.1
	c0.2-0.1,0.3-0.1,0.5,0l4.9,1.8c0.3,0.1,0.5,0.4,0.5,0.7c0,0.3-0.2,0.6-0.5,0.7l-8,3.1C78.5,148,78.5,148,78.4,148z M75.5,145.4
	l2.8,1.1l6-2.3l-2.8-1.1L75.5,145.4z"/>
<polygon fill="#515254" points="110.7,156.4 99.7,155.3 107.5,152.3 "/>
<path fill="#FFFFFF" d="M110.7,157.2C110.6,157.2,110.6,157.2,110.7,157.2l-11-1.2c-0.3,0-0.6-0.3-0.6-0.6c0-0.3,0.1-0.6,0.5-0.8
	l7.8-3c0.3-0.1,0.6,0,0.8,0.2l3.1,4.1c0.2,0.2,0.2,0.5,0.1,0.8C111.2,157,110.9,157.2,110.7,157.2z M102.8,154.9l6.3,0.7l-1.8-2.4
	L102.8,154.9z"/>
<polygon fill="#515254" points="90.1,155.3 82.1,152.3 103.3,144.2 111.3,147.3 "/>
<path fill="#FFFFFF" d="M90.1,156.1c-0.1,0-0.2,0-0.3,0l-8-3.1c-0.3-0.1-0.5-0.4-0.5-0.7c0-0.3,0.2-0.6,0.5-0.7l21.2-8
	c0.2-0.1,0.3-0.1,0.5,0l8,3.1c0.3,0.1,0.5,0.4,0.5,0.7c0,0.3-0.2,0.6-0.5,0.7L90.4,156C90.3,156,90.2,156.1,90.1,156.1z M84.1,152.3
	l6,2.3l19.2-7.3l-6-2.3L84.1,152.3z"/>
<polygon fill="#FFCD03" points="111.3,147.3 103.2,144.2 108.1,142.4 116.1,145.4 "/>
<path fill="#FFFFFF" d="M111.3,148c-0.1,0-0.2,0-0.3,0l-8-3.1c-0.3-0.1-0.5-0.4-0.5-0.7c0-0.3,0.2-0.6,0.5-0.7l4.9-1.8
	c0.2-0.1,0.3-0.1,0.5,0l8,3.1c0.3,0.1,0.5,0.4,0.5,0.7c0,0.3-0.2,0.6-0.5,0.7l-4.9,1.8C111.4,148,111.4,148,111.3,148z M105.3,144.2
	l6,2.3l2.8-1.1l-6-2.3L105.3,144.2z"/>
<polygon fill="#515254" points="79.1,156.5 82.2,152.3 90,155.3 "/>
<path fill="#FFFFFF" d="M79.1,157.2c-0.3,0-0.5-0.1-0.6-0.4c-0.1-0.2-0.1-0.6,0-0.8l3.1-4.1c0.2-0.3,0.5-0.4,0.8-0.2l7.8,3
	c0.3,0.1,0.5,0.4,0.5,0.8c0,0.3-0.3,0.6-0.6,0.6L79.1,157.2C79.2,157.2,79.1,157.2,79.1,157.2z M82.5,153.2l-1.8,2.4l6.3-0.7
	L82.5,153.2z"/>
<path fill="#FFCD03" d="M86,125.1L86,125.1c-2.5-1.8-1.5-4-0.8-4.9c-1,1.3-3.3,4.7-2.6,7h0c0.2,1,1.1,1.9,2.2,1.9
	c1.2,0,2.2-1,2.2-2.2C86.9,126.1,86.6,125.5,86,125.1z"/>
<path fill="#FFFFFF" d="M84.7,129.8c-1.4,0-2.6-1-2.9-2.4c-0.7-2.5,1.4-5.9,2.7-7.7c0.2-0.3,0.7-0.4,1-0.2c0.3,0.2,0.4,0.7,0.2,1
	c-1,1.5-0.8,2.9,0.7,4c0.7,0.5,1.2,1.4,1.2,2.3C87.6,128.5,86.3,129.8,84.7,129.8z M83.2,126.9c0,0,0,0.1,0,0.1
	c0.1,0.7,0.7,1.2,1.4,1.2c0.8,0,1.5-0.7,1.5-1.5c0-0.5-0.2-0.9-0.6-1.2c-0.8-0.6-1.4-1.3-1.7-2.1C83.3,124.7,83,126,83.2,126.9z"/>
<path fill="#FFCD03" d="M107.2,118.2L107.2,118.2c2.5-1.8,1.5-4,0.8-4.9c1,1.3,3.3,4.7,2.6,7h0c-0.2,1-1.1,1.9-2.2,1.9
	c-1.2,0-2.2-1-2.2-2.2C106.3,119.2,106.6,118.6,107.2,118.2z"/>
<path fill="#FFFFFF" d="M108.5,122.8c-1.6,0-2.9-1.3-2.9-2.9c0-0.9,0.4-1.8,1.2-2.3c1.5-1.1,1.7-2.4,0.7-4c-0.2-0.3-0.1-0.8,0.2-1
	c0.3-0.2,0.8-0.2,1,0.2c1.3,1.8,3.5,5.2,2.7,7.7C111.1,121.8,109.9,122.8,108.5,122.8z M109.3,116.6c-0.3,0.8-0.8,1.5-1.7,2.1
	c-0.4,0.3-0.6,0.7-0.6,1.2c0,0.8,0.7,1.5,1.5,1.5c0.7,0,1.3-0.5,1.4-1.2c0,0,0-0.1,0-0.1C110.2,119.1,109.8,117.8,109.3,116.6z"/>
<path fill="#FFCD03" d="M106.2,127.2c-1.5-2.3-3.3-4.3-5.2-6.1c1.3-2.3,2.1-4.3,2.1-4.3c3.3-7.9-0.3-17-8.2-20.3
	c5.1,2.1,7.6,8.3,5.3,13.1c-0.8,1.7-2.7,4.1-4.9,6.5c-1.5-1.2-2.7-2.4-3.5-3.3c-2.6-3.2-0.4-7.8-0.4-7.8s-3.4,1.3-4.2,6.4
	c-0.3,2,1.4,5.7,3.7,9.5c-2.4,2.5-4.5,4.6-5.2,5.5c-1.8,2.3-3.7,5.6-3.7,9.2c0,7.3,5.9,13.3,13.3,13.3c7.3,0,13.3-5.9,13.3-13.3
	C108.5,132.7,107.6,129.8,106.2,127.2z M95.2,139.8c-3.8-3.8-1.8-8.2,0.7-11.5C98.4,132.2,99.2,135.9,95.2,139.8z"/>
<path fill="#FFFFFF" d="M95.2,149.5c-7.7,0-14-6.3-14-14c0-3.1,1.3-6.3,3.8-9.6c0.6-0.8,2-2.2,3.8-4.1c0.4-0.4,0.7-0.7,1.1-1.1
	c-2.6-4.4-3.8-7.6-3.5-9.5c0.8-5.4,4.5-6.9,4.6-7c0.3-0.1,0.6,0,0.8,0.2c0.2,0.2,0.3,0.5,0.1,0.8c0,0-2,4.2,0.3,7.1
	c0.6,0.8,1.6,1.7,2.9,2.8c2.2-2.6,3.7-4.5,4.3-5.8c1-2,1.1-4.4,0.2-6.6c-0.9-2.5-2.8-4.4-5.1-5.4c0,0,0,0,0,0
	c-0.4-0.2-0.5-0.6-0.4-0.9c0.2-0.4,0.6-0.5,0.9-0.4l0,0c4,1.7,7.1,4.8,8.7,8.8c1.6,4,1.6,8.4-0.1,12.4c0,0.1-0.7,1.7-1.8,3.9
	c2.1,2,3.7,4,4.9,5.9c0,0,0,0,0,0.1c1.6,3.1,2.4,6,2.4,8.6C109.2,143.2,103,149.5,95.2,149.5z M89.9,106.7c-0.8,0.9-1.7,2.3-2.1,4.6
	c-0.2,1.6,1,4.8,3.6,9c0.2,0.3,0.1,0.6-0.1,0.9c-0.5,0.5-1,1-1.5,1.5c-1.7,1.7-3.1,3.2-3.7,3.9c-2.4,3.1-3.5,6-3.5,8.7
	c0,6.9,5.6,12.6,12.6,12.6c6.9,0,12.6-5.6,12.6-12.6c0-2.4-0.8-5.1-2.3-7.9c-1.3-2-2.9-3.9-5.1-6c-0.2-0.2-0.3-0.6-0.1-0.9
	c1.2-2.3,2-4.2,2-4.2c1.5-3.6,1.6-7.7,0.1-11.3c-0.3-0.8-0.7-1.6-1.2-2.3c0.7,2.4,0.5,4.8-0.5,7c-0.8,1.6-2.4,3.7-5,6.7
	c-0.3,0.3-0.7,0.3-1,0.1c-1.7-1.4-2.8-2.5-3.6-3.4C89.4,111.1,89.5,108.5,89.9,106.7z M95.2,140.5L95.2,140.5
	c-0.2,0-0.4-0.1-0.5-0.2c-3.3-3.3-3.1-7.5,0.6-12.5c0.1-0.2,0.4-0.3,0.6-0.3c0.2,0,0.5,0.1,0.6,0.3c2.2,3.6,3.9,7.8-0.8,12.4
	C95.6,140.4,95.4,140.5,95.2,140.5z M95.9,129.6c-2.4,3.7-2.6,6.7-0.6,9.1C98,135.6,97.6,132.7,95.9,129.6z"/>
<path fill="#FFCD03" d="M91.9,98.3L91.9,98.3c-2.5-1.9-1.5-4-0.8-4.9c-1,1.3-3.3,4.7-2.6,7h0c0.2,1,1.1,1.9,2.2,1.9
	c1.2,0,2.2-1,2.2-2.2C92.8,99.3,92.5,98.7,91.9,98.3z"/>
<path fill="#FFFFFF" d="M90.7,102.9c-1.4,0-2.6-1-2.9-2.4c-0.7-2.5,1.4-5.9,2.7-7.7c0.2-0.3,0.7-0.4,1-0.2c0.3,0.2,0.4,0.7,0.2,1
	c-1,1.5-0.8,2.9,0.7,4c0.7,0.5,1.2,1.4,1.2,2.3C93.6,101.6,92.3,102.9,90.7,102.9z M89.2,100.1c0,0,0,0.1,0,0.1
	c0.1,0.7,0.7,1.2,1.4,1.2c0.8,0,1.5-0.7,1.5-1.5c0-0.5-0.2-0.9-0.6-1.2c-0.8-0.6-1.4-1.3-1.7-2.1C89.3,98,88.9,99.2,89.2,100.1z"/>
</svg>
