<?xml version="1.0" encoding="utf-8"?>
<!-- Generator: Adobe Illustrator 18.1.0, SVG Export Plug-In . SVG Version: 6.00 Build 0)  -->
<!DOCTYPE svg PUBLIC "-//W3C//DTD SVG 1.1//EN" "http://www.w3.org/Graphics/SVG/1.1/DTD/svg11.dtd">
<svg version="1.1" id="Layer_1" xmlns="http://www.w3.org/2000/svg" xmlns:xlink="http://www.w3.org/1999/xlink" x="0px" y="0px"
	 viewBox="0 0 270 270" enable-background="new 0 0 270 270" xml:space="preserve">
<path fill="#B3DDF2" d="M234.6,136.4c-0.6-15.7-4.8-31.1-12.7-45.1c-1.3-2.3-2.6-4.4-4.1-6.6c-2.7-8.4-6.3-16.2-12.7-22
	c-6.2-5.7-14.3-8.5-22.9-10.4c-14.3-7.7-30.5-11.9-47.2-11.9c-2.3,0-4.6,0.1-6.9,0.3c-4.6-1-9.2-1.6-13.6-1.6
	c-4.1,0-7.9,0.6-11.4,1.7c-8.2,2.7-14.8,8.3-20.7,14.8C66.5,65.4,54,79.2,45.8,95.7c-5.9,6.5-10.9,13.6-12.8,22.4
	c-1.9,8.8-0.3,17.3,2.4,25.6c0.6,15.7,4.8,31.1,12.7,45.1c1.3,2.3,2.6,4.4,4,6.6c2.7,8.4,6.3,16.2,12.7,22
	c6.2,5.7,14.3,8.5,22.9,10.4c14.3,7.7,30.5,11.9,47.2,11.9c0,0,0,0,0,0c2.3,0,4.6-0.1,6.9-0.3c4.6,1,9.2,1.6,13.6,1.6c0,0,0,0,0,0
	c4.1,0,7.9-0.6,11.4-1.7c8.2-2.7,14.8-8.3,20.6-14.8c15.9-9.8,28.4-23.7,36.6-40.2c5.9-6.5,10.9-13.6,12.8-22.4
	C238.9,153.3,237.3,144.7,234.6,136.4z"/>
<path fill="#FFFFFF" d="M236.2,136.4c-0.6-15.9-4.9-31.6-12.9-45.9c-1.3-2.3-2.7-4.5-4.1-6.7c-2.7-8.5-6.4-16.4-13-22.4
	c-6.3-5.8-14.5-8.6-23.3-10.5c-14.5-7.8-31-12.1-48-12.1c-2.3,0-4.7,0.1-7,0.3c-4.7-1-9.3-1.7-13.8-1.7c-4.2,0-8,0.6-11.6,1.7
	c-8.4,2.7-15,8.4-21,15c-16.1,10-28.9,24.1-37.2,40.8c-6,6.6-11.1,13.8-13,22.8c-1.9,8.9-0.3,17.6,2.4,26.1
	c0.6,15.9,4.9,31.6,12.9,45.9c1.3,2.3,2.7,4.5,4.1,6.7c2.7,8.5,6.4,16.4,13,22.4c6.3,5.8,14.5,8.6,23.2,10.5
	c14.5,7.8,31,12.1,48,12.1c0,0,0,0,0,0c2.3,0,4.7-0.1,7-0.3c4.7,1,9.3,1.7,13.8,1.7c0,0,0,0,0,0c4.2,0,8-0.6,11.6-1.7
	c8.4-2.7,15-8.4,21-15c16.1-10,28.9-24.1,37.2-40.8c6-6.6,11.1-13.8,13-22.8C240.6,153.5,239,144.8,236.2,136.4z M231.6,124.1
	c-0.1-0.3-0.3-0.6-0.4-1c-1.8-4.3-3.4-8.4-4.7-12.5c-1.4-4.2-2.5-8.8-3.6-13.3c-0.1-0.3-0.1-0.6-0.2-0.9
	C227,105.3,230,114.6,231.6,124.1z M222.3,184.4c-2.8,2.9-5.7,5.7-8.6,8.5c-3.3,3.1-6.7,6.4-9.6,9.6c-0.8,0.9-1.6,1.8-2.3,2.7
	c1.5-3.1,3-6.2,4.4-9.3c1.9-4.3,3.8-8.4,5.9-12.1c2.2-3.9,4.9-7.8,7.6-11.7c5.4-7.8,10.9-15.8,13.1-24.6c-0.5,6.3-1.6,12.7-3.4,19
	C227.5,172.8,225.1,178.8,222.3,184.4z M129.2,234.6c-4.5-1.3-9.2-2.6-13.8-3.6c-1.3-0.3-2.7-0.5-4-0.8c3.5-0.2,7-0.5,10.4-0.8
	c4.6-0.4,9.4-0.9,13.9-0.9l0.4,0c4.2,0,8.5,0.4,13.1,0.8c4.6,0.4,9.4,0.8,14.1,0.8c0,0,0,0,0,0c5.2,0,9.7-0.5,13.7-1.6
	c-11.3,5.3-23.5,8.5-35.9,9.2C137.1,236.9,133.2,235.8,129.2,234.6z M50,182c-1.1-4.5-2.3-9.1-3.7-13.4c-0.5-1.5-1-3-1.6-4.5
	c1.9,3,4,5.9,6,8.8c2.7,3.9,5.5,7.9,7.9,11.9c2.4,4,4.5,8.4,6.5,12.7c4,8.4,8.2,17,14.4,23.2c-10.4-7.1-19.4-16.2-26.4-27
	C52,189.9,51,185.9,50,182z M47.7,95.7c2.8-2.9,5.7-5.7,8.6-8.5c3.3-3.1,6.7-6.4,9.6-9.6c0.8-0.9,1.6-1.8,2.3-2.7
	c-1.5,3.1-3,6.2-4.4,9.3c-1.9,4.3-3.8,8.4-5.9,12.1c-2.2,3.9-4.9,7.8-7.6,11.7c-5.4,7.8-10.9,15.8-13.1,24.5
	c0.5-6.3,1.6-12.7,3.4-18.9C42.5,107.4,44.9,101.4,47.7,95.7z M140.8,45.5c4.5,1.3,9.2,2.6,13.8,3.6c1.3,0.3,2.7,0.5,4,0.8
	c-3.5,0.2-7,0.5-10.4,0.8c-4.6,0.4-9.4,0.9-13.9,0.9l-0.4,0c-4.2,0-8.5-0.4-13.1-0.8c-4.6-0.4-9.4-0.8-14.1-0.8
	c-5.2,0-9.7,0.5-13.7,1.6c11.3-5.3,23.5-8.5,35.9-9.2C132.9,43.2,136.8,44.4,140.8,45.5z M220,98.1c1.1,4.5,2.3,9.1,3.7,13.5
	c0.5,1.5,1,3,1.6,4.5c-1.9-3-4-5.9-6-8.8c-2.7-3.9-5.5-7.9-7.9-11.9c-2.4-4-4.5-8.4-6.5-12.7c-4-8.4-8.2-17-14.4-23.2
	c10.3,7.1,19.4,16.2,26.4,26.9C218,90.2,219,94.2,220,98.1z M183.4,222.6c-5.3,3.1-11.8,4.6-20.2,4.6c0,0,0,0,0,0
	c-4.6,0-9.3-0.4-13.9-0.8c-4.4-0.4-9-0.8-13.3-0.8l-0.4,0c-4.6,0-9.4,0.5-14.1,0.9c-4.9,0.5-9.9,0.9-14.7,0.9c-8,0-14-1.3-19-4.2
	c-9.4-5.3-14.5-15.9-19.8-27c-2.1-4.3-4.2-8.8-6.7-12.9c-2.4-4.1-5.3-8.2-8-12.1c-7.1-10.1-13.8-19.7-13.9-30.5
	c-0.1-11.1,6.9-21.2,13.6-31c2.7-3.9,5.4-7.9,7.7-11.9c2.2-3.9,4.1-8.2,6-12.4c4.9-10.8,9.9-22,19.9-27.9c5.3-3.1,11.8-4.6,20.2-4.6
	c4.6,0,9.3,0.4,13.9,0.8c4.4,0.4,9,0.8,13.3,0.8l0.4,0c4.6,0,9.4-0.5,14.1-0.9c4.9-0.5,9.9-0.9,14.7-0.9c8,0,14,1.3,19,4.2
	c9.4,5.3,14.5,15.9,19.8,27c2.1,4.3,4.2,8.8,6.6,12.9c2.4,4.1,5.3,8.2,8,12.1c7.1,10.1,13.8,19.7,13.9,30.5
	c0.1,11.1-6.9,21.2-13.6,31c-2.7,3.9-5.4,7.9-7.7,11.9c-2.2,3.9-4.1,8.2-6,12.4C198.5,205.5,193.4,216.7,183.4,222.6z M204.2,63.7
	c3.4,3.1,6.1,6.9,8.2,11.1c-5.9-6.9-12.6-13-20-18.1C196.8,58.4,200.8,60.6,204.2,63.7z M169.9,48.6c-0.3,0-0.5-0.1-0.8-0.1
	c-4.6-0.7-9.3-1.4-13.8-2.4c-4.5-1-9.1-2.3-13.6-3.5c-0.3-0.1-0.6-0.2-0.9-0.2C150.9,43,160.7,45.1,169.9,48.6z M103.4,41.9
	c3.3-1.1,6.8-1.6,10.6-1.6c0.9,0,1.8,0,2.8,0.1c-8.8,1.6-17.3,4.4-25.4,8.2C95.1,45.7,99,43.4,103.4,41.9z M73.1,64.2
	c-0.2,0.3-0.4,0.5-0.6,0.8c-2.8,3.6-5.8,7.3-8.8,10.6c-2.9,3.2-6.1,6.2-9.5,9.5c-0.2,0.2-0.5,0.5-0.7,0.7
	C58.9,77.6,65.5,70.4,73.1,64.2z M34.3,118.3c1-4.7,3-9,5.6-12.9c-0.9,2.4-1.6,4.8-2.3,7.3c-1.8,6.5-3,13.1-3.5,19.6
	C33.3,127.7,33.2,123,34.3,118.3z M38.4,156c0.1,0.3,0.3,0.6,0.4,1c1.8,4.3,3.4,8.4,4.7,12.5c1.4,4.2,2.5,8.8,3.6,13.3
	c0.1,0.3,0.1,0.6,0.2,0.9C43,174.8,40,165.5,38.4,156z M65.8,216.5c-3.4-3.1-6.1-6.9-8.2-11.1c5.9,6.9,12.6,13,20,18.1
	C73.2,221.8,69.2,219.6,65.8,216.5z M100.1,231.5c0.3,0,0.6,0.1,0.8,0.1c4.6,0.7,9.3,1.4,13.8,2.4c4.5,1,9.1,2.3,13.6,3.5
	c0.3,0.1,0.6,0.2,0.9,0.3C119.1,237.2,109.3,235,100.1,231.5z M166.6,238.2c-3.3,1.1-6.8,1.6-10.6,1.6h0c-0.9,0-1.8,0-2.8-0.1
	c8.8-1.6,17.3-4.4,25.4-8.2C174.9,234.4,171,236.8,166.6,238.2z M196.8,215.9c0.2-0.3,0.4-0.5,0.6-0.8c2.8-3.6,5.8-7.3,8.8-10.6
	c2.9-3.2,6.1-6.2,9.5-9.5c0.2-0.2,0.5-0.5,0.7-0.7C211.1,202.5,204.5,209.8,196.8,215.9z M235.7,161.8c-1,4.7-3,9-5.6,12.9
	c0.9-2.4,1.6-4.8,2.3-7.3c1.8-6.5,3-13.1,3.5-19.6C236.7,152.4,236.7,157.1,235.7,161.8z"/>
<path fill="#FFFFFF" d="M23,102l-2.7-5.3c2.8-1.5,4.8-3.6,5.9-6.2c0.7-1.7,0.5-2.9-0.4-3.3l-0.1,0c-0.9-0.4-1.8,0.1-3.8,2.9
	c-3.2,4.4-6.2,7.5-10.9,5.5l-0.1,0c-4.2-1.8-5.8-6.5-3.5-12c1.7-3.9,4-6.4,7.1-8l3.1,5.1c-2.4,1.4-4.1,3.4-5,5.4
	c-0.7,1.5-0.3,2.6,0.5,2.9l0.1,0c1,0.5,1.8-0.1,3.9-3c3.4-4.7,6.5-7.2,10.8-5.4l0.1,0c4.6,2,5.8,6.9,3.4,12.4
	C29.6,97,26.7,100.2,23,102z"/>
<path fill="#FFFFFF" d="M18,63.7l4.1-5.5l8,6.1l-2.9-12.9l4.9-6.5l2.9,13.9l17.1,0.8l-5,6.6l-11.1-0.6l0.7,3.7l5.1,3.9l-4.1,5.5
	L18,63.7z"/>
<path fill="#FFFFFF" d="M39.8,37.6l15.4-12.6l3.7,4.5l-10.2,8.3l2.4,2.9l9.2-7.5l3.4,4.2l-9.2,7.5l2.5,3l10.3-8.4L71,44L55.5,56.7
	L39.8,37.6z"/>
<path fill="#FFFFFF" d="M72.9,21.5l-6.7,3.3l-2.7-5.4L83,9.7l2.7,5.4l-6.7,3.3l8.4,16.8l-6.2,3.1L72.9,21.5z"/>
<path fill="#FFFFFF" d="M94.7,18.6L94.7,18.6C93,11.5,97.1,4.7,104.4,3c4.9-1.2,8.6,0.2,11.4,2.6l-4.1,5.1c-1.8-1.4-3.6-2.1-5.9-1.6
	c-3.4,0.8-5.1,4.2-4.3,7.7l0,0.1c0.8,3.6,3.9,5.9,7.3,5.1c2.5-0.6,3.7-2.1,4.8-4.2l5.9,2.4c-1.5,3.7-4.1,6.7-9.4,8
	C103.1,29.8,96.4,25.8,94.7,18.6z"/>
<path fill="#FFFFFF" d="M126.1,0l6.9,0.1l-0.2,9.3l8.8,0.2l0.2-9.3l6.9,0.1l-0.5,24.8l-6.9-0.1l0.2-9.4l-8.8-0.2l-0.2,9.4l-6.9-0.1
	L126.1,0z"/>
<path fill="#FFFFFF" d="M171,17.4L171,17.4c2.7-6.8,10-9.9,17-7.1c4.7,1.9,6.9,5.1,7.8,8.7l-6.3,1.8c-0.6-2.2-1.7-3.8-3.9-4.7
	c-3.2-1.3-6.6,0.5-7.9,3.9l0,0.1c-1.4,3.4-0.2,7.1,3,8.4c2.4,1,4.3,0.4,6.3-0.7l3.4,5.4c-3.4,2.1-7.2,3.1-12.3,1.1
	C171.5,31.5,168.3,24.3,171,17.4z"/>
<path fill="#FFFFFF" d="M214.3,25.2l5.3,3.9l-6.4,26.3l-5.9-4.4l1.2-4.6l-7.7-5.7l-4.1,2.5L191,39L214.3,25.2z M210.1,41l2-7.3
	l-6.4,4L210.1,41z"/>
<path fill="#FFFFFF" d="M235.9,43.5l4.4,5.7l-4,10.5l11.2-1.2l4.4,5.7l-19.6,15.1l-4.2-5.4l11.3-8.7l-11.6,0.9l-0.1-0.1l3.8-10.9
	L220.4,64l-4.1-5.3L235.9,43.5z"/>
<path fill="#FFFFFF" d="M258.4,76.3l4.1,9.8c2.4,5.8,1,10.8-4.1,12.9l-0.1,0c-5.4,2.2-10-0.7-12.3-6.4l-1.3-3.1l-6.5,2.7l-2.6-6.3
	L258.4,76.3z M250.9,90.3c0.9,2.3,2.7,3.1,4.5,2.4l0.1,0c2-0.8,2.4-2.6,1.5-4.9l-1.2-3l-6,2.5L250.9,90.3z"/>
<g>
	<polygon fill="#FF0000" points="153,261.2 149.8,262.5 151.4,265.7 148.6,263.6 146.6,266.5 147.1,263 143.6,262.8 146.8,261.4 
		145.3,258.3 148,260.4 150,257.5 149.5,261 	"/>
</g>
<path fill="#FFFFFF" d="M40.7,220.4L40.7,220.4c2.9-2.8,7.4-3,10.4,0.2c1.9,1.9,2.3,3.7,2.3,5.5l-3,0.2c0-1.5-0.4-2.7-1.4-3.7
	c-1.7-1.7-4.3-1.6-6,0.1l0,0c-1.7,1.7-2,4.3-0.3,6c1.1,1.2,2.3,1.4,3.8,1.5l-0.1,2.8c-2.1,0-4-0.4-5.9-2.4
	C37.7,227.7,37.8,223.2,40.7,220.4z"/>
<path fill="#FFFFFF" d="M57.5,227l2.5,1.9l-3.5,4.4l4.5,3.5l3.5-4.4l2.5,1.9l-8.7,11.1l-2.5-1.9l3.5-4.5l-4.5-3.5l-3.5,4.5l-2.5-1.9
	L57.5,227z"/>
<path fill="#FFFFFF" d="M70.3,236.6l2.6,1.7l-7.6,11.9l-2.6-1.7L70.3,236.6z"/>
<path fill="#FFFFFF" d="M72.4,246.4L72.4,246.4c1.8-3.6,6.1-5.2,9.9-3.2c2.4,1.2,3.4,2.7,4,4.5l-2.8,1.1c-0.5-1.4-1.2-2.4-2.5-3.1
	c-2.1-1.1-4.6-0.1-5.7,2.1l0,0c-1.1,2.2-0.5,4.7,1.6,5.8c1.4,0.7,2.6,0.6,4.1,0.2l0.9,2.7c-2,0.7-3.9,0.9-6.3-0.4
	C71.8,254.3,70.5,250,72.4,246.4z"/>
<path fill="#FFFFFF" d="M95.1,248.8l2.7,0.9l1.1,15.5l-3.1-1.1l-0.2-3.4l-5.7-1.9l-2.3,2.6l-3-1L95.1,248.8z M95.5,257.7l-0.3-5
	l-3.3,3.7L95.5,257.7z"/>
<path fill="#FFFFFF" d="M103.9,259.2L103.9,259.2c0.8-4,4.5-6.6,8.7-5.8c2.5,0.5,3.9,1.5,5.1,3l-2.4,1.9c-0.9-1.1-1.7-1.8-3.4-2.1
	c-2.2-0.4-4.4,1.2-4.8,3.5l0,0c-0.5,2.5,0.9,4.7,3.3,5.2c1.1,0.2,2.2,0.1,3-0.3l0.4-2l-3.1-0.6l0.5-2.6l6,1.2l-1.2,6
	c-1.7,0.9-3.8,1.5-6.4,1C105.5,266.9,103.1,263.3,103.9,259.2z"/>
<path fill="#FFFFFF" d="M121.8,262.4L121.8,262.4c0.2-4.1,3.5-7.2,7.8-7c4.4,0.2,7.4,3.6,7.2,7.6l0,0c-0.2,4-3.5,7.2-7.8,7
	C124.6,269.8,121.6,266.4,121.8,262.4z M133.6,262.9L133.6,262.9c0.1-2.5-1.6-4.6-4.1-4.7c-2.5-0.1-4.3,1.8-4.4,4.2l0,0
	c-0.1,2.4,1.6,4.5,4.1,4.6C131.7,267.2,133.5,265.3,133.6,262.9z"/>
<path fill="#FFFFFF" d="M159.7,260.5L159.7,260.5c-1-3.9,1.1-7.9,5.3-9c2.6-0.7,4.4-0.2,6,0.7l-1.3,2.7c-1.3-0.7-2.5-1-3.9-0.6
	c-2.3,0.6-3.5,2.9-2.9,5.3l0,0c0.6,2.4,2.7,3.9,5.1,3.3c1.6-0.4,2.4-1.3,3.2-2.5l2.4,1.4c-1,1.9-2.3,3.2-5,3.9
	C164.5,266.8,160.7,264.4,159.7,260.5z"/>
<path fill="#FFFFFF" d="M178.4,247.2l2.7-1.1l11.1,10.8l-3,1.2l-2.4-2.4l-5.5,2.3l0,3.4l-2.9,1.2L178.4,247.2z M184.6,253.7
	l-3.5-3.5l0,5L184.6,253.7z"/>
<path fill="#FFFFFF" d="M189.7,242.3l2.9-1.7l6.3,3.2l0.1-7.1l2.9-1.7l7.4,12.1l-2.6,1.6l-4.8-7.9l-0.3,7.2l-0.1,0l-6.5-3.1l4.8,7.8
	l-2.6,1.6L189.7,242.3z"/>
<path fill="#FFFFFF" d="M205.5,232.1l4.5-3.7c2.6-2.1,5.5-1.9,7.3,0.3l0,0c2.1,2.5,1.2,5.5-1.3,7.5l-1.8,1.5l2.7,3.3l-2.4,2
	L205.5,232.1z M214.3,234.1c1.2-1,1.3-2.3,0.5-3.2l0,0c-0.9-1.1-2.1-1-3.3,0l-1.9,1.5l2.8,3.3L214.3,234.1z"/>
<path fill="#FFFFFF" d="M224.4,231.9l-0.3-2.9c1.6-0.2,3-0.7,4.2-1.9c0.9-0.9,1-1.8,0.4-2.4l0,0c-0.6-0.5-1.2-0.5-3.3,0.8
	c-2.5,1.6-4.3,2.3-6.4,0.4l0,0c-1.9-1.8-1.7-4.4,0.3-6.5c1.4-1.5,3.1-2.3,4.9-2.6l0.6,2.8c-1.5,0.3-2.7,0.8-3.6,1.7
	c-0.8,0.9-0.9,1.7-0.4,2.2l0,0c0.7,0.6,1.3,0.4,3.5-0.9c2.5-1.6,4.4-2,6.2-0.3l0,0c2,1.9,1.7,4.6-0.4,6.8
	C228.7,230.7,226.7,231.7,224.4,231.9z"/>
<path fill="#515254" d="M123.1,109.6c1.8,1.8,2.5,3.8,1.2,5.2l-0.1,0.1c-1.3,1.3-3.8,1-5.6-0.8L90.2,85.7c-1.8-1.8-5.2-7.3-3.8-8.7
	l0.1-0.1c1.3-1.3,6.5,2.5,8.2,4.3L123.1,109.6z"/>
<path fill="#515254" d="M122,116.7c-1.5,0-3-0.7-4.2-1.9L89.4,86.5c-1.6-1.6-4.4-6-4.4-8.5c0-0.7,0.2-1.3,0.6-1.7l0.1-0.1
	c0.3-0.3,0.8-0.6,1.5-0.6c2.6,0,6.9,3.6,8.2,4.8l28.4,28.4c2.4,2.4,2.9,5,1.2,6.7l-0.1,0.1C124.2,116.3,123.2,116.7,122,116.7z
	 M87.1,77.8C86.8,78.7,89,83,90.9,85l28.4,28.4c0.8,0.8,1.8,1.3,2.7,1.3c0.4,0,0.9-0.1,1.4-0.5l0.1-0.1c0.9-0.9-0.1-2.5-1.2-3.7
	L94,82c-1.7-1.7-5.3-4.2-6.7-4.2C87.2,77.7,87.2,77.7,87.1,77.8L87.1,77.8z"/>
<path fill="#FFFFFF" d="M156,136.4c3.3,3.3,3.8,8.3,0.7,11.3l0,0c-3.1,3.1-8,2.6-11.3-0.7L94,95.6c-3.3-3.3-3.8-8.3-0.7-11.3l0,0
	c3.1-3.1,8-2.6,11.3,0.8L156,136.4z"/>
<path fill="#515254" d="M151.7,150.9c-2.5,0-5.1-1.1-7.1-3.1L93.3,96.4c-3.8-3.8-4.1-9.5-0.7-12.8c1.5-1.5,3.6-2.4,5.7-2.4
	c2.5,0,5.1,1.1,7.1,3.1l51.4,51.3c3.8,3.8,4.1,9.5,0.7,12.8C156,150,153.9,150.9,151.7,150.9z M98.3,83.3c-1.6,0-3.1,0.6-4.2,1.7
	c-2.6,2.6-2.3,6.8,0.7,9.8l51.4,51.3c1.6,1.6,3.6,2.5,5.6,2.5c1.6,0,3.1-0.6,4.2-1.7c2.6-2.6,2.3-6.8-0.7-9.8l-51.4-51.3
	C102.3,84.2,100.3,83.3,98.3,83.3z"/>
<path fill="#FFFFFF" d="M177.9,156.8c3.3,3.3,8.4,13.8,5,17.1l0,0c-3.3,3.3-13.9-1.8-17.3-5.2l-48.5-48.5l12.1-12.1L177.9,156.8z"/>
<path fill="#515254" d="M179.7,176.1c-5,0-12.1-3.9-14.8-6.6l-48.5-48.5c-0.2-0.2-0.3-0.5-0.3-0.8s0.1-0.6,0.3-0.8l12.1-12.1
	c0.4-0.4,1.1-0.4,1.5,0l48.6,48.6c1.9,1.9,4,5.5,5.3,8.9c1.2,3.2,2,7.4-0.2,9.7C182.7,175.6,181.4,176.1,179.7,176.1z M118.7,120.3
	l47.7,47.7c2.4,2.4,9,5.9,13.3,5.9c1.1,0,2-0.3,2.5-0.8c1.1-1.1,1-3.9-0.3-7.4c-1.2-3.2-3.1-6.5-4.8-8.2l-47.8-47.8L118.7,120.3z"/>
<polygon fill="#FFFFFF" points="156.5,92.2 185.8,75.3 168.5,104.1 "/>
<path fill="#515254" d="M168.5,105.2c-0.3,0-0.6-0.1-0.8-0.3L155.8,93c-0.2-0.2-0.3-0.6-0.3-0.9c0-0.3,0.2-0.6,0.5-0.8l29.3-17
	c0.4-0.2,1-0.2,1.3,0.2c0.3,0.3,0.4,0.9,0.2,1.3l-17.3,28.9c-0.2,0.3-0.5,0.5-0.8,0.5C168.6,105.2,168.5,105.2,168.5,105.2z
	 M158.3,92.5l10,10l14.5-24.2L158.3,92.5z"/>
<g>
	<polygon fill="#515254" points="171.9,83.3 185.8,75.3 178.6,87.2 	"/>
	<path fill="#515254" d="M178.6,88.3c-0.2,0-0.4,0-0.5-0.1l-6.7-3.9c-0.3-0.2-0.5-0.5-0.5-0.9c0-0.4,0.2-0.7,0.5-0.9l13.9-8
		c0.4-0.2,1-0.2,1.3,0.2c0.3,0.3,0.4,0.9,0.2,1.3l-7.2,11.9C179.3,88.1,179,88.3,178.6,88.3z M174,83.3l4.2,2.4l4.5-7.5L174,83.3z"
		/>
</g>
<path fill="#FFFFFF" d="M155.7,92.9c1.8-1.8,5-1.6,6.7,0.2c1.3,1.3,1.7,3.4,1,5.1c1.7-0.7,3.4-0.7,4.7,0.6c1.7,1.7,1.4,4.4-0.4,6.2
	l0,0L108.8,164c-3.3,3.3-15.3-8.9-12.1-12.1L155.7,92.9L155.7,92.9z"/>
<path fill="#515254" d="M107.3,165.6c-3.8,0-9.9-5.7-11.7-10c-1-2.4-0.4-3.8,0.3-4.5l58.9-58.9c0,0,0,0,0,0c1-1,2.4-1.6,3.9-1.6
	c1.6,0,3.2,0.6,4.3,1.7c1.2,1.2,1.7,2.8,1.7,4.4c1.5-0.2,3,0.3,4.1,1.4c1,1,1.6,2.4,1.4,3.9c-0.1,1.4-0.8,2.7-1.8,3.8l-58.9,58.9
	C109,165.3,108.2,165.6,107.3,165.6z M158.9,92.7c-1,0-1.8,0.3-2.4,0.9c0,0,0,0,0,0l-58.9,58.9c-0.5,0.5-0.1,1.7,0.1,2.2
	c1.6,3.8,7,8.7,9.7,8.7c0.4,0,0.6-0.1,0.8-0.3l58.9-58.9c0.7-0.7,1.1-1.6,1.2-2.5c0-0.6-0.1-1.5-0.8-2.2c-0.9-0.9-2.2-1-3.6-0.4
	c-0.4,0.2-0.9,0.1-1.2-0.2c-0.3-0.3-0.4-0.8-0.2-1.2c0.6-1.3,0.2-2.9-0.8-3.9C161,93.1,159.9,92.7,158.9,92.7z"/>
<path fill="#FFFFFF" d="M97.7,175.1c-1.8,1.8-4.7,1.8-6.4,0l-5.6-5.6c-1.8-1.8-1.8-4.7,0-6.4L96,152.6l12.1,12.1L97.7,175.1z"/>
<path fill="#515254" d="M94.5,177.5c-1.5,0-2.9-0.6-4-1.6l-5.6-5.6c-2.2-2.2-2.2-5.8,0-8l10.4-10.4c0.2-0.2,0.5-0.3,0.8-0.3l0,0
	c0.3,0,0.6,0.1,0.8,0.3l12.1,12.1c0.4,0.4,0.4,1.1,0,1.5l-10.4,10.4C97.4,176.9,96,177.5,94.5,177.5z M96,154.1l-9.6,9.6
	c-1.4,1.4-1.4,3.6,0,4.9l5.6,5.6c0.7,0.7,1.5,1,2.5,1s1.8-0.4,2.5-1l9.6-9.6L96,154.1z"/>
<polygon fill="#515254" points="151.4,214.1 140.1,218.4 110.3,207.1 121.6,202.8 "/>
<path fill="#FFFFFF" d="M140.1,219.4c-0.1,0-0.2,0-0.4-0.1L109.9,208c-0.4-0.1-0.7-0.5-0.7-1c0-0.4,0.3-0.8,0.7-0.9l11.3-4.3
	c0.2-0.1,0.5-0.1,0.7,0l29.8,11.3c0.4,0.1,0.7,0.5,0.7,1s-0.3,0.8-0.7,1l-11.3,4.3C140.3,219.4,140.2,219.4,140.1,219.4z
	 M113.2,207.1l26.9,10.2l8.4-3.2l-26.9-10.2L113.2,207.1z"/>
<polygon fill="#FFCD03" points="121.5,202.8 110.2,207.1 103.4,204.5 114.7,200.2 "/>
<path fill="#FFFFFF" d="M110.2,208.1c-0.1,0-0.2,0-0.4-0.1l-6.8-2.6c-0.4-0.1-0.7-0.5-0.7-1c0-0.4,0.3-0.8,0.7-1l11.3-4.3
	c0.2-0.1,0.5-0.1,0.7,0l6.8,2.6c0.4,0.1,0.7,0.5,0.7,0.9c0,0.4-0.3,0.8-0.7,1l-11.3,4.3C110.5,208.1,110.3,208.1,110.2,208.1z
	 M106.2,204.5l4,1.5l8.4-3.2l-4-1.5L106.2,204.5z"/>
<polygon fill="#515254" points="155.6,220 140.3,218.4 151.2,214.2 "/>
<path fill="#FFFFFF" d="M155.6,221c0,0-0.1,0-0.1,0l-15.4-1.6c-0.5-0.1-0.8-0.4-0.9-0.9c-0.1-0.5,0.2-0.9,0.6-1.1l11-4.2
	c0.4-0.2,0.9,0,1.2,0.3l4.4,5.8c0.2,0.3,0.3,0.8,0.1,1.1C156.3,220.8,156,221,155.6,221z M144.6,217.8l8.8,0.9l-2.5-3.3L144.6,217.8
	z"/>
<polygon fill="#515254" points="126.8,218.4 115.5,214.1 145.3,202.8 156.6,207.1 "/>
<path fill="#FFFFFF" d="M126.8,219.4c-0.1,0-0.2,0-0.4-0.1l-11.3-4.3c-0.4-0.1-0.7-0.5-0.7-1c0-0.4,0.3-0.8,0.7-1l29.8-11.3
	c0.2-0.1,0.5-0.1,0.7,0l11.3,4.3c0.4,0.1,0.7,0.5,0.7,1c0,0.4-0.3,0.8-0.7,1l-29.8,11.3C127,219.4,126.9,219.4,126.8,219.4z
	 M118.3,214.1l8.4,3.2l26.9-10.2l-8.4-3.2L118.3,214.1z"/>
<polygon fill="#FFCD03" points="156.5,207.1 145.2,202.8 152,200.2 163.3,204.5 "/>
<path fill="#FFFFFF" d="M156.5,208.1c-0.1,0-0.2,0-0.4-0.1l-11.3-4.3c-0.4-0.1-0.7-0.5-0.7-1c0-0.4,0.3-0.8,0.7-0.9l6.8-2.6
	c0.2-0.1,0.5-0.1,0.7,0l11.3,4.3c0.4,0.1,0.7,0.5,0.7,1c0,0.4-0.3,0.8-0.7,1l-6.8,2.6C156.7,208.1,156.6,208.1,156.5,208.1z
	 M148,202.8l8.4,3.2l4-1.5l-8.4-3.2L148,202.8z"/>
<polygon fill="#515254" points="111.3,220 115.6,214.2 126.6,218.4 "/>
<path fill="#FFFFFF" d="M111.3,221.1c-0.4,0-0.7-0.2-0.9-0.5c-0.2-0.4-0.2-0.8,0.1-1.1l4.3-5.8c0.3-0.4,0.8-0.5,1.2-0.3l11,4.2
	c0.4,0.2,0.7,0.6,0.6,1.1c-0.1,0.5-0.4,0.8-0.9,0.9l-15.3,1.7C111.3,221,111.3,221.1,111.3,221.1z M116,215.4l-2.5,3.4l8.8-1
	L116,215.4z"/>
<path fill="#FFCD03" d="M121,175.9L121,175.9c-3.5-2.6-2.1-5.6-1.2-7c-1.4,1.8-4.7,6.7-3.7,9.9h0c0.2,1.5,1.5,2.6,3,2.6
	c1.7,0,3.1-1.4,3.1-3.1C122.2,177.4,121.7,176.5,121,175.9z"/>
<path fill="#FFFFFF" d="M119.1,182.5c-2,0-3.7-1.4-4-3.4c-1-3.5,2-8.2,3.8-10.8c0.3-0.4,1-0.5,1.4-0.2c0.4,0.3,0.6,0.9,0.3,1.4
	c-1.5,2.1-1.1,4,0.9,5.6c1,0.8,1.7,2,1.7,3.3C123.2,180.7,121.4,182.5,119.1,182.5z M117.1,178.5c0,0.1,0,0.1,0.1,0.2
	c0.2,1,1,1.7,2,1.7c1.1,0,2.1-0.9,2.1-2.1c0-0.7-0.3-1.3-0.8-1.7c-1.2-0.9-2-1.9-2.3-3C117.2,175.4,116.7,177.2,117.1,178.5z"/>
<path fill="#FFCD03" d="M150.7,166.2L150.7,166.2c3.5-2.6,2.1-5.6,1.2-7c1.4,1.8,4.7,6.7,3.7,9.9h0c-0.2,1.5-1.5,2.6-3,2.6
	c-1.7,0-3.1-1.4-3.1-3.1C149.5,167.6,150,166.7,150.7,166.2z"/>
<path fill="#FFFFFF" d="M152.5,172.8c-2.3,0-4.1-1.8-4.1-4.1c0-1.3,0.6-2.5,1.7-3.3c2.1-1.6,2.4-3.4,0.9-5.6
	c-0.3-0.5-0.2-1.1,0.3-1.4c0.4-0.3,1.1-0.2,1.4,0.2c1.9,2.5,4.9,7.2,3.8,10.8C156.2,171.3,154.5,172.8,152.5,172.8z M153.7,164
	c-0.4,1.1-1.2,2.1-2.3,3c-0.5,0.4-0.9,1-0.9,1.7c0,1.1,0.9,2.1,2.1,2.1c1,0,1.9-0.7,2-1.7c0-0.1,0-0.1,0.1-0.2
	C155,167.4,154.5,165.6,153.7,164z"/>
<path fill="#FFCD03" d="M149.3,178.8c-2.1-3.2-4.7-6.1-7.3-8.6c1.8-3.3,2.9-6,2.9-6c4.7-11.1-0.5-23.9-11.6-28.6
	c7.1,3,10.7,11.7,7.4,18.4c-1.2,2.4-3.8,5.7-6.9,9.2c-2.1-1.8-3.9-3.3-5-4.7c-3.7-4.5-0.6-11-0.6-11s-4.8,1.9-5.8,9
	c-0.4,2.9,1.9,8,5.2,13.4c-3.4,3.5-6.3,6.5-7.3,7.8c-2.5,3.3-5.2,7.9-5.2,12.9c0,10.3,8.4,18.7,18.7,18.7c10.3,0,18.7-8.4,18.7-18.7
	C152.6,186.6,151.3,182.6,149.3,178.8z M133.9,196.6c-5.3-5.3-2.5-11.5,0.9-16.2C138.3,186,139.4,191.1,133.9,196.6z"/>
<path fill="#FFFFFF" d="M133.9,210.2c-10.9,0-19.7-8.8-19.7-19.7c0-4.3,1.8-8.9,5.4-13.5c0.8-1.1,2.8-3.1,5.3-5.7
	c0.5-0.5,1-1,1.5-1.6c-3.7-6.1-5.4-10.6-4.9-13.4c1.1-7.6,6.3-9.7,6.5-9.8c0.4-0.2,0.8-0.1,1.1,0.3c0.3,0.3,0.4,0.8,0.2,1.1
	c0,0.1-2.8,6,0.4,9.9c0.9,1.1,2.2,2.3,4.1,3.9c3.2-3.6,5.1-6.3,6.1-8.2c1.4-2.8,1.5-6.1,0.3-9.3c-1.3-3.5-3.9-6.2-7.2-7.6
	c0,0,0,0,0,0c-0.5-0.2-0.8-0.8-0.5-1.3c0.2-0.5,0.8-0.8,1.3-0.5l0,0c5.6,2.4,10,6.8,12.2,12.4s2.2,11.8-0.1,17.4
	c0,0.1-1,2.4-2.6,5.4c2.9,2.8,5.2,5.6,6.9,8.3c0,0,0,0,0,0.1c2.3,4.3,3.4,8.4,3.4,12.2C153.6,201.4,144.8,210.2,133.9,210.2z
	 M126.4,150.1c-1.2,1.2-2.4,3.3-2.9,6.5c-0.3,2.3,1.5,6.8,5.1,12.7c0.2,0.4,0.2,0.9-0.1,1.2c-0.7,0.7-1.4,1.5-2.1,2.2
	c-2.3,2.4-4.4,4.6-5.1,5.5c-3.3,4.3-5,8.5-5,12.3c0,9.7,7.9,17.7,17.7,17.7c9.7,0,17.7-7.9,17.7-17.7c0-3.4-1.1-7.1-3.2-11.2
	c-1.8-2.8-4.1-5.5-7.1-8.4c-0.3-0.3-0.4-0.8-0.2-1.2c1.7-3.2,2.9-5.9,2.9-5.9c2.2-5.1,2.2-10.8,0.1-15.9c-0.5-1.1-1-2.2-1.7-3.3
	c1,3.4,0.7,6.8-0.7,9.8c-1.1,2.2-3.4,5.3-7,9.4c-0.4,0.4-1,0.5-1.4,0.1c-2.3-2-4-3.4-5.1-4.8C125.8,156.2,125.9,152.6,126.4,150.1z
	 M133.9,197.6L133.9,197.6c-0.3,0-0.5-0.1-0.7-0.3c-4.6-4.6-4.3-10.5,0.8-17.5c0.2-0.3,0.5-0.4,0.9-0.4c0.3,0,0.6,0.2,0.8,0.5
	c3.1,5,5.4,11-1.1,17.5C134.5,197.5,134.2,197.6,133.9,197.6z M134.8,182.2c-3.4,5.2-3.7,9.4-0.8,12.8
	C137.9,190.7,137.3,186.7,134.8,182.2z"/>
<path fill="#FFCD03" d="M129.3,138.2L129.3,138.2c-3.5-2.6-2.1-5.6-1.2-7c-1.4,1.8-4.7,6.7-3.7,9.9h0c0.2,1.5,1.5,2.6,3,2.6
	c1.7,0,3.1-1.4,3.1-3.1C130.6,139.7,130.1,138.8,129.3,138.2z"/>
<path fill="#FFFFFF" d="M127.5,144.8c-2,0-3.7-1.4-4-3.4c-1-3.5,2-8.3,3.9-10.8c0.3-0.4,1-0.5,1.4-0.2c0.4,0.3,0.6,0.9,0.2,1.4
	c-1.5,2.1-1.1,4,0.9,5.6c1,0.8,1.7,2,1.7,3.3C131.6,142.9,129.7,144.8,127.5,144.8z M125.4,140.8c0,0.1,0,0.1,0.1,0.2
	c0.2,1,1,1.7,2,1.7c1.1,0,2.1-0.9,2.1-2.1c0-0.7-0.3-1.3-0.8-1.7c-1.2-0.9-1.9-1.9-2.3-3C125.5,137.8,125,139.5,125.4,140.8z"/>
</svg>
