<?xml version="1.0" encoding="utf-8"?>
<!-- Generator: Adobe Illustrator 18.1.0, SVG Export Plug-In . SVG Version: 6.00 Build 0)  -->
<!DOCTYPE svg PUBLIC "-//W3C//DTD SVG 1.1//EN" "http://www.w3.org/Graphics/SVG/1.1/DTD/svg11.dtd">
<svg version="1.1" id="Layer_1" xmlns="http://www.w3.org/2000/svg" xmlns:xlink="http://www.w3.org/1999/xlink" x="0px" y="0px"
	 viewBox="0 0 270 270" enable-background="new 0 0 270 270" xml:space="preserve">
<path fill="#B3DDF2" d="M234.5,136.4c-0.6-15.7-4.8-31.1-12.7-45.1c-1.3-2.3-2.6-4.4-4-6.6c-2.7-8.4-6.3-16.2-12.7-22
	c-6.2-5.7-14.3-8.5-22.9-10.3c-14.3-7.7-30.4-11.9-47.2-11.9c-2.3,0-4.6,0.1-6.9,0.3c-4.6-1-9.1-1.6-13.6-1.6
	c-4.1,0-7.8,0.6-11.4,1.7c-8.2,2.7-14.8,8.3-20.6,14.8C66.6,65.4,54,79.2,45.9,95.7c-5.9,6.5-10.9,13.6-12.8,22.4
	c-1.9,8.8-0.3,17.3,2.4,25.6c0.6,15.6,4.8,31,12.7,45.1c1.3,2.3,2.6,4.4,4,6.6c2.7,8.4,6.3,16.2,12.7,22c6.2,5.7,14.3,8.5,22.8,10.3
	c14.3,7.7,30.5,11.9,47.2,11.9c0,0,0,0,0,0c2.3,0,4.6-0.1,6.9-0.3c4.6,1,9.1,1.6,13.6,1.6c0,0,0,0,0,0c4.1,0,7.8-0.6,11.4-1.7
	c8.2-2.7,14.8-8.2,20.6-14.7c15.9-9.8,28.4-23.7,36.5-40.1c5.9-6.5,10.9-13.6,12.8-22.4C238.8,153.3,237.2,144.7,234.5,136.4z"/>
<path id="path692_1_" fill="#FFFFFF" d="M123.9,102.7c-6.4,4.1-10.5,11.8-13.2,20.2h48.3c-2.5-8.1-6.3-15.8-12.2-20.2
	C140.2,102.3,131.9,102.7,123.9,102.7z"/>
<path fill="#515254" d="M158.9,124.2h-48.3c-0.4,0-0.8-0.2-1.1-0.5c-0.2-0.3-0.3-0.8-0.2-1.2c3.3-10.1,7.9-17.1,13.8-20.9
	c0.2-0.1,0.5-0.2,0.7-0.2c2.7,0,5.5,0,8.1-0.1c2.7,0,5.2-0.1,7.6-0.1c2.8,0,5.1,0,7.1,0.2c0.3,0,0.5,0.1,0.7,0.3
	c5.4,4,9.6,11,12.7,20.8c0.1,0.4,0,0.8-0.2,1.2C159.7,124,159.3,124.2,158.9,124.2z M112.5,121.5h44.6c-2.7-8.2-6.4-14.1-10.8-17.5
	c-1.9-0.1-4-0.1-6.6-0.1c-2.4,0-5,0-7.6,0.1c-2.5,0-5.2,0.1-7.8,0.1C119.5,107.2,115.5,113.1,112.5,121.5z"/>
<ellipse id="svg_1_2_" fill="#FFFFFF" cx="162.9" cy="120.3" rx="8.2" ry="8.2"/>
<path fill="#515254" d="M162.9,129.8c-5.2,0-9.5-4.3-9.5-9.5c0-5.2,4.3-9.5,9.5-9.5s9.5,4.3,9.5,9.5
	C172.4,125.5,168.1,129.8,162.9,129.8z M162.9,113.4c-3.8,0-6.9,3.1-6.9,6.9c0,3.8,3.1,6.9,6.9,6.9c3.8,0,6.9-3.1,6.9-6.9
	C169.7,116.5,166.6,113.4,162.9,113.4z"/>
<ellipse id="svg_1_4_" fill="#FFFFFF" cx="105.9" cy="120.3" rx="8.2" ry="8.2"/>
<path fill="#515254" d="M105.9,129.8c-5.2,0-9.5-4.3-9.5-9.5c0-5.2,4.3-9.5,9.5-9.5c5.2,0,9.5,4.3,9.5,9.5
	C115.4,125.5,111.1,129.8,105.9,129.8z M105.9,113.4c-3.8,0-6.9,3.1-6.9,6.9c0,3.8,3.1,6.9,6.9,6.9c3.8,0,6.9-3.1,6.9-6.9
	C112.7,116.5,109.7,113.4,105.9,113.4z"/>
<path id="path699_2_" fill="#B3DDF2" d="M165.9,233.5l11.3-101.8c0-2.2-1.8-4-4-4H97.1c-2.2,0-4,1.8-4,4l11.1,96.1"/>
<path fill="#515254" d="M165.9,234.8c0,0-0.1,0-0.1,0c-0.7-0.1-1.3-0.7-1.2-1.5l11.3-101.7c0-1.4-1.2-2.6-2.7-2.6H97.1
	c-1.5,0-2.6,1.2-2.7,2.6l11.1,96.1c0.1,0.7-0.4,1.4-1.2,1.5c-0.7,0.1-1.4-0.4-1.5-1.2l-11.1-96.1c0-0.1,0-0.1,0-0.2
	c0-2.9,2.4-5.3,5.3-5.3h76.1c2.9,0,5.3,2.4,5.3,5.3c0,0,0,0.1,0,0.1l-11.3,101.8C167.2,234.3,166.6,234.8,165.9,234.8z"/>
<path id="rect682_1_" fill="#B3DDF2" d="M92,120.1h85.9c3.3,0,6,2,6,4.4v3.5c0,2.4-2.7,4.4-6,4.4H92c-3.3,0-6-2-6-4.4v-3.5
	C86,122,88.7,120.1,92,120.1z"/>
<path fill="#515254" d="M177.9,133.6H92c-4,0-7.3-2.6-7.3-5.7v-3.5c0-3.2,3.2-5.7,7.3-5.7h85.9c4,0,7.3,2.6,7.3,5.7v3.5
	C185.2,131.1,182,133.6,177.9,133.6z M92,121.4c-2.5,0-4.7,1.4-4.7,3v3.5c0,1.7,2.1,3,4.7,3h85.9c2.5,0,4.7-1.4,4.7-3v-3.5
	c0-1.7-2.1-3-4.7-3H92z"/>
<ellipse id="svg_1_3_" fill="#FFFFFF" cx="134.9" cy="88.3" rx="20.3" ry="20.3"/>
<path fill="#515254" d="M134.9,109.9c-11.9,0-21.6-9.7-21.6-21.6s9.7-21.6,21.6-21.6c11.9,0,21.6,9.7,21.6,21.6
	S146.8,109.9,134.9,109.9z M134.9,69.3c-10.5,0-19,8.5-19,19s8.5,19,19,19c10.5,0,19-8.5,19-19S145.3,69.3,134.9,69.3z"/>
<path fill="#FFFFFF" d="M19.6,116.4l-3.3-4.9c2.5-1.8,4.3-4.1,5.1-6.9c0.5-1.8,0.2-2.9-0.8-3.2l-0.1,0c-1-0.3-1.8,0.3-3.4,3.3
	c-2.6,4.7-5.2,8.2-10.1,6.8l-0.1,0c-4.4-1.3-6.6-5.7-4.9-11.4c1.2-4,3.2-6.9,6-8.9l3.7,4.6c-2.2,1.7-3.7,3.9-4.3,6
	c-0.5,1.6,0,2.6,0.8,2.8l0.1,0c1.1,0.3,1.8-0.4,3.5-3.4c2.8-5.1,5.5-8,10-6.7l0.1,0c4.9,1.4,6.6,6.1,5,11.9
	C25.5,110.6,23,114.3,19.6,116.4z"/>
<path fill="#FFFFFF" d="M9.8,79.3L15,70c3.1-5.5,7.8-7.4,12.6-4.7l0.1,0c5.1,2.9,5.6,8.3,2.6,13.7l-1.7,3l6.2,3.5l-3.4,6L9.8,79.3z
	 M25.5,76.5c1.2-2.1,0.8-4-0.9-5l-0.1,0c-1.9-1-3.6-0.3-4.8,1.9l-1.6,2.8l5.7,3.2L25.5,76.5z"/>
<path fill="#FFFFFF" d="M26.5,52.5l13.4-14.7l4.3,3.9l-8.8,9.7l2.8,2.5l8-8.8l4,3.6l-8,8.8l2.9,2.6l9-9.8l4.3,3.9L44.8,69.2
	L26.5,52.5z"/>
<path fill="#FFFFFF" d="M56.2,24.7l5.5-3.6l22.5,15l-6.1,4.1l-3.9-2.7l-8,5.3l1,4.7l-6,4L56.2,24.7z M69.6,34.1l-6.2-4.4l1.5,7.4
	L69.6,34.1z"/>
<path fill="#FFFFFF" d="M80.5,11.1L87,8.9l3.2,9.5L95,6.1l7.7-2.6l-5.5,13.1L111,26.9l-7.8,2.6l-8.8-6.7l-1.5,3.5l2.1,6.1l-6.5,2.2
	L80.5,11.1z"/>
<path fill="#FFFFFF" d="M113.1,1.7L133,0l0.5,5.8L120.4,7l0.3,3.7l11.8-1l0.5,5.4l-11.8,1l0.3,3.9l13.3-1.2l0.5,5.8l-20,1.8
	L113.1,1.7z"/>
<path fill="#FFFFFF" d="M145.4,0.4l11.6,1.8c3.7,0.6,6.2,1.9,7.6,3.9c1.2,1.6,1.7,3.6,1.3,6l0,0.1c-0.6,3.7-2.9,5.9-6.2,6.8l4.5,9.4
	l-7.8-1.2l-3.8-8.2l-0.1,0l-2.9-0.4l-1.1,7.4l-6.8-1L145.4,0.4z M154.8,13.8c2.3,0.4,3.8-0.6,4.1-2.3l0-0.1c0.3-1.9-1-3.1-3.2-3.5
	l-4.4-0.7l-0.9,5.9L154.8,13.8z"/>
<path fill="#FFFFFF" d="M186.1,23.2L186.1,23.2c3.6-6.4,11.2-8.6,17.7-4.9c4.4,2.5,6.2,5.9,6.6,9.7l-6.5,1c-0.4-2.2-1.2-4-3.3-5.2
	c-3-1.7-6.6-0.3-8.4,2.8l0,0.1c-1.8,3.2-1.1,7,1.9,8.7c2.3,1.3,4.2,1,6.3,0.1l2.7,5.7c-3.6,1.7-7.5,2.2-12.3-0.5
	C184.8,37.1,182.5,29.6,186.1,23.2z"/>
<path fill="#FFFFFF" d="M228,36.3l4.8,4.6l-9.7,25.3l-5.3-5.1l1.8-4.4l-6.9-6.6l-4.3,2l-5.2-5L228,36.3z M221.9,51.4l2.9-7l-6.9,3.1
	L221.9,51.4z"/>
<path fill="#FFFFFF" d="M247.2,57.2l3.7,6.3l-5.3,10l11.3,0.2l3.7,6.3l-21.4,12.5l-3.5-5.9l12.3-7.2l-11.6-0.6l-0.1-0.1l5.1-10.3
	l-12.2,7.2l-3.4-5.8L247.2,57.2z"/>
<path fill="#FFFFFF" d="M265.3,92.5l2.8,10.2c1.7,6-0.4,10.8-5.7,12.2l-0.1,0c-5.6,1.5-9.8-2-11.4-7.9l-0.9-3.3l-6.8,1.9l-1.8-6.6
	L265.3,92.5z M256.1,105.5c0.6,2.4,2.3,3.5,4.1,2.9l0.1,0c2-0.6,2.7-2.3,2.1-4.7l-0.8-3.1l-6.3,1.7L256.1,105.5z"/>
<g>
	<polygon fill="#FF0000" points="153.2,261.2 150,262.5 151.5,265.7 148.7,263.6 146.8,266.5 147.2,263 143.8,262.8 147,261.4 
		145.4,258.3 148.2,260.4 150.2,257.5 149.7,261 	"/>
</g>
<path fill="#FFFFFF" d="M41,220.4L41,220.4c2.9-2.8,7.4-2.9,10.4,0.2c1.9,1.9,2.3,3.7,2.3,5.5l-3,0.2c0-1.5-0.4-2.7-1.4-3.7
	c-1.7-1.7-4.3-1.6-6,0.1l0,0c-1.7,1.7-2,4.3-0.3,6c1.1,1.2,2.3,1.4,3.8,1.5l-0.1,2.8c-2.1,0-4-0.4-5.9-2.4
	C37.9,227.7,38.1,223.3,41,220.4z"/>
<path fill="#FFFFFF" d="M57.7,227l2.5,1.9l-3.5,4.4l4.5,3.5l3.5-4.4l2.5,1.9l-8.7,11.1l-2.5-1.9l3.5-4.5l-4.5-3.5l-3.5,4.5l-2.5-1.9
	L57.7,227z"/>
<path fill="#FFFFFF" d="M70.6,236.6l2.6,1.7l-7.6,11.9l-2.6-1.7L70.6,236.6z"/>
<path fill="#FFFFFF" d="M72.6,246.4L72.6,246.4c1.8-3.6,6-5.2,9.9-3.2c2.4,1.2,3.4,2.7,4,4.5l-2.8,1.1c-0.5-1.4-1.2-2.4-2.5-3.1
	c-2.1-1.1-4.6-0.1-5.7,2.1l0,0c-1.1,2.2-0.5,4.7,1.6,5.8c1.4,0.7,2.6,0.6,4.1,0.2l0.9,2.7c-2,0.7-3.9,0.9-6.3-0.4
	C72.1,254.3,70.8,250,72.6,246.4z"/>
<path fill="#FFFFFF" d="M95.4,248.8l2.7,0.9l1.1,15.4l-3.1-1.1l-0.2-3.4l-5.7-1.9l-2.3,2.6l-3-1L95.4,248.8z M95.8,257.8l-0.3-5
	l-3.3,3.7L95.8,257.8z"/>
<path fill="#FFFFFF" d="M104.1,259.2L104.1,259.2c0.8-4,4.5-6.6,8.7-5.8c2.5,0.5,3.9,1.5,5.1,3l-2.4,1.9c-0.9-1.1-1.7-1.8-3.4-2.1
	c-2.2-0.4-4.4,1.2-4.8,3.5l0,0c-0.5,2.5,0.9,4.7,3.3,5.2c1.1,0.2,2.2,0.1,3-0.3l0.4-2l-3.1-0.6l0.5-2.6l6,1.2l-1.2,6
	c-1.7,0.9-3.8,1.5-6.4,1C105.7,266.9,103.3,263.3,104.1,259.2z"/>
<path fill="#FFFFFF" d="M122,262.4L122,262.4c0.2-4.1,3.5-7.2,7.8-7c4.4,0.2,7.4,3.6,7.2,7.6l0,0c-0.2,4-3.5,7.2-7.8,7
	C124.8,269.8,121.8,266.4,122,262.4z M133.8,262.9L133.8,262.9c0.1-2.5-1.6-4.6-4.1-4.7c-2.5-0.1-4.3,1.8-4.4,4.2l0,0
	c-0.1,2.4,1.6,4.5,4.1,4.6C131.9,267.2,133.7,265.3,133.8,262.9z"/>
<path fill="#FFFFFF" d="M159.9,260.5L159.9,260.5c-1-3.9,1.1-7.9,5.3-9c2.6-0.7,4.4-0.2,5.9,0.7l-1.3,2.7c-1.3-0.7-2.5-1-3.9-0.6
	c-2.3,0.6-3.5,2.9-2.9,5.3l0,0c0.6,2.4,2.7,3.9,5.1,3.3c1.6-0.4,2.4-1.3,3.2-2.5l2.4,1.4c-1,1.9-2.3,3.2-5,3.9
	C164.7,266.8,160.9,264.4,159.9,260.5z"/>
<path fill="#FFFFFF" d="M178.5,247.2l2.7-1.1l11.1,10.8l-3,1.2l-2.4-2.4l-5.5,2.3l0,3.4l-2.9,1.2L178.5,247.2z M184.7,253.7
	l-3.5-3.5l0,5L184.7,253.7z"/>
<path fill="#FFFFFF" d="M189.8,242.3l2.9-1.7l6.3,3.2l0.1-7l2.9-1.7l7.4,12.1l-2.6,1.6l-4.8-7.9l-0.3,7.2l-0.1,0L195,245l4.8,7.8
	l-2.6,1.6L189.8,242.3z"/>
<path fill="#FFFFFF" d="M205.6,232.2l4.5-3.7c2.6-2.1,5.5-1.9,7.3,0.3l0,0c2.1,2.5,1.2,5.5-1.3,7.5l-1.8,1.5l2.7,3.3l-2.4,2
	L205.6,232.2z M214.5,234.1c1.2-1,1.3-2.3,0.5-3.2l0,0c-0.9-1.1-2.1-1-3.3,0l-1.9,1.5l2.8,3.3L214.5,234.1z"/>
<path fill="#FFFFFF" d="M224.5,231.9l-0.3-2.9c1.6-0.2,3-0.7,4.2-1.9c0.9-0.9,1-1.8,0.4-2.4l0,0c-0.6-0.5-1.2-0.5-3.3,0.8
	c-2.5,1.6-4.3,2.3-6.4,0.4l0,0c-1.9-1.8-1.7-4.4,0.3-6.5c1.4-1.5,3.1-2.3,4.9-2.6l0.6,2.8c-1.5,0.3-2.7,0.8-3.6,1.7
	c-0.8,0.9-0.9,1.7-0.4,2.2l0,0c0.7,0.6,1.3,0.4,3.5-0.9c2.5-1.6,4.4-2,6.2-0.3l0,0c2,1.9,1.7,4.6-0.4,6.8
	C228.8,230.7,226.8,231.8,224.5,231.9z"/>
<polygon fill="#515254" points="151.2,210.3 141.2,214.1 114.8,204.1 124.8,200.3 "/>
<path fill="#FFFFFF" d="M141.2,214.8c-0.1,0-0.2,0-0.2,0l-26.4-10c-0.2-0.1-0.4-0.3-0.4-0.6c0-0.3,0.2-0.5,0.4-0.6l10-3.8
	c0.1-0.1,0.3-0.1,0.4,0l26.4,10c0.2,0.1,0.4,0.3,0.4,0.6c0,0.3-0.2,0.5-0.4,0.6l-10,3.8C141.3,214.7,141.3,214.8,141.2,214.8z
	 M116.6,204.1l24.6,9.4l8.3-3.1l-24.6-9.3L116.6,204.1z"/>
<polygon fill="#FFCD03" points="124.7,200.3 114.7,204.1 108.7,201.8 118.7,198 "/>
<path fill="#FFFFFF" d="M114.7,204.8c-0.1,0-0.2,0-0.2,0l-6.1-2.3c-0.2-0.1-0.4-0.3-0.4-0.6c0-0.3,0.2-0.5,0.4-0.6l10-3.8
	c0.1-0.1,0.3-0.1,0.4,0l6.1,2.3c0.2,0.1,0.4,0.3,0.4,0.6c0,0.3-0.2,0.5-0.4,0.6l-10,3.8C114.9,204.7,114.8,204.8,114.7,204.8z
	 M110.4,201.8l4.3,1.6l8.2-3.1l-4.3-1.6L110.4,201.8z"/>
<polygon fill="#515254" points="154.9,215.5 141.3,214.1 151.1,210.4 "/>
<path fill="#FFFFFF" d="M154.9,216.2C154.9,216.2,154.9,216.2,154.9,216.2l-13.7-1.5c-0.3,0-0.5-0.3-0.6-0.5c0-0.3,0.1-0.6,0.4-0.7
	l9.7-3.7c0.3-0.1,0.6,0,0.7,0.2l3.9,5.1c0.1,0.2,0.2,0.5,0,0.7C155.4,216,155.2,216.2,154.9,216.2z M144,213.7l9.6,1l-2.7-3.6
	L144,213.7z"/>
<polygon fill="#515254" points="129.4,214.2 119.4,210.4 145.8,200.3 155.8,204.1 "/>
<path fill="#FFFFFF" d="M129.4,214.8c-0.1,0-0.2,0-0.2,0l-10-3.8c-0.2-0.1-0.4-0.3-0.4-0.6c0-0.3,0.2-0.5,0.4-0.6l26.4-10
	c0.1-0.1,0.3-0.1,0.4,0l10,3.8c0.2,0.1,0.4,0.3,0.4,0.6c0,0.3-0.2,0.5-0.4,0.6l-26.4,10C129.5,214.8,129.5,214.8,129.4,214.8z
	 M121.1,210.4l8.3,3.1l24.6-9.4l-8.2-3.1L121.1,210.4z"/>
<polygon fill="#FFCD03" points="155.7,204.1 145.7,200.3 151.8,198 161.8,201.8 "/>
<path fill="#FFFFFF" d="M155.7,204.7c-0.1,0-0.2,0-0.2,0l-10-3.8c-0.2-0.1-0.4-0.3-0.4-0.6c0-0.3,0.2-0.5,0.4-0.6l6.1-2.3
	c0.1-0.1,0.3-0.1,0.4,0l10,3.8c0.2,0.1,0.4,0.3,0.4,0.6s-0.2,0.5-0.4,0.6l-6.1,2.3C155.8,204.7,155.8,204.7,155.7,204.7z
	 M147.5,200.3l8.2,3.1l4.3-1.6l-8.2-3.1L147.5,200.3z"/>
<polygon fill="#515254" points="115.7,215.6 119.5,210.4 129.3,214.1 "/>
<path fill="#FFFFFF" d="M115.7,216.2c-0.2,0-0.4-0.1-0.5-0.3c-0.1-0.2-0.1-0.5,0-0.7l3.8-5.2c0.2-0.2,0.5-0.3,0.7-0.2l9.7,3.7
	c0.3,0.1,0.4,0.4,0.4,0.7c0,0.3-0.3,0.5-0.6,0.5L115.7,216.2C115.7,216.2,115.7,216.2,115.7,216.2z M119.7,211.2l-2.7,3.6l9.6-1
	L119.7,211.2z"/>
<g>
	<path fill="#FFCD03" d="M124.2,176.5L124.2,176.5c-3.1-2.3-1.9-5-1-6.2c-1.2,1.6-4.1,5.9-3.2,8.8h0c0.2,1.3,1.3,2.3,2.7,2.3
		c1.5,0,2.7-1.2,2.7-2.7C125.4,177.8,124.9,177,124.2,176.5z"/>
	<path fill="#FFFFFF" d="M122.6,182.1c-1.6,0-3-1.2-3.3-2.8c-0.9-3,1.7-7.1,3.4-9.3c0.2-0.3,0.6-0.3,0.9-0.1
		c0.3,0.2,0.3,0.6,0.2,0.9c-0.9,1.4-1.6,3.5,0.9,5.3c0.8,0.6,1.4,1.6,1.4,2.7C126,180.6,124.5,182.1,122.6,182.1z M120.5,178.9
		c0,0,0,0.1,0,0.1c0.1,1,1,1.8,2.1,1.8c1.1,0,2.1-0.9,2.1-2.1c0-0.7-0.3-1.3-0.8-1.7c-1.2-0.9-1.9-2-2.2-3.2
		C120.8,175.5,120.1,177.4,120.5,178.9z"/>
</g>
<g>
	<path fill="#FFCD03" d="M150.6,167.9L150.6,167.9c3.1-2.3,1.8-5,1-6.2c1.2,1.6,4.1,5.9,3.3,8.8h0c-0.2,1.3-1.3,2.3-2.7,2.3
		c-1.5,0-2.7-1.2-2.7-2.7C149.5,169.2,149.9,168.4,150.6,167.9z"/>
	<path fill="#FFFFFF" d="M152.2,173.4c-1.8,0-3.4-1.5-3.4-3.4c0-1.1,0.5-2.1,1.4-2.7c2.4-1.8,1.8-3.9,0.9-5.3
		c-0.2-0.3-0.1-0.7,0.2-0.9c0.3-0.2,0.7-0.1,0.9,0.1c1.6,2.2,4.3,6.3,3.4,9.3C155.2,172.3,153.9,173.4,152.2,173.4z M153.1,165.2
		c-0.2,1-0.8,2.1-2.2,3.2c-0.6,0.4-0.9,1-0.9,1.7c0,1.2,0.9,2.1,2.1,2.1c1,0,1.9-0.8,2.1-1.8c0,0,0-0.1,0-0.1
		C154.8,168.9,154,166.9,153.1,165.2z"/>
</g>
<path fill="#FFCD03" d="M149.3,179.1c-1.8-2.9-4.1-5.4-6.5-7.6c1.6-2.9,2.6-5.3,2.6-5.3c4.1-9.8-0.4-21.1-10.2-25.3
	c6.3,2.7,9.5,10.4,6.6,16.3c-1,2.1-3.4,5.1-6.1,8.1c-1.8-1.6-3.4-2.9-4.4-4.2c-3.3-4-0.5-9.7-0.5-9.7s-4.2,1.7-5.2,8
	c-0.4,2.5,1.7,7.1,4.6,11.8c-3,3.1-5.6,5.7-6.4,6.9c-2.2,2.9-4.6,7-4.6,11.4c0,9.1,7.4,16.5,16.5,16.5c9.1,0,16.5-7.4,16.5-16.5
	C152.3,186,151.1,182.4,149.3,179.1z M135.7,194.8c-4.7-4.7-2.2-10.2,0.8-14.3C139.6,185.4,140.6,189.9,135.7,194.8z"/>
<path fill="#FFFFFF" d="M135.7,206.6c-9.5,0-17.2-7.7-17.2-17.2c0-3.7,1.6-7.7,4.7-11.8c0.7-0.9,2.5-2.8,4.7-5.1
	c0.5-0.5,0.9-1,1.4-1.5c-3.3-5.5-4.8-9.4-4.5-11.8c1-6.6,5.4-8.4,5.6-8.4c0.2-0.1,0.5,0,0.7,0.2c0.2,0.2,0.2,0.5,0.1,0.7
	c0,0.1-2.5,5.4,0.4,9.1c0.9,1.1,2.3,2.3,3.9,3.7c2.9-3.3,4.8-5.8,5.6-7.5c1.3-2.6,1.4-5.6,0.3-8.5c-1.2-3.1-3.5-5.7-6.5-6.9
	c0,0,0,0,0,0c-0.3-0.1-0.5-0.5-0.3-0.8c0.1-0.3,0.5-0.5,0.8-0.3c10.1,4.3,14.8,16,10.6,26.1c0,0.1-0.9,2.3-2.4,5
	c2.6,2.5,4.6,4.9,6.2,7.4c2,3.9,3,7.4,3,10.7C152.9,198.9,145.2,206.6,135.7,206.6z M129.6,152.8c-1.2,1-2.8,3-3.3,6.5
	c-0.3,2.1,1.3,6.2,4.5,11.4c0.1,0.2,0.1,0.6-0.1,0.8c-0.6,0.6-1.2,1.3-1.8,1.9c-2.1,2.2-3.9,4.1-4.6,5c-3,3.9-4.5,7.6-4.5,11.1
	c0,8.8,7.1,15.9,15.9,15.9c8.8,0,15.9-7.1,15.9-15.9c0-3-1-6.4-2.9-10.1c-1.6-2.5-3.7-4.9-6.4-7.5c-0.2-0.2-0.3-0.5-0.1-0.8
	c1.6-2.8,2.6-5.2,2.6-5.3c2.8-6.5,1.5-13.7-2.6-18.9c0.1,0.3,0.3,0.6,0.4,0.9c1.2,3.2,1.1,6.6-0.3,9.5c-0.9,1.9-2.9,4.6-6.2,8.2
	c-0.2,0.3-0.6,0.3-0.9,0.1c-1.8-1.6-3.5-3-4.5-4.2C128.5,158.6,129,154.9,129.6,152.8z M135.7,195.4
	C135.7,195.4,135.7,195.4,135.7,195.4c-0.2,0-0.3-0.1-0.4-0.2c-4-4-3.7-9.1,0.8-15.2c0.1-0.2,0.3-0.3,0.5-0.3c0.2,0,0.4,0.1,0.5,0.3
	c2.7,4.3,4.7,9.5-0.9,15.1C136.1,195.4,135.9,195.4,135.7,195.4z M136.5,181.6c-3.4,5-3.7,9-0.8,12.3
	C139.1,190.2,139.4,186.6,136.5,181.6z"/>
<g>
	<path fill="#FFCD03" d="M131.6,143.1L131.6,143.1c-3.1-2.3-1.8-5-1-6.2c-1.2,1.6-4.1,5.9-3.3,8.8l0,0c0.2,1.3,1.3,2.3,2.7,2.3
		c1.5,0,2.7-1.2,2.7-2.7C132.8,144.4,132.3,143.6,131.6,143.1z"/>
	<path fill="#FFFFFF" d="M130,148.7c-1.6,0-3-1.2-3.3-2.8c-0.9-3.1,2-7.5,3.4-9.3c0.2-0.3,0.6-0.3,0.9-0.1c0.3,0.2,0.3,0.6,0.2,0.9
		c-0.9,1.4-1.6,3.5,0.9,5.3c0.8,0.6,1.4,1.6,1.4,2.7C133.4,147.2,131.9,148.7,130,148.7z M129.1,140.4c-0.9,1.7-1.6,3.7-1.2,5.1
		c0,0,0,0.1,0,0.1c0.2,1,1,1.8,2.1,1.8c1.2,0,2.1-0.9,2.1-2.1c0-0.7-0.3-1.3-0.9-1.7C130.1,142.7,129.3,141.6,129.1,140.4z"/>
</g>
<path fill="#FFFFFF" d="M236.1,136.4c-0.6-15.9-4.9-31.6-12.9-45.8c-1.3-2.3-2.7-4.5-4.1-6.7c-2.7-8.5-6.4-16.4-13-22.3
	c-6.3-5.8-14.5-8.6-23.2-10.5c-14.5-7.8-31-12.1-48-12.1c-2.3,0-4.7,0.1-7,0.3c-4.7-1-9.3-1.7-13.8-1.7c-4.2,0-8,0.6-11.6,1.7
	c-8.4,2.7-15,8.4-21,15C65.4,64.2,52.7,78.2,44.4,95c-6,6.6-11.1,13.8-13,22.8c-1.9,8.9-0.3,17.6,2.4,26
	c0.6,15.9,4.9,31.6,12.9,45.8c1.3,2.3,2.7,4.5,4.1,6.7c2.7,8.5,6.4,16.4,13,22.3c6.3,5.7,14.5,8.6,23.2,10.5
	c14.5,7.8,31,12.1,48,12.1c0,0,0,0,0,0c2.3,0,4.7-0.1,7-0.3c4.7,1,9.3,1.7,13.8,1.7c0,0,0,0,0,0c4.2,0,8-0.6,11.6-1.7
	c8.4-2.7,15-8.4,21-15c16.1-10,28.9-24.1,37.2-40.8c6-6.6,11.1-13.8,13-22.8C240.5,153.5,238.9,144.8,236.1,136.4z M231.5,124.1
	c-0.1-0.3-0.3-0.6-0.4-1c-1.8-4.3-3.4-8.4-4.7-12.5c-1.4-4.2-2.5-8.8-3.6-13.2c-0.1-0.3-0.1-0.6-0.2-0.9
	C227,105.3,230,114.6,231.5,124.1z M222.2,184.4c-2.8,2.9-5.7,5.7-8.6,8.5c-3.3,3.1-6.7,6.4-9.6,9.6c-0.8,0.9-1.6,1.8-2.3,2.7
	c1.5-3.1,3-6.2,4.4-9.3c1.9-4.3,3.8-8.4,5.9-12.1c2.2-3.9,4.9-7.8,7.6-11.7c5.4-7.8,10.9-15.8,13.1-24.5c-0.5,6.3-1.6,12.7-3.4,18.9
	C227.4,172.7,225.1,178.7,222.2,184.4z M129.2,234.6c-4.5-1.3-9.2-2.6-13.8-3.6c-1.3-0.3-2.7-0.5-4-0.8c3.5-0.2,7-0.5,10.4-0.8
	c4.6-0.4,9.4-0.9,13.9-0.9l0.4,0c4.2,0,8.5,0.4,13.1,0.8c4.6,0.4,9.4,0.8,14.1,0.8c0,0,0,0,0,0c5.2,0,9.7-0.5,13.7-1.6
	c-11.3,5.3-23.5,8.5-35.9,9.2C137.1,236.8,133.2,235.7,129.2,234.6z M50.1,182c-1.1-4.5-2.3-9.1-3.7-13.4c-0.5-1.5-1-3-1.6-4.5
	c1.9,3,4,5.9,6,8.8c2.7,3.9,5.5,7.9,7.9,11.9c2.4,4,4.5,8.4,6.5,12.7c4,8.4,8.2,17,14.4,23.2c-10.3-7.1-19.4-16.2-26.4-26.9
	C52.1,189.9,51.1,185.9,50.1,182z M47.8,95.7c2.8-2.9,5.7-5.7,8.6-8.5c3.3-3.1,6.7-6.4,9.6-9.6c0.8-0.9,1.6-1.8,2.3-2.7
	c-1.5,3.1-3,6.2-4.4,9.3c-1.9,4.3-3.8,8.4-5.9,12.1c-2.2,3.9-4.9,7.8-7.6,11.7c-5.4,7.8-10.9,15.8-13.1,24.5
	c0.5-6.3,1.6-12.7,3.4-18.9C42.6,107.4,44.9,101.4,47.8,95.7z M140.8,45.5c4.5,1.3,9.2,2.6,13.8,3.6c1.3,0.3,2.7,0.5,4,0.8
	c-3.5,0.2-7,0.5-10.4,0.8c-4.6,0.4-9.4,0.9-13.9,0.9l-0.4,0c-4.2,0-8.5-0.4-13.1-0.8c-4.6-0.4-9.4-0.8-14.1-0.8
	c-5.2,0-9.7,0.5-13.6,1.6c11.3-5.3,23.5-8.5,35.9-9.2C132.9,43.3,136.8,44.4,140.8,45.5z M219.9,98.1c1.1,4.5,2.3,9.1,3.7,13.4
	c0.5,1.5,1,3,1.6,4.5c-1.9-3-4-5.9-6-8.8c-2.7-3.9-5.5-7.9-7.9-11.9c-2.4-4-4.5-8.4-6.5-12.7c-4-8.4-8.2-17-14.4-23.2
	c10.3,7.1,19.4,16.2,26.4,26.9C217.9,90.2,218.9,94.2,219.9,98.1z M183.4,222.5c-5.3,3.1-11.7,4.6-20.2,4.6c0,0,0,0,0,0
	c-4.6,0-9.3-0.4-13.9-0.8c-4.4-0.4-9-0.8-13.3-0.8l-0.4,0c-4.6,0-9.4,0.5-14.1,0.9c-4.9,0.5-9.9,0.9-14.7,0.9c-8,0-14-1.3-19-4.2
	c-9.4-5.3-14.4-15.8-19.8-27c-2.1-4.3-4.2-8.8-6.6-12.9c-2.4-4.1-5.3-8.2-8-12.1c-7.1-10.1-13.8-19.7-13.9-30.5
	c-0.1-11.1,6.9-21.2,13.6-31c2.7-3.9,5.4-7.9,7.7-11.9c2.2-3.9,4.1-8.2,6-12.4c4.9-10.8,9.9-22,19.9-27.9C92,54.5,98.4,53,106.8,53
	c4.6,0,9.3,0.4,13.9,0.8c4.4,0.4,9,0.8,13.3,0.8l0.4,0c4.6,0,9.4-0.5,14.1-0.9c4.9-0.5,9.9-0.9,14.7-0.9c8,0,14,1.3,19,4.2
	c9.4,5.3,14.4,15.8,19.8,27c2.1,4.3,4.2,8.8,6.6,12.9c2.4,4.1,5.3,8.2,8,12.1c7.1,10.1,13.8,19.7,13.9,30.5
	c0.1,11.1-6.9,21.2-13.6,31c-2.7,3.9-5.4,7.9-7.7,11.9c-2.2,3.9-4.1,8.2-6,12.4C198.4,205.5,193.4,216.6,183.4,222.5z M204.1,63.7
	c3.4,3.1,6.1,6.9,8.2,11.1c-5.9-6.9-12.6-13-19.9-18.1C196.7,58.4,200.7,60.6,204.1,63.7z M169.9,48.7c-0.3,0-0.5-0.1-0.8-0.1
	c-4.6-0.7-9.3-1.4-13.8-2.4c-4.5-1-9.1-2.3-13.6-3.5c-0.3-0.1-0.6-0.2-0.9-0.2C150.8,43,160.7,45.2,169.9,48.7z M103.4,42
	c3.3-1.1,6.8-1.6,10.6-1.6c0.9,0,1.8,0,2.8,0.1c-8.8,1.6-17.3,4.4-25.4,8.2C95.1,45.8,99,43.4,103.4,42z M73.2,64.2
	c-0.2,0.3-0.4,0.5-0.6,0.8c-2.8,3.6-5.8,7.3-8.8,10.6c-2.9,3.2-6.1,6.2-9.5,9.5c-0.2,0.2-0.5,0.5-0.7,0.7
	C59,77.7,65.6,70.4,73.2,64.2z M34.3,118.4c1-4.7,3-9,5.6-12.9c-0.9,2.4-1.6,4.8-2.3,7.3c-1.8,6.5-3,13.1-3.5,19.6
	C33.4,127.7,33.3,123,34.3,118.4z M38.5,156c0.1,0.3,0.3,0.6,0.4,1c1.8,4.3,3.4,8.4,4.7,12.5c1.4,4.2,2.5,8.8,3.6,13.2
	c0.1,0.3,0.1,0.6,0.2,0.9C43,174.8,40,165.5,38.5,156z M65.9,216.4c-3.4-3.1-6.1-6.9-8.2-11.1c5.8,6.9,12.6,13,19.9,18.1
	C73.3,221.7,69.3,219.5,65.9,216.4z M100.1,231.4c0.3,0,0.6,0.1,0.8,0.1c4.6,0.7,9.3,1.4,13.8,2.4c4.5,1,9.1,2.3,13.6,3.5
	c0.3,0.1,0.6,0.2,0.9,0.3C119.2,237.1,109.3,234.9,100.1,231.4z M166.6,238.1c-3.3,1.1-6.8,1.6-10.6,1.6h0c-0.9,0-1.8,0-2.8-0.1
	c8.7-1.6,17.3-4.4,25.4-8.2C174.9,234.3,171,236.7,166.6,238.1z M196.8,215.9c0.2-0.3,0.4-0.5,0.6-0.8c2.8-3.6,5.8-7.3,8.8-10.6
	c2.9-3.2,6.1-6.2,9.5-9.5c0.2-0.2,0.5-0.5,0.7-0.7C211,202.4,204.4,209.7,196.8,215.9z M235.7,161.8c-1,4.7-3,9-5.6,12.9
	c0.9-2.4,1.6-4.8,2.3-7.3c1.8-6.5,3-13,3.5-19.6C236.6,152.4,236.7,157.1,235.7,161.8z"/>
</svg>
