<?xml version="1.0" encoding="utf-8"?>
<!-- Generator: Adobe Illustrator 18.1.0, SVG Export Plug-In . SVG Version: 6.00 Build 0)  -->
<!DOCTYPE svg PUBLIC "-//W3C//DTD SVG 1.1//EN" "http://www.w3.org/Graphics/SVG/1.1/DTD/svg11.dtd">
<svg version="1.1" id="Layer_1" xmlns="http://www.w3.org/2000/svg" xmlns:xlink="http://www.w3.org/1999/xlink" x="0px" y="0px"
	 viewBox="0 0 192 192" enable-background="new 0 0 192 192" xml:space="preserve">
<path fill="#B3DDF2" d="M166.8,97c-0.4-11.1-3.4-22.1-9-32.1c-0.9-1.6-1.9-3.2-2.9-4.7c-1.9-5.9-4.5-11.5-9.1-15.6
	c-4.4-4-10.2-6-16.3-7.4c-10.2-5.5-21.7-8.5-33.6-8.5c-1.6,0-3.3,0.1-4.9,0.2c-3.3-0.7-6.5-1.2-9.7-1.2c-2.9,0-5.6,0.4-8.1,1.2
	c-5.9,1.9-10.5,5.9-14.7,10.5c-11.3,7-20.2,16.8-26,28.5c-4.2,4.6-7.7,9.7-9.1,15.9c-1.3,6.2-0.2,12.3,1.7,18.2
	c0.4,11.1,3.4,22.1,9,32.1c0.9,1.6,1.9,3.2,2.9,4.7c1.9,5.9,4.5,11.5,9.1,15.6c4.4,4,10.2,6,16.2,7.4c10.2,5.5,21.7,8.5,33.6,8.5
	c0,0,0,0,0,0c1.6,0,3.3-0.1,4.9-0.2c3.3,0.7,6.5,1.2,9.7,1.2c0,0,0,0,0,0c2.9,0,5.6-0.4,8.1-1.2c5.9-1.9,10.5-5.9,14.7-10.5
	c11.3-7,20.2-16.8,26-28.6c4.2-4.6,7.7-9.7,9.1-15.9C169.8,109,168.7,102.9,166.8,97z"/>
<title>Layer 1</title>
<path id="path692_1_" fill="#FFFFFF" d="M88.1,73c-4.5,2.9-7.5,8.4-9.4,14.3H113c-1.8-5.8-4.5-11.2-8.7-14.3
	C99.7,72.8,93.8,73,88.1,73z"/>
<path fill="#515254" d="M113,88.3H78.7c-0.3,0-0.6-0.1-0.8-0.4c-0.2-0.2-0.2-0.6-0.1-0.8c2.4-7.2,5.7-12.2,9.8-14.8
	c0.2-0.1,0.3-0.1,0.5-0.1c1.9,0,3.9,0,5.8-0.1c1.9,0,3.7-0.1,5.4-0.1c2,0,3.6,0,5.1,0.1c0.2,0,0.4,0.1,0.5,0.2
	c3.8,2.9,6.9,7.8,9,14.8c0.1,0.3,0,0.6-0.1,0.8C113.6,88.2,113.3,88.3,113,88.3z M80,86.4h31.7c-1.9-5.8-4.5-10-7.7-12.5
	c-1.3-0.1-2.8-0.1-4.7-0.1c-1.7,0-3.5,0-5.4,0.1c-1.8,0-3.7,0.1-5.5,0.1C84.9,76.3,82.1,80.4,80,86.4z"/>
<ellipse id="svg_1_2_" fill="#FFFFFF" cx="115.8" cy="85.5" rx="5.8" ry="5.8"/>
<path fill="#515254" d="M115.8,92.3c-3.7,0-6.8-3-6.8-6.8c0-3.7,3-6.8,6.8-6.8c3.7,0,6.8,3,6.8,6.8
	C122.6,89.3,119.5,92.3,115.8,92.3z M115.8,80.7c-2.7,0-4.9,2.2-4.9,4.9c0,2.7,2.2,4.9,4.9,4.9c2.7,0,4.9-2.2,4.9-4.9
	C120.7,82.8,118.5,80.7,115.8,80.7z"/>
<ellipse id="svg_1_4_" fill="#FFFFFF" cx="75.3" cy="85.5" rx="5.8" ry="5.8"/>
<path fill="#515254" d="M75.3,92.3c-3.7,0-6.8-3-6.8-6.8c0-3.7,3-6.8,6.8-6.8c3.7,0,6.8,3,6.8,6.8C82.1,89.3,79,92.3,75.3,92.3z
	 M75.3,80.7c-2.7,0-4.9,2.2-4.9,4.9c0,2.7,2.2,4.9,4.9,4.9c2.7,0,4.9-2.2,4.9-4.9C80.2,82.8,78,80.7,75.3,80.7z"/>
<path id="path699_2_" fill="#B3DDF2" d="M118,166l8.1-72.4c0-1.6-1.3-2.9-2.9-2.9H69.1c-1.6,0-2.9,1.3-2.9,2.9l7.9,68.4"/>
<path fill="#515254" d="M118,167c0,0-0.1,0-0.1,0c-0.5-0.1-0.9-0.5-0.8-1l8.1-72.3c0-1-0.9-1.9-1.9-1.9H69.1c-1,0-1.9,0.8-1.9,1.9
	l7.9,68.3c0.1,0.5-0.3,1-0.8,1c-0.5,0.1-1-0.3-1-0.8l-7.9-68.4c0,0,0-0.1,0-0.1c0-2.1,1.7-3.8,3.8-3.8h54.1c2.1,0,3.8,1.7,3.8,3.8
	c0,0,0,0.1,0,0.1l-8.1,72.4C118.9,166.6,118.5,167,118,167z"/>
<path id="rect682_1_" fill="#B3DDF2" d="M65.4,85.4h61.1c2.4,0,4.3,1.4,4.3,3.1V91c0,1.7-1.9,3.1-4.3,3.1H65.4
	c-2.4,0-4.3-1.4-4.3-3.1v-2.5C61.1,86.8,63.1,85.4,65.4,85.4z"/>
<path fill="#515254" d="M126.5,95H65.4c-2.9,0-5.2-1.8-5.2-4.1v-2.5c0-2.3,2.3-4.1,5.2-4.1h61.1c2.9,0,5.2,1.8,5.2,4.1V91
	C131.7,93.2,129.4,95,126.5,95z M65.4,86.3c-1.8,0-3.3,1-3.3,2.2V91c0,1.2,1.5,2.2,3.3,2.2h61.1c1.8,0,3.3-1,3.3-2.2v-2.5
	c0-1.2-1.5-2.2-3.3-2.2H65.4z"/>
<ellipse id="svg_1_3_" fill="#FFFFFF" cx="95.9" cy="62.8" rx="14.4" ry="14.4"/>
<path fill="#515254" d="M95.9,78.2c-8.5,0-15.4-6.9-15.4-15.4s6.9-15.4,15.4-15.4c8.5,0,15.4,6.9,15.4,15.4S104.4,78.2,95.9,78.2z
	 M95.9,49.3c-7.4,0-13.5,6.1-13.5,13.5s6.1,13.5,13.5,13.5c7.4,0,13.5-6.1,13.5-13.5S103.3,49.3,95.9,49.3z"/>
<path fill="#515254" d="M13.9,82.8l-2.4-3.5c1.8-1.3,3.1-2.9,3.6-4.9c0.4-1.3,0.1-2.1-0.6-2.3l0,0c-0.7-0.2-1.2,0.2-2.4,2.4
	c-1.9,3.4-3.7,5.8-7.2,4.8l0,0c-3.1-0.9-4.7-4.1-3.5-8.1c0.8-2.9,2.3-4.9,4.3-6.3l2.6,3.3c-1.5,1.2-2.6,2.8-3,4.3
	c-0.3,1.1,0,1.8,0.6,2l0,0c0.8,0.2,1.3-0.3,2.5-2.4c2-3.6,3.9-5.7,7.1-4.8l0,0c3.5,1,4.7,4.3,3.5,8.4C18.1,78.7,16.4,81.3,13.9,82.8
	z"/>
<path fill="#515254" d="M7,56.4l3.7-6.6c2.2-3.9,5.6-5.3,9-3.4l0,0c3.6,2,4,5.9,1.8,9.7l-1.2,2.1l4.4,2.5L22.3,65L7,56.4z
	 M18.1,54.4c0.8-1.5,0.6-2.9-0.6-3.6l0,0c-1.3-0.7-2.5-0.2-3.4,1.3l-1.1,2l4.1,2.3L18.1,54.4z"/>
<path fill="#515254" d="M18.8,37.3l9.5-10.5l3.1,2.8l-6.3,6.9l2,1.8l5.7-6.2l2.8,2.6L29.9,41l2.1,1.9l6.4-7l3.1,2.8l-9.6,10.6
	L18.8,37.3z"/>
<path fill="#515254" d="M39.9,17.6l3.9-2.6l16,10.7l-4.4,2.9l-2.8-1.9l-5.7,3.7l0.7,3.3l-4.3,2.8L39.9,17.6z M49.5,24.3l-4.4-3.1
	l1.1,5.3L49.5,24.3z"/>
<path fill="#515254" d="M57.2,7.9l4.6-1.6l2.3,6.8l3.5-8.7l5.5-1.9l-3.9,9.3l9.8,7.3L73.4,21l-6.3-4.8L66,18.7l1.5,4.3l-4.6,1.6
	L57.2,7.9z"/>
<path fill="#515254" d="M80.5,1.2L94.6,0l0.4,4.1l-9.3,0.8l0.2,2.7l8.4-0.7l0.3,3.8l-8.4,0.7l0.2,2.8l9.4-0.8l0.4,4.1L82,18.8
	L80.5,1.2z"/>
<path fill="#515254" d="M103.4,0.3l8.2,1.3c2.7,0.4,4.4,1.4,5.4,2.8c0.9,1.2,1.2,2.6,0.9,4.3l0,0c-0.4,2.7-2.1,4.2-4.4,4.8l3.2,6.7
	l-5.6-0.8l-2.7-5.8l0,0l-2.1-0.3l-0.8,5.3l-4.8-0.7L103.4,0.3z M110.1,9.8c1.6,0.3,2.7-0.4,2.9-1.7l0,0c0.2-1.4-0.7-2.2-2.3-2.5
	l-3.2-0.5l-0.6,4.2L110.1,9.8z"/>
<path fill="#515254" d="M132.4,16.5L132.4,16.5c2.5-4.5,8-6.1,12.6-3.5c3.1,1.8,4.4,4.2,4.7,6.9l-4.6,0.7c-0.3-1.6-0.9-2.9-2.3-3.7
	c-2.1-1.2-4.7-0.2-5.9,2l0,0c-1.3,2.3-0.8,5,1.4,6.2c1.6,0.9,3,0.7,4.5,0.1l1.9,4.1c-2.6,1.2-5.3,1.6-8.7-0.4
	C131.4,26.4,129.8,21.1,132.4,16.5z"/>
<path fill="#515254" d="M162.2,25.8l3.4,3.3l-6.9,18l-3.8-3.6l1.3-3.2l-4.9-4.7l-3.1,1.4l-3.7-3.6L162.2,25.8z M157.8,36.6l2-5
	l-4.9,2.2L157.8,36.6z"/>
<path fill="#515254" d="M175.8,40.7l2.6,4.4l-3.8,7.1l8,0.2l2.6,4.4l-15.2,8.9l-2.5-4.2l8.7-5.1l-8.2-0.4l-0.1-0.1l3.6-7.3l-8.7,5.1
	l-2.4-4.1L175.8,40.7z"/>
<path fill="#515254" d="M188.7,65.8l2,7.3c1.2,4.3-0.3,7.7-4,8.7l0,0c-4,1.1-7-1.4-8.1-5.6l-0.6-2.3l-4.9,1.3l-1.3-4.7L188.7,65.8z
	 M182.1,75c0.5,1.7,1.6,2.5,2.9,2.1l0,0c1.5-0.4,2-1.6,1.5-3.3l-0.6-2.2l-4.5,1.2L182.1,75z"/>
<g>
	<polygon fill="#FF0000" points="108.9,185.7 106.7,186.7 107.8,188.9 105.8,187.4 104.4,189.5 104.7,187 102.2,186.9 104.5,185.9 
		103.4,183.7 105.4,185.2 106.8,183.1 106.5,185.6 	"/>
</g>
<path fill="#67A8C8" d="M29.1,156.7L29.1,156.7c2.1-2,5.3-2.1,7.4,0.1c1.3,1.4,1.7,2.6,1.6,3.9l-2.1,0.1c0-1-0.3-1.9-1-2.6
	c-1.2-1.2-3-1.1-4.3,0.1l0,0c-1.2,1.2-1.4,3.1-0.2,4.3c0.8,0.8,1.6,1,2.7,1.1l0,2c-1.5,0-2.8-0.3-4.2-1.7
	C27,161.9,27.1,158.8,29.1,156.7z"/>
<path fill="#67A8C8" d="M41,161.5l1.7,1.4l-2.5,3.1l3.2,2.5l2.5-3.1l1.7,1.4l-6.2,7.9l-1.7-1.4l2.5-3.2l-3.2-2.5l-2.5,3.2l-1.7-1.4
	L41,161.5z"/>
<path fill="#67A8C8" d="M50.2,168.2l1.9,1.2l-5.4,8.5l-1.9-1.2L50.2,168.2z"/>
<path fill="#67A8C8" d="M51.6,175.2L51.6,175.2c1.3-2.6,4.3-3.7,7.1-2.3c1.7,0.9,2.4,1.9,2.8,3.2l-2,0.8c-0.4-1-0.9-1.7-1.8-2.2
	c-1.5-0.8-3.2-0.1-4,1.5l0,0c-0.8,1.5-0.4,3.4,1.2,4.1c1,0.5,1.9,0.4,2.9,0.2l0.6,1.9c-1.4,0.5-2.8,0.6-4.5-0.3
	C51.2,180.8,50.3,177.8,51.6,175.2z"/>
<path fill="#67A8C8" d="M67.8,176.9l1.9,0.7l0.8,11l-2.2-0.8l-0.1-2.4l-4-1.4l-1.6,1.8l-2.1-0.7L67.8,176.9z M68.1,183.3l-0.2-3.5
	l-2.3,2.7L68.1,183.3z"/>
<path fill="#67A8C8" d="M74,184.3L74,184.3c0.6-2.8,3.2-4.7,6.2-4.1c1.8,0.3,2.8,1,3.6,2.1l-1.7,1.4c-0.6-0.8-1.2-1.3-2.4-1.5
	c-1.6-0.3-3.1,0.8-3.4,2.5l0,0c-0.4,1.8,0.6,3.4,2.4,3.7c0.8,0.2,1.5,0.1,2.2-0.2l0.3-1.4l-2.2-0.4l0.4-1.9l4.3,0.8l-0.8,4.3
	c-1.2,0.7-2.7,1.1-4.5,0.7C75.1,189.8,73.4,187.2,74,184.3z"/>
<path fill="#67A8C8" d="M86.8,186.6L86.8,186.6c0.1-2.9,2.5-5.1,5.6-5c3.1,0.1,5.2,2.5,5.1,5.4l0,0c-0.1,2.9-2.5,5.1-5.6,5
	C88.8,191.9,86.6,189.5,86.8,186.6z M95.1,187L95.1,187c0.1-1.8-1.1-3.2-2.9-3.3c-1.8-0.1-3.1,1.3-3.1,3l0,0
	c-0.1,1.7,1.1,3.2,2.9,3.3C93.8,190,95.1,188.7,95.1,187z"/>
<path fill="#67A8C8" d="M113.7,185.2L113.7,185.2c-0.7-2.8,0.8-5.6,3.8-6.4c1.8-0.5,3.1-0.1,4.2,0.5l-1,1.9
	c-0.9-0.5-1.8-0.7-2.8-0.5c-1.6,0.4-2.5,2.1-2,3.8l0,0c0.4,1.7,1.9,2.8,3.6,2.3c1.1-0.3,1.7-0.9,2.3-1.8l1.7,1
	c-0.7,1.3-1.7,2.3-3.5,2.8C117.1,189.7,114.4,188,113.7,185.2z"/>
<path fill="#67A8C8" d="M126.9,175.8l1.9-0.8l7.9,7.7l-2.1,0.9l-1.7-1.7l-3.9,1.6l0,2.4l-2.1,0.9L126.9,175.8z M131.4,180.4
	l-2.5-2.5l0,3.5L131.4,180.4z"/>
<path fill="#67A8C8" d="M135,172.3l2-1.2l4.5,2.3l0-5l2-1.2l5.2,8.6l-1.9,1.1l-3.4-5.6l-0.2,5.1l0,0l-4.6-2.2l3.4,5.6l-1.9,1.1
	L135,172.3z"/>
<path fill="#67A8C8" d="M146.2,165.1l3.2-2.6c1.9-1.5,3.9-1.4,5.2,0.2l0,0c1.5,1.8,0.9,3.9-0.9,5.3l-1.3,1.1l1.9,2.3l-1.7,1.4
	L146.2,165.1z M152.5,166.5c0.9-0.7,0.9-1.6,0.4-2.3l0,0c-0.6-0.8-1.5-0.7-2.4,0l-1.3,1.1l2,2.4L152.5,166.5z"/>
<path fill="#67A8C8" d="M159.7,164.9l-0.2-2c1.2-0.1,2.2-0.5,3-1.3c0.6-0.7,0.7-1.3,0.3-1.7l0,0c-0.4-0.4-0.9-0.3-2.3,0.6
	c-1.8,1.1-3.1,1.7-4.5,0.3l0,0c-1.3-1.3-1.2-3.2,0.2-4.6c1-1.1,2.2-1.6,3.5-1.8l0.4,2c-1.1,0.2-1.9,0.6-2.5,1.2
	c-0.6,0.6-0.6,1.2-0.3,1.5l0,0c0.5,0.5,0.9,0.3,2.5-0.7c1.8-1.1,3.1-1.4,4.4-0.2l0,0c1.4,1.4,1.2,3.3-0.3,4.8
	C162.7,164.1,161.3,164.8,159.7,164.9z"/>
<polygon fill="#515254" points="107.5,149.6 100.4,152.3 81.6,145.1 88.8,142.4 "/>
<path fill="#FFFFFF" d="M100.4,152.7c-0.1,0-0.1,0-0.2,0l-18.8-7.1c-0.2-0.1-0.3-0.2-0.3-0.4c0-0.2,0.1-0.3,0.3-0.4l7.1-2.7
	c0.1,0,0.2,0,0.3,0l18.8,7.1c0.2,0.1,0.3,0.2,0.3,0.4c0,0.2-0.1,0.3-0.3,0.4l-7.1,2.7C100.5,152.7,100.5,152.7,100.4,152.7z
	 M82.9,145.1l17.5,6.7l5.9-2.2l-17.5-6.6L82.9,145.1z"/>
<polygon fill="#FFCD03" points="88.7,142.5 81.6,145.2 77.3,143.5 84.4,140.8 "/>
<path fill="#FFFFFF" d="M81.6,145.6c-0.1,0-0.1,0-0.2,0l-4.3-1.6c-0.2-0.1-0.3-0.2-0.3-0.4c0-0.2,0.1-0.3,0.3-0.4l7.1-2.7
	c0.1,0,0.2,0,0.3,0l4.3,1.6c0.2,0.1,0.3,0.2,0.3,0.4c0,0.2-0.1,0.3-0.3,0.4l-7.1,2.7C81.7,145.6,81.6,145.6,81.6,145.6z M78.5,143.5
	l3.1,1.2l5.9-2.2l-3.1-1.2L78.5,143.5z"/>
<polygon fill="#515254" points="110.2,153.3 100.5,152.2 107.4,149.6 "/>
<path fill="#FFFFFF" d="M110.2,153.7C110.2,153.7,110.1,153.7,110.2,153.7l-9.7-1c-0.2,0-0.4-0.2-0.4-0.4c0-0.2,0.1-0.4,0.3-0.5
	l6.9-2.6c0.2-0.1,0.4,0,0.5,0.1l2.8,3.7c0.1,0.1,0.1,0.3,0,0.5C110.5,153.6,110.3,153.7,110.2,153.7z M102.4,152l6.8,0.7l-1.9-2.6
	L102.4,152z"/>
<polygon fill="#515254" points="92,152.3 84.9,149.6 103.7,142.5 110.8,145.2 "/>
<path fill="#FFFFFF" d="M92,152.7c-0.1,0-0.1,0-0.2,0l-7.1-2.7c-0.2-0.1-0.3-0.2-0.3-0.4c0-0.2,0.1-0.3,0.3-0.4l18.8-7.1
	c0.1,0,0.2,0,0.3,0l7.1,2.7c0.2,0.1,0.3,0.2,0.3,0.4c0,0.2-0.1,0.3-0.3,0.4l-18.8,7.1C92.1,152.7,92.1,152.7,92,152.7z M86.1,149.6
	l5.9,2.2l17.5-6.7l-5.9-2.2L86.1,149.6z"/>
<polygon fill="#FFCD03" points="110.7,145.1 103.6,142.4 107.9,140.8 115,143.5 "/>
<path fill="#FFFFFF" d="M110.7,145.6c-0.1,0-0.1,0-0.2,0l-7.1-2.7c-0.2-0.1-0.3-0.2-0.3-0.4c0-0.2,0.1-0.3,0.3-0.4l4.3-1.6
	c0.1,0,0.2,0,0.3,0l7.1,2.7c0.2,0.1,0.3,0.2,0.3,0.4s-0.1,0.3-0.3,0.4l-4.3,1.6C110.8,145.6,110.8,145.6,110.7,145.6z M104.9,142.4
	l5.9,2.2l3.1-1.2l-5.9-2.2L104.9,142.4z"/>
<polygon fill="#515254" points="82.3,153.3 85,149.6 91.9,152.2 "/>
<path fill="#FFFFFF" d="M82.3,153.7c-0.2,0-0.3-0.1-0.4-0.2c-0.1-0.2-0.1-0.3,0-0.5l2.7-3.7c0.1-0.2,0.3-0.2,0.5-0.2l6.9,2.6
	c0.2,0.1,0.3,0.3,0.3,0.5c0,0.2-0.2,0.4-0.4,0.4L82.3,153.7C82.3,153.7,82.3,153.7,82.3,153.7z M85.1,150.2l-1.9,2.6L90,152
	L85.1,150.2z"/>
<g>
	<path fill="#FFCD03" d="M88.3,125.5L88.3,125.5c-2.2-1.6-1.3-3.5-0.7-4.4c-0.9,1.1-2.9,4.2-2.3,6.2h0c0.1,0.9,0.9,1.6,1.9,1.6
		c1.1,0,1.9-0.9,1.9-1.9C89.1,126.4,88.8,125.9,88.3,125.5z"/>
	<path fill="#FFFFFF" d="M87.2,129.5c-1.2,0-2.2-0.8-2.3-2c-0.7-2.1,1.2-5.1,2.4-6.6c0.1-0.2,0.4-0.2,0.6-0.1
		c0.2,0.1,0.2,0.4,0.1,0.6c-0.7,1-1.1,2.5,0.6,3.8c0.6,0.4,1,1.1,1,1.9C89.6,128.4,88.5,129.5,87.2,129.5z M85.7,127.2
		c0,0,0,0.1,0,0.1c0.1,0.7,0.7,1.3,1.5,1.3c0.8,0,1.5-0.7,1.5-1.5c0-0.5-0.2-0.9-0.6-1.2c-0.9-0.7-1.4-1.4-1.5-2.3
		C85.9,124.8,85.4,126.2,85.7,127.2z"/>
</g>
<g>
	<path fill="#FFCD03" d="M107.1,119.4L107.1,119.4c2.2-1.6,1.3-3.5,0.7-4.4c0.9,1.1,2.9,4.2,2.3,6.2h0c-0.2,0.9-0.9,1.6-1.9,1.6
		c-1.1,0-1.9-0.9-1.9-1.9C106.3,120.3,106.6,119.7,107.1,119.4z"/>
	<path fill="#FFFFFF" d="M108.2,123.3c-1.3,0-2.4-1.1-2.4-2.4c0-0.8,0.4-1.5,1-1.9c1.7-1.3,1.3-2.8,0.6-3.8
		c-0.1-0.2-0.1-0.5,0.1-0.6c0.2-0.1,0.5-0.1,0.6,0.1c1.2,1.6,3,4.5,2.4,6.6C110.4,122.5,109.4,123.3,108.2,123.3z M108.9,117.5
		c-0.1,0.7-0.6,1.5-1.5,2.3c-0.4,0.3-0.6,0.7-0.6,1.2c0,0.8,0.7,1.5,1.5,1.5c0.7,0,1.4-0.5,1.5-1.3c0,0,0,0,0-0.1
		C110,120.1,109.5,118.7,108.9,117.5z"/>
</g>
<path fill="#FFCD03" d="M106.2,127.4c-1.3-2-2.9-3.8-4.6-5.4c1.1-2.1,1.8-3.8,1.8-3.8c2.9-7-0.3-15-7.3-18c4.5,1.9,6.7,7.4,4.7,11.6
	c-0.7,1.5-2.4,3.6-4.3,5.8c-1.3-1.1-2.4-2.1-3.1-3c-2.3-2.9-0.4-6.9-0.4-6.9s-3,1.2-3.7,5.7c-0.3,1.8,1.2,5,3.3,8.4
	c-2.1,2.2-4,4.1-4.6,4.9c-1.6,2.1-3.3,5-3.3,8.1c0,6.5,5.3,11.8,11.8,11.8c6.5,0,11.8-5.3,11.8-11.8
	C108.3,132.3,107.4,129.7,106.2,127.4z M96.5,138.5c-3.4-3.4-1.6-7.3,0.6-10.2C99.3,131.8,100,135.1,96.5,138.5z"/>
<path fill="#FFFFFF" d="M96.5,146.9c-6.7,0-12.2-5.5-12.2-12.2c0-2.7,1.1-5.5,3.4-8.4c0.5-0.7,1.8-2,3.4-3.6c0.3-0.3,0.7-0.7,1-1.1
	c-2.4-3.9-3.4-6.7-3.2-8.4c0.7-4.7,3.8-6,3.9-6c0.2-0.1,0.4,0,0.5,0.1c0.1,0.1,0.2,0.3,0.1,0.5c0,0-1.8,3.9,0.3,6.5
	c0.6,0.8,1.6,1.6,2.7,2.6c2.1-2.4,3.4-4.1,4-5.3c0.9-1.8,1-4,0.2-6c-0.8-2.2-2.5-4-4.6-4.9c0,0,0,0,0,0c-0.2-0.1-0.3-0.4-0.2-0.6
	c0.1-0.2,0.4-0.3,0.6-0.2c7.2,3,10.6,11.4,7.5,18.6c0,0.1-0.7,1.6-1.7,3.5c1.9,1.8,3.3,3.5,4.4,5.3c1.4,2.8,2.2,5.3,2.2,7.6
	C108.7,141.4,103.3,146.9,96.5,146.9z M92.2,108.7c-0.9,0.7-2,2.1-2.4,4.6c-0.2,1.5,0.9,4.4,3.2,8.1c0.1,0.2,0.1,0.4-0.1,0.5
	c-0.4,0.5-0.9,0.9-1.3,1.3c-1.5,1.6-2.8,2.9-3.3,3.5c-2.1,2.8-3.2,5.4-3.2,7.9c0,6.2,5.1,11.3,11.3,11.3c6.2,0,11.3-5.1,11.3-11.3
	c0-2.1-0.7-4.6-2-7.1c-1.1-1.8-2.6-3.5-4.5-5.3c-0.1-0.1-0.2-0.4-0.1-0.5c1.1-2,1.8-3.7,1.8-3.7c2-4.6,1.1-9.8-1.8-13.4
	c0.1,0.2,0.2,0.4,0.3,0.7c0.9,2.3,0.8,4.7-0.2,6.7c-0.7,1.3-2.1,3.3-4.4,5.9c-0.2,0.2-0.4,0.2-0.6,0c-1.3-1.1-2.5-2.1-3.2-3
	C91.4,112.7,91.7,110.2,92.2,108.7z M96.5,139C96.5,139,96.5,139,96.5,139c-0.1,0-0.2,0-0.3-0.1c-2.8-2.8-2.6-6.4,0.5-10.8
	c0.1-0.1,0.2-0.2,0.4-0.2c0.1,0,0.3,0.1,0.4,0.2c1.9,3.1,3.3,6.8-0.6,10.8C96.8,138.9,96.6,139,96.5,139z M97.1,129.1
	c-2.4,3.6-2.6,6.4-0.5,8.7C98.9,135.3,99.1,132.7,97.1,129.1z"/>
<g>
	<path fill="#FFCD03" d="M93.6,101.8L93.6,101.8c-2.2-1.6-1.3-3.5-0.7-4.4c-0.9,1.1-2.9,4.2-2.3,6.2l0,0c0.1,0.9,0.9,1.6,1.9,1.6
		c1.1,0,1.9-0.9,1.9-1.9C94.4,102.7,94.1,102.1,93.6,101.8z"/>
	<path fill="#FFFFFF" d="M92.5,105.7c-1.2,0-2.2-0.8-2.3-2c-0.7-2.2,1.5-5.4,2.4-6.6c0.1-0.2,0.4-0.2,0.6-0.1
		c0.2,0.1,0.2,0.4,0.1,0.6c-0.7,1-1.1,2.5,0.6,3.8c0.6,0.4,1,1.1,1,1.9C94.8,104.6,93.8,105.7,92.5,105.7z M91.8,99.8
		c-0.6,1.2-1.2,2.6-0.8,3.6c0,0,0,0,0,0.1c0.1,0.7,0.7,1.3,1.5,1.3c0.8,0,1.5-0.7,1.5-1.5c0-0.5-0.2-0.9-0.6-1.2
		C92.5,101.5,92,100.7,91.8,99.8z"/>
</g>
<path fill="#FFFFFF" d="M167.9,97c-0.4-11.3-3.5-22.4-9.2-32.6c-0.9-1.6-1.9-3.2-2.9-4.8c-1.9-6-4.6-11.7-9.2-15.9
	c-4.5-4.1-10.3-6.1-16.5-7.5c-10.3-5.6-22-8.6-34.1-8.6c-1.7,0-3.3,0.1-5,0.2c-3.3-0.7-6.6-1.2-9.8-1.2c-3,0-5.7,0.4-8.2,1.2
	c-6,1.9-10.7,6-14.9,10.7c-11.5,7.1-20.5,17.1-26.4,29c-4.3,4.7-7.9,9.8-9.2,16.2c-1.4,6.3-0.2,12.5,1.7,18.5
	c0.4,11.3,3.5,22.4,9.2,32.6c0.9,1.6,1.9,3.2,2.9,4.7c1.9,6,4.6,11.7,9.2,15.9c4.5,4.1,10.3,6.1,16.5,7.5c10.3,5.6,22,8.6,34.1,8.6
	c0,0,0,0,0,0c1.7,0,3.3-0.1,5-0.2c3.3,0.7,6.6,1.2,9.8,1.2c0,0,0,0,0,0c3,0,5.7-0.4,8.2-1.2c5.9-1.9,10.7-6,14.9-10.7
	c11.5-7.1,20.5-17.1,26.4-29c4.3-4.7,7.9-9.8,9.2-16.2C171,109.1,169.9,103,167.9,97z M164.7,88.3c-0.1-0.2-0.2-0.5-0.3-0.7
	c-1.2-3.1-2.4-6-3.4-8.9c-1-3-1.8-6.3-2.6-9.4c-0.1-0.2-0.1-0.4-0.2-0.6C161.4,74.9,163.5,81.5,164.7,88.3z M158,131.1
	c-2,2.1-4.1,4.1-6.1,6c-2.3,2.2-4.7,4.5-6.8,6.8c-0.6,0.6-1.1,1.3-1.7,1.9c1.1-2.2,2.1-4.4,3.1-6.6c1.4-3.1,2.7-6,4.2-8.6
	c1.6-2.8,3.5-5.6,5.4-8.3c3.8-5.5,7.7-11.2,9.3-17.5c-0.4,4.5-1.2,9-2.4,13.5C161.7,122.8,160.1,127.1,158,131.1z M91.8,166.8
	c-3.2-0.9-6.5-1.8-9.8-2.5c-0.9-0.2-1.9-0.4-2.9-0.6c2.5-0.1,5-0.4,7.4-0.6c3.3-0.3,6.7-0.6,9.9-0.6l0.3,0c3,0,6,0.3,9.3,0.6
	c3.3,0.3,6.7,0.6,10,0.6c0,0,0,0,0,0c3.7,0,6.9-0.4,9.7-1.2c-8,3.8-16.7,6-25.5,6.6C97.5,168.4,94.7,167.6,91.8,166.8z M35.6,129.4
	c-0.8-3.2-1.6-6.5-2.6-9.6c-0.3-1-0.7-2.1-1.1-3.2c1.4,2.1,2.8,4.2,4.3,6.3c1.9,2.8,3.9,5.6,5.6,8.5c1.7,2.9,3.2,6,4.6,9
	c2.9,6,5.8,12.1,10.2,16.5c-7.4-5-13.8-11.5-18.8-19.2C37,135,36.3,132.2,35.6,129.4z M34,68.1c2-2.1,4-4.1,6.1-6
	c2.3-2.2,4.7-4.5,6.8-6.8c0.6-0.6,1.1-1.3,1.7-1.9c-1.1,2.2-2.1,4.4-3.1,6.6c-1.4,3.1-2.7,6-4.2,8.6c-1.6,2.8-3.5,5.6-5.4,8.3
	c-3.8,5.5-7.7,11.2-9.3,17.4c0.4-4.5,1.2-9,2.4-13.5C30.3,76.4,31.9,72.1,34,68.1z M100.1,32.4c3.2,0.9,6.5,1.8,9.8,2.5
	c0.9,0.2,1.9,0.4,2.9,0.6c-2.5,0.1-5,0.4-7.4,0.6c-3.3,0.3-6.7,0.6-9.9,0.6l-0.3,0c-3,0-6-0.3-9.3-0.6c-3.3-0.3-6.7-0.6-10-0.6
	c-3.7,0-6.9,0.4-9.7,1.2c8-3.8,16.7-6,25.5-6.6C94.5,30.8,97.3,31.6,100.1,32.4z M156.4,69.8c0.8,3.2,1.6,6.5,2.6,9.6
	c0.3,1,0.7,2.1,1.1,3.2c-1.3-2.1-2.8-4.2-4.3-6.3c-1.9-2.8-3.9-5.6-5.6-8.5c-1.7-2.9-3.2-6-4.6-9c-2.9-6-5.8-12.1-10.2-16.5
	c7.4,5,13.8,11.5,18.8,19.2C155,64.2,155.7,67,156.4,69.8z M130.4,158.2c-3.8,2.2-8.4,3.3-14.4,3.3c0,0,0,0,0,0
	c-3.2,0-6.6-0.3-9.9-0.6c-3.1-0.3-6.4-0.6-9.5-0.6l-0.3,0c-3.3,0-6.7,0.3-10,0.7c-3.5,0.3-7,0.7-10.5,0.7c-5.7,0-10-0.9-13.5-3
	c-6.7-3.8-10.3-11.3-14.1-19.2c-1.5-3.1-3-6.2-4.7-9.2c-1.7-2.9-3.7-5.8-5.7-8.6c-5.1-7.2-9.8-14-9.9-21.7c0-7.9,4.9-15.1,9.7-22
	c1.9-2.8,3.9-5.6,5.5-8.4c1.6-2.7,2.9-5.8,4.3-8.8c3.5-7.7,7-15.6,14.2-19.8c3.8-2.2,8.4-3.3,14.4-3.3c3.2,0,6.6,0.3,9.9,0.6
	c3.1,0.3,6.4,0.6,9.5,0.6l0.3,0c3.3,0,6.7-0.3,10-0.7c3.5-0.3,7-0.7,10.5-0.7c5.7,0,10,0.9,13.5,3c6.7,3.8,10.3,11.3,14.1,19.2
	c1.5,3.1,3,6.2,4.7,9.2c1.7,2.9,3.7,5.8,5.7,8.6c5.1,7.2,9.8,14,9.9,21.7c0,7.9-4.9,15.1-9.7,22c-1.9,2.8-3.9,5.6-5.5,8.4
	c-1.6,2.7-2.9,5.8-4.3,8.8C141.1,146.1,137.5,154.1,130.4,158.2z M145.2,45.3c2.4,2.2,4.3,4.9,5.8,7.9c-4.2-4.9-8.9-9.2-14.2-12.8
	C139.9,41.5,142.7,43.1,145.2,45.3z M120.8,34.6c-0.2,0-0.4-0.1-0.6-0.1c-3.3-0.5-6.6-1-9.8-1.7c-3.2-0.7-6.5-1.6-9.7-2.5
	c-0.2-0.1-0.4-0.1-0.6-0.2C107.3,30.6,114.2,32.1,120.8,34.6z M73.6,29.9c2.3-0.8,4.8-1.1,7.6-1.1c0.7,0,1.3,0,2,0.1
	c-6.2,1.1-12.3,3.1-18,5.8C67.6,32.6,70.4,30.9,73.6,29.9z M52,45.7c-0.1,0.2-0.3,0.4-0.4,0.6c-2,2.5-4.1,5.2-6.2,7.5
	c-2.1,2.3-4.3,4.4-6.7,6.7c-0.2,0.2-0.3,0.3-0.5,0.5C41.9,55.2,46.6,50.1,52,45.7z M24.4,84.2c0.7-3.4,2.1-6.4,4-9.2
	c-0.6,1.7-1.2,3.4-1.7,5.2c-1.3,4.6-2.1,9.3-2.5,14C23.7,90.8,23.7,87.5,24.4,84.2z M27.3,110.9c0.1,0.2,0.2,0.5,0.3,0.7
	c1.2,3.1,2.4,6,3.4,8.9c1,3,1.8,6.3,2.6,9.4c0.1,0.2,0.1,0.4,0.2,0.6C30.6,124.3,28.5,117.7,27.3,110.9z M46.8,153.9
	c-2.4-2.2-4.3-4.9-5.8-7.9c4.2,4.9,8.9,9.2,14.2,12.8C52.1,157.7,49.3,156.1,46.8,153.9z M71.2,164.6c0.2,0,0.4,0.1,0.6,0.1
	c3.3,0.5,6.6,1,9.8,1.7c3.2,0.7,6.5,1.6,9.7,2.5c0.2,0.1,0.4,0.1,0.6,0.2C84.7,168.6,77.8,167.1,71.2,164.6z M118.4,169.3
	c-2.3,0.8-4.8,1.1-7.6,1.1h0c-0.7,0-1.3,0-2-0.1c6.2-1.1,12.3-3.1,18-5.8C124.4,166.6,121.6,168.3,118.4,169.3z M140,153.5
	c0.1-0.2,0.3-0.4,0.4-0.6c2-2.5,4.1-5.2,6.2-7.5c2.1-2.3,4.3-4.4,6.7-6.7c0.2-0.2,0.4-0.3,0.5-0.5C150.1,144,145.4,149.1,140,153.5z
	 M167.6,115c-0.7,3.4-2.1,6.4-4,9.2c0.6-1.7,1.2-3.4,1.7-5.2c1.3-4.6,2.1-9.3,2.5-13.9C168.3,108.4,168.3,111.7,167.6,115z"/>
</svg>
