<?xml version="1.0" encoding="utf-8"?>
<!-- Generator: Adobe Illustrator 18.1.0, SVG Export Plug-In . SVG Version: 6.00 Build 0)  -->
<!DOCTYPE svg PUBLIC "-//W3C//DTD SVG 1.1//EN" "http://www.w3.org/Graphics/SVG/1.1/DTD/svg11.dtd">
<svg version="1.1" id="Layer_1" xmlns="http://www.w3.org/2000/svg" xmlns:xlink="http://www.w3.org/1999/xlink" x="0px" y="0px"
	 viewBox="0 0 192 192" enable-background="new 0 0 192 192" xml:space="preserve">
<path fill="#515254" d="M34,35.2l-6.3-7.7l3.8-3.1l6.2,7.6c1.6,2,3.4,2.1,4.9,0.8c1.5-1.2,1.8-3,0.2-4.9l-6.3-7.7l3.8-3.1l6.2,7.6
	c3.6,4.4,2.7,8.4-1.2,11.6C41.6,39.4,37.5,39.5,34,35.2z"/>
<path fill="#515254" d="M55.8,18.4L46.9,13l5.1-2.4l4.9,3.2L57.6,8l5-2.3L61,15.9l9.3,5.6l-5.1,2.4l-5.3-3.4l-0.8,6.3l-5,2.3
	L55.8,18.4z"/>
<path fill="#515254" d="M81.3,9.9L81.3,9.9c-0.4-5.2,3.3-9.5,8.6-9.9c3.6-0.3,6,1.1,7.7,3.1l-3.5,3.1c-1.1-1.2-2.3-1.9-4-1.8
	c-2.5,0.2-4,2.4-3.8,5l0,0.1c0.2,2.6,2.1,4.6,4.5,4.4c1.8-0.1,2.8-1.1,3.8-2.4l3.9,2.3C97,16.2,94.9,18,91,18.3
	C86,18.7,81.6,15.2,81.3,9.9z"/>
<path fill="#515254" d="M111.2,1.2l4.6,0.8l4.3,18.8l-5.2-0.9l-0.7-3.3l-6.7-1.2l-1.8,2.9l-5.1-0.9L111.2,1.2z M113.5,12.6l-1.1-5.3
	l-2.8,4.6L113.5,12.6z"/>
<path fill="#515254" d="M130.8,6l4.6,2.3l0.8,8L143,12l4.6,2.3l-7.7,15.8l-4.4-2.1l4.4-9.1l-7.1,4.2l-0.1,0l-1-8.1l-4.4,9l-4.3-2.1
	L130.8,6z"/>
<path fill="#515254" d="M155.4,19.8l5.7,5c3.4,2.9,4,6.5,1.4,9.5l0,0c-2.7,3.1-6.6,2.7-9.9-0.2l-1.8-1.6l-3.3,3.8l-3.7-3.2
	L155.4,19.8z M155.1,31.1c1.3,1.1,2.7,1.2,3.6,0.1l0,0c1-1.1,0.7-2.4-0.6-3.6l-1.7-1.5l-3.1,3.5L155.1,31.1z"/>
<g>
	<polygon fill="#FF0000" points="109.3,185.7 107,186.7 108.1,188.9 106.1,187.4 104.7,189.5 105,187 102.5,186.9 104.8,185.9 
		103.7,183.7 105.7,185.2 107.1,183.1 106.8,185.6 	"/>
</g>
<path fill="#67A8C8" d="M29.4,156.7L29.4,156.7c2.1-2,5.3-2.1,7.4,0.1c1.3,1.4,1.7,2.6,1.6,3.9l-2.1,0.1c0-1-0.3-1.9-1-2.6
	c-1.2-1.2-3-1.1-4.3,0.1l0,0c-1.2,1.2-1.4,3.1-0.2,4.3c0.8,0.8,1.6,1,2.7,1.1l0,2c-1.5,0-2.8-0.3-4.2-1.7
	C27.2,161.9,27.3,158.7,29.4,156.7z"/>
<path fill="#67A8C8" d="M41.3,161.4l1.7,1.4l-2.5,3.1l3.2,2.5l2.5-3.1l1.7,1.4l-6.2,7.9l-1.7-1.4l2.5-3.2l-3.2-2.5l-2.5,3.2
	l-1.7-1.4L41.3,161.4z"/>
<path fill="#67A8C8" d="M50.4,168.2l1.9,1.2l-5.4,8.5l-1.9-1.2L50.4,168.2z"/>
<path fill="#67A8C8" d="M51.9,175.2L51.9,175.2c1.3-2.6,4.3-3.7,7.1-2.3c1.7,0.9,2.4,1.9,2.8,3.2l-2,0.8c-0.4-1-0.9-1.7-1.8-2.2
	c-1.5-0.8-3.2-0.1-4,1.5l0,0c-0.8,1.5-0.4,3.4,1.2,4.1c1,0.5,1.9,0.4,2.9,0.2l0.6,1.9c-1.4,0.5-2.8,0.6-4.5-0.3
	C51.5,180.8,50.6,177.8,51.9,175.2z"/>
<path fill="#67A8C8" d="M68.1,176.9l1.9,0.7l0.8,11l-2.2-0.8l-0.1-2.4l-4-1.4l-1.6,1.8l-2.1-0.7L68.1,176.9z M68.4,183.3l-0.2-3.5
	l-2.3,2.7L68.4,183.3z"/>
<path fill="#67A8C8" d="M74.3,184.3L74.3,184.3c0.6-2.8,3.2-4.7,6.2-4.1c1.8,0.3,2.8,1,3.6,2.1l-1.7,1.4c-0.6-0.8-1.2-1.3-2.4-1.5
	c-1.6-0.3-3.1,0.8-3.4,2.5l0,0c-0.4,1.8,0.6,3.4,2.4,3.7c0.8,0.2,1.5,0.1,2.2-0.2l0.3-1.4l-2.2-0.4l0.4-1.9l4.3,0.8l-0.8,4.3
	c-1.2,0.7-2.7,1.1-4.5,0.7C75.4,189.8,73.7,187.2,74.3,184.3z"/>
<path fill="#67A8C8" d="M87.1,186.6L87.1,186.6c0.1-2.9,2.5-5.1,5.6-5c3.1,0.1,5.2,2.5,5.1,5.4l0,0c-0.1,2.9-2.5,5.1-5.6,5
	C89.1,191.9,86.9,189.5,87.1,186.6z M95.4,186.9L95.4,186.9c0.1-1.8-1.1-3.2-2.9-3.3c-1.8-0.1-3.1,1.3-3.1,3l0,0
	c-0.1,1.7,1.1,3.2,2.9,3.3C94.1,190,95.4,188.7,95.4,186.9z"/>
<path fill="#67A8C8" d="M114,185.2L114,185.2c-0.7-2.8,0.8-5.6,3.8-6.4c1.8-0.5,3.1-0.1,4.2,0.5l-1,1.9c-0.9-0.5-1.8-0.7-2.8-0.5
	c-1.6,0.4-2.5,2.1-2,3.8l0,0c0.4,1.7,1.9,2.8,3.6,2.3c1.1-0.3,1.7-0.9,2.3-1.8l1.7,1c-0.7,1.3-1.7,2.3-3.5,2.8
	C117.4,189.7,114.7,188,114,185.2z"/>
<path fill="#67A8C8" d="M127.2,175.8l1.9-0.8l7.9,7.7l-2.1,0.9l-1.7-1.7l-3.9,1.6l0,2.4l-2.1,0.9L127.2,175.8z M131.7,180.4
	l-2.5-2.5l0,3.5L131.7,180.4z"/>
<path fill="#67A8C8" d="M135.3,172.3l2-1.2l4.5,2.3l0-5l2-1.2l5.2,8.6l-1.9,1.1l-3.4-5.6l-0.2,5.1l0,0l-4.6-2.2l3.4,5.6l-1.9,1.1
	L135.3,172.3z"/>
<path fill="#67A8C8" d="M146.5,165.1l3.2-2.6c1.9-1.5,3.9-1.4,5.2,0.2l0,0c1.5,1.8,0.9,3.9-0.9,5.3l-1.3,1.1l1.9,2.3l-1.7,1.4
	L146.5,165.1z M152.8,166.5c0.9-0.7,0.9-1.6,0.4-2.3l0,0c-0.6-0.8-1.5-0.7-2.4,0l-1.3,1.1l2,2.4L152.8,166.5z"/>
<path fill="#67A8C8" d="M160,164.9l-0.2-2c1.2-0.1,2.2-0.5,3-1.3c0.6-0.7,0.7-1.3,0.3-1.7l0,0c-0.4-0.4-0.9-0.3-2.3,0.6
	c-1.8,1.1-3.1,1.7-4.5,0.3l0,0c-1.3-1.3-1.2-3.2,0.2-4.6c1-1.1,2.2-1.6,3.5-1.8l0.4,2c-1.1,0.2-1.9,0.6-2.5,1.2
	c-0.6,0.6-0.6,1.2-0.3,1.5l0,0c0.5,0.5,0.9,0.3,2.5-0.7c1.8-1.1,3.1-1.4,4.4-0.2l0,0c1.4,1.4,1.2,3.3-0.3,4.8
	C163,164.1,161.6,164.8,160,164.9z"/>
<path fill="#B3DDF2" d="M166.8,97c-0.4-11.1-3.4-22.1-9.1-32.1c-0.9-1.6-1.9-3.2-2.9-4.7c-1.9-5.9-4.5-11.5-9.1-15.6
	c-4.4-4-10.2-6-16.3-7.4c-10.2-5.5-21.7-8.5-33.6-8.5c-1.6,0-3.3,0.1-4.9,0.2c-3.3-0.7-6.5-1.2-9.7-1.2c-2.9,0-5.6,0.4-8.1,1.2
	c-5.9,1.9-10.5,5.9-14.7,10.5c-11.3,7-20.2,16.8-26,28.5c-4.2,4.6-7.7,9.7-9.1,15.9c-1.3,6.2-0.2,12.3,1.7,18.2
	c0.4,11.1,3.4,22.1,9.1,32.1c0.9,1.6,1.9,3.2,2.9,4.7c1.9,5.9,4.5,11.5,9.1,15.6c4.4,4,10.2,6,16.3,7.4c10.2,5.5,21.7,8.5,33.6,8.5
	c0,0,0,0,0,0c1.6,0,3.3-0.1,4.9-0.2c3.3,0.7,6.5,1.2,9.7,1.2c0,0,0,0,0,0c2.9,0,5.6-0.4,8.1-1.2c5.9-1.9,10.5-5.9,14.7-10.5
	c11.3-7,20.2-16.8,26-28.6c4.2-4.6,7.7-9.7,9.1-15.9C169.8,109,168.7,102.9,166.8,97z"/>
<path fill="#FFFFFF" d="M168,97c-0.4-11.3-3.5-22.5-9.2-32.6c-0.9-1.6-1.9-3.2-2.9-4.8c-1.9-6-4.6-11.7-9.2-15.9
	c-4.5-4.1-10.3-6.1-16.5-7.5c-10.3-5.6-22-8.6-34.1-8.6c-1.7,0-3.3,0.1-5,0.2c-3.3-0.7-6.6-1.2-9.8-1.2c-3,0-5.7,0.4-8.2,1.2
	c-6,1.9-10.7,6-14.9,10.7c-11.5,7.1-20.5,17.1-26.4,29c-4.3,4.7-7.9,9.8-9.2,16.2c-1.4,6.3-0.2,12.5,1.7,18.5
	c0.4,11.3,3.5,22.5,9.2,32.6c0.9,1.6,1.9,3.2,2.9,4.8c1.9,6,4.6,11.7,9.2,15.9c4.5,4.1,10.3,6.1,16.5,7.5c10.3,5.6,22,8.6,34.1,8.6
	c0,0,0,0,0,0c1.7,0,3.3-0.1,5-0.2c3.3,0.7,6.6,1.2,9.8,1.2c0,0,0,0,0,0c3,0,5.7-0.4,8.2-1.2c6-1.9,10.7-6,14.9-10.7
	c11.5-7.1,20.5-17.1,26.4-29c4.3-4.7,7.9-9.8,9.2-16.2C171.1,109.1,169.9,103,168,97z M164.7,88.3c-0.1-0.2-0.2-0.5-0.3-0.7
	c-1.2-3.1-2.4-6-3.4-8.9c-1-3-1.8-6.3-2.6-9.4c-0.1-0.2-0.1-0.4-0.2-0.6C161.4,74.9,163.6,81.5,164.7,88.3z M158,131.1
	c-2,2.1-4.1,4.1-6.1,6c-2.3,2.2-4.7,4.5-6.8,6.8c-0.6,0.6-1.1,1.3-1.7,1.9c1.1-2.2,2.1-4.4,3.1-6.6c1.4-3.1,2.7-6,4.2-8.6
	c1.6-2.8,3.5-5.6,5.4-8.3c3.8-5.5,7.7-11.2,9.3-17.5c-0.4,4.5-1.2,9-2.4,13.5C161.7,122.8,160.1,127.1,158,131.1z M91.8,166.8
	c-3.2-0.9-6.5-1.8-9.8-2.5c-0.9-0.2-1.9-0.4-2.9-0.6c2.5-0.1,5-0.4,7.4-0.6c3.3-0.3,6.7-0.6,9.9-0.6l0.3,0c3,0,6,0.3,9.3,0.6
	c3.3,0.3,6.7,0.6,10,0.6c0,0,0,0,0,0c3.7,0,6.9-0.4,9.7-1.2c-8,3.8-16.7,6-25.5,6.6C97.5,168.4,94.7,167.6,91.8,166.8z M35.6,129.4
	c-0.8-3.2-1.6-6.5-2.6-9.6c-0.3-1-0.7-2.1-1.1-3.2c1.4,2.1,2.8,4.2,4.3,6.3c1.9,2.8,3.9,5.6,5.6,8.5c1.7,2.9,3.2,6,4.6,9
	c2.9,6,5.8,12.1,10.2,16.5c-7.4-5.1-13.8-11.5-18.8-19.2C37,135,36.3,132.2,35.6,129.4z M34,68c2-2.1,4-4.1,6.1-6
	c2.3-2.2,4.7-4.5,6.8-6.8c0.6-0.6,1.1-1.3,1.7-1.9c-1.1,2.2-2.1,4.4-3.1,6.6c-1.4,3.1-2.7,6-4.2,8.6c-1.6,2.8-3.5,5.6-5.4,8.3
	c-3.8,5.5-7.7,11.2-9.3,17.4c0.4-4.5,1.2-9,2.4-13.5C30.3,76.3,31.9,72.1,34,68z M100.2,32.4c3.2,0.9,6.5,1.8,9.8,2.5
	c0.9,0.2,1.9,0.4,2.9,0.6c-2.5,0.1-5,0.4-7.4,0.6c-3.3,0.3-6.7,0.6-9.9,0.6l-0.3,0c-3,0-6-0.3-9.3-0.6c-3.3-0.3-6.7-0.6-10-0.6
	c-3.7,0-6.9,0.4-9.7,1.2c8-3.8,16.7-6,25.5-6.6C94.5,30.8,97.3,31.6,100.2,32.4z M156.4,69.8c0.8,3.2,1.6,6.5,2.6,9.6
	c0.3,1,0.7,2.1,1.1,3.2c-1.3-2.1-2.8-4.2-4.3-6.3c-1.9-2.8-3.9-5.6-5.6-8.5c-1.7-2.9-3.2-6-4.6-9c-2.9-6-5.8-12.1-10.2-16.5
	c7.4,5.1,13.8,11.5,18.8,19.2C155,64.2,155.7,67,156.4,69.8z M130.4,158.3c-3.8,2.2-8.4,3.3-14.4,3.3c0,0,0,0,0,0
	c-3.2,0-6.6-0.3-9.9-0.6c-3.2-0.3-6.4-0.6-9.5-0.6l-0.3,0c-3.3,0-6.7,0.3-10,0.7c-3.5,0.3-7,0.7-10.5,0.7c-5.7,0-10-0.9-13.5-3
	c-6.7-3.8-10.3-11.3-14.1-19.2c-1.5-3.1-3-6.2-4.7-9.2c-1.7-2.9-3.7-5.8-5.7-8.6c-5.1-7.2-9.8-14-9.9-21.7c0-7.9,4.9-15.1,9.7-22.1
	c1.9-2.8,3.9-5.6,5.5-8.4c1.6-2.7,2.9-5.8,4.3-8.8c3.5-7.7,7-15.6,14.2-19.8c3.8-2.2,8.4-3.3,14.4-3.3c3.3,0,6.6,0.3,9.9,0.6
	c3.2,0.3,6.4,0.6,9.5,0.6l0.3,0c3.3,0,6.7-0.3,10-0.7c3.5-0.3,7-0.7,10.5-0.7c5.7,0,10,0.9,13.5,3c6.7,3.8,10.3,11.3,14.1,19.2
	c1.5,3.1,3,6.2,4.7,9.2c1.7,2.9,3.7,5.8,5.7,8.6c5.1,7.2,9.8,14,9.9,21.7c0,7.9-4.9,15.1-9.7,22.1c-1.9,2.8-3.9,5.6-5.5,8.4
	c-1.6,2.7-2.9,5.8-4.3,8.8C141.1,146.1,137.5,154.1,130.4,158.3z M145.2,45.3c2.4,2.2,4.3,4.9,5.8,7.9c-4.2-4.9-8.9-9.2-14.2-12.9
	C139.9,41.5,142.8,43.1,145.2,45.3z M120.8,34.6c-0.2,0-0.4-0.1-0.6-0.1c-3.3-0.5-6.6-1-9.8-1.7c-3.2-0.7-6.5-1.6-9.7-2.5
	c-0.2-0.1-0.4-0.1-0.6-0.2C107.3,30.6,114.3,32.1,120.8,34.6z M73.6,29.8c2.3-0.8,4.8-1.1,7.6-1.1c0.7,0,1.3,0,2,0.1
	c-6.2,1.1-12.3,3.1-18.1,5.8C67.6,32.5,70.4,30.9,73.6,29.8z M52,45.7c-0.1,0.2-0.3,0.4-0.4,0.6c-2,2.5-4.1,5.2-6.2,7.5
	c-2.1,2.3-4.3,4.4-6.7,6.7c-0.2,0.2-0.3,0.3-0.5,0.5C41.9,55.2,46.6,50.1,52,45.7z M24.4,84.2c0.7-3.4,2.1-6.4,4-9.2
	c-0.6,1.7-1.2,3.4-1.7,5.2c-1.3,4.6-2.1,9.3-2.5,14C23.7,90.8,23.7,87.5,24.4,84.2z M27.3,110.9c0.1,0.2,0.2,0.5,0.3,0.7
	c1.2,3.1,2.4,6,3.4,8.9c1,3,1.8,6.3,2.6,9.4c0.1,0.2,0.1,0.4,0.2,0.6C30.6,124.3,28.4,117.7,27.3,110.9z M46.8,153.9
	c-2.4-2.2-4.3-4.9-5.8-7.9c4.2,4.9,8.9,9.2,14.2,12.8C52.1,157.7,49.2,156.1,46.8,153.9z M71.2,164.6c0.2,0,0.4,0.1,0.6,0.1
	c3.3,0.5,6.6,1,9.8,1.7c3.2,0.7,6.5,1.6,9.7,2.5c0.2,0.1,0.4,0.1,0.6,0.2C84.7,168.6,77.7,167.1,71.2,164.6z M118.4,169.4
	c-2.3,0.8-4.8,1.1-7.6,1.1h0c-0.7,0-1.3,0-2-0.1c6.2-1.1,12.3-3.1,18-5.8C124.4,166.7,121.6,168.3,118.4,169.4z M140,153.5
	c0.1-0.2,0.3-0.4,0.4-0.6c2-2.5,4.1-5.2,6.2-7.5c2.1-2.3,4.3-4.4,6.7-6.7c0.2-0.2,0.4-0.3,0.5-0.5C150.1,144,145.4,149.1,140,153.5z
	 M167.6,115c-0.7,3.4-2.1,6.4-4,9.2c0.6-1.7,1.2-3.4,1.7-5.2c1.3-4.6,2.1-9.3,2.5-13.9C168.3,108.4,168.3,111.7,167.6,115z"/>
<path fill="#FFFFFF" d="M57.2,88.6V66h11.3v22.4c0,5.8,2.9,8.6,7.4,8.6c4.5,0,7.4-2.6,7.4-8.3V66h11.3v22.3c0,13-7.4,18.7-18.9,18.7
	S57.2,101.2,57.2,88.6z"/>
<path fill="#515254" d="M75.8,107.8c-12.5,0-19.4-6.8-19.4-19.2V66c0-0.4,0.4-0.8,0.8-0.8h11.3c0.4,0,0.8,0.4,0.8,0.8v22.4
	c0,5.1,2.3,7.8,6.6,7.8c4.3,0,6.6-2.6,6.6-7.5V66c0-0.4,0.4-0.8,0.8-0.8h11.3c0.4,0,0.8,0.4,0.8,0.8v22.3
	C95.5,100.9,88.5,107.8,75.8,107.8z M58,66.8v21.8c0,11.5,6.2,17.6,17.8,17.6c11.8,0,18.1-6.2,18.1-17.9V66.8h-9.7v21.9
	c0,5.8-3,9.1-8.2,9.1c-5.2,0-8.2-3.4-8.2-9.4V66.8H58z"/>
<path fill="#FFFFFF" d="M110.1,85.8L96.9,66h12.8l7.1,11.3L124,66h12.5l-13.2,19.7l13.8,20.6h-12.8l-7.7-12.1l-7.8,12.1H96.3
	L110.1,85.8z"/>
<path fill="#515254" d="M137.2,107.1h-12.8c-0.3,0-0.5-0.1-0.7-0.4l-7-11.1l-7.1,11.1c-0.1,0.2-0.4,0.4-0.7,0.4H96.3
	c-0.3,0-0.6-0.2-0.7-0.4c-0.1-0.3-0.1-0.6,0-0.8l13.5-20L96.2,66.4c-0.2-0.2-0.2-0.6,0-0.8c0.1-0.3,0.4-0.4,0.7-0.4h12.8
	c0.3,0,0.5,0.1,0.7,0.4l6.5,10.3l6.5-10.3c0.1-0.2,0.4-0.4,0.7-0.4h12.5c0.3,0,0.6,0.2,0.7,0.4c0.1,0.3,0.1,0.6,0,0.8l-12.9,19.2
	l13.5,20.2c0.2,0.2,0.2,0.6,0,0.8C137.7,106.9,137.5,107.1,137.2,107.1z M124.8,105.5h10.9l-13-19.4c-0.2-0.3-0.2-0.6,0-0.9
	l12.4-18.4h-10.6l-7,11c-0.1,0.2-0.4,0.4-0.7,0.4c0,0,0,0,0,0c-0.3,0-0.5-0.1-0.7-0.4l-6.9-11H98.4l12.4,18.5c0.2,0.3,0.2,0.6,0,0.9
	l-13,19.2h10.6l7.5-11.8c0.1-0.2,0.4-0.4,0.7-0.4c0,0,0,0,0,0c0.3,0,0.5,0.1,0.7,0.4L124.8,105.5z"/>
<path fill="#515254" d="M137.4,111.5H96.5c-0.9,0-1.6,0.7-1.6,1.6c0,0.9,0.7,1.6,1.6,1.6h40.9c0.9,0,1.6-0.7,1.6-1.6
	C139,112.3,138.3,111.5,137.4,111.5z"/>
<polygon fill="#515254" points="108.8,151.6 100.8,154.7 79.6,146.6 87.6,143.6 "/>
<path fill="#FFFFFF" d="M100.8,155.4c-0.1,0-0.2,0-0.3,0l-21.2-8c-0.3-0.1-0.5-0.4-0.5-0.7c0-0.3,0.2-0.6,0.5-0.7l8-3.1
	c0.2-0.1,0.3-0.1,0.5,0l21.2,8c0.3,0.1,0.5,0.4,0.5,0.7s-0.2,0.6-0.5,0.7l-8,3.1C101,155.4,100.9,155.4,100.8,155.4z M81.6,146.6
	l19.2,7.3l6-2.3l-19.2-7.3L81.6,146.6z"/>
<polygon fill="#FFCD03" points="87.6,143.6 79.6,146.6 74.7,144.8 82.7,141.7 "/>
<path fill="#FFFFFF" d="M79.6,147.4c-0.1,0-0.2,0-0.3,0l-4.9-1.8c-0.3-0.1-0.5-0.4-0.5-0.7c0-0.3,0.2-0.6,0.5-0.7l8-3.1
	c0.2-0.1,0.3-0.1,0.5,0l4.9,1.8c0.3,0.1,0.5,0.4,0.5,0.7c0,0.3-0.2,0.6-0.5,0.7l-8,3.1C79.7,147.4,79.6,147.4,79.6,147.4z
	 M76.7,144.8l2.8,1.1l6-2.3l-2.8-1.1L76.7,144.8z"/>
<polygon fill="#515254" points="91.3,154.7 83.3,151.6 104.5,143.6 112.5,146.6 "/>
<path fill="#FFFFFF" d="M91.3,155.4c-0.1,0-0.2,0-0.3,0l-8-3.1c-0.3-0.1-0.5-0.4-0.5-0.7c0-0.3,0.2-0.6,0.5-0.7l21.2-8
	c0.2-0.1,0.3-0.1,0.5,0l8,3.1c0.3,0.1,0.5,0.4,0.5,0.7s-0.2,0.6-0.5,0.7l-21.2,8C91.5,155.4,91.4,155.4,91.3,155.4z M85.3,151.6
	l6,2.3l19.2-7.3l-6-2.3L85.3,151.6z"/>
<polygon fill="#FFCD03" points="112.4,146.6 104.4,143.6 109.3,141.7 117.3,144.8 "/>
<path fill="#FFFFFF" d="M112.4,147.3c-0.1,0-0.2,0-0.3,0l-8-3.1c-0.3-0.1-0.5-0.4-0.5-0.7s0.2-0.6,0.5-0.7l4.9-1.8
	c0.2-0.1,0.3-0.1,0.5,0l8,3.1c0.3,0.1,0.5,0.4,0.5,0.7s-0.2,0.6-0.5,0.7l-4.9,1.8C112.6,147.3,112.5,147.3,112.4,147.3z
	 M106.4,143.6l6,2.3l2.8-1.1l-6-2.3L106.4,143.6z"/>
<path fill="#FFCD03" d="M87.2,124.5L87.2,124.5c-2.5-1.8-1.5-4-0.8-4.9c-1,1.3-3.3,4.7-2.6,7h0c0.2,1,1.1,1.9,2.2,1.9
	c1.2,0,2.2-1,2.2-2.2C88.1,125.5,87.7,124.9,87.2,124.5z"/>
<path fill="#FFFFFF" d="M85.9,129.1c-1.4,0-2.6-1-2.9-2.4c-0.7-2.5,1.4-5.9,2.7-7.7c0.2-0.3,0.7-0.4,1-0.2c0.3,0.2,0.4,0.7,0.2,1
	c-1,1.5-0.8,2.9,0.7,4c0.7,0.5,1.2,1.4,1.2,2.3C88.8,127.8,87.5,129.1,85.9,129.1z M84.4,126.3c0,0,0,0.1,0,0.1
	c0.1,0.7,0.7,1.2,1.4,1.2c0.8,0,1.5-0.7,1.5-1.5c0-0.5-0.2-0.9-0.6-1.2c-0.8-0.6-1.4-1.3-1.7-2.1C84.5,124.1,84.1,125.3,84.4,126.3z
	"/>
<path fill="#FFCD03" d="M108.4,117.5L108.4,117.5c2.5-1.8,1.5-4,0.8-4.9c1,1.3,3.3,4.7,2.6,7h0c-0.2,1-1.1,1.9-2.2,1.9
	c-1.2,0-2.2-1-2.2-2.2C107.5,118.6,107.8,117.9,108.4,117.5z"/>
<path fill="#FFFFFF" d="M109.6,122.2c-1.6,0-2.9-1.3-2.9-2.9c0-0.9,0.4-1.8,1.2-2.3c1.5-1.1,1.7-2.4,0.7-4c-0.2-0.3-0.1-0.8,0.2-1
	c0.3-0.2,0.8-0.2,1,0.2c1.3,1.8,3.5,5.1,2.7,7.7C112.3,121.2,111.1,122.2,109.6,122.2z M110.5,116c-0.3,0.8-0.8,1.5-1.7,2.1
	c-0.4,0.3-0.6,0.7-0.6,1.2c0,0.8,0.7,1.5,1.5,1.5c0.7,0,1.3-0.5,1.4-1.2c0,0,0-0.1,0-0.1C111.4,118.4,111,117.2,110.5,116z"/>
<path fill="#FFCD03" d="M107.3,126.5c-1.5-2.3-3.3-4.3-5.2-6.1c1.3-2.3,2.1-4.3,2.1-4.3c3.3-7.9-0.3-17-8.2-20.3
	c5.1,2.1,7.6,8.3,5.3,13.1c-0.8,1.7-2.7,4.1-4.9,6.5c-1.5-1.2-2.7-2.4-3.5-3.3c-2.6-3.2-0.4-7.8-0.4-7.8s-3.4,1.3-4.2,6.4
	c-0.3,2,1.4,5.7,3.7,9.5c-2.4,2.5-4.5,4.6-5.2,5.5c-1.8,2.3-3.7,5.6-3.7,9.2c0,7.3,5.9,13.3,13.3,13.3c7.3,0,13.3-5.9,13.3-13.3
	C109.7,132.1,108.7,129.2,107.3,126.5z M96.4,139.1c-3.8-3.8-1.8-8.2,0.7-11.5C99.6,131.6,100.3,135.2,96.4,139.1z"/>
<path fill="#FFFFFF" d="M96.4,148.8c-7.7,0-14-6.3-14-14c0-3.1,1.3-6.3,3.8-9.6c0.6-0.8,2-2.2,3.8-4.1c0.3-0.4,0.7-0.7,1.1-1.1
	c-2.6-4.4-3.8-7.6-3.5-9.5c0.8-5.4,4.4-6.9,4.6-6.9c0.3-0.1,0.6,0,0.8,0.2c0.2,0.2,0.3,0.5,0.1,0.8c0,0-2,4.2,0.3,7.1
	c0.6,0.8,1.6,1.7,2.9,2.8c2.2-2.6,3.7-4.5,4.3-5.8c1-2,1.1-4.4,0.2-6.6c-0.9-2.5-2.8-4.4-5.1-5.4l0,0c-0.4-0.2-0.5-0.6-0.4-0.9
	c0.2-0.4,0.6-0.5,0.9-0.4c0,0,0,0,0,0c4,1.7,7.1,4.8,8.7,8.8c1.6,4,1.6,8.4-0.1,12.4c0,0.1-0.7,1.7-1.8,3.9c2.1,2,3.7,4,4.9,5.9
	c0,0,0,0,0,0.1c1.6,3.1,2.4,6,2.4,8.6C110.4,142.6,104.1,148.8,96.4,148.8z M91.1,106.1c-0.8,0.9-1.7,2.3-2.1,4.6
	c-0.2,1.6,1,4.8,3.6,9c0.2,0.3,0.1,0.6-0.1,0.9c-0.5,0.5-1,1-1.5,1.5c-1.7,1.7-3.1,3.2-3.7,4c-2.3,3.1-3.5,6-3.5,8.7
	c0,6.9,5.6,12.6,12.6,12.6c6.9,0,12.6-5.6,12.6-12.6c0-2.4-0.8-5.1-2.3-7.9c-1.3-2-2.9-3.9-5.1-6c-0.2-0.2-0.3-0.6-0.1-0.9
	c1.2-2.3,2-4.2,2-4.2c1.5-3.6,1.6-7.6,0.1-11.3c-0.3-0.8-0.7-1.6-1.2-2.3c0.7,2.4,0.5,4.8-0.5,7c-0.8,1.6-2.4,3.7-5,6.7
	c-0.3,0.3-0.7,0.3-1,0.1c-1.7-1.4-2.8-2.5-3.6-3.4C90.6,110.4,90.7,107.9,91.1,106.1z M96.4,139.9L96.4,139.9
	c-0.2,0-0.4-0.1-0.5-0.2c-3.3-3.3-3.1-7.5,0.6-12.5c0.1-0.2,0.4-0.3,0.6-0.3c0.2,0,0.5,0.1,0.6,0.3c2.2,3.5,3.9,7.8-0.8,12.4
	C96.8,139.8,96.6,139.9,96.4,139.9z M97,129c-2.4,3.7-2.6,6.7-0.6,9.1C99.2,134.9,98.8,132.1,97,129z"/>
<path fill="#FFCD03" d="M93.1,97.6L93.1,97.6c-2.5-1.9-1.5-4-0.8-4.9c-1,1.3-3.3,4.7-2.6,7h0c0.2,1,1.1,1.9,2.2,1.9
	c1.2,0,2.2-1,2.2-2.2C94,98.7,93.7,98,93.1,97.6z"/>
<path fill="#FFFFFF" d="M91.8,102.3c-1.4,0-2.6-1-2.9-2.4c-0.7-2.5,1.4-5.9,2.7-7.7c0.2-0.3,0.7-0.4,1-0.2c0.3,0.2,0.4,0.7,0.2,1
	c-1,1.5-0.8,2.9,0.7,4c0.7,0.5,1.2,1.4,1.2,2.3C94.7,101,93.4,102.3,91.8,102.3z M90.4,99.5c0,0,0,0.1,0,0.1
	c0.1,0.7,0.7,1.2,1.4,1.2c0.8,0,1.5-0.7,1.5-1.5c0-0.5-0.2-0.9-0.6-1.2c-0.8-0.6-1.4-1.3-1.7-2.1C90.4,97.4,90.1,98.6,90.4,99.5z"/>
<path fill="#515254" d="M94,57H56c-0.9,0-1.6,0.7-1.6,1.6c0,0.9,0.7,1.6,1.6,1.6H94c0.9,0,1.6-0.7,1.6-1.6C95.6,57.7,94.9,57,94,57z
	"/>
</svg>
