<svg xmlns="http://www.w3.org/2000/svg" width="456" height="482" viewBox="0 0 456 482">
  <g fill="none" fill-rule="evenodd" transform="translate(-84 -29)">
    <rect width="540" height="540"/>
    <g transform="translate(84 29)">
      <path fill="#515254" d="M30.87,88.81 L15.19,69.65 L24.79,61.79 L40.31,80.75 C44.34,85.67 48.74,85.98 52.54,82.87 C56.34,79.76 56.99,75.48 53.08,70.7 L37.37,51.5 L46.97,43.64 L62.45,62.56 C71.47,73.58 69.13,83.55 59.43,91.49 C49.73,99.42 39.61,99.49 30.87,88.81 Z"/>
      <polygon fill="#515254" points="85.33 46.85 63.03 33.34 75.76 27.4 88.09 35.34 89.97 20.76 102.41 14.95 98.4 40.6 121.64 54.64 108.91 60.58 95.64 52.11 93.56 67.75 81.12 73.56"/>
      <path fill="#515254" d="M149.09,25.54 L149.08,25.41 C148.12,12.59 157.23,1.81 170.55,0.81 C179.53,0.14 185.59,3.48 189.89,8.59 L181.25,16.38 C178.5,13.43 175.46,11.63 171.25,11.95 C165.09,12.41 161.15,17.95 161.63,24.36 L161.64,24.49 C162.13,31.09 166.85,35.91 173.01,35.45 C177.6,35.11 180.14,32.77 182.54,29.37 L192.2,35.22 C188.48,41.25 183.21,45.87 173.47,46.6 C160.9,47.52 150.07,38.67 149.09,25.54 Z"/>
      <path fill="#515254" fill-rule="nonzero" d="M224.13,3.69 L235.73,5.76 L246.4,52.78 L233.5,50.48 L231.72,42.16 L214.98,39.17 L210.49,46.37 L197.84,44.11 L224.13,3.69 Z M229.92,32.18 L227.29,18.98 L220.19,30.45 L229.92,32.18 Z"/>
      <polygon fill="#515254" points="273.22 15.78 284.82 21.46 286.77 41.42 303.73 30.71 315.33 36.39 295.94 76 285.02 70.66 296.15 47.91 278.43 58.46 278.2 58.35 275.66 38.03 264.58 60.67 253.83 55.41"/>
      <path fill="#515254" fill-rule="nonzero" d="M334.76,50.28 L349,62.7 C357.4,70.03 359.04,79.07 352.63,86.43 L352.55,86.53 C345.72,94.36 336.09,93.23 327.83,86.03 L323.27,82.05 L314.99,91.54 L305.78,83.51 L334.76,50.28 Z M333.93,78.64 C337.21,81.5 340.69,81.53 342.97,78.92 L343.05,78.83 C345.54,75.98 344.87,72.72 341.54,69.82 L337.22,66.05 L329.56,74.83 L333.93,78.64 Z"/>
      <polygon fill="#F00" points="219.16 465.6 213.41 468 216.18 473.59 211.21 469.81 207.75 475.01 208.54 468.82 202.32 468.42 208.07 466.01 205.31 460.42 210.27 464.2 213.73 459.01 212.94 465.2"/>
      <path fill="#67A8C8" d="M19.35,393.01 L19.4,392.96 C24.54,387.97 32.51,387.76 37.9,393.31 C41.21,396.72 42.05,399.86 42.03,403.15 L36.65,403.45 C36.56,400.83 35.96,398.65 34.2,396.85 C31.24,393.8 26.58,394.06 23.48,397.07 L23.43,397.12 C20.33,400.13 19.83,404.78 22.84,407.88 C24.85,409.95 26.9,410.41 29.57,410.58 L29.47,415.59 C25.68,415.66 22.43,414.8 19.05,411.31 C13.89,405.99 14.16,398.05 19.35,393.01 Z"/>
      <polygon fill="#67A8C8" points="49.13 404.79 53.49 408.21 47.34 416.06 55.39 422.37 61.54 414.52 65.9 417.94 50.35 437.77 45.99 434.35 52.23 426.39 44.18 420.08 37.94 428.04 33.58 424.62"/>
      <polygon fill="#67A8C8" points="71.99 421.78 76.67 424.76 63.14 446.01 58.46 443.03"/>
      <path fill="#67A8C8" d="M75.67,439.24 L75.7,439.18 C78.96,432.8 86.43,430.02 93.33,433.54 C97.56,435.7 99.38,438.4 100.42,441.52 L95.43,443.54 C94.5,441.08 93.23,439.22 90.98,438.08 C87.2,436.15 82.87,437.9 80.9,441.75 L80.87,441.81 C78.91,445.66 79.93,450.22 83.78,452.19 C86.35,453.5 88.44,453.27 91.02,452.57 L92.54,457.35 C88.97,458.64 85.62,458.87 81.29,456.66 C74.69,453.28 72.38,445.68 75.67,439.24 Z"/>
      <path fill="#67A8C8" fill-rule="nonzero" d="M116.15,443.56 L120.98,445.22 L122.95,472.73 L117.47,470.85 L117.13,464.76 L107.05,461.3 L103.04,465.9 L97.7,464.07 L116.15,443.56 Z M116.85,459.48 L116.34,450.67 L110.52,457.31 L116.85,459.48 Z"/>
      <path fill="#67A8C8" d="M131.68,462.04 L131.69,461.97 C133.07,454.94 139.67,450.25 147.16,451.72 C151.61,452.59 154.06,454.32 156.21,457.01 L151.98,460.47 C150.38,458.51 148.87,457.26 146.01,456.7 C142.05,455.93 138.23,458.81 137.4,463.01 L137.39,463.08 C136.51,467.6 138.96,471.53 143.34,472.39 C145.32,472.78 147.18,472.63 148.75,471.91 L149.44,468.38 L143.96,467.31 L144.88,462.61 L155.62,464.71 L153.52,475.45 C150.56,477.11 146.71,478.19 142.19,477.3 C134.49,475.79 130.25,469.35 131.68,462.04 Z"/>
      <path fill="#67A8C8" fill-rule="nonzero" d="M163.6,467.75 L163.6,467.68 C163.9,460.52 169.79,454.9 177.56,455.22 C185.33,455.55 190.66,461.57 190.36,468.73 L190.36,468.8 C190.06,475.96 184.17,481.58 176.4,481.26 C168.63,480.93 163.3,474.91 163.6,467.75 Z M184.57,468.63 L184.57,468.56 C184.75,464.24 181.74,460.52 177.28,460.33 C172.82,460.14 169.58,463.54 169.4,467.85 L169.4,467.92 C169.22,472.24 172.23,475.96 176.69,476.15 C181.15,476.34 184.39,472.95 184.57,468.63 Z"/>
      <path fill="#67A8C8" d="M231.01,464.34 L230.99,464.27 C229.2,457.33 232.97,450.3 240.46,448.37 C245.06,447.18 248.21,448.01 251.05,449.66 L248.65,454.48 C246.33,453.26 244.14,452.7 241.7,453.33 C237.59,454.39 235.5,458.57 236.58,462.75 L236.6,462.82 C237.68,467 241.47,469.74 245.66,468.67 C248.45,467.95 249.87,466.39 251.34,464.16 L255.65,466.73 C253.83,470.06 251.47,472.45 246.77,473.67 C239.58,475.51 232.81,471.34 231.01,464.34 Z"/>
      <path fill="#67A8C8" fill-rule="nonzero" d="M264.2,440.74 L268.92,438.78 L288.63,458.08 L283.28,460.3 L278.98,455.96 L269.14,460.05 L269.18,466.15 L263.96,468.32 L264.2,440.74 Z M275.27,452.2 L269.04,445.94 L269.08,454.77 L275.27,452.2 Z"/>
      <polygon fill="#67A8C8" points="284.31 432.04 289.41 428.93 300.6 434.59 300.72 422.05 305.82 418.94 318.92 440.46 314.22 443.32 305.67 429.27 305.21 442.15 305.09 442.22 293.56 436.77 302.05 450.73 297.41 453.56"/>
      <path fill="#67A8C8" fill-rule="nonzero" d="M312.45,413.91 L320.4,407.36 C325.04,403.54 330.11,403.98 333.39,407.95 L333.44,408.01 C337.15,412.51 335.57,417.73 331.21,421.32 L327.96,424 L332.77,429.83 L328.49,433.35 L312.45,413.91 Z M328.2,417.4 C330.34,415.64 330.54,413.33 329.16,411.66 L329.11,411.6 C327.53,409.68 325.35,409.75 323.21,411.52 L319.9,414.24 L324.8,420.19 L328.2,417.4 Z"/>
      <path fill="#67A8C8" d="M346.13,413.52 L345.56,408.44 C348.48,408.1 350.98,407.2 352.97,405.12 C354.54,403.48 354.83,401.87 353.77,400.85 L353.72,400.8 C352.71,399.83 351.59,399.96 347.9,402.25 C343.45,405.02 340.18,406.42 336.56,402.96 L336.51,402.91 C333.21,399.75 333.56,395.01 337.12,391.29 C339.66,388.64 342.66,387.17 345.91,386.74 L346.94,391.71 C344.28,392.25 342.08,393.19 340.62,394.73 C339.16,396.27 339.08,397.74 339.97,398.59 L340.02,398.64 C341.22,399.79 342.35,399.38 346.17,397 C350.67,394.23 353.98,393.42 357.16,396.45 L357.21,396.5 C360.83,399.96 360.22,404.66 356.46,408.59 C353.8,411.33 350.17,413.2 346.13,413.52 Z"/>
      <path fill="#B3DDF2" d="M363.15,243.54 C362.16,215.67 354.54,188.25 340.49,163.24 C338.23,159.22 335.82,155.33 333.28,151.54 C328.52,136.66 322.02,122.78 310.6,112.41 C299.5,102.34 285.15,97.28 269.9,93.98 C244.48,80.3 215.69,72.77 185.85,72.77 C181.75,72.77 177.66,72.93 173.58,73.22 C165.42,71.48 157.29,70.29 149.38,70.29 C142.02,70.29 135.4,71.27 129.14,73.3 C114.48,78.03 102.84,87.99 92.39,99.57 C64.18,117.08 41.86,141.72 27.35,171.02 C16.8,182.54 7.96,195.24 4.58,210.89 C1.21,226.51 4.02,241.68 8.86,256.49 C9.85,284.35 17.47,311.76 31.52,336.77 C33.77,340.78 36.19,344.68 38.72,348.47 C43.48,363.34 49.98,377.23 61.41,387.59 C72.51,397.66 86.86,402.71 102.09,406.01 C127.51,419.69 156.31,427.22 186.16,427.22 C186.16,427.22 186.17,427.22 186.17,427.22 C190.27,427.22 194.36,427.06 198.44,426.77 C206.6,428.51 214.72,429.69 222.63,429.69 C222.63,429.69 222.63,429.69 222.63,429.69 C229.99,429.69 236.61,428.71 242.87,426.68 C257.52,421.95 269.15,412 279.6,400.43 C307.83,382.91 330.16,358.26 344.67,328.94 C355.21,317.42 364.04,304.73 367.42,289.08 C370.78,273.5 367.99,258.34 363.15,243.54 Z"/>
      <path fill="#FFF" fill-rule="nonzero" d="M366.1,243.44 C365.1,215.11 357.35,187.23 343.06,161.81 C340.77,157.73 338.31,153.77 335.73,149.91 C330.89,134.79 324.28,120.67 312.67,110.13 C301.39,99.89 286.79,94.75 271.29,91.4 C245.45,77.49 216.17,69.84 185.84,69.84 C181.67,69.84 177.51,70 173.37,70.29 C165.07,68.52 156.81,67.32 148.76,67.32 C141.28,67.32 134.55,68.32 128.18,70.38 C113.28,75.19 101.45,85.32 90.82,97.09 C62.14,114.89 39.45,139.94 24.69,169.73 C13.97,181.44 4.98,194.35 1.55,210.27 C-1.87,226.15 0.98,241.57 5.9,256.63 C6.91,284.95 14.66,312.82 28.93,338.24 C31.22,342.32 33.68,346.28 36.25,350.13 C41.09,365.25 47.7,379.37 59.31,389.9 C70.59,400.13 85.18,405.27 100.67,408.63 C126.51,422.54 155.79,430.19 186.13,430.2 C186.13,430.2 186.14,430.2 186.14,430.2 C190.31,430.2 194.47,430.04 198.62,429.75 C206.91,431.52 215.17,432.72 223.21,432.72 C223.21,432.72 223.21,432.72 223.21,432.72 C230.69,432.72 237.42,431.72 243.79,429.66 C258.68,424.85 270.51,414.73 281.13,402.97 C309.83,385.16 332.53,360.1 347.29,330.29 C358.01,318.58 366.99,305.68 370.42,289.77 C373.86,273.89 371.01,258.48 366.1,243.44 Z M357.9,221.67 C357.67,221.09 357.43,220.52 357.2,219.94 C354.07,212.21 351.12,204.92 348.77,197.63 C346.34,190.09 344.3,181.93 342.32,174.04 C342.19,173.52 342.06,173.01 341.93,172.49 C349.76,188.19 355.1,204.74 357.9,221.67 Z M341.28,328.95 C336.37,334.15 331.14,339.14 325.96,344.08 C320.13,349.64 314.09,355.4 308.82,361.21 C307.42,362.76 306.03,364.35 304.65,365.97 C307.4,360.53 309.92,354.93 312.41,349.39 C315.86,341.71 319.13,334.46 322.9,327.81 C326.82,320.89 331.67,313.86 336.35,307.06 C345.91,293.18 355.71,278.94 359.69,263.35 C358.8,274.64 356.8,285.93 353.67,297.09 C350.54,308.2 346.38,318.86 341.28,328.95 Z M175.61,418.29 C167.58,416.04 159.28,413.7 151.11,411.94 C148.74,411.43 146.35,410.97 143.94,410.53 C150.12,410.23 156.35,409.65 162.44,409.08 C170.66,408.31 179.16,407.51 187.11,407.47 L187.82,407.47 C195.25,407.47 202.93,408.14 211.06,408.85 C219.3,409.57 227.82,410.31 236.19,410.31 C236.19,410.31 236.19,410.31 236.19,410.31 C245.42,410.31 253.41,409.36 260.5,407.4 C240.43,416.9 218.7,422.51 196.64,423.86 C189.77,422.26 182.77,420.3 175.61,418.29 Z M34.82,324.68 C32.82,316.7 30.76,308.45 28.27,300.75 C27.42,298.12 26.48,295.46 25.49,292.79 C28.87,298.1 32.53,303.32 36.16,308.49 C41,315.38 46.01,322.51 50.2,329.67 C54.4,336.82 58.18,344.67 61.83,352.26 C69.02,367.19 76.4,382.5 87.42,393.51 C69,380.87 52.95,364.67 40.4,345.55 C38.33,338.7 36.57,331.65 34.82,324.68 Z M30.73,171.05 C35.64,165.86 40.86,160.87 46.04,155.94 C51.87,150.38 57.91,144.62 63.18,138.81 C64.58,137.26 65.97,135.67 67.36,134.05 C64.61,139.49 62.09,145.09 59.59,150.64 C56.14,158.32 52.87,165.57 49.1,172.22 C45.18,179.14 40.33,186.17 35.65,192.97 C26.1,206.84 16.3,221.07 12.32,236.64 C13.21,225.36 15.21,214.08 18.34,202.94 C21.46,191.81 25.62,181.14 30.73,171.05 Z M196.39,81.72 C204.42,83.97 212.72,86.31 220.9,88.07 C223.27,88.58 225.68,89.04 228.09,89.49 C221.91,89.79 215.67,90.37 209.57,90.94 C201.35,91.71 192.85,92.51 184.9,92.55 L184.19,92.55 C176.76,92.55 169.08,91.88 160.95,91.17 C152.71,90.45 144.19,89.71 135.82,89.71 C126.6,89.71 118.62,90.66 111.52,92.61 C131.59,83.11 153.31,77.51 175.38,76.16 C182.23,77.75 189.23,79.71 196.39,81.72 Z M337.17,175.33 C339.17,183.31 341.23,191.56 343.72,199.26 C344.57,201.89 345.51,204.55 346.5,207.21 C343.12,201.9 339.46,196.69 335.83,191.52 C330.99,184.63 325.98,177.5 321.79,170.34 C317.6,163.19 313.82,155.34 310.16,147.75 C302.97,132.83 295.6,117.52 284.58,106.51 C302.99,119.15 319.03,135.35 331.58,154.46 C333.66,161.32 335.42,168.36 337.17,175.33 Z M272.12,396.82 C262.62,402.39 251.2,404.99 236.18,404.99 C236.18,404.99 236.18,404.99 236.18,404.99 C228.05,404.99 219.64,404.26 211.52,403.55 C203.63,402.86 195.48,402.15 187.82,402.15 L187.08,402.15 C178.89,402.2 170.28,403.01 161.94,403.79 C153.28,404.6 144.32,405.44 135.77,405.44 C121.6,405.44 110.84,403.08 101.92,398.02 C85.24,388.56 76.21,369.81 66.64,349.95 C62.94,342.26 59.11,334.32 54.8,326.98 C50.49,319.64 45.43,312.42 40.52,305.44 C27.85,287.4 15.89,270.36 15.77,251.19 C15.65,231.37 28.04,213.38 40.03,195.99 C44.78,189.1 49.69,181.97 53.73,174.85 C57.62,167.99 61.09,160.28 64.44,152.83 C73.1,133.58 82.06,113.67 99.88,103.21 C109.38,97.64 120.8,95.04 135.82,95.04 C143.96,95.04 152.36,95.77 160.49,96.48 C168.38,97.17 176.53,97.88 184.2,97.88 L184.94,97.88 C193.13,97.83 201.74,97.02 210.08,96.24 C218.75,95.43 227.7,94.59 236.25,94.59 C250.42,94.59 261.18,96.95 270.1,102.01 C286.78,111.47 295.81,130.23 305.38,150.09 C309.08,157.78 312.91,165.72 317.21,173.06 C321.51,180.4 326.58,187.62 331.49,194.6 C344.16,212.64 356.12,229.68 356.23,248.85 C356.35,268.66 343.96,286.65 331.98,304.04 C327.23,310.93 322.32,318.06 318.28,325.19 C314.39,332.06 310.92,339.76 307.57,347.21 C298.9,366.45 289.95,386.36 272.12,396.82 Z M309.1,114.06 C315.23,119.62 319.89,126.37 323.63,133.83 C313.21,121.5 301.25,110.71 288.11,101.67 C295.91,104.62 303.01,108.54 309.1,114.06 Z M248.11,87.35 C247.62,87.28 247.13,87.2 246.65,87.13 C238.48,85.89 230.04,84.61 222.03,82.88 C214.02,81.15 205.79,78.84 197.84,76.61 C197.31,76.46 196.79,76.31 196.26,76.17 C214.21,77.24 231.68,81.06 248.11,87.35 Z M129.82,75.42 C135.65,73.54 141.85,72.62 148.77,72.62 C150.41,72.62 152.05,72.68 153.7,72.78 C138.11,75.64 122.89,80.54 108.51,87.4 C114.96,82.17 121.97,77.96 129.82,75.42 Z M75.94,115.01 C75.57,115.47 75.21,115.93 74.84,116.4 C69.79,122.78 64.57,129.37 59.25,135.24 C54.11,140.91 48.41,146.34 42.38,152.09 C41.94,152.51 41.51,152.92 41.07,153.34 C50.65,138.92 62.38,126.01 75.94,115.01 Z M6.75,211.37 C8.56,202.97 12.11,195.39 16.73,188.35 C15.19,192.6 13.8,196.92 12.57,201.32 C9.33,212.87 7.26,224.57 6.34,236.27 C5.05,228.02 4.95,219.71 6.75,211.37 Z M14.1,278.38 C14.33,278.95 14.56,279.51 14.79,280.08 C17.92,287.8 20.87,295.1 23.22,302.38 C25.65,309.92 27.69,318.08 29.67,325.97 C29.8,326.49 29.93,327 30.06,327.52 C22.24,311.83 16.9,295.29 14.1,278.38 Z M62.9,385.95 C56.77,380.39 52.11,373.65 48.38,366.19 C58.79,378.51 70.75,389.3 83.88,398.33 C76.08,395.39 68.98,391.47 62.9,385.95 Z M123.87,412.66 C124.36,412.74 124.86,412.81 125.35,412.88 C133.52,414.12 141.96,415.4 149.98,417.13 C157.99,418.86 166.22,421.17 174.17,423.4 C174.7,423.55 175.23,423.7 175.76,423.85 C157.79,422.78 140.31,418.95 123.87,412.66 Z M242.18,424.58 C236.35,426.46 230.15,427.38 223.23,427.38 C221.6,427.38 219.96,427.32 218.31,427.22 C233.89,424.37 249.09,419.47 263.46,412.62 C257.02,417.85 250.02,422.05 242.18,424.58 Z M296.04,385.02 C296.41,384.55 296.78,384.08 297.15,383.61 C302.2,377.23 307.42,370.64 312.74,364.77 C317.88,359.1 323.58,353.67 329.61,347.92 C330.05,347.5 330.5,347.07 330.94,346.65 C321.35,361.09 309.62,374.01 296.04,385.02 Z M365.24,288.64 C363.43,297.03 359.89,304.6 355.28,311.63 C356.81,307.39 358.2,303.08 359.43,298.7 C362.67,287.16 364.74,275.48 365.66,263.79 C366.94,272.02 367.04,280.31 365.24,288.64 Z"/>
      <path fill="#FFF" d="M88.83,222.51 L88.83,165.92 L117.2,165.92 L117.2,221.93 C117.2,236.47 124.54,243.39 135.78,243.39 C147.01,243.39 154.36,236.77 154.36,222.65 L154.36,165.92 L182.73,165.92 L182.73,221.79 C182.73,254.33 164.15,268.59 135.5,268.59 C106.85,268.59 88.83,254.04 88.83,222.51 Z"/>
      <path fill="#515254" fill-rule="nonzero" d="M135.48,270.58 C104.1,270.58 86.82,253.51 86.82,222.5 L86.82,165.91 C86.82,164.81 87.72,163.91 88.82,163.91 L117.19,163.91 C118.29,163.91 119.19,164.81 119.19,165.91 L119.19,221.92 C119.19,234.65 124.92,241.38 135.77,241.38 C146.61,241.38 152.35,234.9 152.35,222.64 L152.35,165.91 C152.35,164.81 153.25,163.91 154.35,163.91 L182.72,163.91 C183.82,163.91 184.72,164.81 184.72,165.91 L184.72,221.78 C184.71,253.25 167.23,270.58 135.48,270.58 Z M90.83,167.91 L90.83,222.5 C90.83,251.34 106.27,266.58 135.49,266.58 C165.08,266.58 180.72,251.09 180.72,221.78 L180.72,167.91 L156.35,167.91 L156.35,222.64 C156.35,237.09 148.85,245.38 135.77,245.38 C122.69,245.38 115.19,236.83 115.19,221.92 L115.19,167.91 L90.83,167.91 Z"/>
      <polygon fill="#FFF" points="221.32 215.45 188.2 165.92 220.31 165.92 238.17 194.29 256.17 165.92 287.56 165.92 254.44 215.17 289 266.71 256.89 266.71 237.59 236.33 218.15 266.71 186.76 266.71"/>
      <path fill="#515254" fill-rule="nonzero" d="M289,268.71 L256.89,268.71 C256.21,268.71 255.57,268.36 255.2,267.78 L237.59,240.05 L219.84,267.79 C219.47,268.36 218.84,268.71 218.16,268.71 L186.77,268.71 C186.03,268.71 185.35,268.3 185,267.65 C184.65,267 184.69,266.21 185.11,265.59 L218.92,215.44 L186.55,167.02 C186.14,166.41 186.1,165.62 186.45,164.97 C186.8,164.32 187.48,163.91 188.21,163.91 L220.32,163.91 C221.01,163.91 221.65,164.26 222.01,164.84 L238.18,190.53 L254.48,164.84 C254.85,164.26 255.48,163.91 256.17,163.91 L287.56,163.91 C288.3,163.91 288.98,164.32 289.33,164.97 C289.68,165.62 289.64,166.41 289.22,167.03 L256.85,215.16 L290.66,265.6 C291.07,266.21 291.11,267 290.76,267.65 C290.41,268.3 289.74,268.71 289,268.71 Z M257.99,264.71 L285.25,264.71 L252.78,216.27 C252.33,215.6 252.33,214.71 252.78,214.04 L283.8,167.91 L257.26,167.91 L239.85,195.35 C239.48,195.93 238.85,196.28 238.16,196.28 C238.16,196.28 238.16,196.28 238.16,196.28 C237.47,196.28 236.84,195.93 236.47,195.35 L219.2,167.92 L191.94,167.92 L222.98,214.34 C223.43,215.02 223.43,215.9 222.98,216.57 L190.52,264.71 L217.06,264.71 L235.91,235.25 C236.28,234.68 236.91,234.33 237.59,234.33 C237.59,234.33 237.59,234.33 237.59,234.33 C238.27,234.33 238.91,234.68 239.28,235.26 L257.99,264.71 Z"/>
      <path fill="#515254" d="M289.57,279.92 L187.31,279.92 C185.1,279.92 183.31,281.71 183.31,283.92 C183.31,286.13 185.1,287.92 187.31,287.92 L289.57,287.92 C291.78,287.92 293.57,286.13 293.57,283.92 C293.57,281.71 291.78,279.92 289.57,279.92 Z"/>
      <polygon fill="#515254" points="218.13 380.21 198.01 387.84 144.99 367.71 165.09 360.06"/>
      <path fill="#FFF" fill-rule="nonzero" d="M198.01,389.65 C197.79,389.65 197.57,389.61 197.37,389.53 L144.35,369.39 C143.65,369.12 143.18,368.45 143.18,367.7 C143.18,366.95 143.64,366.28 144.35,366.01 L164.46,358.37 C164.87,358.21 165.33,358.21 165.74,358.37 L218.78,378.51 C219.48,378.78 219.95,379.45 219.95,380.2 C219.95,380.95 219.49,381.62 218.78,381.89 L198.66,389.53 C198.45,389.61 198.23,389.65 198.01,389.65 Z M150.08,367.71 L198.01,385.92 L213.04,380.22 L165.09,362 L150.08,367.71 Z"/>
      <polygon fill="#FFCD03" points="164.95 360.12 144.85 367.76 132.66 363.13 152.77 355.49"/>
      <path fill="#FFF" fill-rule="nonzero" d="M144.85,369.56 C144.63,369.56 144.41,369.52 144.21,369.44 L132.02,364.82 C131.32,364.55 130.85,363.88 130.85,363.13 C130.85,362.38 131.31,361.71 132.02,361.44 L152.13,353.8 C152.54,353.64 153,353.64 153.41,353.8 L165.58,358.43 C166.28,358.7 166.75,359.37 166.75,360.12 C166.75,360.87 166.29,361.54 165.58,361.81 L145.48,369.44 C145.28,369.53 145.06,369.56 144.85,369.56 Z M137.75,363.13 L144.84,365.82 L159.85,360.12 L152.77,357.43 L137.75,363.13 Z"/>
      <polygon fill="#515254" points="174.28 387.89 154.17 380.25 207.19 360.11 227.31 367.75"/>
      <path fill="#FFF" fill-rule="nonzero" d="M174.28,389.7 C174.06,389.7 173.84,389.66 173.64,389.58 L153.53,381.94 C152.83,381.67 152.36,381 152.36,380.25 C152.36,379.5 152.82,378.83 153.53,378.56 L206.55,358.42 C206.96,358.26 207.42,358.26 207.83,358.42 L227.95,366.06 C228.65,366.33 229.12,367 229.12,367.75 C229.12,368.5 228.66,369.17 227.95,369.44 L174.92,389.58 C174.72,389.66 174.5,389.7 174.28,389.7 Z M159.26,380.25 L174.28,385.96 L222.22,367.75 L207.19,362.05 L159.26,380.25 Z"/>
      <polygon fill="#FFCD03" points="227.15 367.69 207.06 360.06 219.23 355.43 239.34 363.07"/>
      <path fill="#FFF" fill-rule="nonzero" d="M227.15,369.5 C226.93,369.5 226.71,369.46 226.51,369.38 L206.41,361.74 C205.71,361.47 205.24,360.8 205.24,360.05 C205.24,359.3 205.7,358.63 206.41,358.36 L218.59,353.73 C219,353.57 219.46,353.57 219.87,353.73 L239.98,361.37 C240.68,361.64 241.15,362.31 241.15,363.06 C241.15,363.81 240.69,364.48 239.98,364.75 L227.79,369.38 C227.59,369.46 227.37,369.5 227.15,369.5 Z M212.15,360.05 L227.16,365.75 L234.25,363.06 L219.24,357.36 L212.15,360.05 Z"/>
      <path fill="#FFCD03" d="M163.95,312.24 C157.77,307.61 160.23,302.26 161.86,299.86 C159.43,303.09 153.54,311.73 155.32,317.48 C155.72,320.11 157.99,322.12 160.72,322.12 C163.74,322.12 166.19,319.67 166.19,316.65 C166.2,314.84 165.31,313.24 163.95,312.24 Z"/>
      <path fill="#FFF" fill-rule="nonzero" d="M160.73,323.94 C157.23,323.94 154.18,321.37 153.57,317.93 C151.72,311.67 157.06,303.26 160.42,298.78 C161.01,298 162.12,297.83 162.92,298.39 C163.72,298.96 163.92,300.06 163.37,300.88 C160.78,304.69 161.35,308.03 165.05,310.8 C166.91,312.16 168.02,314.36 168.02,316.66 C168.01,320.67 164.74,323.94 160.73,323.94 Z M157.02,316.86 C157.06,316.97 157.09,317.09 157.11,317.22 C157.38,318.99 158.93,320.33 160.72,320.33 C162.74,320.33 164.38,318.69 164.38,316.66 C164.38,315.49 163.83,314.41 162.87,313.71 C160.79,312.16 159.39,310.35 158.69,308.39 C157.3,311.3 156.33,314.45 157.02,316.86 Z"/>
      <path fill="#FFCD03" d="M216.93,294.92 C223.11,290.29 220.65,284.94 219.02,282.54 C221.45,285.77 227.34,294.41 225.56,300.16 C225.16,302.79 222.9,304.8 220.16,304.8 C217.14,304.8 214.69,302.35 214.69,299.33 C214.69,297.52 215.58,295.92 216.93,294.92 Z"/>
      <path fill="#FFF" fill-rule="nonzero" d="M220.16,306.61 C216.15,306.61 212.88,303.35 212.88,299.33 C212.88,297.03 213.99,294.83 215.86,293.46 C219.55,290.7 220.11,287.36 217.53,283.55 C216.98,282.74 217.18,281.63 217.98,281.06 C218.78,280.49 219.88,280.66 220.48,281.44 C223.84,285.91 229.19,294.33 227.33,300.59 C226.71,304.1 223.72,306.61 220.16,306.61 Z M222.19,291.06 C221.49,293.01 220.09,294.82 218.02,296.37 C217.05,297.08 216.5,298.16 216.5,299.34 C216.5,301.36 218.14,303 220.16,303 C221.98,303 223.5,301.69 223.78,299.89 C223.8,299.77 223.83,299.65 223.87,299.53 C224.56,297.13 223.59,293.97 222.19,291.06 Z"/>
      <path fill="#FFCD03" fill-rule="nonzero" d="M214.39,317.44 C210.71,311.68 206.11,306.59 201.39,302.06 C204.57,296.23 206.59,291.37 206.59,291.37 C214.94,271.66 205.73,248.91 186.02,240.56 C198.69,245.93 205.04,261.42 199.24,273.22 C197.14,277.5 192.4,283.42 187,289.52 C183.28,286.39 180.13,283.64 178.13,281.17 C171.6,273.11 177.13,261.58 177.13,261.58 C177.13,261.58 168.61,264.91 166.74,277.56 C165.98,282.68 170.13,291.76 176.02,301.37 C170.05,307.62 164.86,312.9 163.07,315.24 C158.58,321.1 153.84,329.31 153.84,338.22 C153.84,356.57 168.72,371.45 187.06,371.45 C205.41,371.45 220.29,356.58 220.29,338.22 C220.29,331.31 217.89,324.1 214.39,317.44 Z M187.06,348.97 C177.59,339.49 182.63,328.44 188.69,320.15 C194.89,330.1 196.84,339.2 187.06,348.97 Z"/>
      <path fill="#FFF" fill-rule="nonzero" d="M187.06,373.26 C167.74,373.26 152.03,357.54 152.03,338.23 C152.03,330.58 155.26,322.47 161.64,314.15 C163.11,312.23 166.62,308.58 171.06,303.95 C171.93,303.04 172.84,302.1 173.76,301.13 C167.2,290.2 164.24,282.19 164.96,277.3 C166.96,263.77 176.1,260.06 176.48,259.91 C177.17,259.64 177.96,259.82 178.46,260.36 C178.97,260.9 179.09,261.7 178.76,262.37 C178.71,262.47 173.81,272.98 179.53,280.04 C181.13,282.01 183.52,284.21 186.81,287 C192.42,280.57 195.97,275.8 197.62,272.43 C200.08,267.42 200.26,261.52 198.14,255.81 C195.85,249.65 191.17,244.7 185.32,242.23 C184.4,241.84 183.97,240.78 184.36,239.86 C184.75,238.94 185.81,238.51 186.73,238.9 C186.74,238.9 186.75,238.91 186.75,238.91 C196.72,243.14 204.44,250.99 208.5,261.03 C212.57,271.07 212.48,282.1 208.25,292.08 C208.18,292.26 206.43,296.43 203.62,301.72 C208.77,306.77 212.8,311.61 215.9,316.47 C215.93,316.51 215.95,316.56 215.98,316.6 C220.03,324.32 222.08,331.59 222.08,338.23 C222.1,357.54 206.38,373.26 187.06,373.26 Z M173.71,266.31 C171.63,268.51 169.38,272.13 168.53,277.83 C167.93,281.91 171.13,289.93 177.56,300.43 C177.99,301.13 177.89,302.03 177.33,302.62 C176.06,303.95 174.83,305.23 173.66,306.45 C169.47,310.81 165.86,314.58 164.51,316.34 C158.63,324.02 155.65,331.39 155.65,338.23 C155.65,355.55 169.74,369.65 187.07,369.65 C204.39,369.65 218.49,355.56 218.49,338.23 C218.49,332.21 216.59,325.52 212.84,318.35 C209.7,313.45 205.55,308.54 200.15,303.37 C199.56,302.81 199.42,301.92 199.82,301.2 C202.92,295.52 204.92,290.73 204.94,290.68 C208.79,281.58 208.88,271.54 205.17,262.39 C204.35,260.35 203.36,258.42 202.22,256.59 C203.95,262.6 203.5,268.71 200.89,274.02 C198.98,277.91 194.89,283.38 188.37,290.72 C187.72,291.45 186.6,291.54 185.85,290.9 C181.7,287.42 178.73,284.76 176.74,282.31 C172.51,277.11 172.75,270.75 173.71,266.31 Z M187.06,350.78 C186.58,350.78 186.12,350.59 185.78,350.25 C177.6,342.07 178.09,331.58 187.23,319.09 C187.58,318.61 188.18,318.32 188.76,318.35 C189.36,318.37 189.91,318.69 190.23,319.2 C195.77,328.08 199.87,338.72 188.34,350.25 C188,350.59 187.54,350.78 187.06,350.78 Z M188.57,323.5 C182.53,332.71 182.04,340.21 187.08,346.32 C194.05,338.48 192.97,331.37 188.57,323.5 Z"/>
      <path fill="#FFCD03" d="M178.81,245.13 C172.63,240.5 175.09,235.15 176.72,232.75 C174.29,235.98 168.4,244.62 170.18,250.37 C170.58,253 172.84,255.01 175.58,255.01 C178.6,255.01 181.05,252.56 181.05,249.54 C181.06,247.73 180.17,246.12 178.81,245.13 Z"/>
      <path fill="#FFF" fill-rule="nonzero" d="M175.59,256.82 C172.03,256.82 169.04,254.3 168.43,250.81 C166.57,244.54 171.92,236.13 175.28,231.66 C175.87,230.88 176.98,230.71 177.78,231.28 C178.58,231.85 178.78,232.95 178.23,233.77 C175.65,237.58 176.21,240.92 179.91,243.69 C181.76,245.05 182.88,247.24 182.88,249.55 C182.86,253.55 179.6,256.82 175.59,256.82 Z M171.88,249.74 C171.92,249.85 171.95,249.97 171.97,250.1 C172.24,251.87 173.79,253.21 175.58,253.21 C177.6,253.21 179.24,251.57 179.24,249.55 C179.24,248.38 178.69,247.3 177.73,246.6 C175.66,245.05 174.26,243.24 173.56,241.29 C172.06,244.44 171.24,247.51 171.88,249.74 Z"/>
      <path fill="#515254" d="M181.06,143.33 L85.8,143.33 C83.59,143.33 81.8,145.12 81.8,147.33 C81.8,149.54 83.59,151.33 85.8,151.33 L181.05,151.33 C183.26,151.33 185.05,149.54 185.05,147.33 C185.05,145.12 183.27,143.33 181.06,143.33 Z"/>
    </g>
    <g transform="translate(385 239)">
      <path fill="#FF7BAC" d="M155,139 C127.88,118.89 100.75,130.51 73.63,140.48 C49.17,149.47 24.72,157.13 0.26,139 C0.26,117.76 0.26,96.52 0.26,75.28 C0.26,54.04 0.26,32.8 0.26,11.56 C24.72,29.69 49.17,22.03 73.63,13.04 C100.75,3.07 127.88,-8.54 155,11.56 C155,32.8 155,54.04 155,75.28 C155,96.52 155,117.76 155,139 Z"/>
      <g fill="#FFF" stroke="#FFF" stroke-width="1.961" transform="translate(19 32)">
        <path fill-rule="nonzero" d="M4.09 39.6C2.21 37.37 1.46 34.85 2.02 32.31 2.11 31.91 2.4 31.6 2.63 31.27 2.77 31.02 3.24 31.02 3.57 31.22 3.85 31.37 4.04 31.68 4.04 31.92 4.04 32.44 3.99 32.99 3.95 33.5 3.71 35.85 4.7 37.85 6.63 39.38 8.94 41.19 11.38 41.35 13.88 40.56 15.62 39.95 17.03 38.8 18.07 37.18 18.45 36.68 18.73 36.05 18.92 35.47 19.44 33.92 19.16 32.59 17.98 31.58 17.51 31.14 16.9 30.75 16.29 30.4 15.54 29.96 14.69 29.65 13.89 29.27 13.09 28.85 12.29 28.45 11.54 27.95 9.7 26.7 8.48 24.96 8.25 22.73 8.22 22.55 8.19 22.38 8.16 22.2 8.11 21.44 7.78 20.8 7.27 20.22 6.89 19.75 6.52 19.33 6.14 18.9 5.2 17.64 4.54 16.3 4.26 14.79 4.21 14.45 4.21 14.08 4.31 13.76 4.36 13.53 4.59 13.39 4.83 13.28 5.11 13.14 5.63 13.41 5.77 13.71 6.01 14.31 6.24 14.95 6.52 15.56 6.8 16.26 7.13 16.91 7.6 17.48 8.12 18.06 8.87 18.18 9.29 17.74 9.76 17.21 10.18 16.68 10.61 16.14 11.88 14.66 13.43 13.53 15.27 12.69 16.26 12.2 17.29 11.92 18.38 11.75 19.7 11.56 20.87 11.68 22 12.2 24.07 13.16 24.64 15.36 23.37 17.58 22.85 18.5 22.15 19.3 21.39 19.95 19.6 21.52 17.58 22.38 15.41 22.57 14.7 22.63 13.95 22.59 13.24 22.58 12.63 22.57 11.97 22.55 11.36 22.53 10.89 22.56 10.47 23.24 10.65 23.72 10.79 24.15 10.98 24.59 11.21 24.93 11.78 25.71 12.53 26.25 13.33 26.69 14.27 27.17 15.26 27.58 16.2 28.06 17.14 28.54 18.13 28.96 18.98 29.55 21.19 31.15 21.85 33.64 20.77 36.4 19.45 39.59 17.05 41.8 13.9 42.74 12.39 43.16 10.89 43.15 9.34 42.84 7.29 42.42 5.55 41.33 4.09 39.6zM18.82 19.34C19.76 18.8 20.61 18.1 21.31 17.13 22.25 15.8 21.87 14.39 20.46 13.97 20.04 13.82 19.61 13.77 19.14 13.76 18.62 13.76 18.1 13.84 17.59 14.01 14.91 14.78 12.93 16.29 11.52 18.49 11.43 18.68 11.38 18.81 11.33 19 11.19 19.37 11.47 19.95 11.8 20.15 12.55 20.55 13.35 20.62 14.2 20.61 15.81 20.6 17.36 20.2 18.82 19.34zM19.09 51.27C19.04 50.99 19 50.71 19.04 50.47 19.18 49.85 19.32 49.22 19.51 48.6 21.53 40.71 23.6 32.77 25.68 24.7 25.92 23.86 26.15 23.07 26.43 22.26 26.62 21.71 27.28 21.26 27.75 21.4 28.79 21.67 29.82 21.45 30.9 20.97 31.51 20.74 32.17 20.58 32.78 20.48 35.09 20.15 36.73 21.41 36.78 23.7 36.78 24.5 36.69 25.33 36.5 26.18 36.17 27.73 35.7 29.32 35.32 30.93 35.18 31.58 35.04 32.23 34.99 32.85 34.9 34.57 36.12 35.47 37.81 34.89 39.46 34.32 40.73 33.12 41.72 31.58 42.05 31.05 42.33 30.49 42.61 29.98 42.8 29.68 42.94 29.4 43.13 29.2 43.37 28.98 43.65 28.84 43.88 28.76 44.16 28.67 44.54 29.01 44.54 29.3 44.54 29.49 44.54 29.68 44.49 29.83 43.6 33.05 40.58 36.21 37.57 37.03 36.77 37.26 35.97 37.34 35.26 37.16 34.79 37 34.32 36.8 33.85 36.68 33.38 36.47 32.86 36.55 32.34 36.96 31.82 37.32 31.4 37.7 30.88 38.05 29.37 39.1 27.82 39.65 26.22 39.51 25.75 39.45 25.33 39.43 24.9 39.45 24.52 39.46 24.15 39.71 23.96 40.02 23.72 40.53 23.49 41.08 23.35 41.61 22.69 44.01 22.08 46.44 21.47 48.86 21.28 49.45 21.14 50.07 20.91 50.71 20.86 50.95 20.67 51.21 20.53 51.41 20.34 51.71 19.92 51.89 19.59 51.78 19.32 51.72 19.18 51.5 19.09 51.27zM30.43 36.05C31.79 34.9 32.64 33.46 33.11 31.84 33.58 29.89 34.1 27.92 34.57 26.01 34.66 25.56 34.71 25.08 34.71 24.61 34.76 23.18 33.67 22.35 32.22 22.65 31.37 22.81 30.62 23.17 29.91 23.74 28.4 24.87 27.37 26.28 26.9 27.97 26.33 30 25.86 31.97 25.35 33.98 25.3 34.32 25.26 34.7 25.26 35.03 25.17 36.64 26.3 37.64 27.71 37.37 28.78 37.16 29.63 36.7 30.43 36.05z"/>
        <path d="M50.04,28.86 C49.99,27.98 50.09,27.06 50.09,26.16 C50.09,25.5 49.9,25.01 49.48,24.68 C48.73,24.15 48.02,23.6 47.27,23.1 C46.89,22.81 46.14,23.3 45.95,23.93 C45.67,24.87 45.24,26.38 45.01,27.31 C44.87,28.21 44.63,28.94 44.3,29.95 C44.06,30.5 43.92,30.69 43.74,30.98 C43.46,31.4 42.7,31.46 42.56,31.13 C42.51,31 42.42,30.85 42.42,30.66 C42.47,30.22 42.51,29.83 42.7,29.25 C43.74,26 44.39,22.06 45.24,18.76 C45.38,18.19 45.62,17.6 45.8,17.06 C46.04,16.42 46.65,15.88 47.12,15.86 C47.59,15.84 47.83,16.13 47.92,16.57 C48.01,17.15 48.01,17.76 48.15,18.32 C48.25,18.99 48.43,19.63 48.62,20.27 C48.9,21.02 49.37,21.6 50.03,22.03 C50.45,22.3 50.92,22.56 51.35,22.87 C51.87,23.25 52.15,23.8 52.15,24.51 C52.2,25.01 52.15,25.59 52.15,26.16 C52.15,28.18 52.29,30.39 54.97,29.22 C56.52,28.55 57.7,27.22 58.69,25.73 C59.35,24.83 59.63,24.16 59.96,23.47 C60.15,23.12 60.34,22.72 60.62,22.38 C60.81,22.17 61.09,22.02 61.37,21.91 C61.61,21.82 61.98,22.2 61.98,22.48 C61.93,22.78 61.93,23.06 61.84,23.33 C60.76,26.32 58.5,29.37 55.77,30.94 C55.3,31.21 54.88,31.36 54.4,31.49 C51.93,32.33 50.23,31.28 50.04,28.86 Z"/>
        <path fill-rule="nonzero" d="M59.86,24.32 C59.91,23.69 60.05,22.98 60.19,22.36 C60.99,18.91 61.84,15.49 62.68,12.08 C62.82,11.51 63.1,10.94 63.39,10.36 C63.53,9.98 64.1,9.63 64.33,9.78 C64.47,9.92 64.71,10.02 64.75,10.24 C64.94,10.78 64.75,11.46 64.56,12.14 C63.9,14.91 63.24,17.67 62.58,20.44 C62.39,21.07 62.25,21.74 62.11,22.4 C62.02,22.81 61.92,23.18 61.92,23.55 C61.73,25.41 63.05,26.24 64.88,25.43 C66.39,24.74 67.61,23.55 68.55,22.09 C68.97,21.47 69.26,20.81 69.63,20.16 C69.77,19.88 70.01,19.65 70.19,19.4 C70.47,19.02 71.23,19 71.27,19.36 C71.36,19.66 71.41,20.07 71.32,20.38 C70.66,22.91 67.79,26.48 64.5,27.64 C61.6,28.7 59.67,27.31 59.86,24.32 Z M64.1,7.51 C64.05,6.68 64.24,5.91 64.71,5.08 C64.9,4.73 65.32,4.43 65.65,4.41 C65.93,4.4 66.21,4.72 66.26,4.99 C66.26,5.79 66.07,6.56 65.6,7.39 C65.55,7.5 65.51,7.61 65.41,7.65 C65.27,7.8 65.08,7.91 64.94,8.01 C64.57,8.19 64.1,7.89 64.1,7.51 Z"/>
        <path d="M68.64,25.36 C68.64,25.08 68.64,24.8 68.69,24.54 C70.01,19.14 71.33,13.32 72.64,7.98 C72.74,7.67 72.88,7.38 73.02,7.1 C73.16,6.72 73.82,6.22 74.15,6.16 C74.4,6.17 74.65,6.19 74.9,6.2 C75.42,6.22 75.94,6.11 76.5,5.84 C76.85,5.67 77.19,5.5 77.54,5.33 C78.01,5.14 78.43,4.97 78.9,4.87 C81.58,4.17 83.37,5.66 83.32,8.82 C83.18,9.5 83.04,10.18 82.9,10.86 C82.52,12.42 82.1,14.04 81.77,15.58 C81.58,16.24 81.49,16.88 81.49,17.49 C81.49,18.71 82.43,19.44 83.65,19.32 C84.36,19.23 85.06,19.01 85.77,18.57 C86.85,17.89 87.75,16.95 88.45,15.86 C88.81,15.27 89.17,14.68 89.53,14.09 C89.72,13.82 90.24,13.58 90.52,13.67 C90.8,13.76 91.04,14.14 90.99,14.48 C90.94,14.72 90.94,15.01 90.85,15.3 C89.77,17.94 87.84,19.81 85.2,20.95 C84.63,21.23 83.98,21.39 83.37,21.45 C81.16,21.78 79.56,20.61 79.46,18.43 C79.41,17.64 79.51,16.77 79.7,15.96 C80.03,14.36 80.45,12.78 80.83,11.22 C81.02,10.46 81.16,9.72 81.21,9 C81.35,7.41 80.17,6.5 78.57,7.03 C78.05,7.18 77.49,7.45 77.02,7.78 C75.42,8.84 74.29,10.34 73.63,12.11 C73.35,12.96 73.16,13.82 72.92,14.65 C72.26,17.41 71.6,20.55 70.9,23.29 C70.71,23.97 70.43,24.63 70.19,25.27 C70.05,25.6 69.58,25.91 69.25,25.93 C68.97,26 68.64,25.69 68.64,25.36 Z"/>
        <path fill-rule="nonzero" d="M86.04 27.32C86.09 27.07 86.23 26.76 86.42 26.57 86.56 26.35 86.89 26.18 87.13 26.13 87.37 26.13 87.65 26.3 87.69 26.48 87.88 27.05 87.93 27.65 88.11 28.23 88.35 29.26 89.1 29.67 90.18 29.7 90.79 29.68 91.4 29.48 92.01 29.19 93.42 28.49 94.55 27.45 95.26 26.04 96.15 24.05 96.67 22.02 96.91 19.93 97 19.5 96.53 19.07 96.16 19.11 95.8 19.15 95.44 19.19 95.08 19.24 94.51 19.36 94 19.52 93.48 19.55 90.75 19.86 89.01 18.31 89.06 15.28 89.11 14.94 89.2 14.31 89.34 13.67 89.81 11.74 90.28 9.82 90.8 7.94 91.18 6.56 91.79 5.27 92.78 4.13 94.76 1.85 97.11.66 99.89 1.35 100.78 1.54 101.63 1.6 102.43 1.07 102.52 1.02 102.62 1.02 102.71.97 103.23.82 103.84 1.35 103.79 1.86 103.74 2.47 103.65 3.13 103.51 3.69 102.95 5.95 102.33 8.21 101.72 10.49 101.53 11.3 101.3 12.05 101.11 12.86 101.02 13.29 100.97 13.76 100.97 14.18 100.92 15.74 102.1 16.86 103.7 16.82 105.3 16.78 106.57 16.05 107.61 14.91 108.03 14.47 108.32 13.93 108.65 13.44 108.84 13.27 109.03 13.05 109.21 12.98 109.45 12.86 109.77 12.85 109.96 12.97 110.15 13.09 110.38 13.4 110.43 13.64 110.48 13.97 110.48 14.35 110.34 14.66 109.21 17.11 107.24 18.39 104.51 18.85 103.76 18.98 103.05 18.93 102.34 18.8 101.82 18.67 101.3 18.49 100.79 18.37 100.32 18.29 99.71 18.66 99.52 19.19 99.28 19.72 99.14 20.2 99 20.73 98.67 21.88 98.39 23.03 98.06 24.19 97.87 24.82 97.73 25.44 97.45 26.03 96.6 28.18 95.05 29.79 92.93 30.91 91.99 31.43 91.05 31.68 90.01 31.78 87.31 32.09 85.52 30.18 86.04 27.32zM95.73 16.77C97.33 15.83 98.46 14.48 98.93 12.71 99.49 10.79 99.97 8.88 100.48 6.93 100.57 6.5 100.57 6.03 100.62 5.84 100.57 4.24 99.58 3.24 98.27 3.25 97.61 3.25 97 3.36 96.39 3.66 94.74 4.49 93.52 5.85 92.95 7.68 92.29 9.9 91.77 12.15 91.21 14.41 91.12 14.71 91.16 14.98 91.12 15.23 91.12 16.69 92.16 17.63 93.61 17.47 94.37 17.41 95.07 17.18 95.73 16.77zM1 83.77C.62 81.18 1 78.93 2.22 77 3.02 75.62 4.15 74.63 5.7 74.02 6.27 73.82 6.83 73.61 7.35 73.35 7.63 73.15 7.77 72.83 7.77 72.46 7.77 72.27 7.77 72.08 7.68 71.93 7.3 70.66 6.97 69.45 6.83 68.16 6.73 67.49 6.41 66.93 5.94 66.39 5.47 65.9 5 65.4 4.58 64.9 3.5 63.58 2.7 62.14 2.32 60.55 2.27 60.21 2.27 59.79 2.37 59.48 2.46 59.31 2.7 59.13 2.93 59.08 3.12 59.07 3.49 59.24 3.64 59.41 3.92 59.7 4.06 60.05 4.25 60.42 4.63 61.19 4.96 62 5.38 62.73 5.62 63.14 5.99 63.48 6.37 63.82 6.65 64.1 7.36 64.14 7.59 63.83 8.01 63.31 8.39 62.74 8.81 62.21 9.89 60.8 11.21 59.71 12.86 58.95 14.18 58.36 15.59 58.01 17.05 58.04 18.13 58.03 19.17 58.24 20.11 58.71 22.37 59.84 22.89 62.25 21.38 64.55 20.67 65.62 19.78 66.46 18.79 67.15 17.14 68.26 15.31 68.81 13.43 68.84 13.05 68.84 12.68 68.83 12.3 68.82 11.55 68.75 10.98 68.72 10.46 68.69 9.52 68.58 9.05 69.29 9.33 70.26 9.8 71.85 10.74 73.05 12.11 73.9 12.67 74.2 13.29 74.4 13.85 74.68 14.18 74.82 14.46 75.01 14.79 75.15 15.07 75.33 15.26 75.85 15.07 76.09 14.93 76.33 14.69 76.52 14.5 76.62 14.17 76.67 13.75 76.72 13.42 76.62 12.65 76.41 11.88 76.18 11.11 75.94 8.33 75.1 6.12 75.73 4.52 77.71 2.83 79.71 2.4 82.19 3.34 85.16 4.09 87.47 5.55 89.22 7.81 90.08 8.33 90.28 8.85 90.47 9.41 90.56 11.67 90.97 13.88 90.73 16 89.81 17.41 89.2 18.68 88.26 19.76 87.03 20.18 86.52 20.61 86.06 21.08 85.58 21.32 85.37 21.88 85.3 22.07 85.56 22.21 85.73 22.35 86 22.31 86.24 22.31 86.57 22.17 86.96 21.98 87.27 21.23 88.49 20.24 89.54 19.06 90.34 15.58 92.83 11.72 93.48 7.72 92.19 4.06 90.95 1.61 87.63 1 83.77zM18.22 65.01C18.83 64.59 19.35 64.03 19.73 63.39 20.34 62.34 20.11 61.19 19.12 60.66 18.74 60.46 18.32 60.3 17.9 60.18 17.1 59.99 16.3 60.03 15.5 60.24 13.81 60.61 12.35 61.43 11.22 62.69 10.75 63.23 10.37 63.77 10 64.36 9.48 65.26 9.86 66.24 10.85 66.48 11.46 66.65 12.07 66.77 12.5 66.83 14.69 66.84 16.58 66.34 18.22 65.01zM34.79 86.21C34.37 86.09 34.04 85.94 33.61 85.81 33.09 85.66 32.57 85.79 32.06 86.19 31.5 86.56 30.98 87.01 30.41 87.37 29.33 88.13 28.15 88.51 26.98 88.59 24.72 88.72 23.12 87.14 23.03 84.85 23.03 84.33 23.08 83.76 23.22 83.22 23.74 80.98 24.3 78.74 24.96 76.47 25.48 74.6 26.56 73.06 28.11 71.72 29.76 70.31 31.55 69.49 33.48 69.47 33.86 69.47 34.19 69.52 34.52 69.49 35.37 69.46 35.93 68.97 36.17 68.1 36.45 67.27 36.64 66.42 36.88 65.6 37.35 63.74 37.82 61.88 38.29 60.02 38.43 59.55 38.67 59.06 38.85 58.63 39.04 58.34 39.56 57.99 39.84 58.1 40.03 58.23 40.22 58.36 40.31 58.57 40.4 58.78 40.4 59.06 40.31 59.37 40.17 60.21 39.98 61.02 39.75 61.9 38.34 67.7 36.88 73.43 35.47 79.18 35.24 80.14 35 81.05 34.86 81.98 34.62 83.5 35.57 84.43 37.07 84.15 38.67 83.88 40.08 82.04 41.26 80.59 41.64 80.1 41.92 79.54 42.25 79.01 42.48 78.7 42.72 78.29 43 78.01 43.19 77.81 43.52 77.65 43.75 77.67 43.94 77.7 44.13 77.87 44.22 78.08 44.27 78.3 44.27 78.63 44.17 78.9 43.98 79.43 43.75 80.03 43.42 80.56 41.96 82.92 39.98 85.33 38.1 85.98 36.62 86.38 35.68 86.44 34.79 86.21zM29.85 85.48C31.26 84.47 32.34 83.12 32.81 81.5 33.47 79.17 33.99 76.87 34.55 74.61 34.6 74.32 34.6 74.03 34.64 73.79 34.69 72.22 33.51 71.36 32.1 71.7 31.11 71.98 30.36 72.34 29.65 72.92 28.43 73.84 27.49 75.01 27.06 76.4 26.35 78.79 25.79 81.24 25.13 83.65 25.08 83.85 25.13 84.03 25.13 84.21 25.08 85.72 26.21 86.72 27.81 86.41 28.53 86.27 29.23 85.94 29.85 85.48z"/>
        <path fill-rule="nonzero" d="M42.35,79.56 C42.4,78.93 42.54,78.23 42.68,77.62 C43.48,74.21 44.33,70.82 45.17,67.43 C45.31,66.86 45.59,66.3 45.88,65.73 C46.02,65.35 46.59,65.02 46.82,65.17 C46.96,65.31 47.2,65.42 47.24,65.64 C47.43,66.19 47.24,66.86 47.05,67.54 C46.39,70.29 45.73,73.04 45.07,75.79 C44.88,76.42 44.74,77.08 44.6,77.74 C44.51,78.15 44.41,78.51 44.41,78.88 C44.22,80.73 45.54,81.61 47.37,80.84 C48.88,80.18 50.1,78.98 51.04,77.52 C51.46,76.9 51.75,76.23 52.12,75.58 C52.26,75.29 52.5,75.07 52.68,74.81 C52.96,74.43 53.72,74.39 53.76,74.74 C53.85,75.04 53.9,75.44 53.81,75.76 C53.15,78.31 50.28,81.95 46.99,83.05 C44.09,84.04 42.17,82.53 42.35,79.56 Z M46.59,62.9 C46.54,62.07 46.73,61.3 47.2,60.48 C47.39,60.13 47.81,59.84 48.14,59.82 C48.42,59.81 48.7,60.14 48.75,60.4 C48.75,61.2 48.56,61.97 48.09,62.8 C48.04,62.91 48,63.02 47.9,63.05 C47.76,63.19 47.57,63.31 47.43,63.4 C47.06,63.58 46.59,63.28 46.59,62.9 Z"/>
        <path d="M52.15,76.13 C52.2,75.55 52.29,75 52.43,74.43 C53.89,68.44 55.35,62.49 56.85,56.48 C56.94,55.93 57.23,55.35 57.56,54.81 C57.65,54.59 58.03,54.35 58.27,54.31 C58.51,54.27 58.74,54.42 58.83,54.62 C58.97,54.76 58.97,55.08 58.92,55.34 C58.87,55.88 58.73,56.44 58.59,57.06 C58.54,57.5 58.45,57.96 58.4,58.45 C58.31,59 58.73,59.41 59.25,59.31 C59.58,59.28 59.96,59.14 60.29,59.12 C60.67,59.03 61,58.95 61.33,58.93 C61.66,58.86 61.94,59.17 61.99,59.49 C61.99,59.77 61.71,60.35 61.38,60.52 C60.96,60.72 60.53,60.97 60.06,61.2 C59.64,61.4 59.17,61.58 58.74,61.78 C57.94,62.12 57.42,62.69 57.09,63.57 C57,63.86 56.9,64.14 56.81,64.43 C56.06,67.63 55.26,70.89 54.46,74.1 C54.37,74.56 54.27,75.06 54.27,75.49 C54.08,77.39 55.4,78.18 57.23,77.31 C58.64,76.69 59.77,75.57 60.71,74.18 C61.13,73.6 61.42,72.93 61.79,72.27 C62.03,71.9 62.21,71.55 62.5,71.26 C62.69,71.05 63.02,70.93 63.25,70.94 C63.44,70.92 63.63,71.13 63.72,71.33 C63.77,71.55 63.77,71.83 63.67,72.1 C62.73,75.27 59.91,78.38 56.94,79.53 C53.93,80.66 51.91,79.23 52.15,76.13 Z"/>
        <path fill-rule="nonzero" d="M62.04,72.53 C62.09,71.9 62.23,71.19 62.37,70.57 C63.17,67.12 64.02,63.71 64.86,60.29 C65,59.72 65.28,59.15 65.57,58.58 C65.71,58.2 66.28,57.86 66.51,58.01 C66.65,58.15 66.89,58.25 66.93,58.47 C67.12,59.01 66.93,59.69 66.74,60.37 C66.08,63.13 65.42,65.9 64.76,68.66 C64.57,69.29 64.43,69.96 64.29,70.62 C64.2,71.03 64.1,71.39 64.1,71.77 C63.91,73.63 65.23,74.46 67.06,73.66 C68.57,72.98 69.79,71.8 70.73,70.35 C71.15,69.73 71.44,69.07 71.81,68.43 C71.95,68.15 72.19,67.93 72.37,67.68 C72.65,67.3 73.41,67.29 73.45,67.65 C73.54,67.95 73.59,68.36 73.5,68.67 C72.84,71.19 69.97,74.73 66.68,75.87 C63.78,76.92 61.85,75.52 62.04,72.53 Z M66.28,55.74 C66.23,54.91 66.42,54.14 66.89,53.31 C67.08,52.96 67.5,52.67 67.83,52.65 C68.11,52.64 68.39,52.97 68.44,53.23 C68.44,54.03 68.25,54.8 67.78,55.63 C67.73,55.74 67.69,55.85 67.59,55.89 C67.45,56.03 67.26,56.15 67.12,56.25 C66.75,56.42 66.28,56.11 66.28,55.74 Z"/>
        <path fill-rule="nonzero" d="M77,72.54 C74.41,73.2 72.2,72.96 71.73,70.34 C71.64,69.57 71.68,68.71 71.87,67.89 C72.43,65.63 72.95,63.34 73.56,61.07 C74.22,58.69 75.63,56.67 77.65,55.07 C78.92,54.07 80.19,53.47 81.56,53.33 C83.68,53.08 85.14,54.3 85.32,56.37 C85.37,57.06 85.32,57.78 85.13,58.53 C84.47,61.28 83.95,64.04 82.92,66.8 C82.84,67.09 82.76,67.37 82.68,67.66 C82.63,67.95 82.92,68.4 83.2,68.37 C83.58,68.32 83.91,68.28 84.28,68.19 C86.21,67.48 87.86,66.23 89.13,64.47 C89.55,63.92 89.93,63.37 90.35,62.87 C90.49,62.7 90.87,62.59 91.1,62.64 C91.29,62.7 91.52,62.94 91.57,63.12 C91.62,63.44 91.57,63.87 91.43,64.18 C91.05,65.19 90.39,66.05 89.64,66.81 C86.91,69.58 83.19,70.8 79.66,71.78 C78.79,72.05 77.9,72.27 77,72.54 Z M78.75,69.24 C80.11,68.04 81.1,66.64 81.57,64.96 C82.14,62.83 82.65,60.72 83.17,58.56 C83.26,58.21 83.26,57.83 83.26,57.5 C83.26,56.04 82.22,55.22 80.77,55.54 C79.83,55.8 78.98,56.29 78.18,57 C76.81,58.21 75.87,59.69 75.45,61.37 C74.93,63.43 74.41,65.5 73.9,67.57 C73.85,67.91 73.81,68.31 73.81,68.68 C73.72,70.26 74.85,71.07 76.45,70.57 C77.24,70.35 78.04,69.87 78.75,69.24 Z"/>
        <path d="M88.94,68.52 C88.94,68.24 88.94,67.95 88.99,67.71 C90.31,62.51 91.63,56.91 92.94,51.81 C93.03,51.51 93.18,51.26 93.32,51 C93.46,50.65 94.12,50.27 94.45,50.28 C94.7,50.34 94.95,50.4 95.2,50.47 C95.72,50.6 96.24,50.58 96.8,50.43 C97.15,50.33 97.49,50.24 97.84,50.15 C98.31,50.06 98.73,49.98 99.2,50 C101.88,49.92 103.67,51.9 103.62,55.04 C103.48,55.68 103.34,56.33 103.2,56.97 C102.82,58.43 102.4,59.94 102.07,61.41 C101.88,62.03 101.79,62.64 101.79,63.25 C101.79,64.47 102.73,65.43 103.95,65.63 C104.66,65.73 105.36,65.71 106.07,65.46 C107.15,65.09 108.05,64.41 108.75,63.53 C109.11,63.05 109.47,62.57 109.83,62.09 C110.02,61.88 110.54,61.8 110.82,61.98 C111.1,62.16 111.34,62.62 111.29,62.94 C111.24,63.17 111.24,63.45 111.15,63.72 C110.07,66.01 108.14,67.27 105.5,67.69 C104.94,67.81 104.28,67.8 103.67,67.7 C101.46,67.45 99.86,65.92 99.76,63.71 C99.71,62.91 99.81,62.06 100,61.3 C100.33,59.78 100.75,58.3 101.13,56.83 C101.32,56.12 101.46,55.41 101.51,54.7 C101.65,53.14 100.47,51.94 98.87,52.1 C98.35,52.14 97.79,52.28 97.32,52.51 C95.72,53.22 94.59,54.51 93.93,56.15 C93.65,56.94 93.46,57.77 93.22,58.56 C92.56,61.2 91.9,64.22 91.2,66.84 C91.01,67.48 90.73,68.1 90.49,68.71 C90.35,69.02 89.88,69.25 89.55,69.22 C89.27,69.2 88.94,68.85 88.94,68.52 Z"/>
      </g>
    </g>
  </g>
</svg>
