<?xml version="1.0" encoding="utf-8"?>
<!-- Generator: Adobe Illustrator 24.1.0, SVG Export Plug-In . SVG Version: 6.00 Build 0)  -->
<svg version="1.1" id="Layer_1" xmlns="http://www.w3.org/2000/svg" xmlns:xlink="http://www.w3.org/1999/xlink" x="0px" y="0px"
	 viewBox="0 0 1000 1000" style="enable-background:new 0 0 1000 1000;" xml:space="preserve">
<style type="text/css">
	.st0{fill:#FF0000;}
	.st1{fill:#B3DDF2;}
	.st2{fill:#4D4D4D;}
</style>
<g>
	<g>
		<polygon class="st0" points="679.59,100.55 684.46,120.32 704.88,114.01 689.33,128.95 704.88,143.9 684.46,137.58 679.59,157.36 
			674.72,137.58 654.29,143.9 669.85,128.95 654.29,114.01 674.72,120.32 		"/>
		<rect x="656.93" y="74.73" class="st1" width="45.32" height="20.29"/>
		<rect x="657.1" y="162.15" class="st1" width="45.32" height="20.29"/>
	</g>
	<path class="st2" d="M615.53,717.09v0.18c0,8.82-3.77,14.69-9.55,14.69c-5.78,0-9.73-6.06-9.73-14.88v-0.18
		c0-8.82,3.77-14.69,9.55-14.69C611.58,702.21,615.53,708.27,615.53,717.09z M449.47,642.05h11.76l-5.88-15.61L449.47,642.05z
		 M453.15,702.21c-5.78,0-9.55,5.88-9.55,14.69v0.18c0,8.82,3.95,14.88,9.73,14.88c5.79,0,9.55-5.88,9.55-14.69v-0.18
		C462.89,708.27,458.94,702.21,453.15,702.21z M900,552.34c-2.78,5.58-5.56,11.16-8.34,16.74c-27.75,2.82-55.49,5.65-87.96,8.95
		c0,115.31,0,229.17,0,347.25c-204.01,0-403.08,0-608.66,0c0-116.11,0-231.08,0-346.62c-34.72-4.21-63.18-7.66-91.64-11.11
		c-1.13-6.35-2.26-12.69-3.4-19.04c131.35-114.28,262.7-228.57,398.03-346.31c38.31,32.41,73.79,62.42,115.04,97.31
		c2.17-30.4,3.95-55.27,6.02-84.17c39.06,0,76.19,0,118.11,0c0,64.44,0,128.28,0,191.72C793.28,457.1,846.64,504.72,900,552.34z
		 M403.34,732.42h-25.07l11.48-7.35c7.72-4.96,12.95-10.29,12.95-20.11v-0.18c0-12.21-10.56-21.03-25.26-21.03
		c-13.41,0-20.94,4.96-28.38,14.14l14.14,12.03c5.33-5.69,8.73-7.99,12.4-7.99c3.68,0,5.79,2.02,5.79,4.77
		c0,2.48-1.56,4.96-5.6,7.81l-26.63,19.1v15.61h54.19V732.42z M413.5,649.95l-17.72-10.01c-2.66,4.78-6.06,8.08-12.12,8.08
		c-7.07,0-12.03-5.88-12.03-14.24v-0.18c0-7.72,4.77-14.05,12.03-14.05c5.88,0,9.27,3.21,11.66,7.81l17.73-10.38
		c-5.42-9.83-14.97-16.72-29.11-16.72c-19.19,0-34.16,14.33-34.16,33.52v0.18c0,19.93,15.52,33.34,33.33,33.34
		C399.08,667.31,408.08,659.5,413.5,649.95z M417.66,581.04c39.77,0,66.22-17.89,66.22-63.37v-72.5h-45.29v73.83
		c0,16.17-8.56,22.64-20.55,22.64c-11.99,0-20.55-7.04-20.55-23.6v-72.88H352.2v73.45C352.2,562.77,377.89,581.04,417.66,581.04z
		 M484.2,716.9c0-17.72-11.39-33.34-30.86-33.34s-31.04,15.8-31.04,33.52v0.18c0,17.72,11.39,33.34,30.86,33.34
		c19.47,0,31.04-15.8,31.04-33.52V716.9z M493.28,665.93l-27.09-64.74h-21.31l-27.09,64.74h22.96l3.3-8.63h22.5l3.4,8.63H493.28z
		 M546.74,510.63l-45.1,67.74h49.67l21.31-34.63l21.12,34.63h50.62l-45.1-68.13l43.2-65.08H592.8l-19.41,31.78l-19.22-31.78h-50.62
		L546.74,510.63z M555.97,732.42H530.9l11.48-7.35c7.72-4.96,12.95-10.29,12.95-20.11v-0.18c0-12.21-10.56-21.03-25.25-21.03
		c-13.41,0-20.94,4.96-28.38,14.14l14.14,12.03c5.33-5.69,8.73-7.99,12.4-7.99c3.68,0,5.79,2.02,5.79,4.77
		c0,2.48-1.56,4.96-5.6,7.81l-26.63,19.1v15.61h54.19V732.42z M574.54,601.65h-22.41l-13.77,22.59l-13.78-22.59h-22.41v64.29h21.04
		v-31.87l14.78,22.87h0.37l14.78-22.87v31.87h21.4V601.65z M636.83,716.9c0-17.72-11.39-33.34-30.86-33.34s-31.04,15.8-31.04,33.52
		v0.18c0,17.72,11.39,33.34,30.86,33.34c19.47,0,31.04-15.8,31.04-33.52V716.9z M647.33,624.52c0-15.25-11.66-22.87-28.75-22.87
		h-28.93v64.29h21.49v-17.45h6.98c17.36,0,29.2-8.26,29.2-23.78V624.52z M617.03,618.82h-5.88v14.33h5.78
		c5.51,0,9.19-2.48,9.19-7.07v-0.18C626.12,621.21,622.72,618.82,617.03,618.82z M347.21,841.56c0,7.58,3.14,11.43,9.36,11.43
		c6.5,0,9.65-4.14,9.65-12.64c0-1.29-0.07-2.43-0.14-5h-6.64c0.07,2.21,0.14,3.5,0.14,4.93c0,5.08-0.64,6.51-3,6.51
		c-2.14,0-2.71-1.08-2.71-5.22v-26.22c0-4.14,0.57-5.22,2.71-5.22c2.36,0,3,1.43,3,6.72c0,1.14,0,1.78-0.14,3.28h6.64
		c0.14-1.86,0.14-2.64,0.14-3.79c0-8.29-3.22-12.43-9.65-12.43c-6.22,0-9.36,3.86-9.36,11.43V841.56z M371.56,852.28h6.64v-21.86
		h5.43v21.86h6.64v-47.65h-6.64v19.58h-5.43v-19.58h-6.64V852.28z M395.95,852.28h6.64v-47.65h-6.64V852.28z M408.11,841.56
		c0,7.58,3.14,11.43,9.36,11.43c6.5,0,9.65-4.14,9.65-12.64c0-1.29-0.07-2.43-0.14-5h-6.64c0.07,2.21,0.14,3.5,0.14,4.93
		c0,5.08-0.64,6.51-3,6.51c-2.14,0-2.71-1.08-2.71-5.22v-26.22c0-4.14,0.57-5.22,2.71-5.22c2.36,0,3,1.43,3,6.72
		c0,1.14,0,1.78-0.14,3.28h6.64c0.14-1.86,0.14-2.64,0.14-3.79c0-8.29-3.22-12.43-9.65-12.43c-6.22,0-9.36,3.86-9.36,11.43V841.56z
		 M431.44,852.28h6.43l1.14-10.72h6l1.22,10.72h6.5l-6.21-47.65h-8.57L431.44,852.28z M439.73,835.35l2.29-22.08l2.29,22.08H439.73z
		 M472.56,852.28h3.57v-24.22h-9.57v5.65h2.93v6.86c0,3-0.07,3.72-0.36,4.5c-0.5,1.15-1.43,1.79-2.5,1.79c-1,0-1.79-0.5-2.21-1.43
		c-0.43-0.86-0.5-1.29-0.5-4.86v-25.22c0-4.14,0.57-5.22,2.71-5.22c2.36,0,3,1.43,3,6.72c0,1.07,0,1.71-0.14,3.28h6.64
		c0.14-1.86,0.14-2.78,0.14-3.79c0-8.29-3.22-12.43-9.57-12.43c-6.29,0-9.43,3.86-9.43,11.43v25.22c0,4.28,0.29,6.22,1.36,8.21
		c1.36,2.58,4,4.21,6.79,4.21c2.29,0,4.29-1.29,6.14-4L472.56,852.28z M481.71,840.14c0,5.64,0.21,6.86,1.5,8.93
		c1.57,2.43,4.57,3.93,7.93,3.93c3.36,0,6.36-1.5,7.93-3.93c1.29-2.07,1.5-3.22,1.5-8.93V816.7c0-5.64-0.21-6.86-1.5-8.93
		c-1.57-2.36-4.57-3.86-7.93-3.86c-3.36,0-6.36,1.5-7.93,3.86c-1.29,2.07-1.5,3.29-1.5,8.93V840.14z M493.92,842.92
		c0,2.71-0.86,3.86-2.78,3.86c-2,0-2.79-1.15-2.79-3.86v-28.94c0-2.71,0.86-3.86,2.79-3.86c2,0,2.78,1.15,2.78,3.86V842.92z
		 M518.41,841.56c0,7.58,3.14,11.43,9.36,11.43c6.5,0,9.65-4.14,9.65-12.64c0-1.29-0.07-2.43-0.14-5h-6.64
		c0.07,2.21,0.14,3.5,0.14,4.93c0,5.08-0.64,6.51-3,6.51c-2.14,0-2.71-1.08-2.71-5.22v-26.22c0-4.14,0.57-5.22,2.71-5.22
		c2.36,0,3,1.43,3,6.72c0,1.14,0,1.78-0.14,3.28h6.64c0.14-1.86,0.14-2.64,0.14-3.79c0-8.29-3.22-12.43-9.65-12.43
		c-6.22,0-9.36,3.86-9.36,11.43V841.56z M541.75,852.28h6.43l1.14-10.72h6l1.22,10.72h6.5l-6.21-47.65h-8.57L541.75,852.28z
		 M550.03,835.35l2.29-22.08l2.29,22.08H550.03z M568.11,852.28h5.57v-33.65l5.57,33.65h2.86l5.57-33.65v33.65h5.72v-47.65h-8
		l-4.72,23.72l-4.71-23.72h-7.86V852.28z M599.06,852.28h6.64v-19.36h0.93c4,0,6.93-1.07,8.65-3.07c1.93-2.22,2.5-4.64,2.5-11
		c0-5.93-0.57-8.36-2.43-10.93c-1.93-2.58-4.14-3.29-10-3.29h-6.29V852.28z M605.71,826.78v-15.93h0.93c3.93,0,4.72,1.29,4.72,7.93
		c0,6.71-0.79,8-4.72,8H605.71z M622.22,838.5c-0.07,1.14-0.07,1.57-0.07,2.57c0,4.14,0.5,6.15,2.07,8.29
		c1.86,2.5,4.36,3.64,7.93,3.64c6.22,0,9.72-3.57,9.72-9.93c0-4.07-1.72-8.93-4.79-13.43l-3.36-4.86
		c-4.43-6.64-4.72-7.29-4.72-10.22c0-2.85,1-4.43,2.79-4.43c1.5,0,2.57,1.07,2.79,3c0.14,1,0.21,1.86,0.21,4.28l6.5-0.64
		c0-3.93,0-4.14-0.36-5.93c-0.93-4.36-4.22-6.93-8.72-6.93c-6,0-9.79,4-9.79,10.29c0,4.21,1.36,7.5,5.43,13.64l3.29,4.86
		c3.29,4.36,4.07,6.22,4.07,9.36c0,3.07-1,4.72-3,4.72c-2.57,0-3.43-1.57-3.43-6.51v-2.07L622.22,838.5z M644.37,776.19H349.06v5.05
		h295.31V776.19z"/>
</g>
</svg>
