<?xml version="1.0" encoding="utf-8"?>
<!-- Generator: Adobe Illustrator 18.1.0, SVG Export Plug-In . SVG Version: 6.00 Build 0)  -->
<!DOCTYPE svg PUBLIC "-//W3C//DTD SVG 1.1//EN" "http://www.w3.org/Graphics/SVG/1.1/DTD/svg11.dtd">
<svg version="1.1" id="Layer_1" xmlns="http://www.w3.org/2000/svg" xmlns:xlink="http://www.w3.org/1999/xlink" x="0px" y="0px"
	 viewBox="0 0 270 270" enable-background="new 0 0 270 270" xml:space="preserve">
<path fill="#B3DDF2" d="M234.5,136.4c-0.6-15.7-4.8-31.1-12.7-45.1c-1.3-2.3-2.6-4.4-4.1-6.6c-2.7-8.4-6.3-16.2-12.7-22
	c-6.2-5.7-14.3-8.5-22.9-10.4c-14.3-7.7-30.5-11.9-47.2-11.9c-2.3,0-4.6,0.1-6.9,0.3c-4.6-1-9.2-1.6-13.6-1.6
	c-4.1,0-7.9,0.6-11.4,1.7c-8.2,2.7-14.8,8.3-20.6,14.8C66.6,65.4,54,79.2,45.9,95.7c-5.9,6.5-10.9,13.6-12.8,22.4
	c-1.9,8.8-0.3,17.3,2.4,25.6c0.6,15.7,4.8,31.1,12.7,45.1c1.3,2.3,2.6,4.4,4,6.6c2.7,8.4,6.3,16.2,12.7,22
	c6.2,5.7,14.3,8.5,22.9,10.4c14.3,7.7,30.5,11.9,47.2,11.9c0,0,0,0,0,0c2.3,0,4.6-0.1,6.9-0.3c4.6,1,9.1,1.6,13.6,1.6c0,0,0,0,0,0
	c4.1,0,7.9-0.6,11.4-1.7c8.2-2.7,14.8-8.2,20.6-14.7c15.9-9.8,28.4-23.7,36.6-40.2c5.9-6.5,10.9-13.6,12.8-22.4
	C238.8,153.3,237.3,144.7,234.5,136.4z"/>
<path fill="#FFFFFF" d="M236.2,136.4c-0.6-15.9-4.9-31.6-12.9-45.9c-1.3-2.3-2.7-4.5-4.1-6.7c-2.7-8.5-6.4-16.4-13-22.3
	c-6.3-5.8-14.5-8.6-23.2-10.5c-14.5-7.8-31-12.1-48-12.1c-2.3,0-4.7,0.1-7,0.3c-4.7-1-9.3-1.7-13.8-1.7c-4.2,0-8,0.6-11.6,1.7
	c-8.4,2.7-15,8.4-21,15c-16.1,10-28.9,24.1-37.2,40.8c-6,6.6-11.1,13.8-13,22.8c-1.9,8.9-0.3,17.6,2.4,26
	c0.6,15.9,4.9,31.6,12.9,45.9c1.3,2.3,2.7,4.5,4.1,6.7c2.7,8.5,6.4,16.4,13,22.3c6.3,5.8,14.5,8.6,23.2,10.5
	c14.5,7.8,31,12.1,48,12.1c0,0,0,0,0,0c2.3,0,4.7-0.1,7-0.3c4.7,1,9.3,1.7,13.8,1.7c0,0,0,0,0,0c4.2,0,8-0.6,11.6-1.7
	c8.4-2.7,15-8.4,21-15c16.1-10,28.9-24.1,37.2-40.8c6-6.6,11.1-13.8,13-22.8C240.6,153.5,239,144.8,236.2,136.4z M231.6,124.1
	c-0.1-0.3-0.3-0.6-0.4-1c-1.8-4.3-3.4-8.4-4.7-12.5c-1.4-4.2-2.5-8.8-3.6-13.3c-0.1-0.3-0.1-0.6-0.2-0.9
	C227,105.3,230,114.6,231.6,124.1z M222.2,184.4c-2.8,2.9-5.7,5.7-8.6,8.5c-3.3,3.1-6.7,6.4-9.6,9.6c-0.8,0.9-1.6,1.8-2.3,2.7
	c1.5-3.1,3-6.2,4.4-9.3c1.9-4.3,3.8-8.4,5.9-12.1c2.2-3.9,4.9-7.8,7.6-11.7c5.4-7.8,10.9-15.8,13.1-24.6c-0.5,6.3-1.6,12.7-3.4,19
	C227.4,172.8,225.1,178.7,222.2,184.4z M129.2,234.6c-4.5-1.3-9.2-2.6-13.8-3.6c-1.3-0.3-2.7-0.5-4-0.8c3.5-0.2,7-0.5,10.4-0.8
	c4.6-0.4,9.4-0.9,13.9-0.9l0.4,0c4.2,0,8.5,0.4,13.1,0.8c4.6,0.4,9.4,0.8,14.1,0.8c0,0,0,0,0,0c5.2,0,9.7-0.5,13.7-1.6
	c-11.3,5.3-23.5,8.5-35.9,9.2C137.1,236.8,133.2,235.7,129.2,234.6z M50.1,182c-1.1-4.5-2.3-9.1-3.7-13.4c-0.5-1.5-1-3-1.6-4.5
	c1.9,3,4,5.9,6,8.8c2.7,3.9,5.5,7.9,7.9,11.9c2.4,4,4.5,8.4,6.5,12.7c4,8.4,8.2,17,14.4,23.2c-10.4-7.1-19.4-16.2-26.4-26.9
	C52,189.9,51,185.9,50.1,182z M47.8,95.7c2.8-2.9,5.7-5.7,8.6-8.5c3.3-3.1,6.7-6.4,9.6-9.6c0.8-0.9,1.6-1.8,2.3-2.7
	c-1.5,3.1-3,6.2-4.4,9.3c-1.9,4.3-3.8,8.4-5.9,12.1c-2.2,3.9-4.9,7.8-7.6,11.7c-5.4,7.8-10.9,15.8-13.1,24.5
	c0.5-6.3,1.6-12.7,3.4-18.9C42.6,107.4,44.9,101.4,47.8,95.7z M140.8,45.5c4.5,1.3,9.2,2.6,13.8,3.6c1.3,0.3,2.7,0.5,4,0.8
	c-3.5,0.2-7,0.5-10.4,0.8c-4.6,0.4-9.4,0.9-13.9,0.9l-0.4,0c-4.2,0-8.5-0.4-13.1-0.8c-4.6-0.4-9.4-0.8-14.1-0.8
	c-5.2,0-9.7,0.5-13.7,1.6c11.3-5.3,23.5-8.5,35.9-9.2C132.9,43.3,136.8,44.4,140.8,45.5z M219.9,98.1c1.1,4.5,2.3,9.1,3.7,13.4
	c0.5,1.5,1,3,1.6,4.5c-1.9-3-4-5.9-6-8.8c-2.7-3.9-5.5-7.9-7.9-11.9c-2.4-4-4.5-8.4-6.5-12.7c-4-8.4-8.2-17-14.4-23.2
	c10.3,7.1,19.4,16.2,26.4,26.9C218,90.2,219,94.2,219.9,98.1z M183.4,222.5c-5.3,3.1-11.8,4.6-20.2,4.6c0,0,0,0,0,0
	c-4.6,0-9.3-0.4-13.9-0.8c-4.4-0.4-9-0.8-13.3-0.8l-0.4,0c-4.6,0-9.4,0.5-14.1,0.9c-4.9,0.5-9.9,0.9-14.7,0.9c-8,0-14-1.3-19-4.2
	c-9.4-5.3-14.4-15.9-19.8-27c-2.1-4.3-4.2-8.8-6.6-12.9c-2.4-4.1-5.3-8.2-8-12.1c-7.1-10.1-13.8-19.7-13.9-30.5
	c-0.1-11.1,6.9-21.2,13.6-31c2.7-3.9,5.4-7.9,7.7-11.9c2.2-3.9,4.1-8.2,6-12.4c4.9-10.8,9.9-22,19.9-27.9C92,54.4,98.4,53,106.8,53
	c4.6,0,9.3,0.4,13.9,0.8c4.4,0.4,9,0.8,13.3,0.8l0.4,0c4.6,0,9.4-0.5,14.1-0.9c4.9-0.5,9.9-0.9,14.7-0.9c8,0,14,1.3,19,4.2
	c9.4,5.3,14.4,15.9,19.8,27c2.1,4.3,4.2,8.8,6.6,12.9c2.4,4.1,5.3,8.2,8,12.1c7.1,10.1,13.8,19.7,13.9,30.5
	c0.1,11.1-6.9,21.2-13.6,31c-2.7,3.9-5.4,7.9-7.7,11.9c-2.2,3.9-4.1,8.2-6,12.4C198.4,205.5,193.4,216.7,183.4,222.5z M204.2,63.7
	c3.4,3.1,6.1,6.9,8.2,11.1c-5.9-6.9-12.6-13-20-18.1C196.8,58.4,200.7,60.6,204.2,63.7z M169.9,48.7c-0.3,0-0.5-0.1-0.8-0.1
	c-4.6-0.7-9.3-1.4-13.8-2.4c-4.5-1-9.1-2.3-13.6-3.5c-0.3-0.1-0.6-0.2-0.9-0.2C150.9,43,160.7,45.1,169.9,48.7z M103.4,42
	c3.3-1.1,6.8-1.6,10.6-1.6c0.9,0,1.8,0,2.8,0.1c-8.8,1.6-17.3,4.4-25.4,8.2C95.1,45.8,99,43.4,103.4,42z M73.2,64.2
	c-0.2,0.3-0.4,0.5-0.6,0.8c-2.8,3.6-5.8,7.3-8.8,10.6c-2.9,3.2-6.1,6.2-9.5,9.5c-0.2,0.2-0.5,0.5-0.7,0.7
	C59,77.6,65.5,70.4,73.2,64.2z M34.3,118.4c1-4.7,3-9,5.6-12.9c-0.9,2.4-1.6,4.8-2.3,7.3c-1.8,6.5-3,13.1-3.5,19.6
	C33.3,127.7,33.3,123,34.3,118.4z M38.4,156c0.1,0.3,0.3,0.6,0.4,1c1.8,4.3,3.4,8.4,4.7,12.5c1.4,4.2,2.5,8.8,3.6,13.3
	c0.1,0.3,0.1,0.6,0.2,0.9C43,174.8,40,165.5,38.4,156z M65.8,216.4c-3.4-3.1-6.1-6.9-8.2-11.1c5.8,6.9,12.6,13,19.9,18.1
	C73.2,221.7,69.3,219.5,65.8,216.4z M100.1,231.4c0.3,0,0.6,0.1,0.8,0.1c4.6,0.7,9.3,1.4,13.8,2.4c4.5,1,9.1,2.3,13.6,3.5
	c0.3,0.1,0.6,0.2,0.9,0.3C119.2,237.1,109.3,235,100.1,231.4z M166.6,238.1c-3.3,1.1-6.8,1.6-10.6,1.6h0c-0.9,0-1.8,0-2.8-0.1
	c8.8-1.6,17.3-4.4,25.4-8.2C174.9,234.4,171,236.7,166.6,238.1z M196.8,215.9c0.2-0.3,0.4-0.5,0.6-0.8c2.8-3.6,5.8-7.3,8.8-10.6
	c2.9-3.2,6.1-6.2,9.5-9.5c0.2-0.2,0.5-0.5,0.7-0.7C211.1,202.5,204.5,209.7,196.8,215.9z M235.7,161.8c-1,4.7-3,9-5.6,12.9
	c0.9-2.4,1.6-4.8,2.3-7.3c1.8-6.5,3-13,3.5-19.6C236.7,152.4,236.7,157.1,235.7,161.8z"/>
<path fill="#FFFFFF" d="M47.8,49.5L39,38.7l5.4-4.4L53.1,45c2.3,2.8,4.7,2.9,6.9,1.2c2.1-1.7,2.5-4.2,0.3-6.8l-8.8-10.8l5.4-4.4
	l8.7,10.6c5.1,6.2,3.8,11.8-1.7,16.3C58.4,55.5,52.8,55.5,47.8,49.5z"/>
<path fill="#FFFFFF" d="M78.4,25.9l-12.5-7.6l7.2-3.3l6.9,4.5l1.1-8.2L88,8l-2.3,14.4l13.1,7.9l-7.2,3.3l-7.5-4.8l-1.2,8.8l-7,3.3
	L78.4,25.9z"/>
<path fill="#FFFFFF" d="M114.3,13.9L114.3,13.9c-0.5-7.3,4.6-13.3,12.1-13.9c5-0.4,8.5,1.5,10.9,4.4l-4.9,4.4
	c-1.5-1.7-3.3-2.7-5.6-2.5c-3.5,0.3-5.7,3.4-5.4,7l0,0.1c0.3,3.7,2.9,6.4,6.4,6.2c2.6-0.2,4-1.5,5.4-3.4l5.4,3.3
	c-2.1,3.4-5.1,6-10.5,6.4C120.9,26.3,114.8,21.3,114.3,13.9z"/>
<path fill="#FFFFFF" d="M156.4,1.7l6.5,1.2l6,26.4l-7.2-1.3l-1-4.7l-9.4-1.7l-2.5,4l-7.1-1.3L156.4,1.7z M159.7,17.7l-1.5-7.4
	l-4,6.4L159.7,17.7z"/>
<path fill="#FFFFFF" d="M184,8.5l6.5,3.2l1.1,11.2l9.5-6l6.5,3.2l-10.9,22.3l-6.1-3l6.3-12.8l-10,5.9l-0.1-0.1L185.4,21l-6.2,12.7
	l-6-3L184,8.5z"/>
<path fill="#FFFFFF" d="M218.6,27.8l8,7c4.7,4.1,5.6,9.2,2,13.3l0,0.1c-3.8,4.4-9.3,3.8-13.9-0.3l-2.6-2.2l-4.7,5.3l-5.2-4.5
	L218.6,27.8z M218.1,43.8c1.8,1.6,3.8,1.6,5.1,0.2l0-0.1c1.4-1.6,1-3.4-0.8-5.1l-2.4-2.1l-4.3,4.9L218.1,43.8z"/>
<g>
	<polygon fill="#FF0000" points="153.6,261.2 150.4,262.5 152,265.7 149.2,263.6 147.2,266.5 147.7,263 144.2,262.8 147.4,261.4 
		145.9,258.3 148.6,260.4 150.6,257.5 150.1,261 	"/>
</g>
<path fill="#FFFFFF" d="M41.4,220.4L41.4,220.4c2.9-2.8,7.4-2.9,10.4,0.2c1.9,1.9,2.3,3.7,2.3,5.5l-3,0.2c0-1.5-0.4-2.7-1.4-3.7
	c-1.7-1.7-4.3-1.6-6,0.1l0,0c-1.7,1.7-2,4.3-0.3,6c1.1,1.2,2.3,1.4,3.8,1.5l-0.1,2.8c-2.1,0-4-0.4-5.9-2.4
	C38.3,227.7,38.5,223.2,41.4,220.4z"/>
<path fill="#FFFFFF" d="M58.1,227l2.5,1.9l-3.5,4.4l4.5,3.5l3.5-4.4l2.5,1.9l-8.7,11.1l-2.5-1.9l3.5-4.5l-4.5-3.5l-3.5,4.5l-2.5-1.9
	L58.1,227z"/>
<path fill="#FFFFFF" d="M70.9,236.6l2.6,1.7L66,250.2l-2.6-1.7L70.9,236.6z"/>
<path fill="#FFFFFF" d="M73,246.4L73,246.4c1.8-3.6,6-5.2,9.9-3.2c2.4,1.2,3.4,2.7,4,4.5l-2.8,1.1c-0.5-1.4-1.2-2.4-2.5-3.1
	c-2.1-1.1-4.6-0.1-5.7,2.1l0,0c-1.1,2.2-0.5,4.7,1.6,5.8c1.4,0.7,2.6,0.6,4.1,0.2l0.9,2.7c-2,0.7-3.9,0.9-6.3-0.4
	C72.5,254.3,71.2,250,73,246.4z"/>
<path fill="#FFFFFF" d="M95.8,248.8l2.7,0.9l1.1,15.5l-3.1-1.1l-0.2-3.4l-5.7-1.9l-2.3,2.6l-3-1L95.8,248.8z M96.2,257.8l-0.3-5
	l-3.3,3.7L96.2,257.8z"/>
<path fill="#FFFFFF" d="M104.5,259.2L104.5,259.2c0.8-4,4.5-6.6,8.7-5.8c2.5,0.5,3.9,1.5,5.1,3l-2.4,1.9c-0.9-1.1-1.7-1.8-3.4-2.1
	c-2.2-0.4-4.4,1.2-4.8,3.5l0,0c-0.5,2.5,0.9,4.7,3.3,5.2c1.1,0.2,2.2,0.1,3-0.3l0.4-2l-3.1-0.6l0.5-2.6l6,1.2l-1.2,6
	c-1.7,0.9-3.8,1.5-6.4,1C106.1,266.9,103.7,263.3,104.5,259.2z"/>
<path fill="#FFFFFF" d="M122.4,262.4L122.4,262.4c0.2-4.1,3.5-7.2,7.8-7c4.4,0.2,7.4,3.6,7.2,7.6l0,0c-0.2,4-3.5,7.2-7.8,7
	C125.2,269.8,122.2,266.4,122.4,262.4z M134.2,262.9L134.2,262.9c0.1-2.5-1.6-4.6-4.1-4.7c-2.5-0.1-4.3,1.8-4.4,4.2l0,0
	c-0.1,2.4,1.6,4.5,4.1,4.6C132.3,267.2,134.1,265.3,134.2,262.9z"/>
<path fill="#FFFFFF" d="M160.3,260.5L160.3,260.5c-1-3.9,1.1-7.9,5.3-9c2.6-0.7,4.4-0.2,6,0.7l-1.3,2.7c-1.3-0.7-2.5-1-3.9-0.6
	c-2.3,0.6-3.5,2.9-2.9,5.3l0,0c0.6,2.4,2.7,3.9,5.1,3.3c1.6-0.4,2.4-1.3,3.2-2.5l2.4,1.4c-1,1.9-2.3,3.2-5,3.9
	C165.1,266.8,161.3,264.4,160.3,260.5z"/>
<path fill="#FFFFFF" d="M178.9,247.2l2.7-1.1l11.1,10.8l-3,1.2l-2.4-2.4l-5.5,2.3l0,3.4l-2.9,1.2L178.9,247.2z M185.2,253.7
	l-3.5-3.5l0,5L185.2,253.7z"/>
<path fill="#FFFFFF" d="M190.2,242.3l2.9-1.7l6.3,3.2l0.1-7l2.9-1.7l7.4,12.1l-2.6,1.6l-4.8-7.9L202,248l-0.1,0l-6.5-3.1l4.8,7.8
	l-2.6,1.6L190.2,242.3z"/>
<path fill="#FFFFFF" d="M206.1,232.2l4.5-3.7c2.6-2.1,5.5-1.9,7.3,0.3l0,0c2.1,2.5,1.2,5.5-1.3,7.5l-1.8,1.5l2.7,3.3l-2.4,2
	L206.1,232.2z M214.9,234.1c1.2-1,1.3-2.3,0.5-3.2l0,0c-0.9-1.1-2.1-1-3.3,0l-1.9,1.5l2.8,3.3L214.9,234.1z"/>
<path fill="#FFFFFF" d="M225,231.9l-0.3-2.9c1.6-0.2,3-0.7,4.2-1.9c0.9-0.9,1-1.8,0.4-2.4l0,0c-0.6-0.5-1.2-0.5-3.3,0.8
	c-2.5,1.6-4.3,2.3-6.4,0.4l0,0c-1.9-1.8-1.7-4.4,0.3-6.5c1.4-1.5,3.1-2.3,4.9-2.6l0.6,2.8c-1.5,0.3-2.7,0.8-3.6,1.7
	c-0.8,0.9-0.9,1.7-0.4,2.2l0,0c0.7,0.6,1.3,0.4,3.5-0.9c2.5-1.6,4.4-2,6.2-0.3l0,0c2,1.9,1.7,4.6-0.4,6.8
	C229.3,230.7,227.2,231.8,225,231.9z"/>
<path fill="#FFFFFF" d="M80.4,124.6V92.8h15.9v31.5c0,8.2,4.1,12.1,10.4,12.1c6.3,0,10.4-3.7,10.4-11.7V92.8h15.9v31.4
	c0,18.3-10.4,26.3-26.5,26.3S80.4,142.3,80.4,124.6z"/>
<path fill="#515254" d="M106.6,151.6c-17.6,0-27.3-9.6-27.3-27V92.8c0-0.6,0.5-1.1,1.1-1.1h15.9c0.6,0,1.1,0.5,1.1,1.1v31.5
	c0,7.2,3.2,10.9,9.3,10.9c6.1,0,9.3-3.6,9.3-10.5V92.8c0-0.6,0.5-1.1,1.1-1.1h15.9c0.6,0,1.1,0.5,1.1,1.1v31.4
	C134.3,141.9,124.5,151.6,106.6,151.6z M81.5,93.9v30.7c0,16.2,8.7,24.8,25.1,24.8c16.6,0,25.4-8.7,25.4-25.2V93.9h-13.7v30.8
	c0,8.1-4.2,12.8-11.6,12.8c-7.3,0-11.6-4.8-11.6-13.2V93.9H81.5z"/>
<path fill="#FFFFFF" d="M154.8,120.6l-18.6-27.8h18l10,15.9l10.1-15.9h17.6l-18.6,27.7l19.4,29h-18L164,132.4l-10.9,17.1h-17.6
	L154.8,120.6z"/>
<path fill="#515254" d="M192.9,150.6h-18c-0.4,0-0.7-0.2-0.9-0.5l-9.9-15.6l-10,15.6c-0.2,0.3-0.6,0.5-0.9,0.5h-17.6
	c-0.4,0-0.8-0.2-1-0.6c-0.2-0.4-0.2-0.8,0.1-1.2l19-28.2l-18.2-27.2c-0.2-0.3-0.3-0.8-0.1-1.2c0.2-0.4,0.6-0.6,1-0.6h18
	c0.4,0,0.7,0.2,1,0.5l9.1,14.4l9.2-14.4c0.2-0.3,0.6-0.5,0.9-0.5h17.6c0.4,0,0.8,0.2,1,0.6c0.2,0.4,0.2,0.8-0.1,1.2l-18.2,27
	l19,28.3c0.2,0.3,0.3,0.8,0.1,1.2C193.7,150.3,193.3,150.6,192.9,150.6z M175.5,148.3h15.3l-18.2-27.2c-0.3-0.4-0.3-0.9,0-1.3
	L190,93.9H175l-9.8,15.4c-0.2,0.3-0.6,0.5-0.9,0.5c0,0,0,0,0,0c-0.4,0-0.7-0.2-0.9-0.5l-9.7-15.4h-15.3l17.4,26.1
	c0.3,0.4,0.3,0.9,0,1.3l-18.2,27.1h14.9l10.6-16.6c0.2-0.3,0.6-0.5,0.9-0.5c0,0,0,0,0,0c0.4,0,0.7,0.2,0.9,0.5L175.5,148.3z"/>
<path fill="#515254" d="M193.2,156.9h-57.5c-1.2,0-2.2,1-2.2,2.2c0,1.2,1,2.2,2.2,2.2h57.5c1.2,0,2.2-1,2.2-2.2
	C195.4,157.9,194.4,156.9,193.2,156.9z"/>
<polygon fill="#515254" points="153.1,213.2 141.8,217.5 112,206.2 123.3,201.9 "/>
<path fill="#FFFFFF" d="M141.8,218.5c-0.1,0-0.2,0-0.4-0.1l-29.8-11.3c-0.4-0.1-0.7-0.5-0.7-0.9c0-0.4,0.3-0.8,0.7-0.9l11.3-4.3
	c0.2-0.1,0.5-0.1,0.7,0l29.8,11.3c0.4,0.1,0.7,0.5,0.7,0.9c0,0.4-0.3,0.8-0.7,0.9l-11.3,4.3C142,218.5,141.9,218.5,141.8,218.5z
	 M114.8,206.2l26.9,10.2l8.4-3.2L123.3,203L114.8,206.2z"/>
<polygon fill="#FFCD03" points="123.2,201.9 111.9,206.2 105,203.6 116.3,199.3 "/>
<path fill="#FFFFFF" d="M111.9,207.2c-0.1,0-0.2,0-0.4-0.1l-6.8-2.6c-0.4-0.1-0.7-0.5-0.7-0.9c0-0.4,0.3-0.8,0.7-0.9l11.3-4.3
	c0.2-0.1,0.5-0.1,0.7,0l6.8,2.6c0.4,0.1,0.7,0.5,0.7,0.9c0,0.4-0.3,0.8-0.7,0.9l-11.3,4.3C112.1,207.2,112,207.2,111.9,207.2z
	 M107.9,203.6l4,1.5l8.4-3.2l-4-1.5L107.9,203.6z"/>
<polygon fill="#515254" points="157.3,219.1 141.9,217.5 152.9,213.3 "/>
<path fill="#FFFFFF" d="M157.3,220.1c0,0-0.1,0-0.1,0l-15.4-1.6c-0.5-0.1-0.8-0.4-0.9-0.9c-0.1-0.5,0.2-0.9,0.6-1.1l11-4.2
	c0.4-0.2,0.9,0,1.2,0.3l4.4,5.8c0.2,0.3,0.3,0.8,0.1,1.1C158,219.9,157.6,220.1,157.3,220.1z M146.2,216.9l8.8,0.9l-2.5-3.3
	L146.2,216.9z"/>
<polygon fill="#515254" points="128.4,217.5 117.1,213.2 146.9,201.9 158.2,206.2 "/>
<path fill="#FFFFFF" d="M128.4,218.5c-0.1,0-0.2,0-0.4-0.1l-11.3-4.3c-0.4-0.1-0.7-0.5-0.7-0.9c0-0.4,0.3-0.8,0.7-0.9l29.8-11.3
	c0.2-0.1,0.5-0.1,0.7,0l11.3,4.3c0.4,0.1,0.7,0.5,0.7,0.9c0,0.4-0.3,0.8-0.7,0.9l-29.8,11.3C128.7,218.5,128.5,218.5,128.4,218.5z
	 M120,213.2l8.4,3.2l26.9-10.2l-8.4-3.2L120,213.2z"/>
<polygon fill="#FFCD03" points="158.1,206.2 146.8,201.9 153.7,199.3 165,203.6 "/>
<path fill="#FFFFFF" d="M158.1,207.2c-0.1,0-0.2,0-0.4-0.1l-11.3-4.3c-0.4-0.1-0.7-0.5-0.7-0.9c0-0.4,0.3-0.8,0.7-0.9l6.8-2.6
	c0.2-0.1,0.5-0.1,0.7,0l11.3,4.3c0.4,0.1,0.7,0.5,0.7,0.9c0,0.4-0.3,0.8-0.7,0.9l-6.8,2.6C158.4,207.2,158.2,207.2,158.1,207.2z
	 M149.7,201.9l8.4,3.2l4-1.5l-8.4-3.2L149.7,201.9z"/>
<polygon fill="#515254" points="112.9,219.1 117.3,213.3 128.3,217.5 "/>
<path fill="#FFFFFF" d="M112.9,220.2c-0.4,0-0.7-0.2-0.9-0.5c-0.2-0.4-0.2-0.8,0.1-1.1l4.3-5.8c0.3-0.4,0.8-0.5,1.2-0.3l11,4.2
	c0.4,0.2,0.7,0.6,0.6,1.1c-0.1,0.5-0.4,0.8-0.9,0.9l-15.3,1.7C113,220.1,113,220.2,112.9,220.2z M117.6,214.5l-2.5,3.4l8.8-1
	L117.6,214.5z"/>
<path fill="#FFCD03" d="M122.6,175L122.6,175c-3.5-2.6-2.1-5.6-1.2-7c-1.4,1.8-4.7,6.7-3.7,9.9h0c0.2,1.5,1.5,2.6,3,2.6
	c1.7,0,3.1-1.4,3.1-3.1C123.9,176.5,123.4,175.6,122.6,175z"/>
<path fill="#FFFFFF" d="M120.8,181.6c-2,0-3.7-1.4-4-3.4c-1-3.5,2-8.2,3.8-10.8c0.3-0.4,1-0.5,1.4-0.2c0.4,0.3,0.6,0.9,0.3,1.4
	c-1.5,2.1-1.1,4,0.9,5.6c1,0.8,1.7,2,1.7,3.3C124.9,179.8,123.1,181.6,120.8,181.6z M118.7,177.6c0,0.1,0,0.1,0.1,0.2
	c0.2,1,1,1.7,2,1.7c1.1,0,2.1-0.9,2.1-2.1c0-0.7-0.3-1.3-0.8-1.7c-1.2-0.9-2-1.9-2.3-3C118.9,174.5,118.3,176.3,118.7,177.6z"/>
<path fill="#FFCD03" d="M152.4,165.3L152.4,165.3c3.5-2.6,2.1-5.6,1.2-7c1.4,1.8,4.7,6.7,3.7,9.9h0c-0.2,1.5-1.5,2.6-3,2.6
	c-1.7,0-3.1-1.4-3.1-3.1C151.1,166.8,151.6,165.9,152.4,165.3z"/>
<path fill="#FFFFFF" d="M154.2,171.9c-2.3,0-4.1-1.8-4.1-4.1c0-1.3,0.6-2.5,1.7-3.3c2.1-1.6,2.4-3.4,0.9-5.6
	c-0.3-0.5-0.2-1.1,0.3-1.4c0.4-0.3,1.1-0.2,1.4,0.2c1.9,2.5,4.9,7.2,3.8,10.8C157.9,170.5,156.2,171.9,154.2,171.9z M155.3,163.1
	c-0.4,1.1-1.2,2.1-2.3,3c-0.5,0.4-0.9,1-0.9,1.7c0,1.1,0.9,2.1,2.1,2.1c1,0,1.9-0.7,2-1.7c0-0.1,0-0.1,0.1-0.2
	C156.7,166.5,156.1,164.8,155.3,163.1z"/>
<path fill="#FFCD03" d="M151,177.9c-2.1-3.2-4.7-6.1-7.3-8.6c1.8-3.3,2.9-6,2.9-6c4.7-11.1-0.5-23.9-11.6-28.5
	c7.1,3,10.7,11.7,7.4,18.4c-1.2,2.4-3.8,5.7-6.9,9.2c-2.1-1.8-3.9-3.3-5-4.7c-3.7-4.5-0.6-11-0.6-11s-4.8,1.9-5.8,9
	c-0.4,2.9,1.9,8,5.2,13.4c-3.4,3.5-6.3,6.5-7.3,7.8c-2.5,3.3-5.2,7.9-5.2,12.9c0,10.3,8.4,18.7,18.7,18.7c10.3,0,18.7-8.4,18.7-18.7
	C154.3,185.7,152.9,181.7,151,177.9z M135.6,195.7c-5.3-5.3-2.5-11.5,0.9-16.2C140,185.1,141.1,190.2,135.6,195.7z"/>
<path fill="#FFFFFF" d="M135.6,209.3c-10.9,0-19.7-8.8-19.7-19.7c0-4.3,1.8-8.9,5.4-13.5c0.8-1.1,2.8-3.1,5.3-5.7
	c0.5-0.5,1-1,1.5-1.6c-3.7-6.1-5.4-10.6-4.9-13.4c1.1-7.6,6.3-9.7,6.5-9.8c0.4-0.2,0.8-0.1,1.1,0.3c0.3,0.3,0.4,0.8,0.2,1.1
	c0,0.1-2.8,6,0.4,9.9c0.9,1.1,2.2,2.3,4.1,3.9c3.2-3.6,5.1-6.3,6.1-8.2c1.4-2.8,1.5-6.1,0.3-9.3c-1.3-3.5-3.9-6.2-7.2-7.6l0,0
	c-0.5-0.2-0.8-0.8-0.5-1.3c0.2-0.5,0.8-0.8,1.3-0.5c0,0,0,0,0,0c5.6,2.4,9.9,6.8,12.2,12.4c2.3,5.6,2.2,11.8-0.1,17.4
	c0,0.1-1,2.4-2.6,5.4c2.9,2.8,5.2,5.6,6.9,8.3c0,0,0,0,0,0.1c2.3,4.3,3.4,8.4,3.4,12.2C155.3,200.5,146.5,209.3,135.6,209.3z
	 M128.1,149.2c-1.2,1.2-2.4,3.3-2.9,6.5c-0.3,2.3,1.5,6.8,5.1,12.7c0.2,0.4,0.2,0.9-0.1,1.2c-0.7,0.7-1.4,1.5-2.1,2.2
	c-2.4,2.4-4.4,4.6-5.1,5.6c-3.3,4.3-5,8.5-5,12.3c0,9.7,7.9,17.7,17.7,17.7c9.7,0,17.7-7.9,17.7-17.7c0-3.4-1.1-7.1-3.2-11.2
	c-1.8-2.8-4.1-5.5-7.1-8.4c-0.3-0.3-0.4-0.8-0.2-1.2c1.7-3.2,2.9-5.9,2.9-5.9c2.2-5.1,2.2-10.8,0.1-15.9c-0.5-1.1-1-2.2-1.7-3.3
	c1,3.4,0.7,6.8-0.7,9.8c-1.1,2.2-3.4,5.3-7,9.4c-0.4,0.4-1,0.5-1.4,0.1c-2.3-2-4-3.4-5.1-4.8C127.4,155.3,127.6,151.7,128.1,149.2z
	 M135.6,196.7L135.6,196.7c-0.3,0-0.5-0.1-0.7-0.3c-4.6-4.6-4.3-10.5,0.8-17.5c0.2-0.3,0.5-0.4,0.9-0.4c0.3,0,0.6,0.2,0.8,0.5
	c3.1,5,5.4,11-1.1,17.4C136.1,196.6,135.9,196.7,135.6,196.7z M136.4,181.4c-3.4,5.2-3.7,9.4-0.8,12.8
	C139.5,189.8,138.9,185.8,136.4,181.4z"/>
<path fill="#FFCD03" d="M131,137.3L131,137.3c-3.5-2.6-2.1-5.6-1.2-7c-1.4,1.8-4.7,6.7-3.7,9.9h0c0.2,1.5,1.5,2.6,3,2.6
	c1.7,0,3.1-1.4,3.1-3.1C132.2,138.8,131.7,137.9,131,137.3z"/>
<path fill="#FFFFFF" d="M129.2,143.9c-2,0-3.7-1.4-4-3.4c-1-3.5,2-8.2,3.8-10.8c0.3-0.4,1-0.5,1.4-0.2c0.4,0.3,0.6,0.9,0.3,1.4
	c-1.5,2.1-1.1,4,0.9,5.6c1,0.8,1.7,2,1.7,3.3C133.2,142.1,131.4,143.9,129.2,143.9z M127.1,139.9c0,0.1,0,0.1,0.1,0.2
	c0.2,1,1,1.7,2,1.7c1.1,0,2.1-0.9,2.1-2.1c0-0.7-0.3-1.3-0.8-1.7c-1.2-0.9-1.9-1.9-2.3-3C127.2,136.9,126.7,138.7,127.1,139.9z"/>
<path fill="#515254" d="M132.2,80.1H78.7c-1.2,0-2.2,1-2.2,2.2c0,1.2,1,2.2,2.2,2.2h53.5c1.2,0,2.2-1,2.2-2.2
	C134.5,81.1,133.5,80.1,132.2,80.1z"/>
</svg>
