<?xml version="1.0" encoding="utf-8"?>
<!-- Generator: Adobe Illustrator 18.1.0, SVG Export Plug-In . SVG Version: 6.00 Build 0)  -->
<!DOCTYPE svg PUBLIC "-//W3C//DTD SVG 1.1//EN" "http://www.w3.org/Graphics/SVG/1.1/DTD/svg11.dtd">
<svg version="1.1" id="Layer_1" xmlns="http://www.w3.org/2000/svg" xmlns:xlink="http://www.w3.org/1999/xlink" x="0px" y="0px"
	 viewBox="0 0 228 20" enable-background="new 0 0 228 20" xml:space="preserve">
<g>
	<g>
		<g>
			<path fill="#FFFFFF" d="M9.9,20C4.2,20,0,15.6,0,10.1V10C0,4.5,4.1,0,10.1,0c3.6,0,5.8,1.2,7.6,3L15,6.1c-1.5-1.4-3-2.2-4.9-2.2
				c-3.3,0-5.6,2.7-5.6,6V10c0,3.3,2.3,6.1,5.6,6.1c2.2,0,3.6-0.9,5.1-2.3l2.7,2.7C15.8,18.7,13.6,20,9.9,20z"/>
			<path fill="#FFFFFF" d="M31.2,19.7v-7.8h-7.8v7.8h-4.2V0.3h4.2V8h7.8V0.3h4.2v19.3H31.2z"/>
			<path fill="#FFFFFF" d="M38.4,19.7V0.3h4.2v19.3H38.4z"/>
			<path fill="#FFFFFF" d="M54.5,20c-5.7,0-9.9-4.4-9.9-9.9V10c0-5.5,4.1-10,10.1-10c3.6,0,5.8,1.2,7.6,3l-2.7,3.1
				c-1.5-1.4-3-2.2-4.9-2.2c-3.3,0-5.6,2.7-5.6,6V10c0,3.3,2.3,6.1,5.6,6.1c2.2,0,3.6-0.9,5.1-2.3l2.7,2.7
				C60.4,18.7,58.2,20,54.5,20z"/>
			<path fill="#FFFFFF" d="M78.2,19.7l-1.8-4.3h-8.2l-1.8,4.3h-4.3l8.3-19.5h3.9l8.3,19.5H78.2z M72.3,5.3l-2.6,6.3h5.1L72.3,5.3z"
				/>
			<path fill="#FFFFFF" d="M91.7,20c-6,0-10.1-4.2-10.1-9.9V10c0-5.5,4.3-10,10.1-10c3.5,0,5.6,0.9,7.6,2.7l-2.7,3.2
				c-1.5-1.2-2.8-2-5-2c-3.1,0-5.5,2.7-5.5,6V10c0,3.5,2.4,6.1,5.8,6.1c1.5,0,2.9-0.4,4-1.2v-2.8h-4.3V8.5h8.4v8.4
				C98,18.6,95.2,20,91.7,20z"/>
			<path fill="#FFFFFF" d="M111.5,20c-6,0-10.2-4.4-10.2-9.9V10c0-5.5,4.3-10,10.3-10c6,0,10.2,4.4,10.2,9.9V10
				C121.8,15.5,117.5,20,111.5,20z M117.4,10c0-3.3-2.4-6.1-5.8-6.1c-3.4,0-5.8,2.7-5.8,6V10c0,3.3,2.4,6.1,5.8,6.1
				C115,16.1,117.4,13.4,117.4,10L117.4,10z"/>
			<path fill="#FFFFFF" d="M146.2,20c-5.7,0-9.9-4.4-9.9-9.9V10c0-5.5,4.1-10,10.1-10c3.6,0,5.8,1.2,7.6,3l-2.7,3.1
				c-1.5-1.4-3-2.2-4.9-2.2c-3.3,0-5.6,2.7-5.6,6V10c0,3.3,2.3,6.1,5.6,6.1c2.2,0,3.6-0.9,5.1-2.3l2.7,2.7
				C152.2,18.7,150,20,146.2,20z"/>
			<path fill="#FFFFFF" d="M169.9,19.7l-1.8-4.3H160l-1.8,4.3h-4.3l8.3-19.5h3.9l8.3,19.5H169.9z M164.1,5.3l-2.6,6.3h5.1L164.1,5.3
				z"/>
			<path fill="#FFFFFF" d="M190.3,19.7V7l-5.4,8.3h-0.1l-5.4-8.2v12.5h-4.2V0.3h4.6l5.1,8.2l5.1-8.2h4.6v19.3H190.3z"/>
			<path fill="#FFFFFF" d="M205,13.9h-3.2v5.8h-4.2V0.3h7.9c4.6,0,7.4,2.7,7.4,6.7v0.1C212.8,11.5,209.3,13.9,205,13.9z M208.5,7.1
				c0-1.9-1.3-2.9-3.4-2.9h-3.3v5.9h3.4C207.2,10.1,208.5,8.8,208.5,7.1L208.5,7.1z"/>
			<path fill="#FFFFFF" d="M220.9,19.9c-2.9,0-5.9-1-8.2-3.1l2.5-3c1.7,1.4,3.6,2.3,5.8,2.3c1.7,0,2.8-0.7,2.8-1.8v-0.1
				c0-1.1-0.7-1.6-3.9-2.5c-3.9-1-6.4-2.1-6.4-5.9V5.9c0-3.5,2.8-5.8,6.8-5.8c2.8,0,5.2,0.9,7.2,2.5l-2.2,3.2
				c-1.7-1.2-3.4-1.9-5-1.9c-1.6,0-2.5,0.7-2.5,1.7v0.1c0,1.3,0.8,1.7,4.2,2.5c3.9,1,6.1,2.4,6.1,5.8V14
				C228,17.8,225.1,19.9,220.9,19.9z"/>
		</g>
		<polygon fill="#FF0000" points="129.1,6.3 129.8,9.4 132.8,8.5 130.5,10.6 132.8,12.7 129.8,11.8 129.1,14.9 128.4,11.8 
			125.4,12.7 127.6,10.6 125.4,8.5 128.4,9.4 		"/>
	</g>
</g>
</svg>
