<?xml version="1.0" encoding="utf-8"?>
<!-- Generator: Adobe Illustrator 18.1.0, SVG Export Plug-In . SVG Version: 6.00 Build 0)  -->
<!DOCTYPE svg PUBLIC "-//W3C//DTD SVG 1.1//EN" "http://www.w3.org/Graphics/SVG/1.1/DTD/svg11.dtd">
<svg version="1.1" id="Layer_1" xmlns="http://www.w3.org/2000/svg" xmlns:xlink="http://www.w3.org/1999/xlink" x="0px" y="0px"
	 viewBox="0 0 230 179" enable-background="new 0 0 230 179" xml:space="preserve">
<g>
	<g>
		<g>
			<g>
				<path fill="#FFFFFF" d="M155.3,49.3l-11,11c7.3,7.4,11.8,17.5,11.8,28.7c0,22.5-18.3,40.9-40.9,40.9
					c-22.6,0-40.9-18.3-40.9-40.9c0-12.4,5.5-23.5,14.3-31l-11-11C66,57.3,58.7,72.3,58.7,89c0,31.1,25.3,56.5,56.5,56.5
					s56.5-25.3,56.5-56.5C171.7,73.5,165.4,59.5,155.3,49.3z"/>
				<path fill="#FFFFFF" d="M131.4,73.2c4,4.1,6.5,9.7,6.5,15.9c0,12.5-10.2,22.7-22.7,22.7c-12.5,0-22.7-10.2-22.7-22.7
					c0-7.4,3.5-13.9,9-18.1L90.1,59.5C81.7,66.7,76.4,77.2,76.4,89c0,21.4,17.4,38.8,38.8,38.8c21.4,0,38.8-17.4,38.8-38.8
					c0-10.6-4.3-20.2-11.2-27.2L131.4,73.2z"/>
			</g>
			<g>
				<g>
					<g>
						<path fill="#FFFFFF" d="M104.2,40.7L104.2,40.7c-3.2-2.4-1.9-5.1-1.1-6.3c-1.2,1.7-4.3,6.1-3.3,9h0c0.2,1.3,1.4,2.4,2.8,2.4
							c1.5,0,2.8-1.3,2.8-2.8C105.3,42.1,104.9,41.2,104.2,40.7z"/>
					</g>
					<g>
						<path fill="#FFFFFF" d="M131.3,31.9L131.3,31.9c3.2-2.4,1.9-5.1,1.1-6.3c1.2,1.7,4.3,6.1,3.4,9l0,0c-0.2,1.3-1.4,2.4-2.8,2.4
							c-1.6,0-2.8-1.3-2.8-2.8C130.2,33.2,130.6,32.4,131.3,31.9z"/>
					</g>
					<path fill="#FFFFFF" d="M130,43.4c-1.9-2.9-4.2-5.6-6.7-7.9c1.6-3,2.7-5.5,2.7-5.5c4.3-10.1-0.5-21.8-10.5-26
						c6.5,2.8,9.7,10.7,6.8,16.8c-1.1,2.2-3.5,5.2-6.3,8.3c-1.9-1.6-3.5-3-4.5-4.3c-3.4-4.1-0.5-10-0.5-10s-4.3,1.7-5.3,8.2
						c-0.4,2.6,1.7,7.3,4.8,12.2c-3.1,3.2-5.7,5.9-6.6,7.1c-2.3,3-4.7,7.2-4.7,11.8c0,9.4,7.6,17,17,17c9.4,0,17-7.6,17-17
						C133.1,50.5,131.8,46.8,130,43.4z M116,59.5c-4.8-4.9-2.3-10.5,0.8-14.8C120,49.9,121,54.5,116,59.5z"/>
					<g>
						<path fill="#FFFFFF" d="M111.8,6.3L111.8,6.3c-3.2-2.4-1.9-5.1-1.1-6.3c-1.2,1.7-4.3,6.1-3.4,9l0,0c0.2,1.3,1.4,2.4,2.8,2.4
							c1.5,0,2.8-1.3,2.8-2.8C113,7.7,112.5,6.9,111.8,6.3z"/>
					</g>
				</g>
			</g>
			<polygon fill="#FFFFFF" points="114.9,76.7 117.1,85.7 126,83.1 119.2,89.4 126,95.8 117.1,93.1 114.9,102.2 112.8,93.1 
				103.9,95.8 110.7,89.4 103.9,83.1 112.8,85.7 			"/>
		</g>
	</g>
	<g>
		<g>
			<g>
				<path fill="#FFFFFF" d="M10,179c-5.7,0-10-4.4-10-10v-0.1c0-5.5,4.2-10.1,10.2-10.1c3.7,0,5.9,1.2,7.7,3l-2.7,3.1
					c-1.5-1.4-3-2.2-5-2.2c-3.3,0-5.6,2.7-5.6,6.1v0.1c0,3.3,2.3,6.1,5.6,6.1c2.2,0,3.6-0.9,5.1-2.3l2.7,2.8
					C16,177.7,13.7,179,10,179z"/>
				<path fill="#FFFFFF" d="M31.4,178.7v-7.8h-7.9v7.8h-4.3v-19.5h4.3v7.7h7.9v-7.7h4.3v19.5H31.4z"/>
				<path fill="#FFFFFF" d="M38.7,178.7v-19.5H43v19.5H38.7z"/>
				<path fill="#FFFFFF" d="M55,179c-5.7,0-10-4.4-10-10v-0.1c0-5.5,4.2-10.1,10.2-10.1c3.7,0,5.9,1.2,7.7,3l-2.7,3.1
					c-1.5-1.4-3-2.2-5-2.2c-3.3,0-5.6,2.7-5.6,6.1v0.1c0,3.3,2.3,6.1,5.6,6.1c2.2,0,3.6-0.9,5.1-2.3l2.7,2.8
					C61,177.7,58.7,179,55,179z"/>
				<path fill="#FFFFFF" d="M78.8,178.7l-1.8-4.4h-8.2l-1.8,4.4h-4.4l8.3-19.6h4l8.3,19.6H78.8z M72.9,164.2l-2.6,6.3h5.2
					L72.9,164.2z"/>
				<path fill="#FFFFFF" d="M92.5,179c-6.1,0-10.2-4.3-10.2-10v-0.1c0-5.5,4.3-10.1,10.2-10.1c3.5,0,5.6,0.9,7.7,2.7l-2.7,3.3
					c-1.5-1.3-2.8-2-5.1-2c-3.1,0-5.6,2.8-5.6,6.1v0.1c0,3.6,2.4,6.2,5.9,6.2c1.6,0,2.9-0.4,4-1.2v-2.8h-4.3v-3.7h8.5v8.5
					C98.8,177.6,96.1,179,92.5,179z"/>
				<path fill="#FFFFFF" d="M112.5,179c-6,0-10.3-4.5-10.3-10v-0.1c0-5.5,4.4-10.1,10.4-10.1c6,0,10.3,4.5,10.3,10v0.1
					C122.9,174.5,118.5,179,112.5,179z M118.4,168.9c0-3.3-2.4-6.1-5.9-6.1s-5.8,2.7-5.8,6.1v0.1c0,3.3,2.4,6.1,5.9,6.1
					C116,175,118.4,172.3,118.4,168.9L118.4,168.9z"/>
				<path fill="#FFFFFF" d="M147.5,179c-5.7,0-10-4.4-10-10v-0.1c0-5.5,4.2-10.1,10.2-10.1c3.7,0,5.9,1.2,7.7,3l-2.7,3.1
					c-1.5-1.4-3-2.2-5-2.2c-3.3,0-5.6,2.7-5.6,6.1v0.1c0,3.3,2.3,6.1,5.6,6.1c2.2,0,3.6-0.9,5.1-2.3l2.7,2.8
					C153.5,177.7,151.3,179,147.5,179z"/>
				<path fill="#FFFFFF" d="M171.4,178.7l-1.8-4.4h-8.2l-1.8,4.4h-4.4l8.3-19.6h4l8.3,19.6H171.4z M165.5,164.2l-2.6,6.3h5.2
					L165.5,164.2z"/>
				<path fill="#FFFFFF" d="M192,178.7V166l-5.5,8.3h-0.1L181,166v12.6h-4.2v-19.5h4.6l5.1,8.2l5.1-8.2h4.6v19.5H192z"/>
				<path fill="#FFFFFF" d="M206.8,172.8h-3.3v5.8h-4.3v-19.5h8c4.6,0,7.5,2.8,7.5,6.7v0.1C214.6,170.5,211.1,172.8,206.8,172.8z
					 M210.3,166c0-1.9-1.3-2.9-3.5-2.9h-3.3v6h3.4C209,169,210.3,167.7,210.3,166L210.3,166z"/>
				<path fill="#FFFFFF" d="M222.8,178.9c-3,0-5.9-1-8.3-3.1l2.5-3c1.8,1.4,3.6,2.4,5.8,2.4c1.8,0,2.8-0.7,2.8-1.8v-0.1
					c0-1.1-0.7-1.6-3.9-2.5c-3.9-1-6.5-2.1-6.5-6v-0.1c0-3.5,2.8-5.9,6.8-5.9c2.8,0,5.3,0.9,7.2,2.5l-2.2,3.2
					c-1.7-1.2-3.4-1.9-5.1-1.9c-1.6,0-2.5,0.8-2.5,1.7v0.1c0,1.3,0.8,1.7,4.2,2.6c4,1,6.2,2.4,6.2,5.8v0.1
					C230,176.8,227.1,178.9,222.8,178.9z"/>
			</g>
		</g>
		<polygon fill="#FFFFFF" points="130.2,165.2 130.9,168.3 133.9,167.4 131.6,169.5 133.9,171.7 130.9,170.8 130.2,173.8 
			129.5,170.8 126.5,171.7 128.8,169.5 126.5,167.4 129.5,168.3 		"/>
	</g>
</g>
</svg>
