<?xml version="1.0" encoding="utf-8"?>
<!-- Generator: Adobe Illustrator 18.1.0, SVG Export Plug-In . SVG Version: 6.00 Build 0)  -->
<!DOCTYPE svg PUBLIC "-//W3C//DTD SVG 1.1//EN" "http://www.w3.org/Graphics/SVG/1.1/DTD/svg11.dtd">
<svg version="1.1" id="Layer_1" xmlns="http://www.w3.org/2000/svg" xmlns:xlink="http://www.w3.org/1999/xlink" x="0px" y="0px"
	 viewBox="0 0 12 10" enable-background="new 0 0 12 10" xml:space="preserve">
<g>
	<g>
		<path fill-rule="evenodd" clip-rule="evenodd" fill="#515254" d="M11,8H1C0.4,8,0,8.4,0,9s0.4,1,1,1h10c0.6,0,1-0.4,1-1
			S11.6,8,11,8z M11,4H1C0.4,4,0,4.4,0,5s0.4,1,1,1h10c0.6,0,1-0.4,1-1S11.6,4,11,4z M1,2h10c0.6,0,1-0.4,1-1s-0.4-1-1-1H1
			C0.4,0,0,0.4,0,1S0.4,2,1,2z"/>
	</g>
</g>
</svg>
