<?xml version="1.0" encoding="utf-8"?>
<!-- Generator: Adobe Illustrator 18.1.0, SVG Export Plug-In . SVG Version: 6.00 Build 0)  -->
<!DOCTYPE svg PUBLIC "-//W3C//DTD SVG 1.1//EN" "http://www.w3.org/Graphics/SVG/1.1/DTD/svg11.dtd">
<svg version="1.1" id="Layer_1" xmlns="http://www.w3.org/2000/svg" xmlns:xlink="http://www.w3.org/1999/xlink" x="0px" y="0px"
	 viewBox="7 0 18 15" enable-background="new 7 0 18 15" xml:space="preserve">
<g>
	<g>
		<path fill="#838588" d="M23.5,12h-15C7.6,12,7,12.6,7,13.5S7.6,15,8.5,15h15c0.9,0,1.5-0.6,1.5-1.5S24.4,12,23.5,12z M23.5,6h-15
			C7.6,6,7,6.6,7,7.5S7.6,9,8.5,9h15C24.4,9,25,8.4,25,7.5S24.4,6,23.5,6z M8.5,3h15C24.4,3,25,2.4,25,1.5S24.4,0,23.5,0h-15
			C7.6,0,7,0.6,7,1.5S7.6,3,8.5,3z"/>
	</g>
</g>
</svg>
