<?xml version="1.0" encoding="utf-8"?>
<!-- Generator: Adobe Illustrator 18.1.0, SVG Export Plug-In . SVG Version: 6.00 Build 0)  -->
<!DOCTYPE svg PUBLIC "-//W3C//DTD SVG 1.1//EN" "http://www.w3.org/Graphics/SVG/1.1/DTD/svg11.dtd">
<svg version="1.1" id="Layer_1" xmlns="http://www.w3.org/2000/svg" xmlns:xlink="http://www.w3.org/1999/xlink" x="0px" y="0px"
	 viewBox="0 0 12 10" enable-background="new 0 0 12 10" xml:space="preserve">
<g display="none">
	<path display="inline" fill-rule="evenodd" clip-rule="evenodd" fill="none" stroke="#515254" stroke-miterlimit="10" d="M9.5,9.5
		h-7c-1.1,0-2-0.9-2-2v-5c0-1.1,0.9-2,2-2h7c1.1,0,2,0.9,2,2v5C11.5,8.6,10.6,9.5,9.5,9.5z"/>
	<path display="inline" fill-rule="evenodd" clip-rule="evenodd" fill="none" stroke="#515254" stroke-miterlimit="10" d="M10.9,1.3
		L7.1,5.1c-0.6,0.6-1.6,0.6-2.2,0L1.1,1.3"/>
</g>
<path fill="#515254" d="M10,0H2C0.9,0,0,0.9,0,2v6c0,1.1,0.9,2,2,2h8c1.1,0,2-0.9,2-2V2C12,0.9,11.1,0,10,0z M1.8,1.4H10 M10,1.4
	L6.6,4.8c-0.4,0.4-1,0.4-1.4,0L1.8,1.4 M10.8,8c0,0.5-0.5,1-1,1H2.2c-0.5,0-1-0.5-1-1V2.2l3.4,3.4c0.8,0.8,2.1,0.8,2.8,0l3.4-3.4V8z
	"/>
</svg>
