<?xml version="1.0" encoding="utf-8"?>
<!-- Generator: Adobe Illustrator 18.1.0, SVG Export Plug-In . SVG Version: 6.00 Build 0)  -->
<!DOCTYPE svg PUBLIC "-//W3C//DTD SVG 1.1//EN" "http://www.w3.org/Graphics/SVG/1.1/DTD/svg11.dtd">
<svg version="1.1" id="Layer_1" xmlns="http://www.w3.org/2000/svg" xmlns:xlink="http://www.w3.org/1999/xlink" x="0px" y="0px"
	 viewBox="0 0 192 192" enable-background="new 0 0 192 192" xml:space="preserve">
<path fill="#B3DDF2" d="M165.2,97c-0.4-10.9-3.4-21.6-8.9-31.4c-0.9-1.6-1.8-3.1-2.8-4.6c-1.9-5.8-4.4-11.2-8.9-15.3
	c-4.3-3.9-9.9-5.9-15.9-7.2c-9.9-5.3-21.2-8.3-32.8-8.3c-1.6,0-3.2,0.1-4.8,0.2c-3.2-0.7-6.4-1.1-9.5-1.1c-2.9,0-5.5,0.4-7.9,1.2
	c-5.7,1.8-10.3,5.7-14.4,10.3c-11,6.8-19.7,16.5-25.4,27.9c-4.1,4.5-7.6,9.5-8.9,15.6c-1.3,6.1-0.2,12,1.7,17.8
	c0.4,10.9,3.4,21.6,8.9,31.4c0.9,1.6,1.8,3.1,2.8,4.6c1.9,5.8,4.4,11.2,8.9,15.3c4.3,3.9,9.9,5.9,15.9,7.2
	c9.9,5.3,21.2,8.3,32.8,8.3c0,0,0,0,0,0c1.6,0,3.2-0.1,4.8-0.2c3.2,0.7,6.4,1.1,9.5,1.1c0,0,0,0,0,0c2.9,0,5.5-0.4,7.9-1.2
	c5.7-1.8,10.3-5.7,14.4-10.3c11-6.8,19.8-16.5,25.4-27.9c4.1-4.5,7.6-9.5,8.9-15.6C168.2,108.7,167.1,102.8,165.2,97z"/>
<path fill="#FFFFFF" d="M166.4,97c-0.4-11.1-3.4-22-9-31.9c-0.9-1.6-1.9-3.1-2.9-4.6c-1.9-5.9-4.5-11.4-9-15.5
	c-4.4-4-10.1-6-16.2-7.3c-10.1-5.4-21.5-8.4-33.4-8.4c-1.6,0-3.3,0.1-4.9,0.2c-3.2-0.7-6.5-1.2-9.6-1.2c-2.9,0-5.6,0.4-8,1.2
	c-5.8,1.9-10.4,5.8-14.6,10.4c-11.2,7-20.1,16.7-25.8,28.4c-4.2,4.6-7.7,9.6-9,15.8c-1.3,6.2-0.2,12.2,1.7,18.1
	c0.4,11.1,3.4,22,9,31.9c0.9,1.6,1.9,3.1,2.9,4.6c1.9,5.9,4.5,11.4,9,15.5c4.4,4,10.1,6,16.2,7.3c10.1,5.4,21.5,8.4,33.4,8.4
	c0,0,0,0,0,0c1.6,0,3.3-0.1,4.9-0.2c3.2,0.7,6.5,1.2,9.6,1.2c0,0,0,0,0,0c2.9,0,5.6-0.4,8-1.2c5.8-1.9,10.4-5.8,14.6-10.4
	c11.2-7,20.1-16.8,25.9-28.4c4.2-4.6,7.7-9.6,9-15.8C169.4,108.9,168.3,102.8,166.4,97z M163.2,88.4c-0.1-0.2-0.2-0.5-0.3-0.7
	c-1.2-3-2.4-5.9-3.3-8.7c-1-2.9-1.7-6.1-2.5-9.2c-0.1-0.2-0.1-0.4-0.2-0.6C160,75.4,162.1,81.8,163.2,88.4z M156.7,130.4
	c-1.9,2-4,4-6,5.9c-2.3,2.2-4.6,4.4-6.7,6.7c-0.5,0.6-1.1,1.2-1.6,1.9c1.1-2.1,2.1-4.3,3-6.5c1.3-3,2.6-5.8,4.1-8.4
	c1.5-2.7,3.4-5.5,5.3-8.1c3.7-5.4,7.6-11,9.1-17.1c-0.3,4.4-1.1,8.8-2.4,13.2C160.3,122.3,158.7,126.4,156.7,130.4z M91.9,165.3
	c-3.1-0.9-6.4-1.8-9.6-2.5c-0.9-0.2-1.9-0.4-2.8-0.6c2.4-0.1,4.8-0.3,7.2-0.6c3.2-0.3,6.5-0.6,9.6-0.6l0.3,0c2.9,0,5.9,0.3,9.1,0.5
	c3.2,0.3,6.5,0.6,9.8,0.6c0,0,0,0,0,0c3.6,0,6.7-0.4,9.5-1.1c-7.8,3.7-16.3,5.9-25,6.4C97.5,166.8,94.7,166.1,91.9,165.3z
	 M36.9,128.7c-0.8-3.1-1.6-6.3-2.6-9.4c-0.3-1-0.7-2.1-1.1-3.1c1.3,2.1,2.8,4.1,4.2,6.1c1.9,2.7,3.8,5.5,5.5,8.3
	c1.6,2.8,3.1,5.9,4.5,8.8c2.8,5.8,5.7,11.8,10,16.1c-7.2-4.9-13.5-11.3-18.4-18.7C38.3,134.2,37.6,131.4,36.9,128.7z M35.3,68.7
	c1.9-2,4-4,6-5.9c2.3-2.2,4.6-4.4,6.7-6.7c0.5-0.6,1.1-1.2,1.6-1.9c-1.1,2.1-2.1,4.3-3,6.5c-1.3,3-2.6,5.8-4.1,8.4
	c-1.5,2.7-3.4,5.5-5.3,8.1c-3.7,5.4-7.6,11-9.1,17.1c0.3-4.4,1.1-8.8,2.4-13.2C31.7,76.8,33.3,72.6,35.3,68.7z M100.1,33.8
	c3.1,0.9,6.4,1.8,9.6,2.5c0.9,0.2,1.9,0.4,2.8,0.6c-2.4,0.1-4.9,0.3-7.2,0.6c-3.2,0.3-6.5,0.6-9.6,0.6l-0.3,0
	c-2.9,0-5.9-0.3-9.1-0.5c-3.2-0.3-6.6-0.6-9.8-0.6c-3.6,0-6.7,0.4-9.5,1.1c7.8-3.7,16.3-5.9,25-6.4C94.5,32.2,97.3,33,100.1,33.8z
	 M155.1,70.3c0.8,3.1,1.6,6.3,2.6,9.4c0.3,1,0.7,2.1,1.1,3.1c-1.3-2.1-2.8-4.1-4.2-6.1c-1.9-2.7-3.8-5.5-5.5-8.3
	c-1.6-2.8-3.1-5.9-4.5-8.8c-2.8-5.8-5.7-11.8-10-16.1c7.2,4.9,13.5,11.3,18.4,18.7C153.7,64.9,154.4,67.6,155.1,70.3z M129.7,156.9
	c-3.7,2.2-8.2,3.2-14,3.2c0,0,0,0,0,0c-3.2,0-6.5-0.3-9.6-0.6c-3.1-0.3-6.3-0.5-9.3-0.5l-0.3,0c-3.2,0-6.6,0.3-9.8,0.6
	c-3.4,0.3-6.9,0.6-10.2,0.6c-5.5,0-9.7-0.9-13.2-2.9c-6.5-3.7-10-11-13.8-18.8c-1.4-3-2.9-6.1-4.6-9c-1.7-2.9-3.7-5.7-5.6-8.4
	c-4.9-7-9.6-13.7-9.7-21.2c0-7.7,4.8-14.8,9.5-21.6c1.9-2.7,3.8-5.5,5.4-8.3c1.5-2.7,2.9-5.7,4.2-8.6c3.4-7.5,6.9-15.3,13.8-19.4
	c3.7-2.2,8.2-3.2,14-3.2c3.2,0,6.5,0.3,9.6,0.6c3.1,0.3,6.3,0.5,9.3,0.5l0.3,0c3.2,0,6.6-0.3,9.8-0.6c3.4-0.3,6.9-0.6,10.2-0.6
	c5.5,0,9.7,0.9,13.2,2.9c6.5,3.7,10,11,13.8,18.8c1.4,3,2.9,6.1,4.6,9c1.7,2.9,3.7,5.7,5.6,8.4c4.9,7,9.6,13.7,9.7,21.2
	c0,7.7-4.8,14.8-9.5,21.6c-1.9,2.7-3.8,5.5-5.4,8.3c-1.5,2.7-2.9,5.7-4.2,8.6C140.1,145,136.6,152.8,129.7,156.9z M144.1,46.4
	c2.4,2.2,4.2,4.8,5.7,7.7c-4.1-4.8-8.7-9-13.9-12.6C138.9,42.7,141.7,44.2,144.1,46.4z M120.3,36c-0.2,0-0.4-0.1-0.6-0.1
	c-3.2-0.5-6.5-1-9.6-1.7c-3.1-0.7-6.3-1.6-9.5-2.4c-0.2-0.1-0.4-0.1-0.6-0.2C107,32,113.8,33.5,120.3,36z M74,31.3
	c2.3-0.7,4.7-1.1,7.4-1.1c0.6,0,1.3,0,1.9,0.1c-6.1,1.1-12,3-17.7,5.7C68.2,33.9,71,32.3,74,31.3z M53,46.8
	c-0.1,0.2-0.3,0.4-0.4,0.5c-2,2.5-4,5.1-6.1,7.4c-2,2.2-4.2,4.3-6.6,6.6c-0.2,0.2-0.3,0.3-0.5,0.5C43.1,56.1,47.7,51.1,53,46.8z
	 M26,84.4c0.7-3.3,2.1-6.2,3.9-9c-0.6,1.7-1.1,3.3-1.6,5.1c-1.3,4.5-2.1,9.1-2.4,13.7C25.3,90.9,25.3,87.7,26,84.4z M28.8,110.6
	c0.1,0.2,0.2,0.4,0.3,0.7c1.2,3,2.4,5.9,3.3,8.7c1,2.9,1.7,6.1,2.5,9.2c0.1,0.2,0.1,0.4,0.2,0.6C32,123.7,29.9,117.2,28.8,110.6z
	 M47.9,152.6c-2.4-2.2-4.2-4.8-5.7-7.7c4.1,4.8,8.7,9,13.9,12.6C53,156.3,50.3,154.8,47.9,152.6z M71.7,163.1c0.2,0,0.4,0.1,0.6,0.1
	c3.2,0.5,6.5,1,9.6,1.7c3.1,0.7,6.3,1.6,9.5,2.4c0.2,0.1,0.4,0.1,0.6,0.2C85,167,78.1,165.5,71.7,163.1z M118,167.7
	c-2.3,0.7-4.7,1.1-7.4,1.1h0c-0.6,0-1.3,0-1.9-0.1c6.1-1.1,12-3,17.6-5.7C123.8,165.1,121,166.7,118,167.7z M139,152.3
	c0.1-0.2,0.3-0.4,0.4-0.5c2-2.5,4-5.1,6.1-7.4c2-2.2,4.2-4.3,6.6-6.6c0.2-0.2,0.3-0.3,0.5-0.5C148.9,142.9,144.3,148,139,152.3z
	 M166,114.6c-0.7,3.3-2.1,6.2-3.9,9c0.6-1.7,1.1-3.3,1.6-5.1c1.3-4.5,2.1-9.1,2.4-13.6C166.7,108.1,166.7,111.4,166,114.6z"/>
<path fill="#515254" d="M0,99l0.8-13.8L5,85.5l-0.5,9l2.9,0.2l0.5-8.1l4,0.2l-0.5,8.1l6.1,0.4l-0.3,4.8L0,99z"/>
<path fill="#515254" d="M2.2,77.5l2.4-7.8c0.8-2.5,2-4.1,3.4-4.8c1.2-0.7,2.7-0.8,4.3-0.3l0,0c2.5,0.8,3.8,2.6,4,4.9l6.9-2.2
	l-1.6,5.3l-6,1.8l0,0l-0.6,2l5,1.5l-1.4,4.6L2.2,77.5z M12.4,72.3c0.5-1.6,0-2.7-1.2-3l0,0c-1.3-0.4-2.2,0.4-2.7,1.9l-0.9,3l4,1.2
	L12.4,72.3z"/>
<path fill="#515254" d="M16.9,60.5L16.9,60.5c-4.3-2.6-5.6-8.1-2.8-12.6c2.8-4.5,8.2-5.8,12.4-3.2l0,0c4.2,2.6,5.5,8.1,2.7,12.6
	C26.6,61.8,21.2,63.1,16.9,60.5z M24.1,48.8L24.1,48.8c-2.2-1.3-4.9-0.9-6.3,1.3c-1.4,2.2-0.5,4.8,1.6,6.1l0,0
	c2.1,1.3,4.9,0.9,6.3-1.3C27.1,52.7,26.2,50.1,24.1,48.8z"/>
<path fill="#515254" d="M24.9,33.5l3.3-3l11.4,1.8l-6.2-6.7l3.5-3.2l11.7,12.6l-3.1,2.8L33.7,36l6.4,6.9l-3.5,3.2L24.9,33.5z"/>
<path fill="#515254" d="M49.4,19.3l-4.5,2.5l-2-3.7l13.2-7.4l2,3.7L53.6,17L60,28.3l-4.2,2.3L49.4,19.3z"/>
<path fill="#515254" d="M62.7,16.3l7.6-2.7l1.4,3.9l-7.6,2.7L62.7,16.3z"/>
<path fill="#515254" d="M75.5,4.4l13.7-2l0.6,4l-9,1.3l0.4,2.6l8.2-1.2l0.5,3.7L81.7,14l0.4,2.7l9.2-1.3l0.6,4l-13.8,2L75.5,4.4z"/>
<path fill="#515254" d="M98,2l4.4,0.5l6.1,9.8l0.9-9.1l4.7,0.5l-1.8,17.1l-4.2-0.4l-6.4-10.2l-1,9.4l-4.7-0.5L98,2z"/>
<path fill="#515254" d="M123.3,5.9l6.2,2.4c5.7,2.2,7.8,6.8,6,11.4l0,0c-1.8,4.6-6.5,6.8-12.3,4.5l-6.1-2.4L123.3,5.9z M124.9,20.5
	c2.7,1,5,0.2,6-2.4l0,0c1-2.6-0.2-4.7-2.9-5.8l-1.8-0.7l-3.2,8.2L124.9,20.5z"/>
<path fill="#515254" d="M148.6,28.1L148.6,28.1c3.4-3.8,8.9-4.1,12.8-0.6c2.6,2.4,3.3,5,3,7.6l-4.5-0.3c0.1-1.6-0.2-2.9-1.4-4
	c-1.8-1.6-4.4-1.2-6.1,0.6l0,0c-1.7,1.9-1.8,4.6,0,6.2c1.3,1.2,2.7,1.3,4.3,1.1l1,4.3c-2.7,0.6-5.4,0.3-8.3-2.2
	C145.6,37.4,145.1,31.9,148.6,28.1z"/>
<path fill="#515254" d="M175,43.4l2.5,3.8L167.1,63l-2.8-4.3l1.9-2.7l-3.7-5.5l-3.2,0.7l-2.8-4.2L175,43.4z M168.5,52.7l3-4.3
	l-5.2,1.1L168.5,52.7z"/>
<path fill="#515254" d="M184.8,60.5l1.5,4.8l-5.1,5.9l7.6,1.9l1.5,4.8l-16.4,5.2l-1.4-4.5l9.4-3l-7.8-2.2l0-0.1l5.1-6.2l-9.4,3
	l-1.4-4.5L184.8,60.5z"/>
<path fill="#515254" d="M191.7,87.3l0.3,7.4c0.2,4.4-1.9,7.3-5.7,7.4l0,0c-4.1,0.2-6.3-2.9-6.5-7.1l-0.1-2.4l-4.9,0.2l-0.2-4.8
	L191.7,87.3z M183.4,94.7c0.1,1.7,1,2.7,2.4,2.6l0,0c1.5-0.1,2.2-1.1,2.1-2.9l-0.1-2.2l-4.6,0.2L183.4,94.7z"/>
<g>
	<polygon fill="#FF0000" points="108.9,183.8 106.7,184.8 107.7,187 105.8,185.5 104.4,187.5 104.8,185.1 102.3,184.9 104.6,184 
		103.5,181.8 105.4,183.3 106.8,181.3 106.5,183.7 	"/>
</g>
<path fill="#67A8C8" d="M30.8,155.5L30.8,155.5c2-2,5.1-2.1,7.2,0.1c1.3,1.3,1.6,2.6,1.6,3.8l-2.1,0.1c0-1-0.3-1.9-1-2.6
	c-1.2-1.2-3-1.1-4.2,0.1l0,0c-1.2,1.2-1.4,3-0.2,4.2c0.8,0.8,1.6,1,2.6,1.1l0,2c-1.5,0-2.8-0.3-4.1-1.7
	C28.7,160.5,28.8,157.4,30.8,155.5z"/>
<path fill="#67A8C8" d="M42.5,160.1l1.7,1.3l-2.4,3.1l3.1,2.5l2.4-3.1l1.7,1.3l-6.1,7.8l-1.7-1.3l2.4-3.1l-3.1-2.5l-2.4,3.1
	l-1.7-1.3L42.5,160.1z"/>
<path fill="#67A8C8" d="M51.4,166.7l1.8,1.2l-5.3,8.3l-1.8-1.2L51.4,166.7z"/>
<path fill="#67A8C8" d="M52.8,173.5L52.8,173.5c1.3-2.5,4.2-3.6,6.9-2.2c1.7,0.8,2.4,1.9,2.8,3.1l-2,0.8c-0.4-1-0.9-1.7-1.7-2.1
	c-1.5-0.8-3.2-0.1-3.9,1.4l0,0c-0.8,1.5-0.4,3.3,1.1,4.1c1,0.5,1.8,0.4,2.8,0.1l0.6,1.9c-1.4,0.5-2.7,0.6-4.4-0.3
	C52.5,179,51.5,176.1,52.8,173.5z"/>
<path fill="#67A8C8" d="M68.7,175.2l1.9,0.6l0.8,10.7l-2.1-0.7l-0.1-2.4l-3.9-1.4l-1.6,1.8l-2.1-0.7L68.7,175.2z M68.9,181.4
	l-0.2-3.4l-2.3,2.6L68.9,181.4z"/>
<path fill="#67A8C8" d="M74.7,182.4L74.7,182.4c0.5-2.8,3.1-4.6,6-4c1.7,0.3,2.7,1,3.5,2.1l-1.7,1.4c-0.6-0.8-1.2-1.3-2.3-1.5
	c-1.5-0.3-3,0.8-3.4,2.5l0,0c-0.3,1.8,0.6,3.3,2.3,3.6c0.8,0.2,1.5,0.1,2.1-0.2l0.3-1.4l-2.1-0.4l0.4-1.8l4.2,0.8l-0.8,4.2
	c-1.2,0.6-2.7,1.1-4.4,0.7C75.8,187.8,74.2,185.3,74.7,182.4z"/>
<path fill="#67A8C8" d="M87.2,184.7L87.2,184.7c0.1-2.8,2.4-5,5.5-4.9c3,0.1,5.1,2.5,5,5.3l0,0c-0.1,2.8-2.4,5-5.5,4.9
	C89.2,189.8,87.1,187.5,87.2,184.7z M95.4,185L95.4,185c0.1-1.7-1.1-3.2-2.8-3.2c-1.7-0.1-3,1.3-3.1,2.9l0,0
	c-0.1,1.7,1.1,3.1,2.8,3.2C94,188,95.3,186.7,95.4,185z"/>
<path fill="#67A8C8" d="M113.5,183.3L113.5,183.3c-0.7-2.7,0.8-5.5,3.7-6.2c1.8-0.5,3-0.1,4.1,0.5l-0.9,1.9
	c-0.9-0.5-1.8-0.7-2.7-0.4c-1.6,0.4-2.4,2-2,3.7l0,0c0.4,1.6,1.9,2.7,3.5,2.3c1.1-0.3,1.6-0.9,2.2-1.8l1.7,1
	c-0.7,1.3-1.6,2.2-3.5,2.7C116.9,187.7,114.2,186.1,113.5,183.3z"/>
<path fill="#67A8C8" d="M126.5,174.1l1.8-0.8l7.7,7.5l-2.1,0.9l-1.7-1.7l-3.8,1.6l0,2.4l-2,0.8L126.5,174.1z M130.8,178.6l-2.4-2.4
	l0,3.5L130.8,178.6z"/>
<path fill="#67A8C8" d="M134.4,170.7l2-1.2l4.4,2.2l0-4.9l2-1.2l5.1,8.4l-1.8,1.1l-3.3-5.5l-0.2,5l0,0l-4.5-2.1l3.3,5.5l-1.8,1.1
	L134.4,170.7z"/>
<path fill="#67A8C8" d="M145.4,163.6l3.1-2.6c1.8-1.5,3.8-1.3,5.1,0.2l0,0c1.4,1.8,0.8,3.8-0.9,5.2l-1.3,1l1.9,2.3l-1.7,1.4
	L145.4,163.6z M151.5,165c0.8-0.7,0.9-1.6,0.4-2.2l0,0c-0.6-0.7-1.5-0.7-2.3,0l-1.3,1.1l1.9,2.3L151.5,165z"/>
<path fill="#67A8C8" d="M158.5,163.5l-0.2-2c1.1-0.1,2.1-0.5,2.9-1.3c0.6-0.6,0.7-1.3,0.3-1.7l0,0c-0.4-0.4-0.8-0.3-2.3,0.6
	c-1.7,1.1-3,1.6-4.4,0.3l0,0c-1.3-1.2-1.2-3.1,0.2-4.5c1-1,2.2-1.6,3.4-1.8l0.4,1.9c-1,0.2-1.9,0.6-2.5,1.2
	c-0.6,0.6-0.6,1.2-0.3,1.5l0,0c0.5,0.4,0.9,0.3,2.4-0.6c1.8-1.1,3.1-1.4,4.3-0.2l0,0c1.4,1.4,1.2,3.2-0.3,4.7
	C161.5,162.6,160.1,163.4,158.5,163.5z"/>
<g>
	<path fill="#FFFFFF" d="M53.2,89.4v-7.8l27.4-12v8l-19.1,7.9l19.1,7.9v8.1L53.2,89.4z"/>
	<path fill="#515254" d="M80.5,69.6v8l-19.1,7.9l19.1,7.9v8.1l-27.4-12v-7.8L80.5,69.6 M80.5,67.9c-0.2,0-0.5,0-0.7,0.1L52.5,80
		c-0.6,0.3-1,0.9-1,1.6v7.8c0,0.7,0.4,1.3,1,1.6l27.4,12c0.2,0.1,0.5,0.1,0.7,0.1c0.3,0,0.7-0.1,0.9-0.3c0.5-0.3,0.8-0.9,0.8-1.4
		v-8.1c0-0.7-0.4-1.3-1.1-1.6l-15.2-6.3l15.2-6.3c0.6-0.3,1.1-0.9,1.1-1.6v-8c0-0.6-0.3-1.1-0.8-1.4C81.2,68,80.9,67.9,80.5,67.9
		L80.5,67.9z"/>
</g>
<g>
	<path fill="#FFFFFF" d="M105.4,60.2h7.3l-25.1,52.4h-7.3L105.4,60.2z"/>
	<path fill="#515254" d="M112.7,60.2l-25.1,52.4h-7.3l25.1-52.4H112.7 M112.7,58.5h-7.3c-0.7,0-1.3,0.4-1.6,1l-25.1,52.4
		c-0.3,0.5-0.2,1.2,0.1,1.7c0.3,0.5,0.9,0.8,1.5,0.8h7.3c0.7,0,1.3-0.4,1.6-1L114.2,61c0.3-0.5,0.2-1.2-0.1-1.7
		C113.8,58.8,113.2,58.5,112.7,58.5L112.7,58.5z"/>
</g>
<g>
	<path fill="#FFFFFF" d="M113.2,93.4l19.1-7.9l-19.1-7.9v-8.1l27.4,12v7.8l-27.4,12V93.4z"/>
	<path fill="#515254" d="M113.2,69.6l27.4,12v7.8l-27.4,12v-8l19.1-7.9l-19.1-7.9V69.6 M113.2,67.9c-0.3,0-0.7,0.1-0.9,0.3
		c-0.5,0.3-0.8,0.9-0.8,1.4v8.1c0,0.7,0.4,1.3,1.1,1.6l15.2,6.3l-15.2,6.3c-0.6,0.3-1.1,0.9-1.1,1.6v8c0,0.6,0.3,1.1,0.8,1.4
		c0.3,0.2,0.6,0.3,0.9,0.3c0.2,0,0.5,0,0.7-0.1l27.4-12c0.6-0.3,1-0.9,1-1.6v-7.8c0-0.7-0.4-1.3-1-1.6l-27.4-12
		C113.7,67.9,113.5,67.9,113.2,67.9L113.2,67.9z"/>
</g>
<polygon fill="#515254" points="107.8,151.1 99.9,154.1 79.2,146.2 87,143.2 "/>
<path fill="#FFFFFF" d="M99.9,154.8c-0.1,0-0.2,0-0.3,0l-20.7-7.9c-0.3-0.1-0.5-0.4-0.5-0.7c0-0.3,0.2-0.6,0.5-0.7l7.9-3
	c0.2-0.1,0.3-0.1,0.5,0l20.7,7.9c0.3,0.1,0.5,0.4,0.5,0.7s-0.2,0.6-0.5,0.7l-7.9,3C100.1,154.8,100,154.8,99.9,154.8z M81.2,146.2
	l18.7,7.1l5.9-2.2L87,144L81.2,146.2z"/>
<polygon fill="#FFCD03" points="87,143.3 79.1,146.2 74.4,144.4 82.2,141.4 "/>
<path fill="#FFFFFF" d="M79.1,146.9c-0.1,0-0.2,0-0.3,0l-4.8-1.8c-0.3-0.1-0.5-0.4-0.5-0.7c0-0.3,0.2-0.6,0.5-0.7l7.9-3
	c0.2-0.1,0.3-0.1,0.5,0l4.8,1.8c0.3,0.1,0.5,0.4,0.5,0.7c0,0.3-0.2,0.6-0.5,0.7l-7.9,3C79.3,146.9,79.2,146.9,79.1,146.9z
	 M76.4,144.4l2.8,1.1l5.9-2.2l-2.8-1.1L76.4,144.4z"/>
<polygon fill="#515254" points="110.7,155.2 100,154 107.7,151.1 "/>
<path fill="#FFFFFF" d="M110.7,155.9C110.7,155.9,110.7,155.9,110.7,155.9l-10.8-1.1c-0.3,0-0.6-0.3-0.6-0.6s0.1-0.6,0.4-0.8
	l7.6-2.9c0.3-0.1,0.6,0,0.8,0.2l3,4.1c0.2,0.2,0.2,0.5,0,0.8C111.2,155.8,111,155.9,110.7,155.9z M103,153.7l6.1,0.7l-1.8-2.3
	L103,153.7z"/>
<polygon fill="#515254" points="90.6,154.1 82.8,151.1 103.5,143.2 111.4,146.2 "/>
<path fill="#FFFFFF" d="M90.6,154.8c-0.1,0-0.2,0-0.3,0l-7.9-3c-0.3-0.1-0.5-0.4-0.5-0.7c0-0.3,0.2-0.6,0.5-0.7l20.7-7.9
	c0.2-0.1,0.3-0.1,0.5,0l7.9,3c0.3,0.1,0.5,0.4,0.5,0.7s-0.2,0.6-0.5,0.7l-20.7,7.9C90.8,154.8,90.7,154.8,90.6,154.8z M84.8,151.1
	l5.9,2.2l18.7-7.1l-5.9-2.2L84.8,151.1z"/>
<polygon fill="#FFCD03" points="111.3,146.2 103.4,143.2 108.2,141.4 116.1,144.4 "/>
<path fill="#FFFFFF" d="M111.3,146.9c-0.1,0-0.2,0-0.3,0l-7.9-3c-0.3-0.1-0.5-0.4-0.5-0.7c0-0.3,0.2-0.6,0.5-0.7l4.8-1.8
	c0.2-0.1,0.3-0.1,0.5,0l7.9,3c0.3,0.1,0.5,0.4,0.5,0.7s-0.2,0.6-0.5,0.7l-4.8,1.8C111.5,146.9,111.4,146.9,111.3,146.9z
	 M105.4,143.2l5.9,2.2l2.8-1.1l-5.9-2.2L105.4,143.2z"/>
<polygon fill="#515254" points="79.9,155.2 82.9,151.2 90.5,154.1 "/>
<path fill="#FFFFFF" d="M79.9,155.9c-0.3,0-0.5-0.1-0.6-0.4c-0.1-0.2-0.1-0.5,0-0.8l3-4.1c0.2-0.3,0.5-0.4,0.8-0.2l7.7,2.9
	c0.3,0.1,0.5,0.4,0.5,0.7c0,0.3-0.3,0.6-0.6,0.6L79.9,155.9C79.9,155.9,79.9,155.9,79.9,155.9z M83.1,152l-1.7,2.3l6.1-0.7L83.1,152
	z"/>
<g>
	<path fill="#FFCD03" d="M86.6,124.5L86.6,124.5c-2.4-1.8-1.5-3.9-0.8-4.8c-0.9,1.3-3.2,4.6-2.6,6.9h0c0.2,1,1,1.8,2.1,1.8
		c1.2,0,2.1-1,2.1-2.1C87.5,125.6,87.1,124.9,86.6,124.5z"/>
	<path fill="#FFFFFF" d="M85.3,129.1c-1.4,0-2.6-1-2.8-2.3c-0.7-2.4,1.4-5.7,2.7-7.5c0.2-0.3,0.7-0.4,1-0.2c0.3,0.2,0.4,0.7,0.2,1
		c-1,1.5-0.8,2.8,0.7,3.9c0.7,0.5,1.2,1.4,1.2,2.3C88.2,127.8,86.9,129.1,85.3,129.1z M83.9,126.3c0,0,0,0.1,0,0.1
		c0.1,0.7,0.7,1.2,1.4,1.2c0.8,0,1.4-0.6,1.4-1.4c0-0.5-0.2-0.9-0.6-1.2c-0.8-0.6-1.4-1.3-1.6-2.1C84,124.2,83.6,125.4,83.9,126.3z"
		/>
</g>
<g>
	<path fill="#FFCD03" d="M107.3,117.8L107.3,117.8c2.4-1.8,1.5-3.9,0.8-4.8c0.9,1.3,3.3,4.6,2.6,6.9h0c-0.2,1-1,1.8-2.1,1.8
		c-1.2,0-2.1-1-2.1-2.1C106.4,118.8,106.8,118.2,107.3,117.8z"/>
	<path fill="#FFFFFF" d="M108.6,122.3c-1.6,0-2.8-1.3-2.8-2.8c0-0.9,0.4-1.8,1.2-2.3c1.4-1.1,1.7-2.4,0.7-3.9
		c-0.2-0.3-0.1-0.7,0.2-1c0.3-0.2,0.7-0.2,1,0.1c1.3,1.7,3.4,5,2.7,7.5C111.1,121.4,109.9,122.3,108.6,122.3z M109.3,116.3
		c-0.3,0.8-0.8,1.5-1.6,2.1c-0.4,0.3-0.6,0.7-0.6,1.2c0,0.8,0.6,1.4,1.4,1.4c0.7,0,1.3-0.5,1.4-1.2c0,0,0-0.1,0-0.1
		C110.3,118.6,109.9,117.4,109.3,116.3z"/>
</g>
<path fill="#FFCD03" d="M106.3,126.6c-1.4-2.2-3.2-4.2-5.1-6c1.2-2.3,2-4.2,2-4.2c3.3-7.7-0.3-16.6-8-19.9c5,2.1,7.4,8.2,5.2,12.8
	c-0.8,1.7-2.7,4-4.8,6.4c-1.5-1.2-2.7-2.3-3.5-3.3c-2.6-3.1-0.4-7.7-0.4-7.7s-3.3,1.3-4.1,6.2c-0.3,2,1.3,5.5,3.6,9.3
	c-2.3,2.4-4.4,4.5-5.1,5.4c-1.8,2.3-3.6,5.5-3.6,9c0,7.2,5.8,13,13,13c7.2,0,13-5.8,13-13C108.6,132,107.7,129.2,106.3,126.6z
	 M95.6,138.9c-3.7-3.7-1.7-8,0.6-11.3C98.7,131.5,99.4,135.1,95.6,138.9z"/>
<path fill="#FFFFFF" d="M95.6,148.4c-7.5,0-13.7-6.1-13.7-13.7c0-3,1.3-6.2,3.8-9.4c0.6-0.8,1.9-2.2,3.7-4c0.3-0.4,0.7-0.7,1.1-1.1
	c-2.6-4.3-3.7-7.4-3.4-9.3c0.8-5.3,4.4-6.7,4.5-6.8c0.3-0.1,0.6,0,0.8,0.2c0.2,0.2,0.2,0.5,0.1,0.8c0,0-1.9,4.1,0.3,6.9
	c0.6,0.8,1.6,1.6,2.8,2.7c2.2-2.5,3.6-4.4,4.2-5.7c1-2,1-4.3,0.2-6.5c-0.9-2.4-2.7-4.3-5-5.3c0,0,0,0,0,0c-0.4-0.2-0.5-0.6-0.4-0.9
	c0.2-0.4,0.6-0.5,0.9-0.4l0,0c3.9,1.7,6.9,4.7,8.5,8.6s1.6,8.2-0.1,12.1c0,0.1-0.7,1.7-1.8,3.8c2,2,3.6,3.9,4.8,5.8c0,0,0,0,0,0.1
	c1.6,3,2.4,5.9,2.4,8.5C109.3,142.2,103.2,148.4,95.6,148.4z M90.4,106.6c-0.8,0.9-1.7,2.3-2,4.5c-0.2,1.6,1,4.7,3.5,8.8
	c0.2,0.3,0.1,0.6-0.1,0.9c-0.5,0.5-1,1-1.4,1.5c-1.6,1.7-3,3.2-3.6,3.9c-2.3,3-3.5,5.9-3.5,8.6c0,6.8,5.5,12.3,12.3,12.3
	c6.8,0,12.3-5.5,12.3-12.3c0-2.4-0.7-5-2.2-7.8c-1.2-1.9-2.8-3.8-5-5.9c-0.2-0.2-0.3-0.6-0.1-0.8c1.2-2.2,2-4.1,2-4.1
	c1.5-3.6,1.5-7.5,0.1-11.1c-0.3-0.8-0.7-1.6-1.2-2.3c0.7,2.3,0.5,4.7-0.5,6.8c-0.7,1.5-2.3,3.7-4.9,6.5c-0.3,0.3-0.7,0.3-1,0.1
	c-1.6-1.4-2.8-2.4-3.6-3.4C89.9,110.8,90,108.3,90.4,106.6z M95.6,139.6L95.6,139.6c-0.2,0-0.4-0.1-0.5-0.2c-3.2-3.2-3-7.3,0.6-12.2
	c0.1-0.2,0.4-0.3,0.6-0.3c0.2,0,0.4,0.1,0.6,0.3c2.2,3.5,3.8,7.6-0.7,12.1C96,139.5,95.8,139.6,95.6,139.6z M96.2,128.9
	c-2.4,3.6-2.6,6.5-0.6,8.9C98.4,134.8,97.9,132,96.2,128.9z"/>
<g>
	<path fill="#FFCD03" d="M92.4,98.3L92.4,98.3c-2.4-1.8-1.5-3.9-0.8-4.8c-0.9,1.3-3.3,4.6-2.6,6.9h0c0.2,1,1,1.8,2.1,1.8
		c1.2,0,2.1-1,2.1-2.1C93.3,99.3,92.9,98.7,92.4,98.3z"/>
	<path fill="#FFFFFF" d="M91.1,102.9c-1.4,0-2.6-1-2.8-2.3c-0.7-2.4,1.4-5.7,2.7-7.5c0.2-0.3,0.7-0.4,1-0.2c0.3,0.2,0.4,0.7,0.2,1
		c-1,1.5-0.8,2.8,0.7,3.9c0.7,0.5,1.2,1.4,1.2,2.3C94,101.6,92.7,102.9,91.1,102.9z M89.7,100.1c0,0,0,0.1,0,0.1
		c0.1,0.7,0.7,1.2,1.4,1.2c0.8,0,1.4-0.6,1.4-1.4c0-0.5-0.2-0.9-0.6-1.2c-0.8-0.6-1.4-1.3-1.6-2.1C89.8,98,89.4,99.3,89.7,100.1z"/>
</g>
</svg>
