<?xml version="1.0" encoding="utf-8"?>
<!-- Generator: Adobe Illustrator 18.1.0, SVG Export Plug-In . SVG Version: 6.00 Build 0)  -->
<!DOCTYPE svg PUBLIC "-//W3C//DTD SVG 1.1//EN" "http://www.w3.org/Graphics/SVG/1.1/DTD/svg11.dtd">
<svg version="1.1" id="Layer_1" xmlns="http://www.w3.org/2000/svg" xmlns:xlink="http://www.w3.org/1999/xlink" x="0px" y="0px"
	 viewBox="0 0 270 270" enable-background="new 0 0 270 270" xml:space="preserve">
<path fill="#B3DDF2" d="M234.6,136.4c-0.6-15.7-4.8-31.1-12.7-45.1c-1.3-2.3-2.6-4.4-4.1-6.6c-2.7-8.4-6.3-16.2-12.8-22
	c-6.2-5.7-14.3-8.5-22.9-10.4c-14.3-7.7-30.5-11.9-47.2-11.9c-2.3,0-4.6,0.1-6.9,0.3c-4.6-1-9.2-1.6-13.6-1.6
	c-4.1,0-7.9,0.6-11.4,1.7c-8.2,2.7-14.8,8.3-20.7,14.8C66.5,65.3,54,79.2,45.8,95.7c-5.9,6.5-10.9,13.6-12.8,22.4
	c-1.9,8.8-0.3,17.3,2.4,25.6c0.6,15.7,4.8,31.1,12.7,45.1c1.3,2.3,2.6,4.4,4,6.6c2.7,8.4,6.3,16.2,12.8,22
	c6.2,5.7,14.3,8.5,22.9,10.4c14.3,7.7,30.5,11.9,47.3,11.9c0,0,0,0,0,0c2.3,0,4.6-0.1,6.9-0.3c4.6,1,9.2,1.6,13.6,1.6c0,0,0,0,0,0
	c4.1,0,7.9-0.6,11.4-1.7c8.2-2.7,14.8-8.3,20.6-14.8c15.9-9.8,28.4-23.7,36.6-40.2c5.9-6.5,10.9-13.6,12.8-22.4
	C238.9,153.3,237.3,144.7,234.6,136.4z"/>
<path fill="#FFFFFF" d="M236.2,136.4c-0.6-15.9-4.9-31.6-12.9-45.9c-1.3-2.3-2.7-4.5-4.1-6.7c-2.7-8.5-6.4-16.4-13-22.4
	c-6.3-5.8-14.5-8.6-23.3-10.5c-14.5-7.8-31-12.1-48-12.1c-2.3,0-4.7,0.1-7,0.3c-4.7-1-9.3-1.7-13.8-1.7c-4.2,0-8,0.6-11.6,1.7
	c-8.4,2.7-15,8.4-21,15c-16.1,10-28.9,24.1-37.2,40.8c-6,6.6-11.1,13.8-13,22.8c-1.9,8.9-0.3,17.6,2.4,26.1
	c0.6,15.9,4.9,31.6,12.9,45.9c1.3,2.3,2.7,4.5,4.1,6.7c2.7,8.5,6.4,16.4,13,22.4c6.3,5.8,14.5,8.6,23.2,10.5
	c14.5,7.8,31,12.1,48,12.1c0,0,0,0,0,0c2.3,0,4.7-0.1,7-0.3c4.7,1,9.3,1.7,13.8,1.7c0,0,0,0,0,0c4.2,0,8-0.6,11.6-1.7
	c8.4-2.7,15-8.4,21-15c16.1-10,28.9-24.1,37.2-40.9c6-6.6,11.1-13.8,13-22.8C240.6,153.5,239,144.8,236.2,136.4z M231.6,124.1
	c-0.1-0.3-0.3-0.6-0.4-1c-1.8-4.3-3.4-8.4-4.7-12.5c-1.4-4.2-2.5-8.8-3.6-13.3c-0.1-0.3-0.1-0.6-0.2-0.9
	C227.1,105.3,230.1,114.6,231.6,124.1z M222.3,184.4c-2.8,2.9-5.7,5.7-8.6,8.5c-3.3,3.1-6.7,6.4-9.6,9.6c-0.8,0.9-1.6,1.8-2.3,2.7
	c1.5-3.1,3-6.2,4.4-9.3c1.9-4.3,3.8-8.4,5.9-12.1c2.2-3.9,4.9-7.8,7.6-11.7c5.4-7.8,10.9-15.8,13.1-24.6c-0.5,6.3-1.6,12.7-3.4,19
	C227.5,172.8,225.2,178.8,222.3,184.4z M129.2,234.7c-4.5-1.3-9.2-2.6-13.8-3.6c-1.3-0.3-2.7-0.5-4-0.8c3.5-0.2,7-0.5,10.4-0.8
	c4.6-0.4,9.4-0.9,13.9-0.9l0.4,0c4.2,0,8.5,0.4,13.1,0.8c4.6,0.4,9.4,0.8,14.1,0.8c0,0,0,0,0,0c5.2,0,9.7-0.5,13.7-1.6
	c-11.3,5.3-23.5,8.5-35.9,9.3C137.1,236.9,133.2,235.8,129.2,234.7z M50,182c-1.1-4.5-2.3-9.1-3.7-13.5c-0.5-1.5-1-3-1.6-4.5
	c1.9,3,4,5.9,6,8.8c2.7,3.9,5.5,7.9,7.9,11.9c2.4,4,4.5,8.4,6.5,12.7c4,8.4,8.2,17,14.4,23.2c-10.4-7.1-19.4-16.2-26.4-27
	C52,189.9,51,186,50,182z M47.7,95.7c2.8-2.9,5.7-5.7,8.6-8.5c3.3-3.1,6.7-6.4,9.6-9.6c0.8-0.9,1.6-1.8,2.3-2.7
	c-1.5,3.1-3,6.2-4.4,9.3c-1.9,4.3-3.8,8.4-5.9,12.1c-2.2,3.9-4.9,7.8-7.6,11.7c-5.4,7.8-10.9,15.8-13.1,24.5
	c0.5-6.3,1.6-12.7,3.4-18.9C42.5,107.3,44.9,101.4,47.7,95.7z M140.8,45.5c4.5,1.3,9.2,2.6,13.8,3.6c1.3,0.3,2.7,0.5,4,0.8
	c-3.5,0.2-7,0.5-10.4,0.8c-4.6,0.4-9.4,0.9-13.9,0.9l-0.4,0c-4.2,0-8.5-0.4-13.1-0.8c-4.6-0.4-9.4-0.8-14.1-0.8
	c-5.2,0-9.7,0.5-13.7,1.6c11.3-5.3,23.5-8.5,35.9-9.2C132.9,43.2,136.8,44.3,140.8,45.5z M220,98.1c1.1,4.5,2.3,9.1,3.7,13.5
	c0.5,1.5,1,3,1.6,4.5c-1.9-3-4-5.9-6-8.8c-2.7-3.9-5.5-7.9-7.9-11.9c-2.4-4-4.5-8.4-6.5-12.7c-4-8.4-8.2-17-14.4-23.2
	c10.3,7.1,19.4,16.2,26.4,27C218,90.2,219,94.2,220,98.1z M183.4,222.6c-5.3,3.1-11.8,4.6-20.2,4.6c0,0,0,0,0,0
	c-4.6,0-9.3-0.4-13.9-0.8c-4.4-0.4-9-0.8-13.3-0.8l-0.4,0c-4.6,0-9.4,0.5-14.1,0.9c-4.9,0.5-9.9,0.9-14.7,0.9c-8,0-14-1.3-19-4.2
	c-9.4-5.3-14.5-15.9-19.8-27c-2.1-4.3-4.2-8.8-6.7-12.9c-2.4-4.1-5.3-8.2-8-12.1c-7.1-10.1-13.8-19.7-13.9-30.5
	c-0.1-11.1,6.9-21.3,13.6-31c2.7-3.9,5.4-7.9,7.7-11.9c2.2-3.9,4.1-8.2,6-12.4c4.9-10.8,9.9-22,19.9-27.9c5.3-3.1,11.8-4.6,20.2-4.6
	c4.6,0,9.3,0.4,13.9,0.8c4.4,0.4,9,0.8,13.3,0.8l0.4,0c4.6,0,9.4-0.5,14.1-0.9c4.9-0.5,9.9-0.9,14.7-0.9c8,0,14,1.3,19,4.2
	c9.4,5.3,14.5,15.9,19.8,27c2.1,4.3,4.2,8.8,6.7,12.9c2.4,4.1,5.3,8.2,8,12.1c7.1,10.1,13.8,19.7,13.9,30.5
	c0.1,11.1-6.9,21.2-13.6,31c-2.7,3.9-5.4,7.9-7.7,11.9c-2.2,3.9-4.1,8.2-6,12.4C198.5,205.5,193.4,216.7,183.4,222.6z M204.2,63.6
	c3.4,3.1,6.1,6.9,8.2,11.1c-5.9-6.9-12.6-13-20-18.1C196.8,58.3,200.8,60.5,204.2,63.6z M169.9,48.6c-0.3,0-0.5-0.1-0.8-0.1
	c-4.6-0.7-9.3-1.4-13.8-2.4c-4.5-1-9.1-2.3-13.6-3.5c-0.3-0.1-0.6-0.2-0.9-0.2C150.9,42.9,160.7,45.1,169.9,48.6z M103.4,41.9
	c3.3-1.1,6.8-1.6,10.6-1.6c0.9,0,1.8,0,2.8,0.1c-8.8,1.6-17.3,4.4-25.4,8.2C95.1,45.7,99,43.4,103.4,41.9z M73.1,64.2
	c-0.2,0.3-0.4,0.5-0.6,0.8c-2.8,3.6-5.8,7.3-8.8,10.6c-2.9,3.2-6.1,6.2-9.5,9.5c-0.2,0.2-0.5,0.5-0.7,0.7
	C58.9,77.6,65.5,70.4,73.1,64.2z M34.2,118.3c1-4.7,3-9,5.6-12.9c-0.9,2.4-1.6,4.8-2.3,7.3c-1.8,6.5-3,13.1-3.5,19.6
	C33.3,127.7,33.2,123,34.2,118.3z M38.4,156c0.1,0.3,0.3,0.6,0.4,1c1.8,4.3,3.4,8.4,4.7,12.5c1.4,4.2,2.5,8.8,3.6,13.3
	c0.1,0.3,0.1,0.6,0.2,0.9C42.9,174.8,39.9,165.5,38.4,156z M65.8,216.5c-3.4-3.1-6.1-6.9-8.2-11.1c5.9,6.9,12.6,13,20,18.1
	C73.2,221.8,69.2,219.6,65.8,216.5z M100.1,231.5c0.3,0,0.6,0.1,0.8,0.1c4.6,0.7,9.3,1.4,13.8,2.4c4.5,1,9.1,2.3,13.6,3.5
	c0.3,0.1,0.6,0.2,0.9,0.3C119.1,237.2,109.3,235,100.1,231.5z M166.6,238.2c-3.3,1.1-6.8,1.6-10.6,1.6h0c-0.9,0-1.8,0-2.8-0.1
	c8.8-1.6,17.3-4.4,25.4-8.2C174.9,234.4,171,236.8,166.6,238.2z M196.9,216c0.2-0.3,0.4-0.5,0.6-0.8c2.8-3.6,5.8-7.3,8.8-10.6
	c2.9-3.2,6.1-6.2,9.5-9.5c0.2-0.2,0.5-0.5,0.7-0.7C211.1,202.5,204.5,209.8,196.9,216z M235.8,161.8c-1,4.7-3,9-5.6,12.9
	c0.9-2.4,1.6-4.8,2.3-7.3c1.8-6.5,3-13.1,3.5-19.6C236.7,152.4,236.8,157.1,235.8,161.8z"/>
<path fill="#FFFFFF" d="M41.8,220.4L41.8,220.4c2.9-2.8,7.4-3,10.4,0.2c1.9,1.9,2.3,3.7,2.3,5.5l-3,0.2c0-1.5-0.4-2.7-1.4-3.7
	c-1.7-1.7-4.3-1.6-6,0.1l0,0c-1.7,1.7-2,4.3-0.3,6c1.1,1.2,2.3,1.4,3.8,1.5l-0.1,2.8c-2.1,0-4-0.4-5.9-2.4
	C38.7,227.7,38.9,223.2,41.8,220.4z"/>
<path fill="#FFFFFF" d="M58.5,227l2.5,1.9l-3.5,4.4l4.5,3.5l3.5-4.4l2.5,1.9l-8.7,11.1l-2.5-1.9l3.5-4.5l-4.5-3.5l-3.5,4.5l-2.5-1.9
	L58.5,227z"/>
<path fill="#FFFFFF" d="M71.4,236.6l2.6,1.7l-7.6,11.9l-2.6-1.7L71.4,236.6z"/>
<path fill="#FFFFFF" d="M73.4,246.4L73.4,246.4c1.8-3.6,6.1-5.2,9.9-3.2c2.4,1.2,3.4,2.7,4,4.5l-2.8,1.1c-0.5-1.4-1.2-2.4-2.5-3.1
	c-2.1-1.1-4.6-0.1-5.7,2.1l0,0c-1.1,2.2-0.5,4.7,1.6,5.8c1.4,0.7,2.6,0.6,4.1,0.2l0.9,2.7c-2,0.7-3.9,0.9-6.3-0.4
	C72.9,254.3,71.6,250,73.4,246.4z"/>
<path fill="#FFFFFF" d="M96.2,248.8l2.7,0.9l1.1,15.5l-3.1-1.1l-0.2-3.4l-5.7-1.9l-2.3,2.6l-3-1L96.2,248.8z M96.6,257.7l-0.3-5
	l-3.3,3.7L96.6,257.7z"/>
<path fill="#FFFFFF" d="M104.9,259.2L104.9,259.2c0.8-4,4.5-6.6,8.7-5.8c2.5,0.5,3.9,1.5,5.1,3l-2.4,1.9c-0.9-1.1-1.7-1.8-3.4-2.1
	c-2.2-0.4-4.4,1.2-4.8,3.5l0,0c-0.5,2.5,0.9,4.7,3.3,5.2c1.1,0.2,2.2,0.1,3-0.3l0.4-2l-3.1-0.6l0.5-2.6l6,1.2l-1.2,6
	c-1.7,0.9-3.8,1.5-6.4,1C106.5,266.9,104.1,263.3,104.9,259.2z"/>
<path fill="#FFFFFF" d="M122.9,262.4L122.9,262.4c0.2-4.1,3.5-7.2,7.8-7c4.4,0.2,7.4,3.6,7.2,7.6l0,0c-0.2,4-3.5,7.2-7.8,7
	C125.7,269.8,122.7,266.4,122.9,262.4z M134.6,262.9L134.6,262.9c0.1-2.5-1.6-4.6-4.1-4.7c-2.5-0.1-4.3,1.8-4.4,4.2l0,0
	c-0.1,2.4,1.6,4.5,4.1,4.6C132.7,267.2,134.5,265.3,134.6,262.9z"/>
<path fill="#FFFFFF" d="M160.8,260.5L160.8,260.5c-1-3.9,1.1-7.9,5.3-9c2.6-0.7,4.4-0.2,6,0.7l-1.3,2.7c-1.3-0.7-2.5-1-3.9-0.6
	c-2.3,0.6-3.5,2.9-2.9,5.3l0,0c0.6,2.4,2.7,3.9,5.1,3.3c1.6-0.4,2.4-1.3,3.2-2.5l2.4,1.4c-1,1.9-2.3,3.2-5,3.9
	C165.6,266.8,161.8,264.4,160.8,260.5z"/>
<path fill="#FFFFFF" d="M179.4,247.2l2.7-1.1l11.1,10.8l-3,1.2l-2.4-2.4l-5.5,2.3l0,3.4l-2.9,1.2L179.4,247.2z M185.6,253.7
	l-3.5-3.5l0,5L185.6,253.7z"/>
<path fill="#FFFFFF" d="M190.7,242.3l2.9-1.7l6.3,3.2l0.1-7.1l2.9-1.7l7.4,12.1l-2.6,1.6l-4.8-7.9l-0.3,7.2l-0.1,0l-6.5-3.1l4.8,7.9
	l-2.6,1.6L190.7,242.3z"/>
<path fill="#FFFFFF" d="M206.5,232.1l4.5-3.7c2.6-2.1,5.5-1.9,7.3,0.3l0,0c2.1,2.5,1.2,5.5-1.3,7.5l-1.8,1.5l2.7,3.3l-2.4,2
	L206.5,232.1z M215.4,234.1c1.2-1,1.3-2.3,0.5-3.2l0,0c-0.9-1.1-2.1-1-3.3,0l-1.9,1.5l2.8,3.3L215.4,234.1z"/>
<path fill="#FFFFFF" d="M225.5,231.9l-0.3-2.9c1.6-0.2,3-0.7,4.2-1.9c0.9-0.9,1-1.8,0.4-2.4l0,0c-0.6-0.5-1.2-0.5-3.3,0.8
	c-2.5,1.6-4.3,2.3-6.4,0.4l0,0c-1.9-1.8-1.7-4.4,0.3-6.5c1.4-1.5,3.1-2.3,4.9-2.6l0.6,2.8c-1.5,0.3-2.7,0.8-3.6,1.7
	c-0.8,0.9-0.9,1.7-0.4,2.2l0,0c0.7,0.6,1.3,0.4,3.5-0.9c2.5-1.6,4.4-2,6.2-0.3l0,0c2,1.9,1.7,4.6-0.4,6.8
	C229.8,230.7,227.7,231.7,225.5,231.9z"/>
<path fill="#FFFFFF" d="M6.4,88l3.3-6.5l11.2-1L15,71l3.3-6.5l22.1,11.1l-3.1,6.1l-12.7-6.4l5.8,10l-0.1,0.1L19,86.8l12.7,6.4l-3,6
	L6.4,88z"/>
<path fill="#FFFFFF" d="M34.6,62.5L34.6,62.5c-5.3-4.9-5.6-13-0.4-18.6c5.2-5.6,13.2-5.9,18.5-1l0.1,0c5.2,4.8,5.5,13,0.3,18.6
	C47.9,67.1,39.8,67.4,34.6,62.5z M48,48.1L48,48.1c-2.7-2.5-6.7-2.7-9.3,0.1c-2.6,2.8-2,6.7,0.6,9.1l0.1,0c2.6,2.4,6.7,2.7,9.2-0.1
	C51.2,54.5,50.6,50.6,48,48.1z"/>
<path fill="#FFFFFF" d="M53.2,27L64,20.2c2.6-1.7,4.9-2.2,6.9-1.7c1.4,0.3,2.6,1.1,3.5,2.5l0,0.1c1.5,2.4,1.1,4.7-0.3,6.7
	c3.1-0.8,5.6-0.4,7.4,2.5l0,0.1c2.3,3.6,0.7,7.6-4.3,10.8L66.5,48L53.2,27z M67.8,29.5c1.8-1.1,2.4-2.3,1.6-3.6l0-0.1
	c-0.7-1.1-2-1.2-3.8-0.1l-3.8,2.4l2.3,3.7L67.8,29.5z M73.7,36.9c1.8-1.1,2.3-2.4,1.6-3.7l0-0.1c-0.7-1.1-2.1-1.3-4-0.1l-4.4,2.8
	l2.4,3.9L73.7,36.9z"/>
<path fill="#FFFFFF" d="M81.8,11l6.4-2.5l9.1,23l-6.4,2.5L81.8,11z"/>
<path fill="#FFFFFF" d="M99,4.8l6.7-1.4l3.8,18.4l11.8-2.4l1.2,5.9l-18.5,3.8L99,4.8z"/>
<path fill="#FFFFFF" d="M127.8,0l19.9,0.3l-0.1,5.8L134.5,6l-0.1,3.8l11.9,0.2l-0.1,5.4l-11.9-0.2l-0.1,3.9l13.3,0.2l-0.1,5.8
	l-20.1-0.3L127.8,0z"/>
<path fill="#FFFFFF" d="M169.3,16.6L169.3,16.6c2.6-6.8,9.8-10.2,16.8-7.5c4.7,1.8,7,4.9,8,8.6l-6.3,1.9c-0.7-2.2-1.8-3.8-4-4.6
	c-3.2-1.2-6.6,0.7-7.9,4l0,0.1c-1.3,3.5-0.1,7.1,3.2,8.3c2.4,0.9,4.3,0.3,6.3-0.8l3.5,5.3c-3.3,2.2-7.1,3.3-12.2,1.3
	C170.1,30.6,166.7,23.5,169.3,16.6z"/>
<path fill="#FFFFFF" d="M212.8,23.4l5.4,3.8l-5.8,26.5l-6-4.3l1.1-4.7l-7.8-5.5l-4,2.6l-5.9-4.2L212.8,23.4z M208.9,39.3l1.8-7.3
	l-6.4,4.1L208.9,39.3z"/>
<path fill="#FFFFFF" d="M234.8,41.2l4.6,5.6l-3.7,10.6l11.2-1.4l4.6,5.6l-19.3,15.6l-4.3-5.3l11.1-9l-11.5,1.2l-0.1-0.1l3.5-11
	l-11,8.9l-4.2-5.2L234.8,41.2z"/>
<path fill="#FFFFFF" d="M258,73.4l4.3,9.7c2.5,5.7,1.2,10.7-3.8,13l-0.1,0c-5.3,2.4-10-0.5-12.5-6.1l-1.4-3.1l-6.5,2.9l-2.8-6.3
	L258,73.4z M250.8,87.6c1,2.2,2.8,3.1,4.5,2.3l0.1,0c1.9-0.9,2.4-2.7,1.4-4.9l-1.3-2.9l-6,2.7L250.8,87.6z"/>
<g>
	<polygon fill="#FF0000" points="154.1,261.2 150.9,262.5 152.4,265.7 149.6,263.6 147.7,266.5 148.1,263 144.6,262.8 147.9,261.4 
		146.3,258.3 149.1,260.4 151,257.5 150.6,261 	"/>
</g>
<path fill="#515254" d="M104.5,112.6c-5.5,0-10.7-2.4-14.3-6.6c-3.3-3.8-4.9-8.7-4.5-13.7c0.4-5,2.7-9.6,6.5-12.9
	c3.4-3,7.8-4.6,12.3-4.6c5.5,0,10.7,2.4,14.3,6.6c6.8,7.9,5.9,19.9-2,26.7C113.4,110.9,109,112.6,104.5,112.6z M104.5,79.3
	c-3.4,0-6.8,1.2-9.4,3.5c-2.9,2.5-4.7,6-5,9.8c-0.3,3.8,0.9,7.6,3.5,10.5c2.7,3.2,6.7,5,10.9,5c3.4,0,6.8-1.2,9.4-3.5
	c6-5.2,6.7-14.3,1.5-20.3C112.6,81.1,108.7,79.3,104.5,79.3z"/>
<path fill="#FFFFFF" d="M166.7,92c-3.5,0.5-5.7,3.7-5.1,7.2l0.4,2.9c-0.5,0-1.1,0.1-1.7,0.2l-1.6-5.1c-1.2-3.8-5-6-8.7-4.8
	c-3.8,1.2-5.6,5-4.4,8.8l1.5,4.8c-0.3,0.1-0.6,0.2-1,0.4l-4.7-6c-2.4-3.1-6.7-3.9-9.9-1.4c-3.1,2.4-3.5,6.7-1.1,9.8l3.2,4.1
	c-0.4,0.3-0.8,0.7-1.2,1L110,89.1c-2.7-2.9-7.1-3.3-9.9-0.6c-2.9,2.7-2.9,7-0.2,9.9l27.3,29.7c0.4,3.1,1.5,6.2,3.1,9.3l-15.8,0.6
	c-3.9,0.2-7.1,3.2-6.9,7.2c0.2,3.9,3.4,6.7,7.3,6.6l25.5-1c2,2.1,4.2,4,6.4,5.8c14.1,11.5,24,7.2,34.6-1.9c8.8-7.6,19.5-13,6.2-33.3
	c-4.6-7-8.3-12.3-12.6-15.5l-1.3-8.3C173.3,94,170.2,91.5,166.7,92z"/>
<path fill="#515254" d="M163,165.1C163,165.1,163,165.1,163,165.1c-5.5,0-11.1-2.4-17.1-7.3c-2.1-1.7-4.2-3.6-6.1-5.5l-24.9,1
	c-4.9,0.2-8.7-3.3-8.9-8c-0.1-2.3,0.7-4.5,2.4-6.1c1.6-1.6,3.7-2.5,6-2.6l13.5-0.5c-1.1-2.5-1.8-4.9-2.2-7.2l-27-29.4
	c-3.3-3.5-3.1-8.8,0.3-12c1.5-1.4,3.5-2.2,5.6-2.2c2.4,0,4.8,1,6.5,2.9l16.6,18.1c-0.2-0.9-0.3-1.9-0.2-2.9c0.2-2.2,1.4-4.3,3.2-5.7
	c1.5-1.2,3.2-1.8,5.1-1.8c2.7,0,5.2,1.3,6.9,3.5l1.4,1.8c-0.5-2.1-0.3-4.2,0.6-6.1c1-2,2.8-3.5,5-4.2c0.8-0.3,1.7-0.4,2.5-0.4
	c3.7,0,6.9,2.5,8.1,6.2c0.6-3.1,3-5.6,6.4-6.1c0.4-0.1,0.8-0.1,1.2-0.1c3.8,0,7,2.9,7.6,6.8l1.2,7.7c4.5,3.5,8.3,9.1,12.5,15.5
	c12.7,19.4,4.3,26.4-3.9,33.1c-0.9,0.7-1.7,1.4-2.6,2.2C177.1,160.4,170.7,165.1,163,165.1z M141,149.2l0.5,0.5c2,2,4.1,3.9,6.3,5.7
	c5.5,4.5,10.4,6.6,15.2,6.6c5.3,0,10.5-2.6,17.5-8.5c0.9-0.8,1.8-1.5,2.7-2.2c8.1-6.7,14.6-11.9,3.3-29.1c-4.2-6.4-8-12-12.3-15.2
	l-0.5-0.4l-1.3-8.9c-0.4-2.5-2.3-4.3-4.6-4.3c-0.2,0-0.5,0-0.7,0.1c-2.6,0.4-4.3,2.7-3.9,5.5l0.7,4.5l-1.6,0.1c-0.5,0-1,0.1-1.6,0.1
	l-1.2,0.1l-2-6.3c-0.8-2.4-2.9-4.1-5.2-4.1c-0.5,0-1.1,0.1-1.6,0.2c-1.4,0.4-2.5,1.4-3.2,2.7c-0.6,1.3-0.7,2.8-0.3,4.3l1.9,6.1
	l-1.3,0.5c-0.3,0.1-0.6,0.2-0.9,0.4l-1,0.4l-5.4-6.9c-1.1-1.5-2.8-2.3-4.5-2.3c-1.2,0-2.3,0.4-3.2,1.1c-1.2,0.9-1.9,2.2-2,3.6
	c-0.1,1.4,0.3,2.9,1.2,4.1l4.1,5.3l-1.1,0.9c-0.3,0.3-0.7,0.6-1.1,1l-1.1,1l-23.6-25.8c-1.1-1.2-2.7-1.9-4.3-1.9
	c-1.3,0-2.6,0.5-3.6,1.4c-2.2,2.1-2.3,5.4-0.1,7.7l27.6,30.1l0.1,0.5c0.3,2.7,1.3,5.7,2.9,8.8l1.1,2.1l-18.1,0.7
	c-1.5,0.1-3,0.7-4,1.7c-1,1-1.6,2.4-1.5,3.9c0.1,3,2.6,5.3,5.8,5.1L141,149.2z"/>
<polygon fill="#515254" points="152.5,214.1 141.1,218.4 111.3,207.1 122.6,202.8 "/>
<path fill="#FFFFFF" d="M141.1,219.4c-0.1,0-0.2,0-0.4-0.1L111,208c-0.4-0.1-0.7-0.5-0.7-1c0-0.4,0.3-0.8,0.7-0.9l11.3-4.3
	c0.2-0.1,0.5-0.1,0.7,0l29.8,11.3c0.4,0.1,0.7,0.5,0.7,0.9c0,0.4-0.3,0.8-0.7,1l-11.3,4.3C141.4,219.4,141.3,219.4,141.1,219.4z
	 M114.2,207.1l26.9,10.2l8.5-3.2l-27-10.2L114.2,207.1z"/>
<polygon fill="#FFCD03" points="122.6,202.8 111.3,207.1 104.4,204.5 115.7,200.2 "/>
<path fill="#FFFFFF" d="M111.3,208.1c-0.1,0-0.2,0-0.4-0.1l-6.8-2.6c-0.4-0.1-0.7-0.5-0.7-0.9c0-0.4,0.3-0.8,0.7-1l11.3-4.3
	c0.2-0.1,0.5-0.1,0.7,0l6.8,2.6c0.4,0.1,0.7,0.5,0.7,0.9c0,0.4-0.3,0.8-0.7,0.9l-11.3,4.3C111.5,208.1,111.4,208.1,111.3,208.1z
	 M107.3,204.5l4,1.5l8.4-3.2l-4-1.5L107.3,204.5z"/>
<polygon fill="#515254" points="156.7,220 141.3,218.3 152.3,214.2 "/>
<path fill="#FFFFFF" d="M156.7,221c0,0-0.1,0-0.1,0l-15.4-1.6c-0.5-0.1-0.8-0.4-0.9-0.9c-0.1-0.5,0.2-0.9,0.6-1.1l11-4.2
	c0.4-0.2,0.9,0,1.2,0.3l4.4,5.8c0.2,0.3,0.3,0.8,0.1,1.1C157.4,220.8,157,221,156.7,221z M145.6,217.8l8.8,0.9l-2.5-3.3L145.6,217.8
	z"/>
<polygon fill="#515254" points="127.8,218.4 116.5,214.1 146.3,202.8 157.6,207.1 "/>
<path fill="#FFFFFF" d="M127.8,219.4c-0.1,0-0.2,0-0.4-0.1l-11.3-4.3c-0.4-0.1-0.7-0.5-0.7-1c0-0.4,0.3-0.8,0.7-1l29.8-11.3
	c0.2-0.1,0.5-0.1,0.7,0l11.3,4.3c0.4,0.1,0.7,0.5,0.7,1c0,0.4-0.3,0.8-0.7,1l-29.8,11.3C128.1,219.4,127.9,219.4,127.8,219.4z
	 M119.4,214.1l8.4,3.2l26.9-10.2l-8.4-3.2L119.4,214.1z"/>
<polygon fill="#FFCD03" points="157.5,207.1 146.2,202.8 153.1,200.2 164.4,204.5 "/>
<path fill="#FFFFFF" d="M157.5,208.1c-0.1,0-0.2,0-0.4-0.1l-11.3-4.3c-0.4-0.1-0.7-0.5-0.7-1s0.3-0.8,0.7-1l6.9-2.6
	c0.2-0.1,0.5-0.1,0.7,0l11.3,4.3c0.4,0.1,0.7,0.5,0.7,1s-0.3,0.8-0.7,1l-6.8,2.6C157.8,208.1,157.6,208.1,157.5,208.1z M149.1,202.8
	l8.4,3.2l4-1.5l-8.4-3.2L149.1,202.8z"/>
<polygon fill="#515254" points="112.3,220 116.7,214.2 127.7,218.4 "/>
<path fill="#FFFFFF" d="M112.3,221c-0.4,0-0.7-0.2-0.9-0.5c-0.2-0.4-0.2-0.8,0.1-1.1l4.3-5.8c0.3-0.4,0.8-0.5,1.2-0.3l11,4.2
	c0.4,0.2,0.7,0.6,0.6,1.1c-0.1,0.5-0.4,0.8-0.9,0.9l-15.3,1.7C112.4,221,112.4,221,112.3,221z M117,215.4l-2.5,3.4l8.8-1L117,215.4z
	"/>
<path fill="#FFCD03" d="M122,175.9L122,175.9c-3.5-2.6-2.1-5.6-1.2-7c-1.4,1.8-4.7,6.7-3.7,9.9h0c0.2,1.5,1.5,2.6,3,2.6
	c1.7,0,3.1-1.4,3.1-3.1C123.3,177.4,122.8,176.5,122,175.9z"/>
<path fill="#FFFFFF" d="M120.2,182.5c-2,0-3.7-1.4-4-3.4c-1.1-3.5,1.9-8.3,3.8-10.8c0.3-0.4,1-0.5,1.4-0.2c0.4,0.3,0.6,0.9,0.3,1.4
	c-1,1.5-1.6,3.6,0.9,5.6c1,0.7,1.7,2,1.7,3.3C124.3,180.6,122.4,182.5,120.2,182.5z M118.1,178.5c0,0.1,0,0.1,0.1,0.2
	c0.1,1,1,1.7,2,1.7c1.1,0,2-0.9,2-2.1c0-0.7-0.3-1.3-0.8-1.6c-1.2-0.9-2-1.9-2.4-3C118.3,175.4,117.7,177.1,118.1,178.5z"/>
<path fill="#FFCD03" d="M151.8,166.2L151.8,166.2c3.5-2.6,2.1-5.6,1.2-7c1.4,1.8,4.7,6.7,3.7,9.9l0,0c-0.2,1.5-1.5,2.6-3,2.6
	c-1.7,0-3.1-1.4-3.1-3.1C150.5,167.6,151,166.7,151.8,166.2z"/>
<path fill="#FFFFFF" d="M153.6,172.7c-2.3,0-4.1-1.8-4.1-4.1c0-1.3,0.6-2.5,1.7-3.3c2.1-1.5,2.4-3.4,0.9-5.6
	c-0.3-0.5-0.2-1.1,0.3-1.4c0.4-0.3,1.1-0.2,1.4,0.2c1.9,2.5,4.9,7.2,3.9,10.8C157.3,171.3,155.6,172.7,153.6,172.7z M154.7,164
	c-0.4,1.1-1.2,2.1-2.3,3c-0.6,0.4-0.9,1-0.9,1.7c0,1.1,0.9,2.1,2.1,2.1c1,0,1.9-0.7,2-1.8c0,0,0-0.1,0-0.1
	C156,167.7,155.7,166,154.7,164z"/>
<path fill="#FFCD03" d="M150.4,178.8c-2.1-3.2-4.6-6.1-7.3-8.6c1.8-3.3,2.9-6,2.9-6c4.7-11.1-0.5-23.9-11.6-28.6
	c7.1,3,10.7,11.7,7.4,18.4c-1.2,2.4-3.8,5.7-6.9,9.2c-2.1-1.8-3.9-3.3-5-4.7c-3.7-4.5-0.6-11-0.6-11s-4.8,1.9-5.8,9
	c-0.4,2.9,1.9,8,5.2,13.4c-3.4,3.5-6.3,6.5-7.3,7.8c-2.5,3.3-5.2,7.9-5.2,12.9c0,10.3,8.4,18.7,18.7,18.7c10.3,0,18.7-8.4,18.7-18.7
	C153.7,186.6,152.3,182.6,150.4,178.8z M135,196.6c-5.3-5.3-2.5-11.5,0.9-16.2C139.4,185.9,140.5,191,135,196.6z"/>
<path fill="#FFFFFF" d="M135,210.2c-10.9,0-19.7-8.8-19.7-19.7c0-4.3,1.8-8.8,5.4-13.5c0.8-1.1,2.8-3.1,5.3-5.8c0.5-0.5,1-1,1.5-1.6
	c-3.7-6.1-5.4-10.6-5-13.4c1.1-7.6,6.2-9.7,6.5-9.8c0.4-0.2,0.8-0.1,1.1,0.3c0.3,0.3,0.4,0.8,0.2,1.1c0,0.1-2.8,6,0.4,9.9
	c0.9,1.2,2.4,2.5,4.1,3.9c3.2-3.6,5.2-6.3,6.1-8.2c1.4-2.8,1.5-6.1,0.3-9.3c-1.3-3.5-3.9-6.2-7.2-7.7c-0.5-0.2-0.8-0.8-0.5-1.3
	c0.2-0.5,0.8-0.8,1.3-0.5l0,0c0,0,0,0,0,0c11.6,4.9,17,18.3,12.1,29.9c0,0.1-1,2.4-2.6,5.4c2.9,2.8,5.1,5.5,6.9,8.3c0,0,0,0,0,0.1
	c2.3,4.4,3.4,8.5,3.4,12.1C154.7,201.4,145.9,210.2,135,210.2z M127.5,150.1c-1.2,1.2-2.4,3.3-2.9,6.5c-0.3,2.3,1.5,6.8,5.1,12.7
	c0.2,0.4,0.2,0.9-0.1,1.2c-0.7,0.7-1.4,1.4-2,2.1c-2.4,2.5-4.4,4.6-5.2,5.6c-3.3,4.3-5,8.5-5,12.3c0,9.7,7.9,17.7,17.7,17.7
	c9.7,0,17.7-7.9,17.7-17.7c0-3.3-1.1-7.1-3.2-11.2c-1.8-2.8-4.1-5.6-7.1-8.4c-0.3-0.3-0.4-0.8-0.2-1.2c1.8-3.2,2.9-5.9,2.9-5.9
	c2.7-6.5,1.9-13.6-1.5-19.1c1,3.4,0.7,6.8-0.8,9.8c-1.1,2.2-3.3,5.2-7,9.4c-0.4,0.4-1,0.5-1.4,0.1c-2.1-1.8-3.9-3.4-5.1-4.8
	C126.8,156.1,126.9,152.6,127.5,150.1z M135,197.6C135,197.6,135,197.6,135,197.6c-0.3,0-0.5-0.1-0.7-0.3
	c-4.6-4.6-4.3-10.5,0.8-17.5c0.2-0.3,0.5-0.4,0.9-0.4c0.3,0,0.6,0.2,0.8,0.5c3.1,5,5.4,11-1.1,17.5
	C135.5,197.5,135.3,197.6,135,197.6z M135.8,182.2c-3.5,5.2-3.7,9.4-0.8,12.8C138.9,190.7,138.3,186.7,135.8,182.2z"/>
<path fill="#FFCD03" d="M130.4,138.2L130.4,138.2c-3.5-2.6-2.1-5.6-1.2-7c-1.4,1.8-4.7,6.7-3.7,9.9l0,0c0.2,1.5,1.5,2.6,3,2.6
	c1.7,0,3.1-1.4,3.1-3.1C131.6,139.6,131.1,138.7,130.4,138.2z"/>
<path fill="#FFFFFF" d="M128.5,144.8c-2,0-3.7-1.4-4-3.4c-1-3.5,2-8.2,3.9-10.8c0.3-0.4,1-0.5,1.4-0.2c0.4,0.3,0.6,0.9,0.3,1.4
	c-1.4,2.1-1.1,4,1,5.6c1,0.7,1.7,2,1.7,3.3C132.6,142.9,130.8,144.8,128.5,144.8z M127.4,136c-0.8,1.7-1.4,3.5-0.9,4.8
	c0,0,0,0.1,0,0.1c0.2,1,1,1.7,2,1.7c1.1,0,2.1-0.9,2.1-2.1c0-0.7-0.3-1.3-0.8-1.6C128.6,138.1,127.8,137.1,127.4,136z"/>
</svg>
