<svg xmlns="http://www.w3.org/2000/svg" width="270" height="270" viewBox="0 0 270 270">
  <g fill="none" transform="translate(37)">
    <polygon fill="#F00" stroke="#F00" stroke-linecap="round" stroke-linejoin="round" stroke-width="3.3" points=".752 80.762 4.949 82.031 5.95 77.759 6.951 82.031 11.152 80.762 7.95 83.763 11.152 86.767 6.951 85.498 5.953 89.77 4.949 85.498 .752 86.767 3.951 83.766"/>
    <polygon fill="#F00" stroke="#F00" stroke-linecap="round" stroke-linejoin="round" stroke-width="3.3" points="185.353 91.944 189.55 93.213 190.551 88.941 191.553 93.213 195.753 91.944 192.554 94.945 195.753 97.949 191.553 96.68 190.554 100.952 189.55 96.68 185.353 97.949 188.552 94.951"/>
    <path fill="#F00" d="M62.7404232,101.661915 L62.4126949,101.661915 C61.0119349,101.66511 59.667452,101.110898 58.6758351,100.121537 C57.6842182,99.1321766 57.1269451,97.7889596 57.1269488,96.388196 L57.1269488,90.0741648 C57.1262029,87.2095583 59.4135334,84.8688167 62.2773942,84.8034521 C63.7487506,84.62867 65.2231935,85.1040489 66.3153675,86.1053452 C67.4165387,87.1168141 68.0307531,88.5521708 68.0021158,90.0471047 L68.0021158,96.3851893 C68.0054398,99.2949519 65.6501834,101.656938 62.7404232,101.661915 Z"/>
    <path fill="#F00" d="M106.238085,126.142316 L62.4126949,126.142316 C61.0119349,126.145511 59.667452,125.591299 58.6758351,124.601938 C57.6842182,123.612577 57.1269451,122.26936 57.1269488,120.868597 L57.1269488,113.48118 C57.1268179,112.037023 57.7189239,110.655994 58.7650714,109.660421 C59.8112189,108.664847 61.2198696,108.141843 62.6622494,108.213474 C62.7434298,108.213474 62.8576837,108.213474 62.9629176,108.237528 C65.7788464,108.366096 67.9958218,110.686372 67.9961024,113.505234 L67.9961024,115.267149 L106.238085,115.267149 C113.586414,115.267149 118.983408,113.162472 122.735746,108.826837 C126.28363,104.728731 128.319154,98.6041203 128.319154,92.0555679 C128.319154,89.572049 127.696771,67.8187082 106.238085,67.8187082 L68.0141425,67.8187082 L68.0141425,74.4033408 C68.0220973,77.1666571 65.8956849,79.4675376 63.1403118,79.6770601 C62.986971,79.6981069 62.8396437,79.7101336 62.6832962,79.7191537 C61.2352803,79.796872 59.8191525,79.2749196 58.7679443,78.2760443 C57.7167362,77.277169 57.1232111,75.8895162 57.1269488,74.4394209 L57.1269488,62.2172606 C57.1269488,59.3046658 59.4880734,56.9435412 62.4006682,56.9435412 L106.238085,56.9435412 C128.878396,56.9435412 139.191314,75.1459911 139.191314,92.0555679 C139.191314,101.192873 136.184633,109.900223 130.953007,115.949666 C125.098998,122.711693 116.785523,126.142316 106.238085,126.142316 Z"/>
    <path fill="#FFCD03" d="M44.2884187 231.391203C41.3190064 231.344482 38.9231123 228.948588 38.876392 225.979176L38.876392 224.508909C39.0223361 221.634363 41.3926765 219.376918 44.2709188 219.371314 47.1491612 219.365709 49.5282747 221.613907 49.685412 224.487862L49.685412 225.991203C49.6294267 228.948875 47.2460597 231.33357 44.2884187 231.391203zM44.4207127 212.984298C44.2751771 212.98573 44.1296636 212.979709 43.9847439 212.966258L43.7832962 212.966258C41.001205 212.81776 38.8361237 210.493188 38.885412 207.707572L38.885412 186.059465C38.8847631 184.157052 39.9099245 182.402096 41.5673719 181.468263L41.7477728 181.354009C43.3779178 180.395554 45.396458 180.383274 47.0381438 181.321824 48.6798296 182.260374 49.6933359 184.006071 49.6944321 185.897105L49.6944321 207.743653C49.6927722 210.655073 47.3321337 213.014366 44.4207127 213.014365L44.4207127 212.984298zM145.986414 72.9811804C144.02579 72.9827114 142.226157 71.8964463 141.314031 70.1609131 137.261024 62.439755 127.311915 49.4929844 106.232071 49.4929844L57.7282851 49.4929844C56.3026277 49.4944506 54.9372553 48.9179982 53.9440021 47.8952817 52.9507489 46.8725652 52.4144438 45.4909299 52.4575724 44.0659243 52.4183858 42.6464975 52.9575273 41.2720522 53.9513396 40.2578307 54.9451519 39.2436093 56.308355 38.676643 57.7282851 38.686971L106.226058 38.686971C121.917929 38.686971 135.189421 44.5379733 144.612361 55.6115813 147.054686 58.5156523 149.15885 61.6880371 150.884298 65.0675947 151.956838 67.1370416 151.54364 69.6651292 149.86804 71.285412L149.702673 71.4357461C148.717119 72.4221948 147.380826 72.9779024 145.986414 72.9811804zM44.4207127 170.226281L44.1200445 170.226281 44.0659243 170.226281C41.2546771 170.09098 38.8944321 167.769822 38.8944321 164.955568L38.8944321 52.244098C38.8942991 50.456504 39.7997173 48.7905346 41.2997773 47.8182628L41.2636971 47.8573497C42.8597907 46.6581423 44.9964365 46.463637 46.7828343 47.354926 48.5692321 48.246215 49.6987386 50.0703044 49.7004454 52.0667038L49.7004454 164.952561C49.6987867 167.864469 47.3386335 170.224622 44.4267261 170.226281L44.4207127 170.226281zM106.238085 144.392873L62.3044543 144.392873C60.2996436 144.508766 58.3954826 143.505054 57.3581179 141.785586 56.3207532 140.066118 56.3207532 137.913615 57.3581179 136.194147 58.3954826 134.474678 60.2996436 133.470967 62.3044543 133.58686L106.238085 133.58686C118.866147 133.58686 129.356459 129.170045 136.587528 120.823497 143.069933 113.306793 146.641871 103.105122 146.641871 92.0555679 146.641871 90.6694878 146.566704 89.166147 146.404343 87.4583519 146.216277 84.5403739 148.379982 82.0006529 151.290777 81.7227378 154.201572 81.4448227 156.806776 83.5292207 157.174276 86.4300668 157.36069 88.4265033 157.450891 90.2635857 157.450891 92.0555679 157.450891 105.708909 152.940869 118.436192 144.759688 127.892205 135.417929 138.689198 122.09833 144.392873 106.238085 144.392873z"/>
    <path fill="#9AC7DD" d="M87.1396437 96.8151448L86.466147 96.8151448 86.466147 86.2737194 86.4030067 86.2737194C86.4454096 86.0021746 86.4665207 85.7277306 86.466147 85.4528953L86.466147 80.7023385C86.466147 77.9782851 84.238196 75.6962138 81.5351893 75.4436526 81.3130922 75.4122824 81.088997 75.3972088 80.8646993 75.3985523 80.5183501 75.4003644 80.1729845 75.4356058 79.8334076 75.5037862 79.7672606 75.5037862 79.7041203 75.533853 79.64098 75.5488864L79.4575724 75.5939866 79.186971 75.6811804 79.0246102 75.7353007 78.763029 75.8435412 78.6006682 75.9126949 78.3721604 76.0329621C78.3120267 76.0660356 78.2518931 76.0961024 78.1917595 76.1321826 78.1316258 76.1682628 78.0654788 76.2103563 78.0053452 76.2494432 77.9452116 76.2885301 77.8700445 76.336637 77.8038976 76.3847439L77.6655902 76.486971C77.6024499 76.5380846 77.5363029 76.5831849 77.4731626 76.6373051 77.2317385 76.8401266 77.0093243 77.0645536 76.808686 77.3077951 76.7164811 77.4200445 76.6292873 77.5342984 76.5471047 77.6505568 76.468931 77.7648107 76.3937639 77.8790646 76.3246102 77.9993318L76.2885301 78.0654788C76.2283964 78.1737194 76.1682628 78.2819599 76.1171492 78.3932071L76.0991091 78.432294C76.0449889 78.5435412 75.996882 78.6608018 75.9517817 78.7780624L75.9096882 78.8953229C75.8675947 79.0095768 75.8315145 79.1268374 75.798441 79.2471047 75.7886648 79.2787106 75.7806348 79.3108304 75.7743875 79.3433185 75.7473274 79.4455457 75.7232739 79.5477728 75.7022272 79.6439866L75.6841871 79.7492205C75.6601336 79.8755011 75.6451002 80.0047884 75.6300668 80.1340757 75.6300668 80.1671492 75.6300668 80.197216 75.6300668 80.2302895 75.6300668 80.3685969 75.6120267 80.5099109 75.6120267 80.6512249L75.6120267 85.5731626 75.6120267 102.392539C75.6056304 103.794061 76.1576982 105.140418 77.146192 106.13399 78.1346858 107.127561 79.4781964 107.68652 80.8797327 107.687305L87.1276169 107.687305C89.7505506 107.688052 91.9744237 105.758986 92.3442094 103.162249 92.3679033 103.011899 92.3829614 102.860314 92.3893096 102.708241 92.5675109 101.209741 92.0948623 99.7067322 91.0910861 98.5799273 90.0873098 97.4531224 88.6486949 96.810612 87.1396437 96.8151448zM106.238085 75.3985523L97.3743875 75.3985523C94.6503341 75.3985523 92.3682628 77.6265033 92.1126949 80.3325167 92.0837014 80.5538145 92.0696384 80.7768131 92.0706013 81 92.0698031 82.3989219 92.6251692 83.7407769 93.6143565 84.7299642 94.6035438 85.7191516 95.9453988 86.2745176 97.3443207 86.2737194L106.238085 86.2737194C108.264588 86.2737194 109.864143 86.2737194 109.864143 92.0555679 109.864143 96.8121381 109.380067 96.8121381 106.238085 96.8121381L104.455122 96.8121381C103.056445 96.8121381 101.715054 97.3677605 100.72604 98.3567747 99.7370255 99.345789 99.1814031 100.68718 99.1814031 102.085857L99.1814031 102.413586C99.1814031 105.326181 101.542528 107.687305 104.455122 107.687305L106.238085 107.687305C115.859465 107.687305 120.73931 102.428619 120.73931 92.0525612 120.73931 81.481069 115.45657 75.3985523 106.238085 75.3985523zM44.2884187 249.710913C31.1912451 249.696001 20.5776072 239.082363 20.5626949 225.985189L20.5626949 136.452227C20.540137 134.510103 21.5554037 132.703471 23.2260538 131.712873 24.896704 130.722276 26.9689261 130.698207 28.6621341 131.649733 30.3553421 132.60126 31.4122974 134.383822 31.4348552 136.325947L31.4348552 225.985189C31.5422519 233.006543 37.2647401 238.642171 44.2869154 238.642171 51.3090906 238.642171 57.0315788 233.006543 57.1389755 225.985189L57.1389755 157.111136C57.1381773 155.712214 57.6935433 154.370359 58.6827306 153.381172 59.671918 152.391984 61.013773 151.836618 62.4126949 151.837416L106.238085 151.837416C122.774833 151.837416 137.062584 146.260022 147.579955 135.712584 148.683586 134.605027 150.221988 134.044629 151.779416 134.182834 153.336843 134.32104 154.752524 135.143583 155.643875 136.428174L155.577728 136.35902C157.303815 138.453801 157.156774 141.516935 155.237973 143.436748 142.645991 156.046771 125.703341 162.709577 106.229065 162.709577L68.0141425 162.709577 68.0141425 225.985189C67.9992302 239.082363 57.3855923 249.696001 44.2884187 249.710913z"/>
    <path fill="#9AC7DD" d="M26.1581292 122.934187C25.6488669 122.93346 25.1424297 122.858508 24.6547884 122.711693L24.4022272 122.630512C24.2819599 122.594432 24.1646993 122.552339 24.0474388 122.507238 23.9301782 122.462138 23.7467706 122.377951 23.62951 122.326837 21.7629605 121.466451 20.5677604 119.59851 20.5687082 117.543207L20.5687082 44.0929844C20.5836206 30.9958108 31.1972585 20.3821729 44.2944321 20.3672606L106.232071 20.3672606C118.517372 20.3672606 129.813474 23.1334076 139.81069 28.5905345 141.230837 29.3650884 142.216658 30.7488776 142.484784 32.3441388 142.75291 33.9394001 142.273642 35.5694362 141.184744 36.7657016 141.118597 36.8408686 140.962249 36.997216 140.866036 37.0934298 139.223849 38.8263289 136.621161 39.2372798 134.524944 38.0946548 126.160356 33.5485523 116.641203 31.2424276 106.232071 31.2424276L44.2944321 31.2424276C37.1995256 31.2490551 31.4491559 36.9980797 31.4408686 44.0929844L31.4408686 117.660468C31.4416712 119.060955 30.8850675 120.40418 29.8939276 121.393628 28.9027877 122.383076 27.5586129 122.937383 26.1581292 122.934187zM161.942873 130.489978C161.464008 130.463836 160.99078 130.373842 160.535746 130.222383L160.496659 130.20735C158.930587 129.832697 157.632626 128.741965 156.993875 127.263808 156.353407 125.763757 156.44788 124.051022 157.249443 122.630512 161.728497 114.202267 164.30557 104.89463 164.79922 95.3629176 165.755345 77.3228285 159.017372 59.3729399 146.780178 47.3672606 145.517578 46.1306071 144.95971 44.3429455 145.294878 42.6076837 145.294878 42.5325167 145.318931 42.4302895 145.318931 42.4182628 145.611334 40.4616417 146.973629 38.8329598 148.847778 38.1993733 150.721926 37.5657868 152.793027 38.0337538 154.212695 39.4115813 168.765033 53.5730512 176.783853 74.7040089 175.659354 95.9371938 175.082626 107.042037 172.082963 117.886183 166.870824 127.708797 165.907244 129.513786 163.986105 130.598016 161.942873 130.489978z"/>
    <path fill="#000" d="M1.72583519 68.4501114C1.39337069 68.4525353 1.07381976 68.3215356.838725605 68.0864414.603631455 67.8513473.472631783 67.5317963.475055679 67.1993318L.475055679 63.8047884C.475055679 61.0987751 2.08363029 59.4541203 4.40478842 59.4541203L4.43786192 59.4541203C7.06870824 59.4541203 8.43374165 61.4986637 8.43374165 64.0483296L8.43374165 65.9485523 10.6887528 65.9485523C11.3795392 65.9485523 11.9395323 66.5085454 11.9395323 67.1993318 11.9395323 67.8901183 11.3795392 68.4501114 10.6887528 68.4501114L1.72583519 68.4501114zM6.20879733 63.9671492C6.20879733 62.7163697 5.46013363 61.9857461 4.48596882 61.9857461L4.455902 61.9857461C3.3344098 61.9857461 2.7330735 62.7674833 2.7330735 64.0152561L2.7330735 65.9485523 6.20879733 65.9485523 6.20879733 63.9671492zM1.72583519 57.7282851C1.39364914 57.7315193 1.07408405 57.6011942.838899402 57.3665749.603714757 57.1319556.47262099 56.8127051.475055679 56.4805122L.475055679 52.5207127C.475055679 51.0775056.880957684 49.9560134 1.62962138 49.213363 2.32854089 48.551283 3.26547071 48.1999343 4.22739421 48.2391982L4.26046771 48.2391982C6.04643653 48.2391982 7.14988864 49.1412027 7.71815145 50.5122494L9.82282851 48.7743875C10.0818341 48.5258774 10.4232475 48.3813921 10.7819599 48.3684855 11.0924107 48.3708316 11.3889792 48.4974635 11.6053778 48.7200772 11.8217763 48.9426908 11.9399622 49.2427253 11.9335189 49.553118 11.9330111 50.0466667 11.6902807 50.5085286 11.2840757 50.7888641L8.20523385 53.2182628 8.20523385 55.2146993 10.6887528 55.2146993C11.1496985 55.1920792 11.5856481 55.4251191 11.8228997 55.8209654 12.0601513 56.2168118 12.0601513 56.7111392 11.8228997 57.1069856 11.5856481 57.5028319 11.1496985 57.7358718 10.6887528 57.7132517L1.72583519 57.7282851zM6.01336303 52.6830735C6.01336303 51.4653675 5.36391982 50.7678174 4.40478842 50.7678174L4.37171492 50.7678174C3.3013363 50.7678174 2.7481069 51.5164811 2.7481069 52.7341871L2.7481069 55.217706 6.01336303 55.217706 6.01336303 52.6830735zM5.73374165 45.1573497L5.71269488 45.1573497C2.50757238 44.7424276.210467706 41.8740535.661469933 38.3953229 1.11247216 34.9165924 4.02895323 32.7577951 7.23407572 33.1727171L7.26414254 33.1727171C10.469265 33.5876392 12.7663697 36.4560134 12.3153675 39.9347439 11.8643653 43.4134744 8.93585746 45.5752784 5.73374165 45.1573497zM6.93641425 35.77049L6.91536748 35.77049C4.98207127 35.5179287 3.18708241 36.7266147 2.9285078 38.7230512 2.66993318 40.7194878 4.06804009 42.3100223 6.0013363 42.5595768L6.0344098 42.5595768C7.96469933 42.8091314 9.7596882 41.6004454 10.0182628 39.6040089 10.2768374 37.6075724 8.88173719 36.0200445 6.94844098 35.77951L6.93641425 35.77049zM6.01336303 27.9831849L5.01514477 30.1690423C4.84381244 30.5450067 4.48492026 30.8010073 4.07365942 30.8406114 3.66239858 30.8802154 3.2612494 30.697406 3.02132089 30.3610457 2.78139238 30.0246853 2.73913538 29.5858753 2.91046771 29.2099109L5.94721604 22.5651448C6.11854836 22.1891804 6.47744055 21.9331797 6.88870138 21.8935757 7.29996222 21.8539717 7.7011114 22.0367811 7.94103991 22.3731414 8.18096842 22.7095017 8.22322542 23.1483118 8.0518931 23.5242762L7.05367483 25.7101336 14.245657 28.9964365C14.6516985 29.1833445 14.9271821 29.5726752 14.9683358 30.0177714 15.0094895 30.4628677 14.810061 30.8961088 14.4451732 31.154297 14.0802854 31.4124853 13.6053733 31.4563957 13.1993318 31.2694878L6.01336303 27.9831849zM11.3412027 24.0293987L11.3171492 24.0083519C8.85768374 21.9036748 8.4908686 18.2595768 10.7609131 15.5896437 13.0309577 12.9197105 16.6540089 12.6942094 19.1164811 14.7868597L19.1405345 14.8079065C21.6030067 16.9125835 21.9668151 20.5566815 19.6967706 23.2266147 17.4267261 25.8965479 13.8036748 26.122049 11.3412027 24.0293987zM17.4718263 16.813363L17.4477728 16.7923163C15.9624722 15.52951 13.8006682 15.5685969 12.4987751 17.0929844 11.196882 18.6173719 11.5005568 20.7190423 12.9858575 21.9818486L13.0099109 22.0028953C14.4952116 23.2657016 16.6570156 23.2266147 17.9619154 21.7022272 19.2668151 20.1778396 18.9571269 18.0821826 17.4718263 16.8193764L17.4718263 16.813363zM20.8874165 9.78674833L18.8639198 11.0826281C18.5169584 11.304447 18.0780139 11.3243145 17.7124323 11.1347466 17.3468508 10.9451787 17.1101728 10.5749753 17.0915526 10.1635885 17.0729324 9.75220164 17.275199 9.36213077 17.6221604 9.1403118L23.7768374 5.20155902C24.3131932 4.85865661 25.0259729 5.01548159 25.3688753 5.55183742 25.7117777 6.08819324 25.5549527 6.80097287 25.0185969 7.14387528L22.9951002 8.43975501 27.2555679 15.0995546C27.5888946 15.6784462 27.4085084 16.4170935 26.8458722 16.7771807 26.2832361 17.1372678 25.5369473 16.9916924 25.1508909 16.4465479L20.8874165 9.78674833zM32.7728285 9.08318486L27.8508909 5.32182628C27.589603 5.13162308 27.3974822 4.86138721 27.3036748 4.55211581 27.2174585 4.23787573 27.2604571 3.90220851 27.4230975 3.61984672 27.5857379 3.33748493 27.8545188 3.13186829 28.1695991 3.04877506 28.7138085 2.88942094 29.1437639 3.08485523 29.567706 3.43663697L33.3290646 6.48240535 34.9045657 1.84610245C35.013052 1.35408722 35.3712616.954808984 35.8486637.79376392 36.1576868.689241468 36.4963945.71924228 36.7822346.876454371 37.0680748 1.03366646 37.2747922 1.30364943 37.3520045 1.62060134 37.4230622 1.93219006 37.3989719 2.25793338 37.2828508 2.55567929L35.1420935 8.33452116 36.0801782 11.4855234C36.2728013 12.1497411 35.8904984 12.8443479 35.2262806 13.036971 34.5620629 13.2295942 33.8674561 12.8472912 33.674833 12.1830735L32.7728285 9.08318486zM40.2293987 1.53340757C40.2260843 1.19857891 40.3584599.876670287 40.5963613.641034641 40.8342627.405398995 41.1574233.276109813 41.4922049.282628062L44.8867483.282628062C47.5927617.282628062 49.2374165 1.88819599 49.2374165 4.2123608L49.2374165 4.24242762C49.2374165 6.87327394 47.1928731 8.23830735 44.6432071 8.23830735L42.7429844 8.23830735 42.7429844 10.4933185C42.7656045 10.9542642 42.5325646 11.3902138 42.1367183 11.6274654 41.740872 11.864717 41.2465445 11.864717 40.8506982 11.6274654 40.4548518 11.3902138 40.221812 10.9542642 40.2444321 10.4933185L40.2293987 1.53340757zM44.7093541 6.01336303C45.9601336 6.01336303 46.6907572 5.26770601 46.6907572 4.2935412L46.6907572 4.26046771C46.6907572 3.1389755 45.9120267 2.5376392 44.6612472 2.5376392L42.727951 2.5376392 42.727951 6.01336303 44.7093541 6.01336303zM51.0203786 10.3971047L51.0203786 1.53340757C51.0179547 1.20094307 51.1489544.881392138 51.3840485.646297988 51.6191427.411203838 51.9386936.280204166 52.2711581.282628062L58.5701559.282628062C59.1883667.282625841 59.6899907.78290505 59.6916481 1.40111359 59.6908638 1.69693625 59.5719714 1.98019556 59.3613858 2.18795831 59.1508001 2.39572106 58.8659622 2.51078018 58.5701559 2.50757238L53.518931 2.50757238 53.518931 4.81069042 57.8545657 4.81069042C58.4732631 4.81234249 58.9744058 5.31348519 58.9760579 5.93218263 58.9744747 6.22748307 58.8552306 6.50996802 58.6447325 6.71708009 58.4342344 6.92419216 58.149853 7.03884012 57.8545657 7.03563474L53.518931 7.03563474 53.518931 9.42293987 58.6663697 9.42293987C59.2850671 9.42459194 59.7862098 9.92573463 59.7878619 10.5444321 59.7862787 10.8397325 59.6670346 11.1222175 59.4565365 11.3293295 59.2460384 11.5364416 58.961657 11.6510896 58.6663697 11.6478842L52.2711581 11.6478842C51.9386936 11.6503081 51.6191427 11.5193084 51.3840485 11.2842143 51.1489544 11.0491201 51.0179547 10.7295692 51.0203786 10.3971047zM61.5287305 10.4452116C61.2303422 10.2247131 61.054995 9.8751355 61.0566815 9.50412027 61.0557385 9.19316608 61.180918 8.89511777 61.4036118 8.67809045 61.6263056 8.46106314 61.9274807 8.3436056 62.2383073 8.35256125 62.4937564 8.35014044 62.7433407 8.42912282 62.9508909 8.57806236 63.781715 9.22844079 64.8033165 9.58763883 65.8583519 9.60033408 66.8806236 9.60033408 67.4969933 9.19443207 67.4969933 8.52995546L67.4969933 8.49688196C67.4969933 7.86547884 67.1091314 7.54075724 65.2089087 7.05367483 62.9208241 6.46737194 61.4415367 5.85100223 61.4415367 3.577951L61.4415367 3.54487751C61.4415367 1.48229399 63.0982183.120267261 65.4193764.120267261 66.6939789.101342288 67.9469003.451116159 69.0273942 1.12750557 69.3653094 1.33672124 69.5693886 1.70725609 69.5655902 2.10467706 69.5664505 2.41349503 69.4429137 2.70964872 69.2228551 2.92631315 69.0027964 3.14297757 68.7047584 3.26189627 68.3959911 3.25623608 68.1721327 3.25730039 67.9524202 3.19586419 67.7615813 3.07884187 67.0491718 2.61379891 66.2243245 2.34993087 65.3742762 2.31514477 64.4181514 2.31514477 63.913029 2.75412027 63.913029 3.30734967L63.913029 3.33741648C63.913029 4.08608018 64.4001114 4.32962138 66.3664811 4.84075724 68.6726058 5.44209354 69.9744989 6.26893096 69.9744989 8.25033408L69.9744989 8.28340757C69.9744989 10.5414254 68.2516704 11.8072383 65.8012249 11.8072383 64.2696532 11.811299 62.7753723 11.3349378 61.5287305 10.4452116zM71.6582405 13.1903118C72.485078 12.9948775 72.9390869 12.4266147 72.9060134 11.6478842 72.2703495 11.510663 71.8049732 10.9652616 71.7694878 10.3159243L71.7694878 10.2828508C71.7554741 9.92230188 71.8938283 9.57249863 72.1506778 9.31908147 72.4075272 9.06566431 72.75916 8.93202832 73.1194878 8.95089087 74.0214922 8.95089087 74.5626949 9.65144766 74.5626949 10.7548998L74.5626949 10.8240535C74.5626949 12.008686 74.2048998 12.886637 73.6065702 13.4849666 73.1187405 13.9629954 72.4700725 14.2417618 71.7875278 14.2667038 71.629154 14.2900766 71.4685957 14.2417314 71.3494579 14.134798 71.2303202 14.0278646 71.164971 13.873444 71.1711581 13.7134744 71.1839433 13.4435254 71.3898914 13.2223219 71.6582405 13.1903118zM81.745657 1.53340757C81.742447 1.20279107 81.8715396.884610951 82.1041996.649692071 82.3368597.414773192 82.6537777.282612479 82.9844098.282628062L86.3789532.282628062C89.0849666.282628062 90.7296214 1.88819599 90.7296214 4.2123608L90.7296214 4.24242762C90.7296214 6.87327394 88.685078 8.23830735 86.135412 8.23830735L84.2351893 8.23830735 84.2351893 10.4933185C84.2578094 10.9542642 84.0247695 11.3902138 83.6289232 11.6274654 83.2330769 11.864717 82.7387494 11.864717 82.3429031 11.6274654 81.9470567 11.3902138 81.7140169 10.9542642 81.736637 10.4933185L81.745657 1.53340757zM86.2256125 6.01336303C87.476392 6.01336303 88.2070156 5.26770601 88.2070156 4.2935412L88.2070156 4.26046771C88.2070156 3.1389755 87.4282851 2.5376392 86.1775056 2.5376392L84.2442094 2.5376392 84.2442094 6.01336303 86.2256125 6.01336303zM92.4674833 1.53340757C92.4642371 1.20069568 92.5949726.880665428 92.8302466.645391395 93.0655207.410117362 93.3855509.27938186 93.7182628.282628062L97.663029.282628062C99.1062361.282628062 100.227728.688530067 100.970379 1.43418708 101.631277 2.13384469 101.982431 3.07025752 101.944543 4.03195991L101.944543 4.06503341C101.944543 5.85100223 101.042539 6.95445434 99.6714922 7.52271715L101.406347 9.62739421C101.654858 9.88639984 101.799343 10.2278132 101.812249 10.5865256 101.809903 10.8969764 101.683271 11.1935449 101.460658 11.4099435 101.238044 11.626342 100.93801 11.7445279 100.627617 11.7380846 100.135132 11.7365915 99.6746079 11.493974 99.3948775 11.0886414L96.9594655 8.00378619 94.9600223 8.00378619 94.9600223 10.4933185C94.9826424 10.9542642 94.7496025 11.3902138 94.3537562 11.6274654 93.9579098 11.864717 93.4635824 11.864717 93.067736 11.6274654 92.6718897 11.3902138 92.4388498 10.9542642 92.4614699 10.4933185L92.4674833 1.53340757zM97.5006682 5.80289532C98.7183742 5.80289532 99.4159243 5.15345212 99.4159243 4.19432071L99.4159243 4.16124722C99.4159243 3.0908686 98.6702673 2.5376392 97.4525612 2.5376392L94.9660356 2.5376392 94.9660356 5.80289532 97.5006682 5.80289532zM103.444878 5.84498886L103.444878 5.81191537C103.556125 2.58273942 106.195991.0270601336 109.701782.147327394 113.207572.267594655 115.630958 2.96759465 115.51971 6.1967706L115.51971 6.2298441C115.408463 9.45902004 112.768597 12.0146993 109.262806 11.8944321 105.757016 11.7741648 103.33363 9.07416481 103.444878 5.84498886zM112.903898 6.16971047L112.903898 6.13964365C112.970045 4.19131403 111.598998 2.53162584 109.596548 2.45044543 107.594098 2.36926503 106.135857 3.92371938 106.06069 5.86904232L106.06069 5.90211581C105.994543 7.85044543 107.36559 9.51013363 109.36804 9.59131403 111.37049 9.67249443 112.837751 8.11804009 112.903898 6.16971047zM117.260579 6.49743875L117.260579 6.46436526C117.514339 4.90882403 118.393077 3.52467297 119.692829 2.6331872 120.992581 1.74170143 122.60032 1.42040546 124.142873 1.74387528 125.820601 2.04454343 126.87294 2.7 127.672717 3.54788419 127.932376 3.83575275 128.043483 4.22795879 127.973385 4.60924276 127.915088 4.92960809 127.730909 5.21327877 127.461987 5.39689131 127.193065 5.58050386 126.861807 5.64876032 126.542205 5.58641425 126.278533 5.53706996 126.036804 5.40674694 125.850668 5.21358575 125.292753 4.5832146 124.538503 4.15947895 123.709911 4.01091314 121.824722 3.66815145 120.183073 4.98808463 119.834298 6.90334076L119.834298 6.93641425C119.485523 8.85167038 120.522829 10.6917595 122.438085 11.0405345 123.325561 11.2215639 124.24865 11.0650354 125.026837 10.601559 125.385615 10.3953157 125.827168 10.3961445 126.185169 10.6037332 126.54317 10.8113219 126.763229 11.1941328 126.762452 11.6079648 126.761675 12.0217968 126.540181 12.403779 126.181403 12.6100223 125.014811 13.3075724 123.736971 13.6202673 121.947996 13.2955457 120.411989 13.0408668 119.045348 12.1731119 118.16152 10.8913063 117.277692 9.60950062 116.952518 8.02363532 117.260579 6.49743875zM128.598775 13.3977728L131.397996 4.97906459C131.505208 4.66695296 131.732251 4.41035604 132.028986 4.26593758 132.32572 4.12151911 132.667737 4.10115929 132.97951 4.20935412L138.956793 6.1967706C139.540903 6.39521433 139.857085 7.02623883 139.66637 7.61291759 139.57197 7.89305765 139.369674 8.12394014 139.104369 8.25433488 138.839064 8.38472963 138.53269 8.40385274 138.253229 8.30746102L133.442539 6.70790646 132.714922 8.8967706 136.831069 10.2648107C137.416301 10.4618354 137.732155 11.0948866 137.537639 11.6809577 137.44389 11.9608786 137.24217 12.1917305 136.977347 12.3221658 136.712524 12.452601 136.406558 12.4718031 136.127506 12.3755011L132.014365 11.007461 131.259688 13.2714922 136.145546 14.8951002C136.731215 15.0935331 137.047778 15.726659 136.855122 16.3142539 136.76011 16.593843 136.55756 16.8240206 136.292324 16.953817 136.027088 17.0836135 135.721052 17.1023187 135.441982 17.0057906L129.386526 14.9943207C129.068027 14.8903123 128.804905 14.6622981 128.656652 14.3618311 128.508399 14.0613641 128.487534 13.7138186 128.598775 13.3977728zM138.908686 17.1591314C138.743337 16.8267796 138.743337 16.436138 138.908686 16.1037862 139.051265 15.8301207 139.297461 15.6249185 139.592334 15.533971 139.887207 15.4430236 140.206216 15.4739001 140.478174 15.6197105 140.706816 15.736118 140.892239 15.9225948 141.00735 16.1518931 141.444006 17.1108484 142.183429 17.8999185 143.112027 18.3978842 144.014031 18.8699332 144.756682 18.7947661 145.063363 18.2024499L145.063363 18.1753898C145.364031 17.6131403 145.159577 17.144098 143.695323 15.8361915 141.933408 14.2636971 140.914143 13.0219376 141.954454 11.0255011L141.954454 10.998441C142.904566 9.16737194 145.003229 8.71937639 147.065813 9.79576837 148.205921 10.3649638 149.156375 11.2527503 149.801893 12.3514477 150.014708 12.6962221 150.027318 13.1283704 149.834967 13.4849666 149.693611 13.7598382 149.447434 13.9661351 149.152075 14.0572325 148.856715 14.14833 148.537105 14.1165382 148.265479 13.9690423 148.067342 13.8660098 147.901806 13.7098441 147.787416 13.5180401 147.378587 12.7762095 146.778503 12.1574374 146.049555 11.7260579 145.20167 11.2840757 144.546214 11.4253898 144.296659 11.9305122L144.296659 11.9605791C143.953898 12.6250557 144.272606 13.0640312 145.8 14.4170379 147.567929 16.0105791 148.340646 17.3455457 147.426615 19.1044543L147.411581 19.1315145C146.371269 21.136971 144.260579 21.467706 142.086748 20.3341871 140.722169 19.6332069 139.610957 18.5230467 138.908686 17.1591314zM148.277506 22.3426503C148.16438 21.9888814 148.226938 21.6023625 148.44588 21.3023385 148.625389 21.051414 148.898302 20.8832598 149.203146 20.8357517 149.50799 20.7882436 149.819129 20.8653767 150.066481 21.0497773 150.276083 21.1973562 150.433047 21.4080464 150.514477 21.6511136 150.806955 22.6651788 151.426381 23.5541506 152.276392 24.1797327 153.106236 24.781069 153.842873 24.8081292 154.230735 24.2699332L154.251782 24.2428731C154.621604 23.7287305 154.495323 23.2386414 153.23853 21.732294 151.735189 19.9282851 150.893318 18.5422049 152.210245 16.7111359L152.231292 16.6840757C153.433964 15.0123608 155.574722 14.8800668 157.459911 16.2300668 158.504849 16.95784 159.316345 17.9729924 159.796102 19.1525612 159.956536 19.524652 159.90731 19.9539491 159.666815 20.2800668 159.486811 20.5314028 159.213087 20.6995628 158.907529 20.7465281 158.601971 20.7934935 158.290382 20.7152983 158.043207 20.5296214 157.861833 20.3995084 157.720247 20.2214859 157.634298 20.0154788 157.323669 19.2208971 156.804281 18.5249172 156.130958 18.0010022 155.355234 17.4417595 154.690757 17.5048998 154.366036 17.9528953L154.347996 17.9769488C153.912027 18.5782851 154.164588 19.0653675 155.463474 20.6228285 156.984855 22.4569042 157.568151 23.8880846 156.398552 25.4966592L156.377506 25.5237194C155.060579 27.3547884 152.922829 27.3758352 150.932405 25.9446548 149.694643 25.0490371 148.766675 23.7900273 148.277506 22.3426503zM165.003675 37.8120267L165.024722 36.4560134C163.774261 36.381287 162.595894 35.8456655 161.717372 34.9526726 160.214031 33.3922049 159.973497 31.3446548 161.416704 29.9315145L161.440757 29.907461C162.478062 28.9032294 163.755902 28.7498886 165.217149 29.3241648 165.324514 28.5062081 165.703595 27.7480464 166.293541 27.1713808L166.317595 27.1473274C167.43608 26.064922 169.324276 25.9657016 170.857684 27.5412027 172.204677 28.9272829 172.17461 30.719265 171.032071 31.8257238L171.011024 31.8497773C169.913586 32.9111359 168.605679 32.8329621 167.225612 32.2135857L167.204566 34.3182628C167.664588 34.2340757 168.127617 34.1258352 168.611693 33.9965479 168.985015 33.8866576 169.388549 33.9892706 169.664031 34.2641425 170.058161 34.6788413 170.047462 35.3328254 169.639978 35.7344098 169.50836 35.8619647 169.343893 35.9504442 169.164922 35.9899777 168.530512 36.1523385 167.851002 36.2906459 167.183519 36.3958797L167.183519 37.8541203C167.198757 38.1653019 167.080649 38.4682287 166.858797 38.686971 166.654388 38.8923926 166.37524 39.00587 166.08548 39.0013336 165.795721 38.9967973 165.520261 38.8746372 165.322383 38.6629176 165.092113 38.4426207 164.974791 38.1293918 165.003675 37.8120267zM165.045768 34.4475501L165.105902 31.3596882C164.282071 31.0951002 163.683742 31.2454343 163.274833 31.6423163L163.25078 31.663363C162.67951 32.2165924 162.757684 33.0674833 163.40412 33.7319599 163.850959 34.1549125 164.431768 34.4080859 165.045768 34.4475501zM169.40245 30.3825167L169.426503 30.3584633C169.642531 30.1683806 169.766334 29.8945417 169.766334 29.6067929 169.766334 29.3190441 169.642531 29.0452052 169.426503 28.8551225 169.22343 28.627784 168.93306 28.4978141 168.628229 28.4978141 168.323399 28.4978141 168.033029 28.627784 167.829955 28.8551225L167.805902 28.8791759C167.4451 29.227951 167.312806 29.6278396 167.255679 30.3404232 168.223831 30.8004454 168.879287 30.8906459 169.40245 30.3825167zM179.047884 39.8896437C179.330955 39.7150056 179.672364 39.6615386 179.995272 39.741276 180.31818 39.8210134 180.595457 40.0272557 180.764699 40.3135857L182.520601 43.2180401C183.921715 45.5391982 183.392539 47.7761693 181.405122 48.9758352L181.375056 48.9908686C179.123051 50.3498886 176.898107 49.2915367 175.58118 47.1207127L174.601002 45.4971047 172.667706 46.6606904C172.284814 46.9043539 171.799974 46.9214897 171.400835 46.7054658 171.001696 46.489442 170.750892 46.0741578 170.745493 45.6203416 170.740094 45.1665253 170.980946 44.7453919 171.374833 44.5199332L179.047884 39.8896437zM177.544543 46.041314C178.187973 47.1116927 179.207238 47.3522272 180.040089 46.8471047L180.067149 46.8320713C181.026281 46.2517817 181.140535 45.2746102 180.494098 44.2042316L179.492873 42.5505568 176.519265 44.3545657 177.544543 46.041314zM185.121381 50.3619154C185.532212 50.154573 186.023717 50.1895726 186.401022 50.4530376 186.778328 50.7165025 186.980486 51.1658733 186.927344 51.6229829 186.874201 52.0800925 186.574344 52.4711007 186.146659 52.64098L178.89755 55.897216 180.794766 60.1065702C180.961265 60.4771636 180.917406 60.908432 180.679712 61.2379206 180.442018 61.5674093 180.0466 61.7450611 179.642407 61.7039563 179.238215 61.6628515 178.886654 61.4092349 178.720156 61.0386414L176.314811 55.6777283C176.176302 55.3754323 176.16482 55.0302145 176.282936 54.7193831 176.401052 54.4085518 176.638897 54.1580781 176.943207 54.0240535L185.121381 50.3619154zM181.375056 63.035078L191.077617 64.2918708C191.722511 64.3431478 192.267221 64.7906739 192.44265 65.413363L192.484744 65.5516704C192.67361 66.1663741 192.457235 66.8335322 191.943541 67.2203786L184.492984 73.5584633C184.36591 73.6789998 184.214041 73.7703263 184.047996 73.8260579 183.74302 73.9258992 183.410553 73.8974071 183.127012 73.7471305 182.843472 73.5968539 182.633246 73.3377189 182.544655 73.0292873 182.389942 72.5085587 182.584733 71.9471738 183.028731 71.6341871L184.532071 70.3954343 183.106904 65.5997773 181.089421 65.3682628C180.582711 65.3252599 180.155404 64.97336 180.016036 64.4842984 179.92721 64.1884083 179.961329 63.8692105 180.110688 63.5987797 180.260047 63.328349 180.512052 63.1294898 180.8098 63.0471047 180.995101 63.0020282 181.188005 62.9979239 181.375056 63.035078zM186.393207 68.8800668L189.541203 66.3063474 185.512249 65.8613586 186.393207 68.8800668zM187.848441 77.2326281L192.220156 72.8488864C192.443077 72.6148323 192.736784 72.4605836 193.056013 72.4099109 193.378389 72.3655304 193.705141 72.4517044 193.963703 72.6492948 194.222264 72.8468852 194.391229 73.1395346 194.433073 73.4622494 194.517261 74.0244989 194.267706 74.4243875 193.864811 74.797216L190.353007 78.1286192 194.742762 80.2964365C195.217184 80.4687758 195.566422 80.8773619 195.662806 81.3728285 195.729173 81.6941147 195.656094 82.0284727 195.461738 82.292774 195.267382 82.5570752 194.970005 82.7264938 194.643541 82.7589087 194.330844 82.791265 194.015791 82.7261539 193.741537 82.5724944L188.287416 79.6951002 185.046214 80.1942094C184.597735 80.2772454 184.139611 80.1095772 183.850686 79.7566596 183.561761 79.4037419 183.487846 78.9215318 183.657795 78.4982757 183.827744 78.0750197 184.214612 77.7778272 184.667372 77.7227171L187.848441 77.2326281zM190.981403 112.699443L191.330178 110.321158C191.389795 109.914042 191.662078 109.569657 192.044459 109.41773 192.42684 109.265802 192.861227 109.329413 193.183991 109.5846 193.506755 109.839788 193.66886 110.247784 193.609243 110.6549L192.553898 117.870935C192.455564 118.493583 191.874886 118.921449 191.251056 118.83092 190.627226 118.74039 190.192122 118.165115 190.274833 117.5402L190.620601 115.161915 182.803229 114.019376C182.351557 113.96581 181.964564 113.671276 181.792597 113.250201 181.620631 112.829125 181.690799 112.347887 181.975842 111.993447 182.260885 111.639008 182.715869 111.46724 183.164031 111.544878L190.981403 112.699443zM190.121492 121.256459C190.766614 121.50554 191.087667 122.230435 190.838586 122.875557 190.589504 123.520678 189.864609 123.841732 189.219488 123.59265L186.098552 122.389978 184.447884 126.695546 187.56882 127.898218C188.213941 128.1473 188.534995 128.872195 188.285913 129.517316 188.036831 130.162438 187.311937 130.483491 186.666815 130.23441L178.20902 126.9902C177.570581 126.73725 177.255479 126.016869 177.503104 125.376346 177.750729 124.735823 178.468462 124.414733 179.111024 124.657016L182.2951 125.877728 183.945768 121.57216 180.761693 120.351448C180.341245 120.192915 180.038145 119.821035 179.967677 119.377253 179.897209 118.93347 180.070204 118.485991 180.420862 118.205015 180.77152 117.92404 181.245948 117.85275 181.663697 118.018263L190.121492 121.256459zM177.024388 129.587973L184.790646 133.857461C185.083737 134.014971 185.30114 134.283767 185.393893 134.603311 185.486645 134.922855 185.446948 135.266279 185.283742 135.556236L182.25 141.076503C181.951471 141.618095 181.270868 141.81582 180.728619 141.518486 180.197636 141.219628 180.00703 140.548479 180.30167 140.015145L182.740089 135.577283 180.719599 134.467817 178.632962 138.265256C178.334434 138.806848 177.65383 139.004573 177.111581 138.707238 176.579201 138.409484 176.388223 137.737029 176.684633 137.203898L178.771269 133.403452 176.666592 132.2549 174.18608 136.764922C173.887552 137.306514 173.206948 137.504239 172.664699 137.206904 172.133716 136.908047 171.94311 136.236898 172.237751 135.703563L175.310579 130.114143C175.46212 129.811243 175.731074 129.583602 176.054851 129.484197 176.378627 129.384792 176.728985 129.422293 177.024388 129.587973zM175.55412 149.035189C175.808831 149.247509 175.968042 149.552883 175.996281 149.883277 176.024519 150.21367 175.91944 150.541634 175.704454 150.794098L173.653898 153.22951C171.353786 155.959577 167.887082 156.266258 165.44265 154.206682L165.418597 154.185635C162.962138 152.138085 162.66147 148.638307 164.964588 145.905234L167.012138 143.472829C167.224993 143.217929 167.530877 143.058651 167.861761 143.030418 168.192645 143.002186 168.521092 143.10734 168.774053 143.322494L175.55412 149.035189zM166.690423 147.360468C165.37049 148.923942 165.535857 150.869265 167.075278 152.171158L167.102339 152.192205C168.641759 153.491091 170.611136 153.343764 171.928062 151.78029L173.172829 150.304009 167.935189 145.884187 166.690423 147.360468zM161.131069 152.318486L166.900891 159.053452C167.118589 159.304164 167.226812 159.631618 167.201389 159.962681 167.175966 160.293743 167.019015 160.600834 166.76559 160.815367L161.98196 164.916481C161.511672 165.317245 160.805822 165.262121 160.403452 164.793207 160.212365 164.568551 160.118592 164.277055 160.142851 163.983123 160.16711 163.68919 160.307405 163.417014 160.532739 163.226726L164.381292 159.919376 162.877951 158.166481 159.570601 160.989755C159.100313 161.390519 158.394464 161.335395 157.992094 160.866481 157.801006 160.641825 157.707233 160.350329 157.731493 160.056397 157.755752 159.762464 157.896047 159.490288 158.121381 159.3L161.413697 156.479733 159.862249 154.675724 155.953563 158.025167C155.483276 158.425931 154.777426 158.370807 154.375056 157.901893 154.183546 157.677189 154.089784 157.385267 154.11463 157.091072 154.139475 156.796878 154.280868 156.524815 154.50735 156.335412L159.351114 152.183185C159.602723 151.959744 159.934241 151.847984 160.269775 151.873489 160.605308 151.898994 160.916124 152.059581 161.131069 152.318486zM152.117038 159.35412C152.481261 159.408866 152.798598 159.631559 152.973942 159.955457 153.118744 160.22844 153.147759 160.548165 153.054463 160.842755 152.961166 161.137345 152.753388 161.382079 152.47784 161.521938 152.253412 161.645528 151.99461 161.692006 151.741203 161.654232 150.702326 161.468004 149.631037 161.628592 148.692428 162.111247 147.790423 162.58931 147.432628 163.238753 147.745323 163.825056L147.760356 163.855122C148.061024 164.414365 148.55412 164.519599 150.46637 164.059577 152.763474 163.506347 154.375056 163.374053 155.421381 165.367483L155.436414 165.39755C156.401559 167.219599 155.574722 169.201002 153.524165 170.286414 152.406027 170.899926 151.13384 171.175671 149.862027 171.080178 149.342991 171.047405 148.909526 170.672506 148.80228 170.163614 148.695034 169.654723 148.940338 169.136777 149.402004 168.897327 149.59945 168.792297 149.82227 168.744401 150.045434 168.75902 150.892998 168.835451 151.745532 168.682805 152.51392 168.317038 153.358797 167.869042 153.599332 167.246659 153.340757 166.75657L153.340757 166.72951C152.991982 166.06804 152.438753 166.083073 150.47539 166.555122 148.157238 167.105345 146.620824 166.979065 145.694766 165.229176L145.694766 165.199109C144.636414 163.205679 145.565479 161.290423 147.733296 160.132851 149.078461 159.425043 150.610394 159.152909 152.117038 159.35412zM146.879399 172.505345C147.092845 172.910153 147.068173 173.399213 146.815072 173.780485 146.561971 174.161758 146.120853 174.374366 145.664931 174.334826 145.209008 174.295286 144.811078 174.00991 144.627394 173.590757L140.691648 165.430624C140.478202 165.025815 140.502873 164.536756 140.755974 164.155484 141.009075 163.774211 141.450193 163.561603 141.906116 163.601143 142.362039 163.640683 142.759969 163.926058 142.943653 164.345212L146.879399 172.505345zM141.03441 170.400668L141.03441 170.430735C141.576189 171.910523 141.496174 173.546562 140.812581 174.96642 140.128987 176.386279 138.899985 177.469135 137.405345 177.968486 135.784744 178.548775 134.582071 178.569822 133.379399 178.233073 132.862362 178.088183 132.498586 177.625287 132.480034 177.088653 132.461482 176.55202 132.792423 176.065106 133.298218 175.884855 133.558824 175.792198 133.843403 175.792198 134.104009 175.884855 134.9579 176.143158 135.873806 176.107158 136.704788 175.782628 138.418597 175.181292 139.239421 173.169822 138.589978 171.35078L138.589978 171.320713C137.892428 169.363363 136.031292 168.407238 134.137082 169.083742 133.34055 169.341457 132.645265 169.843198 132.149666 170.517929L132.693875 172.045323 134.28441 171.480067C134.553378 171.378719 134.851805 171.389804 135.112513 171.510827 135.373222 171.63185 135.574302 171.85264 135.67049 172.123497 135.871401 172.688869 135.576874 173.3102 135.012027 173.512584L132.321047 174.474722C132.008547 174.588253 131.663615 174.572046 131.363137 174.429714 131.062659 174.287383 130.831611 174.030756 130.721492 173.717038L129.792428 171.116258C129.531224 170.507869 129.648696 169.803038 130.093096 169.312249 130.969604 168.213741 132.13457 167.380878 133.457572 166.906904 136.776949 165.713252 139.906904 167.234633 141.03441 170.400668zM129.094878 179.159131C129.159015 179.485131 129.089836 179.823237 128.902808 180.097846 128.71578 180.372455 128.426504 180.560661 128.099666 180.620379L127.844098 180.668486C127.32289 180.761087 126.790385 180.582074 126.430958 180.19343L120.516815 174.868597 121.605234 180.626392C121.731435 181.295591 121.291248 181.940391 120.622049 182.066592 119.95285 182.192794 119.30805 181.752607 119.181849 181.083408L117.501114 172.198664C117.437021 171.873023 117.506282 171.535282 117.69337 171.26115 117.880457 170.987018 118.169723 170.799426 118.496325 170.740423L118.574499 170.722383C119.096277 170.629949 119.629145 170.810217 119.987639 171.200445L126.121269 176.714699 124.987751 170.731403C124.89433 170.076881 125.332635 169.464779 125.982365 169.342401 126.632096 169.220023 127.263048 169.630729 127.414143 170.274388L129.094878 179.159131zM110.961581 181.251782C111.050192 181.703516 110.883503 182.167411 110.527642 182.459436 110.171782 182.751461 109.684275 182.824409 109.258521 182.649341 108.832767 182.474273 108.53759 182.079489 108.490089 181.621604L107.314477 173.786192 102.738307 174.471715C102.117264 174.564705 101.538425 174.136634 101.445434 173.51559 101.352444 172.894547 101.780515 172.315708 102.401559 172.222717L108.213474 171.353786C108.541661 171.301288 108.877179 171.382871 109.144618 171.580199 109.412058 171.777528 109.588985 172.074049 109.635635 172.403118L110.961581 181.251782zM99.361804 174.525835L103.450891 182.391314C103.606455 182.685104 103.637724 183.029002 103.537699 183.346031 103.437674 183.66306 103.214707 183.926745 102.918708 184.078062L97.3292873 186.982517C96.9749677 187.186214 96.5374857 187.179227 96.1898514 186.964319 95.8422171 186.749411 95.6404138 186.361191 95.6642481 185.953188 95.6880824 185.545184 95.9337161 185.183102 96.3040089 185.010134L100.798998 182.673942 99.7346325 180.626392 95.8860802 182.628842C95.3384911 182.906667 94.6692809 182.693858 94.3827394 182.15078 94.245559 181.887596 94.2195448 181.580421 94.3105115 181.297916 94.4014783 181.01541 94.6018412 180.781129 94.8668151 180.647439L98.7123608 178.647996 97.6119154 176.543318 93.0387528 178.89755C92.6844331 179.101247 92.2469511 179.09426 91.8993169 178.879353 91.5516826 178.664445 91.3498792 178.276225 91.3737136 177.868221 91.3975479 177.460218 91.6431816 177.098136 92.0134744 176.925167L97.6750557 173.981626C97.9703233 173.826928 98.3153888 173.797438 98.6326244 173.899791 98.9498599 174.002143 99.212624 174.227742 99.361804 174.525835zM89.6682628 180.31069L94.1572383 189.003007C94.4824375 189.561631 94.424826 190.263772 94.0129176 190.761915L93.9227171 190.876169C93.5262931 191.381996 92.8547864 191.58417 92.2449889 191.381292L82.7919822 188.864699C82.6199387 188.829094 82.4577852 188.756228 82.3169265 188.651225 81.804919 188.238625 81.719205 187.491306 82.1244989 186.973497 82.4658998 186.552206 83.036443 186.392984 83.5466592 186.576615L85.4168151 187.099777 88.5497773 183.191091 87.5936526 181.387082C87.3417219 180.945822 87.3871214 180.395054 87.7079065 180.001002 87.9006186 179.759809 88.1823159 179.606354 88.4894706 179.575242 88.7966253 179.544131 89.1033722 179.637984 89.3405345 179.835635 89.4834075 179.967938 89.5953128 180.130149 89.6682628 180.31069zM87.7169265 187.764254L91.6256125 188.885746 89.6893096 185.307795 87.7169265 187.764254zM89.5329621 194.508241C89.85174 194.602633 90.1193539 194.820912 90.2758934 195.114212 90.4324329 195.407512 90.4648231 195.751334 90.3658129 196.068708L89.439755 199.114477C88.3964365 202.533073 85.3326281 204.180735 82.2718263 203.25167L82.2417595 203.25167C79.1809577 202.322606 77.5242762 199.237751 78.564588 195.819154L79.4906459 192.773385C79.5849635 192.454685 79.8033941 192.187254 80.0968439 192.0312 80.3902937 191.875146 80.7341444 191.84356 81.0511136 191.943541L89.5329621 194.508241zM80.7233853 196.462584C80.122049 198.419933 81.0451002 200.139755 82.9723831 200.729065L83.0024499 200.729065C84.9297327 201.330401 86.6826281 200.404343 87.277951 198.446993L87.8432071 196.600891 81.2856347 194.604454 80.7233853 196.462584zM77.9842984 205.635969L86.8479955 205.635969C87.18046 205.633545 87.500011 205.764545 87.7351051 205.999639 87.9701993 206.234733 88.101199 206.554284 88.0987751 206.886748L88.0987751 213.173719C88.0971177 213.791928 87.5954936 214.292207 86.9772829 214.292205 86.6822576 214.291421 86.399763 214.172845 86.1925641 213.962823 85.9853652 213.752801 85.8706229 213.468728 85.8738307 213.173719L85.8738307 208.119488 83.567706 208.119488 83.567706 212.455122C83.566054 213.072159 83.0662574 213.571956 82.4492205 213.573608 82.1539239 213.572818 81.8711261 213.454338 81.6634508 213.244405 81.4557756 213.034473 81.3403598 212.75041 81.3427617 212.455122L81.3427617 208.119488 78.9584633 208.119488 78.9584633 213.266927C78.9568059 213.885135 78.4551818 214.385414 77.836971 214.385412 77.5419458 214.384628 77.2594512 214.266052 77.0522523 214.05603 76.8450534 213.846009 76.7303111 213.561935 76.7335189 213.266927L76.7335189 206.886748C76.7302727 206.554036 76.8610082 206.234006 77.0962823 205.998732 77.3315563 205.763458 77.6515865 205.632723 77.9842984 205.635969zM86.8479955 218.01147C87.18046 218.009046 87.500011 218.140046 87.7351051 218.37514 87.9701993 218.610234 88.101199 218.929785 88.0987751 219.262249L88.0987751 223.207016C88.0987751 224.650223 87.6928731 225.771715 86.9442094 226.514365 86.2458478 227.177338 85.3085263 227.528833 84.3464365 227.48853L84.3163697 227.48853C82.5304009 227.48853 81.4239421 226.586526 80.8556793 225.215479L78.7510022 226.953341C78.4932357 227.201891 78.1527284 227.346446 77.7948775 227.359243 77.4841609 227.356885 77.1872946 227.230349 76.9704205 227.007827 76.7535464 226.785305 76.6346825 226.485285 76.6403118 226.17461 76.6418049 225.682125 76.8844225 225.221601 77.289755 224.941871L80.3746102 222.506459 80.3746102 220.510022 77.8730512 220.510022C77.4121055 220.532642 76.9761559 220.299603 76.7389043 219.903756 76.5016527 219.50791 76.5016527 219.013582 76.7389043 218.617736 76.9761559 218.22189 77.4121055 217.98885 77.8730512 218.01147L86.8479955 218.01147zM82.5785078 223.044655C82.5785078 224.247327 83.227951 224.959911 84.1870824 224.959911L84.2171492 224.959911C85.2905345 224.959911 85.8407572 224.214254 85.8407572 222.996548L85.8407572 220.510022 82.5785078 220.510022 82.5785078 223.044655zM78.0564588 228.546882C78.3331921 228.300674 78.709777 228.199286 79.0727171 228.273274 79.3766277 228.333178 79.6435896 228.512992 79.8133179 228.772111 79.9830462 229.031229 80.0412268 229.3478 79.9747216 229.650334 79.9255616 229.902378 79.7970187 230.132069 79.6079065 230.305791 78.8039683 230.988456 78.2480039 231.91753 78.026392 232.948664 77.8219376 233.949889 78.0955457 234.635412 78.7479955 234.767706L78.7780624 234.767706C79.4004454 234.896993 79.7943207 234.578285 80.6542316 232.81637 81.6825167 230.690646 82.5995546 229.367706 84.8094655 229.809688L84.842539 229.809688C86.863029 230.221604 87.8672606 232.115813 87.4012249 234.391871 87.16878 235.651835 86.5742896 236.816786 85.6904232 237.744321 85.4162795 238.042981 85.0041036 238.173503 84.6080178 238.087082 84.3041073 238.027178 84.0371454 237.847364 83.8674171 237.588246 83.6976888 237.329127 83.6395081 237.012557 83.7060134 236.710022 83.7512619 236.491843 83.8552229 236.290158 84.0066815 236.126726 84.6030484 235.520895 85.0256873 234.765961 85.2304009 233.940869 85.4228285 233.002784 85.0951002 232.422494 84.5538976 232.311247L84.5208241 232.311247C83.7902004 232.160913 83.4534521 232.590869 82.5664811 234.415924 81.5171492 236.556682 80.4467706 237.66314 78.5044543 237.266258L78.4743875 237.266258C76.2644766 236.815256 75.3654788 234.860913 75.8585746 232.473608 76.161576 230.966706 76.9304134 229.593106 78.0564588 228.546882zM83.4504454 243.372829C83.8531099 243.590191 84.1049393 244.010087 84.1070667 244.467668 84.109194 244.92525 83.8612797 245.347469 83.4606538 245.568566 83.0600278 245.789663 82.5706441 245.774343 82.1846325 245.528619L79.3012249 243.841871 76.9710468 247.81069 79.8544543 249.503452C80.2400863 249.729568 80.4757937 250.14424 80.4727878 250.591265 80.4697818 251.038289 80.2285193 251.449754 79.8398813 251.670663 79.4512434 251.891572 78.9742734 251.888365 78.5886414 251.662249L70.7712695 247.074053C70.203291 246.712495 70.0234324 245.966207 70.3643456 245.385602 70.7052587 244.804997 71.4446009 244.598435 72.0370824 244.918263L74.9776169 246.644098 77.3108018 242.666258 74.3702673 240.940423C73.8022888 240.578865 73.6224302 239.832577 73.9633434 239.251972 74.3042565 238.671367 75.0435987 238.464805 75.6360802 238.784633L83.4504454 243.372829zM75.0948775 255.414588C75.5814169 255.905279 75.5780516 256.697481 75.0873607 257.18402 74.5966699 257.670559 73.8044682 257.667194 73.3179287 257.176503L66.9377506 250.757238C66.4778639 250.26315 66.4929697 249.49329 66.9718845 249.017622 67.4507993 248.541954 68.2207439 248.532086 68.7116927 248.995323L75.0948775 255.414588zM68.8770601 260.901782C69.0449541 261.188691 69.0908009 261.530939 69.0043391 261.851921 68.9178773 262.172904 68.7063268 262.445817 68.4170379 262.609577L65.4734967 264.302339C63.1252784 265.652339 60.9003341 265.078062 59.7427617 263.063586L59.7277283 263.036526C58.4168151 260.757461 59.5112472 258.553563 61.7211581 257.284744L63.3658129 256.337639 62.2383073 254.38029C61.9063683 253.782898 62.1153766 253.029675 62.7076851 252.688748 63.2999936 252.347822 64.0562886 252.545427 64.4061247 253.132517L68.8770601 260.901782zM62.7584633 259.251114C61.6760579 259.876503 61.4144766 260.886748 61.8985523 261.731626L61.9165924 261.758686C62.4728285 262.729844 63.45 262.862138 64.5324053 262.239755L66.2071269 261.277617 64.4752784 258.270935 62.7584633 259.251114zM46.032294 259.828396C46.3126577 260.070367 46.4629868 260.430043 46.438196 260.799555 46.42064 261.110221 46.2781097 261.40056 46.0430614 261.604457 45.8080131 261.808355 45.5004552 261.908453 45.1904232 261.88196 44.9357481 261.866735 44.6925128 261.770915 44.4958797 261.608352 43.7113353 260.90164 42.7160679 260.472682 41.6635857 260.387639 40.6443207 260.318486 40.0008909 260.688307 39.9557906 261.346771L39.9557906 261.379844C39.9136971 262.011247 40.2805122 262.360022 42.1416481 262.976392 44.3876392 263.716036 45.8158129 264.446659 45.6624722 266.698664L45.6624722 266.731737C45.5211581 268.788307 43.7742762 270.039087 41.453118 269.879733 40.1816212 269.810962 38.9569975 269.376654 37.9262806 268.628953 37.5937999 268.397829 37.4093989 268.007266 37.4422049 267.603675 37.4620894 267.295413 37.6053058 267.008155 37.8395223 266.806752 38.0737388 266.605348 38.3792089 266.506779 38.686971 266.533296 38.9099967 266.546588 39.1247171 266.622678 39.3063474 266.752784 39.9855344 267.265628 40.7905914 267.585573 41.6365256 267.678842 42.5926503 267.741982 43.124833 267.339087 43.1609131 266.776837L43.1609131 266.743764C43.2120267 266.001114 42.7429844 265.724499 40.8157016 265.087082 38.5576837 264.332405 37.3159243 263.415367 37.4512249 261.439978L37.4512249 261.406904C37.6045657 259.1549 39.4085746 258.009354 41.8530067 258.177728 43.3841948 258.278468 44.8455211 258.85564 46.032294 259.828396zM32.0903118 267.101559C31.8076945 267.708926 31.0967271 267.985792 30.4777866 267.729512 29.8588462 267.473232 29.5517103 266.774807 29.7811804 266.145434L31.2394209 262.621604 25.2260579 265.087082C24.8633426 265.2704 24.4390818 265.28794 24.0624722 265.135189 23.7758422 265.024193 23.547141 264.800704 23.429567 264.516708 23.3119929 264.232713 23.3157951 263.912968 23.4400891 263.631849 23.5850474 263.296554 23.8696518 263.041618 24.2188196 262.934298L28.3169265 261.397884 26.7594655 256.009911C26.6512952 255.704383 26.6577056 255.369977 26.7775056 255.06882 26.9006323 254.759553 27.1464314 254.515149 27.4563941 254.393785 27.7663568 254.272421 28.1127573 254.284952 28.4131403 254.428396 28.8119413 254.597601 29.0958298 254.959843 29.1648107 255.387528L30.5388641 260.55902 32.3699332 259.876503 33.2388641 257.771826C33.3963244 257.339956 33.7779868 257.029258 34.2328195 256.962681 34.6876523 256.896104 35.1423526 257.084379 35.416986 257.453 35.6916195 257.821622 35.741925 258.311182 35.5479955 258.727951L32.0903118 267.101559zM20.3221604 261.280624C19.9090388 261.813745 19.1476235 261.923314 18.6009435 261.528309 18.0542634 261.133304 17.9192138 260.375993 18.295657 259.81637L23.6084633 252.474053C24.0136361 251.91445 24.7957418 251.789259 25.3553452 252.194432 25.9149486 252.599605 26.0401394 253.381711 25.6349666 253.941314L20.3221604 261.280624zM15.1115813 257.302784C14.597786 257.752972 13.8178295 257.70766 13.3596218 257.201004 12.9014141 256.694348 12.9344611 255.913776 13.433853 255.447661L19.3209354 250.122829 16.2180401 246.692205C15.9263982 246.394536 15.8210532 245.961129 15.9435258 245.562805 16.0659983 245.164481 16.396645 244.865127 16.8051453 244.782731 17.2136455 244.700335 17.6344801 244.848112 17.9017817 245.167817L21.8465479 249.524499C22.0721782 249.768831 22.1897992 250.093796 22.1728243 250.42594 22.1558493 250.758083 22.0057115 251.069364 21.7563474 251.289421L15.1115813 257.302784zM7.42048998 247.750557C7.01568171 247.964003 6.5266226 247.939332 6.14534996 247.686231 5.76407732 247.43313 5.55146899 246.992011 5.59100923 246.536089 5.63054946 246.080166 5.91592485 245.682236 6.33507795 245.498552L13.49098 242.037862 11.4855234 237.870601C11.3004393 237.503641 11.3278928 237.065344 11.5573211 236.724347 11.7867494 236.38335 12.1824037 236.192785 12.592056 236.225973 13.0017082 236.25916 13.3615276 236.510928 13.5330735 236.88441L16.0797327 242.179176C16.2267884 242.477324 16.2478342 242.822068 16.1381376 243.135891 16.0284411 243.449713 15.7972096 243.706274 15.4964365 243.847884L7.42048998 247.750557zM11.4915367 234.545212C11.313744 234.872202 10.9912706 235.095367 10.6226058 235.146548 10.3167526 235.188225 10.0069719 235.105365 9.76276802 234.916559 9.51856417 234.727753 9.36038455 234.448811 9.32371938 234.142316 9.28525166 233.888269 9.33063988 233.628606 9.45300668 233.402673 9.98332014 232.495334 10.20192 231.439296 10.0753898 230.395991 9.93708241 229.382739 9.45300668 228.823497 8.79153675 228.913697L8.75846325 228.913697C8.1330735 228.997884 7.8564588 229.42784 7.63697105 231.376169 7.36336303 233.721381 6.93641425 235.284855 4.69944321 235.585523L4.66636971 235.585523C2.62483296 235.862138 1.05835189 234.406904.736636971 232.103786.545292651 230.844326.723909879 229.556402 1.25077951 228.396548 1.41017606 228.02651 1.75313053 227.768151 2.15278396 227.717038 2.45897123 227.675334 2.76909789 227.75811 3.0137778 227.946847 3.25845771 228.135584 3.41726792 228.414528 3.45467706 228.721269 3.48496798 228.943189 3.45268668 229.169158 3.36146993 229.373719 2.99872085 230.14191 2.84818945 230.993191 2.92550111 231.839198 3.05478842 232.78931 3.55690423 233.228285 4.10412027 233.156125L4.13719376 233.156125C4.87683742 233.056904 5.03919822 232.554788 5.28875278 230.525278 5.57138085 228.162027 6.21781737 226.760913 8.1811804 226.496325L8.2142539 226.496325C10.4512249 226.195657 11.9365256 227.729065 12.2672606 230.158463 12.4684251 231.665745 12.1974137 233.198325 11.4915367 234.545212zM6.19075724 213.775056L6.16069042 213.775056C4.58478187 213.803493 3.06570501 213.186664 1.95573928 212.067615.845773559 210.948565.241346906 209.424511.282628062 207.848886.282628062 206.144098.736636971 204.992539 1.43418708 204.051448 1.67105014 203.743465 2.0378609 203.563394 2.42639198 203.564365 2.7517182 203.565151 3.06327256 203.695764 3.29189801 203.927212 3.52052346 204.15866 3.64730414 204.471793 3.644098 204.797105 3.63997915 205.064531 3.55508286 205.32446 3.40055679 205.542762 2.87586321 206.203913 2.58980898 207.022875 2.58875278 207.866927 2.58875278 209.782183 4.17928731 211.174276 6.12761693 211.174276L6.16069042 211.174276C8.10902004 211.174276 9.73262806 209.827283 9.73262806 207.866927 9.74917726 206.960595 9.42761313 206.080581 8.83062361 205.398441 8.41548752 204.910241 8.47471756 204.177942 8.96291759 203.762806 9.45111763 203.34767 10.1834163 203.4069 10.5985523 203.8951 11.5005568 204.917372 12.0267261 206.120045 12.0267261 207.939087 12.0547282 209.495298 11.4488652 210.996024 10.34828 212.09661 9.24769478 213.197195 7.74696788 213.803058 6.19075724 213.775056zM6.19075724 202.241425L6.16069042 202.241425C2.9285078 202.241425.282628062 199.691759.282628062 196.185969.282628062 192.680178 2.8954343 190.172606 6.12761693 190.172606L6.16069042 190.172606C9.38986637 190.172606 12.0357461 192.722272 12.0357461 196.231069 12.0357461 199.739866 9.42293987 202.241425 6.19075724 202.241425zM6.19075724 192.776392L6.16069042 192.776392C4.2123608 192.776392 2.58875278 194.204566 2.58875278 196.219042 2.58875278 198.233519 4.17928731 199.643653 6.12761693 199.643653L6.16069042 199.643653C8.10902004 199.643653 9.73262806 198.215479 9.73262806 196.201002 9.73262806 194.186526 8.13908686 192.776392 6.19075724 192.776392zM1.66269488 188.034855C1.32998298 188.038101 1.00995273 187.907366.7746787 187.672092.539404667 187.436818.408669165 187.116788.411915367 186.784076L.411915367 186.525501C.416828614 185.995956.692541063 185.5058 1.14253898 185.226615L7.47461024 180.415924 1.61458797 180.415924C1.1591013 180.438412.728252519 180.208209.493768538 179.817068.259284557 179.425927.259284557 178.937436.493768538 178.546295.728252519 178.155154 1.1591013 177.924951 1.61458797 177.947439L10.6556793 177.947439C10.9881438 177.945015 11.3076947 178.076015 11.5427889 178.311109 11.777883 178.546203 11.9088827 178.865754 11.9064588 179.198218L11.9064588 179.279399C11.9015456 179.808944 11.6258331 180.2991 11.1758352 180.578285L4.61826281 185.578396 10.7067929 185.578396C11.3647882 185.610883 11.8816027 186.153842 11.8816027 186.812639 11.8816027 187.471436 11.3647882 188.014396 10.7067929 188.046882L1.66269488 188.034855zM1.72583519 175.220379C1.39337069 175.222803 1.07381976 175.091803.838725605 174.856709.603631455 174.621615.472631783 174.302064.475055679 173.969599L.475055679 167.604454C.506204588 166.99865 1.00648 166.523437 1.61308463 166.523437 2.21968927 166.523437 2.71996468 166.99865 2.75111359 167.604454L2.75111359 172.715813 5.1564588 172.715813 5.1564588 168.335078C5.1564588 167.707392 5.66529865 167.198552 6.29298441 167.198552 6.92067017 167.198552 7.42951002 167.707392 7.42951002 168.335078L7.42951002 172.71882 10.6767261 172.71882C11.3675125 172.71882 11.9275056 173.278813 11.9275056 173.969599 11.9275056 174.660386 11.3675125 175.220379 10.6767261 175.220379L1.72583519 175.220379zM10.592539 164.904454L1.72583519 164.904454C1.39364914 164.907689 1.07408405 164.777363.838899402 164.542744.603714757 164.308125.47262099 163.988874.475055679 163.656682L.475055679 157.34265C.476713081 156.724442.978337127 156.224163 1.59654788 156.224165 1.89157315 156.224949 2.17406774 156.343525 2.38126664 156.553547 2.58846553 156.763568 2.70320785 157.047641 2.7 157.34265L2.7 162.420935 5.00612472 162.420935 5.00612472 158.085301C5.00778212 157.467092 5.50940617 156.966813 6.12761693 156.966815 6.4226422 156.967599 6.70513678 157.086175 6.91233568 157.296197 7.11953457 157.506219 7.23427689 157.790292 7.23106904 158.085301L7.23106904 162.420935 9.62138085 162.420935 9.62138085 157.273497C9.6230329 156.65646 10.1228295 156.156663 10.7398664 156.155011 11.0351629 156.155802 11.3179608 156.274281 11.525636 156.484214 11.7333113 156.694147 11.848727 156.978209 11.8463252 157.273497L11.8463252 163.656682C11.8487726 163.989402 11.7172681 164.309118 11.4814283 164.543827 11.2455884 164.778535 10.9252434 164.908501 10.592539 164.904454zM1.72583519 154.086414C1.39364914 154.089648 1.07408405 153.959323.838899402 153.724704.603714757 153.490085.47262099 153.170834.475055679 152.838641L.475055679 148.890869C.475055679 147.447661.880957684 146.326169 1.62962138 145.583519 2.32854089 144.921439 3.26547071 144.57009 4.22739421 144.609354L4.26046771 144.609354C6.04643653 144.609354 7.14988864 145.511359 7.71815145 146.882405L9.82282851 145.144543C10.0818341 144.896033 10.4232475 144.751548 10.7819599 144.738641 11.0924107 144.740987 11.3889792 144.867619 11.6053778 145.090233 11.8217763 145.312847 11.9399622 145.612881 11.9335189 145.923274 11.9330111 146.416823 11.6902807 146.878685 11.2840757 147.15902L8.19922049 149.594432 8.19922049 151.590869 10.6827394 151.590869C11.1436852 151.568248 11.5796347 151.801288 11.8168863 152.197135 12.0541379 152.592981 12.0541379 153.087308 11.8168863 153.483155 11.5796347 153.879001 11.1436852 154.112041 10.6827394 154.089421L1.72583519 154.086414zM6.01336303 149.053229C6.01336303 147.850557 5.36391982 147.137973 4.40478842 147.137973L4.37171492 147.137973C3.3013363 147.137973 2.7481069 147.886637 2.7481069 149.104343L2.7481069 151.587862 6.01336303 151.587862 6.01336303 149.053229zM10.592539 142.34833L1.72583519 142.34833C1.39337069 142.350754 1.07381976 142.219754.838725605 141.98466.603631455 141.749566.472631783 141.430015.475055679 141.09755L.475055679 134.798552C.476707751 134.179855.977850445 133.678712 1.59654788 133.67706 1.89184833 133.678643 2.17433328 133.797887 2.38144535 134.008386 2.58855742 134.218884 2.70320538 134.503265 2.7 134.798552L2.7 139.864811 5.00612472 139.864811 5.00612472 135.529176C5.00777679 134.910479 5.50891949 134.409336 6.12761693 134.407684 6.42291737 134.409267 6.70540232 134.528511 6.91251439 134.739009 7.11962646 134.949507 7.23427442 135.233889 7.23106904 135.529176L7.23106904 139.864811 9.62138085 139.864811 9.62138085 134.717372C9.62137862 134.099161 10.1216578 133.597537 10.7398664 133.59588 11.035689 133.596664 11.3189483 133.715556 11.5267111 133.926142 11.7344738 134.136728 11.849533 134.421566 11.8463252 134.717372L11.8463252 141.09755C11.8487598 141.43054 11.7173492 141.750556 11.4816007 141.985739 11.2458522 142.220922 10.9255224 142.351564 10.592539 142.34833zM1.66269488 131.53029C1.33023038 131.532713 1.01067944 131.401714.775585293 131.16662.540491143 130.931525.409491471 130.611975.411915367 130.27951L.411915367 130.017929C.417954232 129.488684.693382891 128.999033 1.14253898 128.719042L7.47461024 123.908352 1.61458797 123.908352C1.1591013 123.93084.728252519 123.700637.493768538 123.309496.259284557 122.918355.259284557 122.429863.493768538 122.038722.728252519 121.647582 1.1591013 121.417378 1.61458797 121.439866L10.6556793 121.439866C10.985256 121.436663 11.3025215 121.564933 11.5372652 121.796291 11.7720089 122.027649 11.9048744 122.343017 11.9064588 122.672606L11.9064588 122.753786C11.9004199 123.283031 11.6249913 123.772682 11.1758352 124.052673L4.61826281 129.052784 10.7067929 129.052784C11.3647882 129.08527 11.8816027 129.62823 11.8816027 130.287027 11.8816027 130.945823 11.3647882 131.488783 10.7067929 131.521269L1.66269488 131.53029zM6.19075724 119.320156L6.16069042 119.320156C4.58478187 119.348593 3.06570501 118.731765 1.95573928 117.612715.845773559 116.493665.241346906 114.969611.282628062 113.393987.282628062 111.689198.736636971 110.537639 1.43418708 109.593541 1.67194368 109.286653 2.03817991 109.106864 2.42639198 109.106459 2.7519935 109.108043 3.06353841 109.239325 3.29207707 109.471249 3.52061574 109.703174 3.6473019 110.016615 3.644098 110.342205 3.63997915 110.609631 3.55508286 110.869561 3.40055679 111.087862 2.87545381 111.747626 2.58930545 112.565799 2.58875278 113.40902 2.58875278 115.327283 4.17928731 116.71637 6.12761693 116.71637L6.16069042 116.71637C8.10902004 116.71637 9.73262806 115.369376 9.73262806 113.40902 9.74929568 112.503573 9.42766867 111.624459 8.83062361 110.943541 8.56207765 110.627731 8.4824136 110.192643 8.62164015 109.80217 8.76086669 109.411698 9.09783201 109.125163 9.50560451 109.0505 9.91337702 108.975837 10.3300064 109.12439 10.5985523 109.4402 11.5005568 110.462472 12.0267261 111.665145 12.0267261 113.48118 12.0547037 115.037657 11.4489322 116.538674 10.3484425 117.639731 9.24795278 118.740787 7.74724842 119.347332 6.19075724 119.320156zM10.592539 106.971715L1.72583519 106.971715C1.39337069 106.974139 1.07381976 106.843139.838725605 106.608045.603631455 106.372951.472631783 106.0534.475055679 105.720935L.475055679 99.4219376C.476707751 98.8032402.977850445 98.3020975 1.59654788 98.3004454 1.89184833 98.3020286 2.17433328 98.4212728 2.38144535 98.6317709 2.58855742 98.842269 2.70320538 99.1266503 2.7 99.4219376L2.7 104.488196 5.00612472 104.488196 5.00612472 100.152561C5.00777679 99.5338638 5.50891949 99.0327211 6.12761693 99.031069 6.42291737 99.0326522 6.70540232 99.1518964 6.91251439 99.3623945 7.11962646 99.5728926 7.23427442 99.857274 7.23106904 100.152561L7.23106904 104.488196 9.62138085 104.488196 9.62138085 99.3407572C9.62137862 98.7225465 10.1216578 98.2209224 10.7398664 98.219265 11.035689 98.2200493 11.3189483 98.3389418 11.5267111 98.5495274 11.7344738 98.760113 11.849533 99.0449509 11.8463252 99.3407572L11.8463252 105.720935C11.8487598 106.053926 11.7173492 106.373941 11.4816007 106.609124 11.2458522 106.844307 10.9255224 106.974949 10.592539 106.971715z"/>
  </g>
</svg>
