<?xml version="1.0" encoding="utf-8"?>
<!-- Generator: Adobe Illustrator 18.1.0, SVG Export Plug-In . SVG Version: 6.00 Build 0)  -->
<!DOCTYPE svg PUBLIC "-//W3C//DTD SVG 1.1//EN" "http://www.w3.org/Graphics/SVG/1.1/DTD/svg11.dtd">
<svg version="1.1" id="Layer_1" xmlns="http://www.w3.org/2000/svg" xmlns:xlink="http://www.w3.org/1999/xlink" x="0px" y="0px"
	 viewBox="0 0 192 192" enable-background="new 0 0 192 192" xml:space="preserve">
<g>
	<g>
		<g>
			<path fill="#67A8C8" d="M50.7,129h1.7l1.5,5l1.6-5H57l1.6,5l1.5-5h1.7l-2.5,7.4H58l-1.7-4.8l-1.7,4.8h-1.4L50.7,129z"/>
			<path fill="#67A8C8" d="M65.9,132.7L65.9,132.7c0-2.1,1.6-3.8,3.9-3.8c2.3,0,3.9,1.7,3.9,3.8v0c0,2.1-1.6,3.8-3.9,3.8
				C67.5,136.4,65.9,134.7,65.9,132.7z M72,132.7L72,132.7c0-1.3-0.9-2.3-2.2-2.3c-1.3,0-2.2,1-2.2,2.3v0c0,1.3,0.9,2.3,2.2,2.3
				C71.1,134.9,72,133.9,72,132.7z"/>
			<path fill="#67A8C8" d="M78.2,129h3.4c0.9,0,1.7,0.3,2.1,0.7c0.4,0.4,0.6,1,0.6,1.7v0c0,1.2-0.6,1.9-1.6,2.3l1.8,2.6h-1.9
				l-1.6-2.3h0h-1.2v2.3h-1.6V129z M81.5,132.5c0.8,0,1.2-0.4,1.2-1v0c0-0.7-0.5-1-1.3-1h-1.6v2.1H81.5z"/>
			<path fill="#67A8C8" d="M89,129h1.6v3.2l3-3.2h1.9l-3,3.1l3.1,4.2h-1.9l-2.3-3.1l-0.8,0.9v2.2H89V129z"/>
			<path fill="#67A8C8" d="M99.2,135.2l1-1.1c0.7,0.5,1.4,0.9,2.2,0.9c0.7,0,1.1-0.3,1.1-0.7v0c0-0.4-0.3-0.6-1.5-0.9
				c-1.5-0.4-2.4-0.8-2.4-2.2v0c0-1.3,1.1-2.2,2.6-2.2c1.1,0,2,0.3,2.7,0.9L104,131c-0.6-0.5-1.3-0.7-1.9-0.7
				c-0.6,0-0.9,0.3-0.9,0.6v0c0,0.5,0.3,0.6,1.6,1c1.5,0.4,2.3,0.9,2.3,2.2v0c0,1.5-1.1,2.3-2.7,2.3
				C101.2,136.4,100.1,136,99.2,135.2z"/>
			<path fill="#67A8C8" d="M109.6,129h1.6v2.9h3V129h1.6v7.3h-1.6v-2.9h-3v2.9h-1.6V129z"/>
			<path fill="#67A8C8" d="M120.4,132.7L120.4,132.7c0-2.1,1.6-3.8,3.9-3.8c2.3,0,3.9,1.7,3.9,3.8v0c0,2.1-1.6,3.8-3.9,3.8
				C122,136.4,120.4,134.7,120.4,132.7z M126.5,132.7L126.5,132.7c0-1.3-0.9-2.3-2.2-2.3c-1.3,0-2.2,1-2.2,2.3v0
				c0,1.3,0.9,2.3,2.2,2.3C125.6,134.9,126.5,133.9,126.5,132.7z"/>
			<path fill="#67A8C8" d="M132.7,129h3c1.7,0,2.8,1,2.8,2.5v0c0,1.7-1.3,2.6-3,2.6h-1.2v2.2h-1.6V129z M135.6,132.7
				c0.8,0,1.3-0.5,1.3-1.1v0c0-0.7-0.5-1.1-1.3-1.1h-1.2v2.2H135.6z"/>
		</g>
		<g>
			<path fill="#515254" d="M11.2,82.2h5.3l11.2,26.4h-6l-2.4-5.9H8.3l-2.4,5.9H0L11.2,82.2z M17.3,97.6l-3.5-8.5l-3.5,8.5H17.3z"/>
			<path fill="#515254" d="M38,95.3l-8.8-12.9H36l5.5,8.5l5.5-8.5h6.5l-8.8,12.8l9.1,13.4h-6.7l-5.9-9l-5.9,9h-6.5L38,95.3z"/>
			<path fill="#515254" d="M56.9,97.4v-15h5.8v14.8c0,4.3,2.1,6.5,5.6,6.5c3.5,0,5.6-2.1,5.6-6.3v-15h5.8v14.8
				c0,7.9-4.5,11.8-11.5,11.8S56.9,105.1,56.9,97.4z"/>
			<path fill="#515254" d="M84.6,82.4h12c3.3,0,5.9,0.9,7.6,2.7c1.5,1.5,2.2,3.5,2.2,6v0.1c0,4.2-2.3,6.9-5.6,8.1l6.4,9.4h-6.7
				l-5.6-8.4h-0.1h-4.5v8.4h-5.8V82.4z M96.2,95.1c2.8,0,4.4-1.5,4.4-3.7v-0.1c0-2.5-1.7-3.7-4.5-3.7h-5.7v7.5H96.2z"/>
			<path fill="#515254" d="M110.8,82.4h19.8v5.1h-14v5.3h12.3V98h-12.3v5.5h14.2v5.1h-19.9V82.4z"/>
			<path fill="#515254" d="M145.2,82.4h12c3.3,0,5.9,0.9,7.6,2.7c1.5,1.5,2.2,3.5,2.2,6v0.1c0,4.2-2.3,6.9-5.6,8.1l6.4,9.4h-6.7
				l-5.6-8.4h-0.1h-4.5v8.4h-5.8V82.4z M156.8,95.1c2.8,0,4.4-1.5,4.4-3.7v-0.1c0-2.5-1.7-3.7-4.5-3.7h-5.7v7.5H156.8z"/>
			<path fill="#515254" d="M171.3,82.4H182c6.2,0,10,3.7,10,9.1v0.1c0,6.1-4.7,9.2-10.6,9.2H177v7.9h-5.8V82.4z M181.6,95.6
				c2.9,0,4.6-1.7,4.6-4v-0.1c0-2.6-1.8-4-4.7-4H177v8H181.6z"/>
		</g>
		<g>
			<g>
				<path fill="#67A8C8" d="M58.9,63.3c-2,0-3.6-1.6-3.6-3.6v0c0-2,1.5-3.6,3.6-3.6c1.3,0,2.1,0.4,2.7,1.1l-1,1.1
					c-0.5-0.5-1.1-0.8-1.8-0.8c-1.2,0-2,1-2,2.2v0c0,1.2,0.8,2.2,2,2.2c0.8,0,1.3-0.3,1.8-0.8l1,1C61,62.8,60.2,63.3,58.9,63.3z"/>
				<path fill="#67A8C8" d="M66.5,63.2v-2.8h-2.8v2.8h-1.5v-7h1.5V59h2.8v-2.8h1.5v7H66.5z"/>
				<path fill="#67A8C8" d="M69.1,63.2v-7h1.5v7H69.1z"/>
				<path fill="#67A8C8" d="M74.9,63.3c-2,0-3.6-1.6-3.6-3.6v0c0-2,1.5-3.6,3.6-3.6c1.3,0,2.1,0.4,2.7,1.1l-1,1.1
					c-0.5-0.5-1.1-0.8-1.8-0.8c-1.2,0-2,1-2,2.2v0c0,1.2,0.8,2.2,2,2.2c0.8,0,1.3-0.3,1.8-0.8l1,1C77.1,62.8,76.3,63.3,74.9,63.3z"
					/>
				<path fill="#67A8C8" d="M83.5,63.2l-0.6-1.6h-2.9l-0.6,1.6h-1.6l3-7h1.4l3,7H83.5z M81.4,58l-0.9,2.3h1.8L81.4,58z"/>
				<path fill="#67A8C8" d="M88.4,63.3c-2.2,0-3.7-1.5-3.7-3.6v0c0-2,1.5-3.6,3.6-3.6c1.3,0,2,0.3,2.7,1l-1,1.2
					c-0.5-0.4-1-0.7-1.8-0.7c-1.1,0-2,1-2,2.2v0c0,1.3,0.9,2.2,2.1,2.2c0.6,0,1.1-0.1,1.4-0.4v-1h-1.5v-1.3h3v3
					C90.6,62.8,89.6,63.3,88.4,63.3z"/>
				<path fill="#67A8C8" d="M95.5,63.3c-2.1,0-3.7-1.6-3.7-3.6v0c0-2,1.6-3.6,3.7-3.6c2.1,0,3.7,1.6,3.7,3.6v0
					C99.2,61.7,97.7,63.3,95.5,63.3z M97.6,59.7c0-1.2-0.9-2.2-2.1-2.2c-1.2,0-2.1,1-2.1,2.2v0c0,1.2,0.9,2.2,2.1,2.2
					C96.8,61.9,97.6,60.9,97.6,59.7L97.6,59.7z"/>
				<path fill="#67A8C8" d="M108,63.3c-2,0-3.6-1.6-3.6-3.6v0c0-2,1.5-3.6,3.6-3.6c1.3,0,2.1,0.4,2.7,1.1l-1,1.1
					c-0.5-0.5-1.1-0.8-1.8-0.8c-1.2,0-2,1-2,2.2v0c0,1.2,0.8,2.2,2,2.2c0.8,0,1.3-0.3,1.8-0.8l1,1C110.2,62.8,109.4,63.3,108,63.3z"
					/>
				<path fill="#67A8C8" d="M116.5,63.2l-0.6-1.6H113l-0.6,1.6h-1.6l3-7h1.4l3,7H116.5z M114.4,58l-0.9,2.3h1.8L114.4,58z"/>
				<path fill="#67A8C8" d="M123.9,63.2v-4.5l-2,3h0l-1.9-2.9v4.5h-1.5v-7h1.6l1.8,2.9l1.8-2.9h1.7v7H123.9z"/>
				<path fill="#67A8C8" d="M129.2,61.1H128v2.1h-1.5v-7h2.8c1.7,0,2.7,1,2.7,2.4v0C132,60.3,130.7,61.1,129.2,61.1z M130.4,58.6
					c0-0.7-0.5-1.1-1.2-1.1H128v2.1h1.2C130,59.7,130.4,59.3,130.4,58.6L130.4,58.6z"/>
				<path fill="#67A8C8" d="M134.9,63.3c-1.1,0-2.1-0.4-3-1.1l0.9-1.1c0.6,0.5,1.3,0.8,2.1,0.8c0.6,0,1-0.2,1-0.7v0
					c0-0.4-0.2-0.6-1.4-0.9c-1.4-0.4-2.3-0.7-2.3-2.1v0c0-1.3,1-2.1,2.4-2.1c1,0,1.9,0.3,2.6,0.9l-0.8,1.2c-0.6-0.4-1.2-0.7-1.8-0.7
					c-0.6,0-0.9,0.3-0.9,0.6v0c0,0.5,0.3,0.6,1.5,0.9c1.4,0.4,2.2,0.9,2.2,2.1v0C137.5,62.5,136.4,63.3,134.9,63.3z"/>
			</g>
			<polygon fill="#FF0000" points="101.8,58.4 102.1,59.5 103.2,59.1 102.3,59.9 103.2,60.7 102.1,60.4 101.8,61.4 101.6,60.4 
				100.5,60.7 101.3,59.9 100.5,59.1 101.6,59.5 			"/>
		</g>
		<g>
			<polygon fill="#515254" points="30.6,73.1 30.6,58 96.4,20.1 162.1,58 162.1,73.1 166.2,73.1 166.2,55.7 96.4,15.4 26.6,55.7 
				26.6,73.1 			"/>
			<polygon fill="#515254" points="162.1,118.9 162.1,134 96.4,171.9 30.6,134 30.6,118.9 26.6,118.9 26.6,136.3 96.4,176.6 
				166.2,136.3 166.2,118.9 			"/>
		</g>
	</g>
</g>
</svg>
