<?xml version="1.0" encoding="UTF-8" standalone="no"?>
<svg width="192px" height="192px" viewBox="0 0 192 192" version="1.1" xmlns="http://www.w3.org/2000/svg" xmlns:xlink="http://www.w3.org/1999/xlink">
    <!-- Generator: Sketch 43.2 (39069) - http://www.bohemiancoding.com/sketch -->
    <title>prototypes-process-play-2017</title>
    <desc>Created with Sketch.</desc>
    <defs></defs>
    <g id="Page-1" stroke="none" stroke-width="1" fill="none" fill-rule="evenodd">
        <g id="prototypes-process-play-2017" fill-rule="nonzero">
            <g id="2017-Prototypes-Process-Play_Chicago-Camps_C" transform="translate(27.000000, 0.000000)">
                <path d="M1.35272727,72.6545455 C1.14637018,72.6557146 0.948126514,72.5742566 0.802207675,72.4283378 C0.656288836,72.2824189 0.57483081,72.0841753 0.576,71.8778182 L0.576,69.768 C0.576,68.0814545 1.57527273,67.0625455 3.01963636,67.0625455 L3.03927273,67.0625455 C4.67563636,67.0625455 5.52218182,68.3345455 5.52218182,69.9207273 L5.52218182,71.1010909 L6.92509091,71.1010909 C7.35466803,71.1010909 7.70290909,71.449332 7.70290909,71.8789091 C7.70290909,72.3084862 7.35466803,72.6567273 6.92509091,72.6567273 L1.35272727,72.6545455 Z M4.14545455,69.8770909 C4.14545455,69.1003636 3.68072727,68.6443636 3.07418182,68.6443636 L3.05454545,68.6443636 C2.35854545,68.6443636 1.98327273,69.1287273 1.98327273,69.9076364 L1.98327273,71.1098182 L4.14545455,71.1098182 L4.14545455,69.8770909 Z" id="Shape" fill="#000000"></path>
                <path d="M1.35272727,66.1483636 C1.14637018,66.1495328 0.948126514,66.0680748 0.802207675,65.922156 C0.656288836,65.7762371 0.57483081,65.5779935 0.576,65.3716364 L0.576,62.9170909 C0.576,62.0181818 0.829090909,61.3221818 1.29381818,60.8574545 C1.72819009,60.4458277 2.31040973,60.2271019 2.90836364,60.2509091 L2.928,60.2509091 C4.03854545,60.2509091 4.72581818,60.8072727 5.07927273,61.6647273 L6.38836364,60.5738182 C6.54895016,60.4189569 6.76105522,60.3288316 6.984,60.3207273 C7.17726555,60.322442 7.36183139,60.401321 7.49663983,60.5398172 C7.63144826,60.6783134 7.70531868,60.8649404 7.70181818,61.0581818 C7.70196009,61.3650326 7.55099425,61.6522757 7.29818182,61.8261818 L5.38036364,63.3403636 L5.38036364,64.5818182 L6.92509091,64.5818182 C7.35466803,64.5818182 7.70290909,64.9300592 7.70290909,65.3596364 C7.70290909,65.7892135 7.35466803,66.1374545 6.92509091,66.1374545 L1.35272727,66.1483636 Z M4.008,63.0174545 C4.008,62.2603636 3.60436364,61.8261818 3.00872727,61.8261818 L2.98909091,61.8261818 C2.32363636,61.8261818 1.97890909,62.2909091 1.97890909,63.048 L1.97890909,64.5818182 L4.008,64.5818182 L4.008,63.0174545 Z" id="Shape" fill="#000000"></path>
                <path d="M4.13018182,59.4436364 L4.11054545,59.4436364 C2.10109091,59.4436364 0.456,57.8574545 0.456,55.6778182 C0.456,53.4981818 2.07927273,51.9272727 4.08872727,51.9272727 L4.10836364,51.9272727 C6.11781818,51.9272727 7.76290909,53.5134545 7.76290909,55.6930909 C7.76290909,57.8727273 6.13963636,59.4436364 4.13018182,59.4436364 Z M4.13018182,53.5527273 L4.11054545,53.5527273 C2.89963636,53.5527273 1.88945455,54.4407273 1.88945455,55.6930909 C1.88945455,56.9454545 2.88,57.8138182 4.09090909,57.8138182 L4.11054545,57.8138182 C5.32145455,57.8138182 6.33163636,56.9258182 6.33163636,55.6734545 C6.33163636,54.4210909 5.34109091,53.5570909 4.13018182,53.5570909 L4.13018182,53.5527273 Z" id="Shape" fill="#000000"></path>
                <path d="M2.00945455,49.5272727 L2.00945455,51.0218182 C1.98845346,51.4023091 1.67379729,51.7000768 1.29272727,51.7000768 C0.911657251,51.7000768 0.597001087,51.4023091 0.576,51.0218182 L0.576,46.4727273 C0.597001087,46.0922364 0.911657251,45.7944686 1.29272727,45.7944686 C1.67379729,45.7944686 1.98845346,46.0922364 2.00945455,46.4727273 L2.00945455,47.9672727 L6.92727273,47.9672727 C7.35684985,47.9672727 7.70509091,48.3155138 7.70509091,48.7450909 C7.70509091,49.174668 7.35684985,49.5229091 6.92727273,49.5229091 L2.00945455,49.5272727 Z" id="Shape" fill="#000000"></path>
                <path d="M4.15854545,45.6 L4.14545455,45.6 C2.136,45.6218182 0.473454545,44.0530909 0.449454545,41.8712727 C0.425454545,39.6894545 2.03563636,38.1076364 4.04509091,38.0858182 L4.06472727,38.0858182 C6.07418182,38.064 7.73672727,39.6327273 7.76072727,41.8145455 C7.78472727,43.9963636 6.168,45.576 4.15854545,45.6 Z M4.09745455,39.7090909 L4.07781818,39.7090909 C2.86690909,39.7221818 1.86545455,40.6210909 1.87854545,41.8734545 C1.89163636,43.1258182 2.89090909,43.9832727 4.10181818,43.9701818 L4.12145455,43.9701818 C5.33236364,43.9570909 6.33381818,43.0581818 6.32072727,41.8058182 C6.30763636,40.5534545 5.30836364,39.6981818 4.09745455,39.7090909 L4.09745455,39.7090909 Z" id="Shape" fill="#000000"></path>
                <path d="M1.92436364,35.6487273 L1.92436364,37.1432727 C1.93901773,37.4087708 1.80570558,37.660619 1.57790984,37.7977798 C1.3501141,37.9349407 1.06515863,37.9349407 0.837362886,37.7977798 C0.609567145,37.660619 0.476254997,37.4087708 0.490909091,37.1432727 L0.521454545,32.5985455 C0.506800452,32.3330473 0.640112599,32.0811992 0.867908341,31.9440383 C1.09570408,31.8068775 1.38065955,31.8068775 1.6084553,31.9440383 C1.83625104,32.0811992 1.96956318,32.3330473 1.95490909,32.5985455 L1.95490909,34.0930909 L6.87272727,34.1258182 C7.30230439,34.1258182 7.65054545,34.4740592 7.65054545,34.9036364 C7.65054545,35.3332135 7.30230439,35.6814545 6.87272727,35.6814545 L1.92436364,35.6487273 Z" id="Shape" fill="#000000"></path>
                <path d="M5.12072727,28.8283636 L1.77163636,30.7243636 C1.59906077,30.8273281 1.39753736,30.8710043 1.19781818,30.8487273 C0.996036019,30.8227636 0.813114337,30.7169074 0.690064749,30.5548921 C0.567015161,30.3928768 0.514132321,30.188257 0.543272727,29.9869091 C0.590085779,29.6676736 0.805183818,29.3983842 1.10618182,29.2821818 L3.76581818,27.8727273 L1.49672727,25.8414545 C1.24076798,25.6602515 1.09903987,25.3577324 1.12363636,25.0450909 C1.13905598,24.8425314 1.23932781,24.6559116 1.39972595,24.5312498 C1.56012409,24.406588 1.76572078,24.3554862 1.96581818,24.3905455 C2.16142141,24.4240824 2.34196005,24.5170179 2.48290909,24.6567273 L5.27563636,27.2727273 L7.30036364,27.5149091 C7.72692829,27.5661209 8.03121186,27.9534353 7.98,28.38 C7.92878814,28.8065647 7.54147375,29.1108482 7.11490909,29.0596364 L5.12072727,28.8283636 Z" id="Shape" fill="#000000"></path>
                <path d="M2.46763636,22.7149091 C2.27148605,22.649844 2.10959195,22.5088852 2.01815609,22.3235533 C1.92672024,22.1382215 1.91337008,21.9239766 1.98109091,21.7287273 L2.65745455,19.7301818 C3.19854545,18.1330909 4.47272727,17.4894545 5.83854545,17.952 L5.85818182,17.952 C7.40727273,18.4778182 7.80218182,19.9527273 7.29381818,21.4538182 L6.91418182,22.5730909 L8.24290909,23.0225455 C8.50598648,23.1117969 8.70146494,23.3346187 8.75570962,23.6070762 C8.8099543,23.8795336 8.71472414,24.1602338 8.50589143,24.3434398 C8.29705872,24.5266458 8.00635012,24.5845242 7.74327273,24.4952727 L2.46763636,22.7149091 Z M6,20.9694545 C6.24872727,20.2341818 5.95636364,19.6603636 5.38254545,19.4596364 L5.36290909,19.4596364 C4.70836364,19.2414545 4.19345455,19.5752727 3.94472727,20.3105455 L3.55854545,21.4494545 L5.60509091,22.1432727 L6,20.9694545 Z" id="Shape" fill="#000000"></path>
                <path d="M9.83127273,18.6109091 L5.30181818,15.4669091 C5.12891636,15.3499611 5.01071213,15.1680091 4.97413161,14.9625006 C4.9375511,14.7569921 4.98570939,14.5454276 5.10763636,14.376 L7.34181818,11.1578182 C7.56181787,10.843192 7.99456741,10.7652191 8.31054545,10.9832727 C8.46095968,11.0887458 8.56306025,11.2498866 8.59419137,11.4309387 C8.6253225,11.6119908 8.58290949,11.7979801 8.47636364,11.9476364 L6.67854545,14.5352727 L7.85672727,15.3534545 L9.384,13.1389091 C9.60399968,12.8242829 10.0367492,12.74631 10.3527273,12.9643636 C10.5031415,13.0698367 10.6052421,13.2309775 10.6363732,13.4120296 C10.6675043,13.5930817 10.6250913,13.7790711 10.5185455,13.9287273 L8.99127273,16.1432727 L10.2109091,16.9898182 L12.0370909,14.3716364 C12.2570906,14.0570101 12.6898401,13.9790372 13.0058182,14.1970909 C13.1562324,14.3025639 13.258333,14.4637048 13.2894641,14.6447569 C13.3205952,14.825809 13.2781822,15.0117983 13.1716364,15.1614545 L10.9090909,18.4167273 C10.7922649,18.5858514 10.6128429,18.7014308 10.4105486,18.7378766 C10.2082543,18.7743223 9.99977683,18.7286275 9.83127273,18.6109091 L9.83127273,18.6109091 Z" id="Shape" fill="#000000"></path>
                <path d="M13.4814545,13.6865455 C13.2508652,13.6971372 13.0289633,13.5975243 12.8836364,13.4181818 C12.7620286,13.2697983 12.7050914,13.0788007 12.7256021,12.8880511 C12.7461128,12.6973014 12.8423537,12.5227746 12.9927273,12.4036364 C13.115946,12.3008935 13.268921,12.2404683 13.4290909,12.2312727 C14.0855166,12.2175558 14.7190423,11.9874618 15.2312727,11.5767273 C15.7243636,11.1730909 15.8618182,10.7367273 15.6,10.416 L15.5869091,10.4007273 C15.3381818,10.0952727 15.0218182,10.0930909 13.9156364,10.6058182 C12.5825455,11.2254545 11.6225455,11.5025455 10.7345455,10.416 L10.7214545,10.4007273 C9.90981818,9.408 10.1694545,8.09890909 11.2887273,7.18472727 C11.8942846,6.67429461 12.6345991,6.34998081 13.4203636,6.25090909 C13.7408335,6.2087808 14.0501026,6.38537931 14.1766912,6.68278644 C14.3032799,6.98019357 14.2161599,7.32551155 13.9636364,7.52727273 C13.8562479,7.61573854 13.7262641,7.6724175 13.5883636,7.69090909 C13.0628609,7.74780963 12.5624044,7.94527892 12.1396364,8.26254545 C11.6792727,8.64 11.6094545,9.048 11.8254545,9.31418182 L11.8385455,9.32945455 C12.1330909,9.68945455 12.4625455,9.61527273 13.608,9.08290909 C14.9541818,8.46545455 15.9054545,8.352 16.6865455,9.30109091 L16.6996364,9.31636364 C17.5876364,10.4072727 17.2581818,11.6901818 16.0778182,12.6545455 C15.3415886,13.2616099 14.4335389,13.6225406 13.4814545,13.6865455 L13.4814545,13.6865455 Z" id="Shape" fill="#000000"></path>
                <path d="M19.0298182,11.6356364 C19.4165121,11.3589016 19.5240704,10.8306283 19.2763636,10.4247273 C18.8860999,10.533106 18.471711,10.3657394 18.2661818,10.0167273 L18.2661818,9.99927273 C18.1551462,9.80476301 18.1308997,9.57256408 18.1993563,9.35931157 C18.2678128,9.14605906 18.4226791,8.97135744 18.6261818,8.87781818 C19.128,8.616 19.6232727,8.84727273 19.9352727,9.46472727 L19.9549091,9.49963636 C20.2676786,10.0251563 20.3527679,10.655447 20.1905455,11.2450909 C20.0583366,11.6480639 19.7806064,11.9872525 19.4116364,12.1963636 C19.331015,12.2546616 19.228703,12.2742327 19.1322573,12.2498054 C19.0358117,12.2253781 18.9551507,12.1594646 18.912,12.0698182 C18.8393873,11.9157899 18.8893057,11.7318317 19.0298182,11.6356364 Z" id="Shape" fill="#000000"></path>
                <path d="M22.3527273,2.41745455 C22.312478,2.21508952 22.3548708,2.0050329 22.470454,1.83411733 C22.5860372,1.66320176 22.7652008,1.54563771 22.968,1.50763636 L25.0407273,1.10836364 C26.6967273,0.787636364 27.8770909,1.57745455 28.1607273,2.99563636 L28.1607273,3.01527273 C28.4705455,4.62109091 27.3818182,5.69454545 25.8261818,5.99563636 L24.6654545,6.21381818 L24.9316364,7.59272727 C24.9842518,7.86554827 24.8873223,8.14571529 24.6773601,8.32769213 C24.4673979,8.50966896 24.1763014,8.56580901 23.9137237,8.47496485 C23.6511461,8.3841207 23.4569791,8.16009372 23.4043636,7.88727273 L22.3527273,2.41745455 Z M25.6254545,4.62545455 C26.3890909,4.47709091 26.7469091,3.936 26.6312727,3.34036364 L26.6312727,3.32072727 C26.4981818,2.63563636 25.9527273,2.36072727 25.1890909,2.50909091 L24.0087273,2.72727273 L24.4189091,4.848 L25.6254545,4.62545455 Z" id="Shape" fill="#000000"></path>
                <path d="M29.4829091,1.25454545 C29.4740634,1.04819397 29.5482345,0.84689615 29.6888541,0.695617284 C29.8294738,0.544338419 30.0248257,0.455682979 30.2312727,0.449454545 L32.6836364,0.36 C33.5825455,0.327272727 34.2872727,0.554181818 34.7672727,1.00145455 C35.1909634,1.4226056 35.4269369,1.99680775 35.4218182,2.59418182 L35.4218182,2.61818182 C35.4610909,3.72872727 34.9309091,4.43345455 34.0865455,4.81963636 L35.2145455,6.09163636 C35.375287,6.24677463 35.4731685,6.45574402 35.4894545,6.67854545 C35.4947253,6.87178776 35.422535,7.05911988 35.2889491,7.19885238 C35.1553631,7.33858489 34.9714657,7.41912369 34.7781818,7.42254545 C34.471866,7.43390612 34.1796449,7.29350935 33.9970909,7.04727273 L32.4130909,5.184 L31.1716364,5.22981818 L31.2283636,6.77454545 C31.238497,7.05204338 31.0998172,7.31386812 30.8645636,7.46139282 C30.6293101,7.60891753 30.3332233,7.61972968 30.0878364,7.48975646 C29.8424494,7.35978324 29.6850424,7.10877065 29.6749091,6.83127273 L29.4829091,1.25454545 Z M32.7076364,3.79418182 C33.4647273,3.76581818 33.8836364,3.35781818 33.8618182,2.75127273 L33.8618182,2.73163636 C33.8378182,2.06618182 33.36,1.73890909 32.6050909,1.76727273 L31.0603636,1.824 L31.1345455,3.85309091 L32.7076364,3.79418182 Z" id="Shape" fill="#000000"></path>
                <path d="M36.3687273,3.87054545 L36.3687273,3.85090909 C36.3927273,1.84145455 37.9985455,0.216 40.1803636,0.242181818 C42.3621818,0.268363636 43.9069091,1.91345455 43.8894545,3.92290909 L43.8894545,3.94254545 C43.8654545,5.952 42.2596364,7.57745455 40.0778182,7.55127273 C37.896,7.52509091 36.3425455,5.88 36.3687273,3.87054545 Z M42.2596364,3.94254545 L42.2596364,3.92727273 C42.2749091,2.71636364 41.3978182,1.69527273 40.1454545,1.68 C38.8930909,1.66472727 38.0138182,2.64436364 37.9985455,3.86181818 L37.9985455,3.88145455 C37.9832727,5.09236364 38.8603636,6.11345455 40.1127273,6.12872727 C41.3650909,6.144 42.24,5.15345455 42.2552727,3.94254545 L42.2596364,3.94254545 Z" id="Shape" fill="#000000"></path>
                <path d="M44.5723636,3.92727273 L44.5723636,3.92727273 C44.5407542,2.94750131 44.9107867,1.99734505 45.5967034,1.29700973 C46.28262,0.596674422 47.224874,0.206958603 48.2050909,0.218181818 C49.0508532,0.170553817 49.8877491,0.411315218 50.5789091,0.901090909 C50.7720675,1.0452841 50.8873353,1.27098326 50.8909091,1.512 C50.8932377,1.71450183 50.8145719,1.90954262 50.6724,2.05376313 C50.5302281,2.19798364 50.3363326,2.27943145 50.1338182,2.28 C49.9671269,2.28081705 49.8041839,2.23056359 49.6669091,2.136 C49.251716,1.81557786 48.740414,1.64488757 48.216,1.65163636 C47.0247273,1.66909091 46.1803636,2.67054545 46.1978182,3.88145455 L46.1978182,3.90109091 C46.2152727,5.112 47.0705455,6.11127273 48.2792727,6.08290909 C48.8424768,6.08640428 49.3868529,5.88031904 49.8065455,5.50472727 C50.0014176,5.335968 50.2715189,5.28399105 50.5151048,5.36837564 C50.7586907,5.45276022 50.9387547,5.66068632 50.9874684,5.91383018 C51.0361821,6.16697404 50.9461449,6.42687709 50.7512727,6.59563636 C49.6699705,7.54473071 48.138713,7.78612633 46.8178684,7.21571923 C45.4970239,6.64531214 44.6228584,5.36513394 44.5723636,3.92727273 Z" id="Shape" fill="#000000"></path>
                <path d="M52.1258182,6.54545455 L52.0298182,1.03418182 C52.0251412,0.827835946 52.1032482,0.628202257 52.2467141,0.479817526 C52.39018,0.331432795 52.5870683,0.246642831 52.7934545,0.244363636 L56.7207273,0.176727273 C57.1055038,0.170647636 57.4226507,0.477060381 57.4298182,0.861818182 C57.4321461,1.04542628 57.3611352,1.22237767 57.2325287,1.35344154 C57.1039223,1.48450542 56.9283465,1.55885259 56.7447273,1.56 L53.5963636,1.61454545 L53.6203636,3.048 L56.3149091,3 C56.6996856,2.99392036 57.0168326,3.30033311 57.024,3.68509091 C57.0263279,3.86869901 56.955317,4.04565039 56.8267105,4.17671427 C56.6981041,4.30777814 56.5225284,4.38212531 56.3389091,4.38327273 L53.6443636,4.43127273 L53.6705455,5.91490909 L56.8712727,5.85818182 C57.2560493,5.85210218 57.5731962,6.15851493 57.5803636,6.54327273 C57.5826916,6.72688082 57.5116806,6.90383221 57.3830742,7.03489609 C57.2544678,7.16595996 57.078892,7.24030713 56.8952727,7.24145455 L52.9287273,7.31127273 C52.7197757,7.31954901 52.5163982,7.24274503 52.3650774,7.09841459 C52.2137566,6.95408415 52.1274265,6.75456379 52.1258182,6.54545455 Z" id="Shape" fill="#000000"></path>
                <path d="M58.4923636,6.47563636 C58.3061247,6.33898053 58.1959676,6.12190617 58.1956364,5.89090909 C58.1938714,5.69883894 58.2693914,5.51412194 58.4052112,5.3783021 C58.541031,5.24248226 58.725748,5.16696235 58.9178182,5.16872727 C59.0742941,5.16850825 59.2269026,5.21734299 59.3541818,5.30836364 C59.8727948,5.70980707 60.5092664,5.92912137 61.1650909,5.93236364 C61.8021818,5.93236364 62.184,5.67272727 62.1796364,5.26036364 L62.1796364,5.23636364 C62.1796364,4.84363636 61.9330909,4.64290909 60.7505455,4.34618182 C59.3236364,3.99272727 58.4029091,3.60436364 58.3941818,2.19927273 L58.3941818,2.18181818 C58.3941818,0.898909091 59.4109091,0.0458181818 60.8552727,0.0349090909 C61.6469,0.0177007521 62.4266035,0.22986497 63.1003636,0.645818182 C63.3764771,0.81363349 63.506982,1.14483825 63.41956,1.45589774 C63.3321381,1.76695723 63.0482012,1.98168488 62.7250909,1.98109091 C62.5858544,1.98228563 62.4490613,1.94449747 62.3301818,1.872 C61.8850118,1.58606915 61.3709538,1.42552023 60.8421818,1.40727273 C60.2465455,1.40727273 59.9345455,1.68654545 59.9367273,2.02909091 L59.9367273,2.04872727 C59.9367273,2.51345455 60.2443636,2.66181818 61.464,2.96727273 C62.8996364,3.33163636 63.7112727,3.84 63.7178182,5.07272727 L63.7178182,5.09236364 C63.7178182,6.49527273 62.6618182,7.28945455 61.1367273,7.30036364 C60.191101,7.3061588 59.2670413,7.01796195 58.4923636,6.47563636 L58.4923636,6.47563636 Z" id="Shape" fill="#000000"></path>
                <path d="M64.7018182,6.44290909 C64.5186434,6.30212323 64.4133433,6.0826131 64.4181818,5.85163636 C64.4210022,5.65950497 64.500969,5.47657935 64.6400843,5.34402993 C64.7791996,5.2114805 64.9657749,5.14044427 65.1578182,5.14690909 C65.3152587,5.14922614 65.4679573,5.20114366 65.5941818,5.29527273 C66.1032277,5.70857918 66.7343665,5.9424763 67.3898182,5.96072727 C68.0269091,5.96072727 68.4130909,5.72509091 68.4218182,5.30618182 L68.4218182,5.28654545 C68.4218182,4.89163636 68.1883636,4.68654545 67.0123636,4.36363636 C65.5941818,3.97527273 64.6821818,3.56727273 64.7061818,2.16436364 L64.7061818,2.14472727 C64.728,0.861818182 65.7709091,0.0305454545 67.2152727,0.0567272727 C68.0068268,0.0550959617 68.7819636,0.282408802 69.4472727,0.711272727 C69.6611176,0.844517449 69.7881955,1.08123124 69.7810909,1.33309091 C69.7782705,1.52522231 69.6983038,1.70814792 69.5591884,1.84069735 C69.4200731,1.97324677 69.2334979,2.04428301 69.0414545,2.03781818 C68.9021121,2.03598818 68.7660664,1.99517447 68.6487273,1.92 C68.2102851,1.62359019 67.6999857,1.45097784 67.1716364,1.42036364 C66.576,1.42036364 66.2574545,1.67781818 66.2530909,2.02036364 L66.2530909,2.04 C66.2530909,2.50472727 66.5454545,2.66181818 67.7629091,2.99563636 C69.1898182,3.39272727 69.9905455,3.92290909 69.9687273,5.15345455 L69.9687273,5.17309091 C69.9447273,6.576 68.8603636,7.35490909 67.3374545,7.32 C66.389098,7.30870256 65.4678379,7.00212429 64.7018182,6.44290909 Z" id="Shape" fill="#000000"></path>
                <path d="M78.4167273,7.66036364 L77.8669091,7.02109091 C77.2537876,7.49786906 76.4859786,7.73100945 75.7112727,7.67563636 C74.3629091,7.57309091 73.4050909,6.71127273 73.4989091,5.46327273 L73.4989091,5.45454545 C73.5665455,4.55781818 74.0967273,3.96 75.0130909,3.624 C74.7264529,3.19846612 74.5905033,2.68923089 74.6269091,2.17745455 L74.6269091,2.15781818 C74.6989091,1.19127273 75.5410909,0.364363636 76.9003636,0.466909091 C78.0981818,0.556363636 78.8247273,1.40072727 78.7505455,2.38909091 L78.7505455,2.4 C78.6785455,3.34690909 78.0327273,3.85527273 77.1425455,4.13236364 L78,5.11854545 C78.1789091,4.88945455 78.3490909,4.64945455 78.5214545,4.38763636 C78.6486346,4.18120588 78.8795087,4.06199091 79.1214545,4.07781818 C79.4754144,4.10907287 79.7397884,4.41702494 79.7170909,4.77163636 C79.7081643,4.88567327 79.6681719,4.99508659 79.6014545,5.088 C79.3832727,5.42618182 79.1149091,5.77090909 78.8465455,6.09381818 L79.4421818,6.77672727 C79.5782381,6.91494627 79.6488764,7.10463792 79.6363636,7.29818182 C79.6289582,7.47921818 79.5468422,7.64908603 79.4095665,7.76734161 C79.2722907,7.88559719 79.0921377,7.94165991 78.912,7.92218182 C78.7160158,7.91353821 78.5342416,7.81744611 78.4167273,7.66036364 L78.4167273,7.66036364 Z M77.0487273,6.07854545 L75.8029091,4.61672727 C75.3098182,4.83490909 75.0938182,5.15127273 75.0676364,5.50254545 L75.0676364,5.52218182 C75.0305455,6.01527273 75.4189091,6.37963636 75.9927273,6.42109091 C76.3734947,6.43315822 76.7466744,6.31287716 77.0487273,6.08072727 L77.0487273,6.07854545 Z M77.3978182,2.38909091 L77.3978182,2.36945455 C77.4217118,2.19185409 77.3678233,2.01257962 77.2499669,1.87758811 C77.1321106,1.74259661 76.9617458,1.66501353 76.7825455,1.66472727 C76.5958384,1.64439638 76.4092336,1.70390806 76.2687704,1.82857951 C76.1283072,1.95325096 76.0470661,2.13147238 76.0450909,2.31927273 L76.0450909,2.33890909 C76.0210909,2.65090909 76.1258182,2.89090909 76.392,3.24654545 C77.0181818,3.06981818 77.3629091,2.83636364 77.3978182,2.4 L77.3978182,2.38909091 Z" id="Shape" fill="#000000"></path>
                <path d="M84.4014545,2.12290909 C84.4345431,1.91927719 84.5477218,1.73734584 84.7157632,1.61766757 C84.8838047,1.4979893 85.0927409,1.45051193 85.296,1.48581818 L87.3774545,1.83490909 C89.04,2.11418182 89.88,3.27054545 89.64,4.69309091 L89.64,4.71272727 C89.3694545,6.32509091 87.9730909,6.95127273 86.4109091,6.68945455 L85.2458182,6.49309091 L85.0123636,7.87636364 C84.9862086,8.16703049 84.7993283,8.41850589 84.5285609,8.52739259 C84.2577934,8.6362793 83.9488408,8.5841987 83.7287326,8.39256441 C83.5086245,8.20093011 83.4145121,7.90208736 83.4850909,7.61890909 L84.4014545,2.12290909 Z M86.688,5.33236364 C87.4538182,5.46109091 87.9796364,5.07927273 88.08,4.48145455 L88.08,4.46181818 C88.1956364,3.77454545 87.7789091,3.32509091 87.0130909,3.19636364 L85.8283636,2.99781818 L85.4705455,5.12945455 L86.688,5.33236364 Z" id="Shape" fill="#000000"></path>
                <path d="M91.1869091,3.27272727 C91.2917428,2.85640503 91.7142232,2.60389367 92.1305454,2.70872735 C92.5468677,2.81356103 92.7993791,3.23604137 92.6945455,3.65236364 L91.4901818,8.43927273 L94.2807273,9.14181818 C94.5337321,9.19576551 94.7370626,9.38360286 94.8108514,9.63154836 C94.8846401,9.87949386 94.8171005,10.1479423 94.6347619,10.3314482 C94.4524233,10.514954 94.1844113,10.5842051 93.936,10.512 L90.3905455,9.61963636 C90.1899391,9.57071714 90.0172731,9.44350927 89.9110978,9.26641378 C89.8049225,9.08931829 89.7740794,8.87708241 89.8254545,8.67709091 L91.1869091,3.27272727 Z" id="Shape" fill="#000000"></path>
                <path d="M95.4261818,9.85090909 L99.672,5.48727273 C99.9376234,5.185032 100.363547,5.08051085 100.738909,5.22545455 L100.824,5.25818182 C101.200298,5.39260461 101.451714,5.74877703 101.452364,6.14836364 L101.827636,12.2181818 C101.83988,12.3262007 101.828718,12.4355895 101.794909,12.5389091 C101.727203,12.7233596 101.588688,12.8731645 101.410097,12.9550871 C101.231505,13.0370097 101.027606,13.0442756 100.843636,12.9752727 C100.527197,12.8572096 100.320446,12.5514629 100.328727,12.2138182 L100.269818,11.0072727 L97.3527273,9.91636364 L96.48,10.8327273 C96.2693996,11.0682981 95.9354648,11.1498302 95.64,11.0378182 C95.459759,10.9713128 95.3138277,10.8351295 95.2350399,10.6599088 C95.1562522,10.4846881 95.1512255,10.2851472 95.2210909,10.1061818 C95.2716552,10.0082056 95.3414006,9.92139477 95.4261818,9.85090909 L95.4261818,9.85090909 Z M100.206545,9.53454545 L100.099636,7.00581818 L98.3694545,8.85163636 L100.206545,9.53454545 Z" id="Shape" fill="#000000"></path>
                <path d="M104.439273,11.6509091 L103.819636,7.85454545 C103.782973,7.65651879 103.812089,7.4519347 103.902545,7.272 C103.997416,7.09316426 104.159777,6.95962006 104.353556,6.90103551 C104.547336,6.84245096 104.756487,6.8636777 104.934545,6.96 C105.218169,7.11432045 105.396618,7.40951089 105.401455,7.73236364 L105.802909,10.7170909 L108.493091,9.29236364 C108.751022,9.11675092 109.081948,9.08862222 109.365818,9.21818182 C109.552346,9.30138162 109.694761,9.45988585 109.757597,9.6542213 C109.820434,9.84855674 109.797778,10.060435 109.695273,10.2370909 C109.594167,10.4101682 109.441643,10.5474398 109.258909,10.6298182 L105.824727,12.3316364 L104.895273,14.1469091 C104.768606,14.394007 104.519736,14.5547588 104.242409,14.568611 C103.965083,14.5824632 103.701432,14.4473113 103.550773,14.2140656 C103.400113,13.9808199 103.385333,13.6849161 103.512,13.4378182 L104.439273,11.6509091 Z" id="Shape" fill="#000000"></path>
                <path d="M118.254545,24.2421818 L124.232727,23.1010909 C124.623314,23.0061794 125.031676,23.1646484 125.256,23.4981818 L125.308364,23.5723636 C125.538874,23.8994695 125.538874,24.3361669 125.308364,24.6632727 L122.136,29.8581818 C122.081921,29.9545422 122.00746,30.0379375 121.917818,30.1025455 C121.757095,30.216992 121.557214,30.2622602 121.362864,30.2282286 C121.168515,30.1941969 120.995908,30.083704 120.883636,29.9214545 C120.692492,29.6432945 120.698623,29.2745608 120.898909,29.0029091 L121.542545,27.9796364 L119.781818,25.4203636 L118.544727,25.6756364 C118.236521,25.7484316 117.915367,25.6234416 117.737455,25.3614545 C117.627754,25.2037511 117.586065,25.0085648 117.621765,24.8198058 C117.657465,24.6310468 117.767557,24.4645668 117.927273,24.3578182 C118.026925,24.2964928 118.138487,24.2570745 118.254545,24.2421818 L118.254545,24.2421818 Z M122.354182,26.7229091 L123.715636,24.5890909 L121.239273,25.1127273 L122.354182,26.7229091 Z" id="Shape" fill="#000000"></path>
                <path d="M124.363636,29.2363636 L127.2,27.4909091 C127.436575,27.3455345 127.732735,27.3374139 127.976921,27.4696064 C128.221106,27.6017988 128.376219,27.8542211 128.38383,28.1317882 C128.391441,28.4093553 128.250393,28.6698981 128.013818,28.8152727 L125.212364,30.5454545 C124.230545,31.1476364 124.025455,31.9505455 124.522909,32.76 C125.020364,33.5694545 125.812364,33.7570909 126.768,33.1701818 L129.604364,31.4247273 C129.840938,31.2793526 130.137099,31.2712321 130.381284,31.4034245 C130.62547,31.535617 130.780583,31.7880393 130.788194,32.0656064 C130.795804,32.3431735 130.654757,32.6037163 130.418182,32.7490909 L127.636364,34.4552727 C125.812364,35.5767273 124.289455,35.1098182 123.294545,33.4865455 C122.299636,31.8632727 122.592,30.3272727 124.363636,29.2363636 Z" id="Shape" fill="#000000"></path>
                <path d="M128.629091,35.3629091 L128.646545,35.3629091 C129.538209,34.9554079 130.556826,34.926072 131.470464,35.2815812 C132.384102,35.6370904 133.114996,36.3471852 133.496727,37.2501818 C133.933091,38.2276364 134.002909,38.9716364 133.856727,39.7330909 C133.807104,39.975384 133.645058,40.1795613 133.420364,40.2829091 C133.033557,40.4561919 132.579497,40.2833564 132.405818,39.8967273 C132.33437,39.7401855 132.318214,39.5640166 132.36,39.3970909 C132.478868,38.854972 132.412013,38.2886306 132.170182,37.7890909 C131.707636,36.7570909 130.424727,36.3447273 129.333818,36.8378182 L129.316364,36.8378182 C128.136,37.3658182 127.634182,38.5658182 128.144727,39.7069091 C128.34322,40.1884635 128.68825,40.5953246 129.130909,40.8698182 L130.051636,40.4574545 L129.615273,39.4996364 C129.540071,39.3377651 129.532816,39.1525219 129.595128,38.9852651 C129.657439,38.8180083 129.784128,38.6826657 129.946909,38.6094545 C130.110654,38.5358511 130.296943,38.5303665 130.464735,38.5942091 C130.632526,38.6580516 130.768052,38.7859831 130.841455,38.9498182 L131.563636,40.5818182 C131.649374,40.7699759 131.656088,40.9846551 131.582274,41.1778023 C131.508459,41.3709495 131.360282,41.5264347 131.170909,41.6094545 L129.604364,42.312 C129.242725,42.5020619 128.803737,42.4654796 128.478545,42.2181818 C127.754984,41.7300314 127.181584,41.0501102 126.822545,40.2545455 C125.930182,38.232 126.722182,36.2181818 128.629091,35.3629091 Z" id="Shape" fill="#000000"></path>
                <path d="M131.4,42.9949091 L134.583273,42.0436364 C134.989619,41.9377562 135.406542,42.1739955 135.524548,42.5769869 C135.642554,42.9799783 135.418912,43.4037917 135.019636,43.5338182 L131.875636,44.472 C130.773818,44.8014545 130.365818,45.5236364 130.638545,46.4356364 C130.911273,47.3476364 131.626909,47.7316364 132.700364,47.4109091 L135.892364,46.4574545 C136.161501,46.3698084 136.457008,46.4355053 136.663658,46.6289279 C136.870308,46.8223505 136.95538,47.112873 136.885703,47.3872114 C136.816025,47.6615498 136.60263,47.8762664 136.328727,47.9476364 L133.210909,48.8727273 C131.16,49.4858182 129.809455,48.6349091 129.266182,46.8152727 C128.722909,44.9956364 129.405818,43.5905455 131.4,42.9949091 Z" id="Shape" fill="#000000"></path>
                <path d="M131.205818,50.6618182 C131.309141,50.455534 131.504297,50.3105841 131.731636,50.2712727 C131.920482,50.2378603 132.114836,50.2816424 132.271114,50.3928007 C132.427391,50.5039589 132.532515,50.673191 132.562909,50.8625455 C132.59168,51.0195297 132.56951,51.1816005 132.499636,51.3250909 C132.189866,51.9031836 132.079433,52.567314 132.185455,53.2145455 C132.294545,53.8407273 132.610909,54.1745455 133.018909,54.1047273 L133.038545,54.1047273 C133.426909,54.0370909 133.584,53.7621818 133.677818,52.5469091 C133.789091,51.0829091 134.018182,50.1098182 135.401455,49.8654545 L135.421091,49.8654545 C136.684364,49.6472727 137.696727,50.52 137.947636,51.9338182 C138.096262,52.711394 138.016698,53.5153661 137.718545,54.2487273 C137.598829,54.5487396 137.293959,54.7323042 136.972797,54.6977488 C136.651634,54.6631933 136.392792,54.4189761 136.339636,54.1003636 C136.315077,53.9631612 136.329438,53.8218226 136.381091,53.6923636 C136.59165,53.2065123 136.667033,52.6727984 136.599273,52.1476364 C136.496727,51.5607273 136.162909,51.2989091 135.835636,51.36 L135.816,51.36 C135.357818,51.4407273 135.261818,51.7636364 135.161455,53.0225455 C135.041455,54.4996364 134.672727,55.3832727 133.459636,55.5970909 L133.44,55.5970909 C132.056727,55.8392727 131.096727,54.9207273 130.832727,53.4152727 C130.667619,52.4809908 130.798039,51.5184743 131.205818,50.6618182 Z" id="Shape" fill="#000000"></path>
                <path d="M137.201455,58.0821818 L137.096727,56.592 C137.078799,56.3367175 137.198424,56.0912621 137.410541,55.9480945 C137.622658,55.8049269 137.895041,55.7857977 138.125087,55.8979127 C138.355132,56.0100276 138.50789,56.2363538 138.525818,56.4916364 L138.844364,61.0232727 C138.880391,61.2884224 138.765944,61.5516008 138.547442,61.706065 C138.32894,61.8605292 138.042659,61.8806344 137.804713,61.7582262 C137.566766,61.6358179 137.416659,61.3912189 137.415273,61.1236364 L137.310545,59.6334545 L132.405818,59.9781818 C131.977446,60.0083064 131.605761,59.685463 131.575636,59.2570909 C131.545512,58.8287188 131.868355,58.4570338 132.296727,58.4269091 L137.201455,58.0821818 Z" id="Shape" fill="#000000"></path>
                <path d="M137.271273,67.104 L137.164364,66.552 C137.146366,66.4615125 137.138318,66.3693282 137.140364,66.2770909 C137.164902,65.9088044 137.478475,65.627169 137.847273,65.6421818 C138.159486,65.6619658 138.419246,65.8894804 138.48,66.1963636 L138.711273,67.2130909 C138.772197,67.4525673 138.800815,67.6991172 138.796364,67.9461818 L138.796364,67.9658182 C138.76949,68.3885896 138.405364,68.7097627 137.982545,68.6836364 L132.309818,68.3323636 C132.019505,68.3398963 131.749772,68.1830289 131.612753,67.9269737 C131.475733,67.6709184 131.494865,67.359475 131.662194,67.1221154 C131.829523,66.8847559 132.116428,66.7620818 132.403636,66.8050909 L137.271273,67.104 Z" id="Shape" fill="#000000"></path>
                <path d="M135.041455,69.9010909 L135.054545,69.9010909 C137.081455,70.2087273 138.477818,71.7076364 138.194182,73.5643636 C137.910545,75.4210909 136.156364,76.4203636 134.129455,76.1127273 L134.109818,76.1127273 C132.082909,75.8050909 130.684364,74.3149091 130.970182,72.4494545 C131.256,70.584 133.014545,69.6 135.041455,69.9010909 Z M134.336727,74.5330909 L134.356364,74.5330909 C135.624,74.7250909 136.677818,74.2538182 136.817455,73.3352727 C136.957091,72.4167273 136.119273,71.6770909 134.840727,71.4829091 L134.821091,71.4829091 C133.542545,71.2887273 132.501818,71.7534545 132.36,72.6807273 C132.218182,73.608 133.069091,74.3410909 134.336727,74.5330909 Z" id="Shape" fill="#000000"></path>
                <path d="M133.426909,77.2363636 C133.80885,77.3368216 134.038582,77.7261971 133.941818,78.1090909 L133.189091,81.0218182 C133.138163,81.2837002 132.946197,81.4957336 132.690651,81.5723627 C132.435105,81.6489919 132.158141,81.5775737 131.971516,81.3869254 C131.78489,81.1962772 131.719394,80.9178541 131.801455,80.664 L132.554182,77.7512727 C132.65464,77.3693316 133.044015,77.1396 133.426909,77.2363636 Z" id="Shape" fill="#000000"></path>
                <path d="M134.105455,83.9585455 L134.142545,83.3956364 C134.146035,83.3050378 134.1592,83.215072 134.181818,83.1272727 C134.298338,82.7768834 134.67296,82.5832799 135.026182,82.6909091 C135.324197,82.7888158 135.518104,83.0760852 135.497455,83.3890909 L135.462545,84.4298182 C135.461005,84.6769297 135.42652,84.9227323 135.36,85.1607273 L135.36,85.1803636 C135.227104,85.5825291 134.793703,85.8011817 134.391273,85.6690909 L128.982545,83.8843636 C128.593876,83.7412307 128.388721,83.3156798 128.518815,82.9224545 C128.648909,82.5292291 129.067383,82.3099987 129.464727,82.4269091 L134.105455,83.9585455 Z" id="Shape" fill="#000000"></path>
                <path d="M132.722182,87.8138182 L132.794182,87.2552727 C132.805487,87.1637898 132.826702,87.0738068 132.857455,86.9869091 C132.996027,86.6433865 133.383842,86.4737175 133.730182,86.6050909 C134.024889,86.7187269 134.204687,87.0180911 134.166545,87.3316364 L134.068364,88.368 C134.051439,88.6149912 134.001542,88.8586073 133.92,89.0923636 L133.92,89.112 C133.845995,89.3023664 133.699208,89.4554129 133.512097,89.5372998 C133.324986,89.6191866 133.112963,89.623168 132.922909,89.5483636 L127.614545,87.4254545 C127.347164,87.3328485 127.152366,87.1007162 127.107573,86.8213202 C127.062781,86.5419241 127.175252,86.2605308 127.400284,86.0889819 C127.625317,85.917433 127.926451,85.8835221 128.184,86.0007273 L132.722182,87.8138182 Z" id="Shape" fill="#000000"></path>
                <path d="M125.611636,87.8443636 C125.474967,88.2990447 125.711803,88.7822278 126.154909,88.9527273 C126.398206,88.628936 126.828697,88.5090073 127.204364,88.6603636 L127.221818,88.6603636 C127.428567,88.74667 127.58955,88.9158583 127.665481,89.1266384 C127.741411,89.3374185 127.725304,89.5704011 127.621091,89.7687273 C127.383273,90.2814545 126.848727,90.4014545 126.216,90.1069091 L126.178909,90.0894545 C125.611422,89.86406 125.160083,89.4174472 124.928727,88.8523636 C124.787307,88.4518926 124.800535,88.0130446 124.965818,87.6218182 C124.994481,87.5266336 125.063821,87.4490268 125.15519,87.4098686 C125.24656,87.3707104 125.350578,87.3740207 125.439273,87.4189091 C125.595757,87.4970053 125.669639,87.6793726 125.611636,87.8443636 L125.611636,87.8443636 Z" id="Shape" fill="#000000"></path>
                <path d="M125.236364,94.152 L125.585455,96.7265455 C125.736,97.8501818 125.893091,98.3498182 126.390545,98.6552727 C126.888,98.9607273 127.378909,98.8014545 127.671273,98.328 C127.904727,97.9483636 127.904727,97.5818182 127.749818,97.0189091 C127.698306,96.8276244 127.729161,96.6235128 127.834909,96.456 C127.932407,96.2953028 128.090233,96.1803758 128.273101,96.136914 C128.455969,96.0934522 128.648626,96.1250804 128.808,96.2247273 C128.957708,96.3203056 129.070136,96.4643062 129.126545,96.6327273 C129.427583,97.4711985 129.309169,98.403099 128.808,99.1396364 C128.042182,100.387636 126.802909,100.762909 125.674909,100.071273 L125.657455,100.071273 C124.651636,99.4538182 124.468364,98.6290909 124.298182,97.056 L124.143273,95.6094545 L122.853818,97.7083636 C122.75925,97.8608864 122.607942,97.9695731 122.433208,98.0104943 C122.258475,98.0514156 122.074641,98.0212163 121.922182,97.9265455 C121.769637,97.833628 121.660686,97.6834606 121.619684,97.5096148 C121.578683,97.335769 121.609051,97.152743 121.704,97.0014545 L123.713455,93.7287273 C123.966545,93.3163636 124.385455,93.1570909 124.780364,93.4014545 C125.042019,93.5659237 125.210962,93.8439931 125.236364,94.152 L125.236364,94.152 Z" id="Shape" fill="#000000"></path>
                <path d="M123.837818,100.215273 L123.853091,100.228364 C125.474182,101.482909 125.965091,103.470545 124.815273,104.956364 C123.665455,106.442182 121.647273,106.461818 120.015273,105.207273 L120,105.194182 C118.378909,103.939636 117.881455,101.958545 119.037818,100.466182 C120.194182,98.9738182 122.216727,98.9607273 123.837818,100.215273 Z M120.970909,103.924364 L120.986182,103.937455 C122.000727,104.722909 123.150545,104.810182 123.717818,104.085818 C124.285091,103.361455 123.914182,102.296727 122.893091,101.506909 L122.877818,101.493818 C121.856727,100.704 120.72,100.603636 120.146182,101.345455 C119.572364,102.087273 119.956364,103.134545 120.970909,103.92 L120.970909,103.924364 Z" id="Shape" fill="#000000"></path>
                <path d="M120.115636,108.056727 L120.384,107.561455 C120.427822,107.483483 120.479745,107.410351 120.538909,107.343273 C120.791745,107.074498 121.212692,107.056112 121.488,107.301818 C121.717495,107.515425 121.773972,107.856978 121.625455,108.133091 L121.160727,109.064727 C121.055881,109.288834 120.921606,109.497951 120.761455,109.686545 L120.748364,109.701818 C120.609454,109.852631 120.416006,109.941636 120.211101,109.949013 C120.006196,109.95639 119.806849,109.881525 119.657455,109.741091 L115.485818,105.866182 C115.197358,105.573307 115.190662,105.105223 115.470627,104.804216 C115.750592,104.50321 116.217934,104.476027 116.530909,104.742545 L120.115636,108.056727 Z" id="Shape" fill="#000000"></path>
                <path d="M114.584727,107.369455 L115.754182,112.538182 L117.750545,110.712 C117.880551,110.589783 118.054069,110.524691 118.232381,110.53125 C118.410694,110.537808 118.578961,110.615471 118.699636,110.746909 C118.820594,110.879412 118.883953,111.054543 118.875769,111.233766 C118.867585,111.412989 118.78853,111.581618 118.656,111.702545 L115.819636,114.292364 C115.689963,114.432517 115.505556,114.50906 115.31475,114.501931 C115.123943,114.494802 114.945762,114.404711 114.826909,114.255273 C114.657431,114.049278 114.538615,113.806414 114.48,113.546182 L113.098909,107.832 C112.996364,107.419636 113.072727,107.144727 113.295273,106.939636 C113.600727,106.660364 114.054545,106.588364 114.353455,106.915636 C114.463503,107.047717 114.542533,107.202794 114.584727,107.369455 L114.584727,107.369455 Z" id="Shape" fill="#000000"></path>
                <path d="M99.6349091,120.456 L99.6349091,120.475636 C99.9988659,121.385794 99.9752153,122.405129 99.5694381,123.297427 C99.1636608,124.189725 98.41098,124.877531 97.4858182,125.201455 C96.7073428,125.534367 95.8390126,125.593589 95.0225455,125.369455 C94.7914623,125.299574 94.6060101,125.126217 94.5207273,124.900364 C94.4496233,124.710901 94.457094,124.500894 94.541481,124.316963 C94.625868,124.133032 94.7801881,123.990399 94.9701818,123.920727 C95.1268002,123.862921 95.2973806,123.854544 95.4589091,123.896727 C95.957874,124.056157 96.4960701,124.042318 96.9861818,123.857455 C98.1010909,123.434182 98.5527273,122.205818 98.1229091,121.071273 L98.1229091,121.051636 C97.6865455,119.919273 96.552,119.271273 95.4174545,119.701091 C94.8873012,119.890271 94.4463889,120.269751 94.1803636,120.765818 C93.9869636,121.113456 93.5483654,121.238491 93.2007273,121.045091 C92.8530891,120.851691 92.7280545,120.413093 92.9214545,120.065455 C93.61297,118.805458 94.9677865,118.05582 96.4026457,118.139263 C97.8375049,118.222707 99.0962924,119.124339 99.6370909,120.456 L99.6349091,120.456 Z" id="Shape" fill="#000000"></path>
                <path d="M92.8189091,123.015273 L92.8189091,123.034909 C93.2552727,124.998545 92.0858182,126.962182 89.9607273,127.437818 C87.8356364,127.913455 85.9461818,126.687273 85.4989091,124.728 L85.4989091,124.708364 C85.0625455,122.744727 86.2298182,120.781091 88.3570909,120.305455 C90.4843636,119.829818 92.3716364,121.056 92.8189091,123.015273 Z M87.0785455,124.324364 L87.0785455,124.344 C87.3490909,125.524364 88.44,126.307636 89.6596364,126.032727 C90.8792727,125.757818 91.5076364,124.597091 91.2370909,123.414545 L91.2370909,123.394909 C90.9665455,122.214545 89.8756364,121.431273 88.656,121.706182 C87.4363636,121.981091 86.8101818,123.144 87.0785455,124.326545 L87.0785455,124.324364 Z" id="Shape" fill="#000000"></path>
                <path d="M84.3752727,127.636364 C84.4168447,128.063531 84.104258,128.443519 83.6770909,128.485091 C83.2499238,128.526663 82.8699356,128.214076 82.8283636,127.786909 L82.3483636,122.871273 L79.4836364,123.150545 C79.0950288,123.188502 78.7492298,122.904244 78.7112728,122.515636 C78.6733158,122.127029 78.9575742,121.78123 79.3461818,121.743273 L82.9854545,121.387636 C83.1908498,121.366369 83.3962087,121.428233 83.5556782,121.559416 C83.7151477,121.690599 83.8154473,121.880176 83.8341818,122.085818 L84.3752727,127.636364 Z" id="Shape" fill="#000000"></path>
                <path d="M78.2378182,124.662545 L78.5149091,127.972364 C78.537904,128.249082 78.4115247,128.517048 78.1833769,128.675322 C77.9552292,128.833595 77.6599741,128.85813 77.4088314,128.739685 C77.1576888,128.62124 76.9888131,128.377809 76.9658182,128.101091 L76.6930909,124.828364 C76.5970909,123.680727 75.9730909,123.135273 75.0283636,123.216 C74.0836364,123.296727 73.5578182,123.916364 73.6516364,125.033455 L73.9287273,128.354182 C73.9642743,128.781951 73.6463151,129.157544 73.2185455,129.193091 C72.7907758,129.228638 72.4151834,128.910679 72.3796364,128.482909 L72.1047273,125.236364 C71.9258182,123.102545 73.0363636,121.963636 74.928,121.797818 C76.8196364,121.632 78.0632727,122.589818 78.2378182,124.662545 Z" id="Shape" fill="#000000"></path>
                <path d="M71.3629091,128.537455 C71.4288012,128.733583 71.4132485,128.947948 71.3197365,129.132511 C71.2262244,129.317075 71.0625724,129.456403 70.8654545,129.519273 L70.7018182,129.573818 C70.4257445,129.669467 70.1194748,129.606707 69.9032727,129.410182 L67.1672727,127.086545 L66.3272727,130.588364 C66.2739828,130.871547 66.0654059,131.10039 65.7883636,131.179636 L65.6247273,131.232 C65.4285989,131.297892 65.2142337,131.282339 65.0296705,131.188827 C64.8451073,131.095315 64.7057791,130.931663 64.6429091,130.734545 L62.8974545,125.397818 C62.8117108,125.13552 62.8724146,124.847403 63.0566994,124.641998 C63.2409841,124.436593 63.5208527,124.345105 63.7908812,124.401998 C64.0609097,124.458891 64.2800744,124.65552 64.3658182,124.917818 L65.4567273,128.266909 L66.1090909,125.847273 C66.1521988,125.57845 66.3419824,125.356289 66.6007693,125.271712 C66.8595562,125.187135 67.1439103,125.254338 67.3374545,125.445818 L69.2574545,126.994909 L68.1665455,123.654545 C68.1042252,123.462152 68.1212337,123.252847 68.2137994,123.07304 C68.3063651,122.893233 68.4668385,122.757784 68.6596364,122.696727 C68.8505492,122.632251 69.0593698,122.64725 69.2391078,122.73835 C69.4188457,122.82945 69.554402,122.988998 69.6152727,123.181091 L71.3629091,128.537455 Z" id="Shape" fill="#000000"></path>
                <path d="M63.9403636,131.016 C64.2410729,131.317468 64.2410729,131.805441 63.9403636,132.106909 L62.1818182,133.889455 C61.6101818,134.461091 61.0036364,134.762182 60.4363636,134.762182 C59.9854592,134.766786 59.5530123,134.583371 59.2429091,134.256 L59.2276364,134.240727 C58.7533709,133.79405 58.5873859,133.109576 58.8043636,132.495273 C58.0058182,132.853091 57.312,132.874909 56.64,132.205091 L56.6247273,132.189818 C55.7105455,131.275636 55.9941818,130.075636 57.1221818,128.947636 L58.9483636,127.117091 C59.2498321,126.816382 59.7378043,126.816382 60.0392727,127.117091 L63.9403636,131.016 Z M58.0756364,129.925091 C57.5912727,130.411636 57.4690909,130.876364 57.8421818,131.247273 L57.8574545,131.262545 C58.1934545,131.598545 58.6494545,131.554909 59.2145455,130.989818 L60.4843636,129.717818 L59.3934545,128.626909 L58.0756364,129.925091 Z M60.384,131.644364 C59.8996364,132.130909 59.7490909,132.595636 60.12,132.966545 L60.1352727,132.981818 C60.4647273,133.309091 60.9076364,133.237091 61.3701818,132.763636 L62.4610909,131.672727 L61.4029091,130.616727 L60.384,131.644364 Z" id="Shape" fill="#000000"></path>
                <path d="M60.1134545,135.853091 C60.5255594,135.973589 60.761953,136.40535 60.6414545,136.817455 C60.5209561,137.229559 60.0891957,137.465953 59.6770909,137.345455 L54.2683636,135.763636 C54.0017785,135.685688 53.7970289,135.471438 53.7312421,135.201594 C53.6654552,134.931751 53.7486257,134.647308 53.9494239,134.455413 C54.1502222,134.263518 54.4381422,134.193324 54.7047273,134.271273 L60.1134545,135.853091 Z" id="Shape" fill="#000000"></path>
                <path d="M54.1090909,137.714182 L59.6727273,140.177455 C60.0481829,140.321864 60.2937866,140.685044 60.288,141.087273 L60.288,141.178909 C60.2930392,141.578327 60.0468894,141.93795 59.6727273,142.077818 L54.1090909,144.541091 C54.0120898,144.59008 53.9056793,144.617613 53.7970909,144.621818 C53.5999981,144.624151 53.4101738,144.547486 53.2699809,144.408933 C53.129788,144.27038 53.0508953,144.08147 53.0509091,143.884364 C53.0521039,143.547213 53.2666118,143.247778 53.5854545,143.138182 L54.696,142.664727 L54.696,139.551273 L53.5352727,139.056 C53.2406452,138.940247 53.0479791,138.654719 53.0509091,138.338182 C53.0503011,138.1461 53.126936,137.961837 53.2635773,137.826837 C53.4002186,137.691837 53.585394,137.617435 53.7774545,137.620364 C53.8933736,137.627931 54.0063864,137.659902 54.1090909,137.714182 L54.1090909,137.714182 Z M56.0727273,142.077818 L58.4050909,141.098182 L56.0727273,140.127273 L56.0727273,142.077818 Z" id="Shape" fill="#000000"></path>
                <path d="M56.6290909,148.197818 L56.6487273,148.197818 C57.6286001,148.180213 58.5731038,148.563824 59.2632004,149.259688 C59.9532969,149.955553 60.3290331,150.903217 60.3032727,151.882909 C60.3407511,152.731756 60.0883841,153.568107 59.5876364,154.254545 C59.4404956,154.445364 59.2133238,154.557339 58.9723636,154.557818 C58.7698492,154.55725 58.5759537,154.475802 58.4337818,154.331581 C58.2916099,154.187361 58.2129442,153.99232 58.2152727,153.789818 C58.2168206,153.62317 58.2693572,153.460992 58.3658182,153.325091 C58.6918764,152.91424 58.8694886,152.405239 58.8698182,151.880727 C58.8698182,150.689455 57.8792727,149.832 56.6683636,149.832 L56.6487273,149.832 C55.4378182,149.832 54.4276364,150.669818 54.4276364,151.880727 C54.4181289,152.441055 54.6163096,152.98508 54.984,153.408 C55.1811611,153.598298 55.2532118,153.884015 55.1698659,154.14505 C55.08652,154.406085 54.8622275,154.597182 54.5912688,154.638015 C54.3203101,154.678847 54.0496622,154.562335 53.8930909,154.337455 C52.9608457,153.243994 52.740791,151.711778 53.3276209,150.40015 C53.9144509,149.088522 55.2034751,148.231477 56.64,148.197818 L56.6290909,148.197818 Z" id="Shape" fill="#000000"></path>
                <path d="M56.6290909,155.223273 L56.6487273,155.223273 C58.6581818,155.223273 60.3032727,156.809455 60.3032727,158.989091 C60.3032727,161.168727 58.6778182,162.735273 56.6683636,162.735273 L56.6487273,162.735273 C54.6392727,162.735273 52.9941818,161.149091 52.9941818,158.969455 C52.9941818,156.789818 54.6196364,155.223273 56.6290909,155.223273 Z M56.6290909,161.114182 L56.6487273,161.114182 C57.8596364,161.114182 58.8698182,160.226182 58.8698182,158.973818 C58.8698182,157.721455 57.8792727,156.853091 56.6683636,156.853091 L56.6487273,156.853091 C55.4378182,156.853091 54.4276364,157.741091 54.4276364,158.993455 C54.4276364,160.245818 55.4181818,161.109818 56.6290909,161.109818 L56.6290909,161.114182 Z" id="Shape" fill="#000000"></path>
                <path d="M59.2363636,164.528727 C59.5115231,164.567702 59.7449884,164.750511 59.8488153,165.008294 C59.9526422,165.266076 59.911057,165.559668 59.7397244,165.778476 C59.5683918,165.997283 59.2933413,166.108065 59.0181818,166.069091 L54.1309091,165.381818 L53.7338182,168.231273 C53.6801964,168.618073 53.3231638,168.888167 52.9363636,168.834545 C52.5495635,168.780924 52.2794691,168.423891 52.3330909,168.037091 L52.8370909,164.417455 C52.8978401,163.996006 53.2882179,163.703223 53.7098182,163.762909 L59.2363636,164.528727 Z" id="Shape" fill="#000000"></path>
                <path d="M58.0167273,171.567273 C58.4119623,171.735368 58.5960954,172.192038 58.428,172.587273 C58.2599046,172.982508 57.803235,173.166641 57.408,172.998545 L52.8632727,171.065455 L51.7374545,173.714182 C51.6384595,173.948028 51.4222287,174.111298 51.170214,174.142489 C50.9181994,174.17368 50.6686881,174.068054 50.5156686,173.865398 C50.362649,173.662743 50.3293686,173.393847 50.4283636,173.16 L51.8596364,169.795636 C51.9394355,169.605352 52.092056,169.454909 52.2834674,169.377853 C52.4748788,169.300796 52.6891649,169.303534 52.8785455,169.385455 L58.0167273,171.567273 Z" id="Shape" fill="#000000"></path>
                <path d="M50.5549091,174.584727 L54.8923636,177.988364 C55.0554347,178.114936 55.1610521,178.30152 55.1856471,178.506479 C55.2102421,178.711437 55.1517678,178.917712 55.0232727,179.079273 L52.6036364,182.162182 C52.3656676,182.463589 51.9289549,182.516228 51.6261818,182.28 C51.4819991,182.16589 51.389371,181.998914 51.3688856,181.816184 C51.3484003,181.633455 51.401755,181.450113 51.5170909,181.306909 L53.4545455,178.830545 L52.3265455,177.944727 L50.6618182,180.065455 C50.4238494,180.366861 49.9871367,180.419501 49.6843636,180.183273 C49.5401809,180.069163 49.4475528,179.902187 49.4270675,179.719457 C49.4065821,179.536728 49.4599368,179.353386 49.5752727,179.210182 L51.24,177.089455 L50.0727273,176.173091 L48.1003636,178.690909 C47.8623948,178.992316 47.4256821,179.044956 47.1229091,178.808727 C46.9787264,178.694617 46.8860983,178.527641 46.8656129,178.344912 C46.8451276,178.162182 46.8984823,177.97884 47.0138182,177.835636 L49.464,174.713455 C49.5908937,174.550714 49.7776364,174.445521 49.9825797,174.421338 C50.187523,174.397155 50.3936212,174.455992 50.5549091,174.584727 L50.5549091,174.584727 Z" id="Shape" fill="#000000"></path>
                <path d="M48.5170909,181.433455 L48.528,181.450909 C49.0977808,182.248691 49.3204833,183.243089 49.1454005,184.207688 C48.9703177,185.172287 48.4123516,186.024987 47.5985455,186.571636 C46.7258182,187.186909 46.0058182,187.396364 45.2290909,187.398545 C44.9807276,187.395501 44.7487989,187.27386 44.6050909,187.071273 C44.3615175,186.724742 44.4444899,186.24643 44.7905455,186.002182 C44.9307154,185.902155 45.100797,185.8529 45.2727273,185.862545 C45.8274086,185.876503 46.3706821,185.703608 46.8152727,185.371636 C47.7403636,184.717091 47.9061818,183.386182 47.2101818,182.404364 L47.1992727,182.386909 C46.4552727,181.328727 45.1832727,181.064727 44.16,181.784727 C43.7252777,182.071219 43.3917109,182.487223 43.2065455,182.973818 L43.7869091,183.800727 L44.6465455,183.196364 C44.7911896,183.092152 44.9715043,183.050119 45.1473202,183.079626 C45.3231361,183.109134 45.4798483,183.207731 45.5825455,183.353455 C45.685858,183.500136 45.726659,183.681855 45.69597,183.858624 C45.665281,184.035392 45.5656168,184.192725 45.4189091,184.296 L43.9658182,185.317091 C43.7969314,185.439445 43.5857427,185.488302 43.3802793,185.452552 C43.1748159,185.416801 42.992542,185.299481 42.8749091,185.127273 L41.8887273,183.722182 C41.6325602,183.40343 41.5848761,182.964907 41.7665455,182.598545 C42.1090029,181.794321 42.6688657,181.101481 43.3832727,180.597818 C45.1876364,179.332364 47.3149091,179.725091 48.5170909,181.433455 Z" id="Shape" fill="#000000"></path>
                <path d="M40.4007273,183.458182 L42.1701818,188.681455 C42.2379027,188.876704 42.2245525,189.090949 42.1331166,189.276281 C42.0416808,189.461612 41.8797867,189.602571 41.6836364,189.667636 L37.9745455,190.924364 C37.6134055,191.040059 37.2259459,190.846329 37.1018182,190.488 C37.0438148,190.314407 37.0572158,190.124875 37.1390679,189.96117 C37.2209201,189.797466 37.3645055,189.673026 37.5381818,189.615273 L40.5229091,188.605091 L40.0625455,187.245818 L37.5076364,188.118545 C37.1464964,188.234241 36.7590368,188.040511 36.6349091,187.682182 C36.5769057,187.508589 36.5903067,187.319056 36.6721588,187.155352 C36.754011,186.991648 36.8975964,186.867208 37.0712727,186.809455 L39.624,185.936727 L39.1483636,184.531636 L36.1156364,185.559273 C35.7544964,185.674968 35.3670368,185.481238 35.2429091,185.122909 C35.1849057,184.949316 35.1983067,184.759784 35.2801588,184.596079 C35.362011,184.432375 35.5055964,184.307935 35.6792727,184.250182 L39.4385455,182.978182 C39.8362764,182.852008 40.2623133,183.064543 40.4007273,183.458182 L40.4007273,183.458182 Z" id="Shape" fill="#000000"></path>
                <path d="M31.3592727,191.166545 C31.3524865,191.373004 31.2632807,191.56814 31.1115868,191.708355 C30.9598929,191.848569 30.7583537,191.922175 30.552,191.912727 L26.5963636,191.755636 C26.3373325,191.755181 26.0992953,191.613089 25.9759654,191.385301 C25.8526355,191.157514 25.8637668,190.880516 26.004977,190.663359 C26.1461872,190.446203 26.3948584,190.323669 26.6530909,190.344 L29.832,190.470545 L29.8930909,188.967273 L27.168,188.858182 C26.9089688,188.857726 26.6709317,188.715634 26.5476018,188.487847 C26.4242719,188.260059 26.4354032,187.983061 26.5766133,187.765905 C26.7178235,187.548748 26.9664948,187.426215 27.2247273,187.446545 L29.9498182,187.555636 L30.0305455,185.537455 C30.0474152,185.10848 30.4088436,184.774403 30.8378182,184.791273 C31.2667928,184.808143 31.6008698,185.169571 31.584,185.598545 L31.3592727,191.166545 Z" id="Shape" fill="#000000"></path>
                <path d="M24.24,190.579636 C24.1776409,190.850509 23.9755101,191.067537 23.7097483,191.148968 C23.4439865,191.2304 23.1549692,191.163864 22.9515665,190.974423 C22.7481637,190.784982 22.6612773,190.501418 22.7236364,190.230545 L23.9869091,184.738909 C24.0492682,184.468037 24.251399,184.251009 24.5171608,184.169577 C24.7829226,184.088146 25.0719399,184.154682 25.2753426,184.344123 C25.4787453,184.533563 25.5656318,184.817128 25.5032727,185.088 L24.24,190.579636 Z" id="Shape" fill="#000000"></path>
                <path d="M20.3476364,189.6 C20.2346105,189.853724 19.9948105,190.027875 19.7185665,190.056854 C19.4423226,190.085832 19.1716028,189.965235 19.0083847,189.74049 C18.8451666,189.515745 18.8142469,189.220996 18.9272727,188.967273 L20.9367273,184.457455 L18.3185455,183.285818 C17.9618699,183.12676 17.8016693,182.708676 17.9607273,182.352 C18.1197853,181.995324 18.5378699,181.835124 18.8945455,181.994182 L22.2327273,183.482182 C22.4221001,183.565202 22.5702775,183.720687 22.6440917,183.913834 C22.7179059,184.106981 22.7111927,184.32166 22.6254545,184.509818 L20.3476364,189.6 Z" id="Shape" fill="#000000"></path>
                <path d="M13.7192727,186.346909 C13.5833487,186.50035 13.3920032,186.593465 13.1873845,186.605742 C12.9827658,186.618019 12.7816594,186.548452 12.6283636,186.412364 L12.4996364,186.298909 C12.2783421,186.109205 12.1779884,185.813998 12.2378182,185.528727 L12.8618182,181.994182 L9.41236364,183.037091 C9.14053292,183.134054 8.83724623,183.069004 8.62909091,182.869091 L8.50036364,182.755636 C8.34692245,182.619712 8.25380796,182.428367 8.24153084,182.223748 C8.22925372,182.019129 8.29882109,181.818023 8.43490909,181.664727 L12.1592727,177.464727 C12.3424525,177.258163 12.6219185,177.165015 12.8923985,177.220371 C13.1628785,177.275727 13.3832802,177.471177 13.4705804,177.733098 C13.5578805,177.995019 13.4988162,178.283617 13.3156364,178.490182 L10.9745455,181.119273 L13.3876364,180.451636 C13.641393,180.353242 13.9288608,180.404923 14.1324569,180.58554 C14.336053,180.766157 14.421629,181.045416 14.3541818,181.309091 L13.9854545,183.748364 L16.3156364,181.130182 C16.4504108,180.979454 16.6397388,180.888708 16.8416539,180.878059 C17.043569,180.867411 17.2413917,180.937739 17.3912727,181.073455 C17.543052,181.205842 17.6352556,181.393676 17.6471546,181.594728 C17.6590536,181.79578 17.5896495,181.993179 17.4545455,182.142545 L13.7192727,186.346909 Z" id="Shape" fill="#000000"></path>
                <path d="M4.81090909,176.199273 C4.61896469,176.277664 4.40356269,176.275592 4.21316184,176.193523 C4.022761,176.111453 3.87335136,175.956279 3.79854545,175.762909 L2.88218182,173.487273 C2.54618182,172.653818 2.52,171.912 2.77745455,171.305455 C3.02697107,170.761435 3.48567544,170.341284 4.04945455,170.140364 L4.06909091,170.140364 C5.09890909,169.725818 5.94327273,169.985455 6.59127273,170.648727 L7.41818182,169.156364 C7.50960038,168.953166 7.67273223,168.790811 7.87636364,168.700364 C8.05626595,168.630106 8.25677644,168.634601 8.43334957,168.71285 C8.6099227,168.791099 8.74793562,168.936623 8.81672727,169.117091 C8.93535348,169.404298 8.9026045,169.731788 8.72945455,169.989818 L7.51418182,172.110545 L7.97672727,173.262545 L9.41018182,172.686545 C9.80842932,172.526283 10.2611915,172.719207 10.4214545,173.117455 C10.5817174,173.515702 10.3887929,173.968464 9.99054545,174.128727 L4.81090909,176.199273 Z M6.10909091,172.304727 C5.82545455,171.602182 5.28872727,171.349091 4.73672727,171.571636 L4.71709091,171.571636 C4.09963636,171.820364 3.95345455,172.378909 4.23709091,173.081455 L4.81309091,174.514909 L6.696,173.757818 L6.10909091,172.304727 Z" id="Shape" fill="#000000"></path>
                <path d="M4.85454545,168.453818 L4.83490909,168.453818 C2.84290909,168.72 1.00145455,167.362909 0.711272727,165.207273 C0.421090909,163.051636 1.824,161.28 3.816,161.011636 L3.83563636,161.011636 C5.82763636,160.745455 7.66909091,162.102545 7.95927273,164.258182 C8.24945455,166.413818 6.84654545,168.185455 4.85454545,168.453818 Z M4.07345455,162.619636 L4.05381818,162.619636 C2.85381818,162.781091 1.97018182,163.795636 2.136,165.037091 C2.30181818,166.278545 3.39927273,167.000727 4.59927273,166.845818 L4.61890909,166.845818 C5.81890909,166.684364 6.70254545,165.669818 6.53672727,164.428364 C6.37090909,163.186909 5.27345455,162.458182 4.07345455,162.619636 Z" id="Shape" fill="#000000"></path>
                <path d="M1.26763636,160.241455 C1.17285053,160.275012 1.07356004,160.294134 0.973090909,160.298182 C0.765098461,160.293695 0.56771109,160.205491 0.425614774,160.053539 C0.283518457,159.901586 0.208730456,159.698735 0.218181818,159.490909 C0.219671595,159.143233 0.449555994,158.837904 0.783272727,158.740364 L5.13381818,157.396364 L0.872727273,155.923636 C0.513661977,155.826435 0.265359493,155.49925 0.268363636,155.127273 L0.268363636,155.007273 C0.271968684,154.634113 0.530874873,154.312059 0.894545455,154.228364 L5.20581818,152.873455 L0.896727273,151.418182 C0.567922525,151.314927 0.346060276,151.00787 0.351272727,150.663273 C0.349509165,150.461944 0.428707431,150.268349 0.571073608,150.125983 C0.713439785,149.983617 0.907035182,149.904418 1.10836364,149.906182 C1.21134408,149.913468 1.31274361,149.935511 1.40945455,149.971636 L6.936,152.026909 C7.29900406,152.134727 7.55105929,152.464337 7.56,152.842909 L7.56,153.004364 C7.54732276,153.386044 7.27814334,153.710854 6.90545455,153.794182 L2.83636364,155.127273 L6.86618182,156.576 C7.2329461,156.672805 7.48891264,157.00395 7.49018182,157.383273 L7.49018182,157.544727 C7.46974932,157.925268 7.20476526,158.248549 6.83563636,158.343273 L1.26763636,160.241455 Z" id="Shape" fill="#000000"></path>
                <path d="M4.51418182,146.489455 C4.11823908,146.488257 3.79756166,146.167579 3.79636364,145.771636 L3.79636364,142.762909 C3.78170954,142.497411 3.91502169,142.245563 4.14281743,142.108402 C4.37061317,141.971241 4.65556865,141.971241 4.88336439,142.108402 C5.11116013,142.245563 5.24447228,142.497411 5.22981818,142.762909 L5.22981818,145.771636 C5.22862816,146.166732 4.90927224,146.487062 4.51418182,146.489455 Z" id="Shape" fill="#000000"></path>
                <path d="M4.13018182,138.397091 L4.11054545,138.397091 C3.13067262,138.414696 2.18616891,138.031085 1.49607235,137.335221 C0.805975793,136.639356 0.43023959,135.691692 0.456,134.712 C0.421149089,133.865848 0.674194116,133.032877 1.17381818,132.349091 C1.32095892,132.158273 1.54813077,132.046298 1.78909091,132.045818 C1.99160533,132.046387 2.18550081,132.127835 2.32767274,132.272055 C2.46984466,132.416276 2.54851038,132.611316 2.54618182,132.813818 C2.54463396,132.980466 2.49209733,133.142644 2.39563636,133.278545 C2.06957811,133.689396 1.89196596,134.198398 1.89163636,134.722909 C1.89163636,135.914182 2.88218182,136.771636 4.09309091,136.771636 L4.11272727,136.771636 C5.32363636,136.771636 6.33381818,135.933818 6.33381818,134.722909 C6.34332562,134.162581 6.14514498,133.618556 5.77745455,133.195636 C5.58029349,133.005338 5.50824278,132.719622 5.59158864,132.458586 C5.67493451,132.197551 5.89922705,132.006454 6.17018573,131.965622 C6.4411444,131.924789 6.71179232,132.041301 6.86836364,132.266182 C7.80060886,133.359642 8.02066352,134.891858 7.4338336,136.203486 C6.84700368,137.515114 5.55797949,138.372159 4.12145455,138.405818 L4.13018182,138.397091 Z" id="Shape" fill="#000000"></path>
                <path d="M1.29163636,130.869818 C0.862059244,130.869818 0.513818182,130.521577 0.513818182,130.092 C0.513818182,129.662423 0.862059244,129.314182 1.29163636,129.314182 L3.37090909,129.314182 L3.37090909,126.447273 L1.29163636,126.447273 C0.862059244,126.447273 0.513818182,126.099032 0.513818182,125.669455 C0.513818182,125.239877 0.862059244,124.891636 1.29163636,124.891636 L6.92509091,124.891636 C7.35466803,124.891636 7.70290909,125.239877 7.70290909,125.669455 C7.70290909,126.099032 7.35466803,126.447273 6.92509091,126.447273 L4.8,126.447273 L4.8,129.314182 L6.92072727,129.314182 C7.35030439,129.314182 7.69854545,129.662423 7.69854545,130.092 C7.69854545,130.521577 7.35030439,130.869818 6.92072727,130.869818 L1.29163636,130.869818 Z" id="Shape" fill="#000000"></path>
                <path d="M1.29163636,123.322909 C0.862059244,123.322909 0.513818182,122.974668 0.513818182,122.545091 C0.513818182,122.115514 0.862059244,121.767273 1.29163636,121.767273 L6.92509091,121.767273 C7.35466803,121.767273 7.70290909,122.115514 7.70290909,122.545091 C7.70290909,122.974668 7.35466803,123.322909 6.92509091,123.322909 L1.29163636,123.322909 Z" id="Shape" fill="#000000"></path>
                <path d="M4.13018182,120.597818 L4.11054545,120.597818 C3.13067262,120.615423 2.18616891,120.231813 1.49607235,119.535948 C0.805975793,118.840084 0.43023959,117.89242 0.456,116.912727 C0.419521384,116.065356 0.67183905,115.230708 1.17163636,114.545455 C1.3187771,114.354636 1.54594895,114.242661 1.78690909,114.242182 C1.98942351,114.24275 2.18331899,114.324198 2.32549092,114.468419 C2.46766284,114.612639 2.54632856,114.80768 2.544,115.010182 C2.54245214,115.17683 2.48991551,115.339008 2.39345455,115.474909 C2.0673963,115.88576 1.88978414,116.394761 1.88945455,116.919273 C1.88945455,118.110545 2.88,118.968 4.09090909,118.968 L4.11054545,118.968 C5.32145455,118.968 6.33163636,118.130182 6.33163636,116.919273 C6.3411438,116.358945 6.14296316,115.81492 5.77527273,115.392 C5.57811168,115.201702 5.50606096,114.915985 5.58940683,114.65495 C5.67275269,114.393915 5.89704523,114.202818 6.16800391,114.161985 C6.43896258,114.121153 6.7096105,114.237665 6.86618182,114.462545 C7.79842704,115.556006 8.01848171,117.088222 7.43165179,118.39985 C6.84482187,119.711478 5.55579767,120.568523 4.11927273,120.602182 L4.13018182,120.597818 Z" id="Shape" fill="#000000"></path>
                <path d="M6.64363636,113.472 L1.08,111.008727 C0.704544333,110.864317 0.458940666,110.501137 0.464727273,110.098909 L0.464727273,110.007273 C0.45968804,109.607855 0.705837842,109.248231 1.08,109.108364 L6.64363636,106.645091 C6.74063748,106.596102 6.84704798,106.568569 6.95563636,106.564364 C7.1527292,106.562031 7.3425535,106.638696 7.48274637,106.777249 C7.62293924,106.915802 7.70183198,107.104712 7.70181818,107.301818 C7.7006234,107.638969 7.48611548,107.938404 7.16727273,108.048 L6.05672727,108.521455 L6.05672727,111.630545 L7.21745455,112.125818 C7.51208205,112.241572 7.70474817,112.527099 7.70181818,112.843636 C7.70298832,113.034949 7.62750721,113.218764 7.49222653,113.354045 C7.35694585,113.489325 7.17313037,113.564807 6.98181818,113.563636 C6.8638287,113.557665 6.74849912,113.526415 6.64363636,113.472 L6.64363636,113.472 Z M4.68,109.108364 L2.34763636,110.088 L4.68436364,111.054545 L4.68,109.108364 Z" id="Shape" fill="#000000"></path>
                <path d="M4.13018182,106.254545 L4.11054545,106.254545 C3.12955909,106.261868 2.18741302,105.871649 1.49888886,105.172849 C0.810364694,104.474048 0.43414615,103.526225 0.456,102.545455 C0.456,101.474182 0.698181818,100.767273 1.14327273,100.132364 C1.28837322,99.9308092 1.52110691,99.8107932 1.76945455,99.8094545 C2.19360923,99.8094545 2.53745455,100.1533 2.53745455,100.577455 C2.53883371,100.749007 2.48190661,100.915942 2.376,101.050909 C2.04604489,101.497012 1.87547122,102.041004 1.89163636,102.595636 C1.89163636,103.725818 2.89090909,104.624727 4.09309091,104.624727 L4.11272727,104.624727 C5.40436364,104.624727 6.35345455,103.736727 6.35345455,102.484364 C6.36946537,101.96404 6.22138488,101.451865 5.93018182,101.020364 L4.92,101.020364 L4.92,102.069818 C4.92233048,102.248016 4.85332033,102.419749 4.72833333,102.546785 C4.60334632,102.673821 4.4327576,102.745615 4.25454545,102.746182 C3.88100013,102.746182 3.57818182,102.443364 3.57818182,102.069818 L3.57818182,100.291636 C3.57701263,100.085279 3.65847065,99.8870356 3.80438949,99.7411168 C3.95030833,99.5951979 4.148552,99.5137399 4.35490909,99.5149091 L6.072,99.5149091 C6.48015808,99.4886359 6.86652576,99.7013935 7.06254545,100.060364 C7.52408679,100.806917 7.76744917,101.667755 7.76509091,102.545455 C7.76509091,104.749091 6.22036364,106.254545 4.13018182,106.254545 Z" id="Shape" fill="#000000"></path>
                <path d="M4.13018182,98.6181818 L4.11054545,98.6181818 C2.10109091,98.6181818 0.456,97.032 0.456,94.8523636 C0.456,92.6727273 2.08145455,91.1061818 4.09090909,91.1061818 L4.11054545,91.1061818 C6.12,91.1061818 7.76509091,92.6923636 7.76509091,94.872 C7.76509091,97.0516364 6.13963636,98.6181818 4.13018182,98.6181818 Z M4.13018182,92.7272727 L4.11054545,92.7272727 C2.89963636,92.7272727 1.88945455,93.6152727 1.88945455,94.8676364 C1.88945455,96.12 2.88,96.9883636 4.09090909,96.9883636 L4.11054545,96.9883636 C5.32145455,96.9883636 6.33163636,96.1003636 6.33163636,94.848 C6.33163636,93.5956364 5.34109091,92.7272727 4.13018182,92.7272727 Z" id="Shape" fill="#000000"></path>
                <polygon id="Shape" fill="#FF0000" points="0 79.1716364 3.04581818 80.0923636 3.77236364 76.992 4.49890909 80.0923636 7.54690909 79.1716364 5.22327273 81.3490909 7.54690909 83.5287273 4.49890909 82.608 3.77454545 85.7083636 3.04581818 82.608 0 83.5287273 2.32145455 81.3512727"></polygon>
                <polygon id="Shape" fill="#FF0000" points="110.923636 14.6269091 113.971636 15.5476364 114.698182 12.4494545 115.424727 15.5476364 118.472727 14.6269091 116.149091 16.8043636 118.472727 18.984 115.424727 18.0632727 114.700364 21.1636364 113.971636 18.0632727 110.925818 18.984 113.247273 16.8087273"></polygon>
                <polygon id="Shape" fill="#FF0000" points="104.066182 114.994909 107.112 115.915636 107.838545 112.817455 108.565091 115.915636 111.613091 114.994909 109.291636 117.172364 111.613091 119.352 108.565091 118.431273 107.840727 121.531636 107.112 118.433455 104.066182 119.352 106.387636 117.176727"></polygon>
                <path d="M43.8916364,71.8669091 L43.6516364,71.8669091 C42.6364995,71.8674883 41.6627736,71.4644833 40.9449633,70.746673 C40.2271531,70.0288628 39.824148,69.0551369 39.8247273,68.04 L39.8247273,63.4581818 C39.824186,61.3794613 41.4840025,59.6808868 43.5621818,59.6334545 C44.6296389,59.5051468 45.6998981,59.8494149 46.4923636,60.576 C47.2916712,61.3098123 47.7374277,62.3514999 47.7163636,63.4363636 L47.7163636,68.0356364 C47.7175215,69.0509737 47.3151412,70.0251536 46.5978029,70.7437195 C45.8804646,71.4622854 44.9069742,71.8663309 43.8916364,71.8669091 Z" id="Shape" fill="#FF0000"></path>
                <path d="M75.456,89.6290909 L43.6538182,89.6290909 C41.5402747,89.6290909 39.8269091,87.9157253 39.8269091,85.8021818 L39.8269091,80.4414545 C39.825996,79.3914757 40.2570194,78.3873492 41.0188099,77.6647625 C41.7806004,76.9421757 42.8060786,76.564756 43.8545455,76.6210909 C43.9134545,76.6210909 43.9963636,76.6210909 44.0727273,76.6385455 C46.1161245,76.731842 47.7248872,78.415565 47.7250909,80.4610909 L47.7250909,81.7396364 L75.456,81.7396364 C80.7883636,81.7396364 84.7025455,80.2123636 87.4276364,77.0683636 C90.0021818,74.0945455 91.4770909,69.6501818 91.4770909,64.8981818 C91.4770909,63.0981818 91.0276364,47.3105455 75.456,47.3105455 L47.7185455,47.3105455 L47.7185455,52.0887273 C47.7196607,54.0901667 46.1775758,55.7540202 44.1818182,55.9047273 C44.0705455,55.92 43.9636364,55.9287273 43.8501818,55.9352727 C42.8024497,55.990367 41.7781288,55.6123934 41.0173093,54.8899449 C40.2564898,54.1674965 39.8260604,53.1640885 39.8269091,52.1149091 L39.8269091,43.2414545 C39.8269091,42.2264951 40.2301001,41.2531058 40.9477848,40.5354212 C41.6654695,39.8177365 42.6388588,39.4145455 43.6538182,39.4145455 L75.456,39.4145455 C91.8850909,39.4145455 99.3687273,52.6232727 99.3687273,64.8916364 C99.3687273,71.5221818 97.1869091,77.8429091 93.3905455,82.2305455 C89.1425455,87.1396364 83.1098182,89.6290909 75.456,89.6290909 Z" id="Shape" fill="#FF0000"></path>
                <path d="M30.5018182,179.297455 C20.9977682,179.286633 13.2959122,171.584777 13.2850909,162.080727 L13.2850909,97.1105455 C13.3040695,94.962259 15.0377928,93.223714 17.1860182,93.1987692 C19.3342437,93.1738244 21.1078694,94.8716426 21.1767273,97.0189091 L21.1767273,162.080727 C21.1767273,167.231435 25.3522011,171.406909 30.5029091,171.406909 C35.6536171,171.406909 39.8290909,167.231435 39.8290909,162.080727 L39.8290909,112.101818 C39.8290909,109.988275 41.5424565,108.274909 43.656,108.274909 L75.456,108.274909 C87.456,108.274909 97.824,104.227636 105.456,96.5738182 C106.256554,95.7698848 107.372707,95.3628576 108.502849,95.4627247 C109.632991,95.5625919 110.66047,96.1590452 111.307636,97.0909091 L111.261818,97.0407273 C112.514364,98.5608187 112.407663,100.783602 111.015273,102.176727 C101.875636,111.327273 89.5810909,116.164364 75.4516364,116.164364 L47.7185455,116.164364 L47.7185455,162.080727 C47.7077242,171.584777 40.0058682,179.286633 30.5018182,179.297455 Z" id="Shape" fill="#9AC7DD"></path>
                <path d="M17.3498182,87.3010909 C16.9802756,87.3004704 16.6127895,87.2460825 16.2589091,87.1396364 L16.0756364,87.0807273 C15.9883636,87.0545455 15.9010909,87.024 15.8181818,86.9934545 C15.7352727,86.9629091 15.6,86.8974545 15.5149091,86.8625455 C14.1604643,86.2370135 13.2933691,84.881006 13.2938182,83.3890909 L13.2938182,30.0894545 C13.3046289,20.5888062 21.0011766,12.8883551 30.5018182,12.8727273 L75.4472727,12.8727273 C84.36,12.8727273 92.5570909,14.88 99.8116364,18.84 C100.842175,19.4020601 101.557542,20.4062158 101.75211,21.5638276 C101.946677,22.7214394 101.598893,23.9042858 100.808727,24.7723636 C100.760727,24.8269091 100.647273,24.9403636 100.577455,25.0101818 C99.3896621,26.2652663 97.5072807,26.5667694 95.9869091,25.7454545 C89.9170909,22.4465455 83.0116364,20.7730909 75.4581818,20.7730909 L30.5127273,20.7730909 C25.3651139,20.7791024 21.1936478,24.9505684 21.1876364,30.0981818 L21.1876364,83.4741818 C21.1882156,84.4893187 20.7852106,85.4630446 20.0674003,86.1808548 C19.34959,86.8986651 18.3758641,87.3016702 17.3607273,87.3010909 L17.3498182,87.3010909 Z" id="Shape" fill="#9AC7DD"></path>
                <path d="M115.878545,92.7818182 C115.530967,92.7635596 115.187472,92.6982368 114.857455,92.5876364 L114.829091,92.5876364 C113.691542,92.3179889 112.748791,91.525754 112.287273,90.4516364 C111.821493,89.363294 111.890074,88.1199665 112.472727,87.0894545 C115.723048,80.9734693 117.593122,74.2193068 117.951273,67.3025455 C118.645091,54.2116364 113.755636,41.1861818 104.875636,32.4763636 C103.959376,31.5771961 103.554673,30.2787035 103.797818,29.0181818 C103.797818,28.9636364 103.815273,28.8894545 103.815273,28.8807273 C104.025983,27.4599528 105.014508,26.2767936 106.375171,25.8167993 C107.735834,25.356805 109.239501,25.6974384 110.269091,26.6989091 C120.829091,36.9752727 126.648,52.3069091 125.832,67.7170909 C125.411487,75.7725723 123.234056,83.638581 119.452364,90.7636364 C118.753075,92.0723054 117.360332,92.8588052 115.878545,92.7818182 L115.878545,92.7818182 Z" id="Shape" fill="#9AC7DD"></path>
                <path d="M30.5018182,166.003636 C28.3470446,165.969733 26.6084483,164.231137 26.5745455,162.076364 L26.5745455,161.018182 C26.6905262,158.940434 28.4070861,157.313851 30.4880648,157.309798 C32.5690435,157.305745 34.2919265,158.925629 34.416,161.002909 L34.416,162.093818 C34.3707931,164.235836 32.6438854,165.960819 30.5018182,166.003636 L30.5018182,166.003636 Z" id="Shape" fill="#FFCD03"></path>
                <path d="M30.5978182,152.646545 C30.4930909,152.646545 30.3796364,152.646545 30.2792727,152.633455 L30.1330909,152.622545 C28.1125282,152.513582 26.5417062,150.823115 26.5810909,148.8 L26.5810909,133.090909 C26.5801761,131.710867 27.3231944,130.437478 28.5250909,129.759273 L28.6581818,129.676364 C29.8407869,128.980509 31.3055309,128.971472 32.4966322,129.652681 C33.6877334,130.33389 34.4226576,131.600951 34.4225455,132.973091 L34.4225455,148.821818 C34.4225455,150.935362 32.7091799,152.648727 30.5956364,152.648727 L30.5978182,152.646545 Z" id="Shape" fill="#FFCD03"></path>
                <path d="M104.290909,51.0545455 C104.145083,51.0538594 103.999407,51.0451188 103.854545,51.0283636 C102.599916,50.882539 101.498318,50.1263638 100.911273,49.008 C97.9636364,43.4050909 90.7636364,34.0101818 75.456,34.0101818 L40.2632727,34.0101818 C39.2308723,34.010553 38.2421688,33.5935458 37.5218712,32.8539362 C36.8015737,32.1143267 36.4108655,31.1149385 36.4385455,30.0829091 C36.4094913,29.0521385 36.800751,28.0538498 37.5224614,27.3173266 C38.2441717,26.5808035 39.2343065,26.1693454 40.2654545,26.1774545 L75.4581818,26.1774545 C86.8450909,26.1774545 96.4756364,30.4232727 103.313455,38.4589091 C105.085457,40.5664822 106.612334,42.8685102 107.864727,45.3207273 C108.638279,46.8195684 108.338679,48.6481907 107.127273,49.8218182 C107.101091,49.8458182 107.053091,49.8938182 107.007273,49.9330909 C106.287291,50.6537294 105.309578,51.0573795 104.290909,51.0545455 L104.290909,51.0545455 Z" id="Shape" fill="#FFCD03"></path>
                <path d="M30.5978182,121.618909 L30.3796364,121.618909 L30.3272727,121.618909 C28.2894545,121.520727 26.5767273,119.836364 26.5767273,117.794182 L26.5767273,36 C26.5758256,34.7026162 27.2330438,33.4933346 28.3221818,32.7883636 L28.296,32.8167273 C29.4542158,31.9465145 31.0046868,31.8053705 32.3009981,32.4521402 C33.5973095,33.0989099 34.4169433,34.4225724 34.4181818,35.8712727 L34.4181818,117.792 C34.4181818,118.806959 34.0149908,119.780349 33.2973061,120.498033 C32.5796214,121.215718 31.6062321,121.618909 30.5912727,121.618909 L30.5978182,121.618909 Z" id="Shape" fill="#FFCD03"></path>
                <path d="M75.456,102.874909 L43.5752727,102.874909 C42.1247882,102.951436 40.7505054,102.221129 40.002266,100.97618 C39.2540266,99.7312299 39.2540266,98.1749519 40.002266,96.9300022 C40.7505054,95.6850526 42.1247882,94.9547457 43.5752727,95.0312727 L75.456,95.0312727 C84.6196364,95.0312727 92.232,91.8283636 97.4770909,85.7694545 C102.181091,80.328 104.775273,72.912 104.775273,64.8938182 C104.775273,63.888 104.718545,62.7970909 104.600727,61.56 C104.461741,59.4413847 106.031725,57.595905 108.145227,57.3935233 C110.258728,57.1911417 112.150405,58.7051447 112.416,60.8116364 C112.551273,62.2603636 112.616727,63.5934545 112.616727,64.8938182 C112.616727,74.8036364 109.344,84.0370909 103.409455,90.8989091 C96.6305455,98.7338182 86.9650909,102.874909 75.456,102.874909 Z" id="Shape" fill="#FFCD03"></path>
                <path d="M61.5970909,68.3454545 L61.1105455,68.3454545 L61.1105455,60.6981818 L61.0625455,60.6981818 C61.0939416,60.5019114 61.1099903,60.3034922 61.1105455,60.1047273 L61.1105455,56.6552727 C61.1105455,54.6785455 59.4916364,53.0225455 57.5301818,52.8392727 C57.368949,52.8171548 57.2063789,52.8062196 57.0436364,52.8065455 C56.7922763,52.8073046 56.5416055,52.8328832 56.2952727,52.8829091 L56.2952727,52.8829091 L56.1556364,52.9178182 L56.0247273,52.9505455 C55.9592727,52.968 55.8938182,52.9898182 55.8283636,53.0116364 L55.7105455,53.0509091 C55.6472727,53.0749091 55.584,53.1010909 55.5207273,53.1294545 L55.4029091,53.1818182 C55.3461818,53.208 55.2916364,53.2385455 55.2349091,53.2690909 L55.1061818,53.3389091 L54.9709091,53.4261818 C54.9207273,53.4589091 54.8727273,53.4894545 54.8247273,53.5221818 L54.7265455,53.5985455 C54.6785455,53.6334545 54.6305455,53.6683636 54.5847273,53.7076364 C54.409779,53.8550784 54.2484055,54.0179124 54.1025455,54.1941818 L54.1025455,54.1941818 C54.0356364,54.2741818 53.9723636,54.3570909 53.9127273,54.4429091 L53.9127273,54.4429091 C53.856,54.5243636 53.8029091,54.608 53.7534545,54.6938182 L53.7272727,54.7418182 C53.6836364,54.8203636 53.64,54.8989091 53.6029091,54.9818182 L53.5898182,55.008 C53.5505455,55.0909091 53.5178182,55.176 53.4850909,55.2610909 L53.4545455,55.344 C53.424,55.4269091 53.3978182,55.512 53.3738182,55.5992727 C53.3738182,55.6232727 53.3629091,55.6472727 53.3563636,55.6712727 C53.3374545,55.7454545 53.3207273,55.8181818 53.3061818,55.8894545 C53.3061818,55.9156364 53.3061818,55.9396364 53.2909091,55.9658182 C53.2756364,56.0596364 53.2625455,56.1534545 53.2538182,56.2472727 L53.2538182,56.3149091 C53.2538182,56.4152727 53.2407273,56.5178182 53.2407273,56.6203636 L53.2407273,60.192 L53.2407273,60.192 L53.2407273,72.3970909 C53.2407273,74.5106344 54.9540928,76.224 57.0676364,76.224 L61.5992727,76.224 C63.5030987,76.2246855 65.1175716,74.8250416 65.3869091,72.9403636 C65.4065455,72.7985455 65.4196364,72.6545455 65.4196364,72.6109091 C65.5487138,71.5248242 65.2069178,70.4354111 64.4805432,69.6177184 C63.7541686,68.8000257 62.7126373,68.3322031 61.6189091,68.3323636 L61.5970909,68.3454545 Z" id="Shape" fill="#9AC7DD"></path>
                <path d="M75.456,52.8 L69.024,52.8 C67.0472727,52.8 65.3912727,54.4189091 65.208,56.3803636 C65.1858821,56.5415965 65.1749469,56.7041666 65.1752727,56.8669091 C65.1746935,57.882046 65.5776985,58.8557718 66.2955088,59.5735821 C67.0133191,60.2913924 67.987045,60.6943974 69.0021818,60.6938182 L75.4581818,60.6938182 C76.9287273,60.6938182 78.0894545,60.6938182 78.0894545,64.8894545 C78.0894545,68.3410909 77.7381818,68.3410909 75.4581818,68.3410909 L74.1643636,68.3410909 C72.0508201,68.3410909 70.3374545,70.0544565 70.3374545,72.168 L70.3374545,72.408 C70.3374545,74.5215435 72.0508201,76.2349091 74.1643636,76.2349091 L75.4581818,76.2349091 C82.44,76.2349091 85.9789091,72.4189091 85.9789091,64.8894545 C85.9789091,57.2116364 82.1432727,52.8 75.456,52.8 Z" id="Shape" fill="#9AC7DD"></path>
            </g>
        </g>
    </g>
</svg>