<?xml version="1.0" encoding="utf-8"?>
<!-- Generator: Adobe Illustrator 18.1.0, SVG Export Plug-In . SVG Version: 6.00 Build 0)  -->
<!DOCTYPE svg PUBLIC "-//W3C//DTD SVG 1.1//EN" "http://www.w3.org/Graphics/SVG/1.1/DTD/svg11.dtd">
<svg version="1.1" id="Layer_1" xmlns="http://www.w3.org/2000/svg" xmlns:xlink="http://www.w3.org/1999/xlink" x="0px" y="0px"
	 viewBox="0 0 540 540" enable-background="new 0 0 540 540" xml:space="preserve">
<g>
	<rect fill="none" width="540" height="540"/>
	<g>
		<g>
			<path fill="#81B5C9" d="M155.6,351.8h4.3l3.8,12.3l4.1-12.4h3.4l4.1,12.4l3.8-12.3h4.2l-6.2,18.3h-3.5l-4.1-11.9l-4.1,11.9h-3.5
				L155.6,351.8z"/>
			<path fill="#81B5C9" d="M193.2,361L193.2,361c0-5.2,4.1-9.5,9.7-9.5s9.6,4.2,9.6,9.4v0.1c0,5.2-4.1,9.4-9.7,9.4
				S193.2,366.2,193.2,361z M208.4,361L208.4,361c0-3.2-2.3-5.8-5.5-5.8s-5.5,2.5-5.5,5.7v0.1c0,3.1,2.3,5.7,5.5,5.7
				C206.1,366.7,208.4,364.1,208.4,361z"/>
			<path fill="#81B5C9" d="M223.9,351.8h8.3c2.3,0,4.1,0.7,5.3,1.8c1,1,1.6,2.4,1.6,4.2v0.1c0,2.9-1.6,4.8-3.9,5.6l4.4,6.5H235
				l-3.9-5.8H231h-3.1v5.8h-4V351.8z M232,360.7c2,0,3.1-1,3.1-2.6v-0.1c0-1.7-1.2-2.6-3.1-2.6h-4v5.2H232z"/>
			<path fill="#81B5C9" d="M250.5,351.8h4v8l7.4-8h4.8l-7.4,7.7l7.7,10.5h-4.8l-5.6-7.7l-2.1,2.2v5.6h-4V351.8z"/>
			<path fill="#81B5C9" d="M276,367.4l2.4-2.8c1.6,1.4,3.4,2.2,5.4,2.2c1.6,0,2.6-0.6,2.6-1.7V365c0-1-0.6-1.5-3.7-2.3
				c-3.7-0.9-6-2-6-5.6v-0.1c0-3.3,2.7-5.5,6.4-5.5c2.7,0,4.9,0.8,6.8,2.3l-2.1,3c-1.6-1.1-3.2-1.8-4.7-1.8s-2.3,0.7-2.3,1.6v0.1
				c0,1.2,0.8,1.6,3.9,2.4c3.7,1,5.8,2.3,5.8,5.5v0.1c0,3.6-2.8,5.6-6.7,5.6C281,370.3,278.2,369.3,276,367.4z"/>
			<path fill="#81B5C9" d="M301.7,351.8h4v7.2h7.4v-7.2h4v18.2h-4v-7.3h-7.4v7.3h-4V351.8z"/>
			<path fill="#81B5C9" d="M328.5,361L328.5,361c0-5.2,4.1-9.5,9.7-9.5s9.6,4.2,9.6,9.4v0.1c0,5.2-4.1,9.4-9.7,9.4
				S328.5,366.2,328.5,361z M343.6,361L343.6,361c0-3.2-2.3-5.8-5.5-5.8c-3.2,0-5.5,2.5-5.5,5.7v0.1c0,3.1,2.3,5.7,5.5,5.7
				C341.4,366.7,343.6,364.1,343.6,361z"/>
			<path fill="#81B5C9" d="M359.2,351.8h7.4c4.3,0,7,2.6,7,6.3v0.1c0,4.2-3.3,6.4-7.4,6.4h-3v5.5h-4V351.8z M366.3,361
				c2,0,3.2-1.2,3.2-2.8v-0.1c0-1.8-1.2-2.8-3.2-2.8h-3.1v5.6H366.3z"/>
		</g>
		<g>
			<path fill="#FFFFFF" d="M31.4,222.3H53c6,0,10.7,1.7,13.8,4.8c2.6,2.6,4.1,6.4,4.1,10.8v0.1c0,7.6-4.1,12.5-10.2,14.7l11.6,16.9
				H60.1L50,254.5h-0.1h-8.1v15.2H31.4V222.3z M52.4,245.3c5.1,0,8-2.7,8-6.7v-0.1c0-4.5-3.1-6.8-8.2-6.8H41.8v13.6H52.4z"/>
			<path fill="#FFFFFF" d="M80.2,222.3H116v9.3H90.6v9.6h22.3v9.3H90.6v10h25.7v9.3H80.2V222.3z"/>
			<path fill="#FFFFFF" d="M141.8,221.9h9.6l20.3,47.7h-10.9l-4.3-10.6h-20l-4.3,10.6h-10.6L141.8,221.9z M152.7,249.8l-6.3-15.4
				l-6.3,15.4H152.7z"/>
			<path fill="#FFFFFF" d="M178.9,222.3h10.4v37.9H213v9.5h-34V222.3z"/>
			<path fill="#FFFFFF" d="M237.3,222.3h11.2l9.8,32.1l10.6-32.2h8.9l10.6,32.2l9.8-32.1h10.9L293.1,270H284l-10.7-31l-10.7,31h-9.1
				L237.3,222.3z"/>
			<path fill="#FFFFFF" d="M314.8,246.1V246c0-13.5,10.6-24.5,25.2-24.5c14.6,0,25.1,10.9,25.1,24.4v0.1c0,13.5-10.6,24.5-25.2,24.5
				C325.3,270.5,314.8,259.6,314.8,246.1z M354.2,246.1V246c0-8.1-6-14.9-14.3-14.9s-14.2,6.6-14.2,14.8v0.1c0,8.1,6,14.9,14.3,14.9
				C348.4,260.9,354.2,254.2,354.2,246.1z"/>
			<path fill="#FFFFFF" d="M374.3,222.3H396c6,0,10.7,1.7,13.8,4.8c2.6,2.6,4.1,6.4,4.1,10.8v0.1c0,7.6-4.1,12.5-10.2,14.7
				l11.6,16.9h-12.2L393,254.5h-0.1h-8.1v15.2h-10.4V222.3z M395.3,245.3c5.1,0,8-2.7,8-6.7v-0.1c0-4.5-3.1-6.8-8.2-6.8h-10.4v13.6
				H395.3z"/>
			<path fill="#FFFFFF" d="M423.2,222.3h10.4v37.9h23.6v9.5h-34V222.3z"/>
			<path fill="#FFFFFF" d="M465,222.3h18.5c14.9,0,25.2,10.2,25.2,23.6v0.1c0,13.3-10.3,23.7-25.2,23.7H465V222.3z M483.5,260.3
				c8.5,0,14.3-5.8,14.3-14.1V246c0-8.4-5.8-14.3-14.3-14.3h-8.1v28.6H483.5z"/>
			<path fill="#FFFFFF" d="M31.3,282.6h14.4c4,0,7.1,1.1,9.2,3.2c1.8,1.8,2.7,4.2,2.7,7.2v0.1c0,5.1-2.8,8.3-6.8,9.8l7.7,11.3h-8.1
				l-6.8-10.1h-0.1h-5.4v10.1h-6.9V282.6z M45.3,298c3.4,0,5.3-1.8,5.3-4.5v-0.1c0-3-2.1-4.5-5.5-4.5h-6.9v9.1H45.3z"/>
			<path fill="#FFFFFF" d="M63,282.6h23.8v6.2H69.9v6.4h14.9v6.2H69.9v6.6H87v6.2H63V282.6z"/>
			<path fill="#FFFFFF" d="M90.1,309.6l4.1-4.9c2.8,2.3,5.8,3.8,9.4,3.8c2.8,0,4.6-1.1,4.6-3v-0.1c0-1.8-1.1-2.7-6.4-4
				c-6.4-1.6-10.5-3.4-10.5-9.7v-0.1c0-5.7,4.6-9.5,11.1-9.5c4.6,0,8.5,1.4,11.7,4l-3.6,5.2c-2.8-1.9-5.5-3.1-8.2-3.1
				s-4.1,1.2-4.1,2.8v0.1c0,2.1,1.4,2.8,6.8,4.2c6.4,1.7,10,4,10,9.5v0.1c0,6.3-4.8,9.8-11.6,9.8C98.7,314.7,93.9,313,90.1,309.6z"
				/>
			<path fill="#FFFFFF" d="M120.2,282.6h12.9c7.5,0,12.1,4.5,12.1,10.9v0.1c0,7.3-5.7,11.1-12.8,11.1h-5.3v9.5h-6.9V282.6z
				 M132.6,298.6c3.5,0,5.5-2.1,5.5-4.8v-0.1c0-3.1-2.2-4.8-5.6-4.8h-5.4v9.7H132.6z"/>
			<path fill="#FFFFFF" d="M148,298.5L148,298.5c0-9.1,7.1-16.4,16.8-16.4s16.7,7.3,16.7,16.2v0.1c0,9-7.1,16.3-16.8,16.3
				S148,307.5,148,298.5z M174.3,298.5L174.3,298.5c0-5.5-4-10-9.6-10c-5.6,0-9.5,4.4-9.5,9.8v0.1c0,5.4,4,9.9,9.6,9.9
				S174.3,303.9,174.3,298.5z"/>
			<path fill="#FFFFFF" d="M186.8,282.6h6.4l14.8,19.4v-19.4h6.9v31.6H209l-15.3-20.1v20.1h-6.9V282.6z"/>
			<path fill="#FFFFFF" d="M219.3,309.6l4.1-4.9c2.8,2.3,5.8,3.8,9.4,3.8c2.8,0,4.6-1.1,4.6-3v-0.1c0-1.8-1.1-2.7-6.4-4
				c-6.4-1.6-10.5-3.4-10.5-9.7v-0.1c0-5.7,4.6-9.5,11.1-9.5c4.6,0,8.5,1.4,11.7,4l-3.6,5.2c-2.8-1.9-5.5-3.1-8.2-3.1
				s-4.1,1.2-4.1,2.8v0.1c0,2.1,1.4,2.8,6.8,4.2c6.4,1.7,10,4,10,9.5v0.1c0,6.3-4.8,9.8-11.6,9.8C227.9,314.7,223.1,313,219.3,309.6
				z"/>
			<path fill="#FFFFFF" d="M249.7,282.6h6.9v31.6h-6.9V282.6z"/>
			<path fill="#FFFFFF" d="M260.9,282.6h7.7l8.3,22.2l8.3-22.2h7.5l-12.8,31.8h-6.1L260.9,282.6z"/>
			<path fill="#FFFFFF" d="M296.5,282.6h23.8v6.2h-16.9v6.4h14.9v6.2h-14.9v6.6h17.1v6.2h-24V282.6z"/>
			<path fill="#FFFFFF" d="M338.4,282.6h12.3c9.9,0,16.8,6.8,16.8,15.7v0.1c0,8.9-6.9,15.8-16.8,15.8h-12.3V282.6z M350.7,308
				c5.7,0,9.5-3.8,9.5-9.4v-0.1c0-5.6-3.8-9.5-9.5-9.5h-5.4v19H350.7z"/>
			<path fill="#FFFFFF" d="M372.8,282.6h23.8v6.2h-16.9v6.4h14.9v6.2h-14.9v6.6h17.1v6.2h-24V282.6z"/>
			<path fill="#FFFFFF" d="M399.9,309.6l4.1-4.9c2.8,2.3,5.8,3.8,9.4,3.8c2.8,0,4.6-1.1,4.6-3v-0.1c0-1.8-1.1-2.7-6.4-4
				c-6.4-1.6-10.5-3.4-10.5-9.7v-0.1c0-5.7,4.6-9.5,11.1-9.5c4.6,0,8.5,1.4,11.7,4l-3.6,5.2c-2.8-1.9-5.5-3.1-8.2-3.1
				s-4.1,1.2-4.1,2.8v0.1c0,2.1,1.4,2.8,6.8,4.2c6.4,1.7,10,4,10,9.5v0.1c0,6.3-4.8,9.8-11.6,9.8C408.5,314.7,403.7,313,399.9,309.6
				z"/>
			<path fill="#FFFFFF" d="M430.3,282.6h6.9v31.6h-6.9V282.6z"/>
			<path fill="#FFFFFF" d="M442.8,298.5L442.8,298.5c0-9.1,7-16.4,16.6-16.4c5.7,0,9.1,1.5,12.4,4.3l-4.4,5.3
				c-2.4-2-4.6-3.2-8.3-3.2c-5.1,0-9.1,4.5-9.1,9.8v0.1c0,5.8,4,10,9.6,10c2.5,0,4.8-0.6,6.5-1.9V302h-7v-6h13.7v13.7
				c-3.2,2.8-7.7,5-13.5,5C449.6,314.8,442.8,307.9,442.8,298.5z"/>
			<path fill="#FFFFFF" d="M478.6,282.6h6.4l14.8,19.4v-19.4h6.9v31.6h-5.9l-15.3-20.1v20.1h-6.9V282.6z"/>
		</g>
		<g>
			<g>
				<path fill="#81B5C9" d="M175.8,188.8c-5.1,0-8.9-3.9-8.9-8.9v0c0-4.9,3.7-8.9,9-8.9c3.3,0,5.2,1.1,6.8,2.7l-2.4,2.8
					c-1.3-1.2-2.7-2-4.4-2c-2.9,0-5,2.4-5,5.4v0.1c0,3,2,5.4,5,5.4c2,0,3.2-0.8,4.5-2l2.4,2.4C181.1,187.6,179.1,188.8,175.8,188.8z
					"/>
				<path fill="#81B5C9" d="M194.8,188.5v-6.9h-7v6.9H184v-17.3h3.8v6.8h7v-6.8h3.8v17.3H194.8z"/>
				<path fill="#81B5C9" d="M201.3,188.5v-17.3h3.8v17.3H201.3z"/>
				<path fill="#81B5C9" d="M215.7,188.8c-5.1,0-8.9-3.9-8.9-8.9v0c0-4.9,3.7-8.9,9-8.9c3.3,0,5.2,1.1,6.8,2.7l-2.4,2.8
					c-1.3-1.2-2.7-2-4.4-2c-2.9,0-5,2.4-5,5.4v0.1c0,3,2,5.4,5,5.4c2,0,3.2-0.8,4.5-2l2.4,2.4C221,187.6,219.1,188.8,215.7,188.8z"
					/>
				<path fill="#81B5C9" d="M236.9,188.5l-1.6-3.9H228l-1.6,3.9h-3.9l7.4-17.4h3.5l7.4,17.4H236.9z M231.7,175.7l-2.3,5.6h4.6
					L231.7,175.7z"/>
				<path fill="#81B5C9" d="M249,188.8c-5.4,0-9.1-3.8-9.1-8.9v0c0-4.9,3.8-8.9,9.1-8.9c3.1,0,5,0.8,6.8,2.4l-2.4,2.9
					c-1.3-1.1-2.5-1.8-4.5-1.8c-2.8,0-5,2.4-5,5.4v0.1c0,3.2,2.2,5.5,5.2,5.5c1.4,0,2.6-0.3,3.6-1v-2.5h-3.8v-3.3h7.5v7.5
					C254.6,187.6,252.2,188.8,249,188.8z"/>
				<path fill="#81B5C9" d="M266.8,188.8c-5.3,0-9.2-4-9.2-8.9v0c0-4.9,3.9-8.9,9.2-8.9c5.3,0,9.2,4,9.2,8.9v0.1
					C276,184.8,272.1,188.8,266.8,188.8z M272,179.9c0-3-2.2-5.4-5.2-5.4c-3.1,0-5.2,2.4-5.2,5.4v0.1c0,3,2.2,5.4,5.2,5.4
					C269.9,185.3,272,182.9,272,179.9L272,179.9z"/>
				<path fill="#81B5C9" d="M297.8,188.8c-5.1,0-8.9-3.9-8.9-8.9v0c0-4.9,3.7-8.9,9-8.9c3.3,0,5.2,1.1,6.8,2.7l-2.4,2.8
					c-1.3-1.2-2.7-2-4.4-2c-2.9,0-5,2.4-5,5.4v0.1c0,3,2,5.4,5,5.4c2,0,3.2-0.8,4.5-2l2.4,2.4C303.1,187.6,301.1,188.8,297.8,188.8z
					"/>
				<path fill="#81B5C9" d="M319,188.5l-1.6-3.9h-7.3l-1.6,3.9h-3.9l7.4-17.4h3.5l7.4,17.4H319z M313.7,175.7l-2.3,5.6h4.6
					L313.7,175.7z"/>
				<path fill="#81B5C9" d="M337.3,188.5v-11.3l-4.9,7.4h-0.1l-4.8-7.3v11.2h-3.7v-17.3h4.1l4.5,7.3l4.5-7.3h4.1v17.3H337.3z"/>
				<path fill="#81B5C9" d="M350.3,183.3h-2.9v5.2h-3.8v-17.3h7.1c4.1,0,6.6,2.4,6.6,6v0.1C357.3,181.3,354.2,183.3,350.3,183.3z
					 M353.5,177.3c0-1.7-1.2-2.6-3.1-2.6h-2.9v5.3h3C352.4,180,353.5,178.8,353.5,177.3L353.5,177.3z"/>
				<path fill="#81B5C9" d="M364.6,188.8c-2.6,0-5.3-0.9-7.3-2.8l2.2-2.7c1.6,1.3,3.2,2.1,5.2,2.1c1.6,0,2.5-0.6,2.5-1.6v0
					c0-1-0.6-1.5-3.5-2.2c-3.5-0.9-5.7-1.9-5.7-5.3v0c0-3.1,2.5-5.2,6-5.2c2.5,0,4.7,0.8,6.4,2.2l-2,2.9c-1.5-1.1-3-1.7-4.5-1.7
					c-1.5,0-2.2,0.7-2.2,1.5v0c0,1.1,0.7,1.5,3.7,2.3c3.5,0.9,5.5,2.2,5.5,5.2v0C371,186.8,368.3,188.8,364.6,188.8z"/>
			</g>
			<polygon fill="#FF0000" points="282.4,176.6 283.1,179.3 285.8,178.5 283.7,180.4 285.8,182.3 283.1,181.5 282.4,184.2 
				281.8,181.5 279.1,182.3 281.2,180.4 279.1,178.5 281.8,179.3 			"/>
		</g>
		<g>
			<polygon fill="#FF0000" points="105.7,213.2 105.7,175.8 269,81.5 432.2,175.8 432.2,213.2 442.2,213.2 442.2,170 269,70 
				95.8,170 95.8,213.2 			"/>
			<polygon fill="#FF0000" points="432.2,326.8 432.2,364.2 269,458.5 105.7,364.2 105.7,326.8 95.8,326.8 95.8,370 269,470 
				442.2,370 442.2,326.8 			"/>
		</g>
	</g>
</g>
</svg>
