<?xml version="1.0" encoding="utf-8"?>
<!-- Generator: Adobe Illustrator 25.1.0, SVG Export Plug-In . SVG Version: 6.00 Build 0)  -->
<svg version="1.1" id="Layer_1" xmlns="http://www.w3.org/2000/svg" xmlns:xlink="http://www.w3.org/1999/xlink" x="0px" y="0px"
	 viewBox="0 0 1000 1000" style="enable-background:new 0 0 1000 1000;" xml:space="preserve">
<style type="text/css">
	.st0{fill:#FF0000;}
	.st1{fill:#FFFFFF;}
	.st2{fill:#4D4D4D;}
</style>
<g>
	<g>
		<polygon class="st0" points="679.59,100.55 684.46,120.32 704.88,114.01 689.33,128.95 704.88,143.9 684.46,137.58 679.59,157.36 
			674.72,137.58 654.29,143.9 669.85,128.95 654.29,114.01 674.72,120.32 		"/>
		<rect x="656.93" y="74.73" class="st1" width="45.32" height="20.29"/>
		<rect x="657.1" y="162.15" class="st1" width="45.32" height="20.29"/>
	</g>
	<g>
		<polygon class="st2" points="439.73,835.35 444.3,835.35 442.02,813.27 		"/>
		<polygon class="st2" points="449.47,642.05 461.23,642.05 455.35,626.44 		"/>
		<path class="st2" d="M491.14,810.13c-1.93,0-2.79,1.15-2.79,3.86v28.94c0,2.71,0.78,3.86,2.79,3.86c1.93,0,2.78-1.15,2.78-3.86
			v-28.94C493.92,811.27,493.14,810.13,491.14,810.13z"/>
		<path class="st2" d="M606.64,810.85h-0.93v15.93h0.93c3.93,0,4.72-1.29,4.72-8C611.35,812.13,610.57,810.85,606.64,810.85z"/>
		<path class="st2" d="M617.03,618.82h-5.88v14.33h5.78c5.51,0,9.19-2.48,9.19-7.07v-0.18
			C626.12,621.21,622.72,618.82,617.03,618.82z"/>
		<polygon class="st2" points="550.03,835.35 554.6,835.35 552.32,813.27 		"/>
		<g>
			<path class="st2" d="M462.22,701.26c-5.86,0-9.67,5.95-9.67,14.88v0.19c0,8.93,4,15.07,9.86,15.07c5.86,0,9.67-5.95,9.67-14.88
				v-0.19C472.07,707.4,468.08,701.26,462.22,701.26z"/>
			<path class="st2" d="M737.21,407.05c0-63.43,0-127.28,0-191.72c-41.93,0-79.05,0-118.11,0c-2.07,28.9-3.85,53.77-6.02,84.17
				c-41.25-34.89-76.73-64.9-115.04-97.31C362.7,319.94,231.35,434.22,100,548.5c1.13,6.35,2.26,12.69,3.4,19.04
				c28.46,3.45,56.92,6.9,91.64,11.11c0,115.54,0,230.51,0,346.62c205.58,0,404.65,0,608.66,0c0-118.08,0-231.94,0-347.25
				c32.47-3.3,60.21-6.13,87.96-8.95c2.78-5.58,5.56-11.16,8.34-16.74C846.64,504.72,793.28,457.1,737.21,407.05z M503.55,445.17
				h50.62l19.22,31.78l19.41-31.78h49.67l-43.2,65.08l45.1,68.13h-50.62l-21.12-34.63l-21.31,34.63h-49.67l45.1-67.74L503.55,445.17
				z M547.68,700.98c-3.72,0-7.16,2.33-12.55,8.09l-14.32-12.18c7.53-9.3,15.16-14.32,28.74-14.32c14.88,0,25.58,8.93,25.58,21.3
				v0.19c0,9.95-5.3,15.35-13.11,20.37l-11.62,7.44h25.39v17.02H520.9v-15.81l26.97-19.34c4.09-2.88,5.67-5.39,5.67-7.91
				C553.54,703.03,551.4,700.98,547.68,700.98z M538.36,656.93h-0.37l-14.78-22.87v31.87h-21.04v-64.29h22.41l13.78,22.59
				l13.77-22.59h22.41v64.29h-21.4v-31.87L538.36,656.93z M493.65,716.14v0.19c0,17.95-11.72,33.95-31.43,33.95
				c-19.72,0-31.25-15.81-31.25-33.76v-0.19c0-17.95,11.72-33.95,31.44-33.95C482.12,682.38,493.65,698.19,493.65,716.14z
				 M469.96,665.93l-3.4-8.63h-22.5l-3.3,8.63h-22.96l27.09-64.74h21.31l27.09,64.74H469.96z M352.2,445.17h45.29v72.88
				c0,16.55,8.56,23.6,20.55,23.6c11.99,0,20.55-6.47,20.55-22.64v-73.83h45.29v72.5c0,45.48-26.45,63.37-66.22,63.37
				c-39.77,0-65.46-18.27-65.46-62.42V445.17z M349.76,633.79c0-19.2,14.97-33.52,34.16-33.52c14.15,0,23.7,6.89,29.11,16.72
				l-17.73,10.38c-2.39-4.59-5.78-7.81-11.66-7.81c-7.26,0-12.03,6.34-12.03,14.05v0.18c0,8.36,4.96,14.24,12.03,14.24
				c6.06,0,9.46-3.31,12.12-8.08l17.72,10.01c-5.42,9.55-14.42,17.36-30.4,17.36c-17.82,0-33.33-13.41-33.33-33.34V633.79z
				 M377.4,682.57c14.88,0,25.58,8.93,25.58,21.3v0.19c0,9.95-5.3,15.35-13.11,20.37l-11.62,7.44h25.39v17.02h-54.87v-15.81
				l26.97-19.34c4.09-2.88,5.67-5.39,5.67-7.91c0-2.79-2.14-4.84-5.86-4.84s-7.16,2.33-12.56,8.09l-14.32-12.18
				C356.2,687.59,363.82,682.57,377.4,682.57z M356.57,810.13c-2.14,0-2.71,1.07-2.71,5.22v26.22c0,4.14,0.57,5.22,2.71,5.22
				c2.36,0,3-1.43,3-6.51c0-1.43-0.07-2.71-0.14-4.93h6.64c0.07,2.57,0.14,3.71,0.14,5c0,8.5-3.15,12.64-9.65,12.64
				c-6.22,0-9.36-3.86-9.36-11.43v-26.22c0-7.57,3.14-11.43,9.36-11.43c6.43,0,9.65,4.14,9.65,12.43c0,1.15,0,1.93-0.14,3.79h-6.64
				c0.14-1.5,0.14-2.14,0.14-3.28C359.57,811.56,358.93,810.13,356.57,810.13z M390.28,852.28h-6.64v-21.86h-5.43v21.86h-6.64
				v-47.65h6.64v19.58h5.43v-19.58h6.64V852.28z M402.59,852.28h-6.64v-47.65h6.64V852.28z M417.47,810.13
				c-2.14,0-2.71,1.07-2.71,5.22v26.22c0,4.14,0.57,5.22,2.71,5.22c2.36,0,3-1.43,3-6.51c0-1.43-0.07-2.71-0.14-4.93h6.64
				c0.07,2.57,0.14,3.71,0.14,5c0,8.5-3.15,12.64-9.65,12.64c-6.22,0-9.36-3.86-9.36-11.43v-26.22c0-7.57,3.14-11.43,9.36-11.43
				c6.43,0,9.65,4.14,9.65,12.43c0,1.15,0,1.93-0.14,3.79h-6.64c0.14-1.5,0.14-2.14,0.14-3.28
				C420.47,811.56,419.83,810.13,417.47,810.13z M446.23,852.28l-1.22-10.72h-6l-1.14,10.72h-6.43l6.5-47.65h8.57l6.21,47.65H446.23
				z M476.13,820.13h-6.64c0.14-1.57,0.14-2.21,0.14-3.28c0-5.29-0.64-6.72-3-6.72c-2.14,0-2.71,1.07-2.71,5.22v25.22
				c0,3.57,0.07,4,0.5,4.86c0.43,0.93,1.21,1.43,2.21,1.43c1.07,0,2-0.64,2.5-1.79c0.29-0.78,0.36-1.5,0.36-4.5v-6.86h-2.93v-5.65
				h9.57v24.22h-3.57l-1-3.29c-1.86,2.71-3.86,4-6.14,4c-2.79,0-5.43-1.64-6.79-4.21c-1.07-2-1.36-3.93-1.36-8.21v-25.22
				c0-7.57,3.14-11.43,9.43-11.43c6.36,0,9.57,4.14,9.57,12.43C476.28,817.35,476.28,818.27,476.13,820.13z M500.57,840.14
				c0,5.71-0.21,6.86-1.5,8.93c-1.57,2.43-4.57,3.93-7.93,3.93c-3.36,0-6.36-1.5-7.93-3.93c-1.29-2.07-1.5-3.29-1.5-8.93V816.7
				c0-5.64,0.21-6.86,1.5-8.93c1.57-2.36,4.57-3.86,7.93-3.86c3.36,0,6.36,1.5,7.93,3.86c1.29,2.07,1.5,3.29,1.5,8.93V840.14z
				 M527.77,810.13c-2.14,0-2.71,1.07-2.71,5.22v26.22c0,4.14,0.57,5.22,2.71,5.22c2.36,0,3-1.43,3-6.51c0-1.43-0.07-2.71-0.14-4.93
				h6.64c0.07,2.57,0.14,3.71,0.14,5c0,8.5-3.15,12.64-9.65,12.64c-6.22,0-9.36-3.86-9.36-11.43v-26.22
				c0-7.57,3.14-11.43,9.36-11.43c6.43,0,9.65,4.14,9.65,12.43c0,1.15,0,1.93-0.14,3.79h-6.64c0.14-1.5,0.14-2.14,0.14-3.28
				C530.77,811.56,530.13,810.13,527.77,810.13z M556.53,852.28l-1.22-10.72h-6l-1.14,10.72h-6.43l6.5-47.65h8.57l6.21,47.65H556.53
				z M593.4,852.28h-5.72v-33.65l-5.57,33.65h-2.86l-5.57-33.65v33.65h-5.57v-47.65h7.86l4.71,23.72l4.72-23.72h8V852.28z
				 M615.28,829.85c-1.72,2-4.64,3.07-8.65,3.07h-0.93v19.36h-6.64v-47.65h6.29c5.86,0,8.07,0.71,10,3.29
				c1.86,2.57,2.43,5,2.43,10.93C617.78,825.21,617.21,827.63,615.28,829.85z M632.15,853c-3.57,0-6.07-1.14-7.93-3.64
				c-1.57-2.14-2.07-4.14-2.07-8.29c0-1,0-1.43,0.07-2.57l6.57-0.29v2.07c0,4.93,0.86,6.51,3.43,6.51c2,0,3-1.64,3-4.72
				c0-3.14-0.79-5-4.07-9.36l-3.29-4.86c-4.07-6.14-5.43-9.43-5.43-13.64c0-6.29,3.79-10.29,9.79-10.29c4.5,0,7.79,2.58,8.72,6.93
				c0.36,1.78,0.36,2,0.36,5.93l-6.5,0.64c0-2.43-0.07-3.29-0.21-4.28c-0.21-1.93-1.29-3-2.79-3c-1.79,0-2.79,1.57-2.79,4.43
				c0,2.93,0.29,3.58,4.72,10.22l3.36,4.86c3.07,4.5,4.79,9.36,4.79,13.43C641.87,849.42,638.37,853,632.15,853z M644.37,781.24
				H349.06v-5.05h295.31V781.24z M603.67,704.7l-3.91-16.09l19.44-5.3h16.46v65.57h-21.39v-46.5L603.67,704.7z M647.33,624.7
				c0,15.52-11.85,23.78-29.2,23.78h-6.98v17.45h-21.49v-64.29h28.93c17.09,0,28.75,7.62,28.75,22.87V624.7z"/>
		</g>
	</g>
</g>
</svg>
