<svg xmlns="http://www.w3.org/2000/svg" width="456" height="482" viewBox="0 0 456 482">
  <g fill="none" fill-rule="evenodd" transform="translate(-84 -29)">
    <rect width="540" height="540"/>
    <g transform="translate(84 29)">
      <path fill="#515254" d="M30.87,88.81 L15.19,69.65 L24.79,61.79 L40.31,80.75 C44.34,85.67 48.74,85.98 52.54,82.87 C56.34,79.76 56.99,75.48 53.08,70.7 L37.37,51.5 L46.97,43.64 L62.45,62.56 C71.47,73.58 69.13,83.55 59.43,91.49 C49.73,99.42 39.61,99.49 30.87,88.81 Z"/>
      <polygon fill="#515254" points="85.33 46.85 63.03 33.34 75.76 27.4 88.09 35.34 89.97 20.76 102.41 14.95 98.4 40.6 121.64 54.64 108.91 60.58 95.64 52.11 93.56 67.75 81.12 73.56"/>
      <path fill="#515254" d="M149.09,25.54 L149.08,25.41 C148.12,12.59 157.23,1.81 170.55,0.81 C179.53,0.14 185.59,3.48 189.89,8.59 L181.25,16.38 C178.5,13.43 175.46,11.63 171.25,11.95 C165.09,12.41 161.15,17.95 161.63,24.36 L161.64,24.49 C162.13,31.09 166.85,35.91 173.01,35.45 C177.6,35.11 180.14,32.77 182.54,29.37 L192.2,35.22 C188.48,41.25 183.21,45.87 173.47,46.6 C160.9,47.52 150.07,38.67 149.09,25.54 Z"/>
      <path fill="#515254" fill-rule="nonzero" d="M224.13,3.69 L235.73,5.76 L246.4,52.78 L233.5,50.48 L231.72,42.16 L214.98,39.17 L210.49,46.37 L197.84,44.11 L224.13,3.69 Z M229.92,32.18 L227.29,18.98 L220.19,30.45 L229.92,32.18 Z"/>
      <polygon fill="#515254" points="273.22 15.78 284.82 21.46 286.77 41.42 303.73 30.71 315.33 36.39 295.94 76 285.02 70.66 296.15 47.91 278.43 58.46 278.2 58.35 275.66 38.03 264.58 60.67 253.83 55.41"/>
      <path fill="#515254" fill-rule="nonzero" d="M334.76,50.28 L349,62.7 C357.4,70.03 359.04,79.07 352.63,86.43 L352.55,86.53 C345.72,94.36 336.09,93.23 327.83,86.03 L323.27,82.05 L314.99,91.54 L305.78,83.51 L334.76,50.28 Z M333.93,78.64 C337.21,81.5 340.69,81.53 342.97,78.92 L343.05,78.83 C345.54,75.98 344.87,72.72 341.54,69.82 L337.22,66.05 L329.56,74.83 L333.93,78.64 Z"/>
      <polygon fill="#F00" points="219.16 465.6 213.41 468 216.18 473.59 211.21 469.81 207.75 475.01 208.54 468.82 202.32 468.42 208.07 466.01 205.31 460.42 210.27 464.2 213.73 459.01 212.94 465.2"/>
      <path fill="#67A8C8" d="M19.35,393.01 L19.4,392.96 C24.54,387.97 32.51,387.76 37.9,393.31 C41.21,396.72 42.05,399.86 42.03,403.15 L36.65,403.45 C36.56,400.83 35.96,398.65 34.2,396.85 C31.24,393.8 26.58,394.06 23.48,397.07 L23.43,397.12 C20.33,400.13 19.83,404.78 22.84,407.88 C24.85,409.95 26.9,410.41 29.57,410.58 L29.47,415.59 C25.68,415.66 22.43,414.8 19.05,411.31 C13.89,405.99 14.16,398.05 19.35,393.01 Z"/>
      <polygon fill="#67A8C8" points="49.13 404.79 53.49 408.21 47.34 416.06 55.39 422.37 61.54 414.52 65.9 417.94 50.35 437.77 45.99 434.35 52.23 426.39 44.18 420.08 37.94 428.04 33.58 424.62"/>
      <polygon fill="#67A8C8" points="71.99 421.78 76.67 424.76 63.14 446.01 58.46 443.03"/>
      <path fill="#67A8C8" d="M75.67,439.24 L75.7,439.18 C78.96,432.8 86.43,430.02 93.33,433.54 C97.56,435.7 99.38,438.4 100.42,441.52 L95.43,443.54 C94.5,441.08 93.23,439.22 90.98,438.08 C87.2,436.15 82.87,437.9 80.9,441.75 L80.87,441.81 C78.91,445.66 79.93,450.22 83.78,452.19 C86.35,453.5 88.44,453.27 91.02,452.57 L92.54,457.35 C88.97,458.64 85.62,458.87 81.29,456.66 C74.69,453.28 72.38,445.68 75.67,439.24 Z"/>
      <path fill="#67A8C8" fill-rule="nonzero" d="M116.15,443.56 L120.98,445.22 L122.95,472.73 L117.47,470.85 L117.13,464.76 L107.05,461.3 L103.04,465.9 L97.7,464.07 L116.15,443.56 Z M116.85,459.48 L116.34,450.67 L110.52,457.31 L116.85,459.48 Z"/>
      <path fill="#67A8C8" d="M131.68,462.04 L131.69,461.97 C133.07,454.94 139.67,450.25 147.16,451.72 C151.61,452.59 154.06,454.32 156.21,457.01 L151.98,460.47 C150.38,458.51 148.87,457.26 146.01,456.7 C142.05,455.93 138.23,458.81 137.4,463.01 L137.39,463.08 C136.51,467.6 138.96,471.53 143.34,472.39 C145.32,472.78 147.18,472.63 148.75,471.91 L149.44,468.38 L143.96,467.31 L144.88,462.61 L155.62,464.71 L153.52,475.45 C150.56,477.11 146.71,478.19 142.19,477.3 C134.49,475.79 130.25,469.35 131.68,462.04 Z"/>
      <path fill="#67A8C8" fill-rule="nonzero" d="M163.6,467.75 L163.6,467.68 C163.9,460.52 169.79,454.9 177.56,455.22 C185.33,455.55 190.66,461.57 190.36,468.73 L190.36,468.8 C190.06,475.96 184.17,481.58 176.4,481.26 C168.63,480.93 163.3,474.91 163.6,467.75 Z M184.57,468.63 L184.57,468.56 C184.75,464.24 181.74,460.52 177.28,460.33 C172.82,460.14 169.58,463.54 169.4,467.85 L169.4,467.92 C169.22,472.24 172.23,475.96 176.69,476.15 C181.15,476.34 184.39,472.95 184.57,468.63 Z"/>
      <path fill="#67A8C8" d="M231.01,464.34 L230.99,464.27 C229.2,457.33 232.97,450.3 240.46,448.37 C245.06,447.18 248.21,448.01 251.05,449.66 L248.65,454.48 C246.33,453.26 244.14,452.7 241.7,453.33 C237.59,454.39 235.5,458.57 236.58,462.75 L236.6,462.82 C237.68,467 241.47,469.74 245.66,468.67 C248.45,467.95 249.87,466.39 251.34,464.16 L255.65,466.73 C253.83,470.06 251.47,472.45 246.77,473.67 C239.58,475.51 232.81,471.34 231.01,464.34 Z"/>
      <path fill="#67A8C8" fill-rule="nonzero" d="M264.2,440.74 L268.92,438.78 L288.63,458.08 L283.28,460.3 L278.98,455.96 L269.14,460.05 L269.18,466.15 L263.96,468.32 L264.2,440.74 Z M275.27,452.2 L269.04,445.94 L269.08,454.77 L275.27,452.2 Z"/>
      <polygon fill="#67A8C8" points="284.31 432.04 289.41 428.93 300.6 434.59 300.72 422.05 305.82 418.94 318.92 440.46 314.22 443.32 305.67 429.27 305.21 442.15 305.09 442.22 293.56 436.77 302.05 450.73 297.41 453.56"/>
      <path fill="#67A8C8" fill-rule="nonzero" d="M312.45,413.91 L320.4,407.36 C325.04,403.54 330.11,403.98 333.39,407.95 L333.44,408.01 C337.15,412.51 335.57,417.73 331.21,421.32 L327.96,424 L332.77,429.83 L328.49,433.35 L312.45,413.91 Z M328.2,417.4 C330.34,415.64 330.54,413.33 329.16,411.66 L329.11,411.6 C327.53,409.68 325.35,409.75 323.21,411.52 L319.9,414.24 L324.8,420.19 L328.2,417.4 Z"/>
      <path fill="#67A8C8" d="M346.13,413.52 L345.56,408.44 C348.48,408.1 350.98,407.2 352.97,405.12 C354.54,403.48 354.83,401.87 353.77,400.85 L353.72,400.8 C352.71,399.83 351.59,399.96 347.9,402.25 C343.45,405.02 340.18,406.42 336.56,402.96 L336.51,402.91 C333.21,399.75 333.56,395.01 337.12,391.29 C339.66,388.64 342.66,387.17 345.91,386.74 L346.94,391.71 C344.28,392.25 342.08,393.19 340.62,394.73 C339.16,396.27 339.08,397.74 339.97,398.59 L340.02,398.64 C341.22,399.79 342.35,399.38 346.17,397 C350.67,394.23 353.98,393.42 357.16,396.45 L357.21,396.5 C360.83,399.96 360.22,404.66 356.46,408.59 C353.8,411.33 350.17,413.2 346.13,413.52 Z"/>
      <path fill="#B3DDF2" d="M363.15,243.54 C362.16,215.67 354.54,188.25 340.49,163.24 C338.23,159.22 335.82,155.33 333.28,151.54 C328.52,136.66 322.02,122.78 310.6,112.41 C299.5,102.34 285.15,97.28 269.9,93.98 C244.48,80.3 215.69,72.77 185.85,72.77 C181.75,72.77 177.66,72.93 173.58,73.22 C165.42,71.48 157.29,70.29 149.38,70.29 C142.02,70.29 135.4,71.27 129.14,73.3 C114.48,78.03 102.84,87.99 92.39,99.57 C64.18,117.08 41.86,141.72 27.35,171.02 C16.8,182.54 7.96,195.24 4.58,210.89 C1.21,226.51 4.02,241.68 8.86,256.49 C9.85,284.35 17.47,311.76 31.52,336.77 C33.77,340.78 36.19,344.68 38.72,348.47 C43.48,363.34 49.98,377.23 61.41,387.59 C72.51,397.66 86.86,402.71 102.09,406.01 C127.51,419.69 156.31,427.22 186.16,427.22 C186.16,427.22 186.17,427.22 186.17,427.22 C190.27,427.22 194.36,427.06 198.44,426.77 C206.6,428.51 214.72,429.69 222.63,429.69 C222.63,429.69 222.63,429.69 222.63,429.69 C229.99,429.69 236.61,428.71 242.87,426.68 C257.52,421.95 269.15,412 279.6,400.43 C307.83,382.91 330.16,358.26 344.67,328.94 C355.21,317.42 364.04,304.73 367.42,289.08 C370.78,273.5 367.99,258.34 363.15,243.54 Z"/>
      <path fill="#FFF" fill-rule="nonzero" d="M366.1,243.44 C365.1,215.11 357.35,187.23 343.06,161.81 C340.77,157.73 338.31,153.77 335.73,149.91 C330.89,134.79 324.28,120.67 312.67,110.13 C301.39,99.89 286.79,94.75 271.29,91.4 C245.45,77.49 216.17,69.84 185.84,69.84 C181.67,69.84 177.51,70 173.37,70.29 C165.07,68.52 156.81,67.32 148.76,67.32 C141.28,67.32 134.55,68.32 128.18,70.38 C113.28,75.19 101.45,85.32 90.82,97.09 C62.14,114.89 39.45,139.94 24.69,169.73 C13.97,181.44 4.98,194.35 1.55,210.27 C-1.87,226.15 0.98,241.57 5.9,256.63 C6.91,284.95 14.66,312.82 28.93,338.24 C31.22,342.32 33.68,346.28 36.25,350.13 C41.09,365.25 47.7,379.37 59.31,389.9 C70.59,400.13 85.18,405.27 100.67,408.63 C126.51,422.54 155.79,430.19 186.13,430.2 C186.13,430.2 186.14,430.2 186.14,430.2 C190.31,430.2 194.47,430.04 198.62,429.75 C206.91,431.52 215.17,432.72 223.21,432.72 C223.21,432.72 223.21,432.72 223.21,432.72 C230.69,432.72 237.42,431.72 243.79,429.66 C258.68,424.85 270.51,414.73 281.13,402.97 C309.83,385.16 332.53,360.1 347.29,330.29 C358.01,318.58 366.99,305.68 370.42,289.77 C373.86,273.89 371.01,258.48 366.1,243.44 Z M357.9,221.67 C357.67,221.09 357.43,220.52 357.2,219.94 C354.07,212.21 351.12,204.92 348.77,197.63 C346.34,190.09 344.3,181.93 342.32,174.04 C342.19,173.52 342.06,173.01 341.93,172.49 C349.76,188.19 355.1,204.74 357.9,221.67 Z M341.28,328.95 C336.37,334.15 331.14,339.14 325.96,344.08 C320.13,349.64 314.09,355.4 308.82,361.21 C307.42,362.76 306.03,364.35 304.65,365.97 C307.4,360.53 309.92,354.93 312.41,349.39 C315.86,341.71 319.13,334.46 322.9,327.81 C326.82,320.89 331.67,313.86 336.35,307.06 C345.91,293.18 355.71,278.94 359.69,263.35 C358.8,274.64 356.8,285.93 353.67,297.09 C350.54,308.2 346.38,318.86 341.28,328.95 Z M175.61,418.29 C167.58,416.04 159.28,413.7 151.11,411.94 C148.74,411.43 146.35,410.97 143.94,410.53 C150.12,410.23 156.35,409.65 162.44,409.08 C170.66,408.31 179.16,407.51 187.11,407.47 L187.82,407.47 C195.25,407.47 202.93,408.14 211.06,408.85 C219.3,409.57 227.82,410.31 236.19,410.31 C236.19,410.31 236.19,410.31 236.19,410.31 C245.42,410.31 253.41,409.36 260.5,407.4 C240.43,416.9 218.7,422.51 196.64,423.86 C189.77,422.26 182.77,420.3 175.61,418.29 Z M34.82,324.68 C32.82,316.7 30.76,308.45 28.27,300.75 C27.42,298.12 26.48,295.46 25.49,292.79 C28.87,298.1 32.53,303.32 36.16,308.49 C41,315.38 46.01,322.51 50.2,329.67 C54.4,336.82 58.18,344.67 61.83,352.26 C69.02,367.19 76.4,382.5 87.42,393.51 C69,380.87 52.95,364.67 40.4,345.55 C38.33,338.7 36.57,331.65 34.82,324.68 Z M30.73,171.05 C35.64,165.86 40.86,160.87 46.04,155.94 C51.87,150.38 57.91,144.62 63.18,138.81 C64.58,137.26 65.97,135.67 67.36,134.05 C64.61,139.49 62.09,145.09 59.59,150.64 C56.14,158.32 52.87,165.57 49.1,172.22 C45.18,179.14 40.33,186.17 35.65,192.97 C26.1,206.84 16.3,221.07 12.32,236.64 C13.21,225.36 15.21,214.08 18.34,202.94 C21.46,191.81 25.62,181.14 30.73,171.05 Z M196.39,81.72 C204.42,83.97 212.72,86.31 220.9,88.07 C223.27,88.58 225.68,89.04 228.09,89.49 C221.91,89.79 215.67,90.37 209.57,90.94 C201.35,91.71 192.85,92.51 184.9,92.55 L184.19,92.55 C176.76,92.55 169.08,91.88 160.95,91.17 C152.71,90.45 144.19,89.71 135.82,89.71 C126.6,89.71 118.62,90.66 111.52,92.61 C131.59,83.11 153.31,77.51 175.38,76.16 C182.23,77.75 189.23,79.71 196.39,81.72 Z M337.17,175.33 C339.17,183.31 341.23,191.56 343.72,199.26 C344.57,201.89 345.51,204.55 346.5,207.21 C343.12,201.9 339.46,196.69 335.83,191.52 C330.99,184.63 325.98,177.5 321.79,170.34 C317.6,163.19 313.82,155.34 310.16,147.75 C302.97,132.83 295.6,117.52 284.58,106.51 C302.99,119.15 319.03,135.35 331.58,154.46 C333.66,161.32 335.42,168.36 337.17,175.33 Z M272.12,396.82 C262.62,402.39 251.2,404.99 236.18,404.99 C236.18,404.99 236.18,404.99 236.18,404.99 C228.05,404.99 219.64,404.26 211.52,403.55 C203.63,402.86 195.48,402.15 187.82,402.15 L187.08,402.15 C178.89,402.2 170.28,403.01 161.94,403.79 C153.28,404.6 144.32,405.44 135.77,405.44 C121.6,405.44 110.84,403.08 101.92,398.02 C85.24,388.56 76.21,369.81 66.64,349.95 C62.94,342.26 59.11,334.32 54.8,326.98 C50.49,319.64 45.43,312.42 40.52,305.44 C27.85,287.4 15.89,270.36 15.77,251.19 C15.65,231.37 28.04,213.38 40.03,195.99 C44.78,189.1 49.69,181.97 53.73,174.85 C57.62,167.99 61.09,160.28 64.44,152.83 C73.1,133.58 82.06,113.67 99.88,103.21 C109.38,97.64 120.8,95.04 135.82,95.04 C143.96,95.04 152.36,95.77 160.49,96.48 C168.38,97.17 176.53,97.88 184.2,97.88 L184.94,97.88 C193.13,97.83 201.74,97.02 210.08,96.24 C218.75,95.43 227.7,94.59 236.25,94.59 C250.42,94.59 261.18,96.95 270.1,102.01 C286.78,111.47 295.81,130.23 305.38,150.09 C309.08,157.78 312.91,165.72 317.21,173.06 C321.51,180.4 326.58,187.62 331.49,194.6 C344.16,212.64 356.12,229.68 356.23,248.85 C356.35,268.66 343.96,286.65 331.98,304.04 C327.23,310.93 322.32,318.06 318.28,325.19 C314.39,332.06 310.92,339.76 307.57,347.21 C298.9,366.45 289.95,386.36 272.12,396.82 Z M309.1,114.06 C315.23,119.62 319.89,126.37 323.63,133.83 C313.21,121.5 301.25,110.71 288.11,101.67 C295.91,104.62 303.01,108.54 309.1,114.06 Z M248.11,87.35 C247.62,87.28 247.13,87.2 246.65,87.13 C238.48,85.89 230.04,84.61 222.03,82.88 C214.02,81.15 205.79,78.84 197.84,76.61 C197.31,76.46 196.79,76.31 196.26,76.17 C214.21,77.24 231.68,81.06 248.11,87.35 Z M129.82,75.42 C135.65,73.54 141.85,72.62 148.77,72.62 C150.41,72.62 152.05,72.68 153.7,72.78 C138.11,75.64 122.89,80.54 108.51,87.4 C114.96,82.17 121.97,77.96 129.82,75.42 Z M75.94,115.01 C75.57,115.47 75.21,115.93 74.84,116.4 C69.79,122.78 64.57,129.37 59.25,135.24 C54.11,140.91 48.41,146.34 42.38,152.09 C41.94,152.51 41.51,152.92 41.07,153.34 C50.65,138.92 62.38,126.01 75.94,115.01 Z M6.75,211.37 C8.56,202.97 12.11,195.39 16.73,188.35 C15.19,192.6 13.8,196.92 12.57,201.32 C9.33,212.87 7.26,224.57 6.34,236.27 C5.05,228.02 4.95,219.71 6.75,211.37 Z M14.1,278.38 C14.33,278.95 14.56,279.51 14.79,280.08 C17.92,287.8 20.87,295.1 23.22,302.38 C25.65,309.92 27.69,318.08 29.67,325.97 C29.8,326.49 29.93,327 30.06,327.52 C22.24,311.83 16.9,295.29 14.1,278.38 Z M62.9,385.95 C56.77,380.39 52.11,373.65 48.38,366.19 C58.79,378.51 70.75,389.3 83.88,398.33 C76.08,395.39 68.98,391.47 62.9,385.95 Z M123.87,412.66 C124.36,412.74 124.86,412.81 125.35,412.88 C133.52,414.12 141.96,415.4 149.98,417.13 C157.99,418.86 166.22,421.17 174.17,423.4 C174.7,423.55 175.23,423.7 175.76,423.85 C157.79,422.78 140.31,418.95 123.87,412.66 Z M242.18,424.58 C236.35,426.46 230.15,427.38 223.23,427.38 C221.6,427.38 219.96,427.32 218.31,427.22 C233.89,424.37 249.09,419.47 263.46,412.62 C257.02,417.85 250.02,422.05 242.18,424.58 Z M296.04,385.02 C296.41,384.55 296.78,384.08 297.15,383.61 C302.2,377.23 307.42,370.64 312.74,364.77 C317.88,359.1 323.58,353.67 329.61,347.92 C330.05,347.5 330.5,347.07 330.94,346.65 C321.35,361.09 309.62,374.01 296.04,385.02 Z M365.24,288.64 C363.43,297.03 359.89,304.6 355.28,311.63 C356.81,307.39 358.2,303.08 359.43,298.7 C362.67,287.16 364.74,275.48 365.66,263.79 C366.94,272.02 367.04,280.31 365.24,288.64 Z"/>
      <path fill="#FFF" d="M88.83,222.51 L88.83,165.92 L117.2,165.92 L117.2,221.93 C117.2,236.47 124.54,243.39 135.78,243.39 C147.01,243.39 154.36,236.77 154.36,222.65 L154.36,165.92 L182.73,165.92 L182.73,221.79 C182.73,254.33 164.15,268.59 135.5,268.59 C106.85,268.59 88.83,254.04 88.83,222.51 Z"/>
      <path fill="#515254" fill-rule="nonzero" d="M135.48,270.58 C104.1,270.58 86.82,253.51 86.82,222.5 L86.82,165.91 C86.82,164.81 87.72,163.91 88.82,163.91 L117.19,163.91 C118.29,163.91 119.19,164.81 119.19,165.91 L119.19,221.92 C119.19,234.65 124.92,241.38 135.77,241.38 C146.61,241.38 152.35,234.9 152.35,222.64 L152.35,165.91 C152.35,164.81 153.25,163.91 154.35,163.91 L182.72,163.91 C183.82,163.91 184.72,164.81 184.72,165.91 L184.72,221.78 C184.71,253.25 167.23,270.58 135.48,270.58 Z M90.83,167.91 L90.83,222.5 C90.83,251.34 106.27,266.58 135.49,266.58 C165.08,266.58 180.72,251.09 180.72,221.78 L180.72,167.91 L156.35,167.91 L156.35,222.64 C156.35,237.09 148.85,245.38 135.77,245.38 C122.69,245.38 115.19,236.83 115.19,221.92 L115.19,167.91 L90.83,167.91 Z"/>
      <polygon fill="#FFF" points="221.32 215.45 188.2 165.92 220.31 165.92 238.17 194.29 256.17 165.92 287.56 165.92 254.44 215.17 289 266.71 256.89 266.71 237.59 236.33 218.15 266.71 186.76 266.71"/>
      <path fill="#515254" fill-rule="nonzero" d="M289,268.71 L256.89,268.71 C256.21,268.71 255.57,268.36 255.2,267.78 L237.59,240.05 L219.84,267.79 C219.47,268.36 218.84,268.71 218.16,268.71 L186.77,268.71 C186.03,268.71 185.35,268.3 185,267.65 C184.65,267 184.69,266.21 185.11,265.59 L218.92,215.44 L186.55,167.02 C186.14,166.41 186.1,165.62 186.45,164.97 C186.8,164.32 187.48,163.91 188.21,163.91 L220.32,163.91 C221.01,163.91 221.65,164.26 222.01,164.84 L238.18,190.53 L254.48,164.84 C254.85,164.26 255.48,163.91 256.17,163.91 L287.56,163.91 C288.3,163.91 288.98,164.32 289.33,164.97 C289.68,165.62 289.64,166.41 289.22,167.03 L256.85,215.16 L290.66,265.6 C291.07,266.21 291.11,267 290.76,267.65 C290.41,268.3 289.74,268.71 289,268.71 Z M257.99,264.71 L285.25,264.71 L252.78,216.27 C252.33,215.6 252.33,214.71 252.78,214.04 L283.8,167.91 L257.26,167.91 L239.85,195.35 C239.48,195.93 238.85,196.28 238.16,196.28 C238.16,196.28 238.16,196.28 238.16,196.28 C237.47,196.28 236.84,195.93 236.47,195.35 L219.2,167.92 L191.94,167.92 L222.98,214.34 C223.43,215.02 223.43,215.9 222.98,216.57 L190.52,264.71 L217.06,264.71 L235.91,235.25 C236.28,234.68 236.91,234.33 237.59,234.33 C237.59,234.33 237.59,234.33 237.59,234.33 C238.27,234.33 238.91,234.68 239.28,235.26 L257.99,264.71 Z"/>
      <path fill="#515254" d="M289.57,279.92 L187.31,279.92 C185.1,279.92 183.31,281.71 183.31,283.92 C183.31,286.13 185.1,287.92 187.31,287.92 L289.57,287.92 C291.78,287.92 293.57,286.13 293.57,283.92 C293.57,281.71 291.78,279.92 289.57,279.92 Z"/>
      <polygon fill="#515254" points="218.13 380.21 198.01 387.84 144.99 367.71 165.09 360.06"/>
      <path fill="#FFF" fill-rule="nonzero" d="M198.01,389.65 C197.79,389.65 197.57,389.61 197.37,389.53 L144.35,369.39 C143.65,369.12 143.18,368.45 143.18,367.7 C143.18,366.95 143.64,366.28 144.35,366.01 L164.46,358.37 C164.87,358.21 165.33,358.21 165.74,358.37 L218.78,378.51 C219.48,378.78 219.95,379.45 219.95,380.2 C219.95,380.95 219.49,381.62 218.78,381.89 L198.66,389.53 C198.45,389.61 198.23,389.65 198.01,389.65 Z M150.08,367.71 L198.01,385.92 L213.04,380.22 L165.09,362 L150.08,367.71 Z"/>
      <polygon fill="#FFCD03" points="164.95 360.12 144.85 367.76 132.66 363.13 152.77 355.49"/>
      <path fill="#FFF" fill-rule="nonzero" d="M144.85,369.56 C144.63,369.56 144.41,369.52 144.21,369.44 L132.02,364.82 C131.32,364.55 130.85,363.88 130.85,363.13 C130.85,362.38 131.31,361.71 132.02,361.44 L152.13,353.8 C152.54,353.64 153,353.64 153.41,353.8 L165.58,358.43 C166.28,358.7 166.75,359.37 166.75,360.12 C166.75,360.87 166.29,361.54 165.58,361.81 L145.48,369.44 C145.28,369.53 145.06,369.56 144.85,369.56 Z M137.75,363.13 L144.84,365.82 L159.85,360.12 L152.77,357.43 L137.75,363.13 Z"/>
      <polygon fill="#515254" points="174.28 387.89 154.17 380.25 207.19 360.11 227.31 367.75"/>
      <path fill="#FFF" fill-rule="nonzero" d="M174.28,389.7 C174.06,389.7 173.84,389.66 173.64,389.58 L153.53,381.94 C152.83,381.67 152.36,381 152.36,380.25 C152.36,379.5 152.82,378.83 153.53,378.56 L206.55,358.42 C206.96,358.26 207.42,358.26 207.83,358.42 L227.95,366.06 C228.65,366.33 229.12,367 229.12,367.75 C229.12,368.5 228.66,369.17 227.95,369.44 L174.92,389.58 C174.72,389.66 174.5,389.7 174.28,389.7 Z M159.26,380.25 L174.28,385.96 L222.22,367.75 L207.19,362.05 L159.26,380.25 Z"/>
      <polygon fill="#FFCD03" points="227.15 367.69 207.06 360.06 219.23 355.43 239.34 363.07"/>
      <path fill="#FFF" fill-rule="nonzero" d="M227.15,369.5 C226.93,369.5 226.71,369.46 226.51,369.38 L206.41,361.74 C205.71,361.47 205.24,360.8 205.24,360.05 C205.24,359.3 205.7,358.63 206.41,358.36 L218.59,353.73 C219,353.57 219.46,353.57 219.87,353.73 L239.98,361.37 C240.68,361.64 241.15,362.31 241.15,363.06 C241.15,363.81 240.69,364.48 239.98,364.75 L227.79,369.38 C227.59,369.46 227.37,369.5 227.15,369.5 Z M212.15,360.05 L227.16,365.75 L234.25,363.06 L219.24,357.36 L212.15,360.05 Z"/>
      <path fill="#FFCD03" d="M163.95,312.24 C157.77,307.61 160.23,302.26 161.86,299.86 C159.43,303.09 153.54,311.73 155.32,317.48 C155.72,320.11 157.99,322.12 160.72,322.12 C163.74,322.12 166.19,319.67 166.19,316.65 C166.2,314.84 165.31,313.24 163.95,312.24 Z"/>
      <path fill="#FFF" fill-rule="nonzero" d="M160.73,323.94 C157.23,323.94 154.18,321.37 153.57,317.93 C151.72,311.67 157.06,303.26 160.42,298.78 C161.01,298 162.12,297.83 162.92,298.39 C163.72,298.96 163.92,300.06 163.37,300.88 C160.78,304.69 161.35,308.03 165.05,310.8 C166.91,312.16 168.02,314.36 168.02,316.66 C168.01,320.67 164.74,323.94 160.73,323.94 Z M157.02,316.86 C157.06,316.97 157.09,317.09 157.11,317.22 C157.38,318.99 158.93,320.33 160.72,320.33 C162.74,320.33 164.38,318.69 164.38,316.66 C164.38,315.49 163.83,314.41 162.87,313.71 C160.79,312.16 159.39,310.35 158.69,308.39 C157.3,311.3 156.33,314.45 157.02,316.86 Z"/>
      <path fill="#FFCD03" d="M216.93,294.92 C223.11,290.29 220.65,284.94 219.02,282.54 C221.45,285.77 227.34,294.41 225.56,300.16 C225.16,302.79 222.9,304.8 220.16,304.8 C217.14,304.8 214.69,302.35 214.69,299.33 C214.69,297.52 215.58,295.92 216.93,294.92 Z"/>
      <path fill="#FFF" fill-rule="nonzero" d="M220.16,306.61 C216.15,306.61 212.88,303.35 212.88,299.33 C212.88,297.03 213.99,294.83 215.86,293.46 C219.55,290.7 220.11,287.36 217.53,283.55 C216.98,282.74 217.18,281.63 217.98,281.06 C218.78,280.49 219.88,280.66 220.48,281.44 C223.84,285.91 229.19,294.33 227.33,300.59 C226.71,304.1 223.72,306.61 220.16,306.61 Z M222.19,291.06 C221.49,293.01 220.09,294.82 218.02,296.37 C217.05,297.08 216.5,298.16 216.5,299.34 C216.5,301.36 218.14,303 220.16,303 C221.98,303 223.5,301.69 223.78,299.89 C223.8,299.77 223.83,299.65 223.87,299.53 C224.56,297.13 223.59,293.97 222.19,291.06 Z"/>
      <path fill="#FFCD03" fill-rule="nonzero" d="M214.39,317.44 C210.71,311.68 206.11,306.59 201.39,302.06 C204.57,296.23 206.59,291.37 206.59,291.37 C214.94,271.66 205.73,248.91 186.02,240.56 C198.69,245.93 205.04,261.42 199.24,273.22 C197.14,277.5 192.4,283.42 187,289.52 C183.28,286.39 180.13,283.64 178.13,281.17 C171.6,273.11 177.13,261.58 177.13,261.58 C177.13,261.58 168.61,264.91 166.74,277.56 C165.98,282.68 170.13,291.76 176.02,301.37 C170.05,307.62 164.86,312.9 163.07,315.24 C158.58,321.1 153.84,329.31 153.84,338.22 C153.84,356.57 168.72,371.45 187.06,371.45 C205.41,371.45 220.29,356.58 220.29,338.22 C220.29,331.31 217.89,324.1 214.39,317.44 Z M187.06,348.97 C177.59,339.49 182.63,328.44 188.69,320.15 C194.89,330.1 196.84,339.2 187.06,348.97 Z"/>
      <path fill="#FFF" fill-rule="nonzero" d="M187.06,373.26 C167.74,373.26 152.03,357.54 152.03,338.23 C152.03,330.58 155.26,322.47 161.64,314.15 C163.11,312.23 166.62,308.58 171.06,303.95 C171.93,303.04 172.84,302.1 173.76,301.13 C167.2,290.2 164.24,282.19 164.96,277.3 C166.96,263.77 176.1,260.06 176.48,259.91 C177.17,259.64 177.96,259.82 178.46,260.36 C178.97,260.9 179.09,261.7 178.76,262.37 C178.71,262.47 173.81,272.98 179.53,280.04 C181.13,282.01 183.52,284.21 186.81,287 C192.42,280.57 195.97,275.8 197.62,272.43 C200.08,267.42 200.26,261.52 198.14,255.81 C195.85,249.65 191.17,244.7 185.32,242.23 C184.4,241.84 183.97,240.78 184.36,239.86 C184.75,238.94 185.81,238.51 186.73,238.9 C186.74,238.9 186.75,238.91 186.75,238.91 C196.72,243.14 204.44,250.99 208.5,261.03 C212.57,271.07 212.48,282.1 208.25,292.08 C208.18,292.26 206.43,296.43 203.62,301.72 C208.77,306.77 212.8,311.61 215.9,316.47 C215.93,316.51 215.95,316.56 215.98,316.6 C220.03,324.32 222.08,331.59 222.08,338.23 C222.1,357.54 206.38,373.26 187.06,373.26 Z M173.71,266.31 C171.63,268.51 169.38,272.13 168.53,277.83 C167.93,281.91 171.13,289.93 177.56,300.43 C177.99,301.13 177.89,302.03 177.33,302.62 C176.06,303.95 174.83,305.23 173.66,306.45 C169.47,310.81 165.86,314.58 164.51,316.34 C158.63,324.02 155.65,331.39 155.65,338.23 C155.65,355.55 169.74,369.65 187.07,369.65 C204.39,369.65 218.49,355.56 218.49,338.23 C218.49,332.21 216.59,325.52 212.84,318.35 C209.7,313.45 205.55,308.54 200.15,303.37 C199.56,302.81 199.42,301.92 199.82,301.2 C202.92,295.52 204.92,290.73 204.94,290.68 C208.79,281.58 208.88,271.54 205.17,262.39 C204.35,260.35 203.36,258.42 202.22,256.59 C203.95,262.6 203.5,268.71 200.89,274.02 C198.98,277.91 194.89,283.38 188.37,290.72 C187.72,291.45 186.6,291.54 185.85,290.9 C181.7,287.42 178.73,284.76 176.74,282.31 C172.51,277.11 172.75,270.75 173.71,266.31 Z M187.06,350.78 C186.58,350.78 186.12,350.59 185.78,350.25 C177.6,342.07 178.09,331.58 187.23,319.09 C187.58,318.61 188.18,318.32 188.76,318.35 C189.36,318.37 189.91,318.69 190.23,319.2 C195.77,328.08 199.87,338.72 188.34,350.25 C188,350.59 187.54,350.78 187.06,350.78 Z M188.57,323.5 C182.53,332.71 182.04,340.21 187.08,346.32 C194.05,338.48 192.97,331.37 188.57,323.5 Z"/>
      <path fill="#FFCD03" d="M178.81,245.13 C172.63,240.5 175.09,235.15 176.72,232.75 C174.29,235.98 168.4,244.62 170.18,250.37 C170.58,253 172.84,255.01 175.58,255.01 C178.6,255.01 181.05,252.56 181.05,249.54 C181.06,247.73 180.17,246.12 178.81,245.13 Z"/>
      <path fill="#FFF" fill-rule="nonzero" d="M175.59,256.82 C172.03,256.82 169.04,254.3 168.43,250.81 C166.57,244.54 171.92,236.13 175.28,231.66 C175.87,230.88 176.98,230.71 177.78,231.28 C178.58,231.85 178.78,232.95 178.23,233.77 C175.65,237.58 176.21,240.92 179.91,243.69 C181.76,245.05 182.88,247.24 182.88,249.55 C182.86,253.55 179.6,256.82 175.59,256.82 Z M171.88,249.74 C171.92,249.85 171.95,249.97 171.97,250.1 C172.24,251.87 173.79,253.21 175.58,253.21 C177.6,253.21 179.24,251.57 179.24,249.55 C179.24,248.38 178.69,247.3 177.73,246.6 C175.66,245.05 174.26,243.24 173.56,241.29 C172.06,244.44 171.24,247.51 171.88,249.74 Z"/>
      <path fill="#515254" d="M181.06,143.33 L85.8,143.33 C83.59,143.33 81.8,145.12 81.8,147.33 C81.8,149.54 83.59,151.33 85.8,151.33 L181.05,151.33 C183.26,151.33 185.05,149.54 185.05,147.33 C185.05,145.12 183.27,143.33 181.06,143.33 Z"/>
    </g>
    <g transform="translate(383 238)">
      <path fill="#FF931E" d="M156.74,139 C129.62,119.15 102.49,130.22 75.37,140.1 C50.25,149.25 25.12,157.39 0,139 C0,117.76 0,96.52 0,75.28 C0,54.04 0,32.8 0,11.56 C25.12,29.95 50.25,21.81 75.37,12.66 C102.49,2.78 129.62,-8.28 156.74,11.56 C156.74,32.8 156.74,54.04 156.74,75.28 C156.74,96.52 156.74,117.76 156.74,139 Z"/>
      <g fill="#FFF" stroke="#FFF" stroke-width="1.961" transform="translate(21 25)">
        <path fill-rule="nonzero" d="M24.92 48.62C24.54 48.4 24.21 48.13 23.93 47.85 23.79 47.69 23.65 47.43 23.65 47.19 23.65 46.95 23.74 46.61 23.93 46.44 24.07 46.28 24.45 46.07 24.64 46.13 25.11 46.24 25.58 46.43 26 46.68 27.88 47.69 30.71 47.35 33.15 44.49 33.71 43.87 34.19 43.18 34.61 42.5 36.21 39.85 37.29 37.08 38 34.28 38.09 33.97 38.05 33.7 38.09 33.45 38.09 32.98 37.48 32.6 37.01 32.78 36.63 32.89 36.3 33.08 35.97 33.27 35.59 33.47 35.31 33.74 34.93 33.94 34.69 34.05 34.41 34.04 34.18 34 33.94 33.92 33.8 33.39 33.9 33.09 34.09 32.47 34.42 32.01 34.94 31.63 35.46 31.3 35.98 31.06 36.49 30.82 37.01 30.58 37.57 30.36 38.09 30.11 38.56 29.88 38.89 29.49 39.13 29 39.27 28.63 39.41 28.25 39.46 27.91 39.88 25.57 40.31 23.22 40.73 20.88 40.82 20.52 40.82 20.14 40.82 19.81 40.77 19.31 40.35 18.88 39.83 18.9 39.58 18.92 39.33 18.93 39.08 18.94 36.59 19.42 34.09 19.89 31.55 20.66 30.47 20.97 29.43 21.35 28.35 21.78 27.83 21.99 27.32 22.28 26.84 22.56 26.13 23.03 25.66 23.63 25.62 24.44 25.57 24.82 25.57 25.15 25.57 25.53 25.52 25.87 25.15 26.31 24.86 26.41 24.48 26.48 24.15 26.39 23.92 26.15 23.21 25.28 23.31 24.23 23.78 23.11 24.2 22.19 24.86 21.47 25.71 20.98 26.56 20.49 27.4 20.04 28.3 19.71 29.62 19.24 30.94 18.83 32.3 18.39 33.38 18.07 34.47 17.78 35.5 17.58 35.59 17.55 35.64 17.59 35.74 17.56 36.92 17.32 38.09 17.11 39.27 16.8 39.69 16.72 40.16 16.57 40.59 16.44 41.06 16.24 41.49 15.92 41.77 15.45 42.15 14.81 42.43 14.2 42.81 13.56 43.94 11.68 45.45 10.29 47.33 9.35 48.7 8.69 50.01 8.55 51.09 9.05 52.74 9.87 52.64 12.35 50.9 14.25 50.38 14.77 49.77 15.26 49.21 15.61 48.41 16.08 47.61 16.41 46.81 16.78 46.2 17.04 45.54 17.22 44.93 17.47 43.71 17.98 43.19 18.57 42.95 19.92 42.43 22.44 42.01 24.98 41.58 27.52 41.53 27.77 41.53 28.05 41.58 28.32 41.58 28.6 41.91 28.97 42.19 28.87 42.43 28.84 43.13 28.61 43.32 28.45 43.84 27.9 43.89 27.37 44.36 26.84 45.3 25.82 46.62 25.83 46.95 26.85 47.19 27.61 47.04 28.42 46.43 29.29 45.71 30.2 44.99 31.1 44.26 32 44.02 32.27 43.46 32.45 43.22 32.34 42.8 32.15 43.31 31.6 42.89 31.41 42.61 31.27 41.01 31.97 40.77 32.38 40.58 32.72 40.39 33.11 40.25 33.44 39.97 34.33 39.73 35.15 39.5 35.98 38.7 38.44 37.71 40.86 36.35 43.13 35.5 44.55 34.51 45.86 33.24 46.95 30.61 49.31 27.37 49.94 24.92 48.62zM48.92 13.61C49.44 13.19 49.86 12.71 49.96 12.11 50.01 11.53 49.58 11.02 48.92 11.06 48.68 11.05 48.4 11.05 48.17 11.14 46.85 11.6 45.72 12.46 44.88 13.78 44.79 13.95 44.69 14.13 44.65 14.33 44.51 14.66 44.7 14.97 44.93 15.08 45.02 15.14 45.21 15.13 45.4 15.06 45.64 15.07 45.87 15.04 46.11 14.96 47.04 14.74 48.07 14.28 48.92 13.61zM46.57 35.74C46.57 35.6 46.57 35.32 46.66 35.05 47.27 32.39 47.88 29.73 48.64 27.07 49.16 25.24 50.33 23.55 51.84 22.12 53.44 20.56 55.13 19.56 56.97 19.36 57.25 19.3 57.49 19.31 57.77 19.3 58.38 19.27 58.99 18.99 59.56 18.46 59.8 18.23 60.03 18.05 60.27 17.87 60.65 17.59 61.16 17.83 61.26 18.22 61.4 18.83 61.21 19.46 61.07 20.12 60.46 22.7 59.8 25.29 59.19 27.82 59 28.69 58.77 29.53 58.58 30.4 58.49 30.95 58.44 31.53 58.44 32.05 58.49 33.35 59.52 33.96 60.89 33.56 61.64 33.33 62.3 32.95 62.96 32.39 64 31.59 65.22 29.84 65.83 28.73 66.19 28.08 66.55 27.44 66.91 26.8 67.1 26.45 67.57 26.19 67.9 26.22 68.18 26.26 68.42 26.61 68.37 26.95 68.32 27.25 68.32 27.53 68.23 27.8 67.15 30.62 64.84 33.59 62.21 35.06 60.85 35.83 59.53 36.13 58.3 35.87 57.92 35.76 57.55 35.64 57.17 35.53 56.75 35.45 56.32 35.6 55.9 35.95 55.24 36.47 54.58 37.09 53.97 37.6 53.03 38.36 52.09 38.89 51.1 39.25 48.27 40.1 46.43 38.71 46.57 35.74zM52.97 36.1C54.62 34.8 55.79 33.19 56.36 31.29 56.97 29 57.49 26.74 58.01 24.48 58.1 24.12 58.1 23.74 58.1 23.65 58.15 21.99 57.07 21.25 55.61 21.74 54.86 22.02 54.2 22.4 53.54 22.92 52.17 24.08 51.14 25.44 50.62 26.98 49.73 29.65 49.16 32.25 48.64 34.88 48.59 35.09 48.59 35.27 48.59 35.46 48.59 36.78 49.58 37.51 50.9 37.18 51.61 36.98 52.32 36.63 52.97 36.1z"/>
        <path d="M69.41,32.18 C68,32.1 67.06,31.39 66.73,30 C66.59,29.34 66.64,28.62 66.68,27.9 C66.73,27.27 66.87,26.61 67.06,25.93 C68.61,19.5 70.21,13.08 71.77,6.69 C71.96,5.92 72.29,5.2 72.57,4.45 C72.66,4.14 73.18,3.78 73.51,3.77 C73.79,3.77 74.12,4.09 74.12,4.38 C74.07,4.77 74.07,5.15 73.98,5.51 C73.84,6.35 73.6,7.18 73.42,8.04 C72.06,13.47 70.74,18.94 69.37,24.39 C69.18,25.16 68.99,25.93 68.85,26.68 C68.76,27.14 68.66,27.59 68.66,28.06 C68.66,29.52 69.7,30.24 71.15,29.85 C72.18,29.55 73.08,28.93 73.93,28.15 C74.73,27.38 75.34,26.53 75.81,25.68 C76.14,25.11 76.42,24.6 76.75,24.08 C76.94,23.79 77.5,23.48 77.74,23.6 C77.93,23.73 78.07,23.93 78.12,24.15 C78.21,24.41 78.17,24.7 78.07,24.96 C77.13,27.91 74.35,30.76 71.53,31.8 C70.82,32.08 70.12,32.22 69.41,32.18 Z"/>
        <path d="M79.32,29.08 C77.91,28.91 76.97,28.16 76.64,26.75 C76.5,26.09 76.55,25.37 76.59,24.65 C76.64,24.02 76.78,23.37 76.97,22.7 C78.52,16.36 80.12,10.02 81.68,3.74 C81.87,2.98 82.2,2.29 82.48,1.56 C82.57,1.25 83.09,0.94 83.42,0.95 C83.7,0.97 84.03,1.32 84.03,1.6 C83.98,1.99 83.98,2.36 83.89,2.72 C83.75,3.55 83.51,4.36 83.33,5.21 C81.97,10.53 80.65,15.92 79.28,21.29 C79.09,22.05 78.9,22.81 78.76,23.55 C78.67,24 78.57,24.45 78.57,24.92 C78.57,26.38 79.61,27.16 81.06,26.87 C82.09,26.64 82.99,26.09 83.84,25.37 C84.64,24.66 85.25,23.86 85.72,23.05 C86.05,22.51 86.33,22.02 86.66,21.53 C86.85,21.25 87.41,21 87.65,21.14 C87.84,21.29 87.98,21.5 88.03,21.72 C88.12,21.98 88.08,22.28 87.98,22.53 C87.04,25.39 84.26,28 81.44,28.85 C80.73,29.06 80.03,29.16 79.32,29.08 Z"/>
        <path fill-rule="nonzero" d="M.74 91.16C.36 88.58.74 86.32 1.96 84.34 2.76 82.93 3.89 81.9 5.44 81.23 6.01 81.01 6.57 80.79 7.09 80.5 7.37 80.29 7.51 79.97 7.51 79.59 7.51 79.4 7.51 79.21 7.42 79.06 7.04 77.81 6.71 76.6 6.57 75.31 6.48 74.64 6.15 74.09 5.68 73.57 5.21 73.09 4.74 72.61 4.32 72.13 3.24 70.85 2.44 69.44 2.06 67.86 2.01 67.52 2.01 67.1 2.11 66.79 2.2 66.62 2.44 66.42 2.67 66.37 2.86 66.35 3.23 66.51 3.38 66.67 3.66 66.95 3.8 67.3 3.99 67.66 4.37 68.42 4.7 69.22 5.12 69.93 5.36 70.34 5.73 70.66 6.11 70.98 6.39 71.25 7.1 71.26 7.33 70.95 7.75 70.42 8.13 69.83 8.55 69.3 9.63 67.86 10.95 66.73 12.6 65.92 13.92 65.3 15.33 64.92 16.79 64.9 17.87 64.87 18.91 65.05 19.85 65.51 22.11 66.6 22.63 69 21.12 71.33 20.41 72.41 19.52 73.27 18.53 73.98 16.88 75.13 15.05 75.72 13.17 75.79 12.79 75.8 12.42 75.8 12.04 75.8 11.29 75.75 10.72 75.74 10.2 75.72 9.26 75.64 8.79 76.36 9.07 77.32 9.54 78.9 10.48 80.07 11.85 80.88 12.41 81.17 13.03 81.35 13.59 81.62 13.92 81.75 14.2 81.93 14.53 82.06 14.81 82.24 15 82.75 14.81 82.99 14.67 83.23 14.43 83.43 14.24 83.53 13.91 83.59 13.49 83.65 13.16 83.56 12.39 83.37 11.62 83.16 10.85 82.94 8.07 82.18 5.86 82.88 4.26 84.92 2.57 86.98 2.14 89.48 3.08 92.41 3.83 94.69 5.29 96.38 7.55 97.17 8.07 97.35 8.59 97.53 9.15 97.6 11.41 97.95 13.62 97.64 15.74 96.68 17.15 96.04 18.42 95.07 19.5 93.82 19.92 93.3 20.35 92.83 20.82 92.35 21.06 92.13 21.62 92.06 21.81 92.31 21.95 92.48 22.09 92.74 22.05 92.98 22.05 93.31 21.91 93.71 21.72 94.01 20.97 95.24 19.98 96.31 18.8 97.14 15.32 99.7 11.46 100.44 7.46 99.28 3.8 98.22 1.35 95 .74 91.16zM17.96 71.89C18.57 71.46 19.09 70.89 19.47 70.24 20.08 69.18 19.85 68.04 18.86 67.53 18.48 67.33 18.06 67.18 17.64 67.08 16.84 66.91 16.04 66.96 15.24 67.19 13.55 67.6 12.09 68.45 10.96 69.75 10.49 70.31 10.11 70.86 9.74 71.46 9.22 72.38 9.6 73.34 10.59 73.56 11.2 73.72 11.81 73.82 12.24 73.86 14.43 73.8 16.32 73.26 17.96 71.89zM34.53 92.86C34.11 92.74 33.78 92.59 33.35 92.47 32.83 92.32 32.32 92.46 31.8 92.87 31.24 93.25 30.72 93.7 30.15 94.07 29.07 94.84 27.89 95.24 26.72 95.33 24.46 95.49 22.86 93.94 22.77 91.65 22.77 91.13 22.82 90.56 22.96 90.02 23.48 87.78 24.04 85.52 24.7 83.24 25.22 81.36 26.3 79.81 27.85 78.44 29.5 77.01 31.29 76.17 33.22 76.13 33.6 76.13 33.92 76.18 34.26 76.14 35.11 76.1 35.67 75.61 35.91 74.74 36.19 73.91 36.38 73.05 36.62 72.23 37.09 70.37 37.56 68.5 38.03 66.64 38.17 66.17 38.41 65.68 38.59 65.25 38.78 64.96 39.3 64.61 39.58 64.71 39.77 64.84 39.96 64.97 40.05 65.18 40.14 65.39 40.14 65.67 40.05 65.98 39.91 66.82 39.72 67.64 39.49 68.51 38.08 74.31 36.62 80.06 35.21 85.82 34.97 86.78 34.74 87.69 34.6 88.62 34.36 90.14 35.31 91.07 36.81 90.77 38.41 90.49 39.82 88.64 41 87.19 41.38 86.69 41.66 86.13 41.99 85.6 42.23 85.29 42.46 84.88 42.74 84.6 42.93 84.4 43.26 84.24 43.49 84.26 43.68 84.29 43.87 84.46 43.96 84.67 44.01 84.89 44.01 85.22 43.91 85.49 43.72 86.02 43.49 86.62 43.16 87.15 41.7 89.51 39.73 91.93 37.84 92.59 36.36 93.01 35.42 93.09 34.53 92.86zM29.58 92.17C30.99 91.14 32.07 89.78 32.54 88.16 33.2 85.83 33.72 83.52 34.28 81.25 34.33 80.95 34.33 80.67 34.37 80.42 34.42 78.85 33.24 78 31.83 78.35 30.84 78.64 30.09 79.01 29.38 79.59 28.16 80.52 27.22 81.7 26.79 83.1 26.08 85.5 25.52 87.96 24.86 90.38 24.81 90.58 24.86 90.76 24.86 90.94 24.81 92.45 25.94 93.44 27.54 93.11 28.27 92.99 28.97 92.64 29.58 92.17z"/>
        <path fill-rule="nonzero" d="M42.09,86.17 C42.14,85.54 42.28,84.84 42.42,84.23 C43.22,80.82 44.07,77.43 44.91,74.04 C45.05,73.47 45.33,72.91 45.62,72.34 C45.76,71.96 46.33,71.63 46.56,71.78 C46.7,71.92 46.94,72.03 46.98,72.25 C47.17,72.8 46.98,73.47 46.79,74.15 C46.13,76.9 45.47,79.65 44.81,82.4 C44.62,83.03 44.48,83.69 44.34,84.35 C44.25,84.76 44.15,85.12 44.15,85.5 C43.96,87.35 45.28,88.23 47.11,87.45 C48.62,86.79 49.84,85.6 50.78,84.13 C51.2,83.51 51.49,82.84 51.86,82.19 C52,81.9 52.24,81.68 52.42,81.42 C52.7,81.04 53.46,81 53.5,81.36 C53.59,81.66 53.64,82.06 53.55,82.38 C52.89,84.92 50.02,88.56 46.73,89.66 C43.83,90.65 41.9,89.15 42.09,86.17 Z M46.33,69.5 C46.28,68.67 46.47,67.9 46.94,67.08 C47.13,66.73 47.55,66.44 47.88,66.42 C48.16,66.42 48.44,66.74 48.49,67 C48.49,67.8 48.3,68.57 47.83,69.4 C47.78,69.51 47.74,69.62 47.64,69.65 C47.5,69.79 47.31,69.91 47.17,70 C46.8,70.19 46.33,69.88 46.33,69.5 Z"/>
        <path d="M51.88,82.74 C51.93,82.16 52.02,81.61 52.16,81.04 C53.62,75.06 55.08,69.11 56.58,63.1 C56.67,62.55 56.96,61.97 57.29,61.43 C57.38,61.21 57.76,60.98 58,60.94 C58.24,60.9 58.47,61.05 58.56,61.25 C58.7,61.39 58.7,61.72 58.65,61.97 C58.6,62.5 58.46,63.07 58.32,63.69 C58.27,64.13 58.18,64.59 58.13,65.08 C58.04,65.63 58.46,66.04 58.98,65.95 C59.31,65.92 59.69,65.79 60.02,65.76 C60.4,65.67 60.73,65.6 61.06,65.57 C61.39,65.5 61.67,65.82 61.72,66.13 C61.72,66.41 61.44,66.99 61.11,67.15 C60.69,67.35 60.26,67.6 59.79,67.82 C59.37,68.02 58.9,68.19 58.47,68.39 C57.67,68.73 57.15,69.3 56.82,70.17 C56.73,70.46 56.63,70.74 56.54,71.03 C55.79,74.22 54.99,77.48 54.19,80.69 C54.09,81.15 54,81.65 54,82.08 C53.81,83.98 55.13,84.78 56.96,83.92 C58.37,83.31 59.5,82.19 60.44,80.81 C60.86,80.23 61.15,79.56 61.52,78.91 C61.76,78.54 61.94,78.19 62.23,77.9 C62.42,77.69 62.75,77.57 62.98,77.58 C63.17,77.56 63.36,77.77 63.45,77.98 C63.5,78.2 63.5,78.48 63.4,78.75 C62.46,81.91 59.64,85.01 56.67,86.14 C53.67,87.27 51.65,85.84 51.88,82.74 Z"/>
        <path fill-rule="nonzero" d="M61.78,79.18 C61.83,78.55 61.97,77.84 62.11,77.23 C62.91,73.79 63.76,70.38 64.6,66.97 C64.74,66.4 65.02,65.83 65.31,65.26 C65.45,64.88 66.02,64.54 66.25,64.69 C66.39,64.83 66.63,64.94 66.67,65.15 C66.86,65.7 66.67,66.37 66.48,67.05 C65.82,69.81 65.16,72.57 64.5,75.33 C64.31,75.96 64.17,76.62 64.03,77.29 C63.94,77.7 63.84,78.06 63.84,78.44 C63.65,80.3 64.97,81.14 66.8,80.35 C68.31,79.68 69.53,78.51 70.47,77.07 C70.89,76.46 71.18,75.8 71.55,75.16 C71.69,74.88 71.93,74.66 72.11,74.41 C72.39,74.04 73.15,74.03 73.19,74.39 C73.28,74.69 73.33,75.1 73.24,75.41 C72.58,77.92 69.71,81.44 66.42,82.56 C63.52,83.58 61.59,82.17 61.78,79.18 Z M66.01,62.42 C65.96,61.59 66.15,60.82 66.62,59.99 C66.81,59.64 67.23,59.35 67.56,59.33 C67.84,59.33 68.12,59.65 68.17,59.92 C68.17,60.72 67.98,61.49 67.51,62.31 C67.46,62.42 67.42,62.53 67.32,62.56 C67.18,62.7 66.99,62.82 66.85,62.91 C66.49,63.1 66.01,62.8 66.01,62.42 Z"/>
        <path fill-rule="nonzero" d="M76.74,79.31 C74.15,79.94 71.94,79.69 71.47,77.07 C71.38,76.3 71.42,75.44 71.61,74.62 C72.17,72.36 72.69,70.08 73.3,67.81 C73.96,65.44 75.37,63.43 77.39,61.84 C78.66,60.85 79.93,60.26 81.3,60.14 C83.42,59.91 84.88,61.14 85.06,63.21 C85.11,63.91 85.06,64.62 84.87,65.37 C84.21,68.11 83.69,70.87 82.66,73.62 C82.58,73.91 82.5,74.19 82.42,74.48 C82.37,74.77 82.66,75.22 82.94,75.2 C83.32,75.15 83.65,75.12 84.02,75.03 C85.95,74.33 87.6,73.1 88.87,71.36 C89.29,70.81 89.67,70.27 90.09,69.77 C90.23,69.6 90.61,69.49 90.84,69.55 C91.03,69.61 91.26,69.86 91.31,70.04 C91.36,70.36 91.31,70.79 91.17,71.1 C90.79,72.1 90.14,72.96 89.38,73.71 C86.65,76.46 82.93,77.64 79.4,78.58 C78.53,78.83 77.64,79.04 76.74,79.31 Z M78.48,76.03 C79.85,74.84 80.83,73.45 81.3,71.77 C81.87,69.64 82.38,67.54 82.9,65.38 C82.99,65.03 82.99,64.65 82.99,64.32 C82.99,62.86 81.95,62.03 80.5,62.33 C79.56,62.58 78.71,63.06 77.91,63.76 C76.55,64.96 75.6,66.43 75.18,68.11 C74.66,70.17 74.14,72.23 73.63,74.29 C73.58,74.63 73.54,75.03 73.54,75.4 C73.45,76.98 74.58,77.79 76.18,77.31 C76.98,77.12 77.78,76.65 78.48,76.03 Z"/>
        <path d="M88.68,75.4 C88.68,75.12 88.68,74.83 88.73,74.59 C90.05,69.4 91.36,63.81 92.68,58.73 C92.78,58.43 92.92,58.18 93.06,57.92 C93.2,57.57 93.86,57.2 94.19,57.21 C94.44,57.27 94.69,57.34 94.94,57.4 C95.46,57.53 95.98,57.52 96.54,57.38 C96.89,57.29 97.23,57.19 97.58,57.11 C98.05,57.03 98.47,56.95 98.94,56.97 C101.62,56.91 103.41,58.9 103.36,62.04 C103.22,62.68 103.08,63.32 102.94,63.97 C102.56,65.43 102.14,66.93 101.81,68.4 C101.62,69.01 101.53,69.63 101.53,70.24 C101.53,71.47 102.47,72.43 103.69,72.64 C104.4,72.75 105.1,72.72 105.81,72.48 C106.89,72.12 107.79,71.44 108.49,70.57 C108.85,70.09 109.21,69.61 109.57,69.14 C109.76,68.93 110.28,68.85 110.56,69.03 C110.84,69.21 111.08,69.67 111.03,69.99 C110.98,70.22 110.98,70.5 110.89,70.77 C109.81,73.06 107.88,74.31 105.24,74.71 C104.68,74.83 104.02,74.81 103.41,74.71 C101.2,74.45 99.6,72.9 99.5,70.69 C99.45,69.89 99.55,69.04 99.74,68.28 C100.07,66.76 100.49,65.28 100.87,63.82 C101.06,63.11 101.2,62.4 101.25,61.69 C101.39,60.14 100.21,58.93 98.61,59.07 C98.09,59.1 97.53,59.24 97.06,59.47 C95.46,60.17 94.33,61.44 93.67,63.08 C93.39,63.87 93.2,64.7 92.96,65.48 C92.3,68.11 91.64,71.13 90.94,73.74 C90.75,74.38 90.47,74.99 90.23,75.6 C90.09,75.91 89.62,76.13 89.29,76.1 C89.01,76.09 88.68,75.73 88.68,75.4 Z"/>
      </g>
    </g>
  </g>
</svg>
