<?xml version="1.0" encoding="utf-8"?>
<!-- Generator: Adobe Illustrator 18.1.0, SVG Export Plug-In . SVG Version: 6.00 Build 0)  -->
<!DOCTYPE svg PUBLIC "-//W3C//DTD SVG 1.1//EN" "http://www.w3.org/Graphics/SVG/1.1/DTD/svg11.dtd">
<svg version="1.1" id="Layer_1" xmlns="http://www.w3.org/2000/svg" xmlns:xlink="http://www.w3.org/1999/xlink" x="0px" y="0px"
	 viewBox="0 0 192 192" enable-background="new 0 0 192 192" xml:space="preserve">
<path fill="#67A8C8" d="M53,127h1.6l1.4,4.7l1.5-4.7h1.3l1.5,4.7l1.4-4.7h1.6l-2.4,6.9h-1.3l-1.6-4.5l-1.6,4.5h-1.3L53,127z"/>
<path fill="#67A8C8" d="M67.2,130.5L67.2,130.5c0-2,1.5-3.6,3.7-3.6s3.7,1.6,3.7,3.5v0c0,2-1.5,3.6-3.7,3.6
	C68.7,134,67.2,132.4,67.2,130.5z M72.9,130.5L72.9,130.5c0-1.2-0.9-2.2-2.1-2.2s-2.1,1-2.1,2.1v0c0,1.2,0.9,2.2,2.1,2.2
	C72.1,132.6,72.9,131.7,72.9,130.5z"/>
<path fill="#67A8C8" d="M78.8,127H82c0.9,0,1.6,0.2,2,0.7c0.4,0.4,0.6,0.9,0.6,1.6v0c0,1.1-0.6,1.8-1.5,2.1l1.7,2.5H83l-1.5-2.2h0
	h-1.2v2.2h-1.5V127z M81.9,130.4c0.7,0,1.2-0.4,1.2-1v0c0-0.6-0.5-1-1.2-1h-1.5v2H81.9z"/>
<path fill="#67A8C8" d="M88.9,127h1.5v3l2.8-3H95l-2.8,2.9l2.9,4h-1.8l-2.1-2.9l-0.8,0.8v2.1h-1.5V127z"/>
<path fill="#67A8C8" d="M98.6,132.9l0.9-1.1c0.6,0.5,1.3,0.8,2.1,0.8c0.6,0,1-0.2,1-0.6v0c0-0.4-0.2-0.6-1.4-0.9
	c-1.4-0.4-2.3-0.7-2.3-2.1v0c0-1.3,1-2.1,2.4-2.1c1,0,1.9,0.3,2.6,0.9l-0.8,1.1c-0.6-0.4-1.2-0.7-1.8-0.7c-0.6,0-0.9,0.3-0.9,0.6v0
	c0,0.5,0.3,0.6,1.5,0.9c1.4,0.4,2.2,0.9,2.2,2.1v0c0,1.4-1,2.1-2.5,2.1C100.4,134,99.4,133.6,98.6,132.9z"/>
<path fill="#67A8C8" d="M108.3,127h1.5v2.7h2.8V127h1.5v6.9h-1.5v-2.8h-2.8v2.8h-1.5V127z"/>
<path fill="#67A8C8" d="M118.4,130.5L118.4,130.5c0-2,1.5-3.6,3.7-3.6c2.1,0,3.7,1.6,3.7,3.5v0c0,2-1.5,3.6-3.7,3.6
	C119.9,134,118.4,132.4,118.4,130.5z M124.2,130.5L124.2,130.5c0-1.2-0.9-2.2-2.1-2.2s-2.1,1-2.1,2.1v0c0,1.2,0.9,2.2,2.1,2.2
	C123.3,132.6,124.2,131.7,124.2,130.5z"/>
<path fill="#67A8C8" d="M130.1,127h2.8c1.6,0,2.6,1,2.6,2.4v0c0,1.6-1.2,2.4-2.8,2.4h-1.2v2.1h-1.5V127z M132.8,130.5
	c0.8,0,1.2-0.5,1.2-1v0c0-0.7-0.5-1-1.2-1h-1.2v2.1H132.8z"/>
<path fill="#515254" d="M0,84h5.6l4.9,16.2l5.4-16.2h4.5l5.4,16.2L30.7,84h5.5l-8.1,24h-4.6l-5.4-15.6L12.7,108H8.1L0,84z"/>
<path fill="#515254" d="M35.9,96L35.9,96c0-6.9,5.4-12.4,12.7-12.4c7.4,0,12.6,5.5,12.6,12.3v0.1c0,6.8-5.4,12.3-12.7,12.3
	S35.9,102.8,35.9,96z M55.7,96L55.7,96c0-4.2-3-7.6-7.2-7.6c-4.2,0-7.2,3.3-7.2,7.4v0.1c0,4.1,3,7.5,7.2,7.5
	C52.8,103.4,55.7,100.1,55.7,96z"/>
<path fill="#515254" d="M62.7,84h10.9c3,0,5.4,0.9,7,2.4c1.3,1.3,2,3.2,2,5.5v0.1c0,3.9-2.1,6.3-5.1,7.4l5.8,8.5h-6.1l-5.1-7.6H72
	H68v7.6h-5.2V84z M73.3,95.6c2.6,0,4-1.4,4-3.4v-0.1c0-2.2-1.6-3.4-4.1-3.4H68v6.9H73.3z"/>
<path fill="#515254" d="M84.2,84h5.2v10.4L99.1,84h6.3l-9.7,10.1l10.2,13.7h-6.3l-7.4-10.2l-2.8,2.9v7.3h-5.2V84z"/>
<path fill="#515254" d="M104.3,104.4l3.1-3.7c2.1,1.8,4.4,2.9,7.1,2.9c2.1,0,3.4-0.9,3.4-2.2v-0.1c0-1.3-0.8-2-4.8-3
	c-4.8-1.2-7.9-2.6-7.9-7.3v-0.1c0-4.3,3.5-7.2,8.4-7.2c3.5,0,6.4,1.1,8.9,3l-2.7,4c-2.1-1.5-4.2-2.4-6.2-2.4s-3.1,0.9-3.1,2.1v0.1
	c0,1.6,1,2.1,5.1,3.1c4.8,1.3,7.6,3,7.6,7.2v0.1c0,4.7-3.6,7.4-8.8,7.4C110.8,108.2,107.1,106.9,104.3,104.4z"/>
<path fill="#515254" d="M124.6,84h5.2v9.4h9.7V84h5.2v23.9h-5.2v-9.6h-9.7v9.6h-5.2V84z"/>
<path fill="#515254" d="M146.3,96L146.3,96c0-6.9,5.4-12.4,12.7-12.4c7.4,0,12.6,5.5,12.6,12.3v0.1c0,6.8-5.4,12.3-12.7,12.3
	S146.3,102.8,146.3,96z M166.1,96L166.1,96c0-4.2-3-7.6-7.2-7.6c-4.2,0-7.2,3.3-7.2,7.4v0.1c0,4.1,3,7.5,7.2,7.5
	C163.2,103.4,166.1,100.1,166.1,96z"/>
<path fill="#515254" d="M173.1,84h9.7c5.7,0,9.1,3.4,9.1,8.2v0.1c0,5.5-4.3,8.4-9.6,8.4h-4v7.2h-5.2V84z M182.5,96
	c2.6,0,4.2-1.6,4.2-3.6v-0.1c0-2.4-1.6-3.6-4.3-3.6h-4.1V96H182.5z"/>
<g>
	<path fill="#67A8C8" d="M60.6,65.2c-1.9,0-3.4-1.5-3.4-3.4v0c0-1.9,1.4-3.4,3.4-3.4c1.2,0,2,0.4,2.6,1l-0.9,1.1
		c-0.5-0.5-1-0.7-1.7-0.7c-1.1,0-1.9,0.9-1.9,2v0c0,1.1,0.8,2.1,1.9,2.1c0.7,0,1.2-0.3,1.7-0.8l0.9,0.9
		C62.6,64.8,61.9,65.2,60.6,65.2z"/>
	<path fill="#67A8C8" d="M67.8,65.1v-2.6h-2.7v2.6h-1.4v-6.5h1.4v2.6h2.7v-2.6h1.4v6.5H67.8z"/>
	<path fill="#67A8C8" d="M70.3,65.1v-6.5h1.4v6.5H70.3z"/>
	<path fill="#67A8C8" d="M75.7,65.2c-1.9,0-3.4-1.5-3.4-3.4v0c0-1.9,1.4-3.4,3.4-3.4c1.2,0,2,0.4,2.6,1l-0.9,1.1
		c-0.5-0.5-1-0.7-1.7-0.7c-1.1,0-1.9,0.9-1.9,2v0c0,1.1,0.8,2.1,1.9,2.1c0.7,0,1.2-0.3,1.7-0.8l0.9,0.9C77.7,64.8,77,65.2,75.7,65.2
		z"/>
	<path fill="#67A8C8" d="M83.7,65.1l-0.6-1.5h-2.8l-0.6,1.5h-1.5l2.8-6.6h1.3l2.8,6.6H83.7z M81.8,60.3l-0.9,2.1h1.7L81.8,60.3z"/>
	<path fill="#67A8C8" d="M88.3,65.2c-2,0-3.4-1.4-3.4-3.4v0c0-1.9,1.4-3.4,3.4-3.4c1.2,0,1.9,0.3,2.6,0.9L90,60.5
		c-0.5-0.4-1-0.7-1.7-0.7c-1,0-1.9,0.9-1.9,2v0c0,1.2,0.8,2.1,2,2.1c0.5,0,1-0.1,1.4-0.4v-0.9h-1.5v-1.2h2.8v2.8
		C90.5,64.8,89.5,65.2,88.3,65.2z"/>
	<path fill="#67A8C8" d="M95,65.2c-2,0-3.5-1.5-3.5-3.4v0c0-1.9,1.5-3.4,3.5-3.4c2,0,3.5,1.5,3.5,3.4v0C98.5,63.7,97.1,65.2,95,65.2
		z M97,61.9c0-1.1-0.8-2.1-2-2.1c-1.2,0-2,0.9-2,2v0c0,1.1,0.8,2.1,2,2.1C96.2,63.9,97,63,97,61.9L97,61.9z"/>
	<path fill="#67A8C8" d="M106.8,65.2c-1.9,0-3.4-1.5-3.4-3.4v0c0-1.9,1.4-3.4,3.4-3.4c1.2,0,2,0.4,2.6,1l-0.9,1.1
		c-0.5-0.5-1-0.7-1.7-0.7c-1.1,0-1.9,0.9-1.9,2v0c0,1.1,0.8,2.1,1.9,2.1c0.7,0,1.2-0.3,1.7-0.8l0.9,0.9
		C108.8,64.8,108.1,65.2,106.8,65.2z"/>
	<path fill="#67A8C8" d="M114.8,65.1l-0.6-1.5h-2.8l-0.6,1.5h-1.5l2.8-6.6h1.3l2.8,6.6H114.8z M112.8,60.3l-0.9,2.1h1.7L112.8,60.3z
		"/>
	<path fill="#67A8C8" d="M121.8,65.1v-4.3l-1.8,2.8h0l-1.8-2.8v4.2h-1.4v-6.5h1.6l1.7,2.8l1.7-2.8h1.6v6.5H121.8z"/>
	<path fill="#67A8C8" d="M126.7,63.2h-1.1v2h-1.4v-6.5h2.7c1.6,0,2.5,0.9,2.5,2.3v0C129.4,62.4,128.2,63.2,126.7,63.2z M127.9,60.9
		c0-0.6-0.4-1-1.2-1h-1.1v2h1.1C127.5,61.9,127.9,61.5,127.9,60.9L127.9,60.9z"/>
	<path fill="#67A8C8" d="M132.1,65.2c-1,0-2-0.3-2.8-1l0.9-1c0.6,0.5,1.2,0.8,2,0.8c0.6,0,0.9-0.2,0.9-0.6v0c0-0.4-0.2-0.6-1.3-0.8
		c-1.3-0.3-2.2-0.7-2.2-2v0c0-1.2,1-2,2.3-2c1,0,1.8,0.3,2.4,0.8l-0.7,1.1c-0.6-0.4-1.1-0.6-1.7-0.6c-0.6,0-0.8,0.3-0.8,0.6v0
		c0,0.4,0.3,0.6,1.4,0.9c1.3,0.3,2.1,0.8,2.1,2v0C134.5,64.5,133.5,65.2,132.1,65.2z"/>
</g>
<polygon fill="#FF0000" points="101,60.6 101.2,61.6 102.2,61.3 101.5,62.1 102.2,62.8 101.2,62.5 101,63.5 100.7,62.5 99.7,62.8 
	100.5,62.1 99.7,61.3 100.7,61.6 "/>
<polygon fill="#515254" points="34.1,74.5 34.1,60.3 95.9,24.6 157.7,60.3 157.7,74.5 161.5,74.5 161.5,58.1 95.9,20.2 30.3,58.1 
	30.3,74.5 "/>
<polygon fill="#515254" points="157.7,117.5 157.7,131.7 95.9,167.4 34.1,131.7 34.1,117.5 30.3,117.5 30.3,133.9 95.9,171.8 
	161.5,133.9 161.5,117.5 "/>
</svg>
