<?xml version="1.0" encoding="utf-8"?>
<!-- Generator: Adobe Illustrator 18.1.0, SVG Export Plug-In . SVG Version: 6.00 Build 0)  -->
<!DOCTYPE svg PUBLIC "-//W3C//DTD SVG 1.1//EN" "http://www.w3.org/Graphics/SVG/1.1/DTD/svg11.dtd">
<svg version="1.1" id="Layer_1" xmlns="http://www.w3.org/2000/svg" xmlns:xlink="http://www.w3.org/1999/xlink" x="0px" y="0px"
	 viewBox="0 0 270 270" enable-background="new 0 0 270 270" xml:space="preserve">
<path fill="#FFFFFF" d="M74.5,178.6h2.3l2,6.6l2.2-6.6h1.8l2.2,6.6l2-6.6h2.2l-3.3,9.8H84l-2.2-6.3l-2.2,6.3h-1.9L74.5,178.6z"/>
<path fill="#FFFFFF" d="M94.5,183.5L94.5,183.5c0-2.8,2.2-5,5.2-5c3,0,5.1,2.2,5.1,5v0c0,2.8-2.2,5-5.2,5S94.5,186.2,94.5,183.5z
	 M102.6,183.5L102.6,183.5c0-1.7-1.2-3.1-2.9-3.1s-2.9,1.4-2.9,3v0c0,1.7,1.2,3,2.9,3C101.4,186.5,102.6,185.1,102.6,183.5z"/>
<path fill="#FFFFFF" d="M110.8,178.6h4.4c1.2,0,2.2,0.3,2.8,1c0.5,0.5,0.8,1.3,0.8,2.2v0c0,1.6-0.8,2.5-2.1,3l2.4,3.5h-2.5l-2.1-3.1
	h0H113v3.1h-2.1V178.6z M115.1,183.3c1,0,1.6-0.6,1.6-1.4v0c0-0.9-0.6-1.4-1.7-1.4H113v2.8H115.1z"/>
<path fill="#FFFFFF" d="M125,178.6h2.1v4.2l3.9-4.2h2.6l-3.9,4.1l4.1,5.6h-2.6l-3-4.1l-1.1,1.2v3H125V178.6z"/>
<path fill="#FFFFFF" d="M138.6,186.9l1.3-1.5c0.9,0.7,1.8,1.2,2.9,1.2c0.9,0,1.4-0.3,1.4-0.9v0c0-0.5-0.3-0.8-2-1.2
	c-2-0.5-3.2-1-3.2-3v0c0-1.8,1.4-2.9,3.4-2.9c1.4,0,2.6,0.4,3.6,1.2l-1.1,1.6c-0.9-0.6-1.7-1-2.5-1c-0.8,0-1.2,0.4-1.2,0.8v0
	c0,0.6,0.4,0.8,2.1,1.3c2,0.5,3.1,1.2,3.1,2.9v0c0,1.9-1.5,3-3.6,3C141.2,188.4,139.8,187.9,138.6,186.9z"/>
<path fill="#FFFFFF" d="M152.3,178.6h2.1v3.8h3.9v-3.8h2.1v9.7h-2.1v-3.9h-3.9v3.9h-2.1V178.6z"/>
<path fill="#FFFFFF" d="M166.5,183.5L166.5,183.5c0-2.8,2.2-5,5.2-5s5.1,2.2,5.1,5v0c0,2.8-2.2,5-5.2,5S166.5,186.2,166.5,183.5z
	 M174.6,183.5L174.6,183.5c0-1.7-1.2-3.1-2.9-3.1s-2.9,1.4-2.9,3v0c0,1.7,1.2,3,2.9,3C173.4,186.5,174.6,185.1,174.6,183.5z"/>
<path fill="#FFFFFF" d="M182.9,178.6h4c2.3,0,3.7,1.4,3.7,3.4v0c0,2.2-1.7,3.4-3.9,3.4H185v2.9h-2.1V178.6z M186.7,183.5
	c1.1,0,1.7-0.6,1.7-1.5v0c0-1-0.7-1.5-1.7-1.5H185v3H186.7z"/>
<path fill="#FFFFFF" d="M0,118.1h7.9l7,22.7l7.5-22.8h6.3l7.5,22.8l7-22.7h7.7l-11.5,33.8H33l-7.6-22l-7.6,22h-6.4L0,118.1z"/>
<path fill="#FFFFFF" d="M50.4,135L50.4,135c0-9.6,7.5-17.4,17.9-17.4c10.4,0,17.8,7.7,17.8,17.3v0.1c0,9.5-7.5,17.4-17.9,17.4
	S50.4,144.5,50.4,135z M78.4,135L78.4,135c0-5.8-4.2-10.6-10.2-10.6c-5.9,0-10.1,4.7-10.1,10.5v0.1c0,5.8,4.2,10.5,10.2,10.5
	C74.3,145.4,78.4,140.7,78.4,135z"/>
<path fill="#FFFFFF" d="M88.2,118.1h15.3c4.3,0,7.6,1.2,9.8,3.4c1.9,1.9,2.9,4.5,2.9,7.7v0.1c0,5.4-2.9,8.8-7.2,10.4l8.2,12h-8.6
	l-7.2-10.7h-0.1h-5.7v10.7h-7.4V118.1z M103.1,134.4c3.6,0,5.7-1.9,5.7-4.7v-0.1c0-3.2-2.2-4.8-5.8-4.8h-7.3v9.6H103.1z"/>
<path fill="#FFFFFF" d="M118.4,118.1h7.4v14.7l13.6-14.7h8.9l-13.7,14.2l14.3,19.3h-8.9l-10.4-14.3l-3.9,4v10.3h-7.4V118.1z"/>
<path fill="#FFFFFF" d="M146.7,146.8l4.4-5.2c3,2.5,6.2,4.1,10,4.1c3,0,4.8-1.2,4.8-3.2v-0.1c0-1.9-1.2-2.8-6.8-4.3
	c-6.8-1.7-11.1-3.6-11.1-10.3v-0.1c0-6.1,4.9-10.1,11.7-10.1c4.9,0,9.1,1.5,12.5,4.3l-3.8,5.6c-3-2.1-5.9-3.3-8.7-3.3
	c-2.8,0-4.3,1.3-4.3,2.9v0.1c0,2.2,1.4,2.9,7.2,4.4c6.8,1.8,10.6,4.2,10.6,10.1v0.1c0,6.7-5.1,10.4-12.3,10.4
	C155.8,152.1,150.7,150.4,146.7,146.8z"/>
<path fill="#FFFFFF" d="M175.2,118.1h7.4v13.3h13.6v-13.3h7.4v33.6h-7.4v-13.5h-13.6v13.5h-7.4V118.1z"/>
<path fill="#FFFFFF" d="M205.7,135L205.7,135c0-9.6,7.5-17.4,17.9-17.4c10.4,0,17.8,7.7,17.8,17.3v0.1c0,9.5-7.5,17.4-17.9,17.4
	S205.7,144.5,205.7,135z M233.6,135L233.6,135c0-5.8-4.2-10.6-10.2-10.6c-5.9,0-10.1,4.7-10.1,10.5v0.1c0,5.8,4.2,10.5,10.2,10.5
	C229.5,145.4,233.6,140.7,233.6,135z"/>
<path fill="#FFFFFF" d="M243.4,118.1h13.7c8,0,12.8,4.7,12.8,11.6v0.1c0,7.8-6,11.8-13.6,11.8h-5.6v10.1h-7.4V118.1z M256.7,135
	c3.7,0,5.8-2.2,5.8-5.1v-0.1c0-3.3-2.3-5.1-6-5.1h-5.7V135H256.7z"/>
<g>
	<path fill="#FFFFFF" d="M85.2,91.8c-2.7,0-4.7-2.1-4.7-4.7v0c0-2.6,2-4.8,4.8-4.8c1.7,0,2.8,0.6,3.6,1.4l-1.3,1.5
		c-0.7-0.6-1.4-1-2.4-1c-1.6,0-2.7,1.3-2.7,2.9v0c0,1.6,1.1,2.9,2.7,2.9c1.1,0,1.7-0.4,2.4-1.1l1.3,1.3C88,91.1,87,91.8,85.2,91.8z"
		/>
	<path fill="#FFFFFF" d="M95.4,91.6v-3.7h-3.7v3.7h-2v-9.2h2V86h3.7v-3.6h2v9.2H95.4z"/>
	<path fill="#FFFFFF" d="M98.8,91.6v-9.2h2v9.2H98.8z"/>
	<path fill="#FFFFFF" d="M106.5,91.8c-2.7,0-4.7-2.1-4.7-4.7v0c0-2.6,2-4.8,4.8-4.8c1.7,0,2.8,0.6,3.6,1.4l-1.3,1.5
		c-0.7-0.6-1.4-1-2.4-1c-1.6,0-2.7,1.3-2.7,2.9v0c0,1.6,1.1,2.9,2.7,2.9c1.1,0,1.7-0.4,2.4-1.1l1.3,1.3
		C109.3,91.1,108.3,91.8,106.5,91.8z"/>
	<path fill="#FFFFFF" d="M117.8,91.6l-0.8-2.1H113l-0.8,2.1h-2.1l3.9-9.3h1.9l3.9,9.3H117.8z M115,84.8l-1.2,3h2.4L115,84.8z"/>
	<path fill="#FFFFFF" d="M124.2,91.8c-2.9,0-4.8-2-4.8-4.7v0c0-2.6,2-4.8,4.8-4.8c1.7,0,2.7,0.4,3.6,1.3l-1.3,1.5
		c-0.7-0.6-1.3-0.9-2.4-0.9c-1.5,0-2.6,1.3-2.6,2.9v0c0,1.7,1.2,2.9,2.8,2.9c0.7,0,1.4-0.2,1.9-0.6V88h-2v-1.7h4v4
		C127.2,91.1,125.9,91.8,124.2,91.8z"/>
	<path fill="#FFFFFF" d="M133.7,91.8c-2.8,0-4.9-2.1-4.9-4.7v0c0-2.6,2.1-4.8,4.9-4.8c2.8,0,4.9,2.1,4.9,4.7v0
		C138.6,89.6,136.5,91.8,133.7,91.8z M136.5,87c0-1.6-1.2-2.9-2.8-2.9c-1.6,0-2.8,1.3-2.8,2.9v0c0,1.6,1.2,2.9,2.8,2.9
		C135.3,89.9,136.5,88.6,136.5,87L136.5,87z"/>
	<path fill="#FFFFFF" d="M150.2,91.8c-2.7,0-4.7-2.1-4.7-4.7v0c0-2.6,2-4.8,4.8-4.8c1.7,0,2.8,0.6,3.6,1.4l-1.3,1.5
		c-0.7-0.6-1.4-1-2.4-1c-1.6,0-2.7,1.3-2.7,2.9v0c0,1.6,1.1,2.9,2.7,2.9c1.1,0,1.7-0.4,2.4-1.1l1.3,1.3
		C153,91.1,152,91.8,150.2,91.8z"/>
	<path fill="#FFFFFF" d="M161.5,91.6l-0.8-2.1h-3.9l-0.8,2.1h-2.1l3.9-9.3h1.9l3.9,9.3H161.5z M158.7,84.8l-1.2,3h2.4L158.7,84.8z"
		/>
	<path fill="#FFFFFF" d="M171.2,91.6v-6l-2.6,3.9h-0.1l-2.6-3.9v6h-2v-9.2h2.2l2.4,3.9l2.4-3.9h2.2v9.2H171.2z"/>
	<path fill="#FFFFFF" d="M178.2,88.8h-1.5v2.8h-2v-9.2h3.8c2.2,0,3.5,1.3,3.5,3.2v0C181.9,87.7,180.3,88.8,178.2,88.8z M179.9,85.6
		c0-0.9-0.6-1.4-1.6-1.4h-1.6V87h1.6C179.3,87,179.9,86.4,179.9,85.6L179.9,85.6z"/>
	<path fill="#FFFFFF" d="M185.8,91.7c-1.4,0-2.8-0.5-3.9-1.5l1.2-1.4c0.8,0.7,1.7,1.1,2.7,1.1c0.8,0,1.3-0.3,1.3-0.9v0
		c0-0.5-0.3-0.8-1.9-1.2c-1.9-0.5-3.1-1-3.1-2.8v0c0-1.7,1.3-2.8,3.2-2.8c1.3,0,2.5,0.4,3.4,1.2l-1.1,1.5c-0.8-0.6-1.6-0.9-2.4-0.9
		c-0.8,0-1.2,0.4-1.2,0.8v0c0,0.6,0.4,0.8,2,1.2c1.9,0.5,2.9,1.2,2.9,2.8v0C189.2,90.7,187.8,91.7,185.8,91.7z"/>
</g>
<polygon fill="#FFFFFF" points="142,85.2 142.4,86.7 143.8,86.3 142.7,87.3 143.8,88.3 142.4,87.9 142,89.3 141.7,87.9 140.3,88.3 
	141.3,87.3 140.3,86.3 141.7,86.7 "/>
<polygon fill="#FFFFFF" points="47.9,104.7 47.9,84.8 134.8,34.6 221.8,84.8 221.8,104.7 227.1,104.7 227.1,81.7 134.8,28.5 
	42.6,81.7 42.6,104.7 "/>
<polygon fill="#FFFFFF" points="221.8,165.3 221.8,185.2 134.8,235.4 47.9,185.2 47.9,165.3 42.6,165.3 42.6,188.3 134.8,241.5 
	227.1,188.3 227.1,165.3 "/>
</svg>
